<svg width="219" height="142" viewBox="0 0 219 142" fill="none" xmlns="http://www.w3.org/2000/svg">
<path d="M163 57H146V69H163V57Z" fill="#6C63FF"/>
<path d="M138 74H121V86H138V74Z" fill="#6C63FF"/>
<path d="M16.9982 121.609C17.3958 120.891 17.6013 120.076 17.5934 119.248C17.5934 117.115 16.3168 115.385 14.742 115.385C13.1672 115.385 11.8906 117.115 11.8906 119.248C11.8827 120.076 12.0882 120.891 12.4857 121.609C12.0955 122.331 11.8906 123.144 11.8906 123.971C11.8906 124.797 12.0955 125.61 12.4857 126.332C12.0955 127.053 11.8906 127.866 11.8906 128.693C11.8906 129.519 12.0955 130.332 12.4857 131.054C12.0955 131.775 11.8906 132.588 11.8906 133.415C11.8906 134.241 12.0955 135.054 12.4857 135.776C12.0882 136.494 11.8827 137.309 11.8906 138.137C11.8906 140.27 13.1672 142 14.742 142C16.3168 142 17.5934 140.27 17.5934 138.137C17.6013 137.309 17.3958 136.494 16.9982 135.776C17.3885 135.054 17.5934 134.241 17.5934 133.415C17.5934 132.588 17.3885 131.775 16.9982 131.054C17.3885 130.332 17.5934 129.519 17.5934 128.693C17.5934 127.866 17.3885 127.053 16.9982 126.332C17.3885 125.61 17.5934 124.797 17.5934 123.971C17.5934 123.144 17.3885 122.331 16.9982 121.609Z" fill="#3F3D56"/>
<path d="M14.742 118.237C16.3169 118.237 17.5936 116.534 17.5936 114.434C17.5936 112.335 16.3169 110.632 14.742 110.632C13.1671 110.632 11.8904 112.335 11.8904 114.434C11.8904 116.534 13.1671 118.237 14.742 118.237Z" fill="#3F3D56"/>
<path d="M14.742 113.484C16.3169 113.484 17.5936 111.782 17.5936 109.682C17.5936 107.582 16.3169 105.88 14.742 105.88C13.1671 105.88 11.8904 107.582 11.8904 109.682C11.8904 111.782 13.1671 113.484 14.742 113.484Z" fill="#3F3D56"/>
<path d="M25.9487 76.6411C26.3554 76.1241 26.7257 75.5797 27.0572 75.0117L19.2359 73.729L27.6949 73.7918C28.5063 72.0288 28.949 70.119 28.9958 68.1793C29.0427 66.2395 28.6926 64.3106 27.9672 62.5106L16.6185 68.3893L27.0846 60.707C26.1041 59.015 24.7851 57.5428 23.2099 56.382C21.6348 55.2213 19.8371 54.3968 17.9289 53.96C16.0207 53.5233 14.0429 53.4835 12.1187 53.8433C10.1944 54.2031 8.365 54.9547 6.74434 56.0513C5.12368 57.1479 3.74651 58.5659 2.69862 60.2171C1.65073 61.8684 0.954576 63.7174 0.653516 65.649C0.352455 67.5806 0.452942 69.5534 0.948717 71.4445C1.44449 73.3356 2.32493 75.1045 3.53519 76.6411C2.90131 77.4457 2.35613 78.3162 1.90911 79.2375L12.0617 84.5045L1.23621 80.8765C0.476093 83.1202 0.288244 85.5178 0.689659 87.8523C1.09107 90.1868 2.06909 92.3845 3.53519 94.2465C1.88096 96.3466 0.851909 98.8691 0.565697 101.526C0.279485 104.182 0.747661 106.866 1.9167 109.269C3.08574 111.672 4.90845 113.699 7.17645 115.116C9.44445 116.534 12.0662 117.286 14.7419 117.286C17.4177 117.286 20.0394 116.534 22.3074 115.116C24.5754 113.699 26.3981 111.672 27.5672 109.269C28.7362 106.866 29.2044 104.182 28.9182 101.526C28.632 98.8691 27.6029 96.3466 25.9487 94.2465C27.9254 91.7369 29 88.6367 29 85.4438C29 82.2509 27.9254 79.1507 25.9487 76.6411L25.9487 76.6411Z" fill="#F2F2F2"/>
<path d="M0.483904 85.1795C0.478981 88.3998 1.55415 91.5273 3.5352 94.0554C1.88096 96.1729 0.851914 98.7164 0.565702 101.395C0.27949 104.074 0.747666 106.779 1.9167 109.203C3.08574 111.626 4.90846 113.669 7.17646 115.099C9.44446 116.528 12.0662 117.286 14.7419 117.286C17.4177 117.286 20.0394 116.528 22.3074 115.099C24.5754 113.669 26.3981 111.626 27.5672 109.203C28.7362 106.779 29.2044 104.074 28.9182 101.395C28.632 98.7164 27.6029 96.1729 25.9487 94.0554C27.8597 91.6127 0.483904 83.5683 0.483904 85.1795Z" fill="#F2F2F2"/>
<path d="M25.9487 76.6411C26.3554 76.1241 26.7257 75.5797 27.0572 75.0117L19.2359 73.729L27.6949 73.7918C28.5063 72.0288 28.949 70.119 28.9958 68.1793C29.0427 66.2395 28.6926 64.3106 27.9672 62.5106L16.6185 68.3893L27.0846 60.707C26.1041 59.015 24.7851 57.5428 23.2099 56.382C21.6348 55.2213 19.8371 54.3968 17.9289 53.96C16.0207 53.5233 14.0429 53.4835 12.1187 53.8433C10.1944 54.2031 8.365 54.9547 6.74434 56.0513C5.12368 57.1479 3.74651 58.5659 2.69862 60.2171C1.65073 61.8684 0.954576 63.7174 0.653516 65.649C0.352455 67.5806 0.452942 69.5534 0.948717 71.4445C1.44449 73.3356 2.32493 75.1045 3.53519 76.6411C2.90131 77.4457 2.35613 78.3162 1.90911 79.2375L12.0617 84.5045L1.23621 80.8765C0.476093 83.1202 0.288244 85.5178 0.689659 87.8523C1.09107 90.1868 2.06909 92.3845 3.53519 94.2465C1.88096 96.3466 0.851909 98.8691 0.565697 101.526C0.279485 104.182 0.747661 106.866 1.9167 109.269C3.08574 111.672 4.90845 113.699 7.17645 115.116C9.44445 116.534 12.0662 117.286 14.7419 117.286C17.4177 117.286 20.0394 116.534 22.3074 115.116C24.5754 113.699 26.3981 111.672 27.5672 109.269C28.7362 106.866 29.2044 104.182 28.9182 101.526C28.632 98.8691 27.6029 96.3466 25.9487 94.2465C27.9254 91.7369 29 88.6367 29 85.4438C29 82.2509 27.9254 79.1507 25.9487 76.6411L25.9487 76.6411Z" fill="#2FC643"/>
<path opacity="0.1" d="M0.483904 85.1795C0.478981 88.3998 1.55415 91.5273 3.5352 94.0554C1.88096 96.1729 0.851914 98.7164 0.565702 101.395C0.27949 104.074 0.747666 106.779 1.9167 109.203C3.08574 111.626 4.90846 113.669 7.17646 115.099C9.44446 116.528 12.0662 117.286 14.7419 117.286C17.4177 117.286 20.0394 116.528 22.3074 115.099C24.5754 113.669 26.3981 111.626 27.5672 109.203C28.7362 106.779 29.2044 104.074 28.9182 101.395C28.632 98.7164 27.6029 96.1729 25.9487 94.0554C27.8597 91.6127 0.483904 83.5683 0.483904 85.1795Z" fill="black"/>
<path d="M210.92 60.1923V37.6923H198.414V23.0769H189.949V37.6923H177.444V60.1923H170.518V9.61538H156.474V4.80769H137.812V0H119.342V4.80769H101.835V9.61538H86.6364V60H78.556V37.5H66.0507V22.8846H57.5856V37.5H45.0803V60H37V139.808H55.4693V111.538H68.167V139.808H117.803V106.923H139.351V139.808H169.364V140H187.833V111.731H200.531V140H219V60.1923H210.92ZM43.6374 69.8077H50.9482V75.5769H43.6374V69.8077ZM43.7336 85.9615H51.0444V91.7308H43.7336V85.9615ZM51.1406 107.885H43.8298V102.115H51.1406V107.885ZM70.2833 55.7692H53.3531V52.3077H70.2833V55.7692ZM70.2833 50.7692H53.3531V47.3077H70.2833V50.7692ZM70.2833 45.7692H53.3531V42.3077H70.2833V45.7692ZM72.6882 69.8077H79.9989V75.5769H72.6882V69.8077ZM72.7844 85.9615H80.0951V91.7308H72.7844V85.9615ZM80.1913 107.885H72.8806V102.115H80.1913V107.885ZM110.108 98.2692H96.6406V92.3077H110.108V98.2692ZM110.108 81.1538H96.6406V75.1923H110.108V81.1538ZM110.108 64.0385H96.6406V58.0769H110.108V64.0385ZM110.108 46.9231H96.6406V40.9615H110.108V46.9231ZM110.108 29.8077H96.6406V23.8462H110.108V29.8077ZM135.311 98.2692H121.844V92.3077H135.311V98.2692ZM135.311 81.1538H121.844V75.1923H135.311V81.1538ZM135.311 64.0385H121.844V58.0769H135.311V64.0385ZM135.311 46.9231H121.844V40.9615H135.311V46.9231ZM135.311 29.8077H121.844V23.8462H135.311V29.8077ZM160.514 98.2692H147.047V92.3077H160.514V98.2692ZM160.514 81.1538H147.047V75.1923H160.514V81.1538ZM160.514 64.0385H147.047V58.0769H160.514V64.0385ZM160.514 46.9231H147.047V40.9615H160.514V46.9231ZM160.514 29.8077H147.047V23.8462H160.514V29.8077ZM176.001 70H183.312V75.7692H176.001V70ZM176.097 86.1538H183.408V91.9231H176.097V86.1538ZM183.504 108.077H176.193V102.308H183.504V108.077ZM202.647 55.9615H185.717V52.5H202.647V55.9615ZM202.647 50.9615H185.717V47.5H202.647V50.9615ZM202.647 45.9615H185.717V42.5H202.647V45.9615ZM205.052 70H212.363V75.7692H205.052V70ZM205.148 86.1538H212.459V91.9231H205.148V86.1538ZM212.555 108.077H205.244V102.308H212.555V108.077Z" fill="#F2F2F2"/>
<path d="M161.498 54L153.358 62.77L149.501 58.6149L148 60.2326L153.353 66L163 55.6177L161.498 54Z" fill="#2FC643"/>
<path d="M136.498 72L128.358 80.0391L124.501 76.2303L123 77.7132L128.353 83L138 73.4829L136.498 72Z" fill="#2FC643"/>
</svg>
