<svg width="248" height="88" viewBox="0 0 248 88" fill="none" xmlns="http://www.w3.org/2000/svg">
<path d="M0 10C0 4.47715 4.47715 0 10 0H238C243.523 0 248 4.47715 248 10V78C248 83.5229 243.523 88 238 88H10C4.47716 88 0 83.5229 0 78V10Z" fill="black" fill-opacity="0.9"/>
<path d="M55.5897 45.0817C55.5708 41.9669 57.0296 39.6194 59.9755 37.8884C58.3279 35.6049 55.8352 34.3489 52.5494 34.1069C49.4382 33.8694 46.0343 35.8606 44.788 35.8606C43.4708 35.8606 40.4588 34.1891 38.0888 34.1891C33.1979 34.2621 28 37.9615 28 45.4881C28 47.7123 28.4202 50.0096 29.2605 52.3754C30.3841 55.4902 34.4348 63.1218 38.6601 62.9985C40.8695 62.9483 42.4322 61.4822 45.3073 61.4822C48.0974 61.4822 49.5421 62.9985 52.0064 62.9985C56.2695 62.9391 59.933 56.0017 61 52.8778C55.2828 50.2699 55.5897 45.2415 55.5897 45.0817ZM50.6279 31.1519C53.0215 28.4025 52.8043 25.8997 52.7335 25C50.6185 25.1187 48.173 26.393 46.7803 27.9595C45.2459 29.6402 44.3442 31.7182 44.5378 34.0612C46.8227 34.2302 48.9094 33.093 50.6279 31.1519Z" fill="white"/>
<path d="M87.162 24.2H91.614C92.678 24.2 93.616 24.4053 94.428 24.816C95.2493 25.2173 95.884 25.7867 96.332 26.524C96.7893 27.2613 97.018 28.12 97.018 29.1C97.018 30.08 96.7893 30.9387 96.332 31.676C95.884 32.4133 95.2493 32.9873 94.428 33.398C93.616 33.7993 92.678 34 91.614 34H87.162V24.2ZM91.502 32.138C92.482 32.138 93.2613 31.8673 93.84 31.326C94.428 30.7753 94.722 30.0333 94.722 29.1C94.722 28.1667 94.428 27.4293 93.84 26.888C93.2613 26.3373 92.482 26.062 91.502 26.062H89.43V32.138H91.502ZM102.358 34.112C101.565 34.112 100.851 33.9487 100.216 33.622C99.5911 33.286 99.1011 32.824 98.7464 32.236C98.3917 31.648 98.2144 30.9807 98.2144 30.234C98.2144 29.4873 98.3917 28.82 98.7464 28.232C99.1011 27.644 99.5911 27.1867 100.216 26.86C100.851 26.524 101.565 26.356 102.358 26.356C103.152 26.356 103.861 26.524 104.486 26.86C105.112 27.1867 105.602 27.644 105.956 28.232C106.311 28.82 106.488 29.4873 106.488 30.234C106.488 30.9807 106.311 31.648 105.956 32.236C105.602 32.824 105.112 33.286 104.486 33.622C103.861 33.9487 103.152 34.112 102.358 34.112ZM102.358 32.32C102.918 32.32 103.376 32.1333 103.73 31.76C104.094 31.3773 104.276 30.8687 104.276 30.234C104.276 29.5993 104.094 29.0953 103.73 28.722C103.376 28.3393 102.918 28.148 102.358 28.148C101.798 28.148 101.336 28.3393 100.972 28.722C100.608 29.0953 100.426 29.5993 100.426 30.234C100.426 30.8687 100.608 31.3773 100.972 31.76C101.336 32.1333 101.798 32.32 102.358 32.32ZM120.039 26.468L117.309 34H115.209L113.515 29.324L111.765 34H109.665L106.949 26.468H109.007L110.785 31.564L112.633 26.468H114.481L116.273 31.564L118.107 26.468H120.039ZM125.832 26.356C126.766 26.356 127.517 26.636 128.086 27.196C128.665 27.756 128.954 28.5867 128.954 29.688V34H126.77V30.024C126.77 29.4267 126.64 28.9833 126.378 28.694C126.117 28.3953 125.739 28.246 125.244 28.246C124.694 28.246 124.255 28.4187 123.928 28.764C123.602 29.1 123.438 29.604 123.438 30.276V34H121.254V26.468H123.34V27.35C123.63 27.0327 123.989 26.79 124.418 26.622C124.848 26.4447 125.319 26.356 125.832 26.356ZM131.134 23.612H133.318V34H131.134V23.612ZM139.129 34.112C138.336 34.112 137.622 33.9487 136.987 33.622C136.362 33.286 135.872 32.824 135.517 32.236C135.162 31.648 134.985 30.9807 134.985 30.234C134.985 29.4873 135.162 28.82 135.517 28.232C135.872 27.644 136.362 27.1867 136.987 26.86C137.622 26.524 138.336 26.356 139.129 26.356C139.922 26.356 140.632 26.524 141.257 26.86C141.882 27.1867 142.372 27.644 142.727 28.232C143.082 28.82 143.259 29.4873 143.259 30.234C143.259 30.9807 143.082 31.648 142.727 32.236C142.372 32.824 141.882 33.286 141.257 33.622C140.632 33.9487 139.922 34.112 139.129 34.112ZM139.129 32.32C139.689 32.32 140.146 32.1333 140.501 31.76C140.865 31.3773 141.047 30.8687 141.047 30.234C141.047 29.5993 140.865 29.0953 140.501 28.722C140.146 28.3393 139.689 28.148 139.129 28.148C138.569 28.148 138.107 28.3393 137.743 28.722C137.379 29.0953 137.197 29.5993 137.197 30.234C137.197 30.8687 137.379 31.3773 137.743 31.76C138.107 32.1333 138.569 32.32 139.129 32.32ZM147.834 26.356C149.001 26.356 149.897 26.636 150.522 27.196C151.147 27.7467 151.46 28.582 151.46 29.702V34H149.416V33.062C149.005 33.762 148.24 34.112 147.12 34.112C146.541 34.112 146.037 34.014 145.608 33.818C145.188 33.622 144.866 33.3513 144.642 33.006C144.418 32.6607 144.306 32.2687 144.306 31.83C144.306 31.13 144.567 30.5793 145.09 30.178C145.622 29.7767 146.439 29.576 147.54 29.576H149.276C149.276 29.1 149.131 28.736 148.842 28.484C148.553 28.2227 148.119 28.092 147.54 28.092C147.139 28.092 146.742 28.1573 146.35 28.288C145.967 28.4093 145.641 28.5773 145.37 28.792L144.586 27.266C144.997 26.9767 145.487 26.7527 146.056 26.594C146.635 26.4353 147.227 26.356 147.834 26.356ZM147.666 32.642C148.039 32.642 148.371 32.558 148.66 32.39C148.949 32.2127 149.155 31.956 149.276 31.62V30.85H147.778C146.882 30.85 146.434 31.144 146.434 31.732C146.434 32.012 146.541 32.236 146.756 32.404C146.98 32.5627 147.283 32.642 147.666 32.642ZM161.391 23.612V34H159.305V33.132C158.763 33.7853 157.979 34.112 156.953 34.112C156.243 34.112 155.599 33.9533 155.021 33.636C154.451 33.3187 154.003 32.866 153.677 32.278C153.35 31.69 153.187 31.0087 153.187 30.234C153.187 29.4593 153.35 28.778 153.677 28.19C154.003 27.602 154.451 27.1493 155.021 26.832C155.599 26.5147 156.243 26.356 156.953 26.356C157.914 26.356 158.665 26.6593 159.207 27.266V23.612H161.391ZM157.331 32.32C157.881 32.32 158.339 32.1333 158.703 31.76C159.067 31.3773 159.249 30.8687 159.249 30.234C159.249 29.5993 159.067 29.0953 158.703 28.722C158.339 28.3393 157.881 28.148 157.331 28.148C156.771 28.148 156.309 28.3393 155.945 28.722C155.581 29.0953 155.399 29.5993 155.399 30.234C155.399 30.8687 155.581 31.3773 155.945 31.76C156.309 32.1333 156.771 32.32 157.331 32.32ZM171.361 34.112C170.567 34.112 169.853 33.9487 169.219 33.622C168.593 33.286 168.103 32.824 167.749 32.236C167.394 31.648 167.217 30.9807 167.217 30.234C167.217 29.4873 167.394 28.82 167.749 28.232C168.103 27.644 168.593 27.1867 169.219 26.86C169.853 26.524 170.567 26.356 171.361 26.356C172.154 26.356 172.863 26.524 173.489 26.86C174.114 27.1867 174.604 27.644 174.959 28.232C175.313 28.82 175.491 29.4873 175.491 30.234C175.491 30.9807 175.313 31.648 174.959 32.236C174.604 32.824 174.114 33.286 173.489 33.622C172.863 33.9487 172.154 34.112 171.361 34.112ZM171.361 32.32C171.921 32.32 172.378 32.1333 172.733 31.76C173.097 31.3773 173.279 30.8687 173.279 30.234C173.279 29.5993 173.097 29.0953 172.733 28.722C172.378 28.3393 171.921 28.148 171.361 28.148C170.801 28.148 170.339 28.3393 169.975 28.722C169.611 29.0953 169.429 29.5993 169.429 30.234C169.429 30.8687 169.611 31.3773 169.975 31.76C170.339 32.1333 170.801 32.32 171.361 32.32ZM181.729 26.356C182.662 26.356 183.413 26.636 183.983 27.196C184.561 27.756 184.851 28.5867 184.851 29.688V34H182.667V30.024C182.667 29.4267 182.536 28.9833 182.275 28.694C182.013 28.3953 181.635 28.246 181.141 28.246C180.59 28.246 180.151 28.4187 179.825 28.764C179.498 29.1 179.335 29.604 179.335 30.276V34H177.151V26.468H179.237V27.35C179.526 27.0327 179.885 26.79 180.315 26.622C180.744 26.4447 181.215 26.356 181.729 26.356ZM196.053 33.636C195.838 33.7947 195.572 33.916 195.255 34C194.947 34.0747 194.62 34.112 194.275 34.112C193.379 34.112 192.684 33.8833 192.189 33.426C191.704 32.9687 191.461 32.2967 191.461 31.41V28.316H190.299V26.636H191.461V24.802H193.645V26.636H195.521V28.316H193.645V31.382C193.645 31.6993 193.724 31.9467 193.883 32.124C194.051 32.292 194.284 32.376 194.583 32.376C194.928 32.376 195.222 32.2827 195.465 32.096L196.053 33.636ZM202.057 26.356C202.99 26.356 203.742 26.636 204.311 27.196C204.89 27.756 205.179 28.5867 205.179 29.688V34H202.995V30.024C202.995 29.4267 202.864 28.9833 202.603 28.694C202.342 28.3953 201.964 28.246 201.469 28.246C200.918 28.246 200.48 28.4187 200.153 28.764C199.826 29.1 199.663 29.604 199.663 30.276V34H197.479V23.612H199.663V27.252C199.952 26.9627 200.302 26.7433 200.713 26.594C201.124 26.4353 201.572 26.356 202.057 26.356ZM214.819 30.262C214.819 30.29 214.805 30.486 214.777 30.85H209.079C209.181 31.3167 209.424 31.6853 209.807 31.956C210.189 32.2267 210.665 32.362 211.235 32.362C211.627 32.362 211.972 32.306 212.271 32.194C212.579 32.0727 212.863 31.886 213.125 31.634L214.287 32.894C213.577 33.706 212.541 34.112 211.179 34.112C210.329 34.112 209.578 33.9487 208.925 33.622C208.271 33.286 207.767 32.824 207.413 32.236C207.058 31.648 206.881 30.9807 206.881 30.234C206.881 29.4967 207.053 28.834 207.399 28.246C207.753 27.6487 208.234 27.1867 208.841 26.86C209.457 26.524 210.143 26.356 210.899 26.356C211.636 26.356 212.303 26.5147 212.901 26.832C213.498 27.1493 213.965 27.6067 214.301 28.204C214.646 28.792 214.819 29.478 214.819 30.262ZM210.913 28.008C210.418 28.008 210.003 28.148 209.667 28.428C209.331 28.708 209.125 29.0907 209.051 29.576H212.761C212.686 29.1 212.481 28.722 212.145 28.442C211.809 28.1527 211.398 28.008 210.913 28.008Z" fill="white"/>
<path d="M97.02 58.5H89.58L88.04 62H85.98L92.32 48H94.3L100.66 62H98.56L97.02 58.5ZM96.32 56.9L93.3 50.04L90.28 56.9H96.32ZM108.288 51.3C109.315 51.3 110.235 51.5267 111.048 51.98C111.862 52.4333 112.495 53.0667 112.948 53.88C113.415 54.6933 113.648 55.6333 113.648 56.7C113.648 57.7667 113.415 58.7133 112.948 59.54C112.495 60.3533 111.862 60.9867 111.048 61.44C110.235 61.8933 109.315 62.12 108.288 62.12C107.528 62.12 106.828 61.9733 106.188 61.68C105.562 61.3867 105.028 60.96 104.588 60.4V65.88H102.668V51.4H104.508V53.08C104.935 52.4933 105.475 52.0533 106.128 51.76C106.782 51.4533 107.502 51.3 108.288 51.3ZM108.128 60.44C108.808 60.44 109.415 60.2867 109.948 59.98C110.495 59.66 110.922 59.22 111.228 58.66C111.548 58.0867 111.708 57.4333 111.708 56.7C111.708 55.9667 111.548 55.32 111.228 54.76C110.922 54.1867 110.495 53.7467 109.948 53.44C109.415 53.1333 108.808 52.98 108.128 52.98C107.462 52.98 106.855 53.14 106.308 53.46C105.775 53.7667 105.348 54.2 105.028 54.76C104.722 55.32 104.568 55.9667 104.568 56.7C104.568 57.4333 104.722 58.0867 105.028 58.66C105.335 59.22 105.762 59.66 106.308 59.98C106.855 60.2867 107.462 60.44 108.128 60.44ZM122.121 51.3C123.148 51.3 124.068 51.5267 124.881 51.98C125.695 52.4333 126.328 53.0667 126.781 53.88C127.248 54.6933 127.481 55.6333 127.481 56.7C127.481 57.7667 127.248 58.7133 126.781 59.54C126.328 60.3533 125.695 60.9867 124.881 61.44C124.068 61.8933 123.148 62.12 122.121 62.12C121.361 62.12 120.661 61.9733 120.021 61.68C119.395 61.3867 118.861 60.96 118.421 60.4V65.88H116.501V51.4H118.341V53.08C118.768 52.4933 119.308 52.0533 119.961 51.76C120.615 51.4533 121.335 51.3 122.121 51.3ZM121.961 60.44C122.641 60.44 123.248 60.2867 123.781 59.98C124.328 59.66 124.755 59.22 125.061 58.66C125.381 58.0867 125.541 57.4333 125.541 56.7C125.541 55.9667 125.381 55.32 125.061 54.76C124.755 54.1867 124.328 53.7467 123.781 53.44C123.248 53.1333 122.641 52.98 121.961 52.98C121.295 52.98 120.688 53.14 120.141 53.46C119.608 53.7667 119.181 54.2 118.861 54.76C118.555 55.32 118.401 55.9667 118.401 56.7C118.401 57.4333 118.555 58.0867 118.861 58.66C119.168 59.22 119.595 59.66 120.141 59.98C120.688 60.2867 121.295 60.44 121.961 60.44ZM140.265 62.16C139.212 62.16 138.192 62 137.205 61.68C136.232 61.3467 135.465 60.92 134.905 60.4L135.645 58.84C136.178 59.32 136.858 59.7133 137.685 60.02C138.525 60.3133 139.385 60.46 140.265 60.46C141.425 60.46 142.292 60.2667 142.865 59.88C143.438 59.48 143.725 58.9533 143.725 58.3C143.725 57.82 143.565 57.4333 143.245 57.14C142.938 56.8333 142.552 56.6 142.085 56.44C141.632 56.28 140.985 56.1 140.145 55.9C139.092 55.6467 138.238 55.3933 137.585 55.14C136.945 54.8867 136.392 54.5 135.925 53.98C135.472 53.4467 135.245 52.7333 135.245 51.84C135.245 51.0933 135.438 50.42 135.825 49.82C136.225 49.22 136.825 48.74 137.625 48.38C138.425 48.02 139.418 47.84 140.605 47.84C141.432 47.84 142.245 47.9467 143.045 48.16C143.845 48.3733 144.532 48.68 145.105 49.08L144.445 50.68C143.858 50.3067 143.232 50.0267 142.565 49.84C141.898 49.64 141.245 49.54 140.605 49.54C139.472 49.54 138.618 49.7467 138.045 50.16C137.485 50.5733 137.205 51.1067 137.205 51.76C137.205 52.24 137.365 52.6333 137.685 52.94C138.005 53.2333 138.398 53.4667 138.865 53.64C139.345 53.8 139.992 53.9733 140.805 54.16C141.858 54.4133 142.705 54.6667 143.345 54.92C143.985 55.1733 144.532 55.56 144.985 56.08C145.452 56.6 145.685 57.3 145.685 58.18C145.685 58.9133 145.485 59.5867 145.085 60.2C144.685 60.8 144.078 61.28 143.265 61.64C142.452 61.9867 141.452 62.16 140.265 62.16ZM154.487 61.38C154.207 61.62 153.86 61.8067 153.447 61.94C153.034 62.06 152.607 62.12 152.167 62.12C151.1 62.12 150.274 61.8333 149.687 61.26C149.1 60.6867 148.807 59.8667 148.807 58.8V52.98H147.007V51.4H148.807V49.08H150.727V51.4H153.767V52.98H150.727V58.72C150.727 59.2933 150.867 59.7333 151.147 60.04C151.44 60.3467 151.854 60.5 152.387 60.5C152.974 60.5 153.474 60.3333 153.887 60L154.487 61.38ZM161.197 62.12C160.143 62.12 159.197 61.8867 158.357 61.42C157.517 60.9533 156.857 60.3133 156.377 59.5C155.91 58.6733 155.677 57.74 155.677 56.7C155.677 55.66 155.91 54.7333 156.377 53.92C156.857 53.0933 157.517 52.4533 158.357 52C159.197 51.5333 160.143 51.3 161.197 51.3C162.25 51.3 163.19 51.5333 164.017 52C164.857 52.4533 165.51 53.0933 165.977 53.92C166.457 54.7333 166.697 55.66 166.697 56.7C166.697 57.74 166.457 58.6733 165.977 59.5C165.51 60.3133 164.857 60.9533 164.017 61.42C163.19 61.8867 162.25 62.12 161.197 62.12ZM161.197 60.44C161.877 60.44 162.483 60.2867 163.017 59.98C163.563 59.66 163.99 59.22 164.297 58.66C164.603 58.0867 164.757 57.4333 164.757 56.7C164.757 55.9667 164.603 55.32 164.297 54.76C163.99 54.1867 163.563 53.7467 163.017 53.44C162.483 53.1333 161.877 52.98 161.197 52.98C160.517 52.98 159.903 53.1333 159.357 53.44C158.823 53.7467 158.397 54.1867 158.077 54.76C157.77 55.32 157.617 55.9667 157.617 56.7C157.617 57.4333 157.77 58.0867 158.077 58.66C158.397 59.22 158.823 59.66 159.357 59.98C159.903 60.2867 160.517 60.44 161.197 60.44ZM171.392 53.18C171.725 52.5667 172.219 52.1 172.872 51.78C173.525 51.46 174.319 51.3 175.252 51.3V53.16C175.145 53.1467 174.999 53.14 174.812 53.14C173.772 53.14 172.952 53.4533 172.352 54.08C171.765 54.6933 171.472 55.5733 171.472 56.72V62H169.552V51.4H171.392V53.18ZM187.301 56.76C187.301 56.9067 187.287 57.1 187.261 57.34H178.661C178.781 58.2733 179.187 59.0267 179.881 59.6C180.587 60.16 181.461 60.44 182.501 60.44C183.767 60.44 184.787 60.0133 185.561 59.16L186.621 60.4C186.141 60.96 185.541 61.3867 184.821 61.68C184.114 61.9733 183.321 62.12 182.441 62.12C181.321 62.12 180.327 61.8933 179.461 61.44C178.594 60.9733 177.921 60.3267 177.441 59.5C176.974 58.6733 176.741 57.74 176.741 56.7C176.741 55.6733 176.967 54.7467 177.421 53.92C177.887 53.0933 178.521 52.4533 179.321 52C180.134 51.5333 181.047 51.3 182.061 51.3C183.074 51.3 183.974 51.5333 184.761 52C185.561 52.4533 186.181 53.0933 186.621 53.92C187.074 54.7467 187.301 55.6933 187.301 56.76ZM182.061 52.92C181.141 52.92 180.367 53.2 179.741 53.76C179.127 54.32 178.767 55.0533 178.661 55.96H185.461C185.354 55.0667 184.987 54.34 184.361 53.78C183.747 53.2067 182.981 52.92 182.061 52.92Z" fill="white"/>
</svg>
