<svg width="17" height="15" viewBox="0 0 17 15" fill="none" xmlns="http://www.w3.org/2000/svg">
<path d="M0.666041 14.6543C0.72337 14.6693 0.784277 14.661 0.83556 14.6313C0.886843 14.6017 0.924368 14.553 0.940003 14.4959C1.40108 12.7755 3.27495 12.3297 4.39498 12.0629C4.67565 11.9962 4.89724 11.9434 5.04138 11.8811C6.31719 11.3274 6.73306 10.4366 6.85751 9.78657C6.86491 9.7479 6.86197 9.70796 6.84901 9.67078C6.83604 9.63361 6.81349 9.60051 6.78364 9.57483C6.11933 9.00139 5.55887 8.14056 5.20523 7.15035C5.19525 7.12195 5.17956 7.0959 5.15912 7.0738C4.69132 6.56527 4.42273 6.02764 4.42273 5.59924C4.42273 5.349 4.51719 5.18113 4.72982 5.05445C4.76167 5.03541 4.78829 5.00875 4.80728 4.97686C4.82626 4.94498 4.83703 4.90888 4.8386 4.87181C4.93753 2.59147 6.56161 0.796387 8.55366 0.784748L8.60156 0.787882C10.6035 0.815636 12.2172 2.64922 12.275 4.96178C12.2758 4.99339 12.2833 5.02447 12.2971 5.05295C12.3108 5.08143 12.3304 5.10666 12.3547 5.12697C12.4948 5.24559 12.5601 5.396 12.5601 5.60013C12.5601 5.9587 12.369 6.39964 12.0225 6.84102C12.006 6.86226 11.9933 6.88619 11.9849 6.91175C11.6268 8.047 10.984 9.04929 10.2221 9.66257C10.1905 9.68806 10.1664 9.72162 10.1524 9.75969C10.1384 9.79775 10.1349 9.83891 10.1424 9.87879C10.2668 10.5283 10.6827 11.4187 11.9585 11.9733C12.1094 12.0387 12.3435 12.0897 12.6403 12.1537C13.7491 12.3937 15.6046 12.7961 16.0599 14.4959C16.0675 14.5243 16.0807 14.5509 16.0986 14.5742C16.1165 14.5975 16.1389 14.617 16.1644 14.6317C16.1898 14.6464 16.218 14.6559 16.2471 14.6597C16.2763 14.6635 16.3059 14.6615 16.3343 14.6539C16.3627 14.6462 16.3893 14.6331 16.4126 14.6152C16.4359 14.5972 16.4555 14.5749 16.4701 14.5494C16.4848 14.5239 16.4943 14.4958 16.4981 14.4666C16.5019 14.4375 16.4999 14.4079 16.4923 14.3795C15.9663 12.4156 13.8641 11.9604 12.7352 11.7159C12.4733 11.6591 12.2472 11.6103 12.1371 11.562C11.3045 11.2003 10.7915 10.6492 10.6102 9.92131C11.3833 9.25745 12.0301 8.23322 12.3999 7.08455C12.7925 6.57422 13.0082 6.04868 13.0082 5.59969C13.0082 5.30021 12.9115 5.05042 12.7199 4.85524C12.6134 2.3466 10.8232 0.371118 8.60156 0.339335L8.53486 0.33844C6.35345 0.350079 4.55568 2.27364 4.39856 4.73885C4.11833 4.94477 3.97597 5.23351 3.97597 5.60013C3.97597 6.12971 4.27545 6.76313 4.79965 7.34418C5.1618 8.33931 5.72316 9.21358 6.3915 9.82551C6.2111 10.5561 5.69764 11.1089 4.86322 11.4711C4.75534 11.5181 4.54046 11.5696 4.29157 11.6287C3.15409 11.899 1.03759 12.4026 0.507572 14.3804C0.492266 14.4377 0.500361 14.4988 0.530078 14.5502C0.559796 14.6015 0.608702 14.639 0.666041 14.6543Z" fill="#0033EA"/>
</svg>
