<svg width="32" height="13" viewBox="0 0 32 13" fill="none" xmlns="http://www.w3.org/2000/svg">
<path d="M0.1 1.29999C0.1 0.637254 0.637254 0.1 1.29999 0.1C1.96272 0.1 2.49998 0.637253 2.49998 1.29999V12.8999H0.1V1.29999Z" fill="#6C6C6C" stroke="#E5E5E5" stroke-width="0.2"/>
<rect x="27.7535" y="9.75723" width="3.14283" height="24.3141" transform="rotate(90 27.7535 9.75723)" fill="#6C6C6C" stroke="#E5E5E5" stroke-width="0.2"/>
<path d="M25.625 6.41445C26.767 6.41445 27.699 7.31387 27.7512 8.44301L3.44175 8.44301C3.49397 7.31387 4.42595 6.41445 5.568 6.41445L25.625 6.41445Z" fill="#6C6C6C" stroke="#E5E5E5" stroke-width="0.2"/>
<path d="M28.6996 9.09979C28.6996 8.43706 29.2369 7.8998 29.8996 7.8998C30.5623 7.8998 31.0996 8.43706 31.0996 9.09979V12.8998H28.6996V9.09979Z" fill="#6C6C6C" stroke="#E5E5E5" stroke-width="0.2"/>
</svg>
