<svg width="112" height="101" viewBox="0 0 112 101" fill="none" xmlns="http://www.w3.org/2000/svg">
<path d="M1.36777 100.091C1.76757 100.195 2.19232 100.138 2.54996 99.9308C2.90759 99.7239 3.16929 99.3844 3.27832 98.9859C6.49379 86.9888 19.5617 83.8794 27.3725 82.0188C29.3299 81.5537 30.8752 81.1853 31.8804 80.7514C40.7776 76.8897 43.6778 70.6773 44.5456 66.1444C44.5972 65.8747 44.5768 65.5962 44.4863 65.3369C44.3959 65.0777 44.2387 64.8468 44.0305 64.6678C39.3978 60.6687 35.4892 54.6655 33.023 47.76C32.9534 47.562 32.844 47.3803 32.7015 47.2262C29.4392 43.6798 27.5661 39.9305 27.5661 36.9429C27.5661 35.1978 28.2248 34.0271 29.7076 33.1437C29.9298 33.0109 30.1154 32.825 30.2478 32.6026C30.3802 32.3803 30.4553 32.1285 30.4662 31.87C31.1562 15.9674 42.4821 3.44893 56.3742 3.36776L56.7082 3.38962C70.669 3.58317 81.9232 16.3701 82.3259 32.4974C82.3315 32.7179 82.384 32.9346 82.4798 33.1332C82.5756 33.3318 82.7125 33.5078 82.8816 33.6494C83.8587 34.4767 84.3145 35.5256 84.3145 36.9492C84.3145 39.4497 82.9814 42.5247 80.5652 45.6028C80.45 45.7509 80.3613 45.9178 80.3029 46.0961C77.8055 54.013 73.3225 61.0028 68.0092 65.2797C67.7891 65.4574 67.6212 65.6915 67.5234 65.9569C67.4256 66.2224 67.4014 66.5094 67.4535 66.7875C68.3214 71.3173 71.2216 77.5265 80.1187 81.3945C81.1708 81.8503 82.8035 82.2061 84.8733 82.6526C92.606 84.3259 105.546 87.1324 108.721 98.9859C108.774 99.1839 108.866 99.3695 108.991 99.5321C109.116 99.6946 109.272 99.8309 109.449 99.9333C109.627 100.036 109.823 100.102 110.027 100.128C110.23 100.155 110.436 100.141 110.634 100.088C110.833 100.035 111.018 99.9428 111.181 99.8178C111.343 99.6928 111.48 99.537 111.582 99.3593C111.684 99.1816 111.75 98.9855 111.777 98.7822C111.804 98.5788 111.79 98.3723 111.737 98.1742C108.068 84.4788 93.4083 81.3039 85.5351 79.5994C83.7088 79.203 82.1323 78.8627 81.3643 78.5255C75.5578 76.0031 71.9802 72.1601 70.7158 67.0841C76.1072 62.4544 80.6182 55.3117 83.1969 47.3011C85.9347 43.7422 87.4394 40.0772 87.4394 36.946C87.4394 34.8575 86.7651 33.1156 85.429 31.7545C84.686 14.2598 72.2018 0.483203 56.7082 0.261554L56.2431 0.25531C41.0305 0.336477 28.4932 13.7509 27.3975 30.9428C25.4432 32.3788 24.4505 34.3924 24.4505 36.9492C24.4505 40.6423 26.539 45.0596 30.1946 49.1118C32.7202 56.0516 36.6349 62.1485 41.2958 66.416C40.0377 71.5108 36.457 75.3662 30.6379 77.8918C29.8856 78.2196 28.3871 78.5786 26.6514 78.9907C18.7188 80.8763 3.95888 84.3883 0.262646 98.1805C0.1559 98.5804 0.212356 99.0063 0.419598 99.3646C0.62684 99.7229 0.967898 99.9842 1.36777 100.091Z" fill="white"/>
</svg>
