<svg width="28" height="25" viewBox="0 0 28 25" fill="none" xmlns="http://www.w3.org/2000/svg">
<path d="M9.66746 2.06097C10.5291 2.06097 11.3713 2.31646 12.0877 2.79515C12.8041 3.27383 13.3625 3.9542 13.6922 4.75022C14.0219 5.54625 14.1082 6.42217 13.9401 7.26722C13.772 8.11227 13.3571 8.8885 12.7479 9.49775C12.1386 10.107 11.3624 10.5219 10.5173 10.69C9.67229 10.8581 8.79637 10.7718 8.00035 10.4421C7.20433 10.1124 6.52396 9.554 6.04527 8.8376C5.56659 8.1212 5.31109 7.27894 5.31109 6.41733C5.31109 5.26195 5.77006 4.15389 6.58704 3.33692C7.40402 2.51994 8.51208 2.06097 9.66746 2.06097ZM9.66746 0.31842C8.46121 0.31842 7.28204 0.676115 6.27908 1.34627C5.27612 2.01643 4.49441 2.96895 4.0328 4.08338C3.57119 5.19781 3.45041 6.4241 3.68573 7.60717C3.92106 8.79025 4.50193 9.87697 5.35488 10.7299C6.20782 11.5829 7.29455 12.1637 8.47762 12.3991C9.66069 12.6344 10.887 12.5136 12.0014 12.052C13.1158 11.5904 14.0684 10.8087 14.7385 9.80571C15.4087 8.80275 15.7664 7.62358 15.7664 6.41733C15.7664 4.7998 15.1238 3.24852 13.98 2.10475C12.8363 0.960983 11.285 0.31842 9.66746 0.31842Z" fill="black"/>
<path d="M18.3802 24.7141H16.6376V20.3577C16.6376 19.2023 16.1787 18.0943 15.3617 17.2773C14.5447 16.4603 13.4366 16.0013 12.2813 16.0013H7.05362C5.89824 16.0013 4.79019 16.4603 3.97321 17.2773C3.15623 18.0943 2.69726 19.2023 2.69726 20.3577V24.7141H0.954712V20.3577C0.954712 18.7402 1.59727 17.1889 2.74104 16.0451C3.88481 14.9014 5.43609 14.2588 7.05362 14.2588H12.2813C13.8988 14.2588 15.4501 14.9014 16.5938 16.0451C17.7376 17.1889 18.3802 18.7402 18.3802 20.3577V24.7141Z" fill="black"/>
<path d="M18.3802 2.06097H27.0929V3.80352H18.3802V2.06097Z" fill="black"/>
<path d="M18.3802 6.41736H27.0929V8.1599H18.3802V6.41736Z" fill="black"/>
<path d="M18.3802 10.7737H24.4791V12.5162H18.3802V10.7737Z" fill="black"/>
</svg>
