<svg width="28" height="25" viewBox="0 0 28 25" fill="none" xmlns="http://www.w3.org/2000/svg">
<path d="M9.66727 2.06091C10.5289 2.06091 11.3711 2.3164 12.0875 2.79509C12.8039 3.27377 13.3623 3.95414 13.692 4.75016C14.0218 5.54618 14.108 6.4221 13.9399 7.26716C13.7718 8.11221 13.3569 8.88844 12.7477 9.49769C12.1384 10.1069 11.3622 10.5218 10.5172 10.6899C9.67211 10.858 8.79619 10.7718 8.00017 10.442C7.20414 10.1123 6.52377 9.55394 6.04509 8.83754C5.56641 8.12114 5.31091 7.27888 5.31091 6.41727C5.31091 5.26189 5.76988 4.15383 6.58686 3.33686C7.40384 2.51988 8.51189 2.06091 9.66727 2.06091ZM9.66727 0.318359C8.46102 0.318359 7.28186 0.676054 6.2789 1.34621C5.27594 2.01637 4.49423 2.96889 4.03261 4.08332C3.571 5.19775 3.45022 6.42404 3.68555 7.60711C3.92088 8.79018 4.50174 9.87691 5.35469 10.7299C6.20764 11.5828 7.29436 12.1637 8.47744 12.399C9.66051 12.6343 10.8868 12.5135 12.0012 12.0519C13.1157 11.5903 14.0682 10.8086 14.7383 9.80565C15.4085 8.80268 15.7662 7.62352 15.7662 6.41727C15.7662 4.79974 15.1236 3.24846 13.9799 2.10469C12.8361 0.960921 11.2848 0.318359 9.66727 0.318359Z" fill="white"/>
<path d="M18.3801 24.7131H16.6375V20.3567C16.6375 19.2013 16.1785 18.0933 15.3616 17.2763C14.5446 16.4593 13.4365 16.0004 12.2811 16.0004H7.0535C5.89812 16.0004 4.79006 16.4593 3.97309 17.2763C3.15611 18.0933 2.69714 19.2013 2.69714 20.3567V24.7131H0.95459V20.3567C0.95459 18.7392 1.59715 17.1879 2.74092 16.0441C3.88469 14.9004 5.43597 14.2578 7.0535 14.2578H12.2811C13.8987 14.2578 15.45 14.9004 16.5937 16.0441C17.7375 17.1879 18.3801 18.7392 18.3801 20.3567V24.7131Z" fill="white"/>
<path d="M18.3801 2.06055H27.0929V3.80309H18.3801V2.06055Z" fill="white"/>
<path d="M18.3801 6.41797H27.0929V8.16052H18.3801V6.41797Z" fill="white"/>
<path d="M18.3801 10.7734H24.479V12.516H18.3801V10.7734Z" fill="white"/>
</svg>
