<svg width="12" height="12" viewBox="0 0 12 12" fill="none" xmlns="http://www.w3.org/2000/svg">
<circle cx="6" cy="6" r="6" fill="#C4C4C4"/>
<path d="M8.73861 8.75L3.26139 8.75C3.28653 8.47457 3.35313 8.20402 3.45933 7.94762C3.59753 7.61398 3.8001 7.31082 4.05546 7.05546C4.31082 6.8001 4.61398 6.59753 4.94762 6.45933C5.28127 6.32113 5.63886 6.25 6 6.25C6.36114 6.25 6.71873 6.32113 7.05238 6.45933C7.38602 6.59753 7.68918 6.80009 7.94454 7.05546C8.1999 7.31082 8.40247 7.61398 8.54067 7.94762C8.64687 8.20402 8.71347 8.47457 8.73861 8.75ZM7.25 4.5C7.25 5.19036 6.69036 5.75 6 5.75C5.30964 5.75 4.75 5.19036 4.75 4.5C4.75 3.80964 5.30964 3.25 6 3.25C6.69036 3.25 7.25 3.80964 7.25 4.5Z" stroke="#6C6C6C" stroke-width="0.5"/>
</svg>
