<svg width="120" height="68" viewBox="0 0 120 68" fill="none" xmlns="http://www.w3.org/2000/svg">
<path d="M15.8482 38.6781C16.1458 36.6241 17.0086 35.1089 18.4427 34.1284C19.8768 33.1478 21.5204 32.6544 23.3806 32.6544C24.5524 32.6544 25.6308 32.8341 26.6221 33.2004C27.6134 33.5658 28.3009 34.0302 28.6918 34.5989C28.2367 35.052 27.8696 35.9572 27.5958 37.3207H27.0482C26.9549 36.9089 26.7277 36.4733 26.3545 36.0036C25.9873 35.5278 25.4917 35.1335 24.8737 34.8084C24.2504 34.4894 23.5215 34.3264 22.6754 34.3264C22.0284 34.3264 21.3989 34.5236 20.7809 34.9126C20.1691 35.3017 19.6734 35.8179 19.2887 36.4619C18.9093 37.0999 18.7173 37.7738 18.7173 38.4757C18.7173 40.1406 19.7667 41.4761 21.8593 42.4856L25.6836 44.1164C27.0306 44.6851 28.0271 45.4624 28.6804 46.4491C29.3389 47.4358 29.6655 48.5321 29.6655 49.7449C29.6655 51.0506 29.3037 52.316 28.5756 53.5454C27.8467 54.7757 26.8149 55.78 25.4917 56.5572C24.1624 57.3345 22.6816 57.7236 21.0432 57.7236C19.9939 57.7236 18.9216 57.5028 17.8194 57.0681C16.7233 56.6273 15.8843 56.1165 15.3007 55.5364C15.5516 54.9264 15.7083 54.3989 15.7611 53.9581C15.8192 53.5174 15.8482 52.9548 15.8482 52.2756H16.3958C17.1714 53.3728 17.8766 54.179 18.5122 54.6898C19.1478 55.2007 19.7077 55.5144 20.1911 55.6301C20.6753 55.7519 21.229 55.8098 21.8585 55.8098C22.8145 55.8098 23.6482 55.5951 24.3596 55.1657C25.0709 54.7363 25.607 54.1614 25.9689 53.4534C26.336 52.7453 26.5173 51.9908 26.5173 51.1847C26.5173 50.2093 26.2611 49.3278 25.7479 48.533C25.2346 47.7434 24.489 47.1747 23.4977 46.8382L19.9472 45.2013C18.6592 44.615 17.7199 43.9771 17.1309 43.2918C16.5367 42.6074 16.1749 41.9336 16.0463 41.2667C15.9125 40.6051 15.8482 39.7402 15.8482 38.679V38.6781ZM33.8622 57.1663V30.7748C34.4106 30.9141 34.9468 30.9833 35.4715 30.9833C35.9962 30.9833 36.4628 30.9141 36.8704 30.7748V43.3146C37.1213 42.9956 37.4012 42.6302 37.7155 42.2122C38.0307 41.7942 38.4092 41.4288 38.8582 41.1037C39.3072 40.7786 39.8785 40.5175 40.5661 40.3264C41.2537 40.1345 42.1164 40.0364 43.1544 40.0364C44.1342 40.0364 45.0199 40.315 45.8192 40.8662C46.6124 41.4235 47.2357 42.1719 47.6785 43.1236C48.1214 44.0691 48.3432 45.1259 48.3432 46.2923V57.1671C47.7956 57.0339 47.2938 56.9638 46.8396 56.9638C46.3853 56.9638 45.8835 57.0331 45.3359 57.1671V46.5709C45.3359 45.1207 44.945 43.9999 44.1641 43.2112C43.3885 42.4164 42.4501 42.0212 41.3602 42.0212C40.6084 42.0212 39.8856 42.2359 39.1919 42.6591C38.4981 43.0824 37.9382 43.7265 37.513 44.5852C37.0878 45.444 36.8721 46.471 36.8721 47.6549V57.1663C36.4645 57.0331 35.9979 56.963 35.4732 56.963C34.9485 56.963 34.4124 57.0322 33.8639 57.1663H33.8622ZM51.8999 49.5468C51.8999 47.6321 52.2494 45.9899 52.944 44.6264C53.6377 43.2682 54.5823 42.2473 55.777 41.5743C56.9725 40.8951 58.3186 40.5586 59.8231 40.5586C61.5548 40.5586 62.9598 40.9539 64.0497 41.7425C65.1343 42.5321 65.909 43.489 66.3642 44.6036C66.8184 45.7174 67.0465 46.8032 67.0465 47.8591C67.0465 48.3463 67.006 48.7354 66.9303 49.0193H55.1889C55.1889 50.4582 55.3755 51.671 55.7426 52.6691C56.1159 53.6619 56.7454 54.4392 57.6486 54.9843C58.5466 55.5355 59.7298 55.808 61.1991 55.808C62.1666 55.808 63.0875 55.6161 63.974 55.2279C64.8544 54.8449 65.5657 54.3113 66.1133 53.6322L66.3809 55.5355C65.4953 56.1156 64.842 56.5274 64.4283 56.7658C64.0145 57.0042 63.4431 57.2241 62.7142 57.4213C61.9853 57.6246 61.1111 57.7227 60.0969 57.7227C58.301 57.6412 56.7973 57.218 55.5903 56.4521C54.3834 55.6862 53.4916 54.7056 52.9088 53.4981C52.326 52.2967 51.9932 50.9796 51.8999 49.546V49.5468ZM64.2126 47.661C64.2126 46.0189 63.886 44.6492 63.2389 43.5582C62.5857 42.4611 61.4553 41.916 59.8345 41.916C58.8899 41.916 58.0677 42.2122 57.3687 42.7985C56.6688 43.3847 56.1274 44.1331 55.7541 45.0383C55.3746 45.9435 55.1889 46.8198 55.1889 47.661H64.2135H64.2126ZM71.5935 57.1663V30.4961C72.1411 30.6354 72.6429 30.7047 73.0972 30.7047C73.5514 30.7047 74.0532 30.6354 74.6008 30.4961V57.1663C74.1932 57.0331 73.7266 56.963 73.2019 56.963C72.6772 56.963 72.1411 57.0322 71.5935 57.1663ZM80.0758 53.0871V41.916H77.8899C78.0237 41.7828 78.0941 41.5857 78.0941 41.3412C78.0941 41.0914 78.0237 40.8303 77.8899 40.5578H80.0758V37.3023L82.804 36.2227V40.5578H86.6054C86.4654 40.8303 86.4012 41.0573 86.4012 41.2369C86.4012 41.4165 86.4654 41.6426 86.6054 41.916H82.804V50.9104C82.804 51.9085 82.8445 52.7734 82.9326 53.4981C83.0144 54.2289 83.2416 54.8739 83.6025 55.4417C83.9643 56.0104 84.5234 56.2944 85.2814 56.2944C85.7884 56.2944 86.4126 56.1375 87.1468 55.8185V56.9034C85.9337 57.402 84.85 57.6517 83.8992 57.6517C82.6632 57.6517 81.7185 57.2513 81.06 56.4451C80.4015 55.638 80.0749 54.5181 80.0749 53.0853L80.0758 53.0871ZM89.0828 53.3482C89.0828 52.5876 89.2227 51.9146 89.508 51.3231C89.7932 50.7316 90.2598 50.2146 90.9069 49.7738C91.5539 49.333 92.4052 48.979 93.4661 48.7179L97.8265 47.9055C98.3283 47.8013 98.7007 47.5743 98.9463 47.2325C99.191 46.8846 99.3134 46.4667 99.3134 45.9794C99.3134 45.3704 99.1382 44.7491 98.7887 44.1226C98.4445 43.4899 97.955 42.9676 97.3141 42.5443C96.6785 42.1263 95.9381 41.9178 95.0983 41.9178C94.3174 41.9178 93.6175 42.1097 92.9995 42.4979C92.3876 42.8808 91.723 43.5013 91.0055 44.3662H90.4579V42.4628C91.1278 42.0624 91.7229 41.7434 92.2415 41.4937C92.76 41.2439 93.3551 41.024 94.0427 40.8382C94.725 40.6524 95.4416 40.5595 96.1943 40.5595C98.264 40.5595 99.7791 41.0064 100.748 41.9055C101.715 42.7993 102.199 44.2557 102.199 46.2756V54.9799C102.199 55.624 102.514 55.9491 103.138 55.9491C103.353 55.9491 103.68 55.8974 104.111 55.7984V56.6168C103.551 57.0751 102.887 57.3074 102.111 57.3074C101.417 57.3074 100.782 57.1216 100.205 56.7448C99.6339 56.368 99.2958 55.8685 99.191 55.2533C97.4717 56.878 95.6872 57.6912 93.8279 57.6912C92.4986 57.6912 91.3735 57.2679 90.4579 56.4258C89.5423 55.5784 89.0819 54.5514 89.0819 53.35L89.0828 53.3482ZM99.1919 53.6155V48.9904C97.4426 49.1648 96.0499 49.4084 95.0181 49.7212C93.9864 50.0402 93.2284 50.4643 92.7442 50.9919C92.2609 51.5141 92.0214 52.1757 92.0214 52.9705C92.0214 53.2203 92.0504 53.5279 92.1085 53.8872C92.1957 54.398 92.5514 54.8677 93.1694 55.3033C93.7874 55.7326 94.4926 55.9473 95.2743 55.9473C96.7375 55.9473 98.0431 55.1701 99.1919 53.6146V53.6155Z" fill="#0033EA"/>
<path fill-rule="evenodd" clip-rule="evenodd" d="M58.2914 0C86.6504 0 110.236 19.2076 115.143 44.5414C114.933 44.5256 114.72 44.5177 114.506 44.5177C113.696 44.5177 112.914 44.6343 112.174 44.8499C102.827 21.139 82.2178 4.66366 58.2914 4.66366C30.236 4.66366 6.73747 27.3134 0.614569 57.7227C0.541499 56.6037 0.500122 55.4776 0.500122 54.3411C0.500122 24.3296 26.3748 0.000876299 58.2914 0.000876299V0Z" fill="#0033EA"/>
<path d="M114.506 57.722C117.264 57.722 119.499 55.4967 119.499 52.7516C119.499 50.0066 117.264 47.7812 114.506 47.7812C111.748 47.7812 109.513 50.0066 109.513 52.7516C109.513 55.4967 111.748 57.722 114.506 57.722Z" fill="#0033EA"/>
<path d="M50.0944 65.9156C50.1005 65.8069 50.1234 65.7166 50.1613 65.6448C50.1991 65.5738 50.2484 65.5203 50.3083 65.487C50.3682 65.4529 50.4298 65.4362 50.4923 65.4362C50.5645 65.4362 50.634 65.4537 50.7018 65.4905C50.7687 65.5265 50.8242 65.5764 50.8664 65.6404C50.9087 65.7044 50.9298 65.7789 50.9298 65.8639C50.9166 65.9988 50.8708 66.1022 50.7916 66.1749C50.7115 66.2468 50.6191 66.2827 50.5117 66.2827C50.4069 66.2827 50.3144 66.2503 50.2343 66.1846C50.1542 66.1197 50.1076 66.0295 50.0944 65.9156ZM51.9246 65.9156C51.9308 65.8069 51.9537 65.7166 51.9915 65.6448C52.0294 65.5738 52.0787 65.5203 52.1386 65.487C52.1984 65.4529 52.26 65.4362 52.3226 65.4362C52.3947 65.4362 52.4643 65.4537 52.5321 65.4905C52.599 65.5265 52.6544 65.5764 52.6967 65.6404C52.739 65.7044 52.7601 65.7789 52.7601 65.8639C52.7469 65.9988 52.7011 66.1022 52.6219 66.1749C52.5418 66.2468 52.4493 66.2827 52.3419 66.2827C52.2372 66.2827 52.1447 66.2503 52.0646 66.1846C51.9845 66.1197 51.9378 66.0295 51.9246 65.9156ZM53.7549 65.9156C53.7611 65.8069 53.7839 65.7166 53.8218 65.6448C53.8597 65.5738 53.909 65.5203 53.9688 65.487C54.0287 65.4529 54.0903 65.4362 54.1528 65.4362C54.225 65.4362 54.2946 65.4537 54.3623 65.4905C54.4293 65.5265 54.4847 65.5764 54.527 65.6404C54.5692 65.7044 54.5904 65.7789 54.5904 65.8639C54.5771 65.9988 54.5314 66.1022 54.4521 66.1749C54.372 66.2468 54.2796 66.2827 54.1722 66.2827C54.0674 66.2827 53.975 66.2503 53.8949 66.1846C53.8148 66.1197 53.7681 66.0295 53.7549 65.9156ZM55.4311 63.9351C55.4654 63.7213 55.5438 63.5478 55.6644 63.4155C55.7859 63.284 55.9294 63.1903 56.0984 63.1359C56.2657 63.0807 56.4444 63.0527 56.6337 63.0527C56.8212 63.0527 56.9568 63.0562 57.0422 63.0623C57.1267 63.0693 57.1874 63.0755 57.2218 63.0834C57.2561 63.0912 57.3036 63.0991 57.3608 63.107C57.4181 63.1149 57.5114 63.1184 57.6399 63.1184C57.7993 63.1184 58.0035 63.114 58.2544 63.1053V63.3629L57.4718 63.3112C57.5545 63.3611 57.6329 63.433 57.7059 63.5285C57.7808 63.624 57.838 63.7292 57.8785 63.8457C57.9199 63.9623 57.941 64.0788 57.941 64.1954C57.9067 64.5161 57.8037 64.7474 57.6346 64.8877C57.4639 65.0287 57.2455 65.112 56.977 65.1374C56.7094 65.1619 56.4972 65.1777 56.3405 65.1838C56.1829 65.1909 56.0896 65.225 56.0597 65.2881C56.028 65.3591 56.0139 65.4178 56.0139 65.4634C56.0139 65.5563 56.0588 65.629 56.1486 65.679C56.2401 65.7289 56.3528 65.7613 56.4884 65.778C56.6257 65.7946 56.7816 65.8025 56.9576 65.8025C57.0166 65.8025 57.0703 65.8025 57.117 65.8008C57.1636 65.7999 57.22 65.799 57.2851 65.799C57.3653 65.799 57.4278 65.8025 57.4709 65.8086C57.742 65.863 57.9428 65.955 58.0722 66.0838C58.2016 66.2135 58.2791 66.4168 58.3055 66.6955C58.3072 66.7112 58.309 66.7331 58.309 66.7638C58.309 66.9049 58.2711 67.0477 58.1963 67.1932C58.1215 67.3395 58.0088 67.4736 57.8583 67.598C57.7077 67.7216 57.5308 67.8189 57.3239 67.8907C57.1188 67.9626 56.8881 67.9985 56.6337 67.9985C56.3766 67.9985 56.1486 67.9565 55.9514 67.8732C55.7524 67.79 55.5993 67.6752 55.491 67.5323C55.3818 67.3895 55.3272 67.2318 55.3272 67.0609C55.3272 66.8024 55.3818 66.6034 55.4892 66.4624C55.5975 66.3222 55.7692 66.2266 56.0069 66.1749C55.7278 66.0636 55.5887 65.8893 55.5887 65.6527C55.5887 65.551 55.6063 65.466 55.6397 65.3994C55.6732 65.3328 55.7234 65.2732 55.7894 65.218C55.8563 65.1637 55.9452 65.0997 56.0597 65.0252C55.7938 64.9429 55.6239 64.8272 55.5464 64.6782C55.4707 64.5284 55.4329 64.3365 55.4329 64.1025V63.9334L55.4311 63.9351ZM55.9532 64.1945C55.9532 64.4223 56.0201 64.6099 56.153 64.7562C56.2859 64.9026 56.4462 64.9762 56.6337 64.9762C56.668 64.9797 56.6953 64.9814 56.712 64.9814C56.8326 64.9814 56.9462 64.9481 57.0545 64.8789C57.1628 64.8114 57.2499 64.7133 57.3177 64.5862C57.3855 64.46 57.419 64.3119 57.419 64.1419C57.419 63.8641 57.3512 63.6477 57.2147 63.4917C57.0774 63.3349 56.9022 63.2577 56.6865 63.2577C56.4101 63.2814 56.2181 63.3892 56.1125 63.5785C56.0069 63.7686 55.954 63.9737 55.954 64.1945H55.9532ZM55.7445 66.9583C55.7445 67.1494 55.8273 67.3273 55.9936 67.492C56.16 67.6576 56.4083 67.74 56.7393 67.74C56.8925 67.74 57.0492 67.7146 57.2121 67.662C57.3749 67.6103 57.5105 67.5288 57.6214 67.4193C57.7315 67.3097 57.7861 67.173 57.7861 67.0101C57.7861 66.8585 57.7667 66.727 57.7288 66.6157C57.6901 66.5053 57.6021 66.4124 57.463 66.3397C57.3248 66.2652 57.1179 66.2284 56.8432 66.2284C56.6337 66.2284 56.4506 66.2477 56.2947 66.2836C56.1389 66.3204 56.0113 66.3931 55.9135 66.5027C55.8158 66.6105 55.7586 66.7621 55.7436 66.9583H55.7445ZM58.6162 64.772C58.6162 64.4294 58.6876 64.1235 58.8293 63.8563C58.971 63.5872 59.1735 63.3778 59.4385 63.2288C59.7017 63.079 60.0037 63.0045 60.3444 63.0045C60.7414 63.0045 61.0584 63.1053 61.2934 63.3086C61.5294 63.511 61.6913 63.7406 61.782 63.9982C61.8709 64.2558 61.9158 64.4784 61.9158 64.6677C61.9158 64.8473 61.8859 65.0287 61.8243 65.2119C61.7627 65.395 61.6658 65.5685 61.5346 65.7333C61.4026 65.898 61.23 66.0295 61.0161 66.1311C60.8022 66.2319 60.5574 66.2818 60.2836 66.2818C60.2678 66.2818 60.2537 66.2818 60.2414 66.2801C60.2282 66.2792 60.2106 66.2783 60.1894 66.2783C59.8681 66.2783 59.5899 66.2117 59.3505 66.0785C59.1128 65.9453 58.9314 65.7648 58.8064 65.537C58.6805 65.3083 58.618 65.0533 58.618 64.772H58.6162ZM59.2448 64.8263C59.2448 65.0769 59.3152 65.3433 59.4552 65.6229C59.5961 65.9024 59.8567 66.0523 60.2379 66.075C60.5345 66.075 60.7766 65.955 60.965 65.714C61.1526 65.473 61.2591 65.1251 61.2846 64.6695C61.2846 64.3943 61.2485 64.1498 61.1763 63.936C61.105 63.7231 60.9941 63.5574 60.8462 63.44C60.6983 63.3235 60.5125 63.2648 60.2898 63.2648C59.9676 63.2648 59.7114 63.4076 59.5213 63.695C59.332 63.9824 59.2369 64.3146 59.2369 64.6896C59.2369 64.7194 59.2387 64.765 59.2431 64.8263H59.2448ZM62.5946 65.4476V63.3112H62.1764C62.202 63.2858 62.2152 63.2481 62.2152 63.2017C62.2152 63.1543 62.202 63.1035 62.1764 63.0518H62.5946V62.4288L63.1166 62.2228V63.0518H63.8438C63.8174 63.1035 63.8051 63.1473 63.8051 63.1815C63.8051 63.2157 63.8174 63.2595 63.8438 63.3112H63.1166V65.0314C63.1166 65.2224 63.1246 65.388 63.1413 65.5265C63.1571 65.6658 63.2003 65.7894 63.2698 65.898C63.3385 66.0067 63.4459 66.061 63.5912 66.061C63.688 66.061 63.8077 66.0312 63.9477 65.9699V66.1776C63.7162 66.2731 63.5084 66.3204 63.3271 66.3204C63.0902 66.3204 62.9098 66.2442 62.7839 66.0899C62.658 65.9357 62.5955 65.721 62.5955 65.4476H62.5946ZM65.9294 63.0509C66.0597 63.0772 66.1873 63.0912 66.3088 63.0912C66.4303 63.0912 66.5307 63.0781 66.6099 63.0509C66.6328 63.1351 66.6935 63.3042 66.7895 63.5557C66.8855 63.8063 66.9647 64.0096 67.0254 64.1638C67.0879 64.3181 67.1769 64.5301 67.2922 64.8009C67.4084 65.0708 67.5123 65.3039 67.603 65.4993C67.6989 65.3065 67.8274 65.0244 67.9886 64.6546C68.1497 64.2839 68.287 63.95 68.4023 63.6512C68.5159 63.3524 68.581 63.1526 68.596 63.0509C68.6744 63.0772 68.7536 63.0912 68.8311 63.0912C68.9094 63.0912 68.9886 63.0781 69.0661 63.0509L66.8696 67.9459C66.8177 67.9196 66.7525 67.9056 66.6733 67.9056C66.5949 67.9056 66.5034 67.9188 66.3986 67.9459L67.2869 66.1758L65.9276 63.0509H65.9294ZM69.3285 64.7711C69.3285 64.4285 69.3998 64.1226 69.5415 63.8554C69.6832 63.5864 69.8857 63.3769 70.1507 63.228C70.4139 63.0781 70.7159 63.0036 71.0566 63.0036C71.4537 63.0036 71.7706 63.1044 72.0056 63.3077C72.2416 63.5101 72.4036 63.7397 72.4942 63.9973C72.5832 64.255 72.6281 64.4776 72.6281 64.6668C72.6281 64.8465 72.5981 65.0279 72.5365 65.211C72.4749 65.3942 72.378 65.5677 72.2469 65.7324C72.1148 65.8972 71.9423 66.0286 71.7283 66.1302C71.5144 66.231 71.2697 66.281 70.9959 66.281C70.98 66.281 70.9659 66.281 70.9536 66.2792C70.9404 66.2783 70.9228 66.2775 70.9017 66.2775C70.5803 66.2775 70.3021 66.2109 70.0627 66.0777C69.825 65.9445 69.6436 65.764 69.5186 65.5361C69.3927 65.3074 69.3302 65.0524 69.3302 64.7711H69.3285ZM69.957 64.8254C69.957 65.0761 70.0275 65.3425 70.1674 65.622C70.3083 65.9015 70.5689 66.0514 70.9501 66.0742C71.2468 66.0742 71.4889 65.9541 71.6773 65.7131C71.8648 65.4721 71.9713 65.1243 71.9968 64.6686C71.9968 64.3934 71.9607 64.1489 71.8886 63.9351C71.8172 63.7222 71.7063 63.5566 71.5584 63.4391C71.4105 63.3226 71.2248 63.2639 71.002 63.2639C70.6798 63.2639 70.4236 63.4067 70.2335 63.6941C70.0442 63.9816 69.9491 64.3137 69.9491 64.6887C69.9491 64.7185 69.9509 64.7641 69.9553 64.8254H69.957ZM73.2998 65.0822V63.0509C73.3781 63.0772 73.4741 63.0912 73.5876 63.0912C73.7012 63.0912 73.7972 63.0781 73.8755 63.0509V64.9236C73.8755 65.1146 73.9037 65.289 73.9592 65.4467C74.0146 65.6036 74.1 65.7298 74.2145 65.8253C74.3289 65.9208 74.4698 65.9681 74.6344 65.9681C74.6705 65.9681 74.696 65.9673 74.7136 65.9646C74.9777 65.941 75.1661 65.8402 75.2788 65.6623C75.3915 65.4835 75.447 65.2732 75.447 65.0279V63.0509C75.5517 63.0772 75.6539 63.0912 75.7551 63.0912C75.8555 63.0912 75.9444 63.0781 76.0227 63.0509V66.2275C75.9444 66.2021 75.8555 66.189 75.7551 66.189C75.6547 66.189 75.5517 66.2021 75.447 66.2275V65.7569C75.3492 65.9515 75.2075 66.0864 75.0209 66.1644C74.8351 66.2424 74.6106 66.281 74.3465 66.281C73.9125 66.281 73.629 66.1618 73.4978 65.9243C73.3649 65.6868 73.2989 65.4056 73.2989 65.0822H73.2998ZM78.6832 64.7185C78.6832 64.382 78.7492 64.0894 78.8795 63.8414C79.0098 63.5925 79.2087 63.3988 79.4764 63.2595C79.7431 63.121 80.0706 63.0509 80.4606 63.0509C80.6737 63.0509 80.8453 63.0711 80.9739 63.1096C81.1024 63.1482 81.2626 63.2148 81.4545 63.3103L81.3498 63.7791H81.245C81.1394 63.6179 81.0152 63.5005 80.8744 63.4251C80.7344 63.3489 80.561 63.3112 80.3567 63.3112C80.1393 63.3112 79.9509 63.376 79.7933 63.5031C79.6348 63.6319 79.516 63.7993 79.4341 64.007C79.3531 64.2129 79.3117 64.4337 79.3117 64.666C79.3117 64.9026 79.354 65.1243 79.4385 65.3311C79.523 65.537 79.6524 65.7035 79.8276 65.8306C80.0019 65.9585 80.2124 66.0216 80.4615 66.0216C80.6587 66.0216 80.8304 65.9874 80.973 65.9199C81.1165 65.8516 81.2591 65.7464 81.4008 65.6053L81.4528 65.6562L81.4008 65.969C81.2617 66.0803 81.0989 66.1635 80.914 66.2205C80.7282 66.2783 80.5407 66.3073 80.3488 66.3073C80.068 66.3073 79.7995 66.2477 79.5406 66.1259C79.2827 66.0058 79.0758 65.8253 78.9182 65.5852C78.7606 65.3451 78.6832 65.0559 78.6832 64.7177V64.7185ZM81.9211 64.772C81.9211 64.4294 81.9924 64.1235 82.1342 63.8563C82.2759 63.5872 82.4784 63.3778 82.7434 63.2288C83.0066 63.079 83.3086 63.0045 83.6493 63.0045C84.0463 63.0045 84.3633 63.1053 84.5983 63.3086C84.8342 63.511 84.9962 63.7406 85.0869 63.9982C85.1758 64.2558 85.2207 64.4784 85.2207 64.6677C85.2207 64.8473 85.1908 65.0287 85.1292 65.2119C85.0675 65.395 84.9707 65.5685 84.8395 65.7333C84.7075 65.898 84.5349 66.0295 84.321 66.1311C84.1071 66.2319 83.8623 66.2818 83.5885 66.2818C83.5727 66.2818 83.5586 66.2818 83.5463 66.2801C83.5331 66.2792 83.5155 66.2783 83.4943 66.2783C83.173 66.2783 82.8948 66.2117 82.6554 66.0785C82.4177 65.9453 82.2363 65.7648 82.1113 65.537C81.9854 65.3083 81.9229 65.0533 81.9229 64.772H81.9211ZM82.5497 64.8263C82.5497 65.0769 82.6201 65.3433 82.7601 65.6229C82.901 65.9024 83.1616 66.0523 83.5428 66.075C83.8394 66.075 84.0815 65.955 84.2699 65.714C84.4574 65.473 84.564 65.1251 84.5895 64.6695C84.5895 64.3943 84.5534 64.1498 84.4812 63.936C84.4099 63.7231 84.299 63.5574 84.1511 63.44C84.0032 63.3235 83.8174 63.2648 83.5947 63.2648C83.2725 63.2648 83.0163 63.4076 82.8261 63.695C82.6369 63.9824 82.5418 64.3146 82.5418 64.6896C82.5418 64.7194 82.5435 64.765 82.5479 64.8263H82.5497ZM85.5315 63.0518H86.2111C86.3168 63.4225 86.4708 63.8624 86.6716 64.368C86.8723 64.8754 87.0492 65.2697 87.2042 65.5528C87.353 65.2829 87.5413 64.8552 87.7694 64.2707C87.9983 63.6854 88.1409 63.2797 88.1972 63.0518H88.6682C88.5397 63.3208 88.4182 63.5846 88.3037 63.8449C88.1902 64.1042 88.0757 64.3706 87.9604 64.6449C87.8468 64.9201 87.735 65.1891 87.6267 65.4529C87.5193 65.7158 87.4128 65.9751 87.3089 66.2284C87.257 66.203 87.1866 66.1898 87.0994 66.1898C87.0123 66.1898 86.9418 66.203 86.8899 66.2284L85.5306 63.0518H85.5315ZM89.0309 64.7711C89.0309 64.4048 89.0978 64.0911 89.2308 63.83C89.3637 63.5706 89.5442 63.3752 89.7731 63.2464C90.002 63.1167 90.259 63.0518 90.5469 63.0518C90.8779 63.0518 91.1464 63.1272 91.3551 63.2788C91.562 63.4295 91.7107 63.6126 91.7979 63.8256C91.8851 64.0385 91.9282 64.2462 91.9282 64.4478C91.9282 64.5406 91.9203 64.6151 91.9062 64.6703H89.6604C89.6604 64.9455 89.6956 65.1777 89.766 65.3679C89.8373 65.558 89.9579 65.707 90.1305 65.8113C90.3022 65.9164 90.5284 65.969 90.8092 65.969C90.9941 65.969 91.1702 65.9322 91.3401 65.8577C91.5083 65.785 91.6447 65.6825 91.7495 65.5528L91.8005 65.9164C91.6306 66.0277 91.5056 66.1066 91.4273 66.1522C91.348 66.1977 91.2389 66.2398 91.0998 66.2775C90.9607 66.316 90.7934 66.3353 90.5988 66.3353C90.2555 66.3195 89.9676 66.2389 89.737 66.0926C89.5063 65.9462 89.3355 65.7587 89.2237 65.5274C89.1119 65.2978 89.0485 65.0454 89.0309 64.7711ZM91.3859 64.411C91.3859 64.0964 91.3234 63.8352 91.1992 63.6258C91.0742 63.4164 90.8585 63.3112 90.5478 63.3112C90.3673 63.3112 90.2097 63.3682 90.0759 63.4803C89.9421 63.5925 89.8382 63.7353 89.7669 63.9088C89.6947 64.0823 89.6586 64.2497 89.6586 64.411H91.385H91.3859ZM92.6906 66.2293V63.0527C92.7689 63.079 92.8552 63.093 92.9512 63.093C93.0471 63.093 93.1343 63.0799 93.2118 63.0527V63.6819C93.2795 63.5496 93.3588 63.4321 93.453 63.3314C93.5454 63.2288 93.6519 63.1482 93.7708 63.0886C93.8914 63.0299 94.0199 62.9992 94.1564 62.9992C94.1766 62.9992 94.2101 63.0019 94.2576 63.0062L94.2048 63.6302C94.0727 63.5601 93.9521 63.5259 93.843 63.5259C93.7083 63.5259 93.5929 63.5706 93.4987 63.6591C93.4037 63.7476 93.3324 63.858 93.2848 63.9877C93.2373 64.1174 93.2126 64.2409 93.2126 64.3584V66.2301C93.1343 66.2047 93.048 66.1916 92.952 66.1916C92.8561 66.1916 92.7689 66.2047 92.6915 66.2301L92.6906 66.2293ZM94.5719 64.772C94.5719 64.4057 94.6388 64.092 94.7717 63.8308C94.9047 63.5715 95.0852 63.376 95.314 63.2472C95.5429 63.1175 95.8 63.0527 96.0879 63.0527C96.4189 63.0527 96.6874 63.1281 96.8961 63.2797C97.1029 63.4304 97.2517 63.6135 97.3389 63.8265C97.426 64.0394 97.4692 64.2471 97.4692 64.4486C97.4692 64.5415 97.4612 64.616 97.4472 64.6712H95.2014C95.2014 64.9464 95.2366 65.1786 95.307 65.3687C95.3783 65.5589 95.4989 65.7079 95.6715 65.8122C95.8432 65.9173 96.0694 65.9699 96.3502 65.9699C96.5351 65.9699 96.7112 65.9331 96.8811 65.8586C97.0492 65.7859 97.1857 65.6833 97.2905 65.5536L97.3415 65.9173C97.1716 66.0286 97.0466 66.1075 96.9683 66.153C96.889 66.1986 96.7799 66.2407 96.6408 66.2783C96.5017 66.3169 96.3344 66.3362 96.1398 66.3362C95.7965 66.3204 95.5086 66.2398 95.278 66.0934C95.0473 65.9471 94.8765 65.7596 94.7647 65.5282C94.6529 65.2986 94.5895 65.0463 94.5719 64.772ZM96.9269 64.4118C96.9269 64.0972 96.8644 63.8361 96.7402 63.6267C96.6152 63.4172 96.3995 63.3121 96.0888 63.3121C95.9083 63.3121 95.7507 63.369 95.6169 63.4812C95.4831 63.5934 95.3792 63.7362 95.3079 63.9097C95.2357 64.0832 95.1996 64.2506 95.1996 64.4118H96.926H96.9269ZM97.9173 64.8246C97.9173 64.5389 97.9481 64.2839 98.0115 64.0596C98.0749 63.8361 98.1691 63.6442 98.2958 63.4865C98.4217 63.3287 98.5758 63.2087 98.7571 63.1281C98.9394 63.0466 99.1463 63.0062 99.3796 63.0062C99.5283 63.0062 99.6806 63.036 99.8382 63.0948C99.9967 63.1535 100.125 63.2288 100.224 63.32C100.323 63.412 100.372 63.4996 100.372 63.582V61.2344C100.476 61.2607 100.572 61.2747 100.66 61.2747C100.747 61.2747 100.843 61.2615 100.947 61.2344V66.2293C100.869 66.2012 100.78 66.1881 100.68 66.1881C100.579 66.1881 100.476 66.2012 100.372 66.2293V65.6544C100.214 65.8709 100.042 66.0303 99.8541 66.132C99.6657 66.2328 99.4729 66.2827 99.2739 66.2827C99.0433 66.2827 98.8223 66.2179 98.6119 66.0891C98.3997 65.9602 98.2316 65.7841 98.1057 65.5598C97.9798 65.3354 97.9164 65.0901 97.9164 64.8237L97.9173 64.8246ZM98.5458 64.722C98.5458 65.176 98.6357 65.4967 98.8179 65.6842C99.0001 65.8717 99.1867 65.9664 99.3813 65.9664C99.398 65.9681 99.4253 65.9699 99.4597 65.9699C99.6225 65.9699 99.774 65.9191 99.9148 65.8174C100.055 65.7149 100.167 65.5677 100.249 65.3714C100.332 65.176 100.373 64.9429 100.373 64.6695C100.373 64.3286 100.314 64.0184 100.193 63.738C100.072 63.4584 99.8409 63.3182 99.4993 63.3182C99.4861 63.3182 99.4746 63.3182 99.4649 63.3191C99.4561 63.32 99.4447 63.3208 99.435 63.3208C99.0697 63.3419 98.8302 63.4917 98.7166 63.7686C98.604 64.0447 98.5476 64.3628 98.5476 64.7212L98.5458 64.722ZM101.889 65.9164C101.895 65.8078 101.918 65.7175 101.955 65.6457C101.993 65.5747 102.043 65.5212 102.103 65.4879C102.162 65.4537 102.224 65.4371 102.286 65.4371C102.359 65.4371 102.428 65.4546 102.496 65.4914C102.563 65.5274 102.618 65.5773 102.661 65.6413C102.703 65.7052 102.724 65.7797 102.724 65.8647C102.711 65.9997 102.665 66.1031 102.586 66.1758C102.506 66.2477 102.413 66.2836 102.306 66.2836C102.201 66.2836 102.109 66.2512 102.029 66.1855C101.948 66.1206 101.902 66.0304 101.889 65.9164Z" fill="#0033EA"/>
</svg>
