<svg width="26" height="24" viewBox="0 0 26 24" fill="none" xmlns="http://www.w3.org/2000/svg">
<path d="M24.7039 18.7634H23.8067V11.6887C23.8067 10.9987 23.1723 10.4374 22.3925 10.4374H18.2777L18.2789 7.85682C18.2791 7.66906 18.1073 7.51692 17.8952 7.51675C17.6834 7.51675 17.5114 7.66888 17.5114 7.85647L17.5102 10.4374H14.0527C13.6467 10.4374 13.2805 10.5897 13.0222 10.8331C12.7641 10.5897 12.3978 10.4374 11.9919 10.4374H7.87685V3.3513C7.87685 3.03614 8.16685 2.77977 8.52351 2.77977H10.2626V4.02442C10.2626 4.45083 10.6541 4.79774 11.1356 4.79774H14.1245C14.6052 4.79774 14.9963 4.45083 14.9963 4.02442V2.77977H16.8633C17.2198 2.77977 17.51 3.03614 17.51 3.35147V6.26051C17.51 6.44827 17.6818 6.60041 17.8938 6.60041C18.1057 6.60041 18.2775 6.44827 18.2775 6.26051V3.3513C18.2775 2.66132 17.6431 2.09998 16.8633 2.09998H8.52351C7.74374 2.09998 7.10938 2.66132 7.10938 3.3513V10.4374H3.65189C2.87231 10.4374 2.23775 10.9987 2.23775 11.6887V18.7634H1.29472C0.580811 18.7634 0 19.2779 0 19.9103C0 20.5425 0.580811 21.057 1.29472 21.057H24.7039C25.4186 21.057 26 20.5425 26 19.9103C26 19.2779 25.4186 18.7634 24.7039 18.7634ZM14.2287 4.02442C14.2287 4.07513 14.1811 4.11813 14.1245 4.11813H11.1356C11.0782 4.11813 11.03 4.07513 11.03 4.02442V2.77977H14.2287V4.02442ZM16.5592 11.1172H19.7579V12.3618C19.7579 12.4118 19.7097 12.4541 19.6525 12.4541H16.6648C16.6075 12.4541 16.5592 12.4118 16.5592 12.3618V11.1172ZM14.0527 11.1172H15.7916V12.3618C15.7916 12.7875 16.1833 13.1339 16.6648 13.1339H19.6523C20.1338 13.1339 20.5253 12.7875 20.5253 12.3618V11.1172H22.3925C22.749 11.1172 23.0392 11.3735 23.0392 11.6887V18.7634H13.4061V11.6887C13.4061 11.3735 13.6963 11.1172 14.0527 11.1172ZM6.16 11.1172H9.35724V12.3618C9.35724 12.4118 9.30963 12.4541 9.2531 12.4541H6.26414C6.20662 12.4541 6.16 12.4127 6.16 12.3618V11.1172ZM24.7039 20.3772H1.29472C1.00392 20.3772 0.767471 20.1677 0.767471 19.9103C0.767471 19.6527 1.00392 19.4432 1.29472 19.4432H6.69856C6.91061 19.4432 7.0824 19.291 7.0824 19.1033C7.0824 18.9155 6.91061 18.7634 6.69856 18.7634H3.00542V11.6887C3.00542 11.3735 3.29543 11.1172 3.65189 11.1172H5.39233V12.3618C5.39233 12.7875 5.78331 13.1339 6.26395 13.1339H9.2531C9.73373 13.1339 10.1247 12.7875 10.1247 12.3618V11.1172H11.9919C12.3484 11.1172 12.6386 11.3735 12.6386 11.6887V18.7634H8.45726C8.24541 18.7634 8.07362 18.9155 8.07362 19.1033C8.07362 19.291 8.24541 19.4432 8.45726 19.4432H24.7037C24.9953 19.4432 25.2325 19.6527 25.2325 19.9101C25.2325 20.1677 24.9953 20.3772 24.7039 20.3772Z" fill="white"/>
</svg>
