<svg width="71" height="46" viewBox="0 0 71 46" fill="none" xmlns="http://www.w3.org/2000/svg">
<path d="M16.2666 1.16818e-05C12.1964 -0.00486688 8.27253 1.51846 5.27146 4.26859C2.27039 7.01873 0.410705 10.7953 0.0603382 14.8512C-0.290029 18.9071 0.894448 22.9467 3.37942 26.171C5.86439 29.3952 9.46883 31.5691 13.4796 32.2625C13.9045 37.9875 9.18037 42.8125 9.13038 42.8625C8.95412 43.0374 8.83391 43.2607 8.78509 43.5042C8.73626 43.7476 8.76102 44.0001 8.85621 44.2294C8.9514 44.4587 9.11271 44.6544 9.31958 44.7917C9.52644 44.9289 9.76948 45.0015 10.0177 45C10.1253 45.0173 10.235 45.0173 10.3427 45C33.0261 38.75 32.5512 17.5 32.5137 16.25C32.5137 14.116 32.0935 12.0029 31.277 10.0314C30.4605 8.05986 29.2637 6.26848 27.755 4.75953C26.2463 3.25057 24.4553 2.05361 22.4841 1.23697C20.5129 0.42033 18.4002 1.16818e-05 16.2666 1.16818e-05Z" fill="#0033EA"/>
<path d="M70.0059 16.2251C70.0005 13.1315 69.1123 10.1038 67.4458 7.49772C65.7793 4.89164 63.4036 2.8155 60.598 1.51328C57.7924 0.21107 54.6734 -0.263102 51.6076 0.146494C48.5419 0.55609 45.6567 1.83243 43.2912 3.82552C40.9257 5.81862 39.1782 8.44563 38.254 11.3978C37.3298 14.3501 37.2673 17.5048 38.0739 20.4913C38.8806 23.4778 40.5228 26.1719 42.8075 28.2571C45.0923 30.3423 47.9246 31.7319 50.9718 32.2626C51.3967 37.9876 46.6726 42.8126 46.6226 42.8626C46.4463 43.0374 46.3261 43.2608 46.2773 43.5042C46.2285 43.7476 46.2532 44.0001 46.3484 44.2294C46.4436 44.4587 46.6049 44.6545 46.8118 44.7917C47.0186 44.929 47.2617 45.0015 47.5099 45.0001C47.6175 45.0173 47.7272 45.0173 47.8348 45.0001C70.5183 38.6501 70.0059 17.3876 70.0059 16.2251Z" fill="#0033EA"/>
</svg>
