<svg width="589" height="516" viewBox="0 0 589 516" fill="none" xmlns="http://www.w3.org/2000/svg">
<path opacity="0.1" d="M70.2666 460.152C70.2666 460.152 15.3735 373.568 90.1049 327.538C164.836 281.509 159.657 181.944 231.084 171.743C302.512 161.541 308.995 12.0721 408.508 45.5075C508.021 78.9429 622.095 367.451 534.573 455.262C534.579 455.268 200.881 428.356 70.2666 460.152Z" fill="#0033EA"/>
<path opacity="0.1" d="M518.19 202.949C518.19 207.204 514.741 210.659 510.48 210.659H419.077C414.822 210.659 411.367 207.21 411.367 202.949C411.367 198.694 414.815 195.239 419.077 195.239H510.486C514.741 195.246 518.19 198.694 518.19 202.949Z" fill="#6886F0"/>
<path opacity="0.1" d="M374.286 125.556C374.286 129.811 370.838 133.266 366.576 133.266H275.173C270.918 133.266 267.463 129.817 267.463 125.556C267.463 121.301 270.912 117.846 275.173 117.846H366.583C370.838 117.853 374.286 121.301 374.286 125.556Z" fill="#6886F0"/>
<path opacity="0.1" d="M210.335 313.273C210.335 317.528 206.886 320.983 202.625 320.983H111.222C106.967 320.983 103.512 317.534 103.512 313.273C103.512 309.018 106.96 305.563 111.222 305.563H202.631C206.88 305.563 210.335 309.018 210.335 313.273Z" fill="#6886F0"/>
<path opacity="0.1" d="M588.266 280.257C588.266 284.512 584.818 287.967 580.556 287.967H489.153C484.898 287.967 481.443 284.518 481.443 280.257C481.443 276.002 484.892 272.547 489.153 272.547H580.563C584.818 272.554 588.266 276.002 588.266 280.257Z" fill="#6886F0"/>
<path d="M289.881 516C449.695 516 579.251 501.136 579.251 482.8C579.251 464.464 449.695 449.6 289.881 449.6C130.067 449.6 0.511597 464.464 0.511597 482.8C0.511597 501.136 130.067 516 289.881 516Z" fill="#F2F5FE"/>
<path d="M570.816 490.787C570.816 490.787 541.752 478.906 429.49 490.787C317.227 502.667 68.8863 504.23 68.8863 504.23C68.8863 504.23 4.46894 498.581 0.518059 482.8C0.518059 482.8 184.671 465.381 254.801 467.417C324.931 469.453 456.761 455.674 456.761 455.674C456.761 455.674 562.864 463.798 574.947 477.062C574.94 477.062 587.922 485.117 570.816 490.787Z" fill="white"/>
<path d="M202.168 488.956L254.801 486.557" stroke="#D3D3D3" stroke-width="3" stroke-miterlimit="10"/>
<path d="M376.583 479.955C376.583 479.955 403.433 479.126 418.319 475.129L376.583 479.955Z" fill="#F1F1F1"/>
<path d="M376.583 479.955C376.583 479.955 403.433 479.126 418.319 475.129" stroke="#D3D3D3" stroke-width="3" stroke-miterlimit="10"/>
<path d="M545.262 477.542C545.262 477.542 513.01 471.818 497.708 473.189L545.262 477.542Z" fill="#F1F1F1"/>
<path d="M545.262 477.542C545.262 477.542 513.01 471.818 497.708 473.189" stroke="#D3D3D3" stroke-width="3" stroke-miterlimit="10"/>
<path d="M330.423 389.752C330.423 389.752 336.766 405.555 338.035 408.154C339.085 410.306 341.15 411.671 343.119 413.036C343.749 413.474 344.405 414.506 344.965 415.372C345.411 416.072 345.438 416.921 345.149 417.7C340.161 431.289 324.945 436.749 324.586 435.734C323.939 433.896 326.196 430.195 329.39 428.34C332.601 426.476 334.456 422.924 334.596 419.205C334.71 416.256 334.054 413.325 332.706 410.691L326.503 398.922L330.423 389.752Z" fill="#D4A8A1"/>
<path d="M308.539 409.536L304.741 426.415C303.578 431.577 304.313 436.994 306.789 441.657C308.18 444.265 306.946 447.502 304.155 448.5C295.143 451.711 277.669 457.827 276.89 457.171C272.918 453.802 283.418 448.255 291.179 442.427C296.411 438.49 298.415 420.167 298.879 406.106L307.2 408.197C307.848 408.381 308.355 408.889 308.539 409.536Z" fill="#D4A8A1"/>
<path d="M292.955 447.222C289.228 448.447 285.132 448.85 281.387 449.314C280.959 449.366 280.548 449.532 280.206 449.795C276.61 452.577 274.799 455.386 276.899 457.171C277.747 457.889 298.275 450.617 306.281 447.747C307.953 447.144 308.688 445.201 307.848 443.635L306.325 440.774C302.134 443.442 297.68 445.665 292.955 447.222Z" fill="#0033EA"/>
<path d="M301.451 221.664C311.374 223.021 319.826 234.457 318.085 247.232C317.079 254.573 310.254 280.85 302.738 301.613C299.85 309.585 301.031 318.623 306.43 325.151C307.314 326.218 308.075 327.312 308.679 328.432C311.811 334.198 323.869 368.271 330.948 391.004C330.388 393.979 328.611 397.75 326.38 399.062C313.929 379.76 293.681 344.515 290.348 338.381C288.501 334.977 286.48 331.031 285.001 327.338C276.943 316.672 278.5 257.058 280.119 245.211C281.869 232.444 291.529 220.308 301.451 221.664Z" fill="url(#paint0_linear)"/>
<path d="M298.748 169.926C307.185 169.926 314.025 161.103 314.025 150.22C314.025 139.338 307.185 130.515 298.748 130.515C290.31 130.515 283.47 139.338 283.47 150.22C283.47 161.103 290.31 169.926 298.748 169.926Z" fill="black"/>
<path d="M302.414 152.259C302.659 141.348 311.488 132.178 322.381 131.557C332.041 131.005 340.389 136.929 343.513 145.382C344.607 148.348 347.512 150.273 350.67 150.229C351.983 150.212 353.33 150.334 354.704 150.614C362.684 152.25 368.888 158.997 369.728 167.099C370.489 174.414 367.068 180.968 361.564 184.713C359.219 186.305 357.88 188.957 357.495 191.765C355.693 204.768 343.828 214.314 330.283 212.836C318.698 211.567 309.431 202.038 308.443 190.427C307.839 183.304 310.28 176.777 314.585 171.92C307.261 168.455 302.221 160.939 302.414 152.259Z" fill="black"/>
<path d="M298.748 124.049C298.748 124.049 290.155 129.457 291.196 136.745C291.196 136.745 286.603 133.49 285.57 122.299C284.853 114.538 298.748 124.049 298.748 124.049Z" fill="black"/>
<path d="M291.529 168.473C291.529 168.473 291.494 169.637 291.433 171.684C291.354 173.767 291.258 176.724 290.969 180.277C290.689 183.829 290.278 187.985 289.508 192.422C289.131 194.644 288.676 196.928 288.09 199.247C287.53 201.566 286.821 203.893 285.964 206.186C285.124 208.478 284.118 210.736 282.928 212.871C281.746 214.997 280.416 217.018 278.903 218.812C277.389 220.606 275.735 222.172 274.046 223.484C272.323 224.771 270.59 225.812 268.91 226.617C268.079 227.028 267.248 227.334 266.469 227.658C265.673 227.921 264.92 228.174 264.211 228.384C263.494 228.568 262.82 228.734 262.199 228.892C261.578 229.023 260.991 229.119 260.475 229.216C259.443 229.426 258.611 229.469 258.051 229.548C257.491 229.609 257.194 229.644 257.194 229.644C256.573 229.714 256.004 229.268 255.934 228.647C255.864 228.061 256.249 227.536 256.809 227.404L256.888 227.387C256.888 227.387 257.168 227.326 257.684 227.212C258.2 227.081 258.97 226.967 259.906 226.678C260.379 226.538 260.904 226.398 261.464 226.223C262.015 226.022 262.619 225.803 263.258 225.576C263.879 225.304 264.535 225.016 265.226 224.709C265.883 224.342 266.6 224.009 267.309 223.589C268.726 222.758 270.161 221.717 271.553 220.483C272.918 219.214 274.221 217.753 275.394 216.099C276.566 214.446 277.573 212.582 278.456 210.631C279.34 208.67 280.066 206.588 280.653 204.453C281.239 202.318 281.729 200.148 282.096 197.969C282.481 195.799 282.753 193.638 282.963 191.529C283.181 189.429 283.304 187.373 283.418 185.422C283.523 183.47 283.575 181.624 283.61 179.909C283.663 176.488 283.654 173.618 283.628 171.632C283.593 169.602 283.566 168.438 283.566 168.438V168.429C283.531 166.233 285.273 164.422 287.469 164.378C289.665 164.343 291.476 166.084 291.52 168.28C291.538 168.35 291.529 168.42 291.529 168.473Z" fill="#D5A8A1"/>
<path d="M289.131 206.221C285.693 195.852 278.771 173.907 279.366 166.732C279.743 162.138 283.584 158.62 288.195 158.62H318.111C323.073 158.62 327.133 162.558 327.273 167.51C327.526 176.173 323.536 195.896 321.288 206.221H289.131Z" fill="#675454"/>
<path d="M299.063 409.746C298.59 409.457 298.328 408.924 298.345 408.372C298.975 386.366 300.314 358.313 300.804 352.941C300.856 352.328 300.935 351.716 301.023 351.121C296.306 325.107 295.598 269.186 295.125 259.394C294.513 246.514 302.265 231.989 312.266 231.508C322.268 231.027 333.126 241.387 336.346 253.182C338.464 260.969 330.274 302.401 321.384 332.431C319.511 338.748 319.223 345.398 320.159 351.926C320.806 356.441 321.008 361.087 320.684 364.64C320.203 369.933 314.279 391.476 308.723 409.912C308.565 410.446 308.136 410.866 307.594 410.989C304.724 411.627 301.723 411.365 299.063 409.746Z" fill="#3558D5"/>
<path d="M324.709 219.363C323.16 215.014 322.696 210.368 323.344 205.801C324.849 195.196 327.491 175.219 327.246 166.74C327.115 162.208 323.405 158.62 318.864 158.62H314.428C312.739 162.54 309.16 165.568 303.595 165.568C298.039 165.568 294.46 162.54 292.763 158.62H288.598C293.121 168.315 291.494 181.099 283.706 188.563C285.15 193.682 286.366 198.827 287.285 203.001C288.519 208.653 287.976 214.542 285.745 219.879C281.921 229.058 278.894 243.776 279.795 249.603C311.269 258.519 333.03 242.734 333.03 242.734L324.709 219.363Z" fill="#675454"/>
<path d="M298.748 160.677L312.319 159.25L308.031 144.402L299.246 145.487L298.748 160.677Z" fill="#D5A8A1"/>
<path d="M299.246 145.487L308.023 144.402L309.361 149.039C307.393 151.253 304.873 156.039 301.679 156.039C300.664 156.039 299.745 155.75 298.914 155.225L299.246 145.487Z" fill="#B48881"/>
<path d="M298.949 152.67C301.933 152.67 305.153 151.183 309.598 147.298C312.144 145.067 314.034 141.182 314.034 138.565V124.049H291.686C291.686 124.049 290.006 131.758 291.634 139.405C292.859 145.137 296.604 152.67 298.949 152.67Z" fill="#D5A8A1"/>
<path d="M310.245 135.818C310.245 138.653 311.602 140.945 313.273 140.945C314.944 140.945 316.79 137.235 316.79 134.4C316.79 131.565 314.944 130.69 313.273 130.69C311.602 130.69 310.245 132.983 310.245 135.818Z" fill="#D4A8A1"/>
<path d="M316.79 125.808C316.79 121.275 313.115 117.6 308.583 117.6H301.04C298.888 117.6 296.788 117.04 294.959 115.999C292.299 114.485 288.93 114.993 287.119 117.452C285.159 120.112 284.31 123.682 289.28 126.98C291.756 128.625 295.37 126.805 297.776 127.593C297.925 127.584 298.056 127.567 298.214 127.567H304.864C307.174 127.567 308.941 129.457 309.011 131.767C309.055 133.228 310.254 134.4 311.724 134.4H312.021L313.089 130.988L316.799 135.993V125.808H316.79Z" fill="black"/>
<path d="M251.078 223.449C251.078 223.449 258.891 224.359 259.408 226.844C259.924 229.321 259.81 231.079 256.231 231.963C252.653 232.847 247.324 232.348 244.182 231.412C241.05 230.476 236.456 226.678 236.229 225.952C235.415 223.292 240.919 225.584 243.64 226.573C246.361 227.553 249.529 228.393 249.634 226.949C249.739 225.506 244.384 224.018 243.955 222.329C243.517 220.623 251.078 223.449 251.078 223.449Z" fill="#D5A8A1"/>
<path d="M293.349 123.795C294.101 127.112 292.99 128.923 303.858 134.103C314.725 139.274 318.164 137.069 321.559 142.634C321.559 142.634 320.071 133.403 314.069 130.235C308.066 127.068 297.654 124.994 294.32 117.662C294.329 117.662 292.841 121.529 293.349 123.795Z" fill="black"/>
<path d="M323.991 170.074C323.991 170.074 323.081 171.483 321.436 173.907C319.791 176.322 317.446 179.778 314.498 183.829C311.54 187.889 308.101 192.614 303.989 197.471C302.956 198.687 301.889 199.912 300.743 201.128C299.57 202.344 298.406 203.561 296.796 204.751C296.376 205.048 295.93 205.354 295.291 205.643C294.976 205.783 294.583 205.932 294.049 206.028C293.55 206.116 292.675 206.133 291.844 205.678C291.004 205.232 290.523 204.479 290.321 203.981C290.111 203.464 290.033 203.053 289.998 202.694C289.919 201.986 289.954 201.443 290.006 200.927C290.234 198.914 290.733 197.287 291.24 195.616C292.281 192.326 293.498 189.202 294.749 186.139C296 183.085 297.286 180.111 298.555 177.258C301.119 171.553 303.63 166.294 305.8 161.797C306.876 159.548 307.909 157.5 308.819 155.689C309.729 153.878 310.525 152.303 311.173 150.999C312.485 148.4 313.238 146.922 313.238 146.922C313.456 146.493 313.981 146.318 314.419 146.537C314.83 146.747 315.005 147.245 314.83 147.665C314.83 147.665 314.183 149.197 313.054 151.874C311.943 154.56 310.35 158.384 308.443 162.987C306.535 167.58 304.348 172.962 302.116 178.745C300.988 181.633 299.859 184.625 298.774 187.679C297.698 190.724 296.648 193.848 295.825 196.937C295.423 198.459 295.073 200.061 294.985 201.347C294.959 201.662 294.976 201.942 294.994 202.056C295.003 202.117 295.02 202.099 294.968 201.968C294.924 201.846 294.705 201.434 294.233 201.189C293.769 200.936 293.323 200.979 293.226 200.988C293.095 201.006 293.095 201.023 293.148 200.988C293.253 200.936 293.489 200.778 293.725 200.594C294.722 199.816 295.808 198.652 296.805 197.523C297.811 196.377 298.791 195.178 299.736 193.988C301.618 191.591 303.376 189.193 305.039 186.909C306.693 184.625 308.233 182.429 309.641 180.39C312.441 176.313 314.769 172.892 316.361 170.485C317.954 168.079 318.864 166.714 318.864 166.714C319.8 165.305 321.699 164.92 323.108 165.857C324.508 166.784 324.893 168.665 323.991 170.074Z" fill="#D5A8A1"/>
<path d="M295.44 124.408C295.44 124.408 295.029 135.573 285.264 140.937C285.264 140.937 289.569 132.493 289.271 126.972C288.983 121.459 296.088 120.593 295.44 124.408Z" fill="black"/>
<path d="M348.745 421.576C349.393 420.832 349.402 419.739 348.772 418.986C348.255 418.374 346.873 416.685 345.84 415.416C345.394 414.865 344.545 414.996 344.239 415.635C340.774 422.889 334.973 428.55 327.422 429.591C324.972 431.245 323.405 434.99 323.922 436.442C324.044 436.784 327.395 436.827 330.922 434.815C346.558 425.855 348.745 421.576 348.745 421.576Z" fill="#0033EA"/>
<path d="M310.455 152.74C309.677 153.545 308.609 153.782 308.066 153.265L303.613 148.969C303.07 148.453 303.272 147.368 304.05 146.563L314.183 136.054C314.961 135.249 316.029 135.013 316.572 135.529L321.025 139.825C321.568 140.342 321.367 141.427 320.588 142.232L310.455 152.74Z" fill="#204CE9"/>
<path d="M312.459 146.064C312.459 146.064 309.108 150.509 310.123 151.979C311.138 153.449 312.091 154.254 314.288 152.854C316.484 151.454 318.838 148.488 319.896 146.423C320.946 144.358 321.261 140.158 320.99 139.694C320.028 137.979 318.514 141.917 317.683 143.78C316.851 145.653 315.731 147.683 314.944 147.027C314.156 146.37 316.011 142.914 315.355 141.864C314.708 140.832 312.459 146.064 312.459 146.064Z" fill="#D5A8A1"/>
<path d="M257.062 115.894C266.128 103.793 271.5 88.7602 271.5 72.4764C271.5 32.4451 239.055 0 199.024 0C158.992 0 126.547 32.4451 126.547 72.4764C126.547 112.508 158.992 144.953 199.024 144.953C217.495 144.953 234.347 138.04 247.149 126.665L263.975 135.179L257.062 115.894Z" fill="#F2F5FE"/>
<path d="M243.386 38.1939C243.386 39.8564 241.584 41.2127 239.361 41.2127H156.455C154.232 41.2127 152.43 39.8652 152.43 38.1939C152.43 36.5314 154.232 35.1752 156.455 35.1752H239.361C241.584 35.1752 243.386 36.5314 243.386 38.1939Z" fill="white"/>
<path d="M243.386 69.4663C243.386 71.1288 241.584 72.4851 239.361 72.4851H156.455C154.232 72.4851 152.43 71.1376 152.43 69.4663C152.43 67.8038 154.232 66.4476 156.455 66.4476H239.361C241.584 66.4563 243.386 67.8038 243.386 69.4663Z" fill="white"/>
<path d="M220.522 53.8301C220.522 55.4926 219.175 56.8489 217.504 56.8489H155.44C153.777 56.8489 152.421 55.5014 152.421 53.8301C152.421 52.1676 153.768 50.8114 155.44 50.8114H217.504C219.175 50.8114 220.522 52.1676 220.522 53.8301Z" fill="white"/>
<path d="M243.386 100.748C243.386 102.41 241.584 103.767 239.361 103.767H156.455C154.232 103.767 152.43 102.419 152.43 100.748C152.43 99.0853 154.232 97.7291 156.455 97.7291H239.361C241.584 97.7291 243.386 99.0766 243.386 100.748Z" fill="white"/>
<path d="M220.522 85.1027C220.522 86.7652 219.175 88.1214 217.504 88.1214H155.44C153.777 88.1214 152.421 86.7739 152.421 85.1027C152.421 83.4402 153.768 82.0839 155.44 82.0839H217.504C219.175 82.0927 220.522 83.4402 220.522 85.1027Z" fill="white"/>
<path d="M231.967 357.657C231.967 369.741 220.864 379.532 207.161 379.532H59.6095C45.9069 379.532 34.8031 369.741 34.8031 357.657V347.708C34.8031 335.625 45.9069 325.833 59.6095 325.833H207.152C220.855 325.833 231.959 335.625 231.959 347.708V357.657H231.967Z" fill="#6D8DFF"/>
<path d="M52.3033 426.406C52.3033 429.302 49.9495 431.656 47.0532 431.656C44.157 431.656 41.8032 429.302 41.8032 426.406V396.7C41.8032 393.804 44.157 391.45 47.0532 391.45C49.9495 391.45 52.3033 393.804 52.3033 396.7V426.406Z" fill="#6D8DFF"/>
<path d="M224.241 426.406C224.241 429.302 221.887 431.656 218.991 431.656C216.095 431.656 213.741 429.302 213.741 426.406V396.7C213.741 393.804 216.095 391.45 218.991 391.45C221.887 391.45 224.241 393.804 224.241 396.7V426.406Z" fill="#6D8DFF"/>
<path d="M231.967 387.696C231.967 392.202 228.31 395.86 223.804 395.86H42.967C38.4607 395.86 34.8032 392.202 34.8032 387.696C34.8032 383.19 38.4607 379.532 42.967 379.532H223.804C228.31 379.532 231.967 383.19 231.967 387.696Z" fill="#C9BBBB"/>
<path d="M556.593 357.657C556.593 369.741 545.489 379.532 531.787 379.532H384.235C370.533 379.532 359.429 369.741 359.429 357.657V347.708C359.429 335.625 370.533 325.833 384.235 325.833H531.778C545.481 325.833 556.585 335.625 556.585 347.708V357.657H556.593Z" fill="#6D8DFF"/>
<path d="M376.929 426.406C376.929 429.302 374.575 431.656 371.679 431.656C368.783 431.656 366.429 429.302 366.429 426.406V396.7C366.429 393.804 368.783 391.45 371.679 391.45C374.575 391.45 376.929 393.804 376.929 396.7V426.406Z" fill="#6D8DFF"/>
<path d="M548.867 426.406C548.867 429.302 546.513 431.656 543.617 431.656C540.721 431.656 538.367 429.302 538.367 426.406V396.7C538.367 393.804 540.721 391.45 543.617 391.45C546.513 391.45 548.867 393.804 548.867 396.7V426.406Z" fill="#6D8DFF"/>
<path d="M556.593 387.696C556.593 392.202 552.936 395.86 548.43 395.86H367.593C363.087 395.86 359.429 392.202 359.429 387.696C359.429 383.19 363.087 379.532 367.593 379.532H548.43C552.936 379.532 556.593 383.19 556.593 387.696Z" fill="#C9BBBB"/>
<defs>
<linearGradient id="paint0_linear" x1="284.179" y1="322.876" x2="353.304" y2="299.251" gradientUnits="userSpaceOnUse">
<stop stop-color="#1E44CA"/>
<stop offset="1" stop-color="#1E44CA" stop-opacity="0"/>
</linearGradient>
</defs>
</svg>
