<svg width="24" height="21" viewBox="0 0 24 21" fill="none" xmlns="http://www.w3.org/2000/svg">
<g clip-path="url(#clip0)">
<path d="M22.2972 3.59455C21.8225 2.03455 18.2895 0.5 12.1091 0.5C5.92882 0.5 2.39533 2.03455 1.92105 3.59455C1.88662 3.648 1.86121 3.70655 1.86121 3.77273V3.95455V8.13636V8.31818V8.5V12.5V12.6818V12.8636V17.2273C1.86121 17.2862 1.87883 17.3418 1.90917 17.3913C2.39328 19.1713 6.72447 20.5 12.1091 20.5C17.4815 20.5 21.8057 19.1767 22.3058 17.4033C22.3386 17.3513 22.3571 17.2913 22.3571 17.2273V12.8636V12.6818V12.5V8.5V8.31818V8.13636V3.95455V3.77273C22.3571 3.70655 22.3317 3.648 22.2972 3.59455ZM21.5049 12.8582C21.4934 12.9022 21.4774 12.9458 21.4573 12.9902C21.4409 13.0262 21.4208 13.0622 21.3987 13.0982C21.3712 13.1429 21.3405 13.1876 21.304 13.2324C21.2769 13.2662 21.2462 13.2996 21.2142 13.3331C21.1687 13.3807 21.1204 13.4284 21.0654 13.4756C21.0322 13.5044 20.9957 13.5327 20.9588 13.5615C20.8916 13.6135 20.8215 13.6651 20.7432 13.7164C20.7096 13.7385 20.6735 13.76 20.6379 13.7818C20.5452 13.8385 20.4485 13.8949 20.3423 13.9502C20.3145 13.9651 20.2845 13.9793 20.2554 13.9938C20.1333 14.0549 20.0058 14.1156 19.8681 14.1745C19.8504 14.1822 19.832 14.1895 19.8139 14.1967C19.6602 14.2611 19.4995 14.3244 19.3278 14.3855C19.3229 14.3873 19.3179 14.3887 19.313 14.3905C18.3821 14.7204 17.1913 14.9978 15.8037 15.1796C15.7968 15.1804 15.7898 15.1811 15.7828 15.1822C15.5131 15.2175 15.2364 15.2487 14.9523 15.2764C14.906 15.2807 14.8572 15.2836 14.8105 15.288C14.5625 15.3109 14.3116 15.332 14.0534 15.3487C13.9353 15.3564 13.8115 15.36 13.6914 15.3665C13.4971 15.3767 13.3049 15.388 13.1056 15.3942C12.7802 15.4033 12.4481 15.4091 12.1091 15.4091C11.7701 15.4091 11.4381 15.4033 11.1122 15.3931C10.913 15.3869 10.7208 15.3753 10.5264 15.3655C10.4063 15.3593 10.2825 15.3553 10.1645 15.3476C9.90625 15.3309 9.65538 15.3098 9.40738 15.2869C9.36064 15.2825 9.31186 15.2796 9.26554 15.2753C8.98147 15.2476 8.70478 15.216 8.43505 15.1811C8.42808 15.1804 8.42111 15.1796 8.41415 15.1785C7.02658 14.9967 5.83577 14.7193 4.90484 14.3895C4.89992 14.388 4.895 14.3862 4.89009 14.3844C4.71833 14.3233 4.55723 14.26 4.40392 14.1956C4.3863 14.188 4.36744 14.1807 4.34981 14.1735C4.21208 14.1145 4.0846 14.0542 3.96244 13.9927C3.93375 13.9782 3.90341 13.964 3.87554 13.9491C3.76937 13.8938 3.67263 13.8375 3.57999 13.7807C3.54474 13.7589 3.50825 13.7375 3.47464 13.7153C3.39635 13.664 3.32625 13.6124 3.25902 13.5604C3.22254 13.532 3.18565 13.5036 3.15245 13.4745C3.09752 13.4273 3.04915 13.38 3.00365 13.332C2.97167 13.2985 2.94093 13.2651 2.91387 13.2313C2.8778 13.1865 2.84706 13.1418 2.81918 13.0971C2.79705 13.0611 2.77737 13.0251 2.76056 12.9891C2.74048 12.9451 2.72449 12.9011 2.71301 12.8571C2.69785 12.7993 2.68104 12.7404 2.68104 12.6818C2.68104 12.6407 2.68637 12.5996 2.69375 12.5589C2.704 12.504 2.69826 12.4491 2.68104 12.3971V9.69745C2.69252 9.70691 2.70687 9.716 2.71875 9.72546C2.80812 9.79527 2.89912 9.86473 3.0016 9.93164C4.54575 10.9676 7.63366 11.7727 12.1091 11.7727C16.5658 11.7727 19.6459 10.9742 21.1966 9.94436C21.3204 9.86436 21.4319 9.78182 21.5368 9.69782L21.5372 9.69745V12.3971C21.52 12.4491 21.5143 12.504 21.5245 12.5589C21.5323 12.5996 21.5372 12.6407 21.5372 12.6818C21.5372 12.7404 21.5204 12.7993 21.5049 12.8582ZM21.5372 5.33382V8.03345C21.52 8.08545 21.5143 8.14036 21.5245 8.19527C21.5323 8.236 21.5372 8.27709 21.5372 8.31818C21.5372 8.37673 21.5204 8.43564 21.5049 8.49455C21.4934 8.53855 21.4774 8.58218 21.4573 8.62655C21.4409 8.66255 21.4208 8.69855 21.3987 8.73455C21.3712 8.77927 21.3405 8.824 21.304 8.86873C21.2769 8.90255 21.2462 8.936 21.2142 8.96945C21.1687 9.01709 21.1204 9.06473 21.0654 9.112C21.0322 9.14073 20.9957 9.16909 20.9588 9.19782C20.8916 9.24982 20.8215 9.30145 20.7432 9.35273C20.7096 9.37491 20.6735 9.39636 20.6379 9.41818C20.5452 9.47491 20.4485 9.53127 20.3423 9.58655C20.3145 9.60145 20.2845 9.61564 20.2554 9.63018C20.1333 9.69127 20.0058 9.752 19.8681 9.81091C19.8504 9.81855 19.832 9.82582 19.8139 9.83309C19.6602 9.89746 19.4995 9.96073 19.3278 10.0218C19.3229 10.0236 19.3179 10.0251 19.313 10.0269C18.3821 10.3567 17.1913 10.6342 15.8037 10.816C15.7968 10.8167 15.7898 10.8175 15.7828 10.8185C15.5131 10.8538 15.2364 10.8851 14.9523 10.9127C14.906 10.9171 14.8572 10.92 14.8105 10.9244C14.5625 10.9473 14.3116 10.9684 14.0534 10.9851C13.9353 10.9927 13.8115 10.9964 13.6914 11.0029C13.4971 11.0131 13.3049 11.0244 13.1056 11.0305C12.7802 11.0396 12.4481 11.0455 12.1091 11.0455C11.7701 11.0455 11.4381 11.0396 11.1122 11.0295C10.913 11.0233 10.7208 11.0116 10.5264 11.0018C10.4063 10.9956 10.2825 10.9916 10.1645 10.984C9.90625 10.9673 9.65538 10.9462 9.40738 10.9233C9.36064 10.9189 9.31186 10.916 9.26554 10.9116C8.98147 10.884 8.70478 10.8524 8.43505 10.8175C8.42808 10.8167 8.42111 10.816 8.41415 10.8149C7.02658 10.6331 5.83577 10.3556 4.90484 10.0258C4.89992 10.0244 4.895 10.0225 4.89009 10.0207C4.71833 9.95964 4.55723 9.89636 4.40392 9.832C4.3863 9.82436 4.36744 9.81709 4.34981 9.80982C4.21208 9.75091 4.0846 9.69055 3.96244 9.62909C3.93375 9.61455 3.90341 9.60036 3.87554 9.58545C3.76937 9.53018 3.67263 9.47382 3.57999 9.41709C3.54474 9.39527 3.50825 9.37382 3.47464 9.35164C3.39635 9.30036 3.32625 9.24873 3.25902 9.19673C3.22254 9.16836 3.18565 9.14 3.15245 9.11091C3.09752 9.06364 3.04915 9.01636 3.00365 8.96836C2.97167 8.93491 2.94093 8.90145 2.91387 8.86764C2.8778 8.82291 2.84706 8.77818 2.81918 8.73345C2.79705 8.69745 2.77737 8.66145 2.76056 8.62545C2.74048 8.58145 2.72449 8.53745 2.71301 8.49345C2.69785 8.43564 2.68104 8.37673 2.68104 8.31818C2.68104 8.27709 2.68637 8.236 2.69375 8.19527C2.704 8.14036 2.69826 8.08545 2.68104 8.03345V5.33382C2.73023 5.37345 2.78639 5.41236 2.83968 5.45164C2.86919 5.47345 2.89666 5.49527 2.92781 5.51709C3.05079 5.60291 3.1836 5.68764 3.32748 5.77018C3.3574 5.78727 3.39102 5.804 3.42217 5.82109C3.54269 5.88764 3.67017 5.95273 3.80421 6.01673C3.85381 6.04036 3.90341 6.06364 3.95465 6.08691C4.10427 6.15455 4.26127 6.22036 4.42647 6.284C4.45352 6.29455 4.47812 6.30545 4.50558 6.31564C4.69783 6.388 4.90197 6.45709 5.11431 6.524C5.17293 6.54255 5.23442 6.56 5.29467 6.57818C5.46356 6.62873 5.63818 6.67709 5.81896 6.724C5.88414 6.74073 5.94808 6.75818 6.0149 6.77418C6.2547 6.83309 6.50229 6.88909 6.76218 6.94073C6.79784 6.948 6.83637 6.95382 6.87245 6.96073C7.10159 7.00509 7.33934 7.04618 7.58365 7.08473C7.66646 7.09782 7.75049 7.11018 7.83493 7.12255C8.06736 7.15636 8.30675 7.18727 8.55229 7.21564C8.61541 7.22291 8.67567 7.23127 8.73962 7.23818C9.0446 7.27091 9.36023 7.29891 9.68448 7.32291C9.76441 7.32873 9.84763 7.33309 9.92879 7.33818C10.1883 7.35491 10.4535 7.36873 10.7248 7.37964C10.8236 7.38364 10.922 7.38764 11.0229 7.39091C11.3762 7.40145 11.7361 7.40909 12.1091 7.40909C12.4822 7.40909 12.8421 7.40145 13.1954 7.39091C13.2959 7.38764 13.3942 7.38364 13.4934 7.37964C13.7648 7.36873 14.03 7.35491 14.2895 7.33818C14.3707 7.33273 14.4535 7.32873 14.5338 7.32291C14.858 7.29927 15.1737 7.27091 15.4787 7.23818C15.5426 7.23127 15.6029 7.22291 15.666 7.21564C15.9115 7.18727 16.1505 7.15636 16.3833 7.12255C16.4678 7.11018 16.5518 7.09782 16.6346 7.08473C16.8789 7.04618 17.1167 7.00509 17.3458 6.96073C17.3819 6.95382 17.4204 6.94764 17.4561 6.94073C17.716 6.88909 17.9636 6.83273 18.2034 6.77418C18.2702 6.75782 18.3341 6.74073 18.3993 6.724C18.5801 6.67709 18.7547 6.62873 18.9236 6.57818C18.9839 6.56 19.0454 6.54255 19.104 6.524C19.3163 6.45709 19.5209 6.388 19.7127 6.31564C19.7402 6.30545 19.7648 6.29455 19.7918 6.284C19.957 6.22 20.114 6.15455 20.2636 6.08691C20.3149 6.06364 20.3649 6.04036 20.4141 6.01673C20.5481 5.95309 20.6756 5.888 20.7961 5.82109C20.8273 5.804 20.8609 5.78727 20.8908 5.77018C21.0347 5.68764 21.1675 5.60327 21.2905 5.51709C21.3212 5.49527 21.3487 5.47345 21.3786 5.45164C21.4319 5.41236 21.4881 5.37345 21.5372 5.33382ZM12.1091 1.22727C17.6656 1.22727 21.5372 2.66436 21.5372 3.95455C21.5372 5.24473 17.6656 6.68182 12.1091 6.68182C6.55271 6.68182 2.68104 5.24473 2.68104 3.95455C2.68104 2.66436 6.55271 1.22727 12.1091 1.22727ZM21.5372 17.1193C21.5315 17.1353 21.5274 17.1516 21.5241 17.1684C21.2917 18.4262 17.4528 19.7727 12.1091 19.7727C6.76546 19.7727 2.92658 18.4262 2.69416 17.1684C2.69088 17.152 2.68637 17.136 2.68104 17.1207V14.0611C2.69252 14.0705 2.70687 14.0796 2.71875 14.0891C2.80812 14.1589 2.89912 14.2284 3.0016 14.2953C4.54575 15.3313 7.63366 16.1364 12.1091 16.1364C16.5658 16.1364 19.6459 15.3378 21.1966 14.308C21.3204 14.228 21.4319 14.1455 21.5368 14.0615L21.5372 14.0611V17.1193Z" fill="white"/>
</g>
<defs>
<clipPath id="clip0">
<rect width="22.5455" height="20" fill="white" transform="translate(0.836426 0.5)"/>
</clipPath>
</defs>
</svg>
