<svg width="42" height="42" viewBox="0 0 42 42" fill="none" xmlns="http://www.w3.org/2000/svg">
<path d="M36.0464 1.74634H6.09705C3.73411 1.74634 1.81857 3.66188 1.81857 6.02482V35.9742C1.81857 38.3371 3.73411 40.2527 6.09705 40.2527H36.0464C38.4094 40.2527 40.3249 38.3371 40.3249 35.9742V6.02482C40.3249 3.66188 38.4094 1.74634 36.0464 1.74634Z" stroke="white" stroke-width="2" stroke-linecap="round" stroke-linejoin="round"/>
<path d="M13.5844 16.7209C15.3566 16.7209 16.7933 15.2843 16.7933 13.5121C16.7933 11.7399 15.3566 10.3032 13.5844 10.3032C11.8122 10.3032 10.3755 11.7399 10.3755 13.5121C10.3755 15.2843 11.8122 16.7209 13.5844 16.7209Z" stroke="white" stroke-width="2" stroke-linecap="round" stroke-linejoin="round"/>
<path d="M40.3249 27.4171L29.6287 16.7209L6.09705 40.2526" stroke="white" stroke-width="2" stroke-linecap="round" stroke-linejoin="round"/>
</svg>
