<svg width="19" height="24" viewBox="0 0 19 24" fill="none" xmlns="http://www.w3.org/2000/svg">
<path d="M0.44043 0V24H18.5586V0H0.44043ZM17.6699 23.2646H15.4529C16.3636 22.8158 17.1276 22.1835 17.6699 21.4298V23.2646ZM12.6642 23.2498V19.1219H17.6519C17.4371 21.3165 15.316 23.072 12.6642 23.2498ZM17.67 2.62664H17.6699H17.2074V3.36202H17.6699V18.3865H11.7756V23.2646H1.32895V3.36202H1.79148V2.62664H1.32895V0.735375H17.6699V2.62664H17.67Z" fill="#0033EA"/>
<path d="M3.60506 2.62695H2.69824V3.36232H3.60506V2.62695Z" fill="#0033EA"/>
<path d="M5.41854 2.62695H4.51172V3.36232H5.41854V2.62695Z" fill="#0033EA"/>
<path d="M7.23299 2.62695H6.32617V3.36232H7.23299V2.62695Z" fill="#0033EA"/>
<path d="M9.04549 2.62695H8.13867V3.36232H9.04549V2.62695Z" fill="#0033EA"/>
<path d="M10.8599 2.62695H9.95312V3.36232H10.8599V2.62695Z" fill="#0033EA"/>
<path d="M12.6734 2.62695H11.7666V3.36232H12.6734V2.62695Z" fill="#0033EA"/>
<path d="M14.4869 2.62695H13.5801V3.36232H14.4869V2.62695Z" fill="#0033EA"/>
<path d="M16.3004 2.62695H15.3936V3.36232H16.3004V2.62695Z" fill="#0033EA"/>
<path d="M16.3005 5.62842H2.69824V6.36379H16.3005V5.62842Z" fill="#0033EA"/>
<path d="M16.3005 7.50488H2.69824V8.24026H16.3005V7.50488Z" fill="#0033EA"/>
<path d="M16.3005 9.38086H2.69824V10.1162H16.3005V9.38086Z" fill="#0033EA"/>
<path d="M16.3005 11.2568H2.69824V11.9922H16.3005V11.2568Z" fill="#0033EA"/>
<path d="M16.3005 13.1333H2.69824V13.8687H16.3005V13.1333Z" fill="#0033EA"/>
<path d="M16.3005 15.0093H2.69824V15.7447H16.3005V15.0093Z" fill="#0033EA"/>
<path d="M16.3005 16.8857H2.69824V17.6211H16.3005V16.8857Z" fill="#0033EA"/>
<path d="M11.3132 18.7617H2.69824V19.4971H11.3132V18.7617Z" fill="#0033EA"/>
<path d="M11.3132 20.6377H2.69824V21.3731H11.3132V20.6377Z" fill="#0033EA"/>
</svg>
