<svg width="471" height="272" viewBox="0 0 471 272" fill="none" xmlns="http://www.w3.org/2000/svg">
<path d="M235.29 271.7C365.237 271.7 470.58 210.878 470.58 135.85C470.58 60.8221 365.237 0 235.29 0C105.343 0 0 60.8221 0 135.85C0 210.878 105.343 271.7 235.29 271.7Z" fill="#F5F5F5"/>
<path d="M141.461 175.27L238.581 231.34L320.041 184.32L222.921 128.25L141.461 175.27Z" fill="#EFEFEF" fill-opacity="0.92"/>
<path d="M317.33 183.75L243.57 226.34L160.51 178.27L234.27 135.69L317.33 183.75Z" fill="#C4C4C4"/>
<path opacity="0.5" d="M317.33 183.75L243.57 226.34L160.51 178.27L234.27 135.69L317.33 183.75Z" fill="#E5E5E5"/>
<path d="M234.27 77.96V135.69L160.51 178.27V120.55L234.27 77.96Z" fill="#C4C4C4"/>
<path opacity="0.23" d="M234.27 77.96V135.69L160.51 178.27V120.55L234.27 77.96Z" fill="#E5E5E5"/>
<path d="M243.57 168.61V226.34L160.51 178.27V120.55L243.57 168.61Z" fill="#C4C4C4"/>
<path opacity="0.38" d="M243.57 168.61V226.34L160.51 178.27V120.55L243.57 168.61Z" fill="#E5E5E5"/>
<path d="M317.33 126.02V183.75L234.27 135.69V77.96L317.33 126.02Z" fill="#C4C4C4"/>
<path opacity="0.4" d="M317.33 126.02V183.75L234.27 135.69V77.96L317.33 126.02Z" fill="#E5E5E5"/>
<path d="M317.33 183.75V126.02L243.57 168.61V226.34L317.33 183.75Z" fill="#C4C4C4"/>
<path opacity="0.23" d="M317.33 183.75V126.02L243.57 168.61V226.34L317.33 183.75Z" fill="#E5E5E5"/>
<path d="M234.27 77.96L234.37 46L317.23 94.12L317.33 126.02L234.27 77.96Z" fill="#C4C4C4"/>
<path opacity="0.2" d="M234.27 77.96L234.37 46L317.23 94.12L317.33 126.02L234.27 77.96Z" fill="#E5E5E5"/>
<path d="M243.57 168.61L250.49 140.65L323.58 98.4502L317.33 126.02L243.57 168.61Z" fill="#C4C4C4"/>
<path opacity="0.3" d="M243.57 168.61L250.49 140.65L323.58 98.4502L317.33 126.02L243.57 168.61Z" fill="#E5E5E5"/>
<path d="M160.511 120.55L151.711 91.5502L225.471 48.9702L234.271 77.9602L160.511 120.55Z" fill="#C4C4C4"/>
<path opacity="0.1" d="M160.511 120.55L151.711 91.5502L225.471 48.9702L234.271 77.9602L160.511 120.55Z" fill="#E5E5E5"/>
<path d="M160.51 120.55L143.15 96.5801L226.22 144.64L243.57 168.61L160.51 120.55Z" fill="#C4C4C4"/>
<path opacity="0.45" d="M160.51 120.55L143.15 96.5801L226.22 144.64L243.57 168.61L160.51 120.55Z" fill="#E5E5E5"/>
<g opacity="0.7">
<path opacity="0.7" d="M265.29 209.17C265.17 209.17 265.054 209.123 264.968 209.039C264.882 208.955 264.833 208.84 264.83 208.72V198.56C264.833 198.439 264.882 198.323 264.968 198.238C265.053 198.152 265.169 198.103 265.29 198.1C265.41 198.103 265.525 198.152 265.609 198.238C265.693 198.324 265.74 198.44 265.74 198.56V208.72C265.74 208.839 265.693 208.954 265.608 209.038C265.524 209.123 265.409 209.17 265.29 209.17Z" fill="white"/>
<path opacity="0.7" d="M263.961 202.08C263.901 202.089 263.841 202.089 263.781 202.08C263.672 202.03 263.586 201.939 263.541 201.828C263.497 201.716 263.497 201.592 263.541 201.48L265.161 197.75L266.961 199.83C267.025 199.923 267.053 200.037 267.039 200.149C267.025 200.261 266.97 200.365 266.884 200.439C266.799 200.513 266.689 200.553 266.576 200.552C266.463 200.55 266.354 200.507 266.271 200.43L265.421 199.43L264.421 201.83C264.378 201.913 264.311 201.98 264.229 202.025C264.147 202.069 264.054 202.089 263.961 202.08Z" fill="white"/>
<path opacity="0.7" d="M269.481 206.78C269.361 206.778 269.247 206.728 269.162 206.642C269.078 206.556 269.031 206.441 269.031 206.32V196.17C269.031 196.051 269.079 195.936 269.163 195.852C269.247 195.768 269.362 195.72 269.481 195.72C269.601 195.72 269.715 195.768 269.799 195.852C269.884 195.936 269.931 196.051 269.931 196.17V206.31C269.933 206.371 269.922 206.431 269.9 206.487C269.878 206.543 269.845 206.595 269.804 206.638C269.762 206.682 269.712 206.717 269.657 206.741C269.601 206.766 269.542 206.779 269.481 206.78Z" fill="white"/>
<path opacity="0.7" d="M268.15 199.69C268.09 199.699 268.03 199.699 267.97 199.69C267.915 199.666 267.866 199.632 267.824 199.588C267.783 199.545 267.75 199.494 267.729 199.438C267.708 199.382 267.698 199.323 267.699 199.263C267.701 199.203 267.715 199.144 267.74 199.09L269.35 195.31L271.15 197.38C271.233 197.466 271.28 197.581 271.28 197.7C271.28 197.82 271.233 197.934 271.15 198.02C271.108 198.062 271.058 198.096 271.003 198.119C270.948 198.142 270.89 198.154 270.83 198.154C270.77 198.154 270.712 198.142 270.657 198.119C270.602 198.096 270.552 198.062 270.51 198.02L269.66 197.02L268.66 199.42C268.619 199.516 268.545 199.596 268.453 199.645C268.36 199.694 268.253 199.71 268.15 199.69Z" fill="white"/>
</g>
<g opacity="0.7">
<path opacity="0.7" d="M253.199 216.06C253.028 216.063 252.859 216.021 252.709 215.94C252.528 215.824 252.382 215.662 252.285 215.47C252.188 215.279 252.145 215.064 252.159 214.85V213.6C252.162 213.48 252.211 213.365 252.297 213.281C252.383 213.197 252.499 213.15 252.619 213.15C252.738 213.15 252.853 213.198 252.937 213.282C253.021 213.366 253.069 213.481 253.069 213.6V214.85C253.069 215.03 253.069 215.13 253.159 215.15C253.249 215.17 253.299 215.15 253.449 215.07C253.73 214.81 253.952 214.492 254.099 214.138C254.246 213.784 254.314 213.403 254.299 213.02V207.82C254.299 207.701 254.346 207.586 254.431 207.502C254.515 207.418 254.63 207.37 254.749 207.37C254.868 207.37 254.983 207.418 255.067 207.502C255.151 207.586 255.199 207.701 255.199 207.82V213.02C255.221 213.56 255.116 214.098 254.892 214.589C254.668 215.081 254.331 215.513 253.909 215.85C253.695 215.982 253.45 216.055 253.199 216.06Z" fill="white"/>
<path opacity="0.7" d="M248.43 211.87V211.09C248.549 209.087 249.134 207.14 250.139 205.404C251.145 203.667 252.542 202.19 254.22 201.09C255.86 200.15 257.42 200.01 258.62 200.71C259.26 201.149 259.77 201.752 260.097 202.455C260.424 203.159 260.557 203.938 260.48 204.71V204.97L248.43 211.87ZM256.94 201.13C256.139 201.167 255.361 201.408 254.68 201.83C253.242 202.776 252.025 204.02 251.11 205.478C250.196 206.936 249.605 208.574 249.38 210.28L259.55 204.4C259.593 203.821 259.486 203.24 259.239 202.715C258.992 202.189 258.613 201.736 258.14 201.4C257.77 201.206 257.356 201.113 256.94 201.13Z" fill="white"/>
</g>
<path opacity="0.7" d="M143.15 96.5801L226.22 144.64L243.57 168.61L225.3 145.49L143.15 96.5801Z" fill="white"/>
<path opacity="0.7" d="M317.33 126.02L243.57 168.61V226.34L244.95 169.77L317.33 126.02Z" fill="white"/>
</svg>
