<svg width="37" height="28" viewBox="0 0 37 28" fill="none" xmlns="http://www.w3.org/2000/svg">
<path d="M34.6875 0H2.3125C1.69919 0 1.11099 0.245833 0.677315 0.683417C0.243638 1.121 0 1.71449 0 2.33333V25.6667C0 26.2855 0.243638 26.879 0.677315 27.3166C1.11099 27.7542 1.69919 28 2.3125 28H34.6875C35.3008 28 35.889 27.7542 36.3227 27.3166C36.7564 26.879 37 26.2855 37 25.6667V2.33333C37 1.71449 36.7564 1.121 36.3227 0.683417C35.889 0.245833 35.3008 0 34.6875 0ZM32.9069 25.6667H4.23187L12.3256 17.22L10.6606 15.5983L2.3125 24.3133V4.10667L16.6847 18.5383C17.118 18.9729 17.7041 19.2169 18.315 19.2169C18.9259 19.2169 19.512 18.9729 19.9453 18.5383L34.6875 3.745V24.1617L26.1775 15.575L24.5472 17.22L32.9069 25.6667ZM3.82719 2.33333H32.8144L18.315 16.8817L3.82719 2.33333Z" fill="#0033EA"/>
</svg>
