<svg width="49" height="49" viewBox="0 0 49 49" fill="none" xmlns="http://www.w3.org/2000/svg">
<path d="M48.9231 24.6992C48.9231 37.9541 38.1779 48.6992 24.9231 48.6992C11.6683 48.6992 0.923096 37.9541 0.923096 24.6992C0.923096 11.4444 11.6683 0.699219 24.9231 0.699219C38.1779 0.699219 48.9231 11.4444 48.9231 24.6992Z" fill="#0033EA"/>
<path d="M27.5898 11.6992L33.9231 18.1992V37.6992H14.9231V11.6992H27.5898ZM26.0064 18.1992V13.3242H16.5064V18.1992H26.0064ZM21.2564 21.4492V19.8242H16.5064V21.4492H21.2564ZM26.0064 21.4492V19.8242H22.8398V21.4492H26.0064ZM32.3398 21.4492V19.8242H27.5898V21.4492H32.3398ZM21.2564 24.6992V23.0742H16.5064V24.6992H21.2564ZM26.0064 24.6992V23.0742H22.8398V24.6992H26.0064ZM32.3398 24.6992V23.0742H27.5898V24.6992H32.3398ZM21.2564 27.9492V26.3242H16.5064V27.9492H21.2564ZM26.0064 27.9492V26.3242H22.8398V27.9492H26.0064ZM32.3398 27.9492V26.3242H27.5898V27.9492H32.3398ZM21.2564 31.1992V29.5742H16.5064V31.1992H21.2564ZM26.0064 31.1992V29.5742H22.8398V31.1992H26.0064ZM32.3398 31.1992V29.5742H27.5898V31.1992H32.3398ZM21.2564 34.4492V32.8242H16.5064V34.4492H21.2564ZM26.0064 34.4492V32.8242H22.8398V34.4492H26.0064Z" fill="#E5E5E5"/>
</svg>
