<svg width="32" height="31" viewBox="0 0 32 31" fill="none" xmlns="http://www.w3.org/2000/svg">
<path d="M30.5604 0.203918H2.02006C1.3337 0.203918 0.779175 0.752209 0.779175 1.43086V29.6506C0.779175 30.3292 1.3337 30.8775 2.02006 30.8775H30.5604C31.2468 30.8775 31.8013 30.3292 31.8013 29.6506V1.43086C31.8013 0.752209 31.2468 0.203918 30.5604 0.203918ZM26.9774 9.15677H24.4995C22.5567 9.15677 22.1806 10.0693 22.1806 11.4113V14.3674H26.8184L26.2135 18.9953H22.1806V30.8775H17.345V18.9992H13.3005V14.3674H17.345V10.955C17.345 6.99428 19.7919 4.83563 23.3672 4.83563C25.0812 4.83563 26.5508 4.96216 26.9813 5.01967V9.15677H26.9774Z" fill="#006BB7"/>
</svg>
