<svg width="465" height="420" viewBox="0 0 465 420" fill="none" xmlns="http://www.w3.org/2000/svg">
<path fill-rule="evenodd" clip-rule="evenodd" d="M432.976 243.595C430.436 279.394 443.164 320.982 419.936 348.269C396.642 375.635 353.918 370.9 318.724 377.815C291.53 383.159 265.009 387.618 237.519 384.113C209.648 380.559 183.414 371.988 159.317 357.489C131.319 340.643 101.012 323.541 87.3736 293.774C72.9947 262.391 76.2826 226.059 83.6391 192.315C91.3872 156.775 102.243 119.117 130.436 96.2492C158.355 73.6036 197.107 69.3012 232.954 71.2062C264.863 72.9019 289.37 97.5754 320.11 106.329C358.587 117.285 410.043 97.9217 435.5 128.882C460.257 158.991 435.738 204.656 432.976 243.595Z" fill="#DBDBDB"/>
<path fill-rule="evenodd" clip-rule="evenodd" d="M205.836 49.806C231.657 36.9173 260.991 30.6741 289.727 33.3805C319.465 36.1814 350.969 44.443 372.233 65.4776C393.268 86.2868 392.974 119.76 404.576 146.995C415.266 172.086 434.373 193.44 438.248 220.437C442.274 248.483 442.902 280.151 427.056 303.6C411.146 327.142 379.946 333.784 353.945 345.184C333.086 354.328 311.501 359.57 289.172 364.05C267.886 368.321 246.907 372.332 225.233 371.009C201.742 369.575 175.992 370.113 157.133 355.99C138.277 341.869 140.077 311.523 123.473 294.803C98.2081 269.361 36.8878 270.122 36.2469 234.257C35.5991 198.004 97.6349 196.326 121.223 168.851C136.604 150.934 134.262 123.404 147.945 104.154C163.479 82.2973 181.863 61.7726 205.836 49.806Z" fill="#0033EA" fill-opacity="0.05"/>
<path d="M206.356 244.242H200.886C152.659 244.242 113.583 283.318 113.583 331.544V348.847C113.583 351.635 115.845 353.896 118.632 353.896H297.971C302.967 353.896 306.964 349.846 306.964 344.903C306.964 289.313 261.893 244.242 206.356 244.242Z" fill="#2894F5"/>
<path d="M118.632 353.843H297.971C300.548 353.843 302.915 352.739 304.545 350.951L287.768 339.275C287.768 297.78 254.162 264.174 212.667 264.174H210.458C174.485 264.174 145.297 293.363 145.297 329.336L114.898 352.16C115.793 353.212 117.16 353.843 118.632 353.843Z" fill="#0A4A6F"/>
<path d="M230.899 308.189C242.021 297.211 239.822 276.95 225.987 262.935C212.153 248.919 191.922 246.457 180.801 257.434C169.679 268.412 171.879 288.673 185.713 302.689C199.547 316.704 219.778 319.167 230.899 308.189Z" fill="#2894F5"/>
<path d="M226.803 302.704C236.126 293.502 234.288 276.523 222.698 264.781C211.108 253.04 194.155 250.981 184.832 260.184C175.509 269.386 177.347 286.365 188.936 298.107C200.526 309.848 217.479 311.907 226.803 302.704Z" fill="#FFB3A6"/>
<path d="M199.73 254.445C188.527 254.445 180.639 261.65 179.166 271.853C183.899 285.001 197.152 295.098 210.406 295.098C221.608 295.098 229.497 287.893 230.969 277.69C226.183 264.542 212.983 254.445 199.73 254.445Z" fill="#D6805D"/>
<path d="M263.103 227.833L261.893 226.466L259.842 241.98L259.264 256.653L260.473 254.234C262.735 249.606 264.05 244.61 264.365 239.456L264.786 232.882C264.891 231.041 264.312 229.2 263.103 227.833Z" fill="#DD8C6A"/>
<path d="M249.376 220.418L246.484 229.937L235.229 246.714C230.969 253.182 229.549 261.124 231.285 268.697L231.916 271.432C232.126 272.273 232.442 273.062 232.862 273.799L267.1 333.753C273.358 344.745 284.403 352.161 296.919 353.791C307.701 355.211 316.852 345.85 315.274 335.068L314.958 333.07C313.433 322.867 308.069 313.611 300.022 307.247L254.478 271.274L261.63 249.711L263.103 226.624L259.684 215.001C257.949 217.63 257.265 220.838 257.791 223.994L258.317 227.202L255.792 240.297L257.528 227.097L254.846 214.527L254.425 215.527C253.268 218.051 252.9 220.838 253.321 223.573L253.163 227.36L248.956 238.667L251.585 227.57L251.69 217.735C250.533 218.209 249.744 219.208 249.376 220.418Z" fill="#DD8C6A"/>
<path d="M300.022 307.247L254.478 271.274C254.478 271.274 306.859 319.448 313.906 344.535C315.221 341.695 315.8 338.486 315.274 335.068L314.958 333.07C313.433 322.867 308.121 313.611 300.022 307.247Z" fill="#EDAC91"/>
<path d="M244.485 217.209L239.594 218.735L225.71 174.347C222.66 164.512 228.129 154.047 237.964 150.944L248.43 147.683L260.526 186.443C264.575 199.381 257.37 213.16 244.485 217.209Z" fill="#1E0F00"/>
<path d="M206.987 274.219C185.319 274.219 167.806 256.653 167.806 235.038V189.914C167.806 169.245 184.53 152.521 205.199 152.521H211.457C235.123 152.521 254.319 171.717 254.319 195.384V226.939C254.319 253.025 233.125 274.219 206.987 274.219Z" fill="#EDAC91"/>
<path d="M211.457 152.469H205.199C192.84 152.469 181.848 158.464 175.063 167.72V185.076C175.063 206.744 192.629 224.257 214.245 224.257C231.127 224.257 245.905 215.421 254.32 202.116V195.279C254.32 171.665 235.124 152.469 211.457 152.469Z" fill="#DD8C6A"/>
<path d="M172.855 223.468L167.964 224.993L154.079 180.658C151.029 170.823 156.499 160.358 166.333 157.255L176.799 153.994L188.895 192.754C192.945 205.639 185.792 219.418 172.855 223.468Z" fill="#1E0F00"/>
<path d="M161.548 184.918C158.497 175.083 163.967 164.618 173.801 161.515L178.693 159.989L176.799 153.941L166.333 157.202C156.499 160.252 151.029 170.771 154.079 180.606L167.964 224.941L172.855 223.415C173.065 223.363 173.328 223.258 173.539 223.205L161.548 184.918Z" fill="#094A73"/>
<path d="M261.946 178.134H169.173V166.563C169.173 149.366 183.11 135.429 200.308 135.429H219.294C242.855 135.429 261.946 154.572 261.946 178.134Z" fill="#1E0F00"/>
<path d="M184.583 150.786L275.724 133.536C278.038 145.632 270.045 157.307 257.948 159.621L210.668 168.562C198.572 170.823 186.897 162.882 184.583 150.786Z" fill="#1E0F00"/>
<path d="M224.342 143.16L260.789 136.27C261.683 141.109 258.527 145.789 253.689 146.683L234.755 150.26C229.917 151.206 225.289 147.998 224.342 143.16Z" fill="#094A73"/>
<path d="M192.787 153.152L242.013 124.174C245.852 130.695 243.696 139.11 237.122 143.002L211.615 158.043C205.041 161.883 196.626 159.726 192.787 153.152Z" fill="#1E0F00"/>
<path d="M168.963 230.989C174.482 230.989 178.956 225.549 178.956 218.84C178.956 212.13 174.482 206.691 168.963 206.691C163.444 206.691 158.971 212.13 158.971 218.84C158.971 225.549 163.444 230.989 168.963 230.989Z" fill="#EDAC91"/>
<path d="M168.753 211.687C165.808 211.687 163.336 214.317 162.915 217.788C163.809 217.157 164.808 216.841 165.86 216.841C169.121 216.841 171.75 220.049 171.75 224.046C171.75 224.415 171.751 224.783 171.698 225.151C173.433 223.889 174.643 221.575 174.643 218.945C174.643 214.895 172.013 211.687 168.753 211.687Z" fill="#D6805D"/>
<path d="M164.703 233.355L166.071 232.146V247.818L164.703 262.439L163.862 259.861C162.232 254.97 161.548 249.816 161.916 244.715L162.389 238.141C162.442 236.3 163.283 234.565 164.703 233.355Z" fill="#D6805D"/>
<path d="M179.271 227.78L180.901 237.615L189.895 255.707C193.261 262.702 193.629 270.748 190.946 278.006L189.947 280.635C189.632 281.424 189.211 282.161 188.738 282.844L146.874 337.856C139.196 347.901 127.31 353.843 114.635 353.843C103.696 353.843 95.8076 343.378 98.8053 332.859L99.3838 330.913C102.224 320.973 108.745 312.506 117.633 307.247L167.596 277.48L163.283 255.181L164.861 232.093L169.752 220.996C171.119 223.836 171.382 227.097 170.488 230.147L169.542 233.25L170.33 246.556V233.25L174.643 221.154L174.959 222.153C175.8 224.783 175.8 227.623 175.011 230.305L174.643 234.039L177.378 245.767L176.221 234.407L177.378 224.625C178.377 225.466 179.061 226.571 179.271 227.78Z" fill="#EDAC91"/>
<path d="M190 280.635L190.999 278.006C193.681 270.748 193.313 262.702 189.947 255.707L180.954 237.615L179.324 227.78C179.113 226.518 178.43 225.414 177.43 224.677L177.273 226.097C177.746 227.675 178.956 231.83 178.64 235.196C178.272 239.508 190.789 264.542 184.53 277.48C178.272 290.417 131.675 355.421 100.173 345.008C102.908 350.162 108.272 353.791 114.741 353.791C127.416 353.791 139.301 347.901 146.98 337.803L188.843 282.792C189.264 282.161 189.684 281.424 190 280.635Z" fill="#DD8C6A"/>
<path d="M173.486 224.467C173.749 226.676 173.906 230.252 172.697 233.671C173.065 237.194 174.537 242.874 177.325 245.504L174.643 234.039L175.011 230.305C175.8 227.675 175.8 224.835 174.958 222.153L174.643 221.154L173.486 224.467Z" fill="#D6805D"/>
<path d="M168.017 232.146C168.017 232.146 167.648 243.032 170.331 246.188L169.594 233.303L170.541 230.2C171.382 227.307 171.225 224.204 170.015 221.469C169.91 222.889 169.752 229.358 168.017 232.146Z" fill="#D6805D"/>
<path d="M227.971 248.975C221.923 248.975 216.19 253.077 215.191 258.179C215.191 258.231 215.191 258.231 215.191 258.284C215.033 259.073 216.085 259.546 216.611 258.915C219.03 256.022 223.027 254.077 227.235 254.077C231.179 254.077 234.282 255.812 235.702 258.442C236.07 259.073 237.017 258.968 237.175 258.231C238.121 253.077 234.019 248.975 227.971 248.975Z" fill="#D6805D"/>
<path d="M195.101 89.5687C193.944 83.8888 194.049 79.4184 195.469 76.1577C196.837 72.897 199.835 68.8474 204.305 64.009C206.672 61.6949 208.354 59.1705 209.406 56.278C210.458 53.438 210.616 50.3351 209.932 47.0218C209.196 43.6033 207.723 41.0789 205.462 39.3959C203.2 37.7656 200.36 37.2922 196.995 37.9759C194.26 38.5545 192.156 39.8693 190.684 41.9203C189.211 43.9714 188.79 46.6536 189.369 49.9669L169.279 54.2269L169.068 53.9113C167.175 45.444 168.49 38.5019 173.118 33.0849C177.746 27.6679 184.583 23.9865 193.629 22.0932C203.306 20.0421 211.457 20.8835 218.084 24.565C224.658 28.299 228.865 34.2945 230.601 42.604C231.705 47.7055 231.127 52.7017 229.023 57.6454C226.867 62.589 223.764 66.7438 219.557 70.1622C217.295 72.4237 215.928 74.6326 215.454 76.7888C214.981 78.9451 215.086 81.7325 215.77 85.0984L195.101 89.5687ZM221.082 110.605L200.571 114.971L197.1 98.4567L217.611 94.0916L221.082 110.605Z" fill="#0A4A6F"/>
<path d="M267.52 122.965L260.946 113.708L268.362 108.449L274.936 117.705L267.52 122.965ZM272.411 105.557C274.988 103.768 277.197 102.874 279.143 102.874C281.089 102.874 283.719 103.453 287.085 104.663C288.715 105.346 290.345 105.662 292.028 105.557C293.659 105.451 295.236 104.873 296.709 103.821C298.234 102.717 299.181 101.454 299.496 99.9818C299.812 98.5092 299.444 96.9841 298.392 95.4589C297.498 94.2493 296.393 93.4604 295.079 93.1974C293.764 92.8819 292.291 93.25 290.819 94.3019L284.402 85.2561L284.508 85.0983C288.294 82.3635 292.028 81.522 295.71 82.679C299.391 83.7835 302.652 86.4131 305.544 90.4627C308.647 94.8278 309.962 99.0352 309.541 103.085C309.121 107.134 307.017 110.5 303.283 113.182C300.969 114.813 298.392 115.602 295.499 115.602C292.607 115.602 289.872 114.918 287.242 113.603C285.665 112.972 284.245 112.762 283.088 112.972C281.878 113.182 280.563 113.814 279.038 114.918L272.411 105.557Z" fill="#0A4A6F"/>
<path d="M153.08 124.595C150.819 122.439 149.504 120.44 149.083 118.547C148.715 116.653 148.768 113.971 149.294 110.448C149.662 108.712 149.609 107.029 149.188 105.451C148.768 103.874 147.874 102.454 146.559 101.191C145.191 99.8766 143.719 99.2455 142.246 99.1929C140.721 99.1403 139.354 99.824 138.039 101.191C136.987 102.296 136.461 103.505 136.461 104.873C136.461 106.24 137.092 107.555 138.354 108.87L130.729 116.969L130.518 116.864C127.047 113.708 125.522 110.237 125.89 106.398C126.258 102.559 128.152 98.8248 131.57 95.1959C135.251 91.3041 139.091 89.1478 143.193 88.7797C147.242 88.4116 150.976 89.7789 154.29 92.9345C156.341 94.8804 157.656 97.247 158.234 100.087C158.813 102.927 158.707 105.767 157.919 108.554C157.603 110.237 157.708 111.657 158.129 112.762C158.55 113.866 159.496 115.076 160.811 116.338L153.08 124.595ZM171.067 125.962L163.283 134.219L156.656 127.961L164.44 119.704L171.067 125.962Z" fill="#0A4A6F"/>
<path d="M256.318 272.642C256.318 272.642 259.369 270.012 263.313 271.853C267.258 273.693 271.097 277.007 271.202 280.162C271.307 283.318 266.942 300.673 247.325 299.095C245.116 298.359 243.276 296.729 242.224 294.625L241.593 293.363C241.067 292.311 241.803 291.049 243.013 291.049C246.536 290.996 252.953 290.102 257.633 285.211C264.47 278.006 256.318 272.642 256.318 272.642Z" fill="white"/>
<path d="M260.315 271.221C257.949 271.274 256.318 272.641 256.318 272.641C256.318 272.641 264.47 278.058 257.633 285.158C252.9 290.102 246.536 290.943 243.013 290.996C241.856 290.996 241.067 292.258 241.593 293.31L242.224 294.572C242.434 294.993 242.697 295.414 242.96 295.782C260.105 295.466 264.049 279.741 263.892 276.796C263.839 274.85 262.314 272.852 260.315 271.221Z" fill="#CCE9FF"/>
<path d="M261.63 292.994C262.24 292.994 262.734 292.5 262.734 291.89C262.734 291.28 262.24 290.786 261.63 290.786C261.02 290.786 260.525 291.28 260.525 291.89C260.525 292.5 261.02 292.994 261.63 292.994Z" fill="#CCE9FF"/>
<path d="M251.953 298.043C252.563 298.043 253.057 297.549 253.057 296.939C253.057 296.329 252.563 295.834 251.953 295.834C251.343 295.834 250.849 296.329 250.849 296.939C250.849 297.549 251.343 298.043 251.953 298.043Z" fill="#CCE9FF"/>
<path d="M257.423 296.203C258.033 296.203 258.527 295.708 258.527 295.098C258.527 294.488 258.033 293.994 257.423 293.994C256.813 293.994 256.318 294.488 256.318 295.098C256.318 295.708 256.813 296.203 257.423 296.203Z" fill="#CCE9FF"/>
<path d="M383.433 353.37H64.936C88.1817 370.305 114.635 379.929 138.197 379.929H138.88C150.451 391.289 165.597 398.178 178.903 398.178H305.965C319.271 398.178 328.79 391.289 331.104 379.929H331.788C355.349 379.876 373.967 370.305 383.433 353.37Z" fill="#FFBE55"/>
<path d="M383.433 353.37H64.936C88.1817 370.305 114.635 379.929 138.197 379.929H138.88C150.451 391.289 165.597 398.178 178.903 398.178H305.965C319.271 398.178 328.79 391.289 331.104 379.929H331.788C355.349 379.876 373.967 370.305 383.433 353.37Z" fill="#F2F5FE"/>
</svg>
