<svg width="23" height="21" viewBox="0 0 23 21" fill="none" xmlns="http://www.w3.org/2000/svg">
<path d="M11.7392 5.43427H6.47864V10.1009H11.7392V5.43427ZM10.9877 9.43426H7.23015V6.10093H10.9877V9.43426Z" fill="white"/>
<path d="M19.6302 5.43427H13.6181C13.4103 5.43427 13.2423 5.58327 13.2423 5.7676C13.2423 5.95193 13.4103 6.10093 13.6181 6.10093H19.6302C19.838 6.10093 20.0059 5.95193 20.0059 5.7676C20.0059 5.58327 19.838 5.43427 19.6302 5.43427Z" fill="white"/>
<path d="M19.6302 7.43427H13.6181C13.4103 7.43427 13.2423 7.58327 13.2423 7.7676C13.2423 7.95193 13.4103 8.10093 13.6181 8.10093H19.6302C19.838 8.10093 20.0059 7.95193 20.0059 7.7676C20.0059 7.58327 19.838 7.43427 19.6302 7.43427Z" fill="white"/>
<path d="M19.6302 9.43427H13.6181C13.4103 9.43427 13.2423 9.58327 13.2423 9.7676C13.2423 9.95193 13.4103 10.1009 13.6181 10.1009H19.6302C19.838 10.1009 20.0059 9.95193 20.0059 9.7676C20.0059 9.58327 19.838 9.43427 19.6302 9.43427Z" fill="white"/>
<path d="M19.6302 11.4343H7.23019C7.02239 11.4343 6.85443 11.5833 6.85443 11.7676C6.85443 11.9519 7.02239 12.1009 7.23019 12.1009H19.6302C19.838 12.1009 20.0059 11.9519 20.0059 11.7676C20.0059 11.5833 19.838 11.4343 19.6302 11.4343Z" fill="white"/>
<path d="M12.8666 13.4343H7.23019C7.02239 13.4343 6.85443 13.5833 6.85443 13.7676C6.85443 13.9519 7.02239 14.1009 7.23019 14.1009H12.8666C13.0743 14.1009 13.2423 13.9519 13.2423 13.7676C13.2423 13.5833 13.0743 13.4343 12.8666 13.4343Z" fill="white"/>
<path d="M12.8666 15.4343H7.23019C7.02239 15.4343 6.85443 15.5833 6.85443 15.7676C6.85443 15.9519 7.02239 16.1009 7.23019 16.1009H12.8666C13.0743 16.1009 13.2423 15.9519 13.2423 15.7676C13.2423 15.5833 13.0743 15.4343 12.8666 15.4343Z" fill="white"/>
<path d="M12.8666 17.4343H7.23019C7.02239 17.4343 6.85443 17.5833 6.85443 17.7676C6.85443 17.9519 7.02239 18.1009 7.23019 18.1009H12.8666C13.0743 18.1009 13.2423 17.9519 13.2423 17.7676C13.2423 17.5833 13.0743 17.4343 12.8666 17.4343Z" fill="white"/>
<path d="M14.7454 18.1009H20.006V13.4343H14.7454V18.1009ZM15.4969 14.1009H19.2545V17.4343H15.4969V14.1009Z" fill="white"/>
<path d="M22.2605 4.43429C22.2605 4.42862 22.2571 4.42395 22.2567 4.41829V0.100952H4.22413V10.101H0.466553V18.101C0.466553 19.204 1.47772 20.101 2.7211 20.101H20.0059C21.2471 20.101 22.2567 19.205 22.2567 18.1043V4.45029C22.2571 4.44462 22.2605 4.43995 22.2605 4.43429ZM21.5052 0.767619V4.10095H4.97564V0.767619H21.5052ZM1.21807 18.101V10.7676H4.22413V18.101C4.22413 18.8363 3.55002 19.4343 2.7211 19.4343C1.89218 19.4343 1.21807 18.8363 1.21807 18.101ZM20.0059 19.4343H4.40036C4.40637 19.4283 4.4105 19.4213 4.41614 19.4153C4.4928 19.3376 4.56269 19.2546 4.62506 19.167C4.63521 19.153 4.6446 19.139 4.65437 19.1243C4.71524 19.0343 4.76898 18.9403 4.81332 18.8416C4.81933 18.828 4.82459 18.8143 4.83023 18.8006C4.87344 18.6986 4.90876 18.5933 4.93281 18.4843C4.93506 18.4743 4.93581 18.464 4.93807 18.4543C4.96137 18.3396 4.97564 18.2216 4.97564 18.101V10.101V4.76762H21.5052V18.1043C21.5052 18.8376 20.8326 19.4343 20.0059 19.4343Z" fill="white"/>
<path d="M17.7514 1.43427H8.73322V3.43427H17.7514V1.43427ZM16.9999 2.7676H9.48473V2.10093H16.9999V2.7676Z" fill="white"/>
</svg>
