<svg width="112" height="88" viewBox="0 0 112 88" fill="none" xmlns="http://www.w3.org/2000/svg">
<path fill-rule="evenodd" clip-rule="evenodd" d="M87.2729 23.8132H87.6712C90.8041 23.8137 93.9061 24.4323 96.7994 25.6337C99.6928 26.8351 102.321 28.5955 104.533 30.8142C109.006 35.2982 111.519 41.3735 111.519 47.7075C111.519 54.0415 109.006 60.1169 104.533 64.6009C102.321 66.8195 99.6928 68.58 96.7994 69.7814C93.9061 70.9827 90.8041 71.6014 87.6712 71.6019H71.7814V63.6371H87.6712C91.7727 63.4536 95.6454 61.6952 98.483 58.7279C101.32 55.7606 102.904 51.8132 102.904 47.7075C102.904 43.6019 101.32 39.6545 98.483 36.6872C95.6454 33.7199 91.7727 31.9614 87.6712 31.778H80.3914L79.4117 24.9521C78.814 20.6756 76.8368 16.7111 73.7806 13.6606C70.7244 10.6102 66.7562 8.64051 62.4785 8.05085C58.1984 7.46617 53.8447 8.30189 50.0853 10.4298C46.3258 12.5577 43.3684 15.8602 41.6666 19.8308L39.0143 25.8999L32.5708 24.3946C31.0979 24.0293 29.588 23.8342 28.0707 23.8132C22.798 23.8132 17.7403 25.9079 14.0208 29.6434C11.2488 32.4306 9.36267 35.9752 8.59957 39.8314C7.83648 43.6876 8.23045 47.6834 9.73197 51.3163C11.2335 54.9492 13.7755 58.0572 17.0385 60.2494C20.3015 62.4416 24.1397 63.6202 28.0707 63.6371H47.9348V71.6019H28.0707C24.1256 71.6374 20.2183 70.8317 16.609 69.2386C12.9998 67.6455 9.77145 65.3015 7.1392 62.3627C3.15925 57.9305 0.70279 52.3406 0.129501 46.4113C-0.443788 40.4821 0.896206 34.525 3.95328 29.4124C5.97806 26.0252 8.69951 23.1069 11.9373 20.8508C15.1751 18.5948 18.8554 17.0526 22.7343 16.3263C26.6051 15.6094 30.5955 15.713 34.4266 16.6528C36.8406 11.1254 40.9889 6.53435 46.2441 3.57408C51.4993 0.613819 57.5755 -0.554665 63.5538 0.245356C69.5346 1.05467 75.0876 3.7945 79.3688 8.04841C83.65 12.3023 86.4254 17.8377 87.2729 23.8132ZM74.0275 54.5015L63.5618 44.0437V87.3403H55.6448V44.3305L45.4658 54.5095L39.8347 48.8704L56.9271 31.778H62.5662L79.6586 48.8704L74.0275 54.5015Z" fill="#CFCFCF"/>
</svg>
