<svg width="135" height="73" viewBox="0 0 135 73" fill="none" xmlns="http://www.w3.org/2000/svg">
<path d="M62.5206 1H34.485V17.2764H62.5206L77.9365 24.4466V8.17022L62.5206 1Z" fill="#EFEFEF"/>
<path d="M54.4899 10.1779L34.485 1M34.485 1H62.5206L77.9365 8.17022V24.4466L62.5206 17.2764H34.485V1Z" stroke="black" stroke-width="0.5"/>
<rect x="1.32172" y="10.4279" width="53.4201" height="14.7009" fill="#EFEFEF" stroke="black" stroke-width="0.5"/>
<path d="M32.7641 35.6322L1 11.0383V26.1675L32.7641 50.4746V35.6322Z" fill="#EFEFEF" stroke="black" stroke-width="0.5"/>
<path d="M61.947 1.28674V18.1368" stroke="black" stroke-width="0.5"/>
<path d="M132 34.5342L77.9364 7.88342V24.2779L132 50.618V34.5342Z" fill="#EFEFEF" stroke="black" stroke-width="0.5"/>
<rect x="33.0139" y="35.667" width="98.7359" height="14.7009" fill="#EFEFEF" stroke="black" stroke-width="0.5"/>
<circle cx="119" cy="57" r="15.5" fill="#0033EA" stroke="black"/>
<path d="M119 47V58.4783L127 63" stroke="white" stroke-width="2"/>
</svg>
