<svg width="250" height="88" viewBox="0 0 250 88" fill="none" xmlns="http://www.w3.org/2000/svg">
<path d="M0 10C0 4.47715 4.47715 0 10 0H240C245.523 0 250 4.47715 250 10V78C250 83.5229 245.523 88 240 88H10C4.47716 88 0 83.5229 0 78V10Z" fill="black" fill-opacity="0.9"/>
<g clip-path="url(#clip0_4754_14414)">
<path d="M46.9614 43.1891L53.2233 36.9466L32.9976 25.6141C31.6572 24.8921 30.4014 24.7908 29.3002 25.5804L46.9614 43.1891ZM54.2906 50.4978L60.8002 46.8477C62.0708 46.1384 62.7675 45.1335 62.7675 44.0188C62.7675 42.9063 62.0708 41.8993 60.8023 41.1899L54.9089 37.8903L48.2744 44.5023L54.2906 50.4978ZM28.2118 27.1151C28.0762 27.531 28 27.9955 28 28.5043V59.5481C28 60.3525 28.1779 61.0449 28.4998 61.5959L45.6464 44.5002L28.2118 27.1151ZM46.9614 45.809L29.9101 62.8098C30.2362 62.9344 30.5878 62.9998 30.9584 62.9998C31.6191 62.9998 32.3073 62.8056 33.0082 62.4171L52.6071 51.4457L46.9614 45.809Z" fill="white"/>
</g>
<path d="M89.162 24.2H93.614C94.678 24.2 95.616 24.4053 96.428 24.816C97.2493 25.2173 97.884 25.7867 98.332 26.524C98.7893 27.2613 99.018 28.12 99.018 29.1C99.018 30.08 98.7893 30.9387 98.332 31.676C97.884 32.4133 97.2493 32.9873 96.428 33.398C95.616 33.7993 94.678 34 93.614 34H89.162V24.2ZM93.502 32.138C94.482 32.138 95.2613 31.8673 95.84 31.326C96.428 30.7753 96.722 30.0333 96.722 29.1C96.722 28.1667 96.428 27.4293 95.84 26.888C95.2613 26.3373 94.482 26.062 93.502 26.062H91.43V32.138H93.502ZM104.358 34.112C103.565 34.112 102.851 33.9487 102.216 33.622C101.591 33.286 101.101 32.824 100.746 32.236C100.392 31.648 100.214 30.9807 100.214 30.234C100.214 29.4873 100.392 28.82 100.746 28.232C101.101 27.644 101.591 27.1867 102.216 26.86C102.851 26.524 103.565 26.356 104.358 26.356C105.152 26.356 105.861 26.524 106.486 26.86C107.112 27.1867 107.602 27.644 107.956 28.232C108.311 28.82 108.488 29.4873 108.488 30.234C108.488 30.9807 108.311 31.648 107.956 32.236C107.602 32.824 107.112 33.286 106.486 33.622C105.861 33.9487 105.152 34.112 104.358 34.112ZM104.358 32.32C104.918 32.32 105.376 32.1333 105.73 31.76C106.094 31.3773 106.276 30.8687 106.276 30.234C106.276 29.5993 106.094 29.0953 105.73 28.722C105.376 28.3393 104.918 28.148 104.358 28.148C103.798 28.148 103.336 28.3393 102.972 28.722C102.608 29.0953 102.426 29.5993 102.426 30.234C102.426 30.8687 102.608 31.3773 102.972 31.76C103.336 32.1333 103.798 32.32 104.358 32.32ZM122.039 26.468L119.309 34H117.209L115.515 29.324L113.765 34H111.665L108.949 26.468H111.007L112.785 31.564L114.633 26.468H116.481L118.273 31.564L120.107 26.468H122.039ZM127.832 26.356C128.766 26.356 129.517 26.636 130.086 27.196C130.665 27.756 130.954 28.5867 130.954 29.688V34H128.77V30.024C128.77 29.4267 128.64 28.9833 128.378 28.694C128.117 28.3953 127.739 28.246 127.244 28.246C126.694 28.246 126.255 28.4187 125.928 28.764C125.602 29.1 125.438 29.604 125.438 30.276V34H123.254V26.468H125.34V27.35C125.63 27.0327 125.989 26.79 126.418 26.622C126.848 26.4447 127.319 26.356 127.832 26.356ZM133.134 23.612H135.318V34H133.134V23.612ZM141.129 34.112C140.336 34.112 139.622 33.9487 138.987 33.622C138.362 33.286 137.872 32.824 137.517 32.236C137.162 31.648 136.985 30.9807 136.985 30.234C136.985 29.4873 137.162 28.82 137.517 28.232C137.872 27.644 138.362 27.1867 138.987 26.86C139.622 26.524 140.336 26.356 141.129 26.356C141.922 26.356 142.632 26.524 143.257 26.86C143.882 27.1867 144.372 27.644 144.727 28.232C145.082 28.82 145.259 29.4873 145.259 30.234C145.259 30.9807 145.082 31.648 144.727 32.236C144.372 32.824 143.882 33.286 143.257 33.622C142.632 33.9487 141.922 34.112 141.129 34.112ZM141.129 32.32C141.689 32.32 142.146 32.1333 142.501 31.76C142.865 31.3773 143.047 30.8687 143.047 30.234C143.047 29.5993 142.865 29.0953 142.501 28.722C142.146 28.3393 141.689 28.148 141.129 28.148C140.569 28.148 140.107 28.3393 139.743 28.722C139.379 29.0953 139.197 29.5993 139.197 30.234C139.197 30.8687 139.379 31.3773 139.743 31.76C140.107 32.1333 140.569 32.32 141.129 32.32ZM149.834 26.356C151.001 26.356 151.897 26.636 152.522 27.196C153.147 27.7467 153.46 28.582 153.46 29.702V34H151.416V33.062C151.005 33.762 150.24 34.112 149.12 34.112C148.541 34.112 148.037 34.014 147.608 33.818C147.188 33.622 146.866 33.3513 146.642 33.006C146.418 32.6607 146.306 32.2687 146.306 31.83C146.306 31.13 146.567 30.5793 147.09 30.178C147.622 29.7767 148.439 29.576 149.54 29.576H151.276C151.276 29.1 151.131 28.736 150.842 28.484C150.553 28.2227 150.119 28.092 149.54 28.092C149.139 28.092 148.742 28.1573 148.35 28.288C147.967 28.4093 147.641 28.5773 147.37 28.792L146.586 27.266C146.997 26.9767 147.487 26.7527 148.056 26.594C148.635 26.4353 149.227 26.356 149.834 26.356ZM149.666 32.642C150.039 32.642 150.371 32.558 150.66 32.39C150.949 32.2127 151.155 31.956 151.276 31.62V30.85H149.778C148.882 30.85 148.434 31.144 148.434 31.732C148.434 32.012 148.541 32.236 148.756 32.404C148.98 32.5627 149.283 32.642 149.666 32.642ZM163.391 23.612V34H161.305V33.132C160.763 33.7853 159.979 34.112 158.953 34.112C158.243 34.112 157.599 33.9533 157.021 33.636C156.451 33.3187 156.003 32.866 155.677 32.278C155.35 31.69 155.187 31.0087 155.187 30.234C155.187 29.4593 155.35 28.778 155.677 28.19C156.003 27.602 156.451 27.1493 157.021 26.832C157.599 26.5147 158.243 26.356 158.953 26.356C159.914 26.356 160.665 26.6593 161.207 27.266V23.612H163.391ZM159.331 32.32C159.881 32.32 160.339 32.1333 160.703 31.76C161.067 31.3773 161.249 30.8687 161.249 30.234C161.249 29.5993 161.067 29.0953 160.703 28.722C160.339 28.3393 159.881 28.148 159.331 28.148C158.771 28.148 158.309 28.3393 157.945 28.722C157.581 29.0953 157.399 29.5993 157.399 30.234C157.399 30.8687 157.581 31.3773 157.945 31.76C158.309 32.1333 158.771 32.32 159.331 32.32ZM173.361 34.112C172.567 34.112 171.853 33.9487 171.219 33.622C170.593 33.286 170.103 32.824 169.749 32.236C169.394 31.648 169.217 30.9807 169.217 30.234C169.217 29.4873 169.394 28.82 169.749 28.232C170.103 27.644 170.593 27.1867 171.219 26.86C171.853 26.524 172.567 26.356 173.361 26.356C174.154 26.356 174.863 26.524 175.489 26.86C176.114 27.1867 176.604 27.644 176.959 28.232C177.313 28.82 177.491 29.4873 177.491 30.234C177.491 30.9807 177.313 31.648 176.959 32.236C176.604 32.824 176.114 33.286 175.489 33.622C174.863 33.9487 174.154 34.112 173.361 34.112ZM173.361 32.32C173.921 32.32 174.378 32.1333 174.733 31.76C175.097 31.3773 175.279 30.8687 175.279 30.234C175.279 29.5993 175.097 29.0953 174.733 28.722C174.378 28.3393 173.921 28.148 173.361 28.148C172.801 28.148 172.339 28.3393 171.975 28.722C171.611 29.0953 171.429 29.5993 171.429 30.234C171.429 30.8687 171.611 31.3773 171.975 31.76C172.339 32.1333 172.801 32.32 173.361 32.32ZM183.729 26.356C184.662 26.356 185.413 26.636 185.983 27.196C186.561 27.756 186.851 28.5867 186.851 29.688V34H184.667V30.024C184.667 29.4267 184.536 28.9833 184.275 28.694C184.013 28.3953 183.635 28.246 183.141 28.246C182.59 28.246 182.151 28.4187 181.825 28.764C181.498 29.1 181.335 29.604 181.335 30.276V34H179.151V26.468H181.237V27.35C181.526 27.0327 181.885 26.79 182.315 26.622C182.744 26.4447 183.215 26.356 183.729 26.356ZM198.053 33.636C197.838 33.7947 197.572 33.916 197.255 34C196.947 34.0747 196.62 34.112 196.275 34.112C195.379 34.112 194.684 33.8833 194.189 33.426C193.704 32.9687 193.461 32.2967 193.461 31.41V28.316H192.299V26.636H193.461V24.802H195.645V26.636H197.521V28.316H195.645V31.382C195.645 31.6993 195.724 31.9467 195.883 32.124C196.051 32.292 196.284 32.376 196.583 32.376C196.928 32.376 197.222 32.2827 197.465 32.096L198.053 33.636ZM204.057 26.356C204.99 26.356 205.742 26.636 206.311 27.196C206.89 27.756 207.179 28.5867 207.179 29.688V34H204.995V30.024C204.995 29.4267 204.864 28.9833 204.603 28.694C204.342 28.3953 203.964 28.246 203.469 28.246C202.918 28.246 202.48 28.4187 202.153 28.764C201.826 29.1 201.663 29.604 201.663 30.276V34H199.479V23.612H201.663V27.252C201.952 26.9627 202.302 26.7433 202.713 26.594C203.124 26.4353 203.572 26.356 204.057 26.356ZM216.819 30.262C216.819 30.29 216.805 30.486 216.777 30.85H211.079C211.181 31.3167 211.424 31.6853 211.807 31.956C212.189 32.2267 212.665 32.362 213.235 32.362C213.627 32.362 213.972 32.306 214.271 32.194C214.579 32.0727 214.863 31.886 215.125 31.634L216.287 32.894C215.577 33.706 214.541 34.112 213.179 34.112C212.329 34.112 211.578 33.9487 210.925 33.622C210.271 33.286 209.767 32.824 209.413 32.236C209.058 31.648 208.881 30.9807 208.881 30.234C208.881 29.4967 209.053 28.834 209.399 28.246C209.753 27.6487 210.234 27.1867 210.841 26.86C211.457 26.524 212.143 26.356 212.899 26.356C213.636 26.356 214.303 26.5147 214.901 26.832C215.498 27.1493 215.965 27.6067 216.301 28.204C216.646 28.792 216.819 29.478 216.819 30.262ZM212.913 28.008C212.418 28.008 212.003 28.148 211.667 28.428C211.331 28.708 211.125 29.0907 211.051 29.576H214.761C214.686 29.1 214.481 28.722 214.145 28.442C213.809 28.1527 213.398 28.008 212.913 28.008Z" fill="white"/>
<path d="M99.8 54.92H101.72V60.38C101.027 60.9533 100.22 61.3933 99.3 61.7C98.38 62.0067 97.42 62.16 96.42 62.16C95.0067 62.16 93.7333 61.8533 92.6 61.24C91.4667 60.6133 90.5733 59.76 89.92 58.68C89.28 57.5867 88.96 56.36 88.96 55C88.96 53.64 89.28 52.4133 89.92 51.32C90.5733 50.2267 91.4667 49.3733 92.6 48.76C93.7467 48.1467 95.0333 47.84 96.46 47.84C97.58 47.84 98.5933 48.0267 99.5 48.4C100.42 48.76 101.2 49.2933 101.84 50L100.6 51.24C99.48 50.16 98.1267 49.62 96.54 49.62C95.4733 49.62 94.5133 49.8533 93.66 50.32C92.82 50.7733 92.16 51.4133 91.68 52.24C91.2 53.0533 90.96 53.9733 90.96 55C90.96 56.0133 91.2 56.9333 91.68 57.76C92.16 58.5733 92.82 59.2133 93.66 59.68C94.5133 60.1467 95.4667 60.38 96.52 60.38C97.7733 60.38 98.8667 60.08 99.8 59.48V54.92ZM110.009 62.12C108.956 62.12 108.009 61.8867 107.169 61.42C106.329 60.9533 105.669 60.3133 105.189 59.5C104.723 58.6733 104.489 57.74 104.489 56.7C104.489 55.66 104.723 54.7333 105.189 53.92C105.669 53.0933 106.329 52.4533 107.169 52C108.009 51.5333 108.956 51.3 110.009 51.3C111.063 51.3 112.003 51.5333 112.829 52C113.669 52.4533 114.323 53.0933 114.789 53.92C115.269 54.7333 115.509 55.66 115.509 56.7C115.509 57.74 115.269 58.6733 114.789 59.5C114.323 60.3133 113.669 60.9533 112.829 61.42C112.003 61.8867 111.063 62.12 110.009 62.12ZM110.009 60.44C110.689 60.44 111.296 60.2867 111.829 59.98C112.376 59.66 112.803 59.22 113.109 58.66C113.416 58.0867 113.569 57.4333 113.569 56.7C113.569 55.9667 113.416 55.32 113.109 54.76C112.803 54.1867 112.376 53.7467 111.829 53.44C111.296 53.1333 110.689 52.98 110.009 52.98C109.329 52.98 108.716 53.1333 108.169 53.44C107.636 53.7467 107.209 54.1867 106.889 54.76C106.583 55.32 106.429 55.9667 106.429 56.7C106.429 57.4333 106.583 58.0867 106.889 58.66C107.209 59.22 107.636 59.66 108.169 59.98C108.716 60.2867 109.329 60.44 110.009 60.44ZM122.905 62.12C121.851 62.12 120.905 61.8867 120.065 61.42C119.225 60.9533 118.565 60.3133 118.085 59.5C117.618 58.6733 117.385 57.74 117.385 56.7C117.385 55.66 117.618 54.7333 118.085 53.92C118.565 53.0933 119.225 52.4533 120.065 52C120.905 51.5333 121.851 51.3 122.905 51.3C123.958 51.3 124.898 51.5333 125.725 52C126.565 52.4533 127.218 53.0933 127.685 53.92C128.165 54.7333 128.405 55.66 128.405 56.7C128.405 57.74 128.165 58.6733 127.685 59.5C127.218 60.3133 126.565 60.9533 125.725 61.42C124.898 61.8867 123.958 62.12 122.905 62.12ZM122.905 60.44C123.585 60.44 124.191 60.2867 124.725 59.98C125.271 59.66 125.698 59.22 126.005 58.66C126.311 58.0867 126.465 57.4333 126.465 56.7C126.465 55.9667 126.311 55.32 126.005 54.76C125.698 54.1867 125.271 53.7467 124.725 53.44C124.191 53.1333 123.585 52.98 122.905 52.98C122.225 52.98 121.611 53.1333 121.065 53.44C120.531 53.7467 120.105 54.1867 119.785 54.76C119.478 55.32 119.325 55.9667 119.325 56.7C119.325 57.4333 119.478 58.0867 119.785 58.66C120.105 59.22 120.531 59.66 121.065 59.98C121.611 60.2867 122.225 60.44 122.905 60.44ZM141.4 51.4V60.56C141.4 62.4133 140.94 63.78 140.02 64.66C139.1 65.5533 137.727 66 135.9 66C134.9 66 133.947 65.86 133.04 65.58C132.133 65.3133 131.4 64.9267 130.84 64.42L131.76 62.94C132.253 63.3667 132.86 63.7 133.58 63.94C134.313 64.1933 135.067 64.32 135.84 64.32C137.08 64.32 137.993 64.0267 138.58 63.44C139.18 62.8533 139.48 61.96 139.48 60.76V59.92C139.027 60.4667 138.467 60.88 137.8 61.16C137.147 61.4267 136.433 61.56 135.66 61.56C134.647 61.56 133.727 61.3467 132.9 60.92C132.087 60.48 131.447 59.8733 130.98 59.1C130.513 58.3133 130.28 57.42 130.28 56.42C130.28 55.42 130.513 54.5333 130.98 53.76C131.447 52.9733 132.087 52.3667 132.9 51.94C133.727 51.5133 134.647 51.3 135.66 51.3C136.46 51.3 137.2 51.4467 137.88 51.74C138.573 52.0333 139.14 52.4667 139.58 53.04V51.4H141.4ZM135.88 59.88C136.573 59.88 137.193 59.7333 137.74 59.44C138.3 59.1467 138.733 58.74 139.04 58.22C139.36 57.6867 139.52 57.0867 139.52 56.42C139.52 55.3933 139.18 54.5667 138.5 53.94C137.82 53.3 136.947 52.98 135.88 52.98C134.8 52.98 133.92 53.3 133.24 53.94C132.56 54.5667 132.22 55.3933 132.22 56.42C132.22 57.0867 132.373 57.6867 132.68 58.22C133 58.74 133.433 59.1467 133.98 59.44C134.54 59.7333 135.173 59.88 135.88 59.88ZM145.268 47.16H147.188V62H145.268V47.16ZM160.634 56.76C160.634 56.9067 160.621 57.1 160.594 57.34H151.994C152.114 58.2733 152.521 59.0267 153.214 59.6C153.921 60.16 154.794 60.44 155.834 60.44C157.101 60.44 158.121 60.0133 158.894 59.16L159.954 60.4C159.474 60.96 158.874 61.3867 158.154 61.68C157.448 61.9733 156.654 62.12 155.774 62.12C154.654 62.12 153.661 61.8933 152.794 61.44C151.928 60.9733 151.254 60.3267 150.774 59.5C150.308 58.6733 150.074 57.74 150.074 56.7C150.074 55.6733 150.301 54.7467 150.754 53.92C151.221 53.0933 151.854 52.4533 152.654 52C153.468 51.5333 154.381 51.3 155.394 51.3C156.408 51.3 157.308 51.5333 158.094 52C158.894 52.4533 159.514 53.0933 159.954 53.92C160.408 54.7467 160.634 55.6933 160.634 56.76ZM155.394 52.92C154.474 52.92 153.701 53.2 153.074 53.76C152.461 54.32 152.101 55.0533 151.994 55.96H158.794C158.688 55.0667 158.321 54.34 157.694 53.78C157.081 53.2067 156.314 52.92 155.394 52.92ZM174.812 48C176.625 48 178.052 48.4333 179.092 49.3C180.132 50.1667 180.652 51.36 180.652 52.88C180.652 54.4 180.132 55.5933 179.092 56.46C178.052 57.3267 176.625 57.76 174.812 57.76H171.352V62H169.352V48H174.812ZM174.752 56.02C176.018 56.02 176.985 55.7533 177.652 55.22C178.318 54.6733 178.652 53.8933 178.652 52.88C178.652 51.8667 178.318 51.0933 177.652 50.56C176.985 50.0133 176.018 49.74 174.752 49.74H171.352V56.02H174.752ZM183.705 47.16H185.625V62H183.705V47.16ZM193.351 51.3C194.818 51.3 195.938 51.66 196.711 52.38C197.498 53.1 197.891 54.1733 197.891 55.6V62H196.071V60.6C195.751 61.0933 195.291 61.4733 194.691 61.74C194.104 61.9933 193.404 62.12 192.591 62.12C191.404 62.12 190.451 61.8333 189.731 61.26C189.024 60.6867 188.671 59.9333 188.671 59C188.671 58.0667 189.011 57.32 189.691 56.76C190.371 56.1867 191.451 55.9 192.931 55.9H195.971V55.52C195.971 54.6933 195.731 54.06 195.251 53.62C194.771 53.18 194.064 52.96 193.131 52.96C192.504 52.96 191.891 53.0667 191.291 53.28C190.691 53.48 190.184 53.7533 189.771 54.1L188.971 52.66C189.518 52.22 190.171 51.8867 190.931 51.66C191.691 51.42 192.498 51.3 193.351 51.3ZM192.911 60.64C193.644 60.64 194.278 60.48 194.811 60.16C195.344 59.8267 195.731 59.36 195.971 58.76V57.28H193.011C191.384 57.28 190.571 57.8267 190.571 58.92C190.571 59.4533 190.778 59.8733 191.191 60.18C191.604 60.4867 192.178 60.64 192.911 60.64ZM210.829 51.4L205.689 63.06C205.236 64.14 204.702 64.9 204.089 65.34C203.489 65.78 202.762 66 201.909 66C201.389 66 200.882 65.9133 200.389 65.74C199.909 65.58 199.509 65.34 199.189 65.02L200.009 63.58C200.556 64.1 201.189 64.36 201.909 64.36C202.376 64.36 202.762 64.2333 203.069 63.98C203.389 63.74 203.676 63.32 203.929 62.72L204.269 61.98L199.589 51.4H201.589L205.289 59.88L208.949 51.4H210.829Z" fill="white"/>
<defs>
<clipPath id="clip0_4754_14414">
<rect width="35" height="38.0001" fill="white" transform="translate(28 25)"/>
</clipPath>
</defs>
</svg>
