<svg width="582" height="66" viewBox="0 0 582 66" fill="none" xmlns="http://www.w3.org/2000/svg">
<path d="M23.5919 9.27815V1.11864H26.5245V20.8594H23.5919V12.7657H0.000976562V9.27815H23.5919Z" fill="white"/>
<path d="M26.5235 27.4397H15.4449V40.6002H26.5235V44.0877H0V40.6002H12.4471V27.4397H0V23.8864H26.5235V27.4397Z" fill="white"/>
<path d="M12.4471 63.6969V53.3001H2.86741V64.8814H0V49.8126H26.5235V64.2891H23.6561V53.3001H15.2494V63.6969H12.4471Z" fill="white"/>
<path d="M35.7098 63.7038V0.511351C35.6951 0.447389 35.6968 0.380706 35.7147 0.317584C35.7326 0.254461 35.7661 0.196978 35.8121 0.150551C35.858 0.104124 35.915 0.0702814 35.9775 0.0522123C36.04 0.0341432 36.106 0.0324423 36.1694 0.0472701H58.6902C62.9508 0.00349957 67.1031 1.4014 70.4852 4.01806C73.8673 6.63473 76.2843 10.3195 77.3508 14.4847C78.4174 18.65 78.072 23.0559 76.3698 26.9998C74.6676 30.9438 71.7066 34.1988 67.959 36.2456C67.6525 36.3587 67.3768 36.5434 67.1545 36.7846C66.9322 37.0258 66.7696 37.3167 66.68 37.6335C66.5903 37.9503 66.5762 38.2841 66.6387 38.6075C66.7013 38.9308 66.8387 39.2347 67.0398 39.4942L83.8921 63.9358C84.3517 64.5546 83.8921 64.9413 83.2793 64.9413H72.5551C72.1799 64.9384 71.8108 64.8457 71.4779 64.671C71.145 64.4962 70.8579 64.2442 70.6401 63.9358L55.3198 41.1958C54.8604 40.5369 54.253 39.9972 53.5474 39.6207C52.8417 39.2443 52.0579 39.0419 51.2599 39.0301H49.4214C49.0798 39.0186 48.7397 39.0794 48.4227 39.2086C48.1057 39.3377 47.819 39.5324 47.581 39.78C47.3429 40.0276 47.1588 40.3228 47.0404 40.6466C46.9221 40.9703 46.872 41.3155 46.8936 41.6599V63.7038C46.9049 63.8692 46.881 64.0352 46.8234 64.1906C46.7658 64.3459 46.6759 64.487 46.5598 64.6043C46.4436 64.7216 46.3039 64.8123 46.1501 64.8705C45.9962 64.9286 45.8318 64.9528 45.668 64.9413H36.8588C36.6978 64.9547 36.5359 64.9312 36.3852 64.8726C36.2344 64.814 36.0988 64.7217 35.9883 64.6027C35.8778 64.4838 35.7954 64.3411 35.7472 64.1854C35.6989 64.0298 35.6861 63.8651 35.7098 63.7038ZM46.7404 25.8811C46.7195 26.2291 46.7694 26.5777 46.887 26.9055C47.0046 27.2332 47.1875 27.5332 47.4244 27.7868C47.6612 28.0405 47.947 28.2425 48.2641 28.3803C48.5813 28.5181 48.923 28.5889 49.2682 28.5883H56.0092C57.2845 28.757 58.5807 28.649 59.8113 28.2714C61.042 27.8938 62.1786 27.2554 63.1454 26.3988C64.1121 25.5422 64.8867 24.4872 65.4173 23.3042C65.948 22.1211 66.2224 20.8374 66.2224 19.5387C66.2224 18.24 65.948 16.9562 65.4173 15.7732C64.8867 14.5902 64.1121 13.5352 63.1454 12.6786C62.1786 11.822 61.042 11.1836 59.8113 10.806C58.5807 10.4284 57.2845 10.3204 56.0092 10.4891H49.2682C48.9197 10.4765 48.5725 10.5392 48.2498 10.6729C47.9271 10.8067 47.6365 11.0084 47.3972 11.2647C47.1579 11.5209 46.9756 11.8258 46.8623 12.1589C46.749 12.492 46.7075 12.8456 46.7404 13.1962V25.8811Z" fill="white"/>
<path d="M94.5438 1.20728C94.5323 1.05196 94.5542 0.895981 94.6079 0.749977C94.6616 0.603973 94.7458 0.471383 94.8549 0.361254C94.964 0.251125 95.0953 0.166048 95.2399 0.111828C95.3845 0.0576085 95.539 0.0355225 95.6928 0.0470764H134.913C135.073 0.0232244 135.236 0.0361287 135.39 0.0848259C135.544 0.133523 135.685 0.216755 135.803 0.328307C135.921 0.439859 136.012 0.57685 136.07 0.729051C136.128 0.881252 136.152 1.04473 136.138 1.20728V8.94197C136.15 9.10744 136.126 9.27344 136.068 9.42878C136.011 9.58412 135.921 9.72519 135.805 9.84248C135.688 9.95976 135.549 10.0505 135.395 10.1087C135.241 10.1668 135.077 10.191 134.913 10.1795H108.102C107.764 10.1567 107.426 10.2071 107.109 10.3273C106.792 10.4475 106.504 10.6347 106.265 10.8765C106.025 11.1182 105.84 11.4088 105.721 11.7288C105.602 12.0489 105.552 12.3909 105.574 12.732V24.7207C105.552 25.0618 105.602 25.4039 105.721 25.7239C105.84 26.0439 106.025 26.3345 106.265 26.5762C106.504 26.818 106.792 27.0052 107.109 27.1254C107.426 27.2456 107.764 27.296 108.102 27.2732H128.325C128.51 27.2053 128.71 27.1866 128.904 27.2189C129.098 27.2512 129.281 27.3334 129.435 27.4577C129.589 27.582 129.709 27.7441 129.782 27.9285C129.856 28.1129 129.882 28.3134 129.857 28.5107V36.2454C130.06 36.4506 130.174 36.7288 130.174 37.0189C130.174 37.309 130.06 37.5872 129.857 37.7924C129.654 37.9975 129.378 38.1128 129.091 38.1128C128.804 38.1128 128.528 37.9975 128.325 37.7924H108.102C107.761 37.7809 107.42 37.8417 107.103 37.9708C106.787 38.1 106.5 38.2946 106.262 38.5423C106.024 38.7899 105.84 39.0851 105.721 39.4088C105.603 39.7326 105.553 40.0777 105.574 40.4222V51.9469C105.54 52.2941 105.581 52.6447 105.695 52.9743C105.809 53.3038 105.993 53.6042 106.233 53.8547C106.474 54.1051 106.766 54.2994 107.089 54.4241C107.412 54.5488 107.757 54.6009 108.102 54.5766H134.913C135.073 54.5528 135.236 54.5657 135.39 54.6144C135.544 54.6631 135.685 54.7463 135.803 54.8579C135.921 54.9694 136.012 55.1064 136.07 55.2586C136.128 55.4108 136.152 55.5743 136.138 55.7369V63.4715C136.15 63.637 136.126 63.803 136.068 63.9584C136.011 64.1137 135.921 64.2548 135.805 64.3721C135.688 64.4893 135.549 64.5801 135.395 64.6382C135.241 64.6964 135.077 64.7205 134.913 64.7091H95.6928C95.5318 64.7225 95.3699 64.699 95.2192 64.6404C95.0684 64.5818 94.9328 64.4895 94.8223 64.3705C94.7118 64.2515 94.6294 64.1089 94.5811 63.9532C94.5329 63.7975 94.5201 63.6329 94.5438 63.4715V1.20728Z" fill="white"/>
<path d="M148.315 1.20752C148.304 1.0522 148.326 0.896217 148.379 0.750214C148.433 0.60421 148.517 0.47162 148.626 0.36149C148.735 0.251361 148.867 0.166284 149.011 0.112065C149.156 0.0578451 149.31 0.0357591 149.464 0.047313H150.843C151.556 0.0453109 152.243 0.322546 152.758 0.820782L187.995 38.9528C188.454 39.4169 188.684 39.6489 189.067 39.6489C189.45 39.6489 189.757 39.1849 189.757 38.2567V1.20752C189.736 1.02886 189.76 0.84786 189.826 0.680861C189.892 0.513861 189.999 0.366122 190.135 0.250983C190.272 0.135845 190.435 0.0569333 190.61 0.0213749C190.785 -0.0141836 190.965 -0.00526907 191.136 0.047313H199.562C199.721 0.023461 199.885 0.0363653 200.039 0.0850625C200.193 0.13376 200.334 0.216992 200.452 0.328544C200.57 0.440096 200.661 0.577087 200.719 0.729288C200.777 0.881488 200.801 1.04497 200.787 1.20752V63.7038C200.799 63.8693 200.775 64.0353 200.717 64.1906C200.66 64.346 200.57 64.487 200.454 64.6043C200.337 64.7216 200.198 64.8124 200.044 64.8705C199.89 64.9287 199.726 64.9528 199.562 64.9414H198.259C197.883 64.928 197.513 64.8391 197.171 64.6797C196.829 64.5204 196.522 64.2938 196.268 64.0132L161.031 25.8038C160.923 25.6141 160.766 25.4568 160.578 25.3481C160.389 25.2394 160.176 25.1831 159.959 25.1851C159.576 25.1851 159.346 25.6491 159.346 26.5773V63.7038C159.357 63.8693 159.333 64.0353 159.276 64.1906C159.218 64.346 159.128 64.487 159.012 64.6043C158.896 64.7216 158.756 64.8124 158.602 64.8705C158.449 64.9287 158.284 64.9528 158.12 64.9414H149.464C149.303 64.9548 149.141 64.9313 148.991 64.8727C148.84 64.814 148.704 64.7218 148.594 64.6028C148.483 64.4838 148.401 64.3412 148.353 64.1855C148.304 64.0298 148.292 63.8652 148.315 63.7038V1.20752Z" fill="white"/>
<path d="M211.053 9.17418V1.43949C211.04 1.27694 211.063 1.11346 211.121 0.961261C211.18 0.809061 211.271 0.67207 211.389 0.560517C211.507 0.448965 211.648 0.365733 211.802 0.317036C211.956 0.268339 212.119 0.255435 212.279 0.279287H262.836C262.99 0.267733 263.144 0.28982 263.289 0.344039C263.434 0.398259 263.565 0.483336 263.674 0.593465C263.783 0.703594 263.867 0.836184 263.921 0.982188C263.975 1.12819 263.996 1.28417 263.985 1.43949V9.17418C264.009 9.33553 263.996 9.50018 263.948 9.65585C263.899 9.81151 263.817 9.95416 263.707 10.0731C263.596 10.1921 263.46 10.2844 263.31 10.343C263.159 10.4016 262.997 10.4251 262.836 10.4117H212.279C212.115 10.4232 211.951 10.399 211.797 10.3409C211.643 10.2827 211.503 10.192 211.387 10.0747C211.271 9.9574 211.181 9.81633 211.124 9.66099C211.066 9.50565 211.042 9.33965 211.053 9.17418ZM231.966 20.6215C231.955 20.4628 231.977 20.3036 232.03 20.1537C232.083 20.0039 232.166 19.8667 232.274 19.7507C232.382 19.6346 232.512 19.5422 232.657 19.4791C232.801 19.416 232.957 19.3836 233.115 19.384H241.771C241.935 19.3725 242.099 19.3967 242.253 19.4548C242.407 19.513 242.546 19.6037 242.662 19.721C242.779 19.8383 242.869 19.9794 242.926 20.1347C242.984 20.2901 243.008 20.4561 242.996 20.6215V63.7038C243.008 63.8692 242.984 64.0352 242.926 64.1906C242.869 64.3459 242.779 64.487 242.662 64.6043C242.546 64.7215 242.407 64.8123 242.253 64.8705C242.099 64.9286 241.935 64.9528 241.771 64.9413H233.115C232.957 64.9417 232.801 64.9093 232.657 64.8462C232.512 64.7831 232.382 64.6907 232.274 64.5746C232.166 64.4585 232.083 64.3213 232.03 64.1715C231.977 64.0217 231.955 63.8625 231.966 63.7038V20.6215Z" fill="white"/>
<path d="M285.168 33.6699C285.144 33.5086 285.157 33.3439 285.205 33.1883C285.253 33.0326 285.336 32.8899 285.446 32.771C285.557 32.652 285.692 32.5597 285.843 32.5011C285.994 32.4425 286.156 32.419 286.317 32.4324H306.386C309.149 32.4324 311.799 31.3241 313.753 29.3514C315.707 27.3786 316.804 24.7031 316.804 21.9132C316.804 19.1233 315.707 16.4477 313.753 14.475C311.799 12.5023 309.149 11.394 306.386 11.394H286.317C286.156 11.4074 285.994 11.3839 285.843 11.3253C285.692 11.2667 285.557 11.1744 285.446 11.0554C285.336 10.9364 285.253 10.7938 285.205 10.6381C285.157 10.4825 285.144 10.3178 285.168 10.1565V2.42177C285.156 2.26646 285.178 2.11047 285.232 1.96447C285.286 1.81847 285.37 1.68588 285.479 1.57575C285.588 1.46562 285.719 1.38054 285.864 1.32632C286.009 1.2721 286.163 1.25002 286.317 1.26157H306.386C309.168 1.11408 311.949 1.54168 314.561 2.51816C317.173 3.49464 319.559 4.99943 321.575 6.94027C323.59 8.88111 325.192 11.2171 326.281 13.8051C327.371 16.3931 327.926 19.1785 327.911 21.9905C328.039 27.2907 326.12 32.4332 322.561 36.3305C319.001 40.2279 314.08 42.5745 308.838 42.8742H298.726C298.388 42.8514 298.05 42.9018 297.733 43.022C297.416 43.1422 297.128 43.3294 296.889 43.5711C296.649 43.8129 296.464 44.1035 296.345 44.4235C296.226 44.7435 296.176 45.0856 296.198 45.4267V64.6087C296.21 64.7742 296.186 64.9402 296.128 65.0955C296.071 65.2508 295.981 65.3919 295.865 65.5092C295.748 65.6265 295.609 65.7172 295.455 65.7754C295.301 65.8335 295.137 65.8577 294.973 65.8462H286.317C286.156 65.8596 285.994 65.8361 285.843 65.7775C285.692 65.7189 285.557 65.6266 285.446 65.5077C285.336 65.3887 285.253 65.246 285.205 65.0904C285.157 64.9347 285.144 64.77 285.168 64.6087V33.6699Z" fill="#04BDFF"/>
<path d="M327.908 64.7633L356.94 0.797404C357.095 0.515221 357.333 0.288957 357.622 0.15027C357.91 0.011583 358.234 -0.0325887 358.549 0.0239348C358.815 0.0201717 359.077 0.0903045 359.307 0.226691C359.537 0.363078 359.725 0.560486 359.851 0.797404L388.883 64.7633C388.883 65.3821 388.883 65.8462 388.117 65.8462H378.925C378.559 65.8542 378.199 65.7566 377.887 65.5647C377.575 65.3728 377.324 65.0947 377.163 64.7633L374.559 59.0396C374.218 58.3472 373.694 57.7637 373.045 57.354C372.396 56.9443 371.647 56.7246 370.882 56.7192H352.344C351.578 56.7192 351.348 56.3325 351.578 55.6364L355.408 47.9017C355.462 47.5047 355.653 47.1396 355.947 46.8708C356.241 46.6019 356.62 46.4466 357.017 46.4321H366.209C367.741 46.4321 368.354 45.5039 367.664 44.0343L359.391 25.7805C359.391 25.007 358.702 24.6976 358.319 24.6976C357.936 24.6976 357.553 24.6976 357.17 25.7805L339.398 64.4539C339.237 64.7683 338.996 65.0339 338.7 65.2241C338.404 65.4142 338.064 65.5221 337.713 65.5368H328.674C327.908 65.8462 327.908 65.3821 327.908 64.7633Z" fill="#04BDFF"/>
<path d="M386.353 0.952187H395.852C396.195 0.959107 396.53 1.05531 396.825 1.23146C397.121 1.40762 397.366 1.65778 397.537 1.9577L416.841 37.3826C417.189 38.0782 417.373 38.8461 417.377 39.6256V64.6087C417.401 64.77 417.388 64.9347 417.34 65.0904C417.291 65.246 417.209 65.3887 417.098 65.5077C416.988 65.6266 416.852 65.7189 416.702 65.7775C416.551 65.8362 416.389 65.8596 416.228 65.8462H407.572C407.411 65.8596 407.249 65.8362 407.098 65.7775C406.948 65.7189 406.812 65.6266 406.702 65.5077C406.591 65.3887 406.509 65.246 406.46 65.0904C406.412 64.9347 406.399 64.77 406.423 64.6087V42.6422C406.399 40.9433 405.979 39.274 405.197 37.7693L385.741 1.9577C385.434 1.41627 385.664 0.952187 386.353 0.952187ZM415.385 21.9132L426.263 1.9577C426.44 1.66261 426.686 1.41635 426.98 1.24089C427.274 1.06543 427.607 0.966243 427.948 0.952187H437.447C438.136 0.952187 438.442 0.952187 438.059 1.9577L421.207 32.123C421.207 32.7418 420.364 32.7418 419.981 32.123L415.385 23.9242C415.236 23.6105 415.158 23.2668 415.158 22.9187C415.158 22.5706 415.236 22.2269 415.385 21.9132Z" fill="#04BDFF"/>
<path d="M447.482 10.0792V2.3445C447.469 2.18195 447.492 2.01847 447.55 1.86627C447.608 1.71407 447.7 1.57708 447.817 1.46552C447.935 1.35397 448.077 1.27074 448.231 1.22204C448.385 1.17335 448.548 1.16044 448.708 1.18429H487.928C488.082 1.17274 488.236 1.19483 488.381 1.24905C488.525 1.30327 488.657 1.38834 488.766 1.49847C488.875 1.6086 488.959 1.74119 489.013 1.88719C489.066 2.0332 489.088 2.18918 489.077 2.3445V10.0792C489.1 10.2405 489.088 10.4052 489.039 10.5609C488.991 10.7165 488.909 10.8592 488.798 10.9782C488.688 11.0971 488.552 11.1894 488.401 11.248C488.251 11.3067 488.089 11.3301 487.928 11.3167H448.708C448.544 11.3282 448.379 11.304 448.226 11.2459C448.072 11.1878 447.932 11.097 447.816 10.9797C447.7 10.8624 447.61 10.7213 447.552 10.566C447.495 10.4107 447.471 10.2447 447.482 10.0792ZM447.482 29.4159C447.471 29.2505 447.495 29.0844 447.552 28.9291C447.61 28.7738 447.7 28.6327 447.816 28.5154C447.932 28.3981 448.072 28.3074 448.226 28.2492C448.379 28.1911 448.544 28.1669 448.708 28.1784H487.928C488.199 28.2346 488.439 28.3949 488.596 28.6257C488.753 28.8564 488.816 29.1397 488.77 29.4159V37.1506C488.782 37.3059 488.76 37.4619 488.706 37.6079C488.653 37.7539 488.568 37.8865 488.459 37.9966C488.35 38.1068 488.219 38.1918 488.074 38.2461C487.93 38.3003 487.775 38.3224 487.621 38.3108H448.708C448.548 38.3347 448.385 38.3218 448.231 38.2731C448.077 38.2244 447.935 38.1411 447.817 38.0296C447.7 37.918 447.608 37.781 447.55 37.6288C447.492 37.4766 447.469 37.3132 447.482 37.1506V29.4159ZM448.708 55.4818H487.928C488.082 55.4703 488.236 55.4924 488.381 55.5466C488.525 55.6008 488.657 55.6859 488.766 55.796C488.875 55.9061 488.959 56.0387 489.013 56.1847C489.066 56.3307 489.088 56.4867 489.077 56.642V64.3767C489.1 64.5381 489.088 64.7027 489.039 64.8584C488.991 65.0141 488.909 65.1567 488.798 65.2757C488.688 65.3947 488.552 65.4869 488.401 65.5456C488.251 65.6042 488.089 65.6277 487.928 65.6143H448.708C448.544 65.6257 448.379 65.6016 448.226 65.5434C448.072 65.4853 447.932 65.3945 447.816 65.2772C447.7 65.1599 447.61 65.0189 447.552 64.8635C447.495 64.7082 447.471 64.5422 447.482 64.3767V56.642C447.469 56.4795 447.492 56.316 447.55 56.1638C447.608 56.0116 447.7 55.8746 447.817 55.7631C447.935 55.6515 448.077 55.5683 448.231 55.5196C448.385 55.4709 448.548 55.458 448.708 55.4818Z" fill="#04BDFF"/>
<path d="M501.641 64.6088V1.41636C501.627 1.3524 501.628 1.28571 501.646 1.22259C501.664 1.15947 501.698 1.10198 501.744 1.05556C501.79 1.00913 501.847 0.975288 501.909 0.957219C501.972 0.93915 502.038 0.937449 502.101 0.952277H524.622C528.902 0.929895 533.066 2.36199 536.443 5.01819C539.819 7.67438 542.213 11.4003 543.239 15.5965C544.264 19.7927 543.862 24.2153 542.097 28.1529C540.332 32.0905 537.307 35.3142 533.508 37.3053C533.203 37.4081 532.927 37.5839 532.704 37.8177C532.48 38.0516 532.317 38.3365 532.226 38.6481C532.136 38.9598 532.122 39.2888 532.185 39.6073C532.248 39.9257 532.386 40.2239 532.588 40.4765L549.517 64.7635C549.977 65.3822 549.517 65.769 548.905 65.769H538.18C537.807 65.7545 537.442 65.6568 537.111 65.483C536.78 65.3091 536.491 65.0634 536.265 64.7635L519.796 40.7859C519.515 40.1275 519.384 39.4138 519.413 38.6976V30.9629C519.402 30.8076 519.423 30.6516 519.477 30.5056C519.531 30.3596 519.615 30.227 519.724 30.1168C519.833 30.0067 519.964 29.9216 520.109 29.8674C520.254 29.8132 520.408 29.7911 520.562 29.8027H522.247C523.523 29.9714 524.819 29.8634 526.049 29.4858C527.28 29.1082 528.417 28.4698 529.383 27.6132C530.35 26.7566 531.125 25.7016 531.655 24.5185C532.186 23.3355 532.461 22.0518 532.461 20.7531C532.461 19.4544 532.186 18.1706 531.655 16.9876C531.125 15.8046 530.35 14.7495 529.383 13.893C528.417 13.0364 527.28 12.398 526.049 12.0204C524.819 11.6428 523.523 11.5348 522.247 11.7035H515.506C515.158 11.6909 514.811 11.7536 514.488 11.8873C514.165 12.0211 513.875 12.2228 513.635 12.4791C513.396 12.7353 513.214 13.0402 513.1 13.3733C512.987 13.7064 512.946 14.06 512.978 14.4106V64.6088C512.99 64.7742 512.966 64.9402 512.908 65.0956C512.851 65.2509 512.761 65.392 512.645 65.5093C512.528 65.6266 512.389 65.7173 512.235 65.7755C512.081 65.8336 511.917 65.8578 511.753 65.8463H502.79C502.629 65.8597 502.468 65.8362 502.317 65.7776C502.166 65.719 502.03 65.6267 501.92 65.5077C501.809 65.3888 501.727 65.2461 501.679 65.0904C501.631 64.9348 501.618 64.7701 501.641 64.6088Z" fill="#04BDFF"/>
<path d="M581.597 51.4576C581.597 59.4892 575.087 66 567.055 66C559.024 66 552.513 59.4892 552.513 51.4576C552.513 43.4261 559.024 36.9153 567.055 36.9153C575.087 36.9153 581.597 43.4261 581.597 51.4576Z" fill="white"/>
</svg>
