<svg width="48" height="48" viewBox="0 0 48 48" fill="none" xmlns="http://www.w3.org/2000/svg">
<circle cx="24" cy="24" r="24" fill="#0033EA"/>
<path d="M15.4404 12V36H33.5586V12H15.4404ZM32.6699 35.2646H30.4529C31.3636 34.8158 32.1276 34.1835 32.6699 33.4298V35.2646ZM27.6642 35.2498V31.1219H32.6519C32.4371 33.3165 30.316 35.072 27.6642 35.2498ZM32.67 14.6266H32.6699H32.2074V15.362H32.6699V30.3865H26.7756V35.2646H16.329V15.362H16.7915V14.6266H16.329V12.7354H32.6699V14.6266H32.67Z" fill="white"/>
<path d="M18.6051 14.6267H17.6982V15.3621H18.6051V14.6267Z" fill="white"/>
<path d="M20.4185 14.6267H19.5117V15.3621H20.4185V14.6267Z" fill="white"/>
<path d="M22.233 14.6267H21.3262V15.3621H22.233V14.6267Z" fill="white"/>
<path d="M24.0455 14.6267H23.1387V15.3621H24.0455V14.6267Z" fill="white"/>
<path d="M25.8599 14.6267H24.9531V15.3621H25.8599V14.6267Z" fill="white"/>
<path d="M27.6734 14.6267H26.7666V15.3621H27.6734V14.6267Z" fill="white"/>
<path d="M29.4869 14.6267H28.5801V15.3621H29.4869V14.6267Z" fill="white"/>
<path d="M31.3004 14.6267H30.3936V15.3621H31.3004V14.6267Z" fill="white"/>
<path d="M31.3005 17.6285H17.6982V18.3639H31.3005V17.6285Z" fill="white"/>
<path d="M31.3005 19.5047H17.6982V20.2401H31.3005V19.5047Z" fill="white"/>
<path d="M31.3005 21.3809H17.6982V22.1162H31.3005V21.3809Z" fill="white"/>
<path d="M31.3005 23.257H17.6982V23.9924H31.3005V23.257Z" fill="white"/>
<path d="M31.3005 25.1332H17.6982V25.8686H31.3005V25.1332Z" fill="white"/>
<path d="M31.3005 27.0094H17.6982V27.7447H31.3005V27.0094Z" fill="white"/>
<path d="M31.3005 28.8855H17.6982V29.6209H31.3005V28.8855Z" fill="white"/>
<path d="M26.3132 30.7617H17.6982V31.4971H26.3132V30.7617Z" fill="white"/>
<path d="M26.3132 32.6379H17.6982V33.3733H26.3132V32.6379Z" fill="white"/>
</svg>
