<svg width="84" height="87" viewBox="0 0 84 87" fill="none" xmlns="http://www.w3.org/2000/svg">
<circle cx="41.7025" cy="45.2976" r="41.4525" fill="#DBDBDB" stroke="black" stroke-width="0.5"/>
<rect x="17.25" y="34.25" width="48.5" height="20.5" rx="1.75" fill="#0033EA" stroke="black" stroke-width="0.5"/>
<path d="M43.7516 46.9068L38.4002 40H36.7734V49.9892H38.5001V42.8826L44.0085 49.9892H45.4783V40H43.7516V46.9068Z" fill="white"/>
<rect x="33" y="41.7639" width="16.0541" height="1.48649" fill="white"/>
<rect x="33" y="45.7279" width="16.0541" height="1.48649" fill="white"/>
<path d="M28.2603 14.7397C28.2603 22.6157 22.0344 28.9793 14.3802 28.9793C6.72593 28.9793 0.5 22.6157 0.5 14.7397C0.5 6.86361 6.72593 0.5 14.3802 0.5C22.0344 0.5 28.2603 6.86361 28.2603 14.7397Z" fill="#0033EA" stroke="black"/>
<path d="M7 16.0345C9.25806 17.4138 11.5161 19.0138 11.5161 21C14.3763 17 20.2774 9 21 9" stroke="white" stroke-width="2"/>
</svg>
