<svg width="84" height="88" viewBox="0 0 84 88" fill="none" xmlns="http://www.w3.org/2000/svg">
<circle cx="41.7025" cy="45.5092" r="41.4525" fill="#DBDBDB" stroke="black" stroke-width="0.5"/>
<circle cx="41.7232" cy="37.2563" r="11.4388" fill="white"/>
<path d="M60.8686 65.2009C60.8686 60.8393 58.8483 56.6565 55.2521 53.5724C51.6559 50.4883 46.7785 48.7557 41.6927 48.7557C36.607 48.7557 31.7295 50.4883 28.1333 53.5724C24.5372 56.6565 22.5168 60.8393 22.5168 65.2009L60.8686 65.2009Z" fill="white"/>
<path d="M28.2603 14.9513C28.2603 22.8274 22.0344 29.191 14.3802 29.191C6.72593 29.191 0.5 22.8274 0.5 14.9513C0.5 7.07528 6.72593 0.71167 14.3802 0.71167C22.0344 0.71167 28.2603 7.07528 28.2603 14.9513Z" fill="#0033EA" stroke="black"/>
<path d="M6.47107 13.8571C8.13198 14.7953 11.5883 17.406 12.1261 20.343C12.6797 20.4348 16.4761 13.0311 22.2893 8.83972" stroke="white" stroke-width="3"/>
</svg>
