<svg width="49" height="48" viewBox="0 0 49 48" fill="none" xmlns="http://www.w3.org/2000/svg">
<path d="M48.5 24C48.5 37.2548 37.7548 48 24.5 48C11.2452 48 0.5 37.2548 0.5 24C0.5 10.7452 11.2452 0 24.5 0C37.7548 0 48.5 10.7452 48.5 24Z" fill="#0033EA"/>
<path d="M35.8755 36.5223H11.8761C11.7763 36.5223 11.6807 36.4827 11.6102 36.4121C11.5396 36.3416 11.5 36.2459 11.5 36.1462V12.3761C11.5 12.2763 11.5396 12.1807 11.6102 12.1102C11.6807 12.0396 11.7763 12 11.8761 12C11.9758 12 12.0715 12.0396 12.142 12.1102C12.2126 12.1807 12.2522 12.2763 12.2522 12.3761V35.7701H35.8755C35.9752 35.7701 36.0709 35.8097 36.1414 35.8803C36.2119 35.9508 36.2516 36.0465 36.2516 36.1462C36.2516 36.2459 36.2119 36.3416 36.1414 36.4121C36.0709 36.4827 35.9752 36.5223 35.8755 36.5223Z" fill="#E5E5E5"/>
<path d="M34.8614 15.3802H13.2892C13.2316 15.3802 13.1763 15.3572 13.1356 15.3162C13.0948 15.2752 13.0719 15.2195 13.0719 15.1615C13.0719 15.1036 13.0948 15.0479 13.1356 15.0069C13.1763 14.9659 13.2316 14.9429 13.2892 14.9429H34.8614C34.9191 14.9429 34.9744 14.9659 35.0151 15.0069C35.0559 15.0479 35.0788 15.1036 35.0788 15.1615C35.0788 15.2195 35.0559 15.2752 35.0151 15.3162C34.9744 15.3572 34.9191 15.3802 34.8614 15.3802ZM35.0788 17.563C35.0788 17.505 35.0559 17.4494 35.0151 17.4084C34.9744 17.3674 34.9191 17.3443 34.8614 17.3443H13.2892C13.2316 17.3443 13.1763 17.3674 13.1356 17.4084C13.0948 17.4494 13.0719 17.505 13.0719 17.563C13.0719 17.621 13.0948 17.6766 13.1356 17.7176C13.1763 17.7586 13.2316 17.7817 13.2892 17.7817H34.8614C34.9191 17.7817 34.9744 17.7586 35.0151 17.7176C35.0559 17.6766 35.0788 17.621 35.0788 17.563ZM35.0788 19.9645C35.0788 19.9065 35.0559 19.8508 35.0151 19.8098C34.9744 19.7688 34.9191 19.7458 34.8614 19.7458H13.2892C13.2316 19.7458 13.1763 19.7688 13.1356 19.8098C13.0948 19.8508 13.0719 19.9065 13.0719 19.9645C13.0719 20.0225 13.0948 20.0781 13.1356 20.1191C13.1763 20.1601 13.2316 20.1831 13.2892 20.1831H34.8614C34.9191 20.1831 34.9744 20.1601 35.0151 20.1191C35.0559 20.0781 35.0788 20.0225 35.0788 19.9645ZM35.0788 22.3659C35.0788 22.3079 35.0559 22.2523 35.0151 22.2113C34.9744 22.1703 34.9191 22.1472 34.8614 22.1472H13.2892C13.2316 22.1472 13.1763 22.1703 13.1356 22.2113C13.0948 22.2523 13.0719 22.3079 13.0719 22.3659C13.0719 22.4239 13.0948 22.4795 13.1356 22.5205C13.1763 22.5615 13.2316 22.5846 13.2892 22.5846H34.8614C34.9191 22.5846 34.9744 22.5615 35.0151 22.5205C35.0559 22.4795 35.0788 22.4239 35.0788 22.3659ZM35.0788 24.7674C35.0788 24.7094 35.0559 24.6537 35.0151 24.6127C34.9744 24.5717 34.9191 24.5487 34.8614 24.5487H13.2892C13.2316 24.5487 13.1763 24.5717 13.1356 24.6127C13.0948 24.6537 13.0719 24.7094 13.0719 24.7674C13.0719 24.8254 13.0948 24.881 13.1356 24.922C13.1763 24.963 13.2316 24.986 13.2892 24.986H34.8614C34.9191 24.986 34.9744 24.963 35.0151 24.922C35.0559 24.881 35.0788 24.8254 35.0788 24.7674ZM35.0788 27.1688C35.0788 27.1108 35.0559 27.0552 35.0151 27.0142C34.9744 26.9732 34.9191 26.9501 34.8614 26.9501H13.2892C13.2316 26.9501 13.1763 26.9732 13.1356 27.0142C13.0948 27.0552 13.0719 27.1108 13.0719 27.1688C13.0719 27.2268 13.0948 27.2824 13.1356 27.3235C13.1763 27.3645 13.2316 27.3875 13.2892 27.3875H34.8614C34.9191 27.3875 34.9744 27.3645 35.0151 27.3235C35.0559 27.2824 35.0788 27.2268 35.0788 27.1688ZM35.0788 29.5703C35.0788 29.5123 35.0559 29.4567 35.0151 29.4157C34.9744 29.3746 34.9191 29.3516 34.8614 29.3516H13.2892C13.2316 29.3516 13.1763 29.3746 13.1356 29.4157C13.0948 29.4567 13.0719 29.5123 13.0719 29.5703C13.0719 29.6283 13.0948 29.6839 13.1356 29.7249C13.1763 29.7659 13.2316 29.789 13.2892 29.789H34.8614C34.9191 29.789 34.9744 29.7659 35.0151 29.7249C35.0559 29.6839 35.0788 29.6283 35.0788 29.5703ZM35.0788 31.9717C35.0788 31.9137 35.0559 31.8581 35.0151 31.8171C34.9744 31.7761 34.9191 31.7531 34.8614 31.7531H13.2892C13.2316 31.7531 13.1763 31.7761 13.1356 31.8171C13.0948 31.8581 13.0719 31.9137 13.0719 31.9717C13.0719 32.0297 13.0948 32.0854 13.1356 32.1264C13.1763 32.1674 13.2316 32.1904 13.2892 32.1904H34.8614C34.9191 32.1904 34.9744 32.1674 35.0151 32.1264C35.0559 32.0854 35.0788 32.0297 35.0788 31.9717ZM35.0788 34.3732C35.0788 34.3152 35.0559 34.2596 35.0151 34.2186C34.9744 34.1775 34.9191 34.1545 34.8614 34.1545H13.2892C13.2316 34.1545 13.1763 34.1775 13.1356 34.2186C13.0948 34.2596 13.0719 34.3152 13.0719 34.3732C13.0719 34.4312 13.0948 34.4868 13.1356 34.5278C13.1763 34.5688 13.2316 34.5919 13.2892 34.5919H34.8614C34.9191 34.5919 34.9744 34.5688 35.0151 34.5278C35.0559 34.4868 35.0788 34.4312 35.0788 34.3732Z" fill="#E5E5E5"/>
<path d="M13.764 35.3778C13.6572 35.3778 13.5518 35.3527 13.4562 35.3045C13.1138 35.1327 12.9742 34.7133 13.1445 34.3677L20.6081 19.2214C20.653 19.1301 20.7173 19.0498 20.7963 18.9862C20.8752 18.9227 20.9671 18.8773 21.0653 18.8533C21.1635 18.8293 21.2657 18.8273 21.3647 18.8474C21.4638 18.8675 21.5573 18.9093 21.6386 18.9697L25.4287 21.7842L35.4984 12.7613C35.7843 12.505 36.222 12.5311 36.476 12.8198C36.7299 13.1084 36.704 13.55 36.418 13.8063L25.9293 23.2046C25.8107 23.3108 25.6596 23.3728 25.5012 23.3802C25.3428 23.3875 25.1867 23.3397 25.059 23.2449L21.4813 20.5881L14.3846 34.99C14.3272 35.1065 14.2387 35.2046 14.129 35.2731C14.0194 35.3416 13.893 35.3779 13.764 35.3778Z" fill="#E5E5E5"/>
</svg>
