<svg width="53" height="53" viewBox="0 0 53 53" fill="none" xmlns="http://www.w3.org/2000/svg">
<path d="M14 32.5L19 39.5L20.5 40.5H33.5V39C34.1667 38.6667 35.6 37.9 36 37.5C36.4 37.1 37.1667 35.6667 37.5 35L39.5 32L41 27.5L40 23L38.5 19L35 15.5L31 13.5L26 12L21 13.5L16 17L12.5 22.5V28.5L14 32.5Z" fill="#0033EA"/>
<path d="M23.5 44.5H29.5" stroke="#0033EA"/>
<path d="M23.5 47.5H29.5" stroke="#0033EA"/>
<path d="M19.8785 40.6667H33.1187M26.5 1V3.83333M44.5313 8.46867L42.5282 10.4718M52 26.5H49.1667M3.83333 26.5H1M10.4718 10.4718L8.46867 8.46867M16.4813 36.5187C14.5005 34.5373 13.1516 32.013 12.6053 29.265C12.0589 26.5171 12.3397 23.6688 13.4121 21.0804C14.4844 18.492 16.3002 16.2797 18.6298 14.7232C20.9594 13.1667 23.6983 12.336 26.5 12.336C29.3017 12.336 32.0406 13.1667 34.3702 14.7232C36.6998 16.2797 38.5156 18.492 39.5879 21.0804C40.6603 23.6688 40.9411 26.5171 40.3947 29.265C39.8484 32.013 38.4995 34.5373 36.5187 36.5187L34.966 38.0685C34.0783 38.9563 33.3743 40.0103 32.8939 41.1702C32.4136 42.3302 32.1665 43.5734 32.1667 44.8288V46.3333C32.1667 47.8362 31.5696 49.2776 30.5069 50.3403C29.4442 51.403 28.0029 52 26.5 52C24.9971 52 23.5558 51.403 22.4931 50.3403C21.4304 49.2776 20.8333 47.8362 20.8333 46.3333V44.8288C20.8333 42.293 19.8247 39.8592 18.034 38.0685L16.4813 36.5187Z" stroke="#0033EA" stroke-width="2" stroke-linecap="round" stroke-linejoin="round"/>
</svg>
