<svg width="32" height="32" viewBox="0 0 32 32" fill="none" xmlns="http://www.w3.org/2000/svg">
<path d="M16.2861 7.62643C11.8819 7.62643 8.32755 11.1809 8.32755 15.5851C8.32755 19.9894 11.8819 23.5438 16.2861 23.5438C20.6902 23.5438 24.2446 19.9894 24.2446 15.5851C24.2446 11.1809 20.6902 7.62643 16.2861 7.62643ZM16.2861 20.7577C13.4379 20.7577 11.1136 18.4333 11.1136 15.5851C11.1136 12.7369 13.4379 10.4126 16.2861 10.4126C19.1342 10.4126 21.4585 12.7369 21.4585 15.5851C21.4585 18.4333 19.1342 20.7577 16.2861 20.7577ZM24.5706 5.44565C23.5423 5.44565 22.7119 6.27605 22.7119 7.30436C22.7119 8.33266 23.5423 9.16306 24.5706 9.16306C25.5988 9.16306 26.4292 8.33654 26.4292 7.30436C26.4295 7.06018 26.3817 6.81835 26.2884 6.5927C26.1951 6.36705 26.0582 6.16203 25.8855 5.98937C25.7129 5.81671 25.5079 5.67981 25.2822 5.58651C25.0566 5.49321 24.8147 5.44534 24.5706 5.44565ZM31.7996 15.5851C31.7996 13.4431 31.819 11.3206 31.6987 9.18247C31.5784 6.69902 31.0119 4.49495 29.1959 2.67893C27.376 0.859029 25.1759 0.296372 22.6925 0.17608C20.5506 0.0557878 18.428 0.0751898 16.29 0.0751898C14.148 0.0751898 12.0255 0.0557878 9.88744 0.17608C7.40403 0.296372 5.20001 0.862909 3.38402 2.67893C1.56415 4.49884 1.00151 6.69902 0.881217 9.18247C0.760927 11.3244 0.780329 13.447 0.780329 15.5851C0.780329 17.7232 0.760927 19.8497 0.881217 21.9878C1.00151 24.4712 1.56803 26.6753 3.38402 28.4913C5.20389 30.3112 7.40403 30.8739 9.88744 30.9941C12.0294 31.1144 14.1519 31.095 16.29 31.095C18.4319 31.095 20.5544 31.1144 22.6925 30.9941C25.1759 30.8739 27.3799 30.3073 29.1959 28.4913C31.0158 26.6714 31.5784 24.4712 31.6987 21.9878C31.8229 19.8497 31.7996 17.7271 31.7996 15.5851ZM28.3849 24.7351C28.1017 25.4413 27.7602 25.969 27.2131 26.5123C26.6659 27.0594 26.1421 27.4009 25.4359 27.6842C23.3948 28.4952 18.5483 28.3128 16.2861 28.3128C14.0239 28.3128 9.17346 28.4952 7.13241 27.6881C6.42619 27.4048 5.89847 27.0633 5.35522 26.5162C4.8081 25.969 4.46663 25.4452 4.18337 24.739C3.37626 22.694 3.55864 17.8474 3.55864 15.5851C3.55864 13.3228 3.37626 8.47236 4.18337 6.43127C4.46663 5.72504 4.8081 5.19731 5.35522 4.65405C5.90235 4.1108 6.42619 3.76544 7.13241 3.48217C9.17346 2.67505 14.0239 2.85743 16.2861 2.85743C18.5483 2.85743 23.3987 2.67505 25.4398 3.48217C26.146 3.76544 26.6737 4.10692 27.2169 4.65405C27.7641 5.20119 28.1055 5.72504 28.3888 6.43127C29.1959 8.47236 29.0135 13.3228 29.0135 15.5851C29.0135 17.8474 29.1959 22.694 28.3849 24.7351Z" fill="url(#paint0_linear)"/>
<defs>
<linearGradient id="paint0_linear" x1="16.2903" y1="0.0740356" x2="16.2903" y2="31.0962" gradientUnits="userSpaceOnUse">
<stop stop-color="#E99B04"/>
<stop offset="1" stop-color="#730768"/>
</linearGradient>
</defs>
</svg>
