<svg width="44" height="46" viewBox="0 0 44 46" fill="none" xmlns="http://www.w3.org/2000/svg">
<path d="M22.5 1.5L1 8V15L2.5 25L9 35L21.5 44.5L25.5 42L36 33L40.5 25L41.5 8L22.5 1.5Z" fill="#0033EA"/>
<path d="M21.5574 0.00104701C22.3106 0.00104701 23.0524 0.049922 23.7424 0.164922C24.4219 0.253968 25.0924 0.402113 25.7463 0.607672C26.4018 0.806047 27.0429 1.0533 27.684 1.3638C28.3079 1.65992 28.949 2.02217 29.5901 2.41605C30.674 3.10605 31.7406 3.6638 32.8274 4.10942C34.9668 4.96569 37.2291 5.47522 39.529 5.6188C40.6963 5.70217 41.8951 5.75105 43.1429 5.75105V17.251C43.1429 19.436 42.864 21.506 42.3063 23.4783C41.7705 25.4224 41.0092 27.2972 40.0379 29.0644C39.0707 30.8292 37.9263 32.4909 36.6224 34.0238C35.2985 35.5915 33.8651 37.0634 32.3329 38.4283C30.7804 39.7972 29.1453 41.0694 27.4368 42.2377C25.729 43.4222 24.004 44.5233 22.279 45.5238L21.589 45.9349L20.899 45.5238C19.1257 44.4971 17.3936 43.4009 15.7068 42.2377C13.9886 41.0826 12.3527 39.8097 10.8106 38.4283C9.27938 37.0634 7.84691 35.5915 6.52401 34.0238C5.22363 32.4844 4.0741 30.8236 3.09126 29.0644C2.13657 27.2893 1.37605 25.4165 0.822888 23.4783C0.261601 21.4507 -0.0151304 19.3549 0.000637679 17.251V5.75105C1.25126 5.75105 2.45014 5.70217 3.61739 5.6188C4.76641 5.53899 5.908 5.37467 7.03289 5.12717C8.13401 4.87992 9.23514 4.55217 10.319 4.10942C11.4437 3.6555 12.522 3.0942 13.539 2.4333C14.804 1.61105 16.0863 1.00442 17.3513 0.604797C18.7136 0.18715 20.1326 -0.0165236 21.5574 0.00104701ZM40.2506 8.57717C38.0743 8.47158 35.9183 8.10773 33.8279 7.4933C31.7485 6.87303 29.7679 5.96018 27.9456 4.78217C27.0004 4.16174 25.9739 3.67508 24.8953 3.33605C23.8178 3.01041 22.6973 2.84951 21.5718 2.8588C20.4379 2.85146 19.3091 3.0123 18.2224 3.33605C17.1422 3.66406 16.117 4.15147 15.1806 4.78217C13.3552 5.96661 11.3695 6.88346 9.28401 7.5048C7.24564 8.09705 5.11239 8.4593 2.87564 8.59155V17.2654C2.87564 19.1715 3.12289 20.9943 3.61739 22.7509C4.12116 24.4923 4.81535 26.1728 5.68739 27.762C6.56987 29.3678 7.60999 30.8818 8.79239 32.2815C9.99126 33.6932 11.2706 35.007 12.6506 36.2548C14.0306 37.5054 15.4768 38.6554 16.989 39.722C18.5156 40.7915 20.0451 41.7604 21.5718 42.6459C23.1349 41.7359 24.6591 40.7604 26.1401 39.722C27.6624 38.6588 29.1162 37.5007 30.4929 36.2548C31.8729 35.007 33.1551 33.6932 34.354 32.2815C35.5365 30.8819 36.5767 29.3679 37.459 27.762C38.3272 26.1748 39.0111 24.4935 39.4974 22.7509C40.0069 20.9673 40.2605 19.1204 40.2506 17.2654V8.57717Z" fill="#0033EA"/>
<path fill-rule="evenodd" clip-rule="evenodd" d="M32.2755 13.5399L31.0105 12.4531L29.8433 12.5538L17.3083 27.3542L13.0389 21.2592L11.8889 21.0638L10.5578 22.0154L10.3594 23.1654L15.8478 31.0026L16.4716 31.3476L17.7855 31.4281L18.4583 31.1349L32.3589 14.7042L32.2755 13.5399Z" fill="white"/>
</svg>
