<svg width="446" height="427" viewBox="0 0 446 427" fill="none" xmlns="http://www.w3.org/2000/svg">
<path d="M223.112 426.932C346.03 426.932 445.674 421.115 445.674 413.939C445.674 406.762 346.03 400.945 223.112 400.945C100.195 400.945 0.550781 406.762 0.550781 413.939C0.550781 421.115 100.195 426.932 223.112 426.932Z" fill="white"/>
<path d="M374.839 22.7164L373.623 21.7293L424.359 0L425.587 0.998646L374.839 22.7164Z" fill="#E0E0E0"/>
<path d="M67.9892 23.9218L69.2059 22.9231L24.1174 0.493652L22.8892 1.49231L67.9892 23.9218Z" fill="#E0E0E0"/>
<path d="M8.46032 111.379L8.15039 110.231C43.1147 100.428 61.9054 83.1638 62.1005 82.9916L62.8926 83.8295C62.7089 84.0591 43.7345 101.495 8.46032 111.379Z" fill="#E0E0E0"/>
<path d="M438.913 112.067C403.662 102.184 384.676 84.7477 384.493 84.5181L385.273 83.6802C385.457 83.8524 404.259 101.116 439.223 110.919L438.913 112.067Z" fill="#E0E0E0"/>
<path d="M66.7951 20.3174C72.1692 40.007 71.2175 60.8878 64.0747 80.0069L62.1807 85.092C62.1807 85.092 161.036 100.324 223.205 100.324C294.132 100.324 385.055 85.092 385.055 85.092L383 80.0184C375.311 61.001 374.459 39.9044 380.59 20.3289C380.59 20.3289 334.457 35.8596 220.519 35.8596C132.844 35.8596 66.7951 20.3174 66.7951 20.3174Z" fill="#407BFF"/>
<path d="M107.077 44.6063C111.881 36.5764 107.93 25.3732 98.2516 19.5831C88.5733 13.7931 76.8331 15.6088 72.0293 23.6387C67.2254 31.6686 71.1769 42.8719 80.8552 48.6619C90.5335 54.452 102.274 52.6362 107.077 44.6063Z" fill="#407BFF"/>
<path opacity="0.1" d="M107.077 44.6063C111.881 36.5764 107.93 25.3732 98.2516 19.5831C88.5733 13.7931 76.8331 15.6088 72.0293 23.6387C67.2254 31.6686 71.1769 42.8719 80.8552 48.6619C90.5335 54.452 102.274 52.6362 107.077 44.6063Z" fill="white"/>
<g opacity="0.4">
<path opacity="0.4" d="M106.558 38.2011C106.502 37.4318 106.158 36.7119 105.595 36.1849C105.031 35.658 104.29 35.3628 103.519 35.3583C102.747 35.3538 102.003 35.6403 101.433 36.1607C100.864 36.681 100.512 37.3969 100.447 38.1655C100.382 38.9341 100.609 39.6989 101.084 40.3073C101.558 40.9156 102.244 41.3228 103.005 41.4476C103.766 41.5723 104.547 41.4055 105.19 40.9803C105.834 40.5552 106.293 39.903 106.477 39.1539L106.558 38.2011Z" fill="white"/>
<path opacity="0.4" d="M81.5454 21.052C88.0536 21.6416 94.0612 24.792 98.247 29.8102C98.7632 30.5135 99.3691 31.1464 100.049 31.6928C100.395 31.9634 100.802 32.1447 101.234 32.2208C101.667 32.2969 102.111 32.2653 102.529 32.129C107.051 30.235 97.4091 23.0607 95.6987 22.1998C93.5137 21.0928 91.1369 20.4148 88.6967 20.2025C86.3206 20.0189 83.7608 21.2815 81.5454 21.052Z" fill="white"/>
</g>
<path d="M75.0691 74.6577C84.6364 69.7935 87.112 55.4648 80.5985 42.6538C74.0851 29.8428 61.0491 23.4007 51.4818 28.265C41.9145 33.1292 39.4389 47.4579 45.9523 60.2689C52.4658 73.0799 65.5018 79.522 75.0691 74.6577Z" fill="#407BFF"/>
<g opacity="0.2">
<path opacity="0.2" d="M78.2626 67.6901C78.4676 67.1085 78.5479 66.4902 78.4983 65.8755C78.4488 65.2608 78.2704 64.6633 77.9749 64.1221C77.6793 63.5808 77.2732 63.1077 76.7829 62.7336C76.2926 62.3596 75.7291 62.0928 75.1289 61.9508C72.7413 61.6523 70.767 64.4761 71.6853 66.8981C72.6036 69.3201 75.9784 70.3417 77.6313 68.6429L78.2626 67.6901Z" fill="white"/>
<path opacity="0.2" d="M62.6748 32.37C69.0152 37.6642 73.2568 45.0483 74.6357 53.1925C74.7505 54.2943 75.0011 55.3777 75.3818 56.418C75.5671 56.9371 75.8711 57.4057 76.2698 57.7864C76.6684 58.167 77.1505 58.4492 77.6775 58.6104C83.4169 59.8616 77.7464 45.6165 76.5297 43.5618C74.9579 40.8982 72.9342 38.5288 70.5492 36.5597C68.1502 34.6428 64.8213 34.1262 62.6748 32.37Z" fill="white"/>
</g>
<path d="M80.2611 43.7856C85.9512 37.0404 83.9763 26.0152 75.8501 19.1602C67.7239 12.3052 56.5236 12.2161 50.8335 18.9613C45.1435 25.7065 47.1184 36.7317 55.2446 43.5867C63.3708 50.4417 74.5711 50.5308 80.2611 43.7856Z" fill="#407BFF"/>
<path opacity="0.2" d="M80.2611 43.7856C85.9512 37.0404 83.9763 26.0152 75.8501 19.1602C67.7239 12.3052 56.5236 12.2161 50.8335 18.9613C45.1435 25.7065 47.1184 36.7317 55.2446 43.5867C63.3708 50.4417 74.5711 50.5308 80.2611 43.7856Z" fill="white"/>
<g opacity="0.4">
<path opacity="0.4" d="M80.7767 37.7305C80.8507 37.0032 80.6477 36.2747 80.2082 35.6906C79.7686 35.1064 79.1249 34.7095 78.4056 34.5791C77.6863 34.4486 76.9442 34.5943 76.3276 34.987C75.7109 35.3797 75.2651 35.9905 75.079 36.6975C74.893 37.4045 74.9804 38.1557 75.3239 38.801C75.6673 39.4464 76.2416 39.9384 76.9319 40.179C77.6223 40.4196 78.378 40.3909 79.0481 40.0987C79.7183 39.8066 80.2536 39.2724 80.5472 38.6029L80.7767 37.7305Z" fill="white"/>
<path opacity="0.4" d="M60.1147 18.0215C63.0684 18.7806 65.8436 20.114 68.2819 21.9457C70.7201 23.7774 72.7738 26.0714 74.3254 28.6967C74.6997 29.4333 75.1706 30.1166 75.7258 30.7285C76.009 31.0451 76.3691 31.2834 76.7713 31.4201C77.1734 31.5569 77.6041 31.5875 78.0216 31.509C82.5098 30.3611 74.578 22.2571 73.212 21.1781C71.3463 19.8201 69.2386 18.8305 67.002 18.2625C64.7062 17.746 62.0891 18.5265 60.1147 18.0215Z" fill="white"/>
</g>
<path d="M367.632 51.6124C377.311 45.8224 381.262 34.6191 376.458 26.5892C371.654 18.5594 359.914 16.7436 350.236 22.5336C340.558 28.3237 336.606 39.527 341.41 47.5569C346.214 55.5867 357.954 57.4025 367.632 51.6124Z" fill="#407BFF"/>
<path opacity="0.1" d="M367.632 51.6124C377.311 45.8224 381.262 34.6191 376.458 26.5892C371.654 18.5594 359.914 16.7436 350.236 22.5336C340.558 28.3237 336.606 39.527 341.41 47.5569C346.214 55.5867 357.954 57.4025 367.632 51.6124Z" fill="white"/>
<g opacity="0.4">
<path opacity="0.4" d="M341.93 41.1285C341.974 40.3519 342.309 39.6204 342.869 39.0804C343.429 38.5404 344.172 38.2316 344.95 38.2157C345.727 38.1999 346.482 38.4781 347.064 38.9949C347.645 39.5117 348.01 40.2288 348.086 41.0031C348.161 41.7773 347.942 42.5514 347.471 43.1708C347.001 43.7902 346.314 44.2092 345.547 44.344C344.781 44.4787 343.993 44.3194 343.339 43.8977C342.685 43.4761 342.215 42.8233 342.022 42.0698L341.93 41.1285Z" fill="white"/>
<path opacity="0.4" d="M366.942 24.0137C360.436 24.6107 354.432 27.7597 350.241 32.772C349.728 33.4815 349.122 34.1185 348.439 34.666C348.094 34.9384 347.686 35.12 347.253 35.1942C346.82 35.2684 346.375 35.2328 345.959 35.0907C341.448 33.1967 351.079 25.988 352.755 25.1386C354.925 24.0359 357.286 23.358 359.711 23.1413C362.167 22.9462 364.738 24.2088 366.942 24.0137Z" fill="white"/>
</g>
<path d="M402.521 63.1852C409.034 50.3742 406.559 36.0455 396.991 31.1813C387.424 26.317 374.388 32.7591 367.875 45.5701C361.361 58.3811 363.837 72.7097 373.404 77.574C382.971 82.4383 396.007 75.9962 402.521 63.1852Z" fill="#407BFF"/>
<g opacity="0.2">
<path opacity="0.2" d="M370.225 70.6058C370.02 70.0241 369.94 69.4058 369.989 68.7911C370.039 68.1764 370.217 67.579 370.513 67.0377C370.808 66.4964 371.214 66.0234 371.705 65.6493C372.195 65.2752 372.759 65.0085 373.359 64.8664C375.758 64.568 377.721 67.3917 376.802 69.8252C375.884 72.2587 372.509 73.2688 370.856 71.5585L370.225 70.6058Z" fill="white"/>
<path opacity="0.2" d="M385.825 35.2858C379.478 40.5865 375.233 47.9785 373.852 56.1312C373.739 57.2321 373.492 58.3152 373.118 59.3567C372.928 59.8732 372.622 60.3392 372.224 60.7193C371.826 61.0993 371.346 61.3832 370.822 61.5491C365.082 62.7889 370.764 48.5437 371.97 46.5005C373.542 43.8305 375.57 41.4568 377.962 39.487C380.372 37.5586 383.678 37.0535 385.825 35.2858Z" fill="white"/>
</g>
<path d="M393.237 46.4571C401.363 39.6021 403.338 28.5769 397.648 21.8317C391.958 15.0865 380.758 15.1756 372.632 22.0306C364.506 28.8857 362.531 39.9108 368.221 46.656C373.911 53.4012 385.111 53.3122 393.237 46.4571Z" fill="#407BFF"/>
<path opacity="0.2" d="M393.237 46.4571C401.363 39.6021 403.338 28.5769 397.648 21.8317C391.958 15.0865 380.758 15.1756 372.632 22.0306C364.506 28.8857 362.531 39.9108 368.221 46.656C373.911 53.4012 385.111 53.3122 393.237 46.4571Z" fill="white"/>
<g opacity="0.4">
<path opacity="0.4" d="M367.745 40.6465C367.681 39.9212 367.892 39.1982 368.337 38.6219C368.782 38.0455 369.428 37.6582 370.146 37.5372C370.864 37.4162 371.601 37.5704 372.21 37.9691C372.82 38.3678 373.256 38.9816 373.433 39.688C373.609 40.3944 373.513 41.1415 373.163 41.78C372.813 42.4185 372.235 42.9015 371.545 43.1327C370.854 43.3638 370.102 43.326 369.438 43.0269C368.774 42.7277 368.248 42.1892 367.963 41.5188L367.745 40.6465Z" fill="white"/>
<path opacity="0.4" d="M388.407 20.9374C382.446 22.4785 377.337 26.3164 374.197 31.6126C373.833 32.3576 373.374 33.0521 372.831 33.6788C372.549 33.9809 372.198 34.2091 371.808 34.3432C371.417 34.4774 371 34.5133 370.592 34.4479C366.093 33.3689 373.967 25.196 375.39 24.117C377.256 22.7521 379.369 21.762 381.612 21.2014C383.816 20.6619 386.41 21.4539 388.407 20.9374Z" fill="white"/>
</g>
<path d="M275.191 127.219C274.583 127.219 271.151 131.638 270.956 130.892C269.327 128.718 267.559 126.652 265.664 124.705C264.955 123.928 264.48 122.966 264.291 121.931C264.102 120.896 264.208 119.829 264.597 118.851L265.963 115.407C266.224 114.743 266.641 114.15 267.178 113.679C267.715 113.208 268.357 112.872 269.05 112.698L273.011 114.283L273.435 119.15L275.191 127.219Z" fill="#DD8C6A"/>
<path d="M276.316 130.204L276.259 124.051C276.259 124.051 271.977 122.57 269.934 125.199C267.891 127.828 268.476 129.343 268.476 129.343C269.625 131.429 271.394 133.105 273.538 134.141C277.453 136.242 276.316 130.204 276.316 130.204Z" fill="#407BFF"/>
<path opacity="0.2" d="M276.316 130.204L276.259 124.051C276.259 124.051 271.977 122.57 269.934 125.199C267.891 127.828 268.476 129.343 268.476 129.343C269.625 131.429 271.394 133.105 273.538 134.141C277.453 136.242 276.316 130.204 276.316 130.204Z" fill="black"/>
<path d="M315.988 172.296C310.765 167.705 300.641 159.922 293.868 154.665C290.746 152.243 283.801 138.939 280.094 133.578C278.991 132.29 277.72 131.155 276.317 130.203L272.575 133.544C272.17 134.099 271.891 134.736 271.76 135.411C271.629 136.085 271.649 136.78 271.817 137.447C274.458 144.77 282.929 161.747 285.89 164.697C294.522 173.283 310.822 187.368 314.128 187.092C319.076 186.702 320.005 175.82 315.988 172.296Z" fill="#407BFF"/>
<path opacity="0.2" d="M315.988 172.296C310.765 167.705 300.641 159.922 293.868 154.665C290.746 152.243 283.801 138.939 280.094 133.578C278.991 132.29 277.72 131.155 276.317 130.203L272.575 133.544C272.17 134.099 271.891 134.736 271.76 135.411C271.629 136.085 271.649 136.78 271.817 137.447C274.458 144.77 282.929 161.747 285.89 164.697C294.522 173.283 310.822 187.368 314.128 187.092C319.076 186.702 320.005 175.82 315.988 172.296Z" fill="white"/>
<path d="M368.754 411.651C369.353 410.328 370.168 409.114 371.165 408.058C371.165 408.058 375.24 401.343 372.393 389.463L377.926 384.779C379.41 384.819 380.821 385.432 381.863 386.49C382.544 387.265 383.163 388.094 383.711 388.969C385.651 392.413 389.875 400.356 389.875 400.356L389.049 400.804C387.66 398.446 386.126 396.177 384.457 394.008C382.713 391.976 382.678 395.535 383.309 398.6C383.941 401.665 381.875 406.394 376.64 409.436C370.557 413.006 367.882 414.142 368.754 411.651Z" fill="#263238"/>
<path d="M379.016 395.65C379.016 397.659 380.279 401.217 378.431 403.834C377.613 405.038 376.536 406.042 375.278 406.773C374.021 407.504 372.615 407.943 371.165 408.058C371.165 408.058 374.356 402.836 373.127 393.434C372.958 392.101 372.713 390.779 372.393 389.474C372.393 389.474 377.179 386.031 379.36 385.617L380.451 388.751C380.243 390.813 379.808 392.845 379.154 394.812C379.056 395.08 379.009 395.364 379.016 395.65Z" fill="#DD8C6A"/>
<path d="M380.451 388.751C380.243 390.813 379.808 392.845 379.154 394.812C379.056 395.08 379.01 395.364 379.016 395.65L374.528 397.452L373.128 393.434L368.169 379.109L376.009 375.941L379.361 385.617L380.451 388.751Z" fill="#DD8C6A"/>
<path opacity="0.2" d="M375.641 374.873L367.744 378.041L369.89 384.217C369.89 384.217 375.572 385.365 377.925 381.474L378.235 382.38L375.641 374.873Z" fill="black"/>
<path d="M309.443 406.118C310.659 405.329 311.997 404.747 313.404 404.396C313.404 404.396 320.463 400.953 324.469 389.405L331.804 388.062C332.439 388.384 333.002 388.831 333.458 389.378C333.914 389.925 334.254 390.559 334.456 391.242C334.49 392.518 334.444 393.794 334.318 395.064C334.111 399.047 333.285 409.332 333.285 409.332L332.344 409.275C332.462 406.107 332.42 402.935 332.217 399.771C331.838 397.119 329.921 400.092 328.774 402.996C327.626 405.9 323.367 408.735 317.295 408.529C310.178 408.207 307.32 407.702 309.443 406.118Z" fill="#263238"/>
<path d="M330.519 393.825C329.674 395.247 328.582 396.507 327.293 397.544C325.812 398.634 325.238 403.352 321.818 404.752C320.477 405.322 319.027 405.587 317.572 405.527C316.117 405.468 314.693 405.085 313.404 404.408C313.404 404.408 318.73 401.791 322.747 393.538C323.678 391.629 323.976 389.474 323.597 387.385L321.175 373.886L330.059 372.887L331.999 389.061C332.142 390.781 331.611 392.489 330.519 393.825Z" fill="#DD8C6A"/>
<path opacity="0.2" d="M320.245 367.412L322.185 379.511H322.851C324.186 379.83 325.573 379.864 326.922 379.611C328.271 379.358 329.551 378.823 330.679 378.041H330.542L329.244 366.562L320.245 367.412Z" fill="black"/>
<path d="M353.178 178.024C353.261 177.47 353.28 176.907 353.236 176.348C352.627 170.069 353.488 162.861 347.209 163.481C344.565 165.107 341.57 166.079 338.474 166.316H338.198C332.86 166.913 327.57 167.888 322.369 169.231C321.485 169.45 320.579 169.725 319.695 170.001C318.478 170.391 317.284 170.781 316.148 171.148C310.741 173.019 311.292 178.908 310.156 184.498C308.79 191.213 306.77 192.992 317.594 212.667C319.178 215.571 317.674 223.078 320.808 225.294C328.028 230.413 355.049 221.965 355.049 221.965C355.049 221.965 349.631 198.697 353.178 178.024Z" fill="#407BFF"/>
<g opacity="0.2">
<path opacity="0.2" d="M353.178 178.024C353.261 177.47 353.28 176.907 353.236 176.348C352.627 170.069 353.488 162.861 347.209 163.481C344.565 165.107 341.57 166.079 338.474 166.316H338.198C332.86 166.913 327.57 167.888 322.369 169.231C321.485 169.45 320.579 169.725 319.695 170.001C318.478 170.391 317.284 170.781 316.148 171.148C310.741 173.019 311.292 178.908 310.156 184.498C308.79 191.213 306.77 192.992 317.594 212.667C319.178 215.571 317.674 223.078 320.808 225.294C328.028 230.413 355.049 221.965 355.049 221.965C355.049 221.965 349.631 198.697 353.178 178.024Z" fill="white"/>
</g>
<path d="M320.807 225.374C320.807 225.374 318.063 269.682 315.733 303.717C313.874 330.772 318.316 377.112 318.316 377.112C323.085 378.426 328.18 377.816 332.504 375.413C332.504 375.413 335.362 332.861 333.732 307.034C344.166 269.498 359.123 234.098 348.815 220.025L320.807 225.374Z" fill="#263238"/>
<path opacity="0.3" d="M336.855 251.683L351.329 243.74C349.149 257.147 343.593 273.952 338.152 291.951C334.456 277.545 332.86 262.554 336.855 251.683Z" fill="black"/>
<path d="M327.568 224.066C327.568 224.066 335.867 261.085 341.343 294.086C343.581 317.801 367.87 382.966 367.87 382.966L372.267 382.197C374.356 381.838 376.304 380.904 377.891 379.499L379.395 378.168C379.395 378.168 372.691 331.105 365.712 312.739C366.585 274.584 368.456 231.963 354.348 218.889L327.568 224.066Z" fill="#263238"/>
<path d="M321.312 170.597C320.589 172.698 319.522 176.474 320.429 178.001C320.555 177.163 322.265 174.443 323.493 175.705C323.895 176.091 324.249 176.522 324.549 176.991L326.845 180.687C327.167 181.215 327.591 181.835 328.211 181.835C328.831 181.835 329.508 181.169 329.898 180.526L332.286 176.555C332.764 175.588 333.483 174.762 334.375 174.156C335.305 173.628 338.645 174.799 339.185 175.728C339.311 173.272 339.965 168.072 339.782 166.649C339.598 165.225 336.774 163.205 335.362 162.918C334.399 162.807 333.424 162.97 332.55 163.389C328.555 164.927 322.873 166.109 321.312 170.597Z" fill="white"/>
<path d="M333.228 156.215C333.641 160.244 334.697 164.33 337.085 165.937C337.085 165.937 339.598 169.174 331.07 175.224C329.658 176.314 327.557 177.462 326.306 176.188C323.689 173.444 323.7 170.953 324.137 169.392C324.405 168.542 324.916 167.788 325.606 167.223C327.488 165.513 326.329 163.469 324.653 157.271L328.602 154.895C328.93 154.513 329.36 154.234 329.842 154.09C330.324 153.946 330.837 153.944 331.321 154.083C331.804 154.222 332.237 154.497 332.569 154.874C332.901 155.252 333.118 155.717 333.193 156.215H333.228Z" fill="#DD8C6A"/>
<path opacity="0.2" d="M328.614 154.86C328.921 154.485 329.326 154.201 329.784 154.041C330.243 153.881 330.736 153.85 331.211 153.952C331.685 154.054 332.122 154.285 332.474 154.619C332.826 154.954 333.079 155.379 333.205 155.847C331.746 159.035 329.342 161.696 326.318 163.469C326.192 161.851 324.963 160.198 324.389 158.671C324.206 158.166 324.872 157.741 324.642 157.248L328.614 154.86Z" fill="black"/>
<path d="M328.992 127.632C328.013 126.818 326.844 126.264 325.594 126.023C324.343 125.782 323.052 125.862 321.841 126.255C319.425 127.069 317.254 128.478 315.527 130.353C312.317 133.46 309.947 137.33 308.64 141.602C307.363 145.894 307.586 150.493 309.272 154.642C310.037 156.647 311.384 158.378 313.14 159.612C314.594 160.448 316.238 160.895 317.915 160.911C319.591 160.927 321.244 160.512 322.713 159.704C325.632 158.042 328.02 155.586 329.6 152.622C331.804 148.857 335.489 139.49 332.08 132.339C331.354 130.591 330.307 128.994 328.992 127.632Z" fill="#263238"/>
<path d="M334.57 155.514C331.023 156.915 329.095 158.189 328.268 157.489C327.224 156.582 330.369 152.289 330.622 150.923C330.883 149.48 331.447 148.11 332.279 146.903C333.11 145.696 334.188 144.679 335.443 143.921C336.718 143.196 338.16 142.815 339.627 142.815C341.094 142.815 342.535 143.196 343.811 143.921C344.554 144.35 345.197 144.932 345.697 145.628C346.198 146.325 346.545 147.12 346.715 147.961C346.99 149.694 345.487 150.785 344.235 151.784C341.503 153.953 337.899 154.206 334.57 155.514Z" fill="#263238"/>
<path d="M336.213 141.453C335.96 149.591 336.029 153.035 332.126 157.42C326.249 163.997 316.515 162.137 314.334 154.137C312.406 146.94 313.129 134.852 320.843 131.179C328.556 127.506 336.454 133.314 336.213 141.453Z" fill="#DD8C6A"/>
<path d="M333.309 141.637C331.656 142.452 331.851 150.108 335.777 149.832C339.702 149.557 338.669 138.973 333.309 141.637Z" fill="#263238"/>
<path d="M338.244 148.903C337.914 150.443 337.006 151.798 335.708 152.691C333.974 153.838 332.516 152.449 332.505 150.475C332.494 148.501 333.377 145.953 335.352 145.585C335.787 145.512 336.234 145.552 336.65 145.701C337.065 145.849 337.436 146.102 337.726 146.435C338.016 146.768 338.216 147.169 338.307 147.601C338.398 148.033 338.376 148.481 338.244 148.903Z" fill="#DD8C6A"/>
<path d="M328.086 126.783C316.986 128.677 317.755 136.046 327.328 140.764C332.631 143.37 339.679 149.35 335.168 158.889C333.733 161.931 351.87 150.659 346.785 143.967C337.016 131.248 336.638 123.948 328.086 126.783Z" fill="#263238"/>
<path d="M322.885 144.644C322.885 145.298 322.598 145.861 322.15 145.872C321.703 145.884 321.37 145.379 321.347 144.724C321.324 144.07 321.645 143.496 322.082 143.485C322.518 143.473 322.862 143.978 322.885 144.644Z" fill="#263238"/>
<path d="M315.539 145.023C315.539 145.677 315.252 146.228 314.804 146.251C314.357 146.274 314.024 145.769 314.001 145.103C313.978 144.437 314.299 143.886 314.735 143.863C315.172 143.84 315.516 144.368 315.539 145.023Z" fill="#263238"/>
<path d="M314.943 143.875L313.37 143.496C313.37 143.496 314.197 144.724 314.943 143.875Z" fill="#263238"/>
<path d="M318.03 145.861C317.551 147.599 316.844 149.266 315.929 150.819C316.322 151.039 316.758 151.168 317.207 151.198C317.656 151.228 318.105 151.157 318.523 150.992L318.03 145.861Z" fill="#D17B56"/>
<path d="M325.181 141.809C325.117 141.795 325.059 141.759 325.021 141.705C324.735 141.335 324.365 141.037 323.942 140.838C323.519 140.638 323.055 140.542 322.587 140.557C322.487 140.567 322.387 140.538 322.308 140.476C322.229 140.414 322.177 140.324 322.162 140.225C322.153 140.123 322.183 140.021 322.248 139.942C322.312 139.862 322.405 139.811 322.507 139.8C323.11 139.761 323.714 139.871 324.265 140.121C324.816 140.372 325.296 140.754 325.663 141.235C325.725 141.318 325.752 141.421 325.739 141.524C325.727 141.627 325.675 141.72 325.595 141.786C325.536 141.831 325.465 141.857 325.391 141.861C325.318 141.865 325.245 141.847 325.181 141.809Z" fill="#263238"/>
<path d="M312.555 141.659V141.591C312.528 141.548 312.51 141.5 312.502 141.45C312.493 141.4 312.495 141.349 312.507 141.3C312.519 141.251 312.54 141.204 312.57 141.164C312.6 141.123 312.638 141.088 312.682 141.063C313.19 140.741 313.769 140.547 314.369 140.499C314.969 140.451 315.572 140.55 316.125 140.787C316.218 140.834 316.288 140.916 316.321 141.015C316.353 141.114 316.345 141.222 316.297 141.315C316.25 141.408 316.168 141.478 316.069 141.511C315.97 141.543 315.862 141.534 315.769 141.487C315.325 141.297 314.84 141.218 314.358 141.258C313.875 141.298 313.41 141.455 313.003 141.717C312.932 141.757 312.85 141.772 312.77 141.762C312.689 141.752 312.614 141.716 312.555 141.659Z" fill="#263238"/>
<path d="M322.265 143.507L320.693 143.129C320.693 143.129 321.531 144.334 322.265 143.507Z" fill="#263238"/>
<path d="M318.386 152.897C321.025 152.144 323.739 151.682 326.478 151.52C326.34 152.667 325.79 153.724 324.931 154.497C324.072 155.269 322.962 155.704 321.806 155.721C321.396 155.764 320.981 155.724 320.586 155.605C320.19 155.485 319.823 155.289 319.504 155.026C319.186 154.763 318.923 154.439 318.731 154.074C318.539 153.708 318.422 153.308 318.386 152.897Z" fill="#263238"/>
<path d="M323.035 153.965C321.83 154.005 320.678 154.473 319.787 155.285C320.382 155.655 321.089 155.805 321.784 155.709C322.989 155.669 324.141 155.201 325.032 154.389C324.437 154.019 323.73 153.869 323.035 153.965Z" fill="#FF5652"/>
<path d="M318.65 152.805C318.72 153.041 318.855 153.252 319.04 153.415C319.225 153.577 319.452 153.684 319.694 153.724C321.479 153.547 323.244 153.201 324.963 152.69C325.253 152.627 325.522 152.487 325.74 152.286C325.958 152.084 326.118 151.827 326.203 151.543C323.653 151.743 321.126 152.165 318.65 152.805Z" fill="white"/>
<path d="M387.821 119.769L384.377 109.817L393.399 109.726C393.446 112.834 393.197 115.94 392.653 119L387.821 119.769Z" fill="#DD8C6A"/>
<path d="M387.384 103.55L389.531 103.756C389.966 103.796 390.382 103.954 390.734 104.213C391.086 104.472 391.361 104.822 391.528 105.226L393.399 109.702L384.377 109.794L384.756 105.731C384.785 105.415 384.875 105.108 385.023 104.827C385.171 104.546 385.373 104.297 385.617 104.094C385.861 103.892 386.143 103.739 386.446 103.646C386.75 103.553 387.068 103.52 387.384 103.55Z" fill="#DD8C6A"/>
<path d="M386.994 116.831L390.288 116.452C390.858 116.402 391.431 116.494 391.956 116.72C392.481 116.946 392.941 117.3 393.296 117.749C393.65 118.197 393.887 118.727 393.985 119.29C394.083 119.854 394.04 120.433 393.858 120.975L392.228 125.451L386.053 124.418L386.994 116.831Z" fill="#407BFF"/>
<path opacity="0.2" d="M386.994 116.831L390.495 116.429C391.047 116.364 391.607 116.442 392.121 116.655C392.634 116.867 393.085 117.208 393.431 117.644C393.776 118.08 394.003 118.597 394.092 119.145C394.181 119.694 394.128 120.257 393.939 120.779L392.228 125.509L386.053 124.476L386.994 116.831Z" fill="black"/>
<path d="M392.733 126.083C392.733 126.083 386.374 153.965 353.969 179.459C345.59 186.071 338.106 168.371 347.185 163.446C353.923 159.784 368.605 152.427 374.321 142.991C380.038 133.556 379.98 126.806 386.03 124.384C392.079 121.962 392.733 126.083 392.733 126.083Z" fill="#407BFF"/>
<path opacity="0.2" d="M392.733 126.083C392.733 126.083 386.374 153.965 353.969 179.459C345.59 186.071 338.106 168.371 347.185 163.446C353.923 159.784 368.605 152.427 374.321 142.991C380.038 133.556 379.98 126.806 386.03 124.384C392.079 121.962 392.733 126.083 392.733 126.083Z" fill="white"/>
<path d="M62.3419 387.66L62.1353 397.016L71.1461 398.278L72.1218 388.074L62.3419 387.66Z" fill="#E2A29C"/>
<path d="M73.0748 399.013C73.0249 399.001 72.9803 398.973 72.9472 398.934C72.9142 398.895 72.8945 398.846 72.8911 398.795C72.8846 398.745 72.8945 398.695 72.9194 398.651C72.9443 398.608 72.9827 398.574 73.0289 398.554C73.201 398.474 77.0235 396.683 78.7682 397.314C78.9269 397.368 79.0735 397.452 79.1995 397.563C79.3256 397.673 79.4287 397.807 79.5029 397.957C79.6053 398.122 79.6537 398.314 79.6414 398.508C79.629 398.701 79.5565 398.886 79.434 399.036C78.9519 399.564 77.5859 399.69 76.2888 399.576C75.2023 399.488 74.1264 399.3 73.0748 399.013ZM73.8898 398.703C75.8182 399.105 78.4813 399.312 79.0093 398.703C79.0782 398.623 79.1585 398.485 79.0093 398.152C78.9674 398.058 78.9041 397.974 78.8244 397.909C78.7447 397.843 78.6508 397.797 78.5501 397.773C78.4031 397.716 78.2484 397.681 78.091 397.67C76.6378 397.745 75.212 398.096 73.8898 398.703Z" fill="#407BFF"/>
<path d="M72.9484 398.99C72.9128 398.964 72.8852 398.929 72.869 398.889C72.8527 398.848 72.8484 398.803 72.8566 398.76C72.8566 398.623 73.3961 395.833 74.8195 394.846C75.021 394.7 75.2503 394.598 75.4932 394.544C75.7361 394.491 75.9873 394.488 76.2313 394.536C76.9086 394.662 77.0923 395.018 77.0923 395.305C77.2185 396.453 74.521 398.565 73.2239 399.013H73.1091C73.0823 399.021 73.054 399.023 73.0263 399.019C72.9985 399.015 72.972 399.005 72.9484 398.99ZM76.0247 394.984C75.711 394.958 75.3981 395.043 75.1409 395.225C74.288 396.066 73.7115 397.147 73.4879 398.324C74.8424 397.67 76.6446 396.028 76.6331 395.305C76.6331 395.248 76.6331 395.064 76.1625 394.984H76.0247Z" fill="#407BFF"/>
<path d="M72.1331 397.463L60.6543 396.522C60.4461 396.505 60.2382 396.559 60.065 396.676C59.8917 396.793 59.7636 396.965 59.7016 397.165L56.8663 406.29C56.7437 406.678 56.78 407.099 56.9672 407.461C57.1544 407.822 57.4772 408.095 57.865 408.219C57.9692 408.254 58.077 408.277 58.1864 408.288C62.3073 408.552 65.9919 408.632 71.1115 409.057C77.1608 409.562 75.5652 410.205 82.6706 410.847C86.9636 411.261 88.1459 406.451 86.3438 406.061C78.1135 404.327 77.4592 401.745 74.4977 398.496C73.8598 397.878 73.02 397.511 72.1331 397.463Z" fill="#263238"/>
<path opacity="0.2" d="M71.594 393.583L62.2158 393.147L62.3191 388.372L71.9842 389.589L71.594 393.583Z" fill="#E2A29C"/>
<path d="M106.569 388.372L107.189 397.716L116.269 398.175L116.349 387.924L106.569 388.372Z" fill="#E2A29C"/>
<path d="M118.266 398.703C118.216 398.691 118.169 398.666 118.133 398.629C118.096 398.593 118.071 398.547 118.059 398.496C118.053 398.447 118.061 398.396 118.084 398.351C118.106 398.306 118.142 398.269 118.186 398.244C118.346 398.152 121.996 396.029 123.753 396.499C124.077 396.59 124.356 396.798 124.533 397.085C124.647 397.241 124.708 397.43 124.708 397.624C124.708 397.818 124.647 398.007 124.533 398.164C124.109 398.726 122.766 398.979 121.457 398.979C120.387 398.978 119.32 398.886 118.266 398.703ZM119.069 398.37C121.021 398.6 123.661 398.565 124.154 397.877C124.223 397.785 124.292 397.636 124.154 397.326C124.107 397.234 124.038 397.156 123.955 397.096C123.871 397.036 123.774 396.997 123.672 396.981C123.512 396.964 123.351 396.964 123.19 396.981C121.738 397.186 120.339 397.67 119.069 398.405V398.37Z" fill="#407BFF"/>
<path d="M118.128 398.703C118.093 398.676 118.064 398.642 118.044 398.602C118.024 398.562 118.014 398.518 118.014 398.473C118.014 398.347 118.301 395.512 119.621 394.398C119.812 394.238 120.033 394.117 120.272 394.044C120.51 393.971 120.761 393.947 121.01 393.974C121.698 394.031 121.905 394.375 121.939 394.662C122.169 395.81 119.644 398.106 118.404 398.703C118.37 398.714 118.334 398.714 118.301 398.703C118.244 398.72 118.185 398.72 118.128 398.703ZM120.849 394.444C120.535 394.446 120.231 394.555 119.988 394.754C119.208 395.667 118.728 396.797 118.611 397.991C119.908 397.211 121.549 395.42 121.48 394.708C121.48 394.639 121.48 394.467 120.987 394.433L120.849 394.444Z" fill="#407BFF"/>
<path d="M117.188 397.28L105.709 397.348C105.499 397.347 105.295 397.418 105.132 397.55C104.969 397.682 104.856 397.866 104.814 398.072L102.793 407.415C102.707 407.809 102.779 408.221 102.994 408.563C103.209 408.904 103.549 409.147 103.941 409.24C104.048 409.258 104.156 409.258 104.263 409.24C108.395 409.137 112.068 408.885 117.211 408.862C123.283 408.862 121.745 409.562 128.885 409.619C133.189 409.619 133.947 404.752 132.122 404.523C123.765 403.524 122.939 401.01 119.644 398.049C118.946 397.503 118.073 397.229 117.188 397.28Z" fill="#263238"/>
<path opacity="0.2" d="M116.303 393.457L106.925 393.848L106.615 389.084L116.338 389.451L116.303 393.457Z" fill="#E2A29C"/>
<path d="M84.645 205.585L99.7396 306.598L103.895 391.219L118.037 389.704C118.037 389.704 121.182 347.45 119.495 303.016C117.991 262.841 111.689 220.932 110.897 207.547L105.812 198.227L95.4006 199.375L84.645 205.585Z" fill="#407BFF"/>
<g opacity="0.1">
<path opacity="0.1" d="M84.645 205.585L99.7396 306.598L103.895 391.219L118.037 389.704C118.037 389.704 121.182 347.45 119.495 303.016C117.991 262.841 111.689 220.932 110.897 207.547L105.812 198.227L95.4006 199.375L84.645 205.585Z" fill="white"/>
</g>
<path d="M70.1936 205.011L59.9546 389.818L73.5913 390.565C73.5913 390.565 94.1613 241.341 97.008 213L91.4064 201.05L81.3739 200.499L70.1936 205.011Z" fill="#407BFF"/>
<g opacity="0.1">
<path opacity="0.1" d="M70.1936 205.011L59.9546 389.818L73.5913 390.565C73.5913 390.565 94.1613 241.341 97.008 213L91.4064 201.05L81.3739 200.499L70.1936 205.011Z" fill="white"/>
</g>
<path opacity="0.2" d="M91.9336 254.346L95.8823 280.736L93.4258 234.396L91.9336 254.346Z" fill="black"/>
<path d="M131.754 175.43C129.153 173.963 126.636 172.354 124.212 170.609L129.665 163.894L131.961 165.042L137.321 140.328L138.102 136.884C138.102 136.884 142.693 135.817 142.774 141.017L142.555 156.788C142.555 157.305 142.555 157.81 142.555 158.292C142.039 170.15 137.562 177.381 134.589 176.601C133.636 176.317 132.717 175.933 131.846 175.453" fill="#B55B52"/>
<path d="M155.239 108.876C154.264 107.349 152.106 106.752 151.382 107.223C150.659 107.694 150.866 109.301 151.842 110.827C152.817 112.354 154.206 113.203 154.929 112.744C155.416 112.232 155.712 111.569 155.768 110.865C155.824 110.161 155.638 109.459 155.239 108.876Z" fill="#407BFF"/>
<path d="M136.954 141.395L137.39 138.066C137.648 136.017 138.539 134.099 139.938 132.58L141.889 130.467C141.98 130.368 142.089 130.287 142.21 130.229C142.332 130.172 142.464 130.139 142.598 130.133C142.733 130.126 142.867 130.146 142.994 130.192C143.12 130.238 143.236 130.308 143.336 130.399C145.375 132.159 146.968 134.378 147.985 136.873C148.087 137.189 148.106 137.526 148.04 137.852C147.973 138.178 147.824 138.481 147.606 138.732L143.37 143.186C142.716 143.966 141.855 144.483 140.994 143.932L136.954 141.395Z" fill="#E2A29C"/>
<path d="M142.51 156.811V158.326C142.487 157.833 142.498 157.328 142.51 156.811Z" fill="#B25B52"/>
<path d="M112.423 218.487C112.084 215.088 112.042 211.665 112.297 208.259C115.58 175.9 115.293 155.847 115.109 150.142C115.098 149.637 114.933 149.148 114.638 148.738C114.343 148.329 113.931 148.018 113.456 147.846C91.1647 139.811 73.8662 143.519 68.2761 145.137C67.7323 145.294 67.2575 145.63 66.9283 146.091C66.5992 146.551 66.435 147.109 66.4624 147.674C66.9445 157.282 69.0566 200.476 68.9189 216.076C68.9189 218.372 68.5515 223.859 68.3449 226.901C68.306 227.499 68.4824 228.092 68.8424 228.572C69.2024 229.052 69.7221 229.387 70.3078 229.518C75.324 230.666 87.9047 232.961 92.0256 228.691C92.4759 228.229 93.0906 227.964 93.7356 227.953C94.3806 227.943 95.0038 228.187 95.4692 228.634C96.9844 230.011 99.5212 231.32 103.665 231.251C107.614 231.194 110.219 230.998 111.884 230.803C112.227 230.761 112.557 230.649 112.854 230.473C113.151 230.297 113.409 230.061 113.61 229.781C113.812 229.5 113.953 229.181 114.025 228.844C114.098 228.506 114.099 228.157 114.03 227.819C113.433 224.984 112.573 220.495 112.423 218.487Z" fill="#263238"/>
<path d="M96.204 144.173L94.6774 130.571L85.1041 127.035L84.2202 143.622L88.5477 147.858L93.6902 147.915L97.3634 144.322L96.204 144.173Z" fill="#E2A29C"/>
<path d="M98.2927 143.301C98.2124 144.001 96.548 161.804 93.7012 187.069L81.3042 142.566L82.0388 142.451L90.1773 147.043L92.7256 147.181L97.6844 143.117H97.7532L98.2927 143.301Z" fill="white"/>
<path d="M83.2326 142.245L91.8302 147.181L87.8471 151.887L81.2583 142.578L83.2326 142.245Z" fill="#407BFF"/>
<path opacity="0.7" d="M83.2326 142.245L91.8302 147.181L87.8471 151.887L81.2583 142.578L83.2326 142.245Z" fill="white"/>
<path d="M98.2932 143.289V143.301L94.8611 152.277L91.6126 147.445L91.4175 147.158L91.5667 147.02L96.514 142.91L97.639 143.151L97.7078 143.163L98.2932 143.289Z" fill="#407BFF"/>
<path opacity="0.7" d="M98.2932 143.289V143.301L94.8611 152.277L91.6126 147.445L91.4175 147.158L91.5667 147.02L96.514 142.91L97.639 143.151L97.7078 143.163L98.2932 143.289Z" fill="white"/>
<path opacity="0.1" d="M84.6792 134.749C86.2977 137.516 90.1201 140.018 95.8825 141.338L94.9871 133.716L85.0121 130.02L84.6792 134.749Z" fill="black"/>
<path d="M135.783 144.552L135.886 140.534C139.118 140.029 142.422 140.772 145.126 142.612L142.831 146.653L135.783 144.552Z" fill="#407BFF"/>
<path opacity="0.8" d="M135.783 144.552L135.886 140.534C139.118 140.029 142.422 140.772 145.126 142.612L142.831 146.653L135.783 144.552Z" fill="white"/>
<path d="M111.196 116.555C110.782 118.128 109.095 119.471 107.545 118.954C107.909 119.248 108.194 119.627 108.376 120.058C108.558 120.488 108.632 120.957 108.59 121.422C108.468 121.754 108.239 122.036 107.94 122.225C107.642 122.414 107.289 122.499 106.937 122.467C107.191 123.205 107.241 123.997 107.081 124.761C106.922 125.525 106.558 126.232 106.03 126.806C105.457 127.433 104.739 127.91 103.938 128.195C103.137 128.479 102.279 128.562 101.439 128.436C101.439 130.158 99.4183 131.776 97.8457 131.099C95.55 132.178 94.0233 133.395 91.7505 134.542C92.4048 129.297 87.7788 134.542 85.2994 134.542C83.0037 133.395 81.477 132.178 79.2042 131.099C77.6201 131.776 75.5769 130.158 75.5999 128.436C74.7596 128.56 73.9018 128.476 73.1014 128.192C72.301 127.908 71.5824 127.432 71.0084 126.806C70.4822 126.23 70.1204 125.524 69.9609 124.76C69.8014 123.997 69.85 123.205 70.1016 122.467C69.7511 122.498 69.4001 122.413 69.1032 122.224C68.8063 122.035 68.5802 121.753 68.4601 121.422C68.4189 120.958 68.4914 120.491 68.6714 120.061C68.8515 119.631 69.1335 119.251 69.4932 118.954C67.9436 119.471 66.2562 118.128 65.8544 116.555C65.5765 114.93 65.8598 113.258 66.6579 111.815C67.5188 109.944 68.9537 108.199 71.0084 108.578C70.8538 108.222 70.8074 107.829 70.8747 107.447C70.9421 107.066 71.1203 106.712 71.3872 106.431C71.9267 105.88 73.2123 105.283 73.9125 105.582C73.623 104.648 73.5764 103.657 73.7773 102.701C73.9782 101.745 74.4198 100.855 75.0604 100.118C75.9292 99.3555 76.9521 98.7897 78.0595 98.4589C79.1668 98.1281 80.3325 98.04 81.477 98.2008C81.2666 97.3305 81.3153 96.4177 81.617 95.5747C81.9187 94.7317 82.4603 93.9954 83.1751 93.4562C83.8899 92.9171 84.7467 92.5987 85.6401 92.5402C86.5336 92.4817 87.4246 92.6858 88.2036 93.1271L88.4676 93.2764L88.7201 93.1271C89.4991 92.6858 90.3901 92.4817 91.2835 92.5402C92.177 92.5987 93.0338 92.9171 93.7486 93.4562C94.4634 93.9954 95.005 94.7317 95.3067 95.5747C95.6084 96.4177 95.657 97.3305 95.4467 98.2008C96.593 98.0383 97.7608 98.1255 98.8703 98.4564C99.9798 98.7872 101.005 99.354 101.875 100.118C102.515 100.855 102.957 101.745 103.158 102.701C103.359 103.657 103.312 104.648 103.023 105.582C103.723 105.26 105.008 105.88 105.548 106.431C105.817 106.711 105.997 107.064 106.067 107.445C106.136 107.827 106.091 108.221 105.938 108.578C107.958 108.199 109.382 109.944 110.277 111.815C111.109 113.246 111.432 114.917 111.196 116.555Z" fill="#263238"/>
<path d="M78.7107 117.37C79.1469 125.704 79.1699 129.228 83.3022 133.532C89.5696 140.018 99.7053 137.642 101.772 129.354C103.62 121.893 102.587 109.473 94.4481 106.144C92.6606 105.39 90.7099 105.106 88.7816 105.318C86.8533 105.531 85.0113 106.233 83.4308 107.358C81.8503 108.483 80.5837 109.993 79.7516 111.746C78.9194 113.498 78.5492 115.435 78.6763 117.37H78.7107Z" fill="#E2A29C"/>
<path d="M91.9678 119.655C91.9678 120.343 92.3236 120.894 92.7598 120.906C93.196 120.917 93.5633 120.355 93.5748 119.677C93.5863 119 93.219 118.449 92.7828 118.438C92.3466 118.426 92.0022 119.023 91.9678 119.655Z" fill="#263238"/>
<path d="M99.6245 119.769C99.6245 120.458 99.9804 121.009 100.417 121.009C100.853 121.009 101.22 120.469 101.232 119.792C101.243 119.115 100.876 118.552 100.44 118.564C100.003 118.575 99.636 119.069 99.6245 119.769Z" fill="#263238"/>
<path d="M97.2488 120.917C97.8476 122.467 98.6505 123.93 99.6364 125.268C99.2866 125.508 98.8894 125.67 98.4715 125.743C98.0537 125.817 97.6249 125.799 97.2144 125.692L97.2488 120.917Z" fill="#D3958F"/>
<path d="M88.8114 117.76C88.8926 117.781 88.9782 117.774 89.0551 117.741C89.1319 117.708 89.1956 117.65 89.2361 117.577C89.6328 117.063 90.1312 116.637 90.7 116.325C91.2688 116.013 91.8959 115.822 92.542 115.763C92.6475 115.752 92.7446 115.7 92.813 115.619C92.8814 115.537 92.9159 115.433 92.9093 115.327C92.9066 115.275 92.8932 115.224 92.8699 115.178C92.8467 115.131 92.8142 115.09 92.7743 115.057C92.7345 115.023 92.6882 114.998 92.6384 114.984C92.5885 114.969 92.5362 114.965 92.4846 114.971C91.7088 115.034 90.956 115.265 90.2781 115.647C89.6003 116.03 89.0137 116.555 88.5589 117.187C88.5325 117.232 88.5154 117.281 88.5087 117.333C88.5019 117.385 88.5056 117.437 88.5195 117.488C88.5334 117.538 88.5573 117.585 88.5897 117.626C88.6221 117.667 88.6623 117.701 88.7081 117.726C88.7379 117.748 88.7742 117.76 88.8114 117.76Z" fill="#263238"/>
<path d="M101.955 116.544C102.025 116.557 102.098 116.553 102.166 116.531C102.235 116.509 102.296 116.47 102.345 116.417C102.419 116.342 102.46 116.241 102.46 116.136C102.46 116.031 102.419 115.93 102.345 115.855C101.889 115.404 101.329 115.073 100.714 114.89C100.1 114.708 99.4493 114.681 98.8214 114.81C98.7726 114.82 98.7262 114.839 98.685 114.867C98.6439 114.895 98.6088 114.931 98.582 114.973C98.5552 115.015 98.5371 115.062 98.5289 115.111C98.5207 115.16 98.5226 115.21 98.5344 115.258C98.5477 115.308 98.5708 115.355 98.6023 115.396C98.6338 115.437 98.6731 115.471 98.7179 115.497C98.7627 115.522 98.8122 115.539 98.8635 115.545C98.9147 115.551 98.9668 115.547 99.0165 115.534C99.5119 115.455 100.019 115.493 100.497 115.644C100.975 115.795 101.412 116.056 101.771 116.406C101.819 116.467 101.883 116.515 101.955 116.544Z" fill="#263238"/>
<path d="M98.0526 128.264C97.7177 129.311 97.4607 130.381 97.2836 131.466H96.6981C94.0695 131.466 92.8642 130.548 92.3133 129.584C92.0609 129.101 91.9234 128.567 91.9115 128.023C91.9031 127.714 91.934 127.405 92.0033 127.104C93.6204 127.848 95.3773 128.239 97.1573 128.252C97.7083 128.275 98.0526 128.264 98.0526 128.264Z" fill="#263238"/>
<path d="M97.1573 128.241L96.9048 129.182C94.4253 129.182 92.6806 128.78 91.9115 128.034C91.9031 127.725 91.934 127.417 92.0033 127.116C93.6222 127.852 95.379 128.235 97.1573 128.241Z" fill="white"/>
<path d="M96.6979 131.466C94.0692 131.466 92.864 130.548 92.313 129.584C93.3131 129.613 94.3001 129.819 95.2286 130.192C95.8382 130.455 96.3514 130.9 96.6979 131.466Z" fill="#DE5753"/>
<path d="M76.3919 123.764C76.9074 125.26 77.9865 126.495 79.3993 127.208C81.2933 128.103 82.6134 126.507 82.3953 124.51C82.1887 122.731 80.9604 120.102 78.9517 119.987C78.4978 119.978 78.0488 120.083 77.6463 120.292C77.2437 120.502 76.9007 120.81 76.6488 121.188C76.397 121.566 76.2446 122.001 76.2057 122.453C76.1668 122.905 76.2427 123.36 76.4263 123.775L76.3919 123.764Z" fill="#E2A29C"/>
<path d="M31.946 166.35C29.612 164.28 27.4005 162.077 25.3228 159.75C24.4971 158.553 23.8007 157.271 23.2451 155.927L19.8015 155.767C19.8015 155.767 13.5226 157.477 14.8656 161.299C16.2086 165.122 29.1222 170.276 29.1222 170.276L31.946 166.35Z" fill="#E2A29C"/>
<path d="M36.2272 167.796C36.2272 167.796 33.392 164.984 31.1995 164.513C30.4353 166.752 28.9443 168.672 26.9639 169.966L32.0375 173.306L36.2272 167.796Z" fill="#407BFF"/>
<path opacity="0.8" d="M36.2272 167.796C36.2272 167.796 33.392 164.984 31.1995 164.513C30.4353 166.752 28.9443 168.672 26.9639 169.966L32.0375 173.306L36.2272 167.796Z" fill="white"/>
<path d="M68.862 145.023C68.862 145.023 79.8816 144.908 65.2118 172.262C62.2273 177.829 56.6945 191.064 41.8525 181.846L29.7769 172.79C29.7769 172.79 33.8977 170.023 34.8964 166.143C34.8964 166.143 45.2273 170.138 51.8505 172.434C51.8505 172.434 54.8694 160.129 59.5068 151.864C59.5068 151.841 61.7911 147.399 68.862 145.023Z" fill="#263238"/>
<path d="M134.497 176.624C131.708 176.107 127.128 172.514 126.83 172.285C119.414 168.038 111.482 159.819 111.482 159.819L112.16 147.399C119.835 150.884 126.751 155.845 132.512 162L136.345 144.724C140.937 143.427 142.842 146.664 142.842 146.664C142.842 146.664 142.636 149.132 142.291 162.08C141.947 175.028 137.378 177.163 134.497 176.624Z" fill="#263238"/>
<path d="M75.4271 114.948C75.4271 115.861 75.7899 116.737 76.4357 117.383C77.0815 118.029 77.9574 118.392 78.8707 118.392C79.784 118.392 80.6599 118.029 81.3057 117.383C81.9515 116.737 82.3143 115.861 82.3143 114.948C82.7039 115.26 83.1781 115.447 83.6755 115.486C84.1728 115.525 84.6703 115.413 85.1037 115.166C85.5288 114.932 85.869 114.57 86.0752 114.13C86.2814 113.691 86.3432 113.198 86.2515 112.721C87.4904 112.776 88.7042 112.361 89.6495 111.558C90.5948 110.756 91.2016 109.625 91.3481 108.394C92.496 109.278 93.4257 109.002 94.2752 107.843C94.3084 108.292 94.4395 108.729 94.6594 109.122C94.8792 109.515 95.1824 109.855 95.5478 110.119C95.9131 110.383 96.3317 110.563 96.7741 110.648C97.2166 110.732 97.6722 110.719 98.1091 110.609C98.0982 111.215 98.2095 111.817 98.4364 112.379C98.6633 112.941 99.0011 113.452 99.4296 113.88C99.8582 114.309 100.369 114.646 100.931 114.873C101.493 115.1 102.095 115.212 102.701 115.201C102.748 115.505 102.855 115.797 103.018 116.059C103.18 116.321 103.393 116.548 103.645 116.726C103.897 116.904 104.182 117.029 104.483 117.094C104.784 117.16 105.095 117.164 105.398 117.106C105.605 116.28 105.834 115.235 106.041 114.409C103.122 112.185 100.56 109.53 98.442 106.534C97.2941 104.985 94.9983 104.238 93.2306 103.435C89.3967 101.782 84.7708 103.102 81.5797 105.731C78.3886 108.359 75.3926 115.511 75.4271 114.948Z" fill="#263238"/>
<path d="M30.2686 70.6516C30.1125 71.4465 29.779 72.196 29.2929 72.844C28.7764 73.5902 28.0762 74.1871 27.5711 74.9332C27.3989 75.1857 29.6028 77.6766 29.9701 77.6192C30.4333 77.5474 30.8693 77.3546 31.2341 77.0604C31.5989 76.7661 31.8796 76.3808 32.0478 75.9433C32.4402 74.9909 32.5284 73.9404 32.3003 72.9359C32.3003 72.5112 31.646 71.9946 31.382 71.6962C30.9812 71.3685 30.5981 71.0198 30.2342 70.6516H30.2686Z" fill="#407BFF"/>
<path d="M29.9011 112.331C29.2583 110.839 27.4905 110.15 26.0327 109.634C24.5749 109.117 22.6809 108.543 21.1887 109.266C20.7066 109.507 18.8011 112.71 19.134 113.135C19.9031 114.076 22.3251 114.053 23.4959 114.42C24.9308 114.868 26.4804 116.004 27.9841 115.958C28.4548 115.958 30.0733 112.756 29.9011 112.331Z" fill="#407BFF"/>
<path d="M52.5944 50.4031C51.3193 50.9396 50.2353 51.8476 49.4836 53.0088C48.4997 54.0133 47.8091 55.2676 47.4863 56.6361C48.106 57.7912 48.9912 58.7827 50.069 59.5287C51.1251 58.84 51.7449 57.3822 52.537 56.395C53.5354 55.4507 54.3935 54.3684 55.0853 53.181C55.2345 52.8137 52.9502 50.2883 52.5829 50.3687L52.5944 50.4031Z" fill="#407BFF"/>
<path d="M178.011 104.847C176.733 105.377 175.647 106.286 174.901 107.452C173.912 108.467 173.221 109.734 172.903 111.114C173.523 112.269 174.408 113.261 175.486 114.007C176.554 113.318 177.162 111.86 177.954 110.873C178.956 109.929 179.818 108.847 180.514 107.659C180.651 107.292 178.367 104.755 178.011 104.847Z" fill="#407BFF"/>
<path d="M172.042 136.987C171.619 137.435 171.349 138.006 171.273 138.617C171.029 139.249 170.958 139.935 171.067 140.603C171.204 141.177 172.042 141.889 172.41 142.291C172.559 142.463 173.431 143.565 173.661 143.438C174.177 143.186 174.12 142.05 174.189 141.51C174.292 140.779 174.292 140.037 174.189 139.306C174.131 138.996 172.237 136.827 172.054 137.01L172.042 136.987Z" fill="#407BFF"/>
<g opacity="0.2">
<path opacity="0.2" d="M172.042 136.987C171.619 137.435 171.349 138.006 171.273 138.617C171.029 139.249 170.958 139.935 171.067 140.603C171.204 141.177 172.042 141.889 172.41 142.291C172.559 142.463 173.431 143.565 173.661 143.438C174.177 143.186 174.12 142.05 174.189 141.51C174.292 140.779 174.292 140.037 174.189 139.306C174.131 138.996 172.237 136.827 172.054 137.01L172.042 136.987Z" fill="black"/>
</g>
<path d="M416.586 73.0507C414.635 71.8454 411.995 70.5943 409.699 70.755C409.102 70.8124 407.403 73.3721 407.254 73.3262C408.402 73.7509 409.641 73.7739 410.789 74.1068C411.984 74.4533 413.139 74.9267 414.233 75.5186C414.658 75.7482 416.621 72.9933 416.632 72.9933L416.586 73.0507Z" fill="#407BFF"/>
<path d="M212.264 198.008C210.898 199.856 209.429 202.347 209.452 204.723C209.452 205.309 211.862 207.26 211.817 207.363C212.333 206.296 212.459 205.068 212.884 203.92C213.33 202.764 213.9 201.659 214.583 200.625C214.847 200.224 212.287 198.043 212.287 198.031L212.264 198.008Z" fill="#407BFF"/>
<path d="M115.866 125.015C113.639 124.464 110.781 124.051 108.588 125.015C108.049 125.244 107.165 128.206 107.039 128.206C108.186 128.275 109.449 127.908 110.654 127.873C111.891 127.848 113.126 127.955 114.339 128.195C114.821 128.275 115.854 125.049 115.866 125.049V125.015Z" fill="#407BFF"/>
<path d="M198.8 132.752C197.181 131.11 194.955 129.308 192.613 128.918C192.027 128.826 189.72 130.892 189.628 130.823C190.604 131.5 191.832 131.833 192.877 132.43C193.945 133.056 194.945 133.791 195.861 134.623C196.217 134.956 198.788 132.74 198.8 132.752Z" fill="#407BFF"/>
<path d="M56.8417 108.669C56.6236 108.669 56.0726 109.289 56.6695 108.887C56.7499 108.761 56.8187 108.669 56.8417 108.669Z" fill="#407BFF"/>
<path d="M52.3643 118.334C52.9995 117.815 53.5261 117.175 53.9139 116.452C54.3616 114.925 54.5682 113.376 55.1536 111.86C55.3028 111.493 55.4635 111.114 55.6357 110.712C55.9708 109.708 56.4053 108.738 56.9328 107.82C55.2928 109.45 53.8623 111.277 52.6742 113.261C51.7559 114.879 50.3784 117.657 50.9179 119.563C51.4214 119.179 51.9042 118.769 52.3643 118.334Z" fill="#407BFF"/>
<path opacity="0.2" d="M52.3643 118.334C52.9995 117.815 53.5261 117.175 53.9139 116.452C54.3616 114.925 54.5682 113.376 55.1536 111.86C55.3028 111.493 55.4635 111.114 55.6357 110.712C55.9708 109.708 56.4053 108.738 56.9328 107.82C55.2928 109.45 53.8623 111.277 52.6742 113.261C51.7559 114.879 50.3784 117.657 50.9179 119.563C51.4214 119.179 51.9042 118.769 52.3643 118.334Z" fill="black"/>
<path d="M56.2102 109.668C56.2102 109.668 56.4857 109.163 56.6693 108.887C56.0724 109.289 56.6693 108.635 56.8415 108.669C56.8415 108.669 56.7497 108.761 56.6693 108.887L56.9678 108.658C59.5402 106.777 62.5754 105.63 65.749 105.34C66.3115 105.272 67.0576 104.193 67.4134 103.825C67.5856 103.642 68.6876 102.035 68.7909 102.035C64.2683 101.977 60.377 104.33 57.3121 107.487L56.9333 107.877C56.4058 108.796 55.9713 109.765 55.6362 110.77C55.8084 110.391 56.0036 110.024 56.2102 109.668Z" fill="#407BFF"/>
<path d="M416.161 89.2356C417.01 90.1424 417.814 91.0722 418.571 92.0479C419.329 93.0236 420.075 93.9992 420.775 95.0094C421.475 96.0195 422.13 97.0641 422.773 98.1201C423.415 99.1762 423.989 100.255 424.552 101.403C423.771 100.68 423.002 99.9912 422.199 99.3483C421.808 99.0116 421.407 98.6902 420.993 98.3841C420.603 98.0742 420.19 97.7643 419.777 97.4658C419.134 96.4787 418.456 95.503 417.745 94.5617C417.033 93.6204 416.298 92.7021 415.518 91.8068C414.737 90.9115 413.934 90.0735 413.096 89.247C412.254 88.4351 411.368 87.6688 410.444 86.9513C411.418 87.2288 412.376 87.5583 413.314 87.9385L414.037 88.2254L414.749 88.5468C415.223 88.7688 415.694 88.9983 416.161 89.2356Z" fill="#407BFF"/>
<g opacity="0.2">
<path opacity="0.2" d="M416.161 89.2356C417.01 90.1424 417.814 91.0722 418.571 92.0479C419.329 93.0236 420.075 93.9992 420.775 95.0094C421.475 96.0195 422.13 97.0641 422.773 98.1201C423.415 99.1762 423.989 100.255 424.552 101.403C423.771 100.68 423.002 99.9912 422.199 99.3483C421.808 99.0116 421.407 98.6902 420.993 98.3841C420.603 98.0742 420.19 97.7643 419.777 97.4658C419.134 96.4787 418.456 95.503 417.745 94.5617C417.033 93.6204 416.298 92.7021 415.518 91.8068C414.737 90.9115 413.934 90.0735 413.096 89.247C412.254 88.4351 411.368 87.6688 410.444 86.9513C411.418 87.2288 412.376 87.5583 413.314 87.9385L414.037 88.2254L414.749 88.5468C415.223 88.7688 415.694 88.9983 416.161 89.2356Z" fill="black"/>
</g>
<path d="M257.147 116.108C257.207 116.915 257.09 117.726 256.802 118.484C256.504 119.333 255.987 120.102 255.654 120.952C256.495 121.84 257.539 122.509 258.696 122.903C259.123 122.707 259.49 122.402 259.762 122.019C260.034 121.636 260.201 121.189 260.246 120.722C260.363 119.696 260.163 118.658 259.672 117.749C259.511 117.359 258.799 117.026 258.467 116.808C258 116.598 257.544 116.364 257.101 116.108H257.147Z" fill="#407BFF"/>
<path d="M270.955 160.14C269.934 158.877 268.051 158.694 266.513 158.579C264.975 158.464 262.989 158.43 261.738 159.532C261.348 159.888 260.383 163.515 260.808 163.813C261.807 164.502 264.137 163.813 265.4 163.813C266.892 163.813 268.694 164.548 270.117 164.089C270.576 163.951 271.265 160.439 270.99 160.083L270.955 160.14Z" fill="#407BFF"/>
<path d="M292.81 104.169C291.662 104.801 291.02 106.35 290.514 107.51C289.842 108.755 289.521 110.159 289.585 111.573C290.49 112.527 291.612 113.247 292.856 113.674C293.694 112.71 293.889 111.149 294.383 109.989C294.876 108.83 295.852 107.487 295.978 106.201C295.124 105.252 294.029 104.55 292.81 104.169Z" fill="#407BFF"/>
<path d="M409.331 121.25C408.241 122.101 407.44 123.268 407.035 124.59C406.354 125.833 406.029 127.239 406.094 128.654C407.003 129.602 408.125 130.322 409.366 130.754C410.204 129.79 410.399 128.229 410.892 127.07C411.386 125.91 412.362 124.579 412.488 123.282C412.488 122.891 409.653 121.066 409.32 121.25H409.331Z" fill="#407BFF"/>
<path d="M308.606 162.068C307.516 162.92 306.714 164.086 306.31 165.409C305.629 166.651 305.303 168.057 305.369 169.472C306.274 170.426 307.396 171.146 308.64 171.573C309.478 170.609 309.673 169.048 310.167 167.888C310.66 166.729 311.636 165.386 311.762 164.1C310.908 163.151 309.813 162.449 308.594 162.068H308.606Z" fill="#407BFF"/>
<path d="M379.532 139.673C379.243 140.223 379.138 140.851 379.234 141.464C379.164 142.137 379.28 142.815 379.567 143.427C379.854 143.944 380.852 144.403 381.312 144.69C381.495 144.804 382.632 145.631 382.838 145.459C383.263 145.08 382.896 144.001 382.838 143.473C382.741 142.739 382.536 142.023 382.23 141.349C381.454 140.624 380.546 140.055 379.555 139.673H379.532Z" fill="#407BFF"/>
<g opacity="0.2">
<path opacity="0.2" d="M379.532 139.673C379.243 140.223 379.138 140.851 379.234 141.464C379.164 142.137 379.28 142.815 379.567 143.427C379.854 143.944 380.852 144.403 381.312 144.69C381.495 144.804 382.632 145.631 382.838 145.459C383.263 145.08 382.896 144.001 382.838 143.473C382.741 142.739 382.536 142.023 382.23 141.349C381.454 140.624 380.546 140.055 379.555 139.673H379.532Z" fill="black"/>
</g>
<path d="M358.285 107.717C357.997 108.266 357.893 108.894 357.987 109.507C357.921 110.181 358.04 110.859 358.331 111.47C358.607 111.987 359.605 112.446 360.065 112.733C360.26 112.848 361.396 113.674 361.591 113.502C362.016 113.135 361.649 112.044 361.591 111.516C361.5 110.781 361.294 110.065 360.983 109.393C360.207 108.667 359.299 108.098 358.308 107.717H358.285Z" fill="#407BFF"/>
<g opacity="0.2">
<path opacity="0.2" d="M358.285 107.717C357.997 108.266 357.893 108.894 357.987 109.507C357.921 110.181 358.04 110.859 358.331 111.47C358.607 111.987 359.605 112.446 360.065 112.733C360.26 112.848 361.396 113.674 361.591 113.502C362.016 113.135 361.649 112.044 361.591 111.516C361.5 110.781 361.294 110.065 360.983 109.393C360.207 108.667 359.299 108.098 358.308 107.717H358.285Z" fill="black"/>
</g>
<path d="M393.951 89.5917C393.124 91.7382 392.389 94.5275 393.055 96.8118C393.216 97.3743 396.063 98.6025 396.04 98.7173C396.246 97.5694 396.04 96.2953 396.131 95.1015C396.253 93.8696 396.503 92.6539 396.878 91.4742C397.027 91.015 393.939 89.6032 393.951 89.5917Z" fill="#407BFF"/>
<path d="M361.328 124.441C360.513 126.599 359.766 129.388 360.432 131.661C360.593 132.235 363.44 133.452 363.417 133.578C363.623 132.43 363.417 131.145 363.509 129.951C363.628 128.718 363.882 127.502 364.266 126.324C364.404 125.865 361.316 124.453 361.328 124.441Z" fill="#407BFF"/>
<path d="M332.068 110.403C331.253 112.549 330.518 115.339 331.172 117.623C331.345 118.185 334.18 119.414 334.168 119.528C334.375 118.38 334.168 117.106 334.26 115.913C334.381 114.681 334.631 113.465 335.006 112.285C335.144 111.826 332.068 110.414 332.068 110.403Z" fill="#407BFF"/>
<path d="M417.538 148.879C415.243 148.879 412.373 149.315 410.525 150.796C410.066 151.164 410.008 154.24 409.894 154.24C411.041 153.987 412.132 153.299 413.28 152.954C414.464 152.594 415.684 152.363 416.919 152.266C417.401 152.266 417.527 148.822 417.538 148.822V148.879Z" fill="#407BFF"/>
<path d="M381.369 171.424C379.372 170.276 376.777 169.128 374.378 169.392C373.793 169.461 372.083 172.078 372.014 172.043C373.162 172.434 374.424 172.411 375.584 172.709C376.774 173.025 377.928 173.464 379.027 174.018C379.452 174.236 381.323 171.412 381.323 171.424H381.369Z" fill="#407BFF"/>
<path d="M302.579 132.029C302.808 132.029 303.417 131.501 302.785 131.845C302.693 131.96 302.613 132.04 302.579 132.029Z" fill="#407BFF"/>
<path d="M308.055 122.857C307.538 123.305 306.597 123.924 306.333 124.579C305.736 126.048 305.369 127.586 304.634 128.998C304.45 129.365 304.255 129.721 304.049 130.066C303.617 131.03 303.09 131.949 302.476 132.809C304.272 131.357 305.877 129.683 307.251 127.827C308.33 126.301 309.972 123.672 309.627 121.721C309.558 121.663 308.055 122.823 308.055 122.857Z" fill="#407BFF"/>
<path opacity="0.2" d="M308.055 122.857C307.538 123.305 306.597 123.924 306.333 124.579C305.736 126.048 305.369 127.586 304.634 128.998C304.45 129.365 304.255 129.721 304.049 130.066C303.617 131.03 303.09 131.949 302.476 132.809C304.272 131.357 305.877 129.683 307.251 127.827C308.33 126.301 309.972 123.672 309.627 121.721C309.558 121.663 308.055 122.823 308.055 122.857Z" fill="black"/>
<path d="M303.313 131.099C303.313 131.099 302.992 131.581 302.785 131.845C303.417 131.501 302.785 132.086 302.579 132.029C302.579 132.029 302.694 131.96 302.785 131.845L302.464 132.029C299.719 133.651 296.584 134.496 293.396 134.474C292.833 134.474 291.984 135.461 291.582 135.817C291.398 135.977 290.136 137.469 290.044 137.458C294.532 137.963 298.642 135.966 302.005 133.165L302.418 132.809C303.032 131.949 303.559 131.03 303.991 130.066C303.782 130.421 303.556 130.766 303.313 131.099Z" fill="#407BFF"/>
<path d="M48.5314 244.428C47.3032 244.233 46.0979 243.981 44.9042 243.682C43.7104 243.384 42.5166 243.051 41.3457 242.684C40.1749 242.316 39.05 241.892 37.9021 241.444C36.7542 240.996 35.6064 240.503 34.4585 239.975C35.5031 240.067 36.5361 240.135 37.5692 240.158H39.1074H40.6341C41.7819 240.549 42.9298 240.904 44.0203 241.214C45.1108 241.524 46.316 241.8 47.4639 242.029C48.6118 242.259 49.7597 242.431 50.9075 242.569C52.0554 242.707 53.2033 242.741 54.3512 242.741C53.4329 243.097 52.4687 243.441 51.4815 243.717L50.7354 243.923L49.9778 244.096C49.5531 244.222 49.048 244.325 48.5314 244.428Z" fill="#407BFF"/>
<g opacity="0.2">
<path opacity="0.2" d="M48.5314 244.428C47.3032 244.233 46.0979 243.981 44.9042 243.682C43.7104 243.384 42.5166 243.051 41.3457 242.684C40.1749 242.316 39.05 241.892 37.9021 241.444C36.7542 240.996 35.6064 240.503 34.4585 239.975C35.5031 240.067 36.5361 240.135 37.5692 240.158H39.1074H40.6341C41.7819 240.549 42.9298 240.904 44.0203 241.214C45.1108 241.524 46.316 241.8 47.4639 242.029C48.6118 242.259 49.7597 242.431 50.9075 242.569C52.0554 242.707 53.2033 242.741 54.3512 242.741C53.4329 243.097 52.4687 243.441 51.4815 243.717L50.7354 243.923L49.9778 244.096C49.5531 244.222 49.048 244.325 48.5314 244.428Z" fill="black"/>
</g>
<path d="M233.569 217.557C233.461 216.755 233.531 215.94 233.775 215.169C234.017 214.297 234.487 213.505 234.728 212.644C234.82 212.345 231.916 210.704 231.583 210.865C231.166 211.088 230.815 211.418 230.567 211.822C230.319 212.225 230.182 212.687 230.171 213.16C230.107 214.188 230.364 215.211 230.906 216.087C231.089 216.466 231.824 216.753 232.168 216.96C232.645 217.143 233.113 217.35 233.569 217.58V217.557Z" fill="#407BFF"/>
<path d="M225.844 175.143C225.683 176.761 226.911 178.219 227.944 179.367C228.977 180.515 230.355 181.927 232.031 182.007C232.559 182.007 235.773 180.09 235.669 179.585C235.44 178.437 233.305 177.289 232.455 176.371C231.411 175.292 230.596 173.559 229.253 172.927C228.828 172.709 225.878 174.729 225.809 175.223L225.844 175.143Z" fill="#407BFF"/>
<path d="M233.867 149.189C234.958 150.395 236.863 150.475 238.401 150.486C239.939 150.498 241.925 150.486 243.107 149.258C243.486 148.879 244.255 145.206 243.785 144.942C242.752 144.299 240.467 145.114 239.193 145.137C237.701 145.137 235.864 144.609 234.464 145.137C234.016 145.309 233.511 148.845 233.821 149.189H233.867Z" fill="#407BFF"/>
<path d="M208.832 118.093C209.922 119.299 211.816 119.379 213.355 119.39C214.893 119.402 216.879 119.39 218.061 118.162C218.44 117.795 219.209 114.122 218.738 113.846C217.717 113.215 215.432 114.018 214.204 114.041C212.7 114.041 210.875 113.513 209.463 114.041C209.027 114.214 208.522 117.749 208.832 118.093Z" fill="#407BFF"/>
<path d="M159.749 226.395C161.025 226.933 162.434 227.07 163.789 226.786C165.204 226.773 166.589 226.376 167.795 225.638C168.187 224.383 168.274 223.053 168.048 221.758C166.808 221.483 165.35 222.068 164.088 222.194C162.712 222.142 161.337 222.285 160.001 222.619C159.586 223.83 159.499 225.129 159.749 226.384V226.395Z" fill="#407BFF"/>
<path d="M177.128 260.958C178.159 260.05 178.888 258.848 179.217 257.514C179.818 256.233 180.064 254.814 179.929 253.405C178.953 252.499 177.771 251.845 176.485 251.5C175.716 252.498 175.601 254.071 175.177 255.265C174.536 256.482 174.072 257.784 173.799 259.133C174.71 260.029 175.843 260.667 177.082 260.981L177.128 260.958Z" fill="#407BFF"/>
<path d="M61.686 219.749C62.7186 218.84 63.4511 217.64 63.7866 216.306C64.3905 215.025 64.6326 213.604 64.4868 212.196C63.5073 211.296 62.3266 210.642 61.0432 210.291C60.2627 211.301 60.1479 212.873 59.7232 214.056C59.0822 215.277 58.6184 216.584 58.3457 217.936C59.2544 218.833 60.3888 219.467 61.6286 219.772L61.686 219.749Z" fill="#407BFF"/>
<path d="M46.6948 155.514C47.723 154.602 48.4546 153.402 48.7954 152.07C49.3927 150.788 49.6345 149.369 49.4956 147.961C48.5161 147.06 47.3354 146.407 46.052 146.056C45.2714 147.054 45.1567 148.627 44.7319 149.821C44.0893 151.041 43.6254 152.348 43.3545 153.7C44.2663 154.593 45.3994 155.227 46.6374 155.537L46.6948 155.514Z" fill="#407BFF"/>
<path d="M242.132 117.072C243.165 116.166 243.894 114.963 244.221 113.628C244.825 112.348 245.067 110.927 244.921 109.519C243.961 108.622 242.8 107.968 241.535 107.613C240.754 108.612 240.651 110.184 240.226 111.378C239.583 112.599 239.12 113.905 238.849 115.258C239.759 116.153 240.893 116.787 242.132 117.095V117.072Z" fill="#407BFF"/>
<path d="M104.099 203.277C104.354 202.712 104.422 202.081 104.294 201.475C104.322 200.798 104.163 200.127 103.835 199.535C103.537 199.041 102.504 198.64 102.033 198.387C101.838 198.284 100.656 197.515 100.46 197.71C100.059 198.1 100.46 199.168 100.598 199.684C100.733 200.413 100.977 201.117 101.321 201.773C102.142 202.451 103.085 202.965 104.099 203.289V203.277Z" fill="#407BFF"/>
<g opacity="0.2">
<path opacity="0.2" d="M104.099 203.277C104.354 202.712 104.422 202.081 104.294 201.475C104.322 200.798 104.163 200.127 103.835 199.535C103.537 199.041 102.504 198.64 102.033 198.387C101.838 198.284 100.656 197.515 100.46 197.71C100.059 198.1 100.46 199.168 100.598 199.684C100.733 200.413 100.977 201.117 101.321 201.773C102.142 202.451 103.085 202.965 104.099 203.289V203.277Z" fill="black"/>
</g>
<path d="M182.293 202.416C182.557 201.854 182.629 201.221 182.5 200.614C182.523 199.938 182.364 199.268 182.041 198.674C181.742 198.181 180.709 197.767 180.227 197.526C180.032 197.412 178.85 196.654 178.666 196.838C178.264 197.239 178.666 198.295 178.804 198.823C178.939 199.552 179.183 200.256 179.527 200.913C180.345 201.588 181.284 202.102 182.293 202.428V202.416Z" fill="#407BFF"/>
<g opacity="0.2">
<path opacity="0.2" d="M182.293 202.416C182.557 201.854 182.629 201.221 182.5 200.614C182.523 199.938 182.364 199.268 182.041 198.674C181.742 198.181 180.709 197.767 180.227 197.526C180.032 197.412 178.85 196.654 178.666 196.838C178.264 197.239 178.666 198.295 178.804 198.823C178.939 199.552 179.183 200.256 179.527 200.913C180.345 201.588 181.284 202.102 182.293 202.428V202.416Z" fill="black"/>
</g>
<path d="M128.24 235.016C128.928 232.823 129.514 229.988 128.722 227.75C128.527 227.199 125.611 226.143 125.623 226.016C125.485 227.164 125.783 228.439 125.737 229.644C125.695 230.881 125.514 232.109 125.198 233.305C125.083 233.776 128.251 235.004 128.24 235.016Z" fill="#407BFF"/>
<path d="M133.956 202.141C134.645 199.948 135.23 197.113 134.427 194.875C134.232 194.324 131.327 193.268 131.339 193.141C131.201 194.289 131.5 195.563 131.454 196.769C131.4 198.005 131.22 199.232 130.914 200.43C130.799 200.901 133.956 202.129 133.956 202.141Z" fill="#407BFF"/>
<path d="M89.2698 289.655C91.5655 289.46 94.4008 288.92 96.157 287.359C96.5932 286.969 96.467 283.915 96.5817 283.835C95.4339 284.156 94.4008 284.902 93.2759 285.316C92.1136 285.744 90.9093 286.048 89.683 286.223C89.2009 286.291 89.2698 289.666 89.2583 289.666L89.2698 289.655Z" fill="#407BFF"/>
<path d="M136.424 264.402C138.479 265.435 141.176 266.456 143.518 266.02C144.092 265.917 145.607 263.219 145.722 263.242C144.574 262.921 143.3 263.013 142.129 262.783C140.912 262.53 139.727 262.145 138.593 261.635C138.146 261.452 136.435 264.379 136.424 264.367V264.402Z" fill="#407BFF"/>
<path d="M32.8623 202.68C32.8623 202.911 33.5645 203.383 33.0925 202.842C32.9544 202.773 32.8623 202.715 32.8623 202.68Z" fill="#407BFF"/>
<path d="M42.9983 205.929C42.4044 205.367 41.7065 204.926 40.9436 204.632C39.371 204.379 37.7984 204.356 36.2603 203.966L35.1124 203.621C34.0751 203.413 33.0603 203.106 32.082 202.703C33.9021 204.126 35.8917 205.317 38.0051 206.25C39.7269 206.962 42.5966 207.983 44.4791 207.214C44.5135 207.191 43.0442 205.963 42.9983 205.929Z" fill="#407BFF"/>
<path opacity="0.2" d="M42.9983 205.929C42.4044 205.367 41.7065 204.926 40.9436 204.632C39.371 204.379 37.7984 204.356 36.2603 203.966L35.1124 203.621C34.0751 203.413 33.0603 203.106 32.082 202.703C33.9021 204.126 35.8917 205.317 38.0051 206.25C39.7269 206.962 42.5966 207.983 44.4791 207.214C44.5135 207.191 43.0442 205.963 42.9983 205.929Z" fill="black"/>
<path d="M33.9303 203.197C33.9303 203.197 33.3793 202.979 33.0924 202.841C33.563 203.381 32.8513 202.91 32.8628 202.68C32.8628 202.68 32.9546 202.772 33.0924 202.841L32.8283 202.566C30.638 200.25 29.1218 197.381 28.4435 194.266C28.3057 193.715 27.1693 193.119 26.7331 192.797C26.538 192.659 24.7932 191.753 24.7817 191.649C25.2868 196.137 28.145 199.684 31.669 202.359L32.0937 202.692C33.072 203.095 34.0868 203.402 35.1241 203.61C34.6994 203.495 34.3091 203.358 33.9303 203.197Z" fill="#407BFF"/>
<path d="M160.495 167.98C160.3 167.877 159.565 168.324 160.266 168.118C160.38 168.072 160.472 167.98 160.495 167.98Z" fill="#407BFF"/>
<path d="M153.194 175.786C153.958 175.488 154.656 175.043 155.249 174.477C156.167 173.18 156.856 171.768 157.877 170.54C158.141 170.23 158.405 169.931 158.692 169.633C159.329 168.801 160.044 168.033 160.827 167.337C158.764 168.366 156.837 169.646 155.088 171.148C153.699 172.399 151.518 174.592 151.426 176.578C151.415 176.601 153.148 175.808 153.194 175.786Z" fill="#407BFF"/>
<path opacity="0.2" d="M153.194 175.786C153.958 175.488 154.656 175.043 155.249 174.477C156.167 173.18 156.856 171.768 157.877 170.54C158.141 170.23 158.405 169.931 158.692 169.633C159.329 168.801 160.044 168.033 160.827 167.337C158.764 168.366 156.837 169.646 155.088 171.148C153.699 172.399 151.518 174.592 151.426 176.578C151.415 176.601 153.148 175.808 153.194 175.786Z" fill="black"/>
<path d="M159.577 168.772C159.577 168.772 160.002 168.37 160.266 168.164C159.566 168.37 160.266 167.923 160.495 168.026C160.495 168.026 160.381 168.026 160.266 168.164C160.383 168.134 160.498 168.096 160.61 168.049C163.644 167.073 166.887 166.946 169.988 167.682C170.551 167.796 171.595 167.027 172.054 166.763C172.272 166.649 173.834 165.466 173.925 165.501C169.667 164.02 165.213 165.053 161.299 167.05L160.817 167.303C160.033 167.998 159.319 168.767 158.682 169.599C158.969 169.335 159.267 169.048 159.577 168.772Z" fill="#407BFF"/>
<path d="M399.035 171.16C399.907 172.032 400.745 172.939 401.537 173.88C402.329 174.821 403.098 175.786 403.833 176.773C404.567 177.76 405.256 178.781 405.933 179.815C406.611 180.848 407.23 181.904 407.816 182.994C407.024 182.305 406.22 181.64 405.405 181.02C404.992 180.71 404.59 180.4 404.166 180.102L402.914 179.229C402.237 178.265 401.525 177.312 400.779 176.394C400.033 175.476 399.264 174.58 398.484 173.719C397.703 172.858 396.831 172.032 395.97 171.251C395.101 170.473 394.189 169.745 393.238 169.07C394.221 169.312 395.191 169.607 396.142 169.954L396.865 170.23L397.588 170.528C398.082 170.723 398.552 170.93 399.035 171.16Z" fill="#407BFF"/>
<g opacity="0.2">
<path opacity="0.2" d="M399.035 171.16C399.907 172.032 400.745 172.939 401.537 173.88C402.329 174.821 403.098 175.786 403.833 176.773C404.567 177.76 405.256 178.781 405.933 179.815C406.611 180.848 407.23 181.904 407.816 182.994C407.024 182.305 406.22 181.64 405.405 181.02C404.992 180.71 404.59 180.4 404.166 180.102L402.914 179.229C402.237 178.265 401.525 177.312 400.779 176.394C400.033 175.476 399.264 174.58 398.484 173.719C397.703 172.858 396.831 172.032 395.97 171.251C395.101 170.473 394.189 169.745 393.238 169.07C394.221 169.312 395.191 169.607 396.142 169.954L396.865 170.23L397.588 170.528C398.082 170.723 398.552 170.93 399.035 171.16Z" fill="black"/>
</g>
<path d="M280.953 189.147C280.566 189.858 280.02 190.471 279.357 190.937C278.646 191.5 277.808 191.879 277.062 192.43C277.281 193.631 277.803 194.757 278.577 195.701C279.043 195.769 279.518 195.711 279.954 195.534C280.39 195.356 280.77 195.065 281.056 194.691C281.71 193.893 282.11 192.918 282.204 191.89C282.273 191.477 281.848 190.811 281.676 190.444C281.607 190.295 280.884 189.193 280.907 189.112L280.953 189.147Z" fill="#407BFF"/>
<path d="M350.032 197.308C349.86 195.69 348.356 194.519 347.117 193.601C345.877 192.682 344.235 191.592 342.582 191.856C342.054 191.936 339.3 194.473 339.506 194.955C339.977 196.103 342.295 196.757 343.306 197.446C344.545 198.295 345.693 199.834 347.151 200.224C347.61 200.339 350.09 197.767 350.032 197.308Z" fill="#407BFF"/>
<path d="M370.717 158.923C369.341 159.069 368.041 159.624 366.986 160.519C365.746 161.204 364.718 162.217 364.013 163.446C364.276 164.733 364.838 165.94 365.655 166.97C366.871 166.614 367.882 165.397 368.915 164.674C370.167 164.078 371.326 163.305 372.358 162.378C372.599 162.069 371.142 158.935 370.774 158.935L370.717 158.923Z" fill="#407BFF"/>
<path d="M420.741 216.191C419.678 217.085 418.919 218.289 418.572 219.634C417.934 220.897 417.656 222.311 417.768 223.721C418.712 224.634 419.855 225.314 421.109 225.707C421.912 224.719 422.061 223.147 422.521 221.976C422.98 220.805 423.898 219.428 423.978 218.131C423.092 217.211 421.974 216.549 420.741 216.214V216.191Z" fill="#407BFF"/>
<path d="M230.527 277.487C230.226 276.138 229.522 274.913 228.507 273.975C227.68 272.823 226.552 271.922 225.247 271.369C223.998 271.772 222.865 272.469 221.941 273.401C222.446 274.549 223.766 275.432 224.593 276.385C225.419 277.338 226.211 278.784 227.324 279.462C227.657 279.668 230.55 277.854 230.527 277.487Z" fill="#407BFF"/>
<path d="M384.686 268.66C384.078 268.913 383.814 269.464 383.481 270.003C383.06 270.533 382.794 271.168 382.712 271.84C382.833 272.557 383.103 273.241 383.504 273.848C383.596 274.044 384.112 275.352 384.365 275.306C384.927 275.226 385.203 274.158 385.421 273.619C385.735 272.946 385.947 272.23 386.052 271.495C385.785 270.471 385.321 269.508 384.686 268.66Z" fill="#407BFF"/>
<g opacity="0.2">
<path opacity="0.2" d="M384.686 268.66C384.078 268.913 383.814 269.464 383.481 270.003C383.06 270.533 382.794 271.168 382.712 271.84C382.833 272.557 383.103 273.241 383.504 273.848C383.596 274.044 384.112 275.352 384.365 275.306C384.927 275.226 385.203 274.158 385.421 273.619C385.735 272.946 385.947 272.23 386.052 271.495C385.785 270.471 385.321 269.508 384.686 268.66Z" fill="black"/>
</g>
<path d="M304.301 251.832C303.692 252.085 303.428 252.636 303.095 253.175C302.673 253.704 302.407 254.34 302.326 255.012C302.447 255.724 302.712 256.404 303.107 257.009C303.21 257.216 303.727 258.524 303.979 258.478C304.542 258.398 304.817 257.33 305.035 256.791C305.349 256.118 305.562 255.402 305.666 254.667C305.399 253.643 304.935 252.68 304.301 251.832Z" fill="#407BFF"/>
<g opacity="0.2">
<path opacity="0.2" d="M304.301 251.832C303.692 252.085 303.428 252.636 303.095 253.175C302.673 253.704 302.407 254.34 302.326 255.012C302.447 255.724 302.712 256.404 303.107 257.009C303.21 257.216 303.727 258.524 303.979 258.478C304.542 258.398 304.817 257.33 305.035 256.791C305.349 256.118 305.562 255.402 305.666 254.667C305.399 253.643 304.935 252.68 304.301 251.832Z" fill="black"/>
</g>
<path d="M313.793 210.888C313.185 211.14 312.921 211.691 312.588 212.231C312.166 212.759 311.899 213.395 311.819 214.067C311.938 214.782 312.208 215.462 312.611 216.064C312.703 216.271 313.219 217.58 313.483 217.534C314.046 217.453 314.31 216.386 314.528 215.846C314.842 215.173 315.054 214.458 315.159 213.723C314.892 212.698 314.428 211.735 313.793 210.888Z" fill="#407BFF"/>
<g opacity="0.2">
<path opacity="0.2" d="M313.793 210.888C313.185 211.14 312.921 211.691 312.588 212.231C312.166 212.759 311.899 213.395 311.819 214.067C311.938 214.782 312.208 215.462 312.611 216.064C312.703 216.271 313.219 217.58 313.483 217.534C314.046 217.453 314.31 216.386 314.528 215.846C314.842 215.173 315.054 214.458 315.159 213.723C314.892 212.698 314.428 211.735 313.793 210.888Z" fill="black"/>
</g>
<path d="M396.44 197.825C394.592 199.202 392.469 201.165 391.849 203.438C391.688 204 393.433 206.572 393.341 206.652C394.145 205.779 394.638 204.597 395.373 203.656C396.135 202.678 397.001 201.785 397.956 200.993C398.323 200.683 396.475 197.836 396.486 197.825H396.44Z" fill="#407BFF"/>
<path d="M399.333 242.224C397.175 241.421 394.374 240.709 392.102 241.398C391.539 241.57 390.345 244.428 390.23 244.405C391.378 244.6 392.652 244.405 393.846 244.463C395.081 244.573 396.3 244.812 397.485 245.174C397.944 245.312 399.322 242.213 399.333 242.224Z" fill="#407BFF"/>
<path d="M430.257 167.337C428.282 166.189 425.665 164.938 423.37 165.191C422.784 165.248 421.074 167.831 420.959 167.796C422.107 168.198 423.358 168.198 424.506 168.519C425.699 168.856 426.854 169.317 427.95 169.897C428.386 170.115 430.303 167.326 430.314 167.337H430.257Z" fill="#407BFF"/>
<path d="M371.096 205.745C370.028 203.702 368.421 201.303 366.286 200.281C365.746 200.029 362.946 201.349 362.842 201.245C363.588 202.175 364.679 202.852 365.494 203.725C366.335 204.635 367.078 205.631 367.709 206.698C367.962 207.1 371.061 205.734 371.073 205.745H371.096Z" fill="#407BFF"/>
<path d="M331.654 241.501C331.861 241.421 332.022 240.583 331.654 241.226C331.673 241.317 331.673 241.411 331.654 241.501Z" fill="#407BFF"/>
<path d="M330.748 230.884C330.452 231.651 330.315 232.472 330.346 233.294C330.702 234.832 331.299 236.29 331.494 237.886C331.551 238.287 331.597 238.689 331.62 239.091C331.827 240.13 331.931 241.188 331.93 242.248C332.552 240.023 332.888 237.728 332.929 235.418C332.929 233.547 332.745 230.459 331.333 229.07C331.322 229.013 330.759 230.838 330.748 230.884Z" fill="#407BFF"/>
<path opacity="0.2" d="M330.748 230.884C330.452 231.651 330.315 232.472 330.346 233.294C330.702 234.832 331.299 236.29 331.494 237.886C331.551 238.287 331.597 238.689 331.62 239.091C331.827 240.13 331.931 241.188 331.93 242.248C332.552 240.023 332.888 237.728 332.929 235.418C332.929 233.547 332.745 230.459 331.333 229.07C331.322 229.013 330.759 230.838 330.748 230.884Z" fill="black"/>
<path d="M331.712 240.296C331.712 240.353 331.712 240.881 331.712 241.203C332.033 240.56 331.872 241.398 331.712 241.478C331.731 241.387 331.731 241.294 331.712 241.203C331.712 241.295 331.62 241.398 331.563 241.547C330.271 244.461 328.207 246.966 325.594 248.79C325.134 249.123 325.008 250.409 324.893 250.937C324.836 251.166 324.675 253.118 324.583 253.175C328.532 250.983 330.725 246.977 331.85 242.729C331.85 242.557 331.93 242.385 331.976 242.213C331.977 241.153 331.873 240.096 331.666 239.056C331.689 239.492 331.712 239.906 331.712 240.296Z" fill="#407BFF"/>
<path d="M269.818 251.19C269.818 251.419 270.668 251.706 270.082 251.293C269.933 251.258 269.83 251.224 269.818 251.19Z" fill="#407BFF"/>
<path d="M280.436 252.131C279.731 251.713 278.951 251.436 278.14 251.316C276.556 251.408 275.029 251.74 273.422 251.694C273.021 251.694 272.619 251.694 272.217 251.614C271.16 251.637 270.102 251.556 269.061 251.373C271.144 252.372 273.347 253.102 275.615 253.543C277.452 253.852 280.528 254.22 282.135 253.06C282.181 253.026 280.505 252.154 280.436 252.131Z" fill="#407BFF"/>
<path opacity="0.2" d="M280.436 252.131C279.731 251.713 278.951 251.436 278.14 251.316C276.556 251.408 275.029 251.74 273.422 251.694C273.021 251.694 272.619 251.694 272.217 251.614C271.16 251.637 270.102 251.556 269.061 251.373C271.144 252.372 273.347 253.102 275.615 253.543C277.452 253.852 280.528 254.22 282.135 253.06C282.181 253.026 280.505 252.154 280.436 252.131Z" fill="black"/>
<path d="M270.978 251.453L270.082 251.293C270.668 251.706 269.864 251.419 269.818 251.189C269.818 251.189 269.933 251.258 270.082 251.293L269.772 251.086C267.129 249.305 265.021 246.837 263.677 243.946C263.413 243.441 262.174 243.097 261.68 242.89C261.45 242.787 259.556 242.293 259.522 242.201C261.003 246.472 264.573 249.318 268.556 251.155L269.049 251.373C270.091 251.556 271.148 251.637 272.206 251.614C271.793 251.58 271.38 251.522 270.978 251.453Z" fill="#407BFF"/>
<path d="M193.886 160.025C192.364 161.59 191.139 163.418 190.27 165.42C189.81 166.334 189.493 167.314 189.329 168.324C189.226 169.3 189.811 169.736 190.58 170.207C190.865 170.385 191.16 170.546 191.464 170.689L191.361 170.471C191.263 170.244 191.197 170.004 191.166 169.759H191.097C191.074 169.572 191.074 169.383 191.097 169.197C191.371 167.664 191.894 166.186 192.647 164.823C193.366 163.391 194.231 162.037 195.229 160.783C195.229 160.783 194.024 159.945 193.886 160.025Z" fill="#407BFF"/>
<path d="M202.277 164.158C202.271 164.188 202.271 164.219 202.277 164.249V164.41C202.277 164.548 202.277 164.686 202.277 164.812C201.967 164.875 201.666 164.979 201.382 165.122C200.346 165.666 199.352 166.288 198.409 166.981C197.433 167.636 196.481 168.313 195.551 169.025C194.753 169.839 193.779 170.459 192.704 170.838C192.287 170.891 191.864 170.819 191.487 170.632L191.384 170.413C191.286 170.187 191.22 169.947 191.189 169.702C191.735 169.474 192.236 169.151 192.67 168.749C193.898 167.785 195.161 166.855 196.446 165.983C197.535 165.126 198.727 164.409 199.993 163.848C200.373 163.724 200.775 163.688 201.171 163.741C201.566 163.795 201.945 163.937 202.277 164.158Z" fill="#407BFF"/>
<path opacity="0.2" d="M202.277 164.158C202.271 164.188 202.271 164.219 202.277 164.249V164.41C202.277 164.548 202.277 164.686 202.277 164.812C201.967 164.875 201.666 164.979 201.382 165.122C200.346 165.666 199.352 166.288 198.409 166.981C197.433 167.636 196.481 168.313 195.551 169.025C194.753 169.839 193.779 170.459 192.704 170.838C192.287 170.891 191.864 170.819 191.487 170.632L191.384 170.413C191.286 170.187 191.22 169.947 191.189 169.702C191.735 169.474 192.236 169.151 192.67 168.749C193.898 167.785 195.161 166.855 196.446 165.983C197.535 165.126 198.727 164.409 199.993 163.848C200.373 163.724 200.775 163.688 201.171 163.741C201.566 163.795 201.945 163.937 202.277 164.158Z" fill="black"/>
<path d="M203.713 167.096C202.927 168.483 202.057 169.821 201.107 171.102C200.189 172.48 199.294 173.869 198.399 175.258C197.875 175.923 197.468 176.672 197.193 177.473C197.163 177.677 197.177 177.885 197.234 178.083C197.292 178.281 197.391 178.465 197.526 178.621C197.598 178.706 197.679 178.783 197.767 178.85C197.388 178.73 197.031 178.548 196.711 178.311C196.022 177.898 195.288 177.53 195.403 176.612C195.623 175.727 196.048 174.905 196.642 174.213C198.081 172.055 199.504 169.893 200.912 167.727C201.406 166.958 202.382 165.856 202.255 164.835C202.255 164.709 202.255 164.571 202.255 164.433V164.272C202.249 164.242 202.249 164.211 202.255 164.181L202.715 164.445C203.139 164.709 203.702 164.996 203.862 165.489C203.948 165.753 203.979 166.032 203.953 166.308C203.928 166.584 203.846 166.852 203.713 167.096Z" fill="#407BFF"/>
<path d="M208.924 173.719C208.347 175.662 207.307 177.434 205.893 178.885C205.732 179.046 204.183 177.932 204.206 177.886C204.947 176.913 205.608 175.88 206.18 174.798C206.46 174.248 206.705 173.681 206.915 173.1C207.037 172.803 207.114 172.489 207.144 172.17C207.157 172.09 207.157 172.009 207.144 171.929H207.385C207.488 171.917 207.592 171.917 207.695 171.929C207.91 171.975 208.001 171.975 207.971 171.929C208.07 171.918 208.17 171.918 208.269 171.929C208.564 172.11 208.789 172.386 208.907 172.711C209.026 173.035 209.032 173.391 208.924 173.719Z" fill="#407BFF"/>
<path d="M208.27 171.917C208.17 171.906 208.07 171.906 207.971 171.917C207.777 171.888 207.58 171.888 207.386 171.917H207.133C206.892 171.988 206.661 172.088 206.444 172.216C205.921 172.553 205.429 172.937 204.975 173.363L201.956 176.015C201.027 176.911 200.041 177.746 199.006 178.517C198.836 178.647 198.642 178.74 198.434 178.792C198.227 178.843 198.012 178.851 197.801 178.816C197.712 178.749 197.631 178.672 197.56 178.586C197.425 178.43 197.326 178.247 197.268 178.049C197.211 177.851 197.197 177.642 197.227 177.438C197.766 177.035 198.273 176.59 198.742 176.107L201.279 173.903C202.151 173.145 203.001 172.376 203.885 171.607C204.165 171.322 204.501 171.098 204.873 170.95C205.245 170.801 205.643 170.732 206.043 170.746C206.859 170.956 207.616 171.348 208.258 171.894L208.27 171.917Z" fill="#407BFF"/>
<path opacity="0.2" d="M208.27 171.917C208.17 171.906 208.07 171.906 207.971 171.917C207.777 171.888 207.58 171.888 207.386 171.917H207.133C206.892 171.988 206.661 172.088 206.444 172.216C205.921 172.553 205.429 172.937 204.975 173.363L201.956 176.015C201.027 176.911 200.041 177.746 199.006 178.517C198.836 178.647 198.642 178.74 198.434 178.792C198.227 178.843 198.012 178.851 197.801 178.816C197.712 178.749 197.631 178.672 197.56 178.586C197.425 178.43 197.326 178.247 197.268 178.049C197.211 177.851 197.197 177.642 197.227 177.438C197.766 177.035 198.273 176.59 198.742 176.107L201.279 173.903C202.151 173.145 203.001 172.376 203.885 171.607C204.165 171.322 204.501 171.098 204.873 170.95C205.245 170.801 205.643 170.732 206.043 170.746C206.859 170.956 207.616 171.348 208.258 171.894L208.27 171.917Z" fill="black"/>
<path d="M207.696 171.871C207.593 171.86 207.489 171.86 207.386 171.871C207.58 171.843 207.777 171.843 207.971 171.871C207.971 171.871 207.914 171.917 207.696 171.871Z" fill="#407BFF"/>
<path d="M206.72 240.606C207.809 239.42 208.676 238.047 209.28 236.554C209.583 235.88 209.784 235.164 209.877 234.431C209.877 233.719 209.452 233.443 208.855 233.145C208.628 233.032 208.394 232.932 208.155 232.846L208.247 232.996C208.331 233.154 208.389 233.324 208.419 233.501H208.476C208.493 233.634 208.493 233.769 208.476 233.902C208.318 235.02 207.973 236.102 207.455 237.105C206.958 238.182 206.346 239.202 205.629 240.147C205.629 240.147 206.617 240.721 206.72 240.606Z" fill="#407BFF"/>
<path d="M200.154 238.115C200.149 238.092 200.149 238.069 200.154 238.046C200.149 238.008 200.149 237.97 200.154 237.931C200.148 237.836 200.148 237.74 200.154 237.645C200.386 237.57 200.613 237.478 200.831 237.369C201.594 236.92 202.326 236.421 203.024 235.877C203.736 235.349 204.436 234.809 205.124 234.258C205.712 233.628 206.429 233.131 207.225 232.8C207.537 232.746 207.857 232.774 208.155 232.881L208.247 233.03C208.331 233.188 208.389 233.358 208.419 233.535C208.015 233.728 207.646 233.988 207.328 234.304C206.433 235.05 205.503 235.785 204.551 236.485C203.749 237.161 202.871 237.739 201.933 238.207C201.648 238.32 201.341 238.37 201.034 238.354C200.727 238.339 200.427 238.257 200.154 238.115Z" fill="#407BFF"/>
<path opacity="0.2" d="M200.154 238.115C200.149 238.092 200.149 238.069 200.154 238.046C200.149 238.008 200.149 237.97 200.154 237.931C200.148 237.836 200.148 237.74 200.154 237.645C200.386 237.57 200.613 237.478 200.831 237.369C201.594 236.92 202.326 236.421 203.024 235.877C203.736 235.349 204.436 234.809 205.124 234.258C205.712 233.628 206.429 233.131 207.225 232.8C207.537 232.746 207.857 232.774 208.155 232.881L208.247 233.03C208.331 233.188 208.389 233.358 208.419 233.535C208.015 233.728 207.646 233.988 207.328 234.304C206.433 235.05 205.503 235.785 204.551 236.485C203.749 237.161 202.871 237.739 201.933 238.207C201.648 238.32 201.341 238.37 201.034 238.354C200.727 238.339 200.427 238.257 200.154 238.115Z" fill="black"/>
<path d="M199.006 236.095C199.552 235.054 200.165 234.049 200.842 233.088C201.485 232.054 202.117 231.01 202.748 229.965C203.12 229.466 203.403 228.907 203.586 228.312C203.6 228.167 203.582 228.021 203.532 227.884C203.483 227.747 203.403 227.623 203.299 227.52C203.239 227.464 203.174 227.414 203.104 227.371C203.396 227.417 203.679 227.51 203.942 227.647C204.493 227.899 205.09 228.129 205.009 228.794C204.87 229.448 204.575 230.059 204.148 230.574C203.138 232.192 202.128 233.822 201.141 235.441C200.785 236.026 200.085 236.864 200.223 237.587C200.217 237.683 200.217 237.779 200.223 237.874C200.217 237.912 200.217 237.951 200.223 237.989C200.217 238.012 200.217 238.035 200.223 238.058L199.867 237.897C199.522 237.725 199.086 237.553 198.914 237.208C198.848 237.027 198.822 236.834 198.838 236.642C198.853 236.449 198.911 236.263 199.006 236.095Z" fill="#407BFF"/>
<path d="M194.736 231.641C195.107 230.199 195.833 228.874 196.848 227.784C196.963 227.658 198.179 228.37 198.156 228.404C197.636 229.133 197.172 229.9 196.767 230.7C196.579 231.107 196.414 231.525 196.274 231.951C196.194 232.168 196.148 232.397 196.136 232.628C196.129 232.685 196.129 232.743 196.136 232.8H195.952H195.711C195.539 232.8 195.47 232.8 195.505 232.8H195.275C195.068 232.696 194.902 232.524 194.804 232.314C194.707 232.104 194.682 231.867 194.736 231.641Z" fill="#407BFF"/>
<path d="M195.299 232.892H195.528C195.677 232.909 195.827 232.909 195.976 232.892H196.16C196.338 232.836 196.508 232.754 196.665 232.651C197.05 232.377 197.411 232.069 197.744 231.733L199.948 229.701C200.628 229.006 201.349 228.35 202.106 227.738C202.364 227.538 202.687 227.44 203.013 227.463C203.082 227.506 203.148 227.556 203.208 227.612C203.312 227.714 203.391 227.838 203.441 227.976C203.491 228.113 203.509 228.259 203.495 228.404C203.083 228.714 202.698 229.06 202.347 229.437L200.556 231.113C199.925 231.699 199.293 232.261 198.651 232.869C198.443 233.093 198.193 233.274 197.915 233.4C197.637 233.526 197.337 233.595 197.032 233.604C196.416 233.512 195.828 233.285 195.31 232.938L195.299 232.892Z" fill="#407BFF"/>
<path opacity="0.2" d="M195.299 232.892H195.528C195.677 232.909 195.827 232.909 195.976 232.892H196.16C196.338 232.836 196.508 232.754 196.665 232.651C197.05 232.377 197.411 232.069 197.744 231.733L199.948 229.701C200.628 229.006 201.349 228.35 202.106 227.738C202.364 227.538 202.687 227.44 203.013 227.463C203.082 227.506 203.148 227.556 203.208 227.612C203.312 227.714 203.391 227.838 203.441 227.976C203.491 228.113 203.509 228.259 203.495 228.404C203.083 228.714 202.698 229.06 202.347 229.437L200.556 231.113C199.925 231.699 199.293 232.261 198.651 232.869C198.443 233.093 198.193 233.274 197.915 233.4C197.637 233.526 197.337 233.595 197.032 233.604C196.416 233.512 195.828 233.285 195.31 232.938L195.299 232.892Z" fill="black"/>
<path d="M195.734 232.892H195.975C195.826 232.909 195.676 232.909 195.527 232.892C195.527 232.892 195.562 232.869 195.734 232.892Z" fill="#407BFF"/>
<path d="M266.914 225.064C266.195 224.123 265.586 223.102 265.1 222.022C264.572 221.024 264.226 219.939 264.079 218.819C264.062 218.686 264.062 218.551 264.079 218.418H264.136C264.171 218.246 264.229 218.08 264.308 217.924C264.332 217.87 264.363 217.82 264.4 217.775C264.16 217.858 263.926 217.957 263.7 218.073C263.103 218.36 262.632 218.636 262.678 219.347C262.768 220.083 262.973 220.8 263.287 221.471C263.882 222.972 264.749 224.35 265.847 225.534C265.961 225.661 266.926 225.075 266.914 225.064Z" fill="#407BFF"/>
<path d="M272.47 223.078V223.009C272.476 222.975 272.476 222.94 272.47 222.906C272.482 222.807 272.482 222.707 272.47 222.608C272.233 222.547 272.005 222.454 271.793 222.332C271.026 221.889 270.293 221.39 269.6 220.84C268.877 220.323 268.177 219.784 267.488 219.221C266.905 218.588 266.187 218.093 265.388 217.775C265.076 217.715 264.754 217.743 264.458 217.855C264.421 217.901 264.39 217.951 264.366 218.005C264.287 218.161 264.229 218.327 264.194 218.498C264.597 218.693 264.966 218.953 265.284 219.267C266.191 220.025 267.109 220.748 268.062 221.448C268.867 222.124 269.75 222.702 270.691 223.17C270.977 223.283 271.283 223.333 271.59 223.317C271.897 223.302 272.197 223.22 272.47 223.078Z" fill="#407BFF"/>
<path opacity="0.2" d="M272.47 223.078V223.009C272.476 222.975 272.476 222.94 272.47 222.906C272.482 222.807 272.482 222.707 272.47 222.608C272.233 222.547 272.005 222.454 271.793 222.332C271.026 221.889 270.293 221.39 269.6 220.84C268.877 220.323 268.177 219.784 267.488 219.221C266.905 218.588 266.187 218.093 265.388 217.775C265.076 217.715 264.754 217.743 264.458 217.855C264.421 217.901 264.39 217.951 264.366 218.005C264.287 218.161 264.229 218.327 264.194 218.498C264.597 218.693 264.966 218.953 265.284 219.267C266.191 220.025 267.109 220.748 268.062 221.448C268.867 222.124 269.75 222.702 270.691 223.17C270.977 223.283 271.283 223.333 271.59 223.317C271.897 223.302 272.197 223.22 272.47 223.078Z" fill="black"/>
<path d="M273.618 221.035C273.063 219.996 272.446 218.992 271.77 218.027C271.127 216.994 270.508 215.95 269.865 214.905C269.495 214.407 269.215 213.847 269.038 213.252C269.024 213.106 269.043 212.959 269.095 212.821C269.147 212.684 269.229 212.56 269.337 212.46C269.393 212.408 269.455 212.362 269.52 212.323C269.227 212.363 268.943 212.457 268.683 212.598C268.143 212.851 267.535 213.069 267.626 213.746C267.764 214.402 268.055 215.015 268.476 215.537C269.494 217.159 270.496 218.781 271.483 220.404C271.839 220.977 272.539 221.815 272.413 222.539C272.425 222.638 272.425 222.738 272.413 222.837C272.419 222.871 272.419 222.906 272.413 222.94V223.078L272.769 222.917C273.145 222.789 273.476 222.553 273.722 222.24C273.794 222.044 273.822 221.834 273.804 221.626C273.787 221.418 273.723 221.216 273.618 221.035Z" fill="#407BFF"/>
<path d="M277.853 216.581C277.472 215.143 276.747 213.82 275.741 212.724C275.626 212.609 274.398 213.321 274.421 213.344C274.942 214.073 275.406 214.84 275.81 215.64C275.996 216.048 276.161 216.465 276.304 216.891C276.383 217.113 276.429 217.345 276.441 217.58C276.454 217.632 276.454 217.687 276.441 217.74H276.625H276.866C277.038 217.74 277.107 217.74 277.084 217.74H277.302C277.508 217.633 277.672 217.462 277.772 217.253C277.871 217.044 277.9 216.808 277.853 216.581Z" fill="#407BFF"/>
<path d="M277.279 217.844H277.061C276.909 217.867 276.754 217.867 276.602 217.844H276.419C276.236 217.783 276.062 217.698 275.902 217.591C275.514 217.32 275.153 217.013 274.823 216.673L272.631 214.641C271.947 213.952 271.227 213.301 270.473 212.69C270.345 212.585 270.199 212.507 270.041 212.46C269.883 212.412 269.718 212.397 269.554 212.414C269.489 212.454 269.427 212.5 269.371 212.552C269.263 212.652 269.18 212.776 269.129 212.913C269.077 213.051 269.057 213.198 269.072 213.344C269.479 213.661 269.862 214.006 270.22 214.377L272.08 216.099C272.711 216.684 273.331 217.247 273.974 217.855C274.181 218.079 274.431 218.259 274.709 218.386C274.987 218.512 275.287 218.581 275.592 218.59C276.212 218.494 276.804 218.263 277.325 217.913L277.279 217.844Z" fill="#407BFF"/>
<path opacity="0.2" d="M277.279 217.844H277.061C276.909 217.867 276.754 217.867 276.602 217.844H276.419C276.236 217.783 276.062 217.698 275.902 217.591C275.514 217.32 275.153 217.013 274.823 216.673L272.631 214.641C271.947 213.952 271.227 213.301 270.473 212.69C270.345 212.585 270.199 212.507 270.041 212.46C269.883 212.412 269.718 212.397 269.554 212.414C269.489 212.454 269.427 212.5 269.371 212.552C269.263 212.652 269.18 212.776 269.129 212.913C269.077 213.051 269.057 213.198 269.072 213.344C269.479 213.661 269.862 214.006 270.22 214.377L272.08 216.099C272.711 216.684 273.331 217.247 273.974 217.855C274.181 218.079 274.431 218.259 274.709 218.386C274.987 218.512 275.287 218.581 275.592 218.59C276.212 218.494 276.804 218.263 277.325 217.913L277.279 217.844Z" fill="black"/>
<path d="M276.844 217.832H276.603C276.755 217.855 276.91 217.855 277.062 217.832C277.062 217.832 277.062 217.821 276.844 217.832Z" fill="#407BFF"/>
<path d="M228.53 247.839V247.574C228.415 247.313 228.415 247.401 228.53 247.839Z" fill="#407BFF"/>
<path d="M228.518 246.747C228.552 246.356 228.633 245.971 228.759 245.599C229.044 244.769 229.515 244.015 230.137 243.395C230.444 243.093 230.783 242.823 231.147 242.592C231.572 242.316 231.893 242.018 232.295 241.719C232.295 241.232 232.177 240.751 231.95 240.319C231.703 240.278 231.451 240.278 231.204 240.319C231.009 240.371 230.823 240.452 230.653 240.56C230.271 240.772 229.916 241.03 229.597 241.329C229.011 241.879 228.556 242.554 228.266 243.304C227.79 244.832 227.81 246.471 228.323 247.987C228.354 247.632 228.408 247.279 228.484 246.931C228.484 246.931 228.518 246.805 228.518 246.747Z" fill="#407BFF"/>
<path d="M230.665 251.901C230.661 251.943 230.661 251.986 230.665 252.028V251.89V251.901Z" fill="#407BFF"/>
<path d="M231.147 254.071C231.262 253.045 231.116 252.006 230.722 251.052C230.739 251.285 230.739 251.519 230.722 251.752V251.855C230.722 252.073 230.722 252.119 230.722 252.016V252.108C230.686 252.4 230.609 252.686 230.492 252.957C230.337 253.335 230.133 253.69 229.884 254.013C229.192 254.821 228.423 255.559 227.588 256.217C227.359 256.424 228.082 257.962 228.024 257.996C228.793 257.601 229.47 257.046 230.008 256.37C230.546 255.693 230.934 254.909 231.147 254.071Z" fill="#407BFF"/>
<path d="M231.147 254.071C231.262 253.045 231.116 252.006 230.722 251.052C230.739 251.285 230.739 251.519 230.722 251.752V251.855C230.722 252.073 230.722 252.119 230.722 252.016V252.108C230.686 252.4 230.609 252.686 230.492 252.957C230.337 253.335 230.133 253.69 229.884 254.013C229.192 254.821 228.423 255.559 227.588 256.217C227.359 256.424 228.082 257.962 228.024 257.996C228.793 257.601 229.47 257.046 230.008 256.37C230.546 255.693 230.934 254.909 231.147 254.071Z" fill="#407BFF"/>
<path d="M230.688 251.89V251.775C230.688 251.775 230.688 251.855 230.688 251.89V252.028C230.722 252.155 230.734 252.109 230.688 251.89Z" fill="#407BFF"/>
<path d="M230.688 251.775C230.705 251.542 230.705 251.308 230.688 251.075C230.511 250.601 230.272 250.153 229.976 249.743C229.7 249.376 229.391 249.043 229.104 248.675C228.817 248.308 228.702 247.849 228.449 247.528V247.792C228.334 247.378 228.334 247.287 228.449 247.516C228.449 247.287 228.449 247.08 228.449 246.85C228.373 247.199 228.32 247.551 228.289 247.906C228.466 248.654 228.739 249.376 229.104 250.053C229.307 250.402 229.545 250.729 229.815 251.029C229.987 251.235 230.171 251.419 230.343 251.637L230.504 251.844C230.526 251.892 230.553 251.939 230.584 251.981C230.58 251.939 230.58 251.897 230.584 251.855C230.665 251.66 230.676 251.626 230.688 251.775Z" fill="#407BFF"/>
<path opacity="0.2" d="M230.688 251.775C230.705 251.542 230.705 251.308 230.688 251.075C230.511 250.601 230.272 250.153 229.976 249.743C229.7 249.376 229.391 249.043 229.104 248.675C228.817 248.308 228.702 247.849 228.449 247.528V247.792C228.334 247.378 228.334 247.287 228.449 247.516C228.449 247.287 228.449 247.08 228.449 246.85C228.373 247.199 228.32 247.551 228.289 247.906C228.466 248.654 228.739 249.376 229.104 250.053C229.307 250.402 229.545 250.729 229.815 251.029C229.987 251.235 230.171 251.419 230.343 251.637L230.504 251.844C230.526 251.892 230.553 251.939 230.584 251.981C230.58 251.939 230.58 251.897 230.584 251.855C230.665 251.66 230.676 251.626 230.688 251.775Z" fill="black"/>
</svg>
