<svg width="120" height="68" viewBox="0 0 120 68" fill="none" xmlns="http://www.w3.org/2000/svg">
<g clip-path="url(#clip0)">
<path d="M15.8484 38.6772C16.1459 36.6232 17.0087 35.1081 18.4428 34.1275C19.8769 33.1469 21.5205 32.6536 23.3807 32.6536C24.5525 32.6536 25.6309 32.8332 26.6222 33.1995C27.6135 33.5649 28.3011 34.0294 28.6919 34.5981C28.2368 35.0511 27.8697 35.9563 27.5959 37.3199H27.0483C26.955 36.908 26.7279 36.4725 26.3546 36.0028C25.9875 35.527 25.4918 35.1326 24.8738 34.8075C24.2505 34.4885 23.5216 34.3255 22.6756 34.3255C22.0285 34.3255 21.399 34.5227 20.781 34.9118C20.1692 35.3009 19.6735 35.817 19.2888 36.4611C18.9094 37.099 18.7175 37.7729 18.7175 38.4748C18.7175 40.1398 19.7668 41.4753 21.8595 42.4848L25.6837 44.1156C27.0307 44.6843 28.0273 45.4616 28.6805 46.4483C29.339 47.435 29.6656 48.5312 29.6656 49.744C29.6656 51.0497 29.3038 52.3151 28.5757 53.5445C27.8468 54.7749 26.815 55.7791 25.4918 56.5564C24.1625 57.3337 22.6817 57.7227 21.0434 57.7227C19.994 57.7227 18.9217 57.5019 17.8195 57.0673C16.7234 56.6265 15.8845 56.1156 15.3008 55.5355C15.5517 54.9256 15.7084 54.3981 15.7612 53.9573C15.8193 53.5165 15.8484 52.9539 15.8484 52.2748H16.3959C17.1715 53.3719 17.8767 54.1781 18.5123 54.689C19.148 55.1999 19.7079 55.5136 20.1912 55.6293C20.6754 55.7511 21.2291 55.8089 21.8586 55.8089C22.8147 55.8089 23.6484 55.5942 24.3597 55.1648C25.071 54.7354 25.6072 54.1606 25.969 53.4525C26.3361 52.7445 26.5174 51.99 26.5174 51.1838C26.5174 50.2085 26.2613 49.3269 25.748 48.5321C25.2348 47.7426 24.4891 47.1738 23.4978 46.8373L19.9473 45.2004C18.6594 44.6142 17.72 43.9762 17.1311 43.291C16.5368 42.6066 16.175 41.9327 16.0464 41.2658C15.9126 40.6042 15.8484 39.7393 15.8484 38.6781V38.6772ZM33.8623 57.1654V30.7739C34.4108 30.9132 34.9469 30.9825 35.4716 30.9825C35.9963 30.9825 36.4629 30.9132 36.8705 30.7739V43.3137C37.1214 42.9948 37.4013 42.6294 37.7156 42.2114C38.0308 41.7934 38.4094 41.4279 38.8583 41.1028C39.3073 40.7777 39.8787 40.5166 40.5662 40.3256C41.2538 40.1337 42.1165 40.0355 43.1545 40.0355C44.1343 40.0355 45.02 40.3142 45.8193 40.8654C46.6125 41.4227 47.2358 42.1711 47.6787 43.1227C48.1215 44.0682 48.3433 45.1251 48.3433 46.2914V57.1663C47.7957 57.0331 47.2939 56.963 46.8397 56.963C46.3854 56.963 45.8836 57.0322 45.336 57.1663V46.5701C45.336 45.1198 44.9451 43.999 44.1643 43.2103C43.3887 42.4155 42.4502 42.0203 41.3603 42.0203C40.6085 42.0203 39.8857 42.235 39.192 42.6583C38.4983 43.0815 37.9384 43.7256 37.5131 44.5844C37.0879 45.4432 36.8722 46.4702 36.8722 47.6541V57.1654C36.4646 57.0322 35.998 56.9621 35.4734 56.9621C34.9487 56.9621 34.4125 57.0313 33.8641 57.1654H33.8623ZM51.9 49.546C51.9 47.6313 52.2495 45.9891 52.9441 44.6256C53.6378 43.2673 54.5824 42.2464 55.7771 41.5734C56.9726 40.8943 58.3187 40.5578 59.8232 40.5578C61.5549 40.5578 62.9599 40.953 64.0498 41.7417C65.1344 42.5312 65.9092 43.4881 66.3643 44.6028C66.8186 45.7166 67.0466 46.8023 67.0466 47.8582C67.0466 48.3455 67.0061 48.7345 66.9304 49.0185H55.189C55.189 50.4573 55.3756 51.6701 55.7428 52.6682C56.116 53.6611 56.7455 54.4384 57.6487 54.9834C58.5467 55.5346 59.7299 55.8071 61.1992 55.8071C62.1667 55.8071 63.0876 55.6152 63.9741 55.227C64.8545 54.8441 65.5658 54.3104 66.1134 53.6313L66.381 55.5346C65.4954 56.1147 64.8422 56.5266 64.4284 56.7649C64.0146 57.0033 63.4433 57.2232 62.7143 57.4204C61.9854 57.6237 61.1112 57.7219 60.097 57.7219C58.3011 57.6404 56.7974 57.2171 55.5905 56.4512C54.3835 55.6853 53.4917 54.7048 52.9089 53.4972C52.3261 52.2958 51.9933 50.9787 51.9 49.5451V49.546ZM64.2127 47.6602C64.2127 46.018 63.8861 44.6484 63.239 43.5574C62.5858 42.4602 61.4554 41.9152 59.8347 41.9152C58.89 41.9152 58.0678 42.2114 57.3688 42.7976C56.6689 43.3839 56.1275 44.1322 55.7542 45.0374C55.3748 45.9426 55.189 46.8189 55.189 47.6602H64.2136H64.2127ZM71.5936 57.1654V30.4952C72.1412 30.6346 72.643 30.7038 73.0973 30.7038C73.5516 30.7038 74.0534 30.6346 74.601 30.4952V57.1654C74.1933 57.0322 73.7268 56.9621 73.2021 56.9621C72.6774 56.9621 72.1412 57.0313 71.5936 57.1654ZM80.0759 53.0862V41.9152H77.89C78.0238 41.782 78.0942 41.5848 78.0942 41.3403C78.0942 41.0906 78.0238 40.8294 77.89 40.5569H80.0759V37.3015L82.8041 36.2219V40.5569H86.6055C86.4656 40.8294 86.4013 41.0564 86.4013 41.236C86.4013 41.4157 86.4656 41.6418 86.6055 41.9152H82.8041V50.9095C82.8041 51.9076 82.8446 52.7725 82.9327 53.4972C83.0145 54.2281 83.2417 54.873 83.6026 55.4409C83.9645 56.0096 84.5235 56.2935 85.2815 56.2935C85.7886 56.2935 86.4127 56.1366 87.147 55.8177V56.9025C85.9338 57.4011 84.8501 57.6509 83.8993 57.6509C82.6633 57.6509 81.7187 57.2504 81.0602 56.4442C80.4016 55.6371 80.075 54.5172 80.075 53.0845L80.0759 53.0862ZM89.0829 53.3474C89.0829 52.5868 89.2228 51.9137 89.5081 51.3222C89.7933 50.7307 90.2599 50.2137 90.907 49.7729C91.554 49.3322 92.4053 48.9781 93.4662 48.717L97.8266 47.9047C98.3284 47.8004 98.7008 47.5734 98.9464 47.2317C99.1912 46.8838 99.3135 46.4658 99.3135 45.9786C99.3135 45.3695 99.1383 44.7483 98.7888 44.1217C98.4446 43.489 97.9551 42.9667 97.3142 42.5435C96.6786 42.1255 95.9382 41.9169 95.0984 41.9169C94.3175 41.9169 93.6176 42.1088 92.9996 42.497C92.3877 42.88 91.7231 43.5004 91.0056 44.3653H90.458V42.462C91.128 42.0615 91.7231 41.7425 92.2416 41.4928C92.7601 41.2431 93.3553 41.0231 94.0428 40.8373C94.7251 40.6515 95.4417 40.5587 96.1944 40.5587C98.2641 40.5587 99.7792 41.0056 100.748 41.9047C101.715 42.7985 102.199 44.2549 102.199 46.2748V54.979C102.199 55.6231 102.515 55.9482 103.138 55.9482C103.354 55.9482 103.68 55.8965 104.112 55.7975V56.616C103.552 57.0743 102.887 57.3065 102.111 57.3065C101.418 57.3065 100.782 57.1207 100.205 56.7439C99.634 56.3671 99.2959 55.8676 99.1912 55.2525C97.4718 56.8771 95.6873 57.6903 93.828 57.6903C92.4987 57.6903 91.3736 57.2671 90.458 56.4249C89.5424 55.5776 89.082 54.5505 89.082 53.3491L89.0829 53.3474ZM99.192 53.6146V48.9895C97.4428 49.1639 96.05 49.4075 95.0183 49.7204C93.9865 50.0393 93.2285 50.4635 92.7443 50.991C92.261 51.5133 92.0215 52.1749 92.0215 52.9697C92.0215 53.2194 92.0506 53.527 92.1087 53.8863C92.1958 54.3972 92.5515 54.8669 93.1695 55.3024C93.7875 55.7318 94.4927 55.9465 95.2745 55.9465C96.7376 55.9465 98.0432 55.1692 99.192 53.6138V53.6146Z" fill="white"/>
<path fill-rule="evenodd" clip-rule="evenodd" d="M58.2912 0C86.6503 0 110.236 19.2076 115.143 44.5414C114.933 44.5256 114.72 44.5177 114.506 44.5177C113.696 44.5177 112.914 44.6343 112.174 44.8499C102.827 21.139 82.2177 4.66366 58.2912 4.66366C30.2359 4.66366 6.73735 27.3134 0.614447 57.7227C0.541377 56.6037 0.5 55.4776 0.5 54.3411C0.5 24.3296 26.3747 0.000876299 58.2912 0.000876299V0Z" fill="white"/>
<path d="M114.506 57.7219C117.264 57.7219 119.499 55.4966 119.499 52.7515C119.499 50.0064 117.264 47.7811 114.506 47.7811C111.748 47.7811 109.513 50.0064 109.513 52.7515C109.513 55.4966 111.748 57.7219 114.506 57.7219Z" fill="white"/>
<path d="M50.0942 65.9153C50.1004 65.8066 50.1233 65.7163 50.1611 65.6445C50.199 65.5735 50.2483 65.52 50.3082 65.4867C50.368 65.4526 50.4297 65.4359 50.4922 65.4359C50.5643 65.4359 50.6339 65.4534 50.7017 65.4902C50.7686 65.5262 50.8241 65.5761 50.8663 65.6401C50.9086 65.7041 50.9297 65.7785 50.9297 65.8635C50.9165 65.9985 50.8707 66.1019 50.7915 66.1746C50.7114 66.2465 50.6189 66.2824 50.5115 66.2824C50.4068 66.2824 50.3143 66.25 50.2342 66.1843C50.1541 66.1194 50.1074 66.0292 50.0942 65.9153ZM51.9245 65.9153C51.9307 65.8066 51.9536 65.7163 51.9914 65.6445C52.0293 65.5735 52.0786 65.52 52.1384 65.4867C52.1983 65.4526 52.2599 65.4359 52.3224 65.4359C52.3946 65.4359 52.4642 65.4534 52.532 65.4902C52.5989 65.5262 52.6543 65.5761 52.6966 65.6401C52.7388 65.7041 52.76 65.7785 52.76 65.8635C52.7468 65.9985 52.701 66.1019 52.6217 66.1746C52.5416 66.2465 52.4492 66.2824 52.3418 66.2824C52.237 66.2824 52.1446 66.25 52.0645 66.1843C51.9844 66.1194 51.9377 66.0292 51.9245 65.9153ZM53.7548 65.9153C53.7609 65.8066 53.7838 65.7163 53.8217 65.6445C53.8595 65.5735 53.9088 65.52 53.9687 65.4867C54.0286 65.4526 54.0902 65.4359 54.1527 65.4359C54.2249 65.4359 54.2944 65.4534 54.3622 65.4902C54.4291 65.5262 54.4846 65.5761 54.5268 65.6401C54.5691 65.7041 54.5902 65.7785 54.5902 65.8635C54.577 65.9985 54.5313 66.1019 54.452 66.1746C54.3719 66.2465 54.2795 66.2824 54.1721 66.2824C54.0673 66.2824 53.9749 66.25 53.8948 66.1843C53.8146 66.1194 53.768 66.0292 53.7548 65.9153ZM55.431 63.9348C55.4653 63.721 55.5437 63.5475 55.6643 63.4152C55.7858 63.2837 55.9293 63.19 56.0983 63.1356C56.2656 63.0804 56.4443 63.0524 56.6335 63.0524C56.8211 63.0524 56.9566 63.0559 57.042 63.062C57.1266 63.069 57.1873 63.0752 57.2216 63.0831C57.256 63.0909 57.3035 63.0988 57.3607 63.1067C57.418 63.1146 57.5113 63.1181 57.6398 63.1181C57.7991 63.1181 58.0034 63.1137 58.2543 63.105V63.3626L57.4717 63.3109C57.5544 63.3608 57.6328 63.4327 57.7058 63.5282C57.7807 63.6237 57.8379 63.7289 57.8784 63.8454C57.9198 63.962 57.9409 64.0785 57.9409 64.1951C57.9065 64.5158 57.8035 64.7471 57.6345 64.8873C57.4637 65.0284 57.2454 65.1117 56.9769 65.1371C56.7093 65.1616 56.4971 65.1774 56.3404 65.1835C56.1828 65.1905 56.0895 65.2247 56.0596 65.2878C56.0279 65.3588 56.0138 65.4175 56.0138 65.4631C56.0138 65.556 56.0587 65.6287 56.1485 65.6786C56.24 65.7286 56.3527 65.761 56.4883 65.7777C56.6256 65.7943 56.7814 65.8022 56.9575 65.8022C57.0165 65.8022 57.0702 65.8022 57.1169 65.8005C57.1635 65.7996 57.2199 65.7987 57.285 65.7987C57.3651 65.7987 57.4276 65.8022 57.4708 65.8083C57.7419 65.8627 57.9426 65.9547 58.0721 66.0835C58.2015 66.2132 58.2789 66.4165 58.3054 66.6952C58.3071 66.7109 58.3089 66.7328 58.3089 66.7635C58.3089 66.9046 58.271 67.0474 58.1962 67.1929C58.1214 67.3392 58.0087 67.4733 57.8581 67.5977C57.7076 67.7213 57.5306 67.8186 57.3238 67.8904C57.1186 67.9623 56.888 67.9982 56.6335 67.9982C56.3765 67.9982 56.1485 67.9561 55.9513 67.8729C55.7523 67.7896 55.5991 67.6749 55.4908 67.532C55.3817 67.3892 55.3271 67.2315 55.3271 67.0606C55.3271 66.8021 55.3817 66.6031 55.4891 66.4621C55.5974 66.3219 55.769 66.2263 56.0067 66.1746C55.7277 66.0633 55.5886 65.889 55.5886 65.6524C55.5886 65.5507 55.6062 65.4657 55.6396 65.3991C55.6731 65.3325 55.7233 65.2729 55.7893 65.2177C55.8562 65.1634 55.9451 65.0994 56.0596 65.0249C55.7937 64.9426 55.6238 64.8269 55.5463 64.6779C55.4706 64.5281 55.4327 64.3362 55.4327 64.1022V63.9331L55.431 63.9348ZM55.953 64.1942C55.953 64.422 56.0199 64.6096 56.1529 64.7559C56.2858 64.9022 56.446 64.9759 56.6335 64.9759C56.6679 64.9794 56.6952 64.9811 56.7119 64.9811C56.8325 64.9811 56.9461 64.9478 57.0544 64.8786C57.1626 64.8111 57.2498 64.713 57.3176 64.5859C57.3854 64.4597 57.4188 64.3116 57.4188 64.1416C57.4188 63.8638 57.351 63.6474 57.2146 63.4914C57.0772 63.3346 56.9021 63.2574 56.6864 63.2574C56.4099 63.2811 56.218 63.3889 56.1124 63.5782C56.0067 63.7683 55.9539 63.9734 55.9539 64.1942H55.953ZM55.7444 66.958C55.7444 67.1491 55.8271 67.327 55.9935 67.4917C56.1599 67.6573 56.4082 67.7397 56.7392 67.7397C56.8924 67.7397 57.0491 67.7143 57.2119 67.6617C57.3748 67.61 57.5104 67.5285 57.6213 67.419C57.7314 67.3094 57.7859 67.1727 57.7859 67.0097C57.7859 66.8581 57.7666 66.7267 57.7287 66.6154C57.69 66.505 57.6019 66.4121 57.4628 66.3394C57.3246 66.2649 57.1177 66.2281 56.8431 66.2281C56.6336 66.2281 56.4504 66.2474 56.2946 66.2833C56.1388 66.3201 56.0111 66.3928 55.9134 66.5024C55.8157 66.6102 55.7585 66.7618 55.7435 66.958H55.7444ZM58.6161 64.7717C58.6161 64.4291 58.6874 64.1232 58.8292 63.856C58.9709 63.5869 59.1734 63.3775 59.4384 63.2285C59.7016 63.0787 60.0036 63.0042 60.3443 63.0042C60.7413 63.0042 61.0582 63.105 61.2933 63.3083C61.5292 63.5107 61.6912 63.7403 61.7819 63.9979C61.8708 64.2555 61.9157 64.4781 61.9157 64.6674C61.9157 64.847 61.8858 65.0284 61.8242 65.2116C61.7625 65.3947 61.6657 65.5682 61.5345 65.733C61.4025 65.8977 61.2299 66.0292 61.016 66.1308C60.8021 66.2316 60.5573 66.2815 60.2835 66.2815C60.2677 66.2815 60.2536 66.2815 60.2413 66.2798C60.2281 66.2789 60.2105 66.278 60.1893 66.278C59.868 66.278 59.5898 66.2114 59.3503 66.0782C59.1126 65.945 58.9313 65.7645 58.8063 65.5367C58.6804 65.308 58.6179 65.053 58.6179 64.7717H58.6161ZM59.2447 64.826C59.2447 65.0766 59.3151 65.343 59.4551 65.6226C59.596 65.9021 59.8565 66.052 60.2377 66.0747C60.5344 66.0747 60.7765 65.9547 60.9649 65.7137C61.1524 65.4727 61.259 65.1248 61.2845 64.6692C61.2845 64.394 61.2484 64.1495 61.1762 63.9357C61.1049 63.7228 60.994 63.5571 60.8461 63.4397C60.6982 63.3232 60.5124 63.2645 60.2897 63.2645C59.9675 63.2645 59.7113 63.4073 59.5211 63.6947C59.3319 63.9821 59.2368 64.3143 59.2368 64.6893C59.2368 64.7191 59.2385 64.7647 59.2429 64.826H59.2447ZM62.5945 65.4473V63.3109H62.1763C62.2018 63.2855 62.215 63.2478 62.215 63.2014C62.215 63.154 62.2018 63.1032 62.1763 63.0515H62.5945V62.4285L63.1165 62.2225V63.0515H63.8437C63.8173 63.1032 63.805 63.147 63.805 63.1812C63.805 63.2154 63.8173 63.2592 63.8437 63.3109H63.1165V65.0311C63.1165 65.2221 63.1244 65.3877 63.1412 65.5262C63.157 65.6655 63.2002 65.7891 63.2697 65.8977C63.3384 66.0064 63.4458 66.0607 63.591 66.0607C63.6879 66.0607 63.8076 66.0309 63.9476 65.9696V66.1773C63.716 66.2728 63.5083 66.3201 63.3269 66.3201C63.0901 66.3201 62.9096 66.2439 62.7837 66.0896C62.6579 65.9354 62.5954 65.7207 62.5954 65.4473H62.5945ZM65.9293 63.0506C66.0596 63.0769 66.1872 63.0909 66.3087 63.0909C66.4302 63.0909 66.5306 63.0778 66.6098 63.0506C66.6327 63.1348 66.6934 63.3039 66.7894 63.5554C66.8853 63.806 66.9646 64.0093 67.0253 64.1635C67.0878 64.3178 67.1767 64.5298 67.2921 64.8006C67.4083 65.0705 67.5122 65.3036 67.6028 65.499C67.6988 65.3062 67.8273 65.0241 67.9884 64.6543C68.1495 64.2836 68.2869 63.9497 68.4022 63.6509C68.5158 63.3521 68.5809 63.1523 68.5959 63.0506C68.6742 63.0769 68.7535 63.0909 68.8309 63.0909C68.9093 63.0909 68.9885 63.0778 69.066 63.0506L66.8695 67.9456C66.8176 67.9193 66.7524 67.9053 66.6732 67.9053C66.5948 67.9053 66.5033 67.9185 66.3985 67.9456L67.2868 66.1755L65.9275 63.0506H65.9293ZM69.3283 64.7708C69.3283 64.4282 69.3997 64.1223 69.5414 63.8551C69.6831 63.5861 69.8856 63.3766 70.1506 63.2276C70.4138 63.0778 70.7158 63.0033 71.0565 63.0033C71.4535 63.0033 71.7705 63.1041 72.0055 63.3074C72.2415 63.5098 72.4034 63.7394 72.4941 63.997C72.583 64.2547 72.6279 64.4772 72.6279 64.6665C72.6279 64.8462 72.598 65.0276 72.5364 65.2107C72.4747 65.3939 72.3779 65.5674 72.2467 65.7321C72.1147 65.8968 71.9421 66.0283 71.7282 66.1299C71.5143 66.2307 71.2695 66.2807 70.9957 66.2807C70.9799 66.2807 70.9658 66.2807 70.9535 66.2789C70.9403 66.278 70.9227 66.2772 70.9015 66.2772C70.5802 66.2772 70.302 66.2106 70.0626 66.0774C69.8249 65.9442 69.6435 65.7636 69.5185 65.5358C69.3926 65.3071 69.3301 65.0521 69.3301 64.7708H69.3283ZM69.9569 64.8251C69.9569 65.0758 70.0273 65.3421 70.1673 65.6217C70.3082 65.9012 70.5688 66.0511 70.95 66.0739C71.2466 66.0739 71.4887 65.9538 71.6771 65.7128C71.8647 65.4718 71.9712 65.124 71.9967 64.6683C71.9967 64.3931 71.9606 64.1486 71.8884 63.9348C71.8171 63.7219 71.7062 63.5563 71.5583 63.4388C71.4104 63.3223 71.2246 63.2636 71.0019 63.2636C70.6797 63.2636 70.4235 63.4064 70.2333 63.6938C70.0441 63.9813 69.949 64.3134 69.949 64.6884C69.949 64.7182 69.9508 64.7638 69.9552 64.8251H69.9569ZM73.2996 65.0819V63.0506C73.378 63.0769 73.474 63.0909 73.5875 63.0909C73.7011 63.0909 73.797 63.0778 73.8754 63.0506V64.9233C73.8754 65.1143 73.9036 65.2887 73.959 65.4464C74.0145 65.6033 74.0999 65.7295 74.2143 65.825C74.3288 65.9205 74.4696 65.9678 74.6343 65.9678C74.6704 65.9678 74.6959 65.967 74.7135 65.9643C74.9776 65.9407 75.166 65.8399 75.2787 65.662C75.3914 65.4832 75.4468 65.2729 75.4468 65.0276V63.0506C75.5516 63.0769 75.6537 63.0909 75.755 63.0909C75.8553 63.0909 75.9442 63.0778 76.0226 63.0506V66.2272C75.9442 66.2018 75.8553 66.1887 75.755 66.1887C75.6546 66.1887 75.5516 66.2018 75.4468 66.2272V65.7566C75.3491 65.9512 75.2074 66.0861 75.0207 66.1641C74.835 66.2421 74.6105 66.2807 74.3464 66.2807C73.9124 66.2807 73.6289 66.1615 73.4977 65.924C73.3648 65.6865 73.2988 65.4052 73.2988 65.0819H73.2996ZM78.683 64.7182C78.683 64.3817 78.7491 64.089 78.8794 63.8411C79.0097 63.5922 79.2086 63.3985 79.4763 63.2592C79.743 63.1207 80.0705 63.0506 80.4605 63.0506C80.6735 63.0506 80.8452 63.0708 80.9737 63.1093C81.1023 63.1479 81.2625 63.2145 81.4544 63.31L81.3497 63.7788H81.2449C81.1392 63.6176 81.0151 63.5002 80.8743 63.4248C80.7343 63.3486 80.5609 63.3109 80.3566 63.3109C80.1392 63.3109 79.9508 63.3757 79.7932 63.5028C79.6347 63.6316 79.5159 63.799 79.434 64.0067C79.353 64.2126 79.3116 64.4334 79.3116 64.6656C79.3116 64.9022 79.3539 65.124 79.4384 65.3308C79.5229 65.5367 79.6523 65.7032 79.8275 65.8302C80.0018 65.9582 80.2122 66.0213 80.4614 66.0213C80.6586 66.0213 80.8302 65.9871 80.9729 65.9196C81.1164 65.8513 81.259 65.7461 81.4007 65.605L81.4527 65.6559L81.4007 65.9687C81.2616 66.08 81.0988 66.1632 80.9139 66.2202C80.7281 66.278 80.5406 66.307 80.3487 66.307C80.0679 66.307 79.7993 66.2474 79.5405 66.1256C79.2826 66.0055 79.0757 65.825 78.9181 65.5849C78.7605 65.3448 78.683 65.0556 78.683 64.7174V64.7182ZM81.921 64.7717C81.921 64.4291 81.9923 64.1232 82.1341 63.856C82.2758 63.5869 82.4783 63.3775 82.7433 63.2285C83.0065 63.0787 83.3085 63.0042 83.6492 63.0042C84.0462 63.0042 84.3631 63.105 84.5982 63.3083C84.8341 63.5107 84.9961 63.7403 85.0868 63.9979C85.1757 64.2555 85.2206 64.4781 85.2206 64.6674C85.2206 64.847 85.1907 65.0284 85.129 65.2116C85.0674 65.3947 84.9706 65.5682 84.8394 65.733C84.7074 65.8977 84.5348 66.0292 84.3209 66.1308C84.1069 66.2316 83.8622 66.2815 83.5884 66.2815C83.5726 66.2815 83.5585 66.2815 83.5462 66.2798C83.533 66.2789 83.5153 66.278 83.4942 66.278C83.1729 66.278 82.8947 66.2114 82.6552 66.0782C82.4175 65.945 82.2362 65.7645 82.1112 65.5367C81.9853 65.308 81.9228 65.053 81.9228 64.7717H81.921ZM82.5496 64.826C82.5496 65.0766 82.62 65.343 82.76 65.6226C82.9009 65.9021 83.1614 66.052 83.5426 66.0747C83.8393 66.0747 84.0814 65.9547 84.2698 65.7137C84.4573 65.4727 84.5639 65.1248 84.5894 64.6692C84.5894 64.394 84.5533 64.1495 84.4811 63.9357C84.4098 63.7228 84.2989 63.5571 84.151 63.4397C84.0031 63.3232 83.8173 63.2645 83.5946 63.2645C83.2724 63.2645 83.0162 63.4073 82.826 63.6947C82.6367 63.9821 82.5417 64.3143 82.5417 64.6893C82.5417 64.7191 82.5434 64.7647 82.5478 64.826H82.5496ZM85.5314 63.0515H86.211C86.3167 63.4222 86.4707 63.8621 86.6714 64.3677C86.8722 64.8751 87.0491 65.2694 87.2041 65.5525C87.3528 65.2826 87.5412 64.8549 87.7692 64.2704C87.9981 63.6851 88.1408 63.2793 88.1971 63.0515H88.6681C88.5396 63.3205 88.4181 63.5843 88.3036 63.8446C88.1901 64.1039 88.0756 64.3703 87.9603 64.6446C87.8467 64.9198 87.7349 65.1888 87.6266 65.4526C87.5192 65.7155 87.4127 65.9748 87.3088 66.2281C87.2569 66.2027 87.1864 66.1895 87.0993 66.1895C87.0121 66.1895 86.9417 66.2027 86.8898 66.2281L85.5305 63.0515H85.5314ZM89.0308 64.7708C89.0308 64.4045 89.0977 64.0908 89.2306 63.8297C89.3636 63.5703 89.544 63.3749 89.7729 63.246C90.0018 63.1164 90.2589 63.0515 90.5468 63.0515C90.8778 63.0515 91.1463 63.1269 91.3549 63.2785C91.5618 63.4292 91.7106 63.6123 91.7978 63.8253C91.8849 64.0382 91.9281 64.2459 91.9281 64.4475C91.9281 64.5403 91.9201 64.6148 91.9061 64.67H89.6603C89.6603 64.9452 89.6955 65.1774 89.7659 65.3676C89.8372 65.5577 89.9578 65.7067 90.1304 65.811C90.302 65.9161 90.5283 65.9687 90.8091 65.9687C90.994 65.9687 91.1701 65.9319 91.34 65.8574C91.5081 65.7847 91.6446 65.6822 91.7494 65.5525L91.8004 65.9161C91.6305 66.0274 91.5055 66.1063 91.4271 66.1519C91.3479 66.1974 91.2387 66.2395 91.0996 66.2772C90.9605 66.3157 90.7933 66.335 90.5987 66.335C90.2554 66.3192 89.9675 66.2386 89.7368 66.0923C89.5062 65.9459 89.3354 65.7584 89.2236 65.5271C89.1118 65.2975 89.0484 65.0451 89.0308 64.7708ZM91.3858 64.4106C91.3858 64.0961 91.3233 63.8349 91.1991 63.6255C91.0741 63.416 90.8584 63.3109 90.5477 63.3109C90.3672 63.3109 90.2096 63.3678 90.0758 63.48C89.942 63.5922 89.8381 63.735 89.7668 63.9085C89.6946 64.082 89.6585 64.2494 89.6585 64.4106H91.3849H91.3858ZM92.6904 66.229V63.0524C92.7688 63.0787 92.8551 63.0927 92.951 63.0927C93.047 63.0927 93.1342 63.0796 93.2116 63.0524V63.6816C93.2794 63.5492 93.3586 63.4318 93.4528 63.331C93.5453 63.2285 93.6518 63.1479 93.7707 63.0883C93.8913 63.0296 94.0198 62.9989 94.1562 62.9989C94.1765 62.9989 94.21 63.0016 94.2575 63.0059L94.2047 63.6299C94.0726 63.5598 93.952 63.5256 93.8428 63.5256C93.7082 63.5256 93.5928 63.5703 93.4986 63.6588C93.4035 63.7473 93.3322 63.8577 93.2847 63.9874C93.2372 64.1171 93.2125 64.2406 93.2125 64.3581V66.2298C93.1342 66.2044 93.0479 66.1913 92.9519 66.1913C92.856 66.1913 92.7688 66.2044 92.6913 66.2298L92.6904 66.229ZM94.5718 64.7717C94.5718 64.4054 94.6387 64.0917 94.7716 63.8305C94.9046 63.5712 95.085 63.3757 95.3139 63.2469C95.5428 63.1172 95.7999 63.0524 96.0878 63.0524C96.4188 63.0524 96.6873 63.1277 96.8959 63.2793C97.1028 63.4301 97.2516 63.6132 97.3388 63.8262C97.4259 64.0391 97.469 64.2468 97.469 64.4483C97.469 64.5412 97.4611 64.6157 97.447 64.6709H95.2012C95.2012 64.9461 95.2365 65.1783 95.3069 65.3684C95.3782 65.5586 95.4988 65.7076 95.6714 65.8118C95.843 65.917 96.0693 65.9696 96.3501 65.9696C96.535 65.9696 96.7111 65.9328 96.881 65.8583C97.0491 65.7856 97.1856 65.683 97.2903 65.5533L97.3414 65.917C97.1715 66.0283 97.0465 66.1072 96.9681 66.1527C96.8889 66.1983 96.7797 66.2404 96.6406 66.278C96.5015 66.3166 96.3343 66.3359 96.1397 66.3359C95.7964 66.3201 95.5085 66.2395 95.2778 66.0931C95.0472 65.9468 94.8764 65.7593 94.7646 65.5279C94.6528 65.2983 94.5894 65.046 94.5718 64.7717ZM96.9268 64.4115C96.9268 64.0969 96.8642 63.8358 96.7401 63.6264C96.6151 63.4169 96.3994 63.3118 96.0886 63.3118C95.9082 63.3118 95.7506 63.3687 95.6168 63.4809C95.483 63.5931 95.3791 63.7359 95.3078 63.9094C95.2356 64.0829 95.1995 64.2503 95.1995 64.4115H96.9259H96.9268ZM97.9172 64.8243C97.9172 64.5386 97.948 64.2836 98.0114 64.0593C98.0747 63.8358 98.1689 63.6439 98.2957 63.4862C98.4216 63.3284 98.5757 63.2084 98.757 63.1277C98.9392 63.0463 99.1461 63.0059 99.3794 63.0059C99.5282 63.0059 99.6805 63.0357 99.8381 63.0944C99.9966 63.1532 100.125 63.2285 100.224 63.3197C100.323 63.4117 100.372 63.4993 100.372 63.5817V61.2341C100.476 61.2604 100.572 61.2744 100.659 61.2744C100.747 61.2744 100.843 61.2612 100.947 61.2341V66.229C100.869 66.2009 100.78 66.1878 100.68 66.1878C100.579 66.1878 100.476 66.2009 100.372 66.229V65.6541C100.214 65.8706 100.042 66.03 99.854 66.1317C99.6656 66.2325 99.4727 66.2824 99.2738 66.2824C99.0431 66.2824 98.8222 66.2176 98.6118 66.0888C98.3996 65.9599 98.2314 65.7838 98.1055 65.5595C97.9797 65.3351 97.9163 65.0898 97.9163 64.8234L97.9172 64.8243ZM98.5457 64.7217C98.5457 65.1757 98.6355 65.4964 98.8178 65.6839C99 65.8714 99.1866 65.9661 99.3812 65.9661C99.3979 65.9678 99.4252 65.9696 99.4595 65.9696C99.6224 65.9696 99.7738 65.9188 99.9147 65.8171C100.055 65.7146 100.166 65.5674 100.249 65.3711C100.332 65.1757 100.373 64.9426 100.373 64.6692C100.373 64.3283 100.313 64.0181 100.193 63.7376C100.071 63.4581 99.8407 63.3179 99.4992 63.3179C99.486 63.3179 99.4745 63.3179 99.4648 63.3188C99.456 63.3197 99.4446 63.3205 99.4349 63.3205C99.0695 63.3416 98.8301 63.4914 98.7165 63.7683C98.6038 64.0444 98.5475 64.3625 98.5475 64.7209L98.5457 64.7217ZM101.888 65.9161C101.895 65.8075 101.918 65.7172 101.955 65.6453C101.993 65.5744 102.043 65.5209 102.102 65.4876C102.162 65.4534 102.224 65.4368 102.286 65.4368C102.359 65.4368 102.428 65.4543 102.496 65.4911C102.563 65.527 102.618 65.577 102.661 65.641C102.703 65.7049 102.724 65.7794 102.724 65.8644C102.711 65.9994 102.665 66.1028 102.586 66.1755C102.506 66.2474 102.413 66.2833 102.306 66.2833C102.201 66.2833 102.109 66.2509 102.028 66.1852C101.948 66.1203 101.902 66.03 101.888 65.9161Z" fill="white"/>
</g>
<defs>
<clipPath id="clip0">
<rect width="119" height="68" fill="white" transform="translate(0.5)"/>
</clipPath>
</defs>
</svg>
