<svg width="31" height="29" viewBox="0 0 31 29" fill="none" xmlns="http://www.w3.org/2000/svg">
<path d="M26.9721 21.875H24.6486C24.49 21.875 24.3413 21.9444 24.2421 22.0667C24.0107 22.3476 23.7629 22.6186 23.5018 22.8764C22.4339 23.9454 21.1689 24.7973 19.7769 25.385C18.3347 25.9942 16.7847 26.3066 15.2191 26.3038C13.636 26.3038 12.1024 25.9932 10.6614 25.385C9.26935 24.7973 8.00441 23.9454 6.9365 22.8764C5.86669 21.8111 5.01364 20.5483 4.42461 19.1582C3.81317 17.7171 3.50579 16.1869 3.50579 14.6037C3.50579 13.0206 3.81647 11.4903 4.42461 10.0493C5.01292 8.65782 5.85903 7.40518 6.9365 6.33101C8.01397 5.25685 9.26661 4.41074 10.6614 3.82243C12.1024 3.21428 13.636 2.9036 15.2191 2.9036C16.8023 2.9036 18.3359 3.21098 19.7769 3.82243C21.1716 4.41074 22.4243 5.25685 23.5018 6.33101C23.7629 6.59212 24.0074 6.86314 24.2421 7.14077C24.3413 7.26306 24.4933 7.33246 24.6486 7.33246H26.9721C27.1804 7.33246 27.3093 7.1011 27.1936 6.92593C24.6586 2.98623 20.2231 0.378492 15.1828 0.391713C7.26371 0.411543 0.914576 6.84 0.993899 14.7492C1.07322 22.5327 7.41244 28.8157 15.2191 28.8157C20.2462 28.8157 24.6619 26.2113 27.1936 22.2815C27.306 22.1063 27.1804 21.875 26.9721 21.875ZM29.9104 14.3955L25.2204 10.6938C25.0452 10.555 24.7908 10.6805 24.7908 10.902V13.4139H14.4127C14.2673 13.4139 14.1483 13.5329 14.1483 13.6783V15.5292C14.1483 15.6746 14.2673 15.7936 14.4127 15.7936H24.7908V18.3055C24.7908 18.5269 25.0486 18.6525 25.2204 18.5137L29.9104 14.8119C29.942 14.7872 29.9675 14.7556 29.9851 14.7195C30.0027 14.6835 30.0118 14.6439 30.0118 14.6037C30.0118 14.5636 30.0027 14.524 29.9851 14.4879C29.9675 14.4518 29.942 14.4202 29.9104 14.3955Z" fill="white"/>
</svg>
