<svg width="31" height="29" viewBox="0 0 31 29" fill="none" xmlns="http://www.w3.org/2000/svg">
<path d="M26.9721 21.8759H24.6486C24.49 21.8759 24.3413 21.9453 24.2421 22.0676C24.0107 22.3485 23.7629 22.6196 23.5018 22.8774C22.4339 23.9463 21.1689 24.7982 19.7769 25.3859C18.3347 25.9951 16.7847 26.3076 15.2191 26.3048C13.636 26.3048 12.1024 25.9941 10.6614 25.3859C9.26935 24.7982 8.00441 23.9463 6.9365 22.8774C5.86669 21.812 5.01364 20.5493 4.42461 19.1591C3.81317 17.7181 3.50579 16.1878 3.50579 14.6046C3.50579 13.0215 3.81647 11.4912 4.42461 10.0502C5.01292 8.65873 5.85903 7.40609 6.9365 6.33193C8.01397 5.25776 9.26661 4.41165 10.6614 3.82334C12.1024 3.2152 13.636 2.90452 15.2191 2.90452C16.8023 2.90452 18.3359 3.21189 19.7769 3.82334C21.1716 4.41165 22.4243 5.25776 23.5018 6.33193C23.7629 6.59303 24.0074 6.86405 24.2421 7.14168C24.3413 7.26397 24.4933 7.33338 24.6486 7.33338H26.9721C27.1804 7.33338 27.3093 7.10202 27.1936 6.92685C24.6586 2.98715 20.2231 0.379408 15.1828 0.392628C7.26371 0.412459 0.914576 6.84092 0.993899 14.7501C1.07322 22.5336 7.41244 28.8167 15.2191 28.8167C20.2462 28.8167 24.6619 26.2122 27.1936 22.2824C27.306 22.1073 27.1804 21.8759 26.9721 21.8759ZM29.9104 14.3964L25.2204 10.6947C25.0452 10.5559 24.7908 10.6815 24.7908 10.9029V13.4148H14.4127C14.2673 13.4148 14.1483 13.5338 14.1483 13.6792V15.5301C14.1483 15.6755 14.2673 15.7945 14.4127 15.7945H24.7908V18.3064C24.7908 18.5278 25.0486 18.6534 25.2204 18.5146L29.9104 14.8129C29.942 14.7881 29.9675 14.7565 29.9851 14.7205C30.0027 14.6844 30.0118 14.6448 30.0118 14.6046C30.0118 14.5645 30.0027 14.5249 29.9851 14.4888C29.9675 14.4528 29.942 14.4212 29.9104 14.3964Z" fill="black"/>
</svg>
