<svg width="55" height="66" viewBox="0 0 55 66" fill="none" xmlns="http://www.w3.org/2000/svg">
<path d="M52.0417 9.12035L44.8938 1.97242C42.2639 -0.657475 37.9819 -0.657475 35.352 1.97242L25.8102 11.5142L32.9581 18.6622L40.106 11.5142L52.0417 23.4499C53.9364 21.5467 55 18.9706 55 16.2851C55 13.5997 53.9364 11.0235 52.0417 9.12035V9.12035ZM5.54647 38.9259C7.53575 40.9152 10.7388 40.9152 12.6944 38.9259L21.0224 30.5979L13.8745 23.4162L5.54647 31.7442C3.55718 33.7335 3.55718 36.9366 5.54647 38.9259Z" fill="white"/>
<path d="M37.7458 18.6627L35.3519 21.0565L32.958 23.4504L22.2361 12.7285C20.2468 10.7055 17.0438 10.7055 15.0882 12.6948C14.6152 13.1621 14.2396 13.7186 13.9833 14.3321C13.727 14.9456 13.595 15.6039 13.595 16.2688C13.595 16.9337 13.727 17.5919 13.9833 18.2054C14.2396 18.8189 14.6152 19.3755 15.0882 19.8427L25.8101 30.5646L23.4162 32.9585L1.97242 54.4023C-0.657475 57.0322 -0.657475 61.3142 1.97242 63.9441C4.60232 66.574 8.88434 66.574 11.5142 63.9441L42.4998 32.9585C42.812 33.2707 43.1826 33.5183 43.5904 33.6872C43.9983 33.8562 44.4354 33.9431 44.8769 33.9431C45.3183 33.9431 45.7554 33.8562 46.1633 33.6872C46.5711 33.5183 46.9417 33.2707 47.2539 32.9585C47.566 32.6464 47.8136 32.2758 47.9826 31.8679C48.1515 31.4601 48.2385 31.0229 48.2385 30.5815C48.2385 30.14 48.1515 29.7029 47.9826 29.2951C47.8136 28.8872 47.566 28.5166 47.2539 28.2045L37.7458 18.6627Z" fill="#3EC250"/>
</svg>
