<svg width="543" height="427" viewBox="0 0 543 427" fill="none" xmlns="http://www.w3.org/2000/svg">
<g filter="url(#filter0_d)">
<g filter="url(#filter1_d)">
<rect x="10" y="15" width="388.223" height="347" rx="5" fill="white"/>
<path d="M10 20C10 17.2386 12.2386 15 15 15H393.223C395.984 15 398.223 17.2386 398.223 20V35.8722H10V20Z" fill="#EFEFEF"/>
<circle cx="26.1761" cy="25.4361" r="5.21805" fill="#FFD704"/>
<circle cx="26.1761" cy="25.4361" r="5.21805" fill="#FFD704"/>
<circle cx="26.1761" cy="25.4361" r="5.21805" fill="#FFD704"/>
<circle cx="26.1761" cy="25.4361" r="5.21805" fill="#FFD704"/>
<circle cx="26.1761" cy="25.4361" r="5.21805" fill="#FFD704"/>
<circle cx="46.5266" cy="25.4361" r="5.21805" fill="#C4C4C4"/>
<circle cx="66.8772" cy="25.4361" r="5.21805" fill="#EA0000"/>
<path d="M50.4916 67.6941C50.4916 67.2741 50.6716 66.9201 51.0316 66.6321C51.3916 66.3321 51.8956 66.1821 52.5436 66.1821C53.1196 66.1821 53.6896 66.2961 54.2536 66.5241C54.8176 66.7401 55.3876 67.0581 55.9636 67.4781L57.1516 65.8041C56.5036 65.2881 55.8076 64.8981 55.0636 64.6341C54.3316 64.3581 53.5036 64.2201 52.5796 64.2201C51.9556 64.2201 51.3796 64.3101 50.8516 64.4901C50.3236 64.6581 49.8676 64.9041 49.4836 65.2281C49.1116 65.5521 48.8176 65.9421 48.6016 66.3981C48.3856 66.8421 48.2776 67.3401 48.2776 67.8921C48.2776 68.4801 48.3676 68.9781 48.5476 69.3861C48.7396 69.7941 49.0096 70.1421 49.3576 70.4301C49.7176 70.7181 50.1556 70.9581 50.6716 71.1501C51.1996 71.3421 51.7996 71.5161 52.4716 71.6721C53.0596 71.8161 53.5336 71.9541 53.8936 72.0861C54.2656 72.2181 54.5536 72.3621 54.7576 72.5181C54.9736 72.6621 55.1176 72.8241 55.1896 73.0041C55.2736 73.1841 55.3156 73.3881 55.3156 73.6161C55.3156 74.1081 55.1116 74.4981 54.7036 74.7861C54.3076 75.0741 53.7676 75.2181 53.0836 75.2181C52.2916 75.2181 51.5836 75.0801 50.9596 74.8041C50.3356 74.5161 49.7176 74.1081 49.1056 73.5801L47.7736 75.1641C48.5296 75.8481 49.3516 76.3581 50.2396 76.6941C51.1276 77.0181 52.0576 77.1801 53.0296 77.1801C53.6896 77.1801 54.2956 77.0961 54.8476 76.9281C55.3996 76.7601 55.8736 76.5141 56.2696 76.1901C56.6656 75.8661 56.9716 75.4701 57.1876 75.0021C57.4156 74.5341 57.5296 74.0001 57.5296 73.4001C57.5296 72.8721 57.4396 72.4161 57.2596 72.0321C57.0916 71.6361 56.8396 71.2941 56.5036 71.0061C56.1676 70.7061 55.7416 70.4541 55.2256 70.2501C54.7216 70.0461 54.1396 69.8601 53.4796 69.6921C52.8796 69.5481 52.3816 69.4101 51.9856 69.2781C51.6016 69.1461 51.2956 69.0021 51.0676 68.8461C50.8516 68.6901 50.7016 68.5221 50.6176 68.3421C50.5336 68.1621 50.4916 67.9461 50.4916 67.6941Z" fill="black" fill-opacity="0.7"/>
<path d="M66.1273 72.8601C66.1273 73.6041 65.9293 74.1861 65.5333 74.6061C65.1373 75.0141 64.6213 75.2181 63.9853 75.2181C63.3373 75.2181 62.8333 75.0201 62.4733 74.6241C62.1253 74.2161 61.9513 73.6401 61.9513 72.8961V67.4961H59.7733V73.5441C59.7733 74.6601 60.0673 75.5481 60.6553 76.2081C61.2433 76.8681 62.0773 77.1981 63.1573 77.1981C63.8893 77.1981 64.4893 77.0361 64.9573 76.7121C65.4253 76.3761 65.8153 75.9801 66.1273 75.5241V77.0001H68.3053V67.4961H66.1273V72.8601Z" fill="black" fill-opacity="0.7"/>
<path d="M80.8714 72.2481C80.8714 71.4561 80.7454 70.7541 80.4934 70.1421C80.2414 69.5301 79.9054 69.0141 79.4854 68.5941C79.0774 68.1621 78.6094 67.8381 78.0814 67.6221C77.5534 67.4061 77.0074 67.2981 76.4434 67.2981C75.6754 67.2981 75.0334 67.4721 74.5174 67.8201C74.0014 68.1561 73.5694 68.5761 73.2214 69.0801V63.8601H71.0434V77.0001H73.2214V75.5241C73.5574 75.9681 73.9834 76.3581 74.4994 76.6941C75.0154 77.0301 75.6634 77.1981 76.4434 77.1981C77.0074 77.1981 77.5534 77.0901 78.0814 76.8741C78.6214 76.6581 79.0954 76.3401 79.5034 75.9201C79.9234 75.4881 80.2534 74.9661 80.4934 74.3541C80.7454 73.7421 80.8714 73.0401 80.8714 72.2481ZM78.6574 72.2481C78.6574 72.7161 78.5854 73.1421 78.4414 73.5261C78.2974 73.8981 78.0994 74.2161 77.8474 74.4801C77.6074 74.7441 77.3194 74.9481 76.9834 75.0921C76.6594 75.2361 76.3114 75.3081 75.9394 75.3081C75.5674 75.3081 75.2134 75.2361 74.8774 75.0921C74.5414 74.9481 74.2474 74.7441 73.9954 74.4801C73.7434 74.2041 73.5394 73.8801 73.3834 73.5081C73.2394 73.1361 73.1674 72.7161 73.1674 72.2481C73.1674 71.7801 73.2394 71.3601 73.3834 70.9881C73.5394 70.6161 73.7434 70.2981 73.9954 70.0341C74.2474 69.7581 74.5414 69.5481 74.8774 69.4041C75.2134 69.2601 75.5674 69.1881 75.9394 69.1881C76.3114 69.1881 76.6594 69.2601 76.9834 69.4041C77.3194 69.5481 77.6074 69.7521 77.8474 70.0161C78.0994 70.2801 78.2974 70.6041 78.4414 70.9881C78.5854 71.3601 78.6574 71.7801 78.6574 72.2481Z" fill="black" fill-opacity="0.7"/>
<path d="M91.004 68.9721C90.752 68.4681 90.386 68.0661 89.906 67.7661C89.438 67.4541 88.862 67.2981 88.178 67.2981C87.818 67.2981 87.488 67.3461 87.188 67.4421C86.9 67.5261 86.636 67.6461 86.396 67.8021C86.168 67.9581 85.964 68.1321 85.784 68.3241C85.604 68.5161 85.436 68.7201 85.28 68.9361V67.4961H83.102V77.0001H85.28V71.6541C85.28 70.9101 85.466 70.3281 85.838 69.9081C86.21 69.4881 86.702 69.2781 87.314 69.2781C87.926 69.2781 88.4 69.4761 88.736 69.8721C89.072 70.2681 89.24 70.8381 89.24 71.5821V77.0001H91.418V71.6361C91.418 70.8681 91.604 70.2861 91.976 69.8901C92.36 69.4821 92.852 69.2781 93.452 69.2781C94.064 69.2781 94.538 69.4761 94.874 69.8721C95.21 70.2681 95.378 70.8441 95.378 71.6001V77.0001H97.556V70.9341C97.556 69.7701 97.262 68.8761 96.674 68.2521C96.086 67.6161 95.27 67.2981 94.226 67.2981C93.506 67.2981 92.882 67.4541 92.354 67.7661C91.838 68.0661 91.388 68.4681 91.004 68.9721Z" fill="black" fill-opacity="0.7"/>
<path d="M102.582 66.0381V63.9681H100.242V66.0381H102.582ZM102.51 77.0001V67.4961H100.332V77.0001H102.51Z" fill="black" fill-opacity="0.7"/>
<path d="M107.984 69.3681H110.54V67.4961H107.984V64.8861H105.806V67.4961H104.6V69.3681H105.806V74.3721C105.806 74.9001 105.872 75.3441 106.004 75.7041C106.136 76.0521 106.322 76.3341 106.562 76.5501C106.814 76.7661 107.108 76.9221 107.444 77.0181C107.78 77.1141 108.146 77.1621 108.542 77.1621C108.95 77.1621 109.31 77.1201 109.622 77.0361C109.934 76.9521 110.228 76.8321 110.504 76.6761V74.8941C110.072 75.1101 109.622 75.2181 109.154 75.2181C108.782 75.2181 108.494 75.1281 108.29 74.9481C108.086 74.7561 107.984 74.4501 107.984 74.0301V69.3681Z" fill="black" fill-opacity="0.7"/>
<path d="M126.037 68.9721C125.785 68.4681 125.419 68.0661 124.939 67.7661C124.471 67.4541 123.895 67.2981 123.211 67.2981C122.851 67.2981 122.521 67.3461 122.221 67.4421C121.933 67.5261 121.669 67.6461 121.429 67.8021C121.201 67.9581 120.997 68.1321 120.817 68.3241C120.637 68.5161 120.469 68.7201 120.313 68.9361V67.4961H118.135V77.0001H120.313V71.6541C120.313 70.9101 120.499 70.3281 120.871 69.9081C121.243 69.4881 121.735 69.2781 122.347 69.2781C122.959 69.2781 123.433 69.4761 123.769 69.8721C124.105 70.2681 124.273 70.8381 124.273 71.5821V77.0001H126.451V71.6361C126.451 70.8681 126.637 70.2861 127.009 69.8901C127.393 69.4821 127.885 69.2781 128.485 69.2781C129.097 69.2781 129.571 69.4761 129.907 69.8721C130.243 70.2681 130.411 70.8441 130.411 71.6001V77.0001H132.589V70.9341C132.589 69.7701 132.295 68.8761 131.707 68.2521C131.119 67.6161 130.303 67.2981 129.259 67.2981C128.539 67.2981 127.915 67.4541 127.387 67.7661C126.871 68.0661 126.421 68.4681 126.037 68.9721Z" fill="black" fill-opacity="0.7"/>
<path d="M143.213 77.0001V71.3661C143.213 70.0941 142.871 69.1101 142.187 68.4141C141.503 67.7061 140.453 67.3521 139.037 67.3521C138.257 67.3521 137.591 67.4241 137.039 67.5681C136.487 67.7121 135.947 67.9041 135.419 68.1441L136.013 69.8901C136.445 69.7101 136.871 69.5661 137.291 69.4581C137.711 69.3501 138.191 69.2961 138.731 69.2961C139.487 69.2961 140.063 69.4701 140.459 69.8181C140.867 70.1661 141.071 70.6701 141.071 71.3301V71.5641C140.699 71.4441 140.309 71.3481 139.901 71.2761C139.505 71.2041 139.019 71.1681 138.443 71.1681C137.891 71.1681 137.375 71.2341 136.895 71.3661C136.427 71.4861 136.019 71.6721 135.671 71.9241C135.335 72.1761 135.071 72.4941 134.879 72.8781C134.687 73.2621 134.591 73.7121 134.591 74.2281V74.2641C134.591 74.7441 134.681 75.1701 134.861 75.5421C135.053 75.9021 135.299 76.2081 135.599 76.4601C135.911 76.7001 136.271 76.8801 136.679 77.0001C137.087 77.1321 137.519 77.1981 137.975 77.1981C138.695 77.1981 139.307 77.0661 139.811 76.8021C140.315 76.5381 140.729 76.2141 141.053 75.8301V77.0001H143.213ZM141.107 73.5621C141.107 73.8621 141.041 74.1381 140.909 74.3901C140.789 74.6301 140.615 74.8401 140.387 75.0201C140.159 75.1881 139.889 75.3201 139.577 75.4161C139.277 75.5121 138.947 75.5601 138.587 75.5601C138.071 75.5601 137.633 75.4401 137.273 75.2001C136.925 74.9601 136.751 74.6121 136.751 74.1561V74.1201C136.751 73.6281 136.943 73.2501 137.327 72.9861C137.711 72.7221 138.245 72.5901 138.929 72.5901C139.349 72.5901 139.745 72.6261 140.117 72.6981C140.501 72.7701 140.831 72.8601 141.107 72.9681V73.5621Z" fill="black" fill-opacity="0.7"/>
<path d="M148.179 66.0381V63.9681H145.839V66.0381H148.179ZM148.107 77.0001V67.4961H145.929V77.0001H148.107Z" fill="black" fill-opacity="0.7"/>
<path d="M153.132 71.6361C153.132 70.8921 153.33 70.3161 153.726 69.9081C154.122 69.4881 154.638 69.2781 155.274 69.2781C155.922 69.2781 156.42 69.4821 156.768 69.8901C157.128 70.2861 157.308 70.8561 157.308 71.6001V77.0001H159.486V70.9521C159.486 69.8361 159.192 68.9481 158.604 68.2881C158.016 67.6281 157.182 67.2981 156.102 67.2981C155.73 67.2981 155.394 67.3461 155.094 67.4421C154.806 67.5261 154.536 67.6461 154.284 67.8021C154.044 67.9581 153.828 68.1381 153.636 68.3421C153.456 68.5341 153.288 68.7441 153.132 68.9721V67.4961H150.954V77.0001H153.132V71.6361Z" fill="black" fill-opacity="0.7"/>
<path d="M164.744 69.3681H167.3V67.4961H164.744V64.8861H162.566V67.4961H161.36V69.3681H162.566V74.3721C162.566 74.9001 162.632 75.3441 162.764 75.7041C162.896 76.0521 163.082 76.3341 163.322 76.5501C163.574 76.7661 163.868 76.9221 164.204 77.0181C164.54 77.1141 164.906 77.1621 165.302 77.1621C165.71 77.1621 166.07 77.1201 166.382 77.0361C166.694 76.9521 166.988 76.8321 167.264 76.6761V74.8941C166.832 75.1101 166.382 75.2181 165.914 75.2181C165.542 75.2181 165.254 75.1281 165.05 74.9481C164.846 74.7561 164.744 74.4501 164.744 74.0301V69.3681Z" fill="black" fill-opacity="0.7"/>
<path d="M170.891 73.0221H177.875C177.887 72.9141 177.893 72.8121 177.893 72.7161C177.905 72.6201 177.911 72.5241 177.911 72.4281C177.911 71.7441 177.815 71.0901 177.623 70.4661C177.431 69.8421 177.143 69.2961 176.759 68.8281C176.387 68.3601 175.913 67.9881 175.337 67.7121C174.773 67.4361 174.113 67.2981 173.357 67.2981C172.673 67.2981 172.049 67.4301 171.485 67.6941C170.921 67.9581 170.429 68.3181 170.009 68.7741C169.601 69.2181 169.283 69.7401 169.055 70.3401C168.827 70.9401 168.713 71.5821 168.713 72.2661C168.713 73.0101 168.839 73.6881 169.091 74.3001C169.343 74.9001 169.685 75.4161 170.117 75.8481C170.561 76.2801 171.077 76.6161 171.665 76.8561C172.265 77.0961 172.907 77.2161 173.591 77.2161C174.467 77.2161 175.217 77.0541 175.841 76.7301C176.477 76.4061 177.023 75.9741 177.479 75.4341L176.201 74.3001C175.817 74.6721 175.427 74.9541 175.031 75.1461C174.635 75.3381 174.167 75.4341 173.627 75.4341C172.919 75.4341 172.319 75.2301 171.827 74.8221C171.335 74.4021 171.023 73.8021 170.891 73.0221ZM170.873 71.5821C170.969 70.8381 171.233 70.2381 171.665 69.7821C172.109 69.3141 172.667 69.0801 173.339 69.0801C173.699 69.0801 174.017 69.1461 174.293 69.2781C174.581 69.4101 174.827 69.5901 175.031 69.8181C175.235 70.0341 175.397 70.2981 175.517 70.6101C175.637 70.9101 175.715 71.2341 175.751 71.5821H170.873Z" fill="black" fill-opacity="0.7"/>
<path d="M182.276 71.6361C182.276 70.8921 182.474 70.3161 182.87 69.9081C183.266 69.4881 183.782 69.2781 184.418 69.2781C185.066 69.2781 185.564 69.4821 185.912 69.8901C186.272 70.2861 186.452 70.8561 186.452 71.6001V77.0001H188.63V70.9521C188.63 69.8361 188.336 68.9481 187.748 68.2881C187.16 67.6281 186.326 67.2981 185.246 67.2981C184.874 67.2981 184.538 67.3461 184.238 67.4421C183.95 67.5261 183.68 67.6461 183.428 67.8021C183.188 67.9581 182.972 68.1381 182.78 68.3421C182.6 68.5341 182.432 68.7441 182.276 68.9721V67.4961H180.098V77.0001H182.276V71.6361Z" fill="black" fill-opacity="0.7"/>
<path d="M199.234 77.0001V71.3661C199.234 70.0941 198.892 69.1101 198.208 68.4141C197.524 67.7061 196.474 67.3521 195.058 67.3521C194.278 67.3521 193.612 67.4241 193.06 67.5681C192.508 67.7121 191.968 67.9041 191.44 68.1441L192.034 69.8901C192.466 69.7101 192.892 69.5661 193.312 69.4581C193.732 69.3501 194.212 69.2961 194.752 69.2961C195.508 69.2961 196.084 69.4701 196.48 69.8181C196.888 70.1661 197.092 70.6701 197.092 71.3301V71.5641C196.72 71.4441 196.33 71.3481 195.922 71.2761C195.526 71.2041 195.04 71.1681 194.464 71.1681C193.912 71.1681 193.396 71.2341 192.916 71.3661C192.448 71.4861 192.04 71.6721 191.692 71.9241C191.356 72.1761 191.092 72.4941 190.9 72.8781C190.708 73.2621 190.612 73.7121 190.612 74.2281V74.2641C190.612 74.7441 190.702 75.1701 190.882 75.5421C191.074 75.9021 191.32 76.2081 191.62 76.4601C191.932 76.7001 192.292 76.8801 192.7 77.0001C193.108 77.1321 193.54 77.1981 193.996 77.1981C194.716 77.1981 195.328 77.0661 195.832 76.8021C196.336 76.5381 196.75 76.2141 197.074 75.8301V77.0001H199.234ZM197.128 73.5621C197.128 73.8621 197.062 74.1381 196.93 74.3901C196.81 74.6301 196.636 74.8401 196.408 75.0201C196.18 75.1881 195.91 75.3201 195.598 75.4161C195.298 75.5121 194.968 75.5601 194.608 75.5601C194.092 75.5601 193.654 75.4401 193.294 75.2001C192.946 74.9601 192.772 74.6121 192.772 74.1561V74.1201C192.772 73.6281 192.964 73.2501 193.348 72.9861C193.732 72.7221 194.266 72.5901 194.95 72.5901C195.37 72.5901 195.766 72.6261 196.138 72.6981C196.522 72.7701 196.852 72.8601 197.128 72.9681V73.5621Z" fill="black" fill-opacity="0.7"/>
<path d="M204.003 71.6361C204.003 70.8921 204.201 70.3161 204.597 69.9081C204.993 69.4881 205.509 69.2781 206.145 69.2781C206.793 69.2781 207.291 69.4821 207.639 69.8901C207.999 70.2861 208.179 70.8561 208.179 71.6001V77.0001H210.357V70.9521C210.357 69.8361 210.063 68.9481 209.475 68.2881C208.887 67.6281 208.053 67.2981 206.973 67.2981C206.601 67.2981 206.265 67.3461 205.965 67.4421C205.677 67.5261 205.407 67.6461 205.155 67.8021C204.915 67.9581 204.699 68.1381 204.507 68.3421C204.327 68.5341 204.159 68.7441 204.003 68.9721V67.4961H201.825V77.0001H204.003V71.6361Z" fill="black" fill-opacity="0.7"/>
<path d="M221.267 75.4341L219.953 74.1381C219.605 74.4861 219.233 74.7741 218.837 75.0021C218.453 75.2181 218.003 75.3261 217.487 75.3261C217.067 75.3261 216.683 75.2481 216.335 75.0921C215.987 74.9241 215.687 74.7021 215.435 74.4261C215.183 74.1501 214.985 73.8261 214.841 73.4541C214.709 73.0821 214.643 72.6801 214.643 72.2481C214.643 71.8281 214.709 71.4381 214.841 71.0781C214.985 70.7061 215.177 70.3821 215.417 70.1061C215.657 69.8301 215.945 69.6141 216.281 69.4581C216.617 69.2901 216.983 69.2061 217.379 69.2061C217.931 69.2061 218.393 69.3201 218.765 69.5481C219.149 69.7641 219.509 70.0461 219.845 70.3941L221.195 68.9361C220.751 68.4441 220.229 68.0481 219.629 67.7481C219.041 67.4481 218.297 67.2981 217.397 67.2981C216.689 67.2981 216.029 67.4301 215.417 67.6941C214.817 67.9581 214.295 68.3181 213.851 68.7741C213.419 69.2301 213.077 69.7581 212.825 70.3581C212.585 70.9581 212.465 71.6001 212.465 72.2841C212.465 72.9681 212.585 73.6101 212.825 74.2101C213.077 74.7981 213.419 75.3201 213.851 75.7761C214.295 76.2201 214.817 76.5741 215.417 76.8381C216.017 77.0901 216.671 77.2161 217.379 77.2161C218.303 77.2161 219.065 77.0541 219.665 76.7301C220.265 76.3941 220.799 75.9621 221.267 75.4341Z" fill="black" fill-opacity="0.7"/>
<path d="M224.662 73.0221H231.646C231.658 72.9141 231.664 72.8121 231.664 72.7161C231.676 72.6201 231.682 72.5241 231.682 72.4281C231.682 71.7441 231.586 71.0901 231.394 70.4661C231.202 69.8421 230.914 69.2961 230.53 68.8281C230.158 68.3601 229.684 67.9881 229.108 67.7121C228.544 67.4361 227.884 67.2981 227.128 67.2981C226.444 67.2981 225.82 67.4301 225.256 67.6941C224.692 67.9581 224.2 68.3181 223.78 68.7741C223.372 69.2181 223.054 69.7401 222.826 70.3401C222.598 70.9401 222.484 71.5821 222.484 72.2661C222.484 73.0101 222.61 73.6881 222.862 74.3001C223.114 74.9001 223.456 75.4161 223.888 75.8481C224.332 76.2801 224.848 76.6161 225.436 76.8561C226.036 77.0961 226.678 77.2161 227.362 77.2161C228.238 77.2161 228.988 77.0541 229.612 76.7301C230.248 76.4061 230.794 75.9741 231.25 75.4341L229.972 74.3001C229.588 74.6721 229.198 74.9541 228.802 75.1461C228.406 75.3381 227.938 75.4341 227.398 75.4341C226.69 75.4341 226.09 75.2301 225.598 74.8221C225.106 74.4021 224.794 73.8021 224.662 73.0221ZM224.644 71.5821C224.74 70.8381 225.004 70.2381 225.436 69.7821C225.88 69.3141 226.438 69.0801 227.11 69.0801C227.47 69.0801 227.788 69.1461 228.064 69.2781C228.352 69.4101 228.598 69.5901 228.802 69.8181C229.006 70.0341 229.168 70.2981 229.288 70.6101C229.408 70.9101 229.486 71.2341 229.522 71.5821H224.644Z" fill="black" fill-opacity="0.7"/>
<path d="M241.444 73.3821C241.444 72.7581 241.522 72.2121 241.678 71.7441C241.834 71.2641 242.056 70.8681 242.344 70.5561C242.632 70.2441 242.974 70.0101 243.37 69.8541C243.766 69.6981 244.204 69.6201 244.684 69.6201H244.81V67.3161C243.97 67.2801 243.274 67.4781 242.722 67.9101C242.17 68.3421 241.744 68.9181 241.444 69.6381V67.4961H239.266V77.0001H241.444V73.3821Z" fill="black" fill-opacity="0.7"/>
<path d="M248.041 73.0221H255.025C255.037 72.9141 255.043 72.8121 255.043 72.7161C255.055 72.6201 255.061 72.5241 255.061 72.4281C255.061 71.7441 254.965 71.0901 254.773 70.4661C254.581 69.8421 254.293 69.2961 253.909 68.8281C253.537 68.3601 253.063 67.9881 252.487 67.7121C251.923 67.4361 251.263 67.2981 250.507 67.2981C249.823 67.2981 249.199 67.4301 248.635 67.6941C248.071 67.9581 247.579 68.3181 247.159 68.7741C246.751 69.2181 246.433 69.7401 246.205 70.3401C245.977 70.9401 245.863 71.5821 245.863 72.2661C245.863 73.0101 245.989 73.6881 246.241 74.3001C246.493 74.9001 246.835 75.4161 247.267 75.8481C247.711 76.2801 248.227 76.6161 248.815 76.8561C249.415 77.0961 250.057 77.2161 250.741 77.2161C251.617 77.2161 252.367 77.0541 252.991 76.7301C253.627 76.4061 254.173 75.9741 254.629 75.4341L253.351 74.3001C252.967 74.6721 252.577 74.9541 252.181 75.1461C251.785 75.3381 251.317 75.4341 250.777 75.4341C250.069 75.4341 249.469 75.2301 248.977 74.8221C248.485 74.4021 248.173 73.8021 248.041 73.0221ZM248.023 71.5821C248.119 70.8381 248.383 70.2381 248.815 69.7821C249.259 69.3141 249.817 69.0801 250.489 69.0801C250.849 69.0801 251.167 69.1461 251.443 69.2781C251.731 69.4101 251.977 69.5901 252.181 69.8181C252.385 70.0341 252.547 70.2981 252.667 70.6101C252.787 70.9101 252.865 71.2341 252.901 71.5821H248.023Z" fill="black" fill-opacity="0.7"/>
<path d="M266.591 79.8801V67.4961H264.413V68.9721C264.064 68.5281 263.633 68.1381 263.117 67.8021C262.6 67.4661 261.952 67.2981 261.173 67.2981C260.609 67.2981 260.057 67.4061 259.517 67.6221C258.989 67.8381 258.521 68.1621 258.113 68.5941C257.704 69.0141 257.375 69.5301 257.123 70.1421C256.883 70.7541 256.763 71.4561 256.763 72.2481C256.763 73.0401 256.889 73.7421 257.141 74.3541C257.393 74.9661 257.723 75.4881 258.131 75.9201C258.539 76.3401 259.007 76.6581 259.535 76.8741C260.063 77.0901 260.609 77.1981 261.173 77.1981C261.941 77.1981 262.583 77.0241 263.099 76.6761C263.627 76.3281 264.064 75.9081 264.413 75.4161V79.8801H266.591ZM264.449 72.2481C264.449 72.7161 264.371 73.1361 264.215 73.5081C264.071 73.8801 263.873 74.2041 263.621 74.4801C263.369 74.7441 263.075 74.9481 262.739 75.0921C262.403 75.2361 262.055 75.3081 261.695 75.3081C261.323 75.3081 260.969 75.2361 260.633 75.0921C260.309 74.9481 260.021 74.7441 259.769 74.4801C259.517 74.2161 259.319 73.8981 259.175 73.5261C259.031 73.1421 258.959 72.7161 258.959 72.2481C258.959 71.7681 259.031 71.3421 259.175 70.9701C259.319 70.5861 259.517 70.2621 259.769 69.9981C260.021 69.7341 260.309 69.5361 260.633 69.4041C260.969 69.2601 261.323 69.1881 261.695 69.1881C262.055 69.1881 262.403 69.2601 262.739 69.4041C263.075 69.5481 263.369 69.7581 263.621 70.0341C263.873 70.2981 264.071 70.6161 264.215 70.9881C264.371 71.3601 264.449 71.7801 264.449 72.2481Z" fill="black" fill-opacity="0.7"/>
<path d="M275.553 72.8601C275.553 73.6041 275.355 74.1861 274.959 74.6061C274.563 75.0141 274.047 75.2181 273.411 75.2181C272.763 75.2181 272.259 75.0201 271.899 74.6241C271.551 74.2161 271.377 73.6401 271.377 72.8961V67.4961H269.199V73.5441C269.199 74.6601 269.493 75.5481 270.081 76.2081C270.669 76.8681 271.503 77.1981 272.583 77.1981C273.315 77.1981 273.915 77.0361 274.383 76.7121C274.851 76.3761 275.241 75.9801 275.553 75.5241V77.0001H277.731V67.4961H275.553V72.8601Z" fill="black" fill-opacity="0.7"/>
<path d="M282.125 73.0221H289.109C289.121 72.9141 289.127 72.8121 289.127 72.7161C289.139 72.6201 289.145 72.5241 289.145 72.4281C289.145 71.7441 289.049 71.0901 288.857 70.4661C288.665 69.8421 288.377 69.2961 287.993 68.8281C287.621 68.3601 287.147 67.9881 286.571 67.7121C286.007 67.4361 285.347 67.2981 284.591 67.2981C283.907 67.2981 283.283 67.4301 282.719 67.6941C282.155 67.9581 281.663 68.3181 281.243 68.7741C280.835 69.2181 280.517 69.7401 280.289 70.3401C280.061 70.9401 279.947 71.5821 279.947 72.2661C279.947 73.0101 280.073 73.6881 280.325 74.3001C280.577 74.9001 280.919 75.4161 281.351 75.8481C281.795 76.2801 282.311 76.6161 282.899 76.8561C283.499 77.0961 284.141 77.2161 284.825 77.2161C285.701 77.2161 286.451 77.0541 287.075 76.7301C287.711 76.4061 288.257 75.9741 288.713 75.4341L287.435 74.3001C287.051 74.6721 286.661 74.9541 286.265 75.1461C285.869 75.3381 285.401 75.4341 284.861 75.4341C284.153 75.4341 283.553 75.2301 283.061 74.8221C282.569 74.4021 282.257 73.8021 282.125 73.0221ZM282.107 71.5821C282.203 70.8381 282.467 70.2381 282.899 69.7821C283.343 69.3141 283.901 69.0801 284.573 69.0801C284.933 69.0801 285.251 69.1461 285.527 69.2781C285.815 69.4101 286.061 69.5901 286.265 69.8181C286.469 70.0341 286.631 70.2981 286.751 70.6101C286.871 70.9101 286.949 71.2341 286.985 71.5821H282.107Z" fill="black" fill-opacity="0.7"/>
<path d="M298.118 74.1921V74.1561C298.118 73.7241 298.028 73.3581 297.848 73.0581C297.669 72.7581 297.434 72.5061 297.146 72.3021C296.87 72.0861 296.559 71.9061 296.21 71.7621C295.862 71.6181 295.514 71.4921 295.166 71.3841C294.89 71.3001 294.62 71.2161 294.356 71.1321C294.104 71.0361 293.876 70.9401 293.672 70.8441C293.48 70.7361 293.324 70.6221 293.204 70.5021C293.085 70.3701 293.024 70.2201 293.024 70.0521V70.0161C293.024 69.7401 293.138 69.5121 293.366 69.3321C293.606 69.1521 293.936 69.0621 294.356 69.0621C294.752 69.0621 295.184 69.1461 295.652 69.3141C296.12 69.4701 296.583 69.6861 297.038 69.9621L297.902 68.4141C297.398 68.0781 296.84 67.8141 296.228 67.6221C295.616 67.4301 295.01 67.3341 294.41 67.3341C293.942 67.3341 293.498 67.4001 293.078 67.5321C292.67 67.6641 292.31 67.8561 291.998 68.1081C291.698 68.3601 291.458 68.6661 291.278 69.0261C291.11 69.3861 291.026 69.7881 291.026 70.2321V70.2681C291.026 70.7241 291.117 71.1081 291.296 71.4201C291.476 71.7201 291.704 71.9781 291.98 72.1941C292.268 72.3981 292.586 72.5661 292.934 72.6981C293.294 72.8301 293.648 72.9501 293.996 73.0581C294.272 73.1421 294.536 73.2261 294.788 73.3101C295.053 73.3821 295.28 73.4721 295.472 73.5801C295.676 73.6761 295.832 73.7901 295.94 73.9221C296.06 74.0541 296.12 74.2101 296.12 74.3901V74.4261C296.12 74.7381 295.988 74.9901 295.724 75.1821C295.472 75.3621 295.112 75.4521 294.644 75.4521C294.152 75.4521 293.636 75.3561 293.096 75.1641C292.568 74.9601 292.046 74.6661 291.53 74.2821L290.558 75.7581C291.158 76.2261 291.806 76.5801 292.502 76.8201C293.21 77.0601 293.906 77.1801 294.59 77.1801C295.082 77.1801 295.544 77.1201 295.976 77.0001C296.408 76.8681 296.781 76.6821 297.092 76.4421C297.417 76.1901 297.669 75.8781 297.848 75.5061C298.028 75.1341 298.118 74.6961 298.118 74.1921Z" fill="black" fill-opacity="0.7"/>
<path d="M302.785 69.3681H305.341V67.4961H302.785V64.8861H300.607V67.4961H299.401V69.3681H300.607V74.3721C300.607 74.9001 300.673 75.3441 300.805 75.7041C300.937 76.0521 301.123 76.3341 301.363 76.5501C301.615 76.7661 301.909 76.9221 302.245 77.0181C302.581 77.1141 302.947 77.1621 303.343 77.1621C303.751 77.1621 304.111 77.1201 304.423 77.0361C304.735 76.9521 305.029 76.8321 305.305 76.6761V74.8941C304.873 75.1101 304.423 75.2181 303.955 75.2181C303.583 75.2181 303.295 75.1281 303.091 74.9481C302.887 74.7561 302.785 74.4501 302.785 74.0301V69.3681Z" fill="black" fill-opacity="0.7"/>
<path d="M50.1036 105.728C50.1036 105.355 50.2636 105.04 50.5836 104.784C50.9036 104.517 51.3516 104.384 51.9276 104.384C52.4396 104.384 52.9463 104.485 53.4476 104.688C53.949 104.88 54.4556 105.163 54.9676 105.536L56.0236 104.048C55.4476 103.589 54.829 103.243 54.1676 103.008C53.517 102.763 52.781 102.64 51.9596 102.64C51.405 102.64 50.893 102.72 50.4236 102.88C49.9543 103.029 49.549 103.248 49.2076 103.536C48.877 103.824 48.6156 104.171 48.4236 104.576C48.2316 104.971 48.1356 105.413 48.1356 105.904C48.1356 106.427 48.2156 106.869 48.3756 107.232C48.5463 107.595 48.7863 107.904 49.0956 108.16C49.4156 108.416 49.805 108.629 50.2636 108.8C50.733 108.971 51.2663 109.125 51.8636 109.264C52.3863 109.392 52.8076 109.515 53.1276 109.632C53.4583 109.749 53.7143 109.877 53.8956 110.016C54.0876 110.144 54.2156 110.288 54.2796 110.448C54.3543 110.608 54.3916 110.789 54.3916 110.992C54.3916 111.429 54.2103 111.776 53.8476 112.032C53.4956 112.288 53.0156 112.416 52.4076 112.416C51.7036 112.416 51.0743 112.293 50.5196 112.048C49.965 111.792 49.4156 111.429 48.8716 110.96L47.6876 112.368C48.3596 112.976 49.0903 113.429 49.8796 113.728C50.669 114.016 51.4956 114.16 52.3596 114.16C52.9463 114.16 53.485 114.085 53.9756 113.936C54.4663 113.787 54.8876 113.568 55.2396 113.28C55.5916 112.992 55.8636 112.64 56.0556 112.224C56.2583 111.808 56.3596 111.333 56.3596 110.8C56.3596 110.331 56.2796 109.925 56.1196 109.584C55.9703 109.232 55.7463 108.928 55.4476 108.672C55.149 108.405 54.7703 108.181 54.3116 108C53.8636 107.819 53.3463 107.653 52.7596 107.504C52.2263 107.376 51.7836 107.253 51.4316 107.136C51.0903 107.019 50.8183 106.891 50.6156 106.752C50.4236 106.613 50.2903 106.464 50.2156 106.304C50.141 106.144 50.1036 105.952 50.1036 105.728Z" fill="black" fill-opacity="0.7"/>
<path d="M64.002 110.32C64.002 110.981 63.826 111.499 63.474 111.872C63.122 112.235 62.6634 112.416 62.098 112.416C61.522 112.416 61.074 112.24 60.754 111.888C60.4447 111.525 60.29 111.013 60.29 110.352V105.552H58.354V110.928C58.354 111.92 58.6154 112.709 59.138 113.296C59.6607 113.883 60.402 114.176 61.362 114.176C62.0127 114.176 62.546 114.032 62.962 113.744C63.378 113.445 63.7247 113.093 64.002 112.688V114H65.938V105.552H64.002V110.32Z" fill="black" fill-opacity="0.7"/>
<path d="M77.1079 109.776C77.1079 109.072 76.9959 108.448 76.7719 107.904C76.5479 107.36 76.2492 106.901 75.8759 106.528C75.5132 106.144 75.0972 105.856 74.6279 105.664C74.1586 105.472 73.6732 105.376 73.1719 105.376C72.4892 105.376 71.9186 105.531 71.4599 105.84C71.0012 106.139 70.6172 106.512 70.3079 106.96V102.32H68.3719V114H70.3079V112.688C70.6066 113.083 70.9852 113.429 71.4439 113.728C71.9026 114.027 72.4786 114.176 73.1719 114.176C73.6732 114.176 74.1586 114.08 74.6279 113.888C75.1079 113.696 75.5292 113.413 75.8919 113.04C76.2652 112.656 76.5586 112.192 76.7719 111.648C76.9959 111.104 77.1079 110.48 77.1079 109.776ZM75.1399 109.776C75.1399 110.192 75.0759 110.571 74.9479 110.912C74.8199 111.243 74.6439 111.525 74.4199 111.76C74.2066 111.995 73.9506 112.176 73.6519 112.304C73.3639 112.432 73.0546 112.496 72.7239 112.496C72.3932 112.496 72.0786 112.432 71.7799 112.304C71.4812 112.176 71.2199 111.995 70.9959 111.76C70.7719 111.515 70.5906 111.227 70.4519 110.896C70.3239 110.565 70.2599 110.192 70.2599 109.776C70.2599 109.36 70.3239 108.987 70.4519 108.656C70.5906 108.325 70.7719 108.043 70.9959 107.808C71.2199 107.563 71.4812 107.376 71.7799 107.248C72.0786 107.12 72.3932 107.056 72.7239 107.056C73.0546 107.056 73.3639 107.12 73.6519 107.248C73.9506 107.376 74.2066 107.557 74.4199 107.792C74.6439 108.027 74.8199 108.315 74.9479 108.656C75.0759 108.987 75.1399 109.36 75.1399 109.776Z" fill="black" fill-opacity="0.7"/>
<path d="M81.2026 104.256V102.416H79.1226V104.256H81.2026ZM79.2026 105.552V114C79.2026 114.373 79.1173 114.635 78.9466 114.784C78.7866 114.944 78.568 115.024 78.2906 115.024C78.12 115.024 77.9386 115.008 77.7466 114.976V116.528C77.896 116.549 78.04 116.565 78.1786 116.576C78.328 116.597 78.4933 116.608 78.6746 116.608C79.4746 116.608 80.0826 116.405 80.4986 116C80.9253 115.605 81.1386 114.976 81.1386 114.112V105.552H79.2026Z" fill="black" fill-opacity="0.7"/>
<path d="M85.1408 110.464H91.3488C91.3594 110.368 91.3648 110.277 91.3648 110.192C91.3754 110.107 91.3808 110.021 91.3808 109.936C91.3808 109.328 91.2954 108.747 91.1248 108.192C90.9541 107.637 90.6981 107.152 90.3568 106.736C90.0261 106.32 89.6048 105.989 89.0928 105.744C88.5914 105.499 88.0048 105.376 87.3328 105.376C86.7248 105.376 86.1701 105.493 85.6688 105.728C85.1674 105.963 84.7301 106.283 84.3568 106.688C83.9941 107.083 83.7114 107.547 83.5088 108.08C83.3061 108.613 83.2048 109.184 83.2048 109.792C83.2048 110.453 83.3168 111.056 83.5408 111.6C83.7648 112.133 84.0688 112.592 84.4528 112.976C84.8474 113.36 85.3061 113.659 85.8288 113.872C86.3621 114.085 86.9328 114.192 87.5408 114.192C88.3194 114.192 88.9861 114.048 89.5408 113.76C90.1061 113.472 90.5914 113.088 90.9968 112.608L89.8608 111.6C89.5194 111.931 89.1728 112.181 88.8208 112.352C88.4688 112.523 88.0528 112.608 87.5728 112.608C86.9434 112.608 86.4101 112.427 85.9728 112.064C85.5354 111.691 85.2581 111.157 85.1408 110.464ZM85.1248 109.184C85.2101 108.523 85.4448 107.989 85.8288 107.584C86.2234 107.168 86.7194 106.96 87.3168 106.96C87.6368 106.96 87.9194 107.019 88.1648 107.136C88.4208 107.253 88.6394 107.413 88.8208 107.616C89.0021 107.808 89.1461 108.043 89.2528 108.32C89.3594 108.587 89.4288 108.875 89.4608 109.184H85.1248Z" fill="black" fill-opacity="0.7"/>
<path d="M100.685 112.608L99.517 111.456C99.2077 111.765 98.877 112.021 98.525 112.224C98.1837 112.416 97.7837 112.512 97.325 112.512C96.9517 112.512 96.6104 112.443 96.301 112.304C95.9917 112.155 95.725 111.957 95.501 111.712C95.277 111.467 95.101 111.179 94.973 110.848C94.8557 110.517 94.797 110.16 94.797 109.776C94.797 109.403 94.8557 109.056 94.973 108.736C95.101 108.405 95.2717 108.117 95.485 107.872C95.6984 107.627 95.9544 107.435 96.253 107.296C96.5517 107.147 96.877 107.072 97.229 107.072C97.7197 107.072 98.1304 107.173 98.461 107.376C98.8024 107.568 99.1224 107.819 99.421 108.128L100.621 106.832C100.226 106.395 99.7624 106.043 99.229 105.776C98.7064 105.509 98.045 105.376 97.245 105.376C96.6157 105.376 96.029 105.493 95.485 105.728C94.9517 105.963 94.4877 106.283 94.093 106.688C93.709 107.093 93.405 107.563 93.181 108.096C92.9677 108.629 92.861 109.2 92.861 109.808C92.861 110.416 92.9677 110.987 93.181 111.52C93.405 112.043 93.709 112.507 94.093 112.912C94.4877 113.307 94.9517 113.621 95.485 113.856C96.0184 114.08 96.5997 114.192 97.229 114.192C98.0504 114.192 98.7277 114.048 99.261 113.76C99.7944 113.461 100.269 113.077 100.685 112.608Z" fill="black" fill-opacity="0.7"/>
<path d="M104.802 107.216H107.074V105.552H104.802V103.232H102.866V105.552H101.794V107.216H102.866V111.664C102.866 112.133 102.924 112.528 103.042 112.848C103.159 113.157 103.324 113.408 103.538 113.6C103.762 113.792 104.023 113.931 104.322 114.016C104.62 114.101 104.946 114.144 105.298 114.144C105.66 114.144 105.98 114.107 106.258 114.032C106.535 113.957 106.796 113.851 107.042 113.712V112.128C106.658 112.32 106.258 112.416 105.842 112.416C105.511 112.416 105.255 112.336 105.074 112.176C104.892 112.005 104.802 111.733 104.802 111.36V107.216Z" fill="black" fill-opacity="0.7"/>
<path d="M58.5676 173.384C58.5676 172.595 58.4236 171.859 58.1356 171.176C57.8476 170.493 57.437 169.901 56.9036 169.4C56.381 168.899 55.7516 168.509 55.0156 168.232C54.2903 167.944 53.4903 167.8 52.6156 167.8H48.4396V179H52.6156C53.4903 179 54.2903 178.856 55.0156 178.568C55.7516 178.28 56.381 177.885 56.9036 177.384C57.437 176.883 57.8476 176.291 58.1356 175.608C58.4236 174.915 58.5676 174.173 58.5676 173.384ZM56.5036 173.416C56.5036 173.971 56.4076 174.483 56.2156 174.952C56.0343 175.411 55.773 175.811 55.4316 176.152C55.101 176.483 54.6956 176.744 54.2156 176.936C53.7356 177.117 53.2023 177.208 52.6156 177.208H50.4076V169.592H52.6156C53.2023 169.592 53.7356 169.688 54.2156 169.88C54.6956 170.072 55.101 170.339 55.4316 170.68C55.773 171.021 56.0343 171.427 56.2156 171.896C56.4076 172.355 56.5036 172.861 56.5036 173.416Z" fill="black" fill-opacity="0.7"/>
<path d="M62.2033 175.464H68.4113C68.4219 175.368 68.4273 175.277 68.4273 175.192C68.4379 175.107 68.4433 175.021 68.4433 174.936C68.4433 174.328 68.3579 173.747 68.1873 173.192C68.0166 172.637 67.7606 172.152 67.4193 171.736C67.0886 171.32 66.6673 170.989 66.1553 170.744C65.6539 170.499 65.0673 170.376 64.3953 170.376C63.7873 170.376 63.2326 170.493 62.7313 170.728C62.2299 170.963 61.7926 171.283 61.4193 171.688C61.0566 172.083 60.7739 172.547 60.5713 173.08C60.3686 173.613 60.2673 174.184 60.2673 174.792C60.2673 175.453 60.3793 176.056 60.6033 176.6C60.8273 177.133 61.1313 177.592 61.5153 177.976C61.9099 178.36 62.3686 178.659 62.8913 178.872C63.4246 179.085 63.9953 179.192 64.6033 179.192C65.3819 179.192 66.0486 179.048 66.6033 178.76C67.1686 178.472 67.6539 178.088 68.0593 177.608L66.9233 176.6C66.5819 176.931 66.2353 177.181 65.8833 177.352C65.5313 177.523 65.1153 177.608 64.6353 177.608C64.0059 177.608 63.4726 177.427 63.0353 177.064C62.5979 176.691 62.3206 176.157 62.2033 175.464ZM62.1873 174.184C62.2726 173.523 62.5073 172.989 62.8913 172.584C63.2859 172.168 63.7819 171.96 64.3793 171.96C64.6993 171.96 64.9819 172.019 65.2273 172.136C65.4833 172.253 65.7019 172.413 65.8833 172.616C66.0646 172.808 66.2086 173.043 66.3153 173.32C66.4219 173.587 66.4913 173.875 66.5233 174.184H62.1873Z" fill="black" fill-opacity="0.7"/>
<path d="M76.4195 176.504V176.472C76.4195 176.088 76.3395 175.763 76.1795 175.496C76.0195 175.229 75.8115 175.005 75.5555 174.824C75.3102 174.632 75.0329 174.472 74.7235 174.344C74.4142 174.216 74.1049 174.104 73.7955 174.008C73.5502 173.933 73.3102 173.859 73.0755 173.784C72.8515 173.699 72.6489 173.613 72.4675 173.528C72.2969 173.432 72.1582 173.331 72.0515 173.224C71.9449 173.107 71.8915 172.973 71.8915 172.824V172.792C71.8915 172.547 71.9929 172.344 72.1955 172.184C72.4089 172.024 72.7022 171.944 73.0755 171.944C73.4275 171.944 73.8115 172.019 74.2275 172.168C74.6435 172.307 75.0542 172.499 75.4595 172.744L76.2275 171.368C75.7795 171.069 75.2835 170.835 74.7395 170.664C74.1955 170.493 73.6569 170.408 73.1235 170.408C72.7075 170.408 72.3129 170.467 71.9395 170.584C71.5769 170.701 71.2569 170.872 70.9795 171.096C70.7129 171.32 70.4995 171.592 70.3395 171.912C70.1902 172.232 70.1155 172.589 70.1155 172.984V173.016C70.1155 173.421 70.1955 173.763 70.3555 174.04C70.5155 174.307 70.7182 174.536 70.9635 174.728C71.2195 174.909 71.5022 175.059 71.8115 175.176C72.1315 175.293 72.4462 175.4 72.7555 175.496C73.0009 175.571 73.2355 175.645 73.4595 175.72C73.6942 175.784 73.8969 175.864 74.0675 175.96C74.2489 176.045 74.3875 176.147 74.4835 176.264C74.5902 176.381 74.6435 176.52 74.6435 176.68V176.712C74.6435 176.989 74.5262 177.213 74.2915 177.384C74.0675 177.544 73.7475 177.624 73.3315 177.624C72.8942 177.624 72.4355 177.539 71.9555 177.368C71.4862 177.187 71.0222 176.925 70.5635 176.584L69.6995 177.896C70.2329 178.312 70.8089 178.627 71.4275 178.84C72.0569 179.053 72.6755 179.16 73.2835 179.16C73.7209 179.16 74.1315 179.107 74.5155 179C74.8995 178.883 75.2302 178.717 75.5075 178.504C75.7955 178.28 76.0195 178.003 76.1795 177.672C76.3395 177.341 76.4195 176.952 76.4195 176.504Z" fill="black" fill-opacity="0.7"/>
<path d="M85.7475 177.608L84.5795 176.456C84.2702 176.765 83.9395 177.021 83.5875 177.224C83.2462 177.416 82.8462 177.512 82.3875 177.512C82.0142 177.512 81.6729 177.443 81.3635 177.304C81.0542 177.155 80.7875 176.957 80.5635 176.712C80.3395 176.467 80.1635 176.179 80.0355 175.848C79.9182 175.517 79.8595 175.16 79.8595 174.776C79.8595 174.403 79.9182 174.056 80.0355 173.736C80.1635 173.405 80.3342 173.117 80.5475 172.872C80.7609 172.627 81.0169 172.435 81.3155 172.296C81.6142 172.147 81.9395 172.072 82.2915 172.072C82.7822 172.072 83.1929 172.173 83.5235 172.376C83.8649 172.568 84.1849 172.819 84.4835 173.128L85.6835 171.832C85.2889 171.395 84.8249 171.043 84.2915 170.776C83.7689 170.509 83.1075 170.376 82.3075 170.376C81.6782 170.376 81.0915 170.493 80.5475 170.728C80.0142 170.963 79.5502 171.283 79.1555 171.688C78.7715 172.093 78.4675 172.563 78.2435 173.096C78.0302 173.629 77.9235 174.2 77.9235 174.808C77.9235 175.416 78.0302 175.987 78.2435 176.52C78.4675 177.043 78.7715 177.507 79.1555 177.912C79.5502 178.307 80.0142 178.621 80.5475 178.856C81.0809 179.08 81.6622 179.192 82.2915 179.192C83.1129 179.192 83.7902 179.048 84.3235 178.76C84.8569 178.461 85.3315 178.077 85.7475 177.608Z" fill="black" fill-opacity="0.7"/>
<path d="M89.4641 175.784C89.4641 175.229 89.5335 174.744 89.6721 174.328C89.8108 173.901 90.0081 173.549 90.2641 173.272C90.5201 172.995 90.8241 172.787 91.1761 172.648C91.5281 172.509 91.9175 172.44 92.3441 172.44H92.4562V170.392C91.7095 170.36 91.0908 170.536 90.6001 170.92C90.1095 171.304 89.7308 171.816 89.4641 172.456V170.552H87.5281V179H89.4641V175.784Z" fill="black" fill-opacity="0.7"/>
<path d="M96.2495 169.256V167.416H94.1695V169.256H96.2495ZM96.1855 179V170.552H94.2495V179H96.1855Z" fill="black" fill-opacity="0.7"/>
<path d="M107.452 174.776C107.452 174.072 107.34 173.448 107.116 172.904C106.892 172.36 106.593 171.901 106.22 171.528C105.857 171.144 105.441 170.856 104.972 170.664C104.502 170.472 104.017 170.376 103.516 170.376C102.833 170.376 102.262 170.531 101.804 170.84C101.345 171.139 100.961 171.512 100.652 171.96V170.552H98.7156V181.56H100.652V177.688C100.95 178.083 101.329 178.429 101.788 178.728C102.246 179.027 102.822 179.176 103.516 179.176C104.017 179.176 104.502 179.08 104.972 178.888C105.452 178.696 105.873 178.413 106.236 178.04C106.609 177.656 106.902 177.192 107.116 176.648C107.34 176.104 107.452 175.48 107.452 174.776ZM105.484 174.776C105.484 175.192 105.42 175.571 105.292 175.912C105.164 176.243 104.988 176.525 104.764 176.76C104.55 176.995 104.294 177.176 103.996 177.304C103.708 177.432 103.398 177.496 103.068 177.496C102.737 177.496 102.422 177.432 102.124 177.304C101.825 177.176 101.564 176.995 101.34 176.76C101.116 176.515 100.934 176.227 100.796 175.896C100.668 175.565 100.604 175.192 100.604 174.776C100.604 174.36 100.668 173.987 100.796 173.656C100.934 173.325 101.116 173.043 101.34 172.808C101.564 172.563 101.825 172.376 102.124 172.248C102.422 172.12 102.737 172.056 103.068 172.056C103.398 172.056 103.708 172.12 103.996 172.248C104.294 172.376 104.55 172.557 104.764 172.792C104.988 173.027 105.164 173.315 105.292 173.656C105.42 173.987 105.484 174.36 105.484 174.776Z" fill="black" fill-opacity="0.7"/>
<path d="M111.77 172.216H114.042V170.552H111.77V168.232H109.834V170.552H108.762V172.216H109.834V176.664C109.834 177.133 109.893 177.528 110.01 177.848C110.128 178.157 110.293 178.408 110.506 178.6C110.73 178.792 110.992 178.931 111.29 179.016C111.589 179.101 111.914 179.144 112.266 179.144C112.629 179.144 112.949 179.107 113.226 179.032C113.504 178.957 113.765 178.851 114.01 178.712V177.128C113.626 177.32 113.226 177.416 112.81 177.416C112.48 177.416 112.224 177.336 112.042 177.176C111.861 177.005 111.77 176.733 111.77 176.36V172.216Z" fill="black" fill-opacity="0.7"/>
<path d="M118.109 169.256V167.416H116.029V169.256H118.109ZM118.045 179V170.552H116.109V179H118.045Z" fill="black" fill-opacity="0.7"/>
<path d="M129.119 174.776C129.119 174.168 129.007 173.597 128.783 173.064C128.559 172.531 128.244 172.067 127.839 171.672C127.444 171.267 126.97 170.952 126.415 170.728C125.871 170.493 125.274 170.376 124.623 170.376C123.972 170.376 123.37 170.493 122.815 170.728C122.271 170.963 121.796 171.283 121.391 171.688C120.996 172.083 120.682 172.552 120.447 173.096C120.223 173.629 120.111 174.2 120.111 174.808C120.111 175.416 120.223 175.987 120.447 176.52C120.671 177.043 120.98 177.507 121.375 177.912C121.78 178.307 122.255 178.621 122.799 178.856C123.354 179.08 123.951 179.192 124.591 179.192C125.242 179.192 125.844 179.075 126.399 178.84C126.954 178.605 127.428 178.291 127.823 177.896C128.228 177.491 128.543 177.021 128.767 176.488C129.002 175.955 129.119 175.384 129.119 174.776ZM127.183 174.808C127.183 175.181 127.124 175.533 127.007 175.864C126.89 176.184 126.719 176.467 126.495 176.712C126.271 176.957 125.999 177.155 125.679 177.304C125.37 177.443 125.018 177.512 124.623 177.512C124.25 177.512 123.903 177.443 123.583 177.304C123.274 177.155 123.002 176.957 122.767 176.712C122.543 176.467 122.367 176.179 122.239 175.848C122.111 175.507 122.047 175.149 122.047 174.776C122.047 174.403 122.106 174.056 122.223 173.736C122.34 173.405 122.511 173.117 122.735 172.872C122.959 172.627 123.226 172.435 123.535 172.296C123.855 172.147 124.207 172.072 124.591 172.072C124.975 172.072 125.322 172.147 125.631 172.296C125.951 172.435 126.223 172.632 126.447 172.888C126.682 173.133 126.863 173.421 126.991 173.752C127.119 174.083 127.183 174.435 127.183 174.808Z" fill="black" fill-opacity="0.7"/>
<path d="M133.027 174.232C133.027 173.571 133.203 173.059 133.555 172.696C133.907 172.323 134.365 172.136 134.931 172.136C135.507 172.136 135.949 172.317 136.259 172.68C136.579 173.032 136.739 173.539 136.739 174.2V179H138.675V173.624C138.675 172.632 138.413 171.843 137.891 171.256C137.368 170.669 136.627 170.376 135.667 170.376C135.336 170.376 135.037 170.419 134.771 170.504C134.515 170.579 134.275 170.685 134.051 170.824C133.837 170.963 133.645 171.123 133.475 171.304C133.315 171.475 133.165 171.661 133.027 171.864V170.552H131.091V179H133.027V174.232Z" fill="black" fill-opacity="0.7"/>
<path d="M53.1756 289.624H56.7276V287.8H47.6396V289.624H51.1916V299H53.1756V289.624Z" fill="black" fill-opacity="0.7"/>
<path d="M65.4158 290.552H63.3998L61.2078 296.824L58.8078 290.552H56.7438L60.2638 299C60.1038 299.373 59.9331 299.629 59.7518 299.768C59.5704 299.907 59.3411 299.976 59.0638 299.976C58.8611 299.976 58.6638 299.944 58.4718 299.88C58.2904 299.827 58.1091 299.752 57.9278 299.656L57.2718 301.096C57.5704 301.256 57.8744 301.379 58.1838 301.464C58.5038 301.56 58.8664 301.608 59.2718 301.608C59.6131 301.608 59.9171 301.565 60.1838 301.48C60.4504 301.395 60.6958 301.256 60.9198 301.064C61.1438 300.883 61.3464 300.643 61.5278 300.344C61.7091 300.045 61.8851 299.677 62.0558 299.24L65.4158 290.552Z" fill="black" fill-opacity="0.7"/>
<path d="M75.811 294.776C75.811 294.072 75.699 293.448 75.475 292.904C75.251 292.36 74.9524 291.901 74.579 291.528C74.2164 291.144 73.8004 290.856 73.331 290.664C72.8617 290.472 72.3764 290.376 71.875 290.376C71.1924 290.376 70.6217 290.531 70.163 290.84C69.7044 291.139 69.3204 291.512 69.011 291.96V290.552H67.075V301.56H69.011V297.688C69.3097 298.083 69.6884 298.429 70.147 298.728C70.6057 299.027 71.1817 299.176 71.875 299.176C72.3764 299.176 72.8617 299.08 73.331 298.888C73.811 298.696 74.2324 298.413 74.595 298.04C74.9684 297.656 75.2617 297.192 75.475 296.648C75.699 296.104 75.811 295.48 75.811 294.776ZM73.843 294.776C73.843 295.192 73.779 295.571 73.651 295.912C73.523 296.243 73.347 296.525 73.123 296.76C72.9097 296.995 72.6537 297.176 72.355 297.304C72.067 297.432 71.7577 297.496 71.427 297.496C71.0964 297.496 70.7817 297.432 70.483 297.304C70.1844 297.176 69.923 296.995 69.699 296.76C69.475 296.515 69.2937 296.227 69.155 295.896C69.027 295.565 68.963 295.192 68.963 294.776C68.963 294.36 69.027 293.987 69.155 293.656C69.2937 293.325 69.475 293.043 69.699 292.808C69.923 292.563 70.1844 292.376 70.483 292.248C70.7817 292.12 71.0964 292.056 71.427 292.056C71.7577 292.056 72.067 292.12 72.355 292.248C72.6537 292.376 72.9097 292.557 73.123 292.792C73.347 293.027 73.523 293.315 73.651 293.656C73.779 293.987 73.843 294.36 73.843 294.776Z" fill="black" fill-opacity="0.7"/>
<path d="M79.2658 295.464H85.4738C85.4844 295.368 85.4898 295.277 85.4898 295.192C85.5004 295.107 85.5058 295.021 85.5058 294.936C85.5058 294.328 85.4204 293.747 85.2498 293.192C85.0791 292.637 84.8231 292.152 84.4818 291.736C84.1511 291.32 83.7298 290.989 83.2178 290.744C82.7164 290.499 82.1298 290.376 81.4578 290.376C80.8498 290.376 80.2951 290.493 79.7938 290.728C79.2924 290.963 78.8551 291.283 78.4818 291.688C78.1191 292.083 77.8364 292.547 77.6338 293.08C77.4311 293.613 77.3298 294.184 77.3298 294.792C77.3298 295.453 77.4418 296.056 77.6658 296.6C77.8898 297.133 78.1938 297.592 78.5778 297.976C78.9724 298.36 79.4311 298.659 79.9538 298.872C80.4871 299.085 81.0578 299.192 81.6658 299.192C82.4444 299.192 83.1111 299.048 83.6658 298.76C84.2311 298.472 84.7164 298.088 85.1218 297.608L83.9858 296.6C83.6444 296.931 83.2978 297.181 82.9458 297.352C82.5938 297.523 82.1778 297.608 81.6978 297.608C81.0684 297.608 80.5351 297.427 80.0978 297.064C79.6604 296.691 79.3831 296.157 79.2658 295.464ZM79.2498 294.184C79.3351 293.523 79.5698 292.989 79.9538 292.584C80.3484 292.168 80.8444 291.96 81.4418 291.96C81.7618 291.96 82.0444 292.019 82.2898 292.136C82.5458 292.253 82.7644 292.413 82.9458 292.616C83.1271 292.808 83.2711 293.043 83.3778 293.32C83.4844 293.587 83.5538 293.875 83.5858 294.184H79.2498Z" fill="black" fill-opacity="0.7"/>
<rect x="47" y="120" width="309" height="15" fill="#EFEFEF"/>
<rect x="47" y="193" width="309" height="15" fill="#EFEFEF"/>
<rect x="47" y="215" width="309" height="15" fill="#EFEFEF"/>
<rect x="47" y="315" width="309" height="15" fill="#EFEFEF"/>
<rect x="47" y="237" width="259" height="15" fill="#EFEFEF"/>
</g>
<g filter="url(#filter2_d)">
<rect x="137" y="274" width="376" height="128" rx="5" fill="#6886F0"/>
<circle cx="465.5" cy="367.5" r="9.5" fill="white"/>
<path d="M459.519 367.5L463.741 371.722L471.13 363.63" stroke="#2FC643"/>
<path d="M257.1 292.96V303H259.56V289H256.94L252.68 295.62L248.42 289H245.8V303H248.22V293L252.6 299.56H252.68L257.1 292.96Z" fill="white"/>
<path d="M273.563 297.72C273.563 296.96 273.423 296.247 273.143 295.58C272.863 294.913 272.47 294.333 271.963 293.84C271.47 293.333 270.876 292.94 270.183 292.66C269.503 292.367 268.756 292.22 267.943 292.22C267.13 292.22 266.376 292.367 265.683 292.66C265.003 292.953 264.41 293.353 263.903 293.86C263.41 294.353 263.016 294.94 262.723 295.62C262.443 296.287 262.303 297 262.303 297.76C262.303 298.52 262.443 299.233 262.723 299.9C263.003 300.553 263.39 301.133 263.883 301.64C264.39 302.133 264.983 302.527 265.663 302.82C266.356 303.1 267.103 303.24 267.903 303.24C268.716 303.24 269.47 303.093 270.163 302.8C270.856 302.507 271.45 302.113 271.943 301.62C272.45 301.113 272.843 300.527 273.123 299.86C273.416 299.193 273.563 298.48 273.563 297.72ZM271.143 297.76C271.143 298.227 271.07 298.667 270.923 299.08C270.776 299.48 270.563 299.833 270.283 300.14C270.003 300.447 269.663 300.693 269.263 300.88C268.876 301.053 268.436 301.14 267.943 301.14C267.476 301.14 267.043 301.053 266.643 300.88C266.256 300.693 265.916 300.447 265.623 300.14C265.343 299.833 265.123 299.473 264.963 299.06C264.803 298.633 264.723 298.187 264.723 297.72C264.723 297.253 264.796 296.82 264.943 296.42C265.09 296.007 265.303 295.647 265.583 295.34C265.863 295.033 266.196 294.793 266.583 294.62C266.983 294.433 267.423 294.34 267.903 294.34C268.383 294.34 268.816 294.433 269.203 294.62C269.603 294.793 269.943 295.04 270.223 295.36C270.516 295.667 270.743 296.027 270.903 296.44C271.063 296.853 271.143 297.293 271.143 297.76Z" fill="white"/>
<path d="M279.862 300.2L277.022 292.44H274.422L278.762 303.08H280.942L285.262 292.44H282.722L279.862 300.2Z" fill="white"/>
<path d="M288.551 298.58H296.311C296.324 298.46 296.331 298.347 296.331 298.24C296.344 298.133 296.351 298.027 296.351 297.92C296.351 297.16 296.244 296.433 296.031 295.74C295.818 295.047 295.498 294.44 295.071 293.92C294.658 293.4 294.131 292.987 293.491 292.68C292.864 292.373 292.131 292.22 291.291 292.22C290.531 292.22 289.838 292.367 289.211 292.66C288.584 292.953 288.038 293.353 287.571 293.86C287.118 294.353 286.764 294.933 286.511 295.6C286.258 296.267 286.131 296.98 286.131 297.74C286.131 298.567 286.271 299.32 286.551 300C286.831 300.667 287.211 301.24 287.691 301.72C288.184 302.2 288.758 302.573 289.411 302.84C290.078 303.107 290.791 303.24 291.551 303.24C292.524 303.24 293.358 303.06 294.051 302.7C294.758 302.34 295.364 301.86 295.871 301.26L294.451 300C294.024 300.413 293.591 300.727 293.151 300.94C292.711 301.153 292.191 301.26 291.591 301.26C290.804 301.26 290.138 301.033 289.591 300.58C289.044 300.113 288.698 299.447 288.551 298.58ZM288.531 296.98C288.638 296.153 288.931 295.487 289.411 294.98C289.904 294.46 290.524 294.2 291.271 294.2C291.671 294.2 292.024 294.273 292.331 294.42C292.651 294.567 292.924 294.767 293.151 295.02C293.378 295.26 293.558 295.553 293.691 295.9C293.824 296.233 293.911 296.593 293.951 296.98H288.531Z" fill="white"/>
<path d="M315.457 297.72C315.457 296.96 315.317 296.247 315.037 295.58C314.757 294.913 314.364 294.333 313.857 293.84C313.364 293.333 312.771 292.94 312.077 292.66C311.397 292.367 310.651 292.22 309.837 292.22C309.024 292.22 308.271 292.367 307.577 292.66C306.897 292.953 306.304 293.353 305.797 293.86C305.304 294.353 304.911 294.94 304.617 295.62C304.337 296.287 304.197 297 304.197 297.76C304.197 298.52 304.337 299.233 304.617 299.9C304.897 300.553 305.284 301.133 305.777 301.64C306.284 302.133 306.877 302.527 307.557 302.82C308.251 303.1 308.997 303.24 309.797 303.24C310.611 303.24 311.364 303.093 312.057 302.8C312.751 302.507 313.344 302.113 313.837 301.62C314.344 301.113 314.737 300.527 315.017 299.86C315.311 299.193 315.457 298.48 315.457 297.72ZM313.037 297.76C313.037 298.227 312.964 298.667 312.817 299.08C312.671 299.48 312.457 299.833 312.177 300.14C311.897 300.447 311.557 300.693 311.157 300.88C310.771 301.053 310.331 301.14 309.837 301.14C309.371 301.14 308.937 301.053 308.537 300.88C308.151 300.693 307.811 300.447 307.517 300.14C307.237 299.833 307.017 299.473 306.857 299.06C306.697 298.633 306.617 298.187 306.617 297.72C306.617 297.253 306.691 296.82 306.837 296.42C306.984 296.007 307.197 295.647 307.477 295.34C307.757 295.033 308.091 294.793 308.477 294.62C308.877 294.433 309.317 294.34 309.797 294.34C310.277 294.34 310.711 294.433 311.097 294.62C311.497 294.793 311.837 295.04 312.117 295.36C312.411 295.667 312.637 296.027 312.797 296.44C312.957 296.853 313.037 297.293 313.037 297.76Z" fill="white"/>
<path d="M324.862 298.4C324.862 299.227 324.642 299.873 324.202 300.34C323.762 300.793 323.189 301.02 322.482 301.02C321.762 301.02 321.202 300.8 320.802 300.36C320.415 299.907 320.222 299.267 320.222 298.44V292.44H317.802V299.16C317.802 300.4 318.129 301.387 318.782 302.12C319.435 302.853 320.362 303.22 321.562 303.22C322.375 303.22 323.042 303.04 323.562 302.68C324.082 302.307 324.515 301.867 324.862 301.36V303H327.282V292.44H324.862V298.4Z" fill="white"/>
<path d="M333.244 294.52H336.084V292.44H333.244V289.54H330.824V292.44H329.484V294.52H330.824V300.08C330.824 300.667 330.898 301.16 331.044 301.56C331.191 301.947 331.398 302.26 331.664 302.5C331.944 302.74 332.271 302.913 332.644 303.02C333.018 303.127 333.424 303.18 333.864 303.18C334.318 303.18 334.718 303.133 335.064 303.04C335.411 302.947 335.738 302.813 336.044 302.64V300.66C335.564 300.9 335.064 301.02 334.544 301.02C334.131 301.02 333.811 300.92 333.584 300.72C333.358 300.507 333.244 300.167 333.244 299.7V294.52Z" fill="white"/>
<path d="M346.944 298.98C346.944 298.287 347.03 297.68 347.204 297.16C347.377 296.627 347.624 296.187 347.944 295.84C348.264 295.493 348.644 295.233 349.084 295.06C349.524 294.887 350.01 294.8 350.544 294.8H350.684V292.24C349.75 292.2 348.977 292.42 348.364 292.9C347.75 293.38 347.277 294.02 346.944 294.82V292.44H344.524V303H346.944V298.98Z" fill="white"/>
<path d="M354.274 298.58H362.034C362.047 298.46 362.054 298.347 362.054 298.24C362.067 298.133 362.074 298.027 362.074 297.92C362.074 297.16 361.967 296.433 361.754 295.74C361.54 295.047 361.22 294.44 360.794 293.92C360.38 293.4 359.854 292.987 359.214 292.68C358.587 292.373 357.854 292.22 357.014 292.22C356.254 292.22 355.56 292.367 354.934 292.66C354.307 292.953 353.76 293.353 353.294 293.86C352.84 294.353 352.487 294.933 352.234 295.6C351.98 296.267 351.854 296.98 351.854 297.74C351.854 298.567 351.994 299.32 352.274 300C352.554 300.667 352.934 301.24 353.414 301.72C353.907 302.2 354.48 302.573 355.134 302.84C355.8 303.107 356.514 303.24 357.274 303.24C358.247 303.24 359.08 303.06 359.774 302.7C360.48 302.34 361.087 301.86 361.594 301.26L360.174 300C359.747 300.413 359.314 300.727 358.874 300.94C358.434 301.153 357.914 301.26 357.314 301.26C356.527 301.26 355.86 301.033 355.314 300.58C354.767 300.113 354.42 299.447 354.274 298.58ZM354.254 296.98C354.36 296.153 354.654 295.487 355.134 294.98C355.627 294.46 356.247 294.2 356.994 294.2C357.394 294.2 357.747 294.273 358.054 294.42C358.374 294.567 358.647 294.767 358.874 295.02C359.1 295.26 359.28 295.553 359.414 295.9C359.547 296.233 359.634 296.593 359.674 296.98H354.254Z" fill="white"/>
<path d="M375.424 297.72C375.424 296.84 375.284 296.06 375.004 295.38C374.724 294.7 374.351 294.127 373.884 293.66C373.431 293.18 372.911 292.82 372.324 292.58C371.737 292.34 371.131 292.22 370.504 292.22C369.651 292.22 368.937 292.413 368.364 292.8C367.791 293.173 367.311 293.64 366.924 294.2V292.44H364.504V306.2H366.924V301.36C367.297 301.853 367.771 302.287 368.344 302.66C368.917 303.033 369.637 303.22 370.504 303.22C371.131 303.22 371.737 303.1 372.324 302.86C372.924 302.62 373.451 302.267 373.904 301.8C374.371 301.32 374.737 300.74 375.004 300.06C375.284 299.38 375.424 298.6 375.424 297.72ZM372.964 297.72C372.964 298.24 372.884 298.713 372.724 299.14C372.564 299.553 372.344 299.907 372.064 300.2C371.797 300.493 371.477 300.72 371.104 300.88C370.744 301.04 370.357 301.12 369.944 301.12C369.531 301.12 369.137 301.04 368.764 300.88C368.391 300.72 368.064 300.493 367.784 300.2C367.504 299.893 367.277 299.533 367.104 299.12C366.944 298.707 366.864 298.24 366.864 297.72C366.864 297.2 366.944 296.733 367.104 296.32C367.277 295.907 367.504 295.553 367.784 295.26C368.064 294.953 368.391 294.72 368.764 294.56C369.137 294.4 369.531 294.32 369.944 294.32C370.357 294.32 370.744 294.4 371.104 294.56C371.477 294.72 371.797 294.947 372.064 295.24C372.344 295.533 372.564 295.893 372.724 296.32C372.884 296.733 372.964 297.2 372.964 297.72Z" fill="white"/>
<path d="M388.582 297.72C388.582 296.96 388.442 296.247 388.162 295.58C387.882 294.913 387.489 294.333 386.982 293.84C386.489 293.333 385.896 292.94 385.202 292.66C384.522 292.367 383.776 292.22 382.962 292.22C382.149 292.22 381.396 292.367 380.702 292.66C380.022 292.953 379.429 293.353 378.922 293.86C378.429 294.353 378.036 294.94 377.742 295.62C377.462 296.287 377.322 297 377.322 297.76C377.322 298.52 377.462 299.233 377.742 299.9C378.022 300.553 378.409 301.133 378.902 301.64C379.409 302.133 380.002 302.527 380.682 302.82C381.376 303.1 382.122 303.24 382.922 303.24C383.736 303.24 384.489 303.093 385.182 302.8C385.876 302.507 386.469 302.113 386.962 301.62C387.469 301.113 387.862 300.527 388.142 299.86C388.436 299.193 388.582 298.48 388.582 297.72ZM386.162 297.76C386.162 298.227 386.089 298.667 385.942 299.08C385.796 299.48 385.582 299.833 385.302 300.14C385.022 300.447 384.682 300.693 384.282 300.88C383.896 301.053 383.456 301.14 382.962 301.14C382.496 301.14 382.062 301.053 381.662 300.88C381.276 300.693 380.936 300.447 380.642 300.14C380.362 299.833 380.142 299.473 379.982 299.06C379.822 298.633 379.742 298.187 379.742 297.72C379.742 297.253 379.816 296.82 379.962 296.42C380.109 296.007 380.322 295.647 380.602 295.34C380.882 295.033 381.216 294.793 381.602 294.62C382.002 294.433 382.442 294.34 382.922 294.34C383.402 294.34 383.836 294.433 384.222 294.62C384.622 294.793 384.962 295.04 385.242 295.36C385.536 295.667 385.762 296.027 385.922 296.44C386.082 296.853 386.162 297.293 386.162 297.76Z" fill="white"/>
<path d="M393.467 298.98C393.467 298.287 393.554 297.68 393.727 297.16C393.9 296.627 394.147 296.187 394.467 295.84C394.787 295.493 395.167 295.233 395.607 295.06C396.047 294.887 396.534 294.8 397.067 294.8H397.207V292.24C396.274 292.2 395.5 292.42 394.887 292.9C394.274 293.38 393.8 294.02 393.467 294.82V292.44H391.047V303H393.467V298.98Z" fill="white"/>
<path d="M402.229 294.52H405.069V292.44H402.229V289.54H399.809V292.44H398.469V294.52H399.809V300.08C399.809 300.667 399.882 301.16 400.029 301.56C400.175 301.947 400.382 302.26 400.649 302.5C400.929 302.74 401.255 302.913 401.629 303.02C402.002 303.127 402.409 303.18 402.849 303.18C403.302 303.18 403.702 303.133 404.049 303.04C404.395 302.947 404.722 302.813 405.029 302.64V300.66C404.549 300.9 404.049 301.02 403.529 301.02C403.115 301.02 402.795 300.92 402.569 300.72C402.342 300.507 402.229 300.167 402.229 299.7V294.52Z" fill="white"/>
<path d="M177.376 346.104L174.704 337.8H172.576L176.48 349.08H178.176L180.928 341.032L183.68 349.08H185.376L189.28 337.8H187.216L184.544 346.104L181.792 337.768H180.128L177.376 346.104Z" fill="white"/>
<path d="M197.038 349V343.992C197.038 342.861 196.734 341.987 196.126 341.368C195.518 340.739 194.585 340.424 193.326 340.424C192.633 340.424 192.041 340.488 191.55 340.616C191.059 340.744 190.579 340.915 190.11 341.128L190.638 342.68C191.022 342.52 191.401 342.392 191.774 342.296C192.147 342.2 192.574 342.152 193.054 342.152C193.726 342.152 194.238 342.307 194.59 342.616C194.953 342.925 195.134 343.373 195.134 343.96V344.168C194.803 344.061 194.457 343.976 194.094 343.912C193.742 343.848 193.31 343.816 192.798 343.816C192.307 343.816 191.849 343.875 191.422 343.992C191.006 344.099 190.643 344.264 190.334 344.488C190.035 344.712 189.801 344.995 189.63 345.336C189.459 345.677 189.374 346.077 189.374 346.536V346.568C189.374 346.995 189.454 347.373 189.614 347.704C189.785 348.024 190.003 348.296 190.27 348.52C190.547 348.733 190.867 348.893 191.23 349C191.593 349.117 191.977 349.176 192.382 349.176C193.022 349.176 193.566 349.059 194.014 348.824C194.462 348.589 194.83 348.301 195.118 347.96V349H197.038ZM195.166 345.944C195.166 346.211 195.107 346.456 194.99 346.68C194.883 346.893 194.729 347.08 194.526 347.24C194.323 347.389 194.083 347.507 193.806 347.592C193.539 347.677 193.246 347.72 192.926 347.72C192.467 347.72 192.078 347.613 191.758 347.4C191.449 347.187 191.294 346.877 191.294 346.472V346.44C191.294 346.003 191.465 345.667 191.806 345.432C192.147 345.197 192.622 345.08 193.23 345.08C193.603 345.08 193.955 345.112 194.286 345.176C194.627 345.24 194.921 345.32 195.166 345.416V345.944Z" fill="white"/>
<path d="M201.389 349V337.32H199.453V349H201.389Z" fill="white"/>
<path d="M205.967 349V337.32H204.031V349H205.967Z" fill="white"/>
<path d="M214.529 346.504V346.472C214.529 346.088 214.449 345.763 214.289 345.496C214.129 345.229 213.921 345.005 213.665 344.824C213.42 344.632 213.142 344.472 212.833 344.344C212.524 344.216 212.214 344.104 211.905 344.008C211.66 343.933 211.42 343.859 211.185 343.784C210.961 343.699 210.758 343.613 210.577 343.528C210.406 343.432 210.268 343.331 210.161 343.224C210.054 343.107 210.001 342.973 210.001 342.824V342.792C210.001 342.547 210.102 342.344 210.305 342.184C210.518 342.024 210.812 341.944 211.185 341.944C211.537 341.944 211.921 342.019 212.337 342.168C212.753 342.307 213.164 342.499 213.569 342.744L214.337 341.368C213.889 341.069 213.393 340.835 212.849 340.664C212.305 340.493 211.766 340.408 211.233 340.408C210.817 340.408 210.422 340.467 210.049 340.584C209.686 340.701 209.366 340.872 209.089 341.096C208.822 341.32 208.609 341.592 208.449 341.912C208.3 342.232 208.225 342.589 208.225 342.984V343.016C208.225 343.421 208.305 343.763 208.465 344.04C208.625 344.307 208.828 344.536 209.073 344.728C209.329 344.909 209.612 345.059 209.921 345.176C210.241 345.293 210.556 345.4 210.865 345.496C211.11 345.571 211.345 345.645 211.569 345.72C211.804 345.784 212.006 345.864 212.177 345.96C212.358 346.045 212.497 346.147 212.593 346.264C212.7 346.381 212.753 346.52 212.753 346.68V346.712C212.753 346.989 212.636 347.213 212.401 347.384C212.177 347.544 211.857 347.624 211.441 347.624C211.004 347.624 210.545 347.539 210.065 347.368C209.596 347.187 209.132 346.925 208.673 346.584L207.809 347.896C208.342 348.312 208.918 348.627 209.537 348.84C210.166 349.053 210.785 349.16 211.393 349.16C211.83 349.16 212.241 349.107 212.625 349C213.009 348.883 213.34 348.717 213.617 348.504C213.905 348.28 214.129 348.003 214.289 347.672C214.449 347.341 214.529 346.952 214.529 346.504Z" fill="white"/>
<path d="M222.113 336.232L214.881 351.048H216.561L223.793 336.232H222.113Z" fill="white"/>
<path d="M235.193 343.384C235.193 342.595 235.049 341.859 234.761 341.176C234.473 340.493 234.062 339.901 233.529 339.4C233.006 338.899 232.377 338.509 231.641 338.232C230.915 337.944 230.115 337.8 229.241 337.8H225.065V349H229.241C230.115 349 230.915 348.856 231.641 348.568C232.377 348.28 233.006 347.885 233.529 347.384C234.062 346.883 234.473 346.291 234.761 345.608C235.049 344.915 235.193 344.173 235.193 343.384ZM233.129 343.416C233.129 343.971 233.033 344.483 232.841 344.952C232.659 345.411 232.398 345.811 232.057 346.152C231.726 346.483 231.321 346.744 230.841 346.936C230.361 347.117 229.827 347.208 229.241 347.208H227.033V339.592H229.241C229.827 339.592 230.361 339.688 230.841 339.88C231.321 340.072 231.726 340.339 232.057 340.68C232.398 341.021 232.659 341.427 232.841 341.896C233.033 342.355 233.129 342.861 233.129 343.416Z" fill="white"/>
<path d="M245.9 344.776C245.9 344.168 245.788 343.597 245.564 343.064C245.34 342.531 245.026 342.067 244.62 341.672C244.226 341.267 243.751 340.952 243.196 340.728C242.652 340.493 242.055 340.376 241.404 340.376C240.754 340.376 240.151 340.493 239.596 340.728C239.052 340.963 238.578 341.283 238.172 341.688C237.778 342.083 237.463 342.552 237.228 343.096C237.004 343.629 236.892 344.2 236.892 344.808C236.892 345.416 237.004 345.987 237.228 346.52C237.452 347.043 237.762 347.507 238.156 347.912C238.562 348.307 239.036 348.621 239.58 348.856C240.135 349.08 240.732 349.192 241.372 349.192C242.023 349.192 242.626 349.075 243.18 348.84C243.735 348.605 244.21 348.291 244.604 347.896C245.01 347.491 245.324 347.021 245.548 346.488C245.783 345.955 245.9 345.384 245.9 344.776ZM243.964 344.808C243.964 345.181 243.906 345.533 243.788 345.864C243.671 346.184 243.5 346.467 243.276 346.712C243.052 346.957 242.78 347.155 242.46 347.304C242.151 347.443 241.799 347.512 241.404 347.512C241.031 347.512 240.684 347.443 240.364 347.304C240.055 347.155 239.783 346.957 239.548 346.712C239.324 346.467 239.148 346.179 239.02 345.848C238.892 345.507 238.828 345.149 238.828 344.776C238.828 344.403 238.887 344.056 239.004 343.736C239.122 343.405 239.292 343.117 239.516 342.872C239.74 342.627 240.007 342.435 240.316 342.296C240.636 342.147 240.988 342.072 241.372 342.072C241.756 342.072 242.103 342.147 242.412 342.296C242.732 342.435 243.004 342.632 243.228 342.888C243.463 343.133 243.644 343.421 243.772 343.752C243.9 344.083 243.964 344.435 243.964 344.808Z" fill="white"/>
<path d="M256.416 344.776C256.416 344.168 256.304 343.597 256.08 343.064C255.856 342.531 255.541 342.067 255.136 341.672C254.741 341.267 254.267 340.952 253.712 340.728C253.168 340.493 252.571 340.376 251.92 340.376C251.269 340.376 250.667 340.493 250.112 340.728C249.568 340.963 249.093 341.283 248.688 341.688C248.293 342.083 247.979 342.552 247.744 343.096C247.52 343.629 247.408 344.2 247.408 344.808C247.408 345.416 247.52 345.987 247.744 346.52C247.968 347.043 248.277 347.507 248.672 347.912C249.077 348.307 249.552 348.621 250.096 348.856C250.651 349.08 251.248 349.192 251.888 349.192C252.539 349.192 253.141 349.075 253.696 348.84C254.251 348.605 254.725 348.291 255.12 347.896C255.525 347.491 255.84 347.021 256.064 346.488C256.299 345.955 256.416 345.384 256.416 344.776ZM254.48 344.808C254.48 345.181 254.421 345.533 254.304 345.864C254.187 346.184 254.016 346.467 253.792 346.712C253.568 346.957 253.296 347.155 252.976 347.304C252.667 347.443 252.315 347.512 251.92 347.512C251.547 347.512 251.2 347.443 250.88 347.304C250.571 347.155 250.299 346.957 250.064 346.712C249.84 346.467 249.664 346.179 249.536 345.848C249.408 345.507 249.344 345.149 249.344 344.776C249.344 344.403 249.403 344.056 249.52 343.736C249.637 343.405 249.808 343.117 250.032 342.872C250.256 342.627 250.523 342.435 250.832 342.296C251.152 342.147 251.504 342.072 251.888 342.072C252.272 342.072 252.619 342.147 252.928 342.296C253.248 342.435 253.52 342.632 253.744 342.888C253.979 343.133 254.16 343.421 254.288 343.752C254.416 344.083 254.48 344.435 254.48 344.808Z" fill="white"/>
<path d="M260.324 345.784C260.324 345.229 260.393 344.744 260.532 344.328C260.67 343.901 260.868 343.549 261.123 343.272C261.379 342.995 261.684 342.787 262.035 342.648C262.387 342.509 262.777 342.44 263.203 342.44H263.315V340.392C262.569 340.36 261.95 340.536 261.46 340.92C260.969 341.304 260.59 341.816 260.324 342.456V340.552H258.387V349H260.324V345.784Z" fill="white"/>
<path d="M271.029 346.504V346.472C271.029 346.088 270.949 345.763 270.789 345.496C270.629 345.229 270.421 345.005 270.165 344.824C269.92 344.632 269.642 344.472 269.333 344.344C269.024 344.216 268.714 344.104 268.405 344.008C268.16 343.933 267.92 343.859 267.685 343.784C267.461 343.699 267.258 343.613 267.077 343.528C266.906 343.432 266.768 343.331 266.661 343.224C266.554 343.107 266.501 342.973 266.501 342.824V342.792C266.501 342.547 266.602 342.344 266.805 342.184C267.018 342.024 267.312 341.944 267.685 341.944C268.037 341.944 268.421 342.019 268.837 342.168C269.253 342.307 269.664 342.499 270.069 342.744L270.837 341.368C270.389 341.069 269.893 340.835 269.349 340.664C268.805 340.493 268.266 340.408 267.733 340.408C267.317 340.408 266.922 340.467 266.549 340.584C266.186 340.701 265.866 340.872 265.589 341.096C265.322 341.32 265.109 341.592 264.949 341.912C264.8 342.232 264.725 342.589 264.725 342.984V343.016C264.725 343.421 264.805 343.763 264.965 344.04C265.125 344.307 265.328 344.536 265.573 344.728C265.829 344.909 266.112 345.059 266.421 345.176C266.741 345.293 267.056 345.4 267.365 345.496C267.61 345.571 267.845 345.645 268.069 345.72C268.304 345.784 268.506 345.864 268.677 345.96C268.858 346.045 268.997 346.147 269.093 346.264C269.2 346.381 269.253 346.52 269.253 346.68V346.712C269.253 346.989 269.136 347.213 268.901 347.384C268.677 347.544 268.357 347.624 267.941 347.624C267.504 347.624 267.045 347.539 266.565 347.368C266.096 347.187 265.632 346.925 265.173 346.584L264.309 347.896C264.842 348.312 265.418 348.627 266.037 348.84C266.666 349.053 267.285 349.16 267.893 349.16C268.33 349.16 268.741 349.107 269.125 349C269.509 348.883 269.84 348.717 270.117 348.504C270.405 348.28 270.629 348.003 270.789 347.672C270.949 347.341 271.029 346.952 271.029 346.504Z" fill="white"/>
<path d="M278.613 336.232L271.381 351.048H273.061L280.293 336.232H278.613Z" fill="white"/>
<path d="M289.901 337.8H281.565V349H283.533V344.44H289.181V342.648H283.533V339.592H289.901V337.8Z" fill="white"/>
<path d="M293.953 339.256V337.416H291.873V339.256H293.953ZM293.889 349V340.552H291.953V349H293.889Z" fill="white"/>
<path d="M298.755 342.216H301.027V340.552H298.755V338.232H296.819V340.552H295.747V342.216H296.819V346.664C296.819 347.133 296.877 347.528 296.995 347.848C297.112 348.157 297.277 348.408 297.491 348.6C297.715 348.792 297.976 348.931 298.275 349.016C298.573 349.101 298.899 349.144 299.251 349.144C299.613 349.144 299.933 349.107 300.211 349.032C300.488 348.957 300.749 348.851 300.995 348.712V347.128C300.611 347.32 300.211 347.416 299.795 347.416C299.464 347.416 299.208 347.336 299.027 347.176C298.845 347.005 298.755 346.733 298.755 346.36V342.216Z" fill="white"/>
<path d="M305.317 342.216H307.589V340.552H305.317V338.232H303.381V340.552H302.309V342.216H303.381V346.664C303.381 347.133 303.44 347.528 303.557 347.848C303.675 348.157 303.84 348.408 304.053 348.6C304.277 348.792 304.539 348.931 304.837 349.016C305.136 349.101 305.461 349.144 305.813 349.144C306.176 349.144 306.496 349.107 306.773 349.032C307.051 348.957 307.312 348.851 307.557 348.712V347.128C307.173 347.32 306.773 347.416 306.357 347.416C306.027 347.416 305.771 347.336 305.589 347.176C305.408 347.005 305.317 346.733 305.317 346.36V342.216Z" fill="white"/>
<path d="M311.656 339.256V337.416H309.576V339.256H311.656ZM311.592 349V340.552H309.656V349H311.592Z" fill="white"/>
<path d="M316.058 344.232C316.058 343.571 316.234 343.059 316.586 342.696C316.938 342.323 317.397 342.136 317.962 342.136C318.538 342.136 318.981 342.317 319.29 342.68C319.61 343.032 319.77 343.539 319.77 344.2V349H321.706V343.624C321.706 342.632 321.445 341.843 320.922 341.256C320.399 340.669 319.658 340.376 318.698 340.376C318.367 340.376 318.069 340.419 317.802 340.504C317.546 340.579 317.306 340.685 317.082 340.824C316.869 340.963 316.677 341.123 316.506 341.304C316.346 341.475 316.197 341.661 316.058 341.864V340.552H314.122V349H316.058V344.232Z" fill="white"/>
<path d="M332.348 347.272V340.552H330.412V341.816C330.081 341.421 329.681 341.085 329.212 340.808C328.753 340.52 328.166 340.376 327.452 340.376C326.961 340.376 326.481 340.467 326.012 340.648C325.553 340.829 325.142 341.091 324.78 341.432C324.428 341.773 324.145 342.189 323.932 342.68C323.718 343.171 323.612 343.731 323.612 344.36C323.612 344.989 323.718 345.549 323.932 346.04C324.145 346.531 324.428 346.947 324.78 347.288C325.142 347.629 325.553 347.891 326.012 348.072C326.47 348.243 326.95 348.328 327.452 348.328C328.145 348.328 328.726 348.184 329.196 347.896C329.665 347.608 330.076 347.235 330.428 346.776V347.432C330.428 348.285 330.198 348.931 329.74 349.368C329.281 349.805 328.62 350.024 327.756 350.024C327.18 350.024 326.646 349.944 326.156 349.784C325.665 349.624 325.196 349.405 324.748 349.128L324.028 350.584C325.137 351.256 326.396 351.592 327.804 351.592C329.254 351.592 330.374 351.245 331.164 350.552C331.953 349.859 332.348 348.765 332.348 347.272ZM330.444 344.36C330.444 344.712 330.374 345.032 330.236 345.32C330.108 345.597 329.932 345.843 329.708 346.056C329.484 346.259 329.217 346.419 328.908 346.536C328.609 346.643 328.294 346.696 327.964 346.696C327.633 346.696 327.318 346.643 327.02 346.536C326.732 346.419 326.481 346.259 326.268 346.056C326.054 345.843 325.884 345.592 325.756 345.304C325.628 345.016 325.564 344.696 325.564 344.344C325.564 343.992 325.622 343.672 325.74 343.384C325.868 343.096 326.038 342.851 326.252 342.648C326.476 342.445 326.732 342.291 327.02 342.184C327.308 342.067 327.622 342.008 327.964 342.008C328.294 342.008 328.609 342.067 328.908 342.184C329.217 342.291 329.484 342.445 329.708 342.648C329.932 342.851 330.108 343.101 330.236 343.4C330.374 343.688 330.444 344.008 330.444 344.36Z" fill="white"/>
<path d="M340.794 346.504V346.472C340.794 346.088 340.715 345.763 340.555 345.496C340.395 345.229 340.186 345.005 339.93 344.824C339.685 344.632 339.408 344.472 339.098 344.344C338.789 344.216 338.48 344.104 338.171 344.008C337.925 343.933 337.685 343.859 337.451 343.784C337.227 343.699 337.024 343.613 336.842 343.528C336.672 343.432 336.533 343.331 336.426 343.224C336.32 343.107 336.266 342.973 336.266 342.824V342.792C336.266 342.547 336.368 342.344 336.57 342.184C336.784 342.024 337.077 341.944 337.451 341.944C337.803 341.944 338.186 342.019 338.602 342.168C339.018 342.307 339.429 342.499 339.835 342.744L340.602 341.368C340.154 341.069 339.659 340.835 339.115 340.664C338.57 340.493 338.032 340.408 337.499 340.408C337.083 340.408 336.688 340.467 336.314 340.584C335.952 340.701 335.632 340.872 335.355 341.096C335.088 341.32 334.874 341.592 334.714 341.912C334.565 342.232 334.49 342.589 334.49 342.984V343.016C334.49 343.421 334.57 343.763 334.73 344.04C334.891 344.307 335.093 344.536 335.339 344.728C335.594 344.909 335.877 345.059 336.186 345.176C336.507 345.293 336.821 345.4 337.13 345.496C337.376 345.571 337.611 345.645 337.835 345.72C338.069 345.784 338.272 345.864 338.443 345.96C338.624 346.045 338.763 346.147 338.859 346.264C338.965 346.381 339.018 346.52 339.018 346.68V346.712C339.018 346.989 338.901 347.213 338.667 347.384C338.443 347.544 338.122 347.624 337.706 347.624C337.269 347.624 336.811 347.539 336.331 347.368C335.861 347.187 335.397 346.925 334.939 346.584L334.074 347.896C334.608 348.312 335.184 348.627 335.803 348.84C336.432 349.053 337.05 349.16 337.658 349.16C338.096 349.16 338.507 349.107 338.891 349C339.275 348.883 339.605 348.717 339.883 348.504C340.171 348.28 340.395 348.003 340.555 347.672C340.715 347.341 340.794 346.952 340.794 346.504Z" fill="white"/>
<path d="M174.328 370.796C174.328 370.516 174.448 370.28 174.688 370.088C174.928 369.888 175.264 369.788 175.696 369.788C176.08 369.788 176.46 369.864 176.836 370.016C177.212 370.16 177.592 370.372 177.976 370.652L178.768 369.536C178.336 369.192 177.872 368.932 177.376 368.756C176.888 368.572 176.336 368.48 175.72 368.48C175.304 368.48 174.92 368.54 174.568 368.66C174.216 368.772 173.912 368.936 173.656 369.152C173.408 369.368 173.212 369.628 173.068 369.932C172.924 370.228 172.852 370.56 172.852 370.928C172.852 371.32 172.912 371.652 173.032 371.924C173.16 372.196 173.34 372.428 173.572 372.62C173.812 372.812 174.104 372.972 174.448 373.1C174.8 373.228 175.2 373.344 175.648 373.448C176.04 373.544 176.356 373.636 176.596 373.724C176.844 373.812 177.036 373.908 177.172 374.012C177.316 374.108 177.412 374.216 177.46 374.336C177.516 374.456 177.544 374.592 177.544 374.744C177.544 375.072 177.408 375.332 177.136 375.524C176.872 375.716 176.512 375.812 176.056 375.812C175.528 375.812 175.056 375.72 174.64 375.536C174.224 375.344 173.812 375.072 173.404 374.72L172.516 375.776C173.02 376.232 173.568 376.572 174.16 376.796C174.752 377.012 175.372 377.12 176.02 377.12C176.46 377.12 176.864 377.064 177.232 376.952C177.6 376.84 177.916 376.676 178.18 376.46C178.444 376.244 178.648 375.98 178.792 375.668C178.944 375.356 179.02 375 179.02 374.6C179.02 374.248 178.96 373.944 178.84 373.688C178.728 373.424 178.56 373.196 178.336 373.004C178.112 372.804 177.828 372.636 177.484 372.5C177.148 372.364 176.76 372.24 176.32 372.128C175.92 372.032 175.588 371.94 175.324 371.852C175.068 371.764 174.864 371.668 174.712 371.564C174.568 371.46 174.468 371.348 174.412 371.228C174.356 371.108 174.328 370.964 174.328 370.796Z" fill="white"/>
<path d="M182.281 371.912H183.985V370.664H182.281V368.924H180.829V370.664H180.025V371.912H180.829V375.248C180.829 375.6 180.873 375.896 180.961 376.136C181.049 376.368 181.173 376.556 181.333 376.7C181.501 376.844 181.697 376.948 181.921 377.012C182.145 377.076 182.389 377.108 182.653 377.108C182.925 377.108 183.165 377.08 183.373 377.024C183.581 376.968 183.777 376.888 183.961 376.784V375.596C183.673 375.74 183.373 375.812 183.061 375.812C182.813 375.812 182.621 375.752 182.485 375.632C182.349 375.504 182.281 375.3 182.281 375.02V371.912Z" fill="white"/>
<path d="M190.767 377V373.244C190.767 372.396 190.539 371.74 190.083 371.276C189.627 370.804 188.927 370.568 187.983 370.568C187.463 370.568 187.019 370.616 186.651 370.712C186.283 370.808 185.923 370.936 185.571 371.096L185.967 372.26C186.255 372.14 186.539 372.044 186.819 371.972C187.099 371.9 187.419 371.864 187.779 371.864C188.283 371.864 188.667 371.98 188.931 372.212C189.203 372.444 189.339 372.78 189.339 373.22V373.376C189.091 373.296 188.831 373.232 188.559 373.184C188.295 373.136 187.971 373.112 187.587 373.112C187.219 373.112 186.875 373.156 186.555 373.244C186.243 373.324 185.971 373.448 185.739 373.616C185.515 373.784 185.339 373.996 185.211 374.252C185.083 374.508 185.019 374.808 185.019 375.152V375.176C185.019 375.496 185.079 375.78 185.199 376.028C185.327 376.268 185.491 376.472 185.691 376.64C185.899 376.8 186.139 376.92 186.411 377C186.683 377.088 186.971 377.132 187.275 377.132C187.755 377.132 188.163 377.044 188.499 376.868C188.835 376.692 189.111 376.476 189.327 376.22V377H190.767ZM189.363 374.708C189.363 374.908 189.319 375.092 189.231 375.26C189.151 375.42 189.035 375.56 188.883 375.68C188.731 375.792 188.551 375.88 188.343 375.944C188.143 376.008 187.923 376.04 187.683 376.04C187.339 376.04 187.047 375.96 186.807 375.8C186.575 375.64 186.459 375.408 186.459 375.104V375.08C186.459 374.752 186.587 374.5 186.843 374.324C187.099 374.148 187.455 374.06 187.911 374.06C188.191 374.06 188.455 374.084 188.703 374.132C188.959 374.18 189.179 374.24 189.363 374.312V374.708Z" fill="white"/>
<path d="M194.187 371.912H195.891V370.664H194.187V368.924H192.735V370.664H191.931V371.912H192.735V375.248C192.735 375.6 192.779 375.896 192.867 376.136C192.955 376.368 193.079 376.556 193.239 376.7C193.407 376.844 193.603 376.948 193.827 377.012C194.051 377.076 194.295 377.108 194.559 377.108C194.831 377.108 195.071 377.08 195.279 377.024C195.487 376.968 195.683 376.888 195.867 376.784V375.596C195.579 375.74 195.279 375.812 194.967 375.812C194.719 375.812 194.527 375.752 194.391 375.632C194.255 375.504 194.187 375.3 194.187 375.02V371.912Z" fill="white"/>
<path d="M198.285 374.348H202.941C202.949 374.276 202.953 374.208 202.953 374.144C202.961 374.08 202.965 374.016 202.965 373.952C202.965 373.496 202.901 373.06 202.773 372.644C202.645 372.228 202.453 371.864 202.197 371.552C201.949 371.24 201.633 370.992 201.249 370.808C200.873 370.624 200.433 370.532 199.929 370.532C199.473 370.532 199.057 370.62 198.681 370.796C198.305 370.972 197.977 371.212 197.697 371.516C197.425 371.812 197.213 372.16 197.061 372.56C196.909 372.96 196.833 373.388 196.833 373.844C196.833 374.34 196.917 374.792 197.085 375.2C197.253 375.6 197.481 375.944 197.769 376.232C198.065 376.52 198.409 376.744 198.801 376.904C199.201 377.064 199.629 377.144 200.085 377.144C200.669 377.144 201.169 377.036 201.585 376.82C202.009 376.604 202.373 376.316 202.677 375.956L201.825 375.2C201.569 375.448 201.309 375.636 201.045 375.764C200.781 375.892 200.469 375.956 200.109 375.956C199.637 375.956 199.237 375.82 198.909 375.548C198.581 375.268 198.373 374.868 198.285 374.348ZM198.273 373.388C198.337 372.892 198.513 372.492 198.801 372.188C199.097 371.876 199.469 371.72 199.917 371.72C200.157 371.72 200.369 371.764 200.553 371.852C200.745 371.94 200.909 372.06 201.045 372.212C201.181 372.356 201.289 372.532 201.369 372.74C201.449 372.94 201.501 373.156 201.525 373.388H198.273Z" fill="white"/>
<path d="M209.581 372.308V370.664H207.985V372.308H209.581ZM209.581 377V375.356H207.985V377H209.581Z" fill="white"/>
<path d="M222.626 375.836V372.308H219.05V373.592H221.198V375.164C220.942 375.356 220.638 375.512 220.286 375.632C219.942 375.744 219.57 375.8 219.17 375.8C218.738 375.8 218.346 375.724 217.994 375.572C217.65 375.42 217.35 375.212 217.094 374.948C216.846 374.676 216.654 374.356 216.518 373.988C216.382 373.62 216.314 373.22 216.314 372.788C216.314 372.38 216.382 371.996 216.518 371.636C216.662 371.276 216.854 370.96 217.094 370.688C217.342 370.416 217.63 370.204 217.958 370.052C218.294 369.892 218.654 369.812 219.038 369.812C219.302 369.812 219.542 369.836 219.758 369.884C219.982 369.924 220.186 369.984 220.37 370.064C220.554 370.136 220.73 370.228 220.898 370.34C221.066 370.452 221.23 370.576 221.39 370.712L222.326 369.596C222.11 369.412 221.886 369.252 221.654 369.116C221.43 368.972 221.19 368.852 220.934 368.756C220.678 368.66 220.398 368.588 220.094 368.54C219.798 368.484 219.466 368.456 219.098 368.456C218.466 368.456 217.882 368.572 217.346 368.804C216.818 369.036 216.362 369.352 215.978 369.752C215.594 370.144 215.294 370.604 215.078 371.132C214.87 371.66 214.766 372.22 214.766 372.812C214.766 373.428 214.87 374 215.078 374.528C215.286 375.056 215.578 375.516 215.954 375.908C216.338 376.292 216.798 376.596 217.334 376.82C217.87 377.036 218.466 377.144 219.122 377.144C219.49 377.144 219.842 377.108 220.178 377.036C220.514 376.972 220.826 376.88 221.114 376.76C221.41 376.64 221.682 376.5 221.93 376.34C222.186 376.18 222.418 376.012 222.626 375.836Z" fill="white"/>
<path d="M225.832 374.588C225.832 374.172 225.884 373.808 225.988 373.496C226.092 373.176 226.24 372.912 226.432 372.704C226.624 372.496 226.852 372.34 227.116 372.236C227.38 372.132 227.672 372.08 227.992 372.08H228.076V370.544C227.516 370.52 227.052 370.652 226.684 370.94C226.316 371.228 226.032 371.612 225.832 372.092V370.664H224.38V377H225.832V374.588Z" fill="white"/>
<path d="M230.23 374.348H234.886C234.894 374.276 234.898 374.208 234.898 374.144C234.906 374.08 234.91 374.016 234.91 373.952C234.91 373.496 234.846 373.06 234.718 372.644C234.59 372.228 234.398 371.864 234.142 371.552C233.894 371.24 233.578 370.992 233.194 370.808C232.818 370.624 232.378 370.532 231.874 370.532C231.418 370.532 231.002 370.62 230.626 370.796C230.25 370.972 229.922 371.212 229.642 371.516C229.37 371.812 229.158 372.16 229.006 372.56C228.854 372.96 228.778 373.388 228.778 373.844C228.778 374.34 228.862 374.792 229.03 375.2C229.198 375.6 229.426 375.944 229.714 376.232C230.01 376.52 230.354 376.744 230.746 376.904C231.146 377.064 231.574 377.144 232.03 377.144C232.614 377.144 233.114 377.036 233.53 376.82C233.954 376.604 234.318 376.316 234.622 375.956L233.77 375.2C233.514 375.448 233.254 375.636 232.99 375.764C232.726 375.892 232.414 375.956 232.054 375.956C231.582 375.956 231.182 375.82 230.854 375.548C230.526 375.268 230.318 374.868 230.23 374.348ZM230.218 373.388C230.282 372.892 230.458 372.492 230.746 372.188C231.042 371.876 231.414 371.72 231.862 371.72C232.102 371.72 232.314 371.764 232.498 371.852C232.69 371.94 232.854 372.06 232.99 372.212C233.126 372.356 233.234 372.532 233.314 372.74C233.394 372.94 233.446 373.156 233.47 373.388H230.218Z" fill="white"/>
<path d="M241.685 377V373.244C241.685 372.396 241.457 371.74 241.001 371.276C240.545 370.804 239.845 370.568 238.901 370.568C238.381 370.568 237.937 370.616 237.569 370.712C237.201 370.808 236.841 370.936 236.489 371.096L236.885 372.26C237.173 372.14 237.457 372.044 237.737 371.972C238.017 371.9 238.337 371.864 238.697 371.864C239.201 371.864 239.585 371.98 239.849 372.212C240.121 372.444 240.257 372.78 240.257 373.22V373.376C240.009 373.296 239.749 373.232 239.477 373.184C239.213 373.136 238.889 373.112 238.505 373.112C238.137 373.112 237.793 373.156 237.473 373.244C237.161 373.324 236.889 373.448 236.657 373.616C236.433 373.784 236.257 373.996 236.129 374.252C236.001 374.508 235.937 374.808 235.937 375.152V375.176C235.937 375.496 235.997 375.78 236.117 376.028C236.245 376.268 236.409 376.472 236.609 376.64C236.817 376.8 237.057 376.92 237.329 377C237.601 377.088 237.889 377.132 238.193 377.132C238.673 377.132 239.081 377.044 239.417 376.868C239.753 376.692 240.029 376.476 240.245 376.22V377H241.685ZM240.281 374.708C240.281 374.908 240.237 375.092 240.149 375.26C240.069 375.42 239.953 375.56 239.801 375.68C239.649 375.792 239.469 375.88 239.261 375.944C239.061 376.008 238.841 376.04 238.601 376.04C238.257 376.04 237.965 375.96 237.725 375.8C237.493 375.64 237.377 375.408 237.377 375.104V375.08C237.377 374.752 237.505 374.5 237.761 374.324C238.017 374.148 238.373 374.06 238.829 374.06C239.109 374.06 239.373 374.084 239.621 374.132C239.877 374.18 240.097 374.24 240.281 374.312V374.708Z" fill="white"/>
<path d="M245.105 371.912H246.809V370.664H245.105V368.924H243.653V370.664H242.849V371.912H243.653V375.248C243.653 375.6 243.697 375.896 243.785 376.136C243.873 376.368 243.997 376.556 244.157 376.7C244.325 376.844 244.521 376.948 244.745 377.012C244.969 377.076 245.213 377.108 245.477 377.108C245.749 377.108 245.989 377.08 246.197 377.024C246.405 376.968 246.601 376.888 246.785 376.784V375.596C246.497 375.74 246.197 375.812 245.885 375.812C245.637 375.812 245.445 375.752 245.309 375.632C245.173 375.504 245.105 375.3 245.105 375.02V371.912Z" fill="white"/>
<path d="M259.349 375.656L258.401 374.696C258.041 375.032 257.677 375.3 257.309 375.5C256.941 375.692 256.501 375.788 255.989 375.788C255.589 375.788 255.217 375.712 254.873 375.56C254.537 375.4 254.245 375.184 253.997 374.912C253.749 374.64 253.557 374.324 253.421 373.964C253.285 373.596 253.217 373.204 253.217 372.788C253.217 372.372 253.285 371.984 253.421 371.624C253.557 371.264 253.749 370.952 253.997 370.688C254.245 370.416 254.537 370.204 254.873 370.052C255.217 369.892 255.589 369.812 255.989 369.812C256.469 369.812 256.897 369.908 257.273 370.1C257.649 370.292 258.005 370.544 258.341 370.856L259.289 369.764C259.089 369.572 258.877 369.396 258.653 369.236C258.429 369.076 258.185 368.94 257.921 368.828C257.657 368.708 257.365 368.616 257.045 368.552C256.733 368.488 256.385 368.456 256.001 368.456C255.361 368.456 254.777 368.572 254.249 368.804C253.721 369.028 253.265 369.34 252.881 369.74C252.497 370.132 252.197 370.592 251.981 371.12C251.773 371.648 251.669 372.212 251.669 372.812C251.669 373.42 251.777 373.988 251.993 374.516C252.209 375.044 252.505 375.504 252.881 375.896C253.265 376.28 253.717 376.584 254.237 376.808C254.757 377.032 255.325 377.144 255.941 377.144C256.333 377.144 256.689 377.108 257.009 377.036C257.337 376.972 257.637 376.876 257.909 376.748C258.181 376.612 258.433 376.456 258.665 376.28C258.905 376.096 259.133 375.888 259.349 375.656Z" fill="white"/>
<path d="M267.023 373.832C267.023 373.376 266.939 372.948 266.771 372.548C266.603 372.148 266.367 371.8 266.063 371.504C265.767 371.2 265.411 370.964 264.995 370.796C264.587 370.62 264.139 370.532 263.651 370.532C263.163 370.532 262.711 370.62 262.295 370.796C261.887 370.972 261.531 371.212 261.227 371.516C260.931 371.812 260.695 372.164 260.519 372.572C260.351 372.972 260.267 373.4 260.267 373.856C260.267 374.312 260.351 374.74 260.519 375.14C260.687 375.532 260.919 375.88 261.215 376.184C261.519 376.48 261.875 376.716 262.283 376.892C262.699 377.06 263.147 377.144 263.627 377.144C264.115 377.144 264.567 377.056 264.983 376.88C265.399 376.704 265.755 376.468 266.051 376.172C266.355 375.868 266.591 375.516 266.759 375.116C266.935 374.716 267.023 374.288 267.023 373.832ZM265.571 373.856C265.571 374.136 265.527 374.4 265.439 374.648C265.351 374.888 265.223 375.1 265.055 375.284C264.887 375.468 264.683 375.616 264.443 375.728C264.211 375.832 263.947 375.884 263.651 375.884C263.371 375.884 263.111 375.832 262.871 375.728C262.639 375.616 262.435 375.468 262.259 375.284C262.091 375.1 261.959 374.884 261.863 374.636C261.767 374.38 261.719 374.112 261.719 373.832C261.719 373.552 261.763 373.292 261.851 373.052C261.939 372.804 262.067 372.588 262.235 372.404C262.403 372.22 262.603 372.076 262.835 371.972C263.075 371.86 263.339 371.804 263.627 371.804C263.915 371.804 264.175 371.86 264.407 371.972C264.647 372.076 264.851 372.224 265.019 372.416C265.195 372.6 265.331 372.816 265.427 373.064C265.523 373.312 265.571 373.576 265.571 373.856Z" fill="white"/>
<path d="M269.953 373.424C269.953 372.928 270.085 372.544 270.349 372.272C270.613 371.992 270.957 371.852 271.381 371.852C271.813 371.852 272.145 371.988 272.377 372.26C272.617 372.524 272.737 372.904 272.737 373.4V377H274.189V372.968C274.189 372.224 273.993 371.632 273.601 371.192C273.209 370.752 272.653 370.532 271.933 370.532C271.685 370.532 271.461 370.564 271.261 370.628C271.069 370.684 270.889 370.764 270.721 370.868C270.561 370.972 270.417 371.092 270.289 371.228C270.169 371.356 270.057 371.496 269.953 371.648V370.664H268.501V377H269.953V373.424Z" fill="white"/>
<path d="M282.171 377V368.24H280.719V371.648C280.487 371.352 280.199 371.092 279.855 370.868C279.511 370.644 279.079 370.532 278.559 370.532C278.183 370.532 277.815 370.604 277.455 370.748C277.103 370.892 276.791 371.108 276.519 371.396C276.247 371.676 276.027 372.02 275.859 372.428C275.699 372.836 275.619 373.304 275.619 373.832C275.619 374.36 275.703 374.828 275.871 375.236C276.039 375.644 276.259 375.992 276.531 376.28C276.803 376.56 277.115 376.772 277.467 376.916C277.819 377.06 278.183 377.132 278.559 377.132C279.071 377.132 279.499 377.016 279.843 376.784C280.195 376.552 280.487 376.272 280.719 375.944V377H282.171ZM280.743 373.832C280.743 374.144 280.691 374.424 280.587 374.672C280.491 374.92 280.359 375.136 280.191 375.32C280.023 375.496 279.827 375.632 279.603 375.728C279.379 375.824 279.147 375.872 278.907 375.872C278.659 375.872 278.423 375.824 278.199 375.728C277.983 375.632 277.791 375.496 277.623 375.32C277.455 375.144 277.323 374.932 277.227 374.684C277.131 374.428 277.083 374.144 277.083 373.832C277.083 373.512 277.131 373.228 277.227 372.98C277.323 372.724 277.455 372.508 277.623 372.332C277.791 372.156 277.983 372.024 278.199 371.936C278.423 371.84 278.659 371.792 278.907 371.792C279.147 371.792 279.379 371.84 279.603 371.936C279.827 372.032 280.023 372.172 280.191 372.356C280.359 372.532 280.491 372.744 280.587 372.992C280.691 373.24 280.743 373.52 280.743 373.832Z" fill="white"/>
<path d="M285.566 369.692V368.312H284.006V369.692H285.566ZM285.518 377V370.664H284.066V377H285.518Z" fill="white"/>
<path d="M289.168 371.912H290.872V370.664H289.168V368.924H287.716V370.664H286.912V371.912H287.716V375.248C287.716 375.6 287.76 375.896 287.848 376.136C287.936 376.368 288.06 376.556 288.22 376.7C288.388 376.844 288.584 376.948 288.808 377.012C289.032 377.076 289.276 377.108 289.54 377.108C289.812 377.108 290.052 377.08 290.26 377.024C290.468 376.968 290.664 376.888 290.848 376.784V375.596C290.56 375.74 290.26 375.812 289.948 375.812C289.7 375.812 289.508 375.752 289.372 375.632C289.236 375.504 289.168 375.3 289.168 375.02V371.912Z" fill="white"/>
<path d="M293.921 369.692V368.312H292.361V369.692H293.921ZM293.873 377V370.664H292.421V377H293.873Z" fill="white"/>
<path d="M302.179 373.832C302.179 373.376 302.095 372.948 301.927 372.548C301.759 372.148 301.523 371.8 301.219 371.504C300.923 371.2 300.567 370.964 300.151 370.796C299.743 370.62 299.295 370.532 298.807 370.532C298.319 370.532 297.867 370.62 297.451 370.796C297.043 370.972 296.687 371.212 296.383 371.516C296.087 371.812 295.851 372.164 295.675 372.572C295.507 372.972 295.423 373.4 295.423 373.856C295.423 374.312 295.507 374.74 295.675 375.14C295.843 375.532 296.075 375.88 296.371 376.184C296.675 376.48 297.031 376.716 297.439 376.892C297.855 377.06 298.303 377.144 298.783 377.144C299.271 377.144 299.723 377.056 300.139 376.88C300.555 376.704 300.911 376.468 301.207 376.172C301.511 375.868 301.747 375.516 301.915 375.116C302.091 374.716 302.179 374.288 302.179 373.832ZM300.727 373.856C300.727 374.136 300.683 374.4 300.595 374.648C300.507 374.888 300.379 375.1 300.211 375.284C300.043 375.468 299.839 375.616 299.599 375.728C299.367 375.832 299.103 375.884 298.807 375.884C298.527 375.884 298.267 375.832 298.027 375.728C297.795 375.616 297.591 375.468 297.415 375.284C297.247 375.1 297.115 374.884 297.019 374.636C296.923 374.38 296.875 374.112 296.875 373.832C296.875 373.552 296.919 373.292 297.007 373.052C297.095 372.804 297.223 372.588 297.391 372.404C297.559 372.22 297.759 372.076 297.991 371.972C298.231 371.86 298.495 371.804 298.783 371.804C299.071 371.804 299.331 371.86 299.563 371.972C299.803 372.076 300.007 372.224 300.175 372.416C300.351 372.6 300.487 372.816 300.583 373.064C300.679 373.312 300.727 373.576 300.727 373.856Z" fill="white"/>
<path d="M305.11 373.424C305.11 372.928 305.242 372.544 305.506 372.272C305.77 371.992 306.114 371.852 306.538 371.852C306.97 371.852 307.302 371.988 307.534 372.26C307.774 372.524 307.894 372.904 307.894 373.4V377H309.346V372.968C309.346 372.224 309.15 371.632 308.758 371.192C308.366 370.752 307.81 370.532 307.09 370.532C306.842 370.532 306.618 370.564 306.418 370.628C306.226 370.684 306.046 370.764 305.878 370.868C305.718 370.972 305.574 371.092 305.446 371.228C305.326 371.356 305.214 371.496 305.11 371.648V370.664H303.658V377H305.11V373.424Z" fill="white"/>
</g>
</g>
<defs>
<filter id="filter0_d" x="0" y="0" width="543" height="427" filterUnits="userSpaceOnUse" color-interpolation-filters="sRGB">
<feFlood flood-opacity="0" result="BackgroundImageFix"/>
<feColorMatrix in="SourceAlpha" type="matrix" values="0 0 0 0 0 0 0 0 0 0 0 0 0 0 0 0 0 0 127 0"/>
<feOffset dx="10" dy="5"/>
<feGaussianBlur stdDeviation="10"/>
<feColorMatrix type="matrix" values="0 0 0 0 0 0 0 0 0 0 0 0 0 0 0 0 0 0 0.05 0"/>
<feBlend mode="normal" in2="BackgroundImageFix" result="effect1_dropShadow"/>
<feBlend mode="normal" in="SourceGraphic" in2="effect1_dropShadow" result="shape"/>
</filter>
<filter id="filter1_d" x="0" y="0" width="428.223" height="387" filterUnits="userSpaceOnUse" color-interpolation-filters="sRGB">
<feFlood flood-opacity="0" result="BackgroundImageFix"/>
<feColorMatrix in="SourceAlpha" type="matrix" values="0 0 0 0 0 0 0 0 0 0 0 0 0 0 0 0 0 0 127 0"/>
<feOffset dx="10" dy="5"/>
<feGaussianBlur stdDeviation="10"/>
<feColorMatrix type="matrix" values="0 0 0 0 0 0 0 0 0 0 0 0 0 0 0 0 0 0 0.05 0"/>
<feBlend mode="normal" in2="BackgroundImageFix" result="effect1_dropShadow"/>
<feBlend mode="normal" in="SourceGraphic" in2="effect1_dropShadow" result="shape"/>
</filter>
<filter id="filter2_d" x="127" y="259" width="416" height="168" filterUnits="userSpaceOnUse" color-interpolation-filters="sRGB">
<feFlood flood-opacity="0" result="BackgroundImageFix"/>
<feColorMatrix in="SourceAlpha" type="matrix" values="0 0 0 0 0 0 0 0 0 0 0 0 0 0 0 0 0 0 127 0"/>
<feOffset dx="10" dy="5"/>
<feGaussianBlur stdDeviation="10"/>
<feColorMatrix type="matrix" values="0 0 0 0 0 0 0 0 0 0 0 0 0 0 0 0 0 0 0.05 0"/>
<feBlend mode="normal" in2="BackgroundImageFix" result="effect1_dropShadow"/>
<feBlend mode="normal" in="SourceGraphic" in2="effect1_dropShadow" result="shape"/>
</filter>
</defs>
</svg>
