<svg width="23" height="21" viewBox="0 0 23 21" fill="none" xmlns="http://www.w3.org/2000/svg">
<g clip-path="url(#clip0)">
<path d="M0.741256 5.54206C0.733062 5.58157 0.728444 5.62161 0.726954 5.66166V6.48416C0.728146 6.82313 0.965456 7.12615 1.32343 7.24522V8.45546C1.32507 8.86064 1.68424 9.19366 2.14038 9.21282V16.2045C1.68424 16.2238 1.32507 16.5569 1.32343 16.9619V18.1686C0.964711 18.2908 0.72755 18.5961 0.726954 18.9368V19.7413C0.726954 19.8913 0.864305 20.013 1.03339 20.013H21.6944C21.8635 20.013 22.0007 19.8913 22.0007 19.7413V18.9368C22.0001 18.5959 21.7629 18.2907 21.4043 18.1686V16.9548C21.4027 16.5496 21.0434 16.2166 20.5874 16.1974V9.21282C21.0434 9.19366 21.4027 8.86064 21.4043 8.45546V7.24522C21.7622 7.12615 21.9995 6.82313 22.0007 6.48416V5.66707C21.9993 5.62703 21.9945 5.58699 21.9864 5.54748C22.1404 5.608 22.3205 5.54642 22.3887 5.40978C22.457 5.27326 22.3875 5.11349 22.2336 5.05284L11.5048 0.0505229C11.4153 0.00863103 11.3083 0.00863103 11.2188 0.0505229L0.490092 5.04742C0.340376 5.11759 0.283023 5.28185 0.361828 5.41467C0.43393 5.53598 0.596605 5.59069 0.741256 5.54206ZM1.93615 7.71621V7.29769H5.46942V7.71264L1.93615 7.71621ZM9.80342 9.21467V16.2045C9.34727 16.2238 8.9881 16.5569 8.98646 16.9619V18.1178H6.07797V16.9619C6.07633 16.5569 5.71716 16.2238 5.26101 16.2045V9.21282C5.71716 9.19366 6.07633 8.86064 6.07797 8.45546V7.29769H8.98229V8.45374C8.98304 8.85958 9.3425 9.19339 9.79939 9.21282L9.80342 9.21467ZM9.59918 7.71621V7.29769H13.1326V7.71264L9.59918 7.71621ZM17.4666 9.21467V16.2045C17.0105 16.2238 16.6511 16.5569 16.6495 16.9619V18.1178H13.7411V16.9619C13.7395 16.5569 13.3802 16.2238 12.9242 16.2045V9.21282C13.3802 9.19366 13.7395 8.86064 13.7411 8.45546V7.29769H16.6455V8.45374C16.6461 8.85958 17.0055 9.19339 17.4624 9.21282L17.4666 9.21467ZM17.2624 7.71621V7.29769H20.7956V7.71264L17.2624 7.71621ZM20.7956 17.703V18.1178H17.2582V17.703H20.7956ZM13.1326 17.703V18.1178H9.59516V17.703H13.1326ZM10.1057 8.6747H9.84021C9.7048 8.6747 9.59516 8.57744 9.59516 8.45731V8.25975H13.1284V8.45731C13.1284 8.57744 13.0188 8.6747 12.8834 8.6747H10.1057ZM12.3136 9.21824V16.201H10.4121V9.21824H12.3136ZM10.1057 16.7445H12.8834C13.0188 16.7445 13.1284 16.8418 13.1284 16.9619V17.1595H9.59516V16.9619C9.59516 16.8418 9.7048 16.7445 9.84021 16.7445H10.1057ZM5.4654 17.703V18.1178H1.93198V17.703H5.4654ZM1.93198 8.46273V8.25975H5.4654V8.45731C5.4654 8.57744 5.35576 8.6747 5.2202 8.6747H2.17092C2.03715 8.67179 1.93078 8.57413 1.93198 8.45546V8.46273ZM4.64845 9.22366V16.201H2.74893V9.21824L4.64845 9.22366ZM1.93198 16.9674C1.93198 16.8472 2.04162 16.7499 2.17703 16.7499H5.2202C5.35576 16.7499 5.4654 16.8472 5.4654 16.9674V17.1649H1.93198V16.9674ZM21.3879 18.9477V19.4803H1.33565V18.9477C1.33565 18.7926 1.47732 18.6668 1.65221 18.6668H21.0714C21.2437 18.6668 21.3847 18.7893 21.3879 18.9422V18.9477ZM20.7916 16.9674V17.1649H17.2582V16.9674C17.2582 16.8472 17.3678 16.7499 17.5032 16.7499H20.5527C20.6833 16.7528 20.7883 16.846 20.7916 16.9619V16.9674ZM18.0751 16.2064V9.21824H19.9766V16.201L18.0751 16.2064ZM20.7916 8.46273C20.7916 8.58286 20.682 8.68012 20.5466 8.68012H17.5053C17.3699 8.68012 17.2603 8.58286 17.2603 8.46273V8.25975H20.7936L20.7916 8.46273ZM11.3618 0.59406L20.4852 4.84813H2.23841L11.3618 0.59406ZM1.33565 5.66707C1.33565 5.51708 1.47285 5.39537 1.64193 5.39537H21.0817C21.2507 5.39537 21.3879 5.51708 21.3879 5.66707V6.48972C21.3879 6.63971 21.2507 6.76142 21.0817 6.76142H1.64193C1.47285 6.76142 1.33565 6.63971 1.33565 6.48972V5.66707Z" fill="white"/>
</g>
<defs>
<clipPath id="clip0">
<rect width="22.5455" height="20" fill="white" transform="translate(0.0908203 0.019043)"/>
</clipPath>
</defs>
</svg>
