<svg width="629" height="363" viewBox="0 0 629 363" fill="none" xmlns="http://www.w3.org/2000/svg">
<path d="M314.5 363C488.194 363 629 281.74 629 181.5C629 81.2603 488.194 0 314.5 0C140.806 0 0 81.2603 0 181.5C0 281.74 140.806 363 314.5 363Z" fill="#F5F5F5"/>
<path d="M322.756 239.778V121.042L387.639 180.41L364.606 205.065L425.921 263.46V145.697L577.099 293.955H425.921H348.061L322.756 239.778Z" fill="white"/>
<path d="M168.01 237.182V179.112L251.06 260.216V293.955H185.204L175.471 248.213L168.01 237.182Z" fill="white"/>
<path d="M90.7988 248.861L168.334 171.325L245.221 248.861" stroke="#C4C4C4" stroke-width="3"/>
<path d="M218.293 217.068L319.835 113.903L386.989 180.409M363.307 202.469L424.946 141.803L562.499 280.653" stroke="#C4C4C4" stroke-width="3"/>
<path d="M82.0392 268.975V280.005M82.0392 293.955V280.005M75.5508 273.841C76.3078 275.68 78.6652 279.486 82.0392 280.005M65.8184 278.708L82.688 231.019L96.9623 278.708C91.8798 285.412 78.5355 294.799 65.8184 278.708Z" stroke="#C4C4C4" stroke-width="3"/>
<path d="M184.758 258.469V275.65M184.758 297.379V275.65M178.27 266.049C179.027 268.912 181.384 274.842 184.758 275.65M168.537 273.629L185.407 199.346L199.681 273.629C194.599 284.072 181.254 298.693 168.537 273.629Z" stroke="#C4C4C4" stroke-width="3"/>
<path d="M475.799 258.469V275.65M475.799 297.379V275.65M469.311 266.049C470.068 268.912 472.425 274.842 475.799 275.65M459.578 273.629L476.448 199.346L490.722 273.629C485.64 284.072 472.295 298.693 459.578 273.629Z" stroke="#C4C4C4" stroke-width="3"/>
<path d="M547.9 270.072V280.761M547.9 294.279V280.761M541.412 274.788C542.169 276.569 544.527 280.258 547.9 280.761M531.68 279.503L548.549 233.289L562.824 279.503C557.741 286.001 544.397 295.097 531.68 279.503Z" stroke="#C4C4C4" stroke-width="3"/>
<path d="M252.033 271.246V282.276M252.033 296.226V282.276M245.545 276.112C246.302 277.95 248.659 281.757 252.033 282.276M235.812 280.978L252.682 233.289L266.956 280.978C261.874 287.683 248.53 297.069 235.812 280.978Z" stroke="#C4C4C4" stroke-width="3"/>
<path fill-rule="evenodd" clip-rule="evenodd" d="M301.311 225.469L299.993 221.069L298.46 225.399L280.185 277.021L279.908 277.802L280.422 278.452C286.13 285.669 292.107 288.488 297.671 288.634V294.027H300.671V288.457C301.077 288.398 301.48 288.327 301.879 288.243C308.377 286.873 313.65 282.229 316.533 278.428L316.994 277.821L316.775 277.091L301.311 225.469ZM301.261 285.307C301.066 285.348 300.869 285.386 300.671 285.42V278.926V273.83L305.367 269.134L303.246 267.012L300.671 269.587V262.558H297.671V276.798C296.976 276.385 296.319 275.809 295.715 275.13C294.643 273.922 293.884 272.543 293.529 271.682L290.755 272.826C291.221 273.955 292.149 275.631 293.472 277.122C294.533 278.317 295.944 279.498 297.671 280.093V285.631C293.252 285.49 288.305 283.304 283.293 277.232L299.755 230.73L313.678 277.207C310.985 280.523 306.498 284.203 301.261 285.307Z" fill="#C4C4C4"/>
<line x1="34.0254" y1="294.726" x2="593.968" y2="294.726" stroke="#C4C4C4" stroke-width="3"/>
<path d="M425.918 50.3187C424.787 67.1845 443.22 98.3323 455.764 112.282H479.447C514.159 76.9209 513.51 50.3187 512.862 50.3187C507.671 10.4155 470.363 10.4155 470.363 10.7399C431.758 11.3888 424.945 49.021 425.918 50.3187Z" stroke="#C4C4C4" stroke-width="3"/>
<path d="M456 131V112H479V131H456Z" stroke="#C4C4C4" stroke-width="2"/>
<line x1="457" y1="117" x2="479" y2="117" stroke="#C4C4C4" stroke-width="2"/>
<line x1="457" y1="125" x2="479" y2="125" stroke="#C4C4C4" stroke-width="2"/>
<line x1="426.066" y1="49.4204" x2="512.856" y2="49.053" stroke="#C4C4C4" stroke-width="3"/>
<path d="M429.811 69.4585H508.644" stroke="#C4C4C4" stroke-width="3"/>
<line x1="63.2246" y1="311.596" x2="103.452" y2="311.596" stroke="#C4C4C4" stroke-width="3"/>
<line x1="53.4922" y1="331.062" x2="70.3618" y2="331.062" stroke="#C4C4C4" stroke-width="3"/>
<line x1="81.3906" y1="349.877" x2="115.13" y2="349.877" stroke="#C4C4C4" stroke-width="3"/>
<line x1="141.084" y1="349.877" x2="181.312" y2="349.877" stroke="#C4C4C4" stroke-width="3"/>
<line x1="192.99" y1="349.877" x2="209.86" y2="349.877" stroke="#C4C4C4" stroke-width="3"/>
<line x1="230.623" y1="349.877" x2="263.714" y2="349.877" stroke="#C4C4C4" stroke-width="3"/>
<line x1="202.723" y1="330.412" x2="268.255" y2="330.412" stroke="#C4C4C4" stroke-width="3"/>
<line x1="183.258" y1="312.245" x2="215.699" y2="312.245" stroke="#C4C4C4" stroke-width="3"/>
<line x1="261.117" y1="312.245" x2="311.077" y2="312.245" stroke="#C4C4C4" stroke-width="3"/>
<line x1="277.338" y1="329.763" x2="285.773" y2="329.763" stroke="#C4C4C4" stroke-width="3"/>
<line x1="305.887" y1="329.763" x2="322.108" y2="329.763" stroke="#C4C4C4" stroke-width="3"/>
<line x1="331.842" y1="329.763" x2="420.732" y2="329.763" stroke="#C4C4C4" stroke-width="3"/>
<line x1="341.574" y1="311.596" x2="375.962" y2="311.596" stroke="#C4C4C4" stroke-width="3"/>
<line x1="384.398" y1="311.596" x2="392.833" y2="311.596" stroke="#C4C4C4" stroke-width="3"/>
<line x1="477.18" y1="311.596" x2="509.621" y2="311.596" stroke="#C4C4C4" stroke-width="3"/>
<line x1="535.576" y1="311.596" x2="553.095" y2="311.596" stroke="#C4C4C4" stroke-width="3"/>
<line x1="569.312" y1="331.062" x2="577.747" y2="331.062" stroke="#C4C4C4" stroke-width="3"/>
<line x1="460.959" y1="331.062" x2="484.966" y2="331.062" stroke="#C4C4C4" stroke-width="3"/>
<line x1="494.695" y1="331.062" x2="560.227" y2="331.062" stroke="#C4C4C4" stroke-width="3"/>
<line x1="507.676" y1="349.877" x2="547.903" y2="349.877" stroke="#C4C4C4" stroke-width="3"/>
<line x1="442.143" y1="349.877" x2="456.417" y2="349.877" stroke="#C4C4C4" stroke-width="3"/>
<line x1="390.234" y1="349.877" x2="430.462" y2="349.877" stroke="#C4C4C4" stroke-width="3"/>
<line x1="298.75" y1="349.877" x2="364.931" y2="349.877" stroke="#C4C4C4" stroke-width="3"/>
<line x1="94.3691" y1="331.062" x2="159.252" y2="331.062" stroke="#C4C4C4" stroke-width="3"/>
<line x1="115.129" y1="311.596" x2="131.35" y2="311.596" stroke="#C4C4C4" stroke-width="3"/>
<mask id="path-43-inside-1" fill="white">
<path fill-rule="evenodd" clip-rule="evenodd" d="M344.716 76.921C344.749 76.9212 344.783 76.9213 344.816 76.9213C344.85 76.9213 344.883 76.9212 344.916 76.921H379.753C379.786 76.9212 379.82 76.9213 379.853 76.9213C379.887 76.9213 379.92 76.9212 379.953 76.921H381.15V76.8681C389.143 76.209 395.425 69.5128 395.425 61.3494C395.425 52.7492 388.453 45.7774 379.853 45.7774C378.031 45.7774 376.282 46.0903 374.657 46.6652C374.44 37.896 367.263 30.854 358.442 30.854C349.849 30.854 342.817 37.5356 342.257 45.9867C334.874 47.2074 329.244 53.6209 329.244 61.3494C329.244 69.5123 335.525 76.2082 343.518 76.868V76.921H344.716Z"/>
</mask>
<path fill-rule="evenodd" clip-rule="evenodd" d="M344.716 76.921C344.749 76.9212 344.783 76.9213 344.816 76.9213C344.85 76.9213 344.883 76.9212 344.916 76.921H379.753C379.786 76.9212 379.82 76.9213 379.853 76.9213C379.887 76.9213 379.92 76.9212 379.953 76.921H381.15V76.8681C389.143 76.209 395.425 69.5128 395.425 61.3494C395.425 52.7492 388.453 45.7774 379.853 45.7774C378.031 45.7774 376.282 46.0903 374.657 46.6652C374.44 37.896 367.263 30.854 358.442 30.854C349.849 30.854 342.817 37.5356 342.257 45.9867C334.874 47.2074 329.244 53.6209 329.244 61.3494C329.244 69.5123 335.525 76.2082 343.518 76.868V76.921H344.716Z" fill="white"/>
<path d="M344.716 76.921L344.741 72.9211L344.728 72.921H344.716V76.921ZM344.916 76.921V72.921H344.904L344.891 72.9211L344.916 76.921ZM379.753 76.921L379.778 72.9211L379.765 72.921H379.753V76.921ZM379.953 76.921V72.921H379.941L379.928 72.9211L379.953 76.921ZM381.15 76.921V80.921H385.15V76.921H381.15ZM381.15 76.8681L380.821 72.8816L377.15 73.1843V76.8681H381.15ZM374.657 46.6652L370.659 46.7643L370.795 52.2748L375.992 50.4361L374.657 46.6652ZM342.257 45.9867L342.909 49.9331L346.038 49.4157L346.248 46.251L342.257 45.9867ZM343.518 76.868H347.518V73.1845L343.847 72.8815L343.518 76.868ZM343.518 76.921H339.518V80.921H343.518V76.921ZM344.691 80.9209C344.732 80.9212 344.774 80.9213 344.816 80.9213V72.9213C344.791 72.9213 344.766 72.9213 344.741 72.9211L344.691 80.9209ZM344.816 80.9213C344.858 80.9213 344.9 80.9212 344.942 80.9209L344.891 72.9211C344.866 72.9213 344.841 72.9213 344.816 72.9213V80.9213ZM379.753 72.921H344.916V80.921H379.753V72.921ZM379.728 80.9209C379.769 80.9212 379.811 80.9213 379.853 80.9213V72.9213C379.828 72.9213 379.803 72.9213 379.778 72.9211L379.728 80.9209ZM379.853 80.9213C379.895 80.9213 379.937 80.9212 379.979 80.9209L379.928 72.9211C379.903 72.9213 379.878 72.9213 379.853 72.9213V80.9213ZM381.15 72.921H379.953V80.921H381.15V72.921ZM377.15 76.8681V76.921H385.15V76.8681H377.15ZM381.479 80.8546C391.529 80.0258 399.425 71.6117 399.425 61.3494H391.425C391.425 67.4138 386.757 72.3922 380.821 72.8816L381.479 80.8546ZM399.425 61.3494C399.425 50.5401 390.662 41.7774 379.853 41.7774V49.7774C386.244 49.7774 391.425 54.9583 391.425 61.3494H399.425ZM379.853 41.7774C377.57 41.7774 375.371 42.1698 373.323 42.8943L375.992 50.4361C377.194 50.0107 378.492 49.7774 379.853 49.7774V41.7774ZM378.656 46.5661C378.385 35.6324 369.439 26.854 358.442 26.854V34.854C365.087 34.854 370.495 40.1595 370.659 46.7643L378.656 46.5661ZM358.442 26.854C347.728 26.854 338.964 35.1833 338.266 45.7223L346.248 46.251C346.67 39.8878 351.969 34.854 358.442 34.854V26.854ZM341.604 42.0403C332.322 43.5751 325.244 51.6317 325.244 61.3494H333.244C333.244 55.61 337.426 50.8397 342.909 49.9331L341.604 42.0403ZM325.244 61.3494C325.244 71.6111 333.139 80.0249 343.189 80.8544L343.847 72.8815C337.911 72.3916 333.244 67.4135 333.244 61.3494H325.244ZM347.518 76.921V76.868H339.518V76.921H347.518ZM344.716 72.921H343.518V80.921H344.716V72.921Z" fill="#C4C4C4" mask="url(#path-43-inside-1)"/>
<mask id="path-45-inside-2" fill="white">
<path fill-rule="evenodd" clip-rule="evenodd" d="M263.578 127.529C263.608 127.529 263.637 127.53 263.667 127.53C263.696 127.53 263.726 127.529 263.755 127.529H291.212C291.242 127.529 291.271 127.53 291.301 127.53C291.33 127.53 291.36 127.529 291.389 127.529H292.324V127.488C298.628 126.968 303.583 121.686 303.583 115.247C303.583 108.464 298.084 102.965 291.301 102.965C289.864 102.965 288.484 103.212 287.203 103.666C287.031 96.7491 281.371 91.1948 274.413 91.1948C267.635 91.1948 262.089 96.4648 261.647 103.131C255.825 104.094 251.385 109.152 251.385 115.247C251.385 121.686 256.338 126.967 262.642 127.487V127.529H263.578Z"/>
</mask>
<path fill-rule="evenodd" clip-rule="evenodd" d="M263.578 127.529C263.608 127.529 263.637 127.53 263.667 127.53C263.696 127.53 263.726 127.529 263.755 127.529H291.212C291.242 127.529 291.271 127.53 291.301 127.53C291.33 127.53 291.36 127.529 291.389 127.529H292.324V127.488C298.628 126.968 303.583 121.686 303.583 115.247C303.583 108.464 298.084 102.965 291.301 102.965C289.864 102.965 288.484 103.212 287.203 103.666C287.031 96.7491 281.371 91.1948 274.413 91.1948C267.635 91.1948 262.089 96.4648 261.647 103.131C255.825 104.094 251.385 109.152 251.385 115.247C251.385 121.686 256.338 126.967 262.642 127.487V127.529H263.578Z" fill="white"/>
<path d="M263.578 127.529L263.607 123.529L263.593 123.529H263.578V127.529ZM263.755 127.529V123.529H263.741L263.727 123.529L263.755 127.529ZM291.212 127.529L291.241 123.529L291.226 123.529H291.212V127.529ZM291.389 127.529V123.529H291.375L291.361 123.529L291.389 127.529ZM292.324 127.529V131.529H296.324V127.529H292.324ZM292.324 127.488L291.995 123.501L288.324 123.804V127.488H292.324ZM287.203 103.666L283.204 103.765L283.341 109.275L288.537 107.437L287.203 103.666ZM261.647 103.131L262.3 107.077L265.429 106.559L265.639 103.395L261.647 103.131ZM262.642 127.487H266.642V123.804L262.971 123.501L262.642 127.487ZM262.642 127.529H258.642V131.529H262.642V127.529ZM263.55 131.529C263.589 131.529 263.628 131.53 263.667 131.53V123.53C263.647 123.53 263.627 123.53 263.607 123.529L263.55 131.529ZM263.667 131.53C263.706 131.53 263.745 131.529 263.784 131.529L263.727 123.529C263.707 123.53 263.687 123.53 263.667 123.53V131.53ZM291.212 123.529H263.755V131.529H291.212V123.529ZM291.184 131.529C291.223 131.529 291.262 131.53 291.301 131.53V123.53C291.281 123.53 291.261 123.53 291.241 123.529L291.184 131.529ZM291.301 131.53C291.34 131.53 291.379 131.529 291.418 131.529L291.361 123.529C291.341 123.53 291.321 123.53 291.301 123.53V131.53ZM292.324 123.529H291.389V131.529H292.324V123.529ZM288.324 127.488V127.529H296.324V127.488H288.324ZM292.652 131.474C301.014 130.785 307.583 123.785 307.583 115.247H299.583C299.583 119.587 296.242 123.151 291.995 123.501L292.652 131.474ZM307.583 115.247C307.583 106.255 300.293 98.9653 291.301 98.9653V106.965C295.875 106.965 299.583 110.673 299.583 115.247H307.583ZM291.301 98.9653C289.403 98.9653 287.573 99.2917 285.868 99.8948L288.537 107.437C289.396 107.133 290.325 106.965 291.301 106.965V98.9653ZM291.202 103.567C290.976 94.4855 283.547 87.1948 274.413 87.1948V95.1948C279.195 95.1948 283.086 99.0126 283.204 103.765L291.202 103.567ZM274.413 87.1948C265.515 87.1948 258.236 94.1126 257.656 102.866L265.639 103.395C265.942 98.8171 269.756 95.1948 274.413 95.1948V87.1948ZM260.994 99.1842C253.273 100.462 247.385 107.163 247.385 115.247H255.385C255.385 111.141 258.377 107.726 262.3 107.077L260.994 99.1842ZM247.385 115.247C247.385 123.784 253.952 130.783 262.313 131.474L262.971 123.501C258.725 123.15 255.385 119.587 255.385 115.247H247.385ZM266.642 127.529V127.487H258.642V127.529H266.642ZM263.578 123.529H262.642V131.529H263.578V123.529Z" fill="#C4C4C4" mask="url(#path-45-inside-2)"/>
<mask id="path-47-inside-3" fill="white">
<path fill-rule="evenodd" clip-rule="evenodd" d="M535.44 132.072C535.469 132.072 535.499 132.072 535.528 132.072C535.558 132.072 535.587 132.072 535.617 132.072H563.074C563.103 132.072 563.133 132.072 563.162 132.072C563.192 132.072 563.221 132.072 563.251 132.072H564.185V132.03C570.49 131.51 575.444 126.229 575.444 119.79C575.444 113.007 569.945 107.508 563.162 107.508C561.725 107.508 560.346 107.755 559.064 108.208C558.893 101.292 553.232 95.7373 546.274 95.7373C539.497 95.7373 533.95 101.007 533.509 107.673C527.686 108.636 523.246 113.695 523.246 119.79C523.246 126.228 528.2 131.509 534.503 132.03V132.072H535.44Z"/>
</mask>
<path fill-rule="evenodd" clip-rule="evenodd" d="M535.44 132.072C535.469 132.072 535.499 132.072 535.528 132.072C535.558 132.072 535.587 132.072 535.617 132.072H563.074C563.103 132.072 563.133 132.072 563.162 132.072C563.192 132.072 563.221 132.072 563.251 132.072H564.185V132.03C570.49 131.51 575.444 126.229 575.444 119.79C575.444 113.007 569.945 107.508 563.162 107.508C561.725 107.508 560.346 107.755 559.064 108.208C558.893 101.292 553.232 95.7373 546.274 95.7373C539.497 95.7373 533.95 101.007 533.509 107.673C527.686 108.636 523.246 113.695 523.246 119.79C523.246 126.228 528.2 131.509 534.503 132.03V132.072H535.44Z" fill="white"/>
<path d="M535.44 132.072L535.468 128.072L535.454 128.072H535.44V132.072ZM535.617 132.072V128.072H535.603L535.588 128.072L535.617 132.072ZM563.074 132.072L563.102 128.072L563.088 128.072H563.074V132.072ZM563.251 132.072V128.072H563.237L563.222 128.072L563.251 132.072ZM564.185 132.072V136.072H568.185V132.072H564.185ZM564.185 132.03L563.856 128.044L560.185 128.346V132.03H564.185ZM559.064 108.208L555.065 108.307L555.202 113.818L560.398 111.979L559.064 108.208ZM533.509 107.673L534.161 111.619L537.29 111.102L537.5 107.937L533.509 107.673ZM534.503 132.03H538.503V128.347L534.833 128.043L534.503 132.03ZM534.503 132.072H530.503V136.072H534.503V132.072ZM535.411 136.072C535.45 136.072 535.489 136.072 535.528 136.072V128.072C535.508 128.072 535.488 128.072 535.468 128.072L535.411 136.072ZM535.528 136.072C535.567 136.072 535.606 136.072 535.645 136.072L535.588 128.072C535.569 128.072 535.548 128.072 535.528 128.072V136.072ZM563.074 128.072H535.617V136.072H563.074V128.072ZM563.045 136.072C563.084 136.072 563.123 136.072 563.162 136.072V128.072C563.142 128.072 563.122 128.072 563.102 128.072L563.045 136.072ZM563.162 136.072C563.201 136.072 563.24 136.072 563.279 136.072L563.222 128.072C563.202 128.072 563.182 128.072 563.162 128.072V136.072ZM564.185 128.072H563.251V136.072H564.185V128.072ZM560.185 132.03V132.072H568.185V132.03H560.185ZM564.514 136.017C572.876 135.327 579.444 128.328 579.444 119.79H571.444C571.444 124.13 568.104 127.693 563.856 128.044L564.514 136.017ZM579.444 119.79C579.444 110.798 572.155 103.508 563.162 103.508V111.508C567.736 111.508 571.444 115.216 571.444 119.79H579.444ZM563.162 103.508C561.264 103.508 559.434 103.834 557.73 104.437L560.398 111.979C561.258 111.675 562.186 111.508 563.162 111.508V103.508ZM563.063 108.109C562.838 99.028 555.408 91.7373 546.274 91.7373V99.7373C551.056 99.7373 554.948 103.555 555.065 108.307L563.063 108.109ZM546.274 91.7373C537.376 91.7373 530.097 98.6551 529.517 107.409L537.5 107.937C537.803 103.36 541.617 99.7373 546.274 99.7373V91.7373ZM532.856 103.727C525.134 105.004 519.246 111.706 519.246 119.79H527.246C527.246 115.684 530.238 112.268 534.161 111.619L532.856 103.727ZM519.246 119.79C519.246 128.327 525.813 135.326 534.174 136.016L534.833 128.043C530.586 127.693 527.246 124.129 527.246 119.79H519.246ZM538.503 132.072V132.03H530.503V132.072H538.503ZM535.44 128.072H534.503V136.072H535.44V128.072Z" fill="#C4C4C4" mask="url(#path-47-inside-3)"/>
<mask id="path-49-inside-4" fill="white">
<path fill-rule="evenodd" clip-rule="evenodd" d="M108.075 191.115C108.097 191.116 108.119 191.116 108.141 191.116C108.163 191.116 108.185 191.116 108.208 191.115H128.843C128.865 191.116 128.887 191.116 128.91 191.116C128.932 191.116 128.954 191.116 128.976 191.115H129.678V191.086C134.417 190.715 138.141 186.942 138.141 182.343C138.141 177.497 134.008 173.57 128.91 173.57C127.829 173.57 126.792 173.746 125.828 174.07C125.7 169.13 121.445 165.162 116.216 165.162C111.122 165.162 106.953 168.927 106.621 173.688C102.246 174.377 98.9102 177.989 98.9102 182.343C98.9102 186.941 102.633 190.713 107.37 191.085V191.115H108.075Z"/>
</mask>
<path fill-rule="evenodd" clip-rule="evenodd" d="M108.075 191.115C108.097 191.116 108.119 191.116 108.141 191.116C108.163 191.116 108.185 191.116 108.208 191.115H128.843C128.865 191.116 128.887 191.116 128.91 191.116C128.932 191.116 128.954 191.116 128.976 191.115H129.678V191.086C134.417 190.715 138.141 186.942 138.141 182.343C138.141 177.497 134.008 173.57 128.91 173.57C127.829 173.57 126.792 173.746 125.828 174.07C125.7 169.13 121.445 165.162 116.216 165.162C111.122 165.162 106.953 168.927 106.621 173.688C102.246 174.377 98.9102 177.989 98.9102 182.343C98.9102 186.941 102.633 190.713 107.37 191.085V191.115H108.075Z" fill="white"/>
<path d="M108.075 191.115L108.101 187.115L108.088 187.115H108.075V191.115ZM108.208 191.115V187.115H108.194L108.181 187.115L108.208 191.115ZM128.843 191.115L128.87 187.115L128.857 187.115H128.843V191.115ZM128.976 191.115V187.115H128.963L128.949 187.115L128.976 191.115ZM129.678 191.115V195.115H133.678V191.115H129.678ZM129.678 191.086L129.366 187.098L125.678 187.387V191.086H129.678ZM125.828 174.07L121.83 174.174L121.971 179.589L127.104 177.862L125.828 174.07ZM106.621 173.688L107.243 177.639L110.39 177.144L110.612 173.966L106.621 173.688ZM107.37 191.085H111.37V187.387L107.683 187.098L107.37 191.085ZM107.37 191.115H103.37V195.115H107.37V191.115ZM108.048 195.115C108.079 195.116 108.11 195.116 108.141 195.116V187.116C108.128 187.116 108.115 187.116 108.101 187.115L108.048 195.115ZM108.141 195.116C108.172 195.116 108.203 195.116 108.234 195.115L108.181 187.115C108.168 187.116 108.154 187.116 108.141 187.116V195.116ZM128.843 187.115H108.208V195.115H128.843V187.115ZM128.816 195.115C128.847 195.116 128.878 195.116 128.91 195.116V187.116C128.896 187.116 128.883 187.116 128.87 187.115L128.816 195.115ZM128.91 195.116C128.941 195.116 128.972 195.116 129.003 195.115L128.949 187.115C128.936 187.116 128.923 187.116 128.91 187.116V195.116ZM129.678 187.115H128.976V195.115H129.678V187.115ZM125.678 191.086V191.115H133.678V191.086H125.678ZM129.99 195.073C136.621 194.554 142.141 189.214 142.141 182.343H134.141C134.141 184.669 132.212 186.875 129.366 187.098L129.99 195.073ZM142.141 182.343C142.141 175.099 136.023 169.57 128.91 169.57V177.57C131.993 177.57 134.141 179.896 134.141 182.343H142.141ZM128.91 169.57C127.392 169.57 125.924 169.818 124.553 170.279L127.104 177.862C127.66 177.674 128.266 177.57 128.91 177.57V169.57ZM129.827 173.966C129.637 166.681 123.433 161.162 116.216 161.162V169.162C119.458 169.162 121.762 171.578 121.83 174.174L129.827 173.966ZM116.216 161.162C109.181 161.162 103.12 166.396 102.631 173.41L110.612 173.966C110.787 171.457 113.063 169.162 116.216 169.162V161.162ZM105.999 169.737C99.8608 170.703 94.9102 175.842 94.9102 182.343H102.91C102.91 180.137 104.632 178.05 107.243 177.639L105.999 169.737ZM94.9102 182.343C94.9102 189.213 100.427 194.552 107.057 195.073L107.683 187.098C104.838 186.874 102.91 184.669 102.91 182.343H94.9102ZM111.37 191.115V191.085H103.37V191.115H111.37ZM108.075 187.115H107.37V195.115H108.075V187.115Z" fill="#C4C4C4" mask="url(#path-49-inside-4)"/>
<path d="M532.938 139.896H554.998M560.837 139.896H569.272" stroke="#C4C4C4"/>
<path d="M346.074 81.501H368.135M373.974 81.501H382.409" stroke="#C4C4C4"/>
<path d="M366.301 112.931C370.072 112.198 377.741 113.007 379.16 121.791C379.252 122.358 379.172 122.426 379.216 121.853C379.422 119.174 381.511 111.077 392.903 112.931" stroke="#C4C4C4" stroke-width="3"/>
<path d="M366.301 112.931C370.072 112.198 377.741 113.007 379.16 121.791C379.252 122.358 379.172 122.426 379.216 121.853C379.422 119.174 381.511 111.077 392.903 112.931" stroke="#C4C4C4" stroke-width="3"/>
<path d="M212.221 179.699C215.992 178.966 223.661 179.775 225.08 188.558C225.172 189.126 225.091 189.194 225.136 188.621C225.342 185.942 227.431 177.845 238.823 179.699" stroke="#C4C4C4" stroke-width="3"/>
<path d="M212.221 179.699C215.992 178.966 223.661 179.775 225.08 188.558C225.172 189.126 225.091 189.194 225.136 188.621C225.342 185.942 227.431 177.845 238.823 179.699" stroke="#C4C4C4" stroke-width="3"/>
<path d="M546.061 196.819C549.832 196.086 557.501 196.895 558.92 205.678C559.012 206.246 558.931 206.314 558.975 205.741C559.182 203.062 561.271 194.965 572.663 196.819" stroke="#C4C4C4" stroke-width="3"/>
<path d="M546.061 196.819C549.832 196.086 557.501 196.895 558.92 205.678C559.012 206.246 558.931 206.314 558.975 205.741C559.182 203.062 561.271 194.965 572.663 196.819" stroke="#C4C4C4" stroke-width="3"/>
</svg>
