<svg width="18" height="20" viewBox="0 0 18 20" fill="none" xmlns="http://www.w3.org/2000/svg">
<path d="M17.2741 16.8685L15.8424 14.4835C15.1824 13.3827 14.8332 12.1227 14.8332 10.8385V8.74934C14.8332 5.53352 12.2157 2.91602 8.9999 2.91602C5.78408 2.91602 3.16658 5.53352 3.16658 8.74934V10.8385C3.16658 12.1227 2.8174 13.3827 2.1574 14.4835L0.725716 16.8685C0.648216 16.9968 0.646536 17.1577 0.719896 17.2877C0.794076 17.4185 0.933216 17.4994 1.08322 17.4994H16.9165C17.0665 17.4994 17.2057 17.4186 17.2799 17.2877C17.3532 17.1577 17.3516 16.9968 17.2741 16.8685ZM1.81908 16.666L2.87158 14.9118C3.6099 13.6818 3.9999 12.2735 3.9999 10.8385V8.74934C3.9999 5.99184 6.2424 3.74934 8.9999 3.74934C11.7574 3.74934 13.9999 5.99184 13.9999 8.74934V10.8385C13.9999 12.2735 14.3899 13.6818 15.1274 14.9118L16.1807 16.666H1.81908Z" fill="black"/>
<path d="M9 0C8.08082 0 7.33331 0.7475 7.33331 1.66668V3.33336C7.33331 3.56332 7.51999 3.75 7.74999 3.75C7.98 3.75 8.16668 3.56332 8.16668 3.33332V1.66668C8.16668 1.20668 8.54 0.833359 9 0.833359C9.46 0.833359 9.83332 1.20668 9.83332 1.66668V3.33336C9.83332 3.56332 10.02 3.75 10.25 3.75C10.48 3.75 10.6667 3.56332 10.6667 3.33332V1.66668C10.6667 0.7475 9.91918 0 9 0Z" fill="black"/>
<path d="M10.8033 16.8733C10.6858 16.675 10.4316 16.61 10.2325 16.7241C10.0333 16.8408 9.96665 17.0966 10.0833 17.2949C10.1916 17.4791 10.2508 17.6999 10.2508 17.9174C10.2508 18.6066 9.68998 19.1674 9.0008 19.1674C8.31162 19.1674 7.7508 18.6066 7.7508 17.9174C7.7508 17.6999 7.80998 17.4791 7.9183 17.2949C8.03412 17.0958 7.96748 16.8408 7.76912 16.7241C7.5683 16.6099 7.31494 16.6749 7.1983 16.8733C7.01413 17.1883 6.91663 17.5491 6.91663 17.9175C6.91667 19.0666 7.8508 20.0008 8.99998 20.0008C10.1492 20.0008 11.0833 19.0666 11.085 17.9175C11.085 17.5491 10.9875 17.1883 10.8033 16.8733Z" fill="black"/>
</svg>
