<svg width="20" height="20" viewBox="0 0 20 20" fill="none" xmlns="http://www.w3.org/2000/svg">
<path d="M18.2741 16.8693L16.8424 14.4843C16.1824 13.3834 15.8332 12.1234 15.8332 10.8392V8.75007C15.8332 5.53425 13.2157 2.91675 9.9999 2.91675C6.78408 2.91675 4.16658 5.53425 4.16658 8.75007V10.8392C4.16658 12.1234 3.8174 13.3834 3.1574 14.4843L1.72572 16.8693C1.64822 16.9976 1.64654 17.1584 1.7199 17.2884C1.79408 17.4192 1.93322 17.5001 2.08322 17.5001H17.9165C18.0665 17.5001 18.2057 17.4193 18.2799 17.2884C18.3532 17.1584 18.3516 16.9976 18.2741 16.8693ZM2.81908 16.6667L3.87158 14.9126C4.6099 13.6826 4.9999 12.2742 4.9999 10.8392V8.75007C4.9999 5.99257 7.2424 3.75007 9.9999 3.75007C12.7574 3.75007 14.9999 5.99257 14.9999 8.75007V10.8392C14.9999 12.2742 15.3899 13.6826 16.1274 14.9126L17.1807 16.6667H2.81908Z" fill="white"/>
<path d="M10 0C9.08082 0 8.33331 0.7475 8.33331 1.66668V3.33336C8.33331 3.56332 8.51999 3.75 8.74999 3.75C8.98 3.75 9.16668 3.56332 9.16668 3.33332V1.66668C9.16668 1.20668 9.54 0.833359 10 0.833359C10.46 0.833359 10.8333 1.20668 10.8333 1.66668V3.33336C10.8333 3.56332 11.02 3.75 11.25 3.75C11.48 3.75 11.6667 3.56332 11.6667 3.33332V1.66668C11.6667 0.7475 10.9192 0 10 0Z" fill="white"/>
<path d="M11.8033 16.8726C11.6858 16.6742 11.4316 16.6092 11.2325 16.7234C11.0333 16.8401 10.9667 17.0959 11.0833 17.2942C11.1916 17.4784 11.2508 17.6992 11.2508 17.9167C11.2508 18.6059 10.69 19.1667 10.0008 19.1667C9.31162 19.1667 8.7508 18.6059 8.7508 17.9167C8.7508 17.6992 8.80998 17.4784 8.9183 17.2942C9.03412 17.095 8.96748 16.84 8.76912 16.7234C8.5683 16.6092 8.31494 16.6742 8.1983 16.8726C8.01413 17.1876 7.91663 17.5484 7.91663 17.9167C7.91667 19.0659 8.8508 20.0001 9.99998 20.0001C11.1492 20.0001 12.0833 19.0659 12.085 17.9167C12.085 17.5484 11.9875 17.1876 11.8033 16.8726Z" fill="white"/>
</svg>
