<svg width="429" height="399" viewBox="0 0 429 399" fill="none" xmlns="http://www.w3.org/2000/svg">
<g filter="url(#filter0_d)">
<rect x="38.1592" y="10" width="365.841" height="358.075" rx="5" fill="white"/>
<path d="M38.1592 15C38.1592 12.2386 40.3978 10 43.1592 10H399C401.761 10 404 12.2386 404 15V28.1195H38.1592V15Z" fill="#EFEFEF"/>
<circle cx="52.1166" cy="19.0045" r="4.5023" fill="#FFD704"/>
<circle cx="52.1166" cy="19.0045" r="4.5023" fill="#FFD704"/>
<circle cx="52.1166" cy="19.0045" r="4.5023" fill="#FFD704"/>
<circle cx="52.1166" cy="19.0045" r="4.5023" fill="#FFD704"/>
<circle cx="52.1166" cy="19.0045" r="4.5023" fill="#FFD704"/>
<circle cx="69.6761" cy="19.0045" r="4.5023" fill="#C4C4C4"/>
<circle cx="87.2357" cy="19.0045" r="4.5023" fill="#EA0000"/>
<rect x="178.801" y="54.0045" width="209.668" height="12.0796" fill="#D5D3D3"/>
<rect x="260.771" y="76.4381" width="127.699" height="21.5708" fill="#F5F5F5"/>
<path d="M195.706 141.203L243.817 145.384L202.842 330.674L154.73 326.493L195.706 141.203Z" fill="#DBDBDB"/>
<path d="M101.884 120.755L149.995 124.936L109.019 310.226L60.9081 306.045L101.884 120.755Z" fill="#DBDBDB"/>
<path d="M195.585 141.15L150.115 124.989L109.14 310.279L154.609 326.44L195.585 141.15Z" fill="#DBDBDB"/>
<path d="M101.762 120.703L56.2998 104.543L15.3244 289.833L60.7867 305.993L101.762 120.703Z" fill="#DBDBDB"/>
<path d="M194.828 145.145L238.335 148.975L199.317 325.426L155.809 321.597L194.828 145.145Z" fill="#DBDBDB"/>
<path d="M100.937 125.028L148.988 129.497L109.964 305.953L61.9135 301.484L100.937 125.028Z" fill="#DBDBDB"/>
<path d="M194.678 145.261L149.07 129.711L110.045 306.174L155.654 321.717L194.678 145.261Z" fill="#EBEBEB"/>
<path d="M100.821 124.98L59.7617 110.079L20.7431 286.53L61.8022 301.431L100.821 124.98Z" fill="#EBEBEB"/>
<path d="M96.0107 123.247L89.4268 135.093L87.8741 137.888L71.6139 167.078L70.7937 168.198L68.2797 166.59L49.8004 154.792L50.5368 151.466L70.0165 163.916L93.2088 122.225L96.0107 123.247Z" fill="white"/>
<path d="M140.758 128.74L138.813 129.387L135.432 130.497L114.28 137.486L111.407 138.441L96.9894 143.204L96.8349 143.119L87.8872 137.943L86.6502 137.232L88.1184 134.378L89.4411 135.145L97.4063 139.753L97.5935 139.69L132.928 128.013L132.93 128.006L132.937 128.007L136.163 128.317L137.855 128.471L137.869 128.474L140.758 128.74Z" fill="white"/>
<path d="M185.929 142.259L181.29 151.677L179.726 154.862L154.073 206.836L152.659 209.721L152.644 209.755L143.472 203.774L140.317 201.622L133.982 197.296L133.197 196.757L132.269 194.278L111.47 138.445L110.987 137.153L113.727 135.838L114.341 137.491L123.529 162.15L124.766 165.479L135.595 194.535L151.604 205.193L168.793 170.389L170.325 167.278L183.128 141.297L185.929 142.259Z" fill="white"/>
<path d="M171.416 168.751L169.124 170.871L168.779 170.42L146.41 141.293L145.768 140.453L144.284 139.017L142.122 136.94L135.463 130.531L134.873 129.96L136.193 128.352L137.885 128.505L137.899 128.508L138.843 129.421L147.244 137.529L147.99 138.244L170.311 167.309L171.416 168.751Z" fill="white"/>
<path d="M228.384 193.945L227.63 197.351L220.936 192.32L218.541 190.508L188.855 168.165L179.766 154.92L178.278 152.753L180.658 150.754L181.33 151.734L190.974 165.778L228.384 193.945Z" fill="white"/>
<path d="M181.707 274.87L179.107 273.494L219.166 189.235L221.766 190.61L181.707 274.87Z" fill="white"/>
<path d="M211.82 269.125L211.091 272.418L173.531 276.806L170.544 277.161L170.536 277.159L166.22 277.66L114.467 307.701L110.591 306.38L128.446 296.023L132.036 293.933L147.773 284.805L150.608 283.164L165.455 274.543L179.365 272.918L182.817 272.51L211.82 269.125Z" fill="white"/>
<path d="M176.816 225.471L151.367 208.886L152.947 206.106L177.861 222.346L203.149 225.17L202.722 228.363L176.816 225.471Z" fill="white"/>
<path d="M124.183 166.24L121.925 164.297L142.998 135.719L145.256 137.661L124.183 166.24Z" fill="white"/>
<path d="M132.613 294.12L131.543 297.152L128.417 295.977L112.952 290.155L69.9916 264.165L26.6975 259.568L27.3987 256.397L56.6958 259.509L60.5398 259.924L70.994 261.03L71.2456 261.188L95.7854 276.03L98.5593 277.704L114.254 287.196L132.009 293.885L132.613 294.12Z" fill="white"/>
<path d="M51.8056 193.991L36.5875 214.664L38.1743 207.492L68.3099 166.553L69.3844 165.099L71.642 167.041L70.8223 168.16L53.8604 191.203L51.8056 193.991Z" fill="white"/>
<path d="M60.8565 260.533L58.3898 262.386L56.6503 259.523L34.6751 223.448L35.6357 219.108L52.7236 247.177L54.483 250.051L60.4911 259.937L60.8565 260.533Z" fill="white"/>
<path d="M83.874 202.716L50.8842 193.772L51.7101 190.651L84.2155 199.467L134.331 193.974L134.498 197.172L83.874 202.716Z" fill="white"/>
<path d="M53.9881 250.963L51.505 249.362L80.0543 199.233L82.5358 200.841L53.9881 250.963Z" fill="white"/>
<path d="M217.005 245.741L216.3 248.928L197.223 242.264L196.012 241.837L197.023 238.768L198.613 239.321L217.005 245.741Z" fill="white"/>
<path d="M147.807 285.893L140.335 200.844L143.263 200.397L150.735 285.446L147.807 285.893Z" fill="white"/>
<path d="M96.6813 279.262L95.0103 276.702L119.994 256.756L145.725 247.974L146.487 251.03L121.246 259.646L96.6813 279.262Z" fill="white"/>
<path d="M185.929 142.259L181.29 151.677L179.726 154.862L154.073 206.836L152.659 209.721L152.644 209.755L143.472 203.774L140.317 201.622L133.982 197.296L133.197 196.757L132.269 194.278L111.47 138.445L110.987 137.153L113.727 135.838L114.341 137.491L123.529 162.15L124.766 165.479L135.595 194.535L151.604 205.193L168.793 170.389L170.325 167.278L183.128 141.297L185.929 142.259Z" fill="white"/>
<path d="M176.816 225.471L151.367 208.886L152.947 206.106L177.861 222.346L203.149 225.17L202.722 228.363L176.816 225.471Z" fill="white"/>
<path d="M132.613 294.12L131.541 297.159L128.41 295.976L112.952 290.155L95.9469 279.869L95.9325 279.866L78.6105 269.378L69.9916 264.165L26.6975 259.568L27.3987 256.397L56.6958 259.509L60.547 259.926L70.9868 261.028L71.2528 261.19L79.3382 266.087L95.7854 276.03L98.5593 277.704L98.5665 277.706L98.605 277.736L114.254 287.196L132.009 293.885L132.613 294.12Z" fill="white"/>
<path d="M150.735 285.446L147.808 285.886L144.795 251.646L144.796 251.639L144.514 248.424L140.402 201.595L140.335 200.844L140.702 200.784L143.263 200.397L143.56 203.748L147.677 250.659L150.735 285.446Z" fill="white"/>
<path d="M146.489 251.023L146.487 251.03L144.8 251.607L121.246 259.646L98.5671 277.755L96.6813 279.262L95.0087 276.709L95.7879 276.082L119.994 256.756L144.519 248.383L145.725 247.974L146.489 251.023Z" fill="white"/>
<path d="M184.137 324.07L181.013 323.796L170.569 277.184L170.562 277.183L170.278 275.883L173.14 274.994L173.554 276.83L184.137 324.07Z" fill="white"/>
<path d="M98.4185 193.028L124.575 190.164L114.112 162.082L99.7555 163.571L98.4185 193.028Z" fill="#EBEBEB"/>
<path d="M186.165 216.258L200.384 217.843L212.729 192.142L199.271 182.011L186.165 216.258Z" fill="#EBEBEB"/>
<path d="M230.116 186.116L201.84 165.677L206.157 146.164L238.335 148.999L230.116 186.116Z" fill="#EBEBEB"/>
<path d="M99.9475 146.558L108.758 143.65L113.333 155.998L99.984 157.456L99.9475 146.558Z" fill="#EBEBEB"/>
<path d="M127.517 263.574L141.912 258.659L143.934 281.711L133.003 288.057L122.936 284.271L127.517 263.574Z" fill="#DBDBDB"/>
<path d="M154.425 137.771L155.707 131.981L180.287 140.38L170.967 159.304L154.425 137.771Z" fill="#DBDBDB"/>
<path d="M41.1129 216.733L53.5649 237.18L71.5289 205.567L52.9672 200.54L41.1129 216.733Z" fill="#DBDBDB"/>
<path d="M55.8257 148.692L61.9258 121.13L84.0935 129.321L68.7243 156.941L55.8257 148.692Z" fill="#DBDBDB"/>
<path d="M62.6366 117.785L84.826 125.996L87.9751 120.375L63.9893 111.663L62.6366 117.785Z" fill="#DBDBDB"/>
<path d="M67.7262 297.832L73.4414 272.009L88.9451 281.413L84.9575 299.43L67.7262 297.832Z" fill="#EBEBEB"/>
<path d="M29.3526 264.508L42.7072 265.92L37.6977 288.556L25.0465 283.966L29.3526 264.508Z" fill="#DBDBDB"/>
<path d="M189.505 319.244L181.831 285.014L209.028 281.834L200.542 320.212L189.505 319.244Z" fill="#EBEBEB"/>
<path d="M175.546 213.823L179.018 198.137L165.605 190.02L159.083 203.251L175.546 213.823Z" fill="#DBDBDB"/>
<path d="M143.515 203.72L147.642 250.645L146.438 251.047L144.761 251.619L144.759 251.626L121.21 259.66L98.5883 277.793L95.9262 279.92L95.9118 279.917L78.6105 269.452L79.3373 266.168L95.7634 276.096L119.959 256.771L144.471 248.401L140.349 201.559L140.356 201.56L140.655 200.755L141.524 198.394L141.528 198.373L151.66 205.099L160.737 186.713L163.217 188.335L152.684 209.692L143.515 203.72Z" fill="#DBDBDB"/>
<path d="M176.654 171.223C177.296 165.768 174.702 159.625 168.098 158.191C161.495 156.756 156.551 161.262 154.824 166.481C152.164 174.55 156.194 183.26 160.75 191.392C168.33 185.896 175.669 179.655 176.654 171.223ZM164.425 174.788C163.243 174.53 162.164 173.934 161.325 173.077C160.485 172.22 159.922 171.14 159.707 169.972C159.493 168.805 159.635 167.603 160.118 166.519C160.601 165.435 161.401 164.517 162.419 163.881C163.436 163.245 164.624 162.919 165.834 162.946C167.043 162.973 168.219 163.35 169.213 164.03C170.207 164.711 170.974 165.663 171.418 166.768C171.862 167.873 171.962 169.08 171.706 170.237C171.537 171.006 171.214 171.734 170.756 172.38C170.298 173.025 169.714 173.575 169.038 173.998C168.361 174.421 167.606 174.708 166.814 174.844C166.023 174.979 165.211 174.96 164.425 174.788Z" fill="#6C6C6C"/>
<path d="M94.4877 249.29C95.1245 243.827 92.5374 237.685 85.9265 236.249C79.3156 234.813 74.3792 239.321 72.6502 244.547C69.9909 252.615 74.0218 261.318 78.5846 269.422C86.1586 263.954 93.4955 257.72 94.4877 249.29ZM82.2532 252.846C81.0714 252.588 79.9924 251.993 79.1527 251.136C78.3129 250.278 77.7501 249.198 77.5354 248.031C77.3206 246.863 77.4636 245.662 77.9462 244.577C78.4288 243.493 79.2293 242.575 80.2467 241.939C81.264 241.303 82.4525 240.978 83.6619 241.004C84.8712 241.031 86.0472 241.408 87.0412 242.089C88.0351 242.769 88.8025 243.722 89.2461 244.826C89.6898 245.931 89.79 247.138 89.5339 248.295C89.3646 249.065 89.0418 249.793 88.5839 250.438C88.126 251.084 87.5421 251.634 86.8657 252.057C86.1893 252.479 85.4337 252.767 84.6421 252.902C83.8506 253.038 83.0388 253.019 82.2532 252.846Z" fill="#6C6C6C"/>
<path d="M262.243 133.409C262.243 133.189 262.289 132.983 262.38 132.791C262.481 132.598 262.619 132.433 262.793 132.296C262.976 132.158 263.192 132.048 263.44 131.965C263.696 131.883 263.981 131.842 264.293 131.842C264.788 131.842 265.26 131.924 265.71 132.089C266.168 132.254 266.622 132.52 267.072 132.887L267.705 132.048C267.209 131.654 266.696 131.36 266.164 131.168C265.641 130.966 265.026 130.865 264.32 130.865C263.862 130.865 263.44 130.934 263.054 131.072C262.669 131.2 262.334 131.383 262.05 131.622C261.766 131.851 261.546 132.126 261.39 132.447C261.234 132.768 261.156 133.121 261.156 133.506C261.156 133.909 261.22 134.258 261.348 134.551C261.477 134.844 261.674 135.101 261.94 135.321C262.206 135.541 262.541 135.729 262.944 135.885C263.357 136.041 263.839 136.178 264.389 136.297C264.893 136.408 265.306 136.522 265.627 136.641C265.957 136.76 266.214 136.893 266.398 137.04C266.581 137.187 266.71 137.352 266.783 137.535C266.856 137.709 266.893 137.911 266.893 138.14C266.893 138.635 266.696 139.034 266.301 139.337C265.916 139.639 265.398 139.791 264.747 139.791C264.077 139.791 263.485 139.681 262.972 139.461C262.458 139.231 261.949 138.888 261.445 138.429L260.771 139.227C261.348 139.749 261.954 140.139 262.587 140.396C263.229 140.643 263.935 140.767 264.705 140.767C265.182 140.767 265.623 140.703 266.026 140.574C266.43 140.446 266.774 140.263 267.058 140.024C267.352 139.786 267.581 139.497 267.746 139.158C267.911 138.819 267.994 138.443 267.994 138.03C267.994 137.288 267.737 136.705 267.223 136.284C266.719 135.862 265.93 135.532 264.857 135.294C264.325 135.184 263.889 135.069 263.55 134.95C263.21 134.821 262.944 134.684 262.752 134.537C262.559 134.381 262.426 134.212 262.353 134.028C262.279 133.845 262.243 133.639 262.243 133.409Z" fill="black" fill-opacity="0.5"/>
<path d="M275.074 137.59C275.074 137.92 275.019 138.223 274.909 138.498C274.799 138.773 274.648 139.011 274.455 139.213C274.272 139.406 274.047 139.557 273.781 139.667C273.524 139.768 273.245 139.818 272.942 139.818C272.309 139.818 271.823 139.626 271.483 139.241C271.144 138.855 270.974 138.333 270.974 137.673V133.519H269.915V137.934C269.915 138.356 269.975 138.741 270.094 139.089C270.222 139.438 270.401 139.74 270.63 139.997C270.869 140.244 271.153 140.437 271.483 140.574C271.823 140.712 272.208 140.781 272.639 140.781C273.254 140.781 273.754 140.648 274.139 140.382C274.524 140.107 274.836 139.777 275.074 139.392V140.629H276.12V133.519H275.074V137.59Z" fill="black" fill-opacity="0.5"/>
<path d="M284.144 134.785C283.951 134.381 283.667 134.047 283.291 133.781C282.915 133.506 282.438 133.368 281.86 133.368C281.557 133.368 281.291 133.405 281.062 133.478C280.833 133.552 280.627 133.652 280.443 133.781C280.26 133.9 280.095 134.042 279.948 134.207C279.81 134.372 279.682 134.542 279.563 134.716V133.519H278.503V140.629H279.563V136.573C279.563 136.242 279.613 135.945 279.714 135.679C279.815 135.404 279.952 135.165 280.127 134.963C280.31 134.762 280.521 134.606 280.759 134.496C280.998 134.386 281.259 134.331 281.544 134.331C282.112 134.331 282.557 134.519 282.878 134.895C283.208 135.261 283.374 135.779 283.374 136.449V140.629H284.419V136.531C284.419 136.183 284.47 135.871 284.571 135.596C284.681 135.321 284.823 135.092 284.997 134.908C285.181 134.716 285.391 134.574 285.63 134.482C285.868 134.381 286.121 134.331 286.387 134.331C286.965 134.331 287.414 134.519 287.735 134.895C288.065 135.261 288.23 135.789 288.23 136.476V140.629H289.29V136.229C289.29 135.339 289.056 134.643 288.588 134.138C288.12 133.625 287.474 133.368 286.648 133.368C286.336 133.368 286.052 133.405 285.795 133.478C285.547 133.552 285.323 133.652 285.121 133.781C284.919 133.909 284.736 134.06 284.571 134.235C284.415 134.409 284.272 134.592 284.144 134.785Z" fill="black" fill-opacity="0.5"/>
<path d="M297.231 134.785C297.038 134.381 296.754 134.047 296.378 133.781C296.002 133.506 295.525 133.368 294.947 133.368C294.644 133.368 294.378 133.405 294.149 133.478C293.919 133.552 293.713 133.652 293.53 133.781C293.346 133.9 293.181 134.042 293.034 134.207C292.897 134.372 292.768 134.542 292.649 134.716V133.519H291.59V140.629H292.649V136.573C292.649 136.242 292.7 135.945 292.8 135.679C292.901 135.404 293.039 135.165 293.213 134.963C293.397 134.762 293.608 134.606 293.846 134.496C294.085 134.386 294.346 134.331 294.63 134.331C295.199 134.331 295.644 134.519 295.965 134.895C296.295 135.261 296.46 135.779 296.46 136.449V140.629H297.506V136.531C297.506 136.183 297.556 135.871 297.657 135.596C297.767 135.321 297.909 135.092 298.084 134.908C298.267 134.716 298.478 134.574 298.717 134.482C298.955 134.381 299.207 134.331 299.473 134.331C300.051 134.331 300.501 134.519 300.822 134.895C301.152 135.261 301.317 135.789 301.317 136.476V140.629H302.376V136.229C302.376 135.339 302.142 134.643 301.675 134.138C301.207 133.625 300.56 133.368 299.735 133.368C299.423 133.368 299.138 133.405 298.882 133.478C298.634 133.552 298.409 133.652 298.207 133.781C298.006 133.909 297.822 134.06 297.657 134.235C297.501 134.409 297.359 134.592 297.231 134.785Z" fill="black" fill-opacity="0.5"/>
<path d="M307.249 134.358C307.919 134.358 308.437 134.523 308.804 134.853C309.18 135.174 309.368 135.656 309.368 136.297V136.545C309.047 136.453 308.717 136.38 308.377 136.325C308.038 136.27 307.639 136.242 307.18 136.242C306.731 136.242 306.318 136.293 305.942 136.394C305.575 136.495 305.254 136.641 304.979 136.834C304.713 137.026 304.507 137.269 304.36 137.563C304.213 137.847 304.14 138.177 304.14 138.553C304.14 138.929 304.213 139.254 304.36 139.529C304.516 139.804 304.718 140.038 304.965 140.231C305.222 140.414 305.506 140.552 305.818 140.643C306.139 140.735 306.465 140.781 306.795 140.781C307.428 140.781 307.951 140.657 308.364 140.409C308.785 140.162 309.12 139.878 309.368 139.557V140.629H310.386V136.284C310.386 135.339 310.125 134.629 309.602 134.152C309.079 133.666 308.331 133.423 307.359 133.423C306.836 133.423 306.373 133.478 305.97 133.588C305.566 133.689 305.167 133.831 304.773 134.015L305.089 134.881C305.419 134.725 305.754 134.601 306.093 134.51C306.442 134.409 306.827 134.358 307.249 134.358ZM307.29 137.026C307.731 137.026 308.12 137.058 308.46 137.123C308.808 137.187 309.116 137.256 309.382 137.329V138.017C309.382 138.301 309.317 138.562 309.189 138.8C309.07 139.03 308.9 139.231 308.68 139.406C308.469 139.571 308.217 139.704 307.923 139.804C307.639 139.896 307.332 139.942 307.001 139.942C306.763 139.942 306.534 139.91 306.314 139.846C306.103 139.781 305.915 139.69 305.749 139.571C305.584 139.442 305.451 139.291 305.35 139.117C305.259 138.943 305.213 138.741 305.213 138.512C305.213 138.053 305.392 137.691 305.749 137.425C306.107 137.159 306.621 137.026 307.29 137.026Z" fill="black" fill-opacity="0.5"/>
<path d="M313.703 137.796C313.703 137.265 313.777 136.797 313.923 136.394C314.07 135.981 314.272 135.637 314.529 135.362C314.786 135.087 315.084 134.881 315.423 134.743C315.772 134.606 316.138 134.537 316.524 134.537H316.606V133.396C316.267 133.387 315.95 133.428 315.657 133.519C315.363 133.611 315.093 133.749 314.845 133.932C314.597 134.106 314.377 134.317 314.185 134.565C313.992 134.812 313.832 135.083 313.703 135.376V133.519H312.644V140.629H313.703V137.796Z" fill="black" fill-opacity="0.5"/>
<path d="M324.672 133.519H323.544L321.26 139.447L318.674 133.519H317.504L320.737 140.602C320.527 141.106 320.311 141.455 320.091 141.647C319.871 141.84 319.6 141.936 319.279 141.936C319.05 141.936 318.848 141.913 318.674 141.867C318.509 141.831 318.339 141.766 318.165 141.675L317.807 142.514C318.045 142.633 318.284 142.72 318.522 142.775C318.761 142.839 319.027 142.871 319.32 142.871C319.852 142.871 320.302 142.72 320.669 142.417C321.045 142.115 321.384 141.597 321.687 140.863L324.672 133.519Z" fill="black" fill-opacity="0.5"/>
<path d="M335.357 138.635V138.608C335.357 138.287 335.289 138.017 335.151 137.796C335.023 137.576 334.848 137.389 334.628 137.233C334.408 137.077 334.16 136.948 333.885 136.848C333.619 136.747 333.349 136.655 333.074 136.573C332.835 136.499 332.606 136.426 332.386 136.352C332.166 136.279 331.968 136.197 331.794 136.105C331.629 136.013 331.496 135.908 331.395 135.789C331.294 135.66 331.244 135.514 331.244 135.349V135.321C331.244 135.028 331.368 134.785 331.615 134.592C331.863 134.39 332.198 134.29 332.62 134.29C332.968 134.29 333.321 134.354 333.679 134.482C334.046 134.601 334.394 134.766 334.725 134.977L335.206 134.18C334.839 133.941 334.431 133.753 333.982 133.616C333.532 133.469 333.087 133.396 332.647 133.396C332.299 133.396 331.973 133.446 331.67 133.547C331.377 133.639 331.12 133.776 330.9 133.96C330.689 134.134 330.524 134.349 330.404 134.606C330.285 134.853 330.226 135.129 330.226 135.431V135.459C330.226 135.789 330.294 136.064 330.432 136.284C330.579 136.504 330.762 136.687 330.982 136.834C331.212 136.981 331.464 137.104 331.739 137.205C332.023 137.297 332.303 137.384 332.578 137.466C332.808 137.531 333.028 137.599 333.239 137.673C333.459 137.746 333.651 137.833 333.817 137.934C333.982 138.026 334.11 138.136 334.202 138.264C334.303 138.392 334.353 138.544 334.353 138.718V138.745C334.353 139.094 334.216 139.369 333.94 139.571C333.665 139.772 333.312 139.873 332.881 139.873C332.459 139.873 332.037 139.795 331.615 139.639C331.202 139.483 330.803 139.259 330.418 138.965L329.882 139.722C330.285 140.043 330.748 140.299 331.271 140.492C331.794 140.675 332.312 140.767 332.826 140.767C333.184 140.767 333.514 140.721 333.817 140.629C334.128 140.529 334.394 140.387 334.615 140.203C334.844 140.02 335.023 139.8 335.151 139.543C335.289 139.277 335.357 138.975 335.357 138.635Z" fill="black" fill-opacity="0.5"/>
<path d="M338.622 134.455H340.878V133.519H338.622V131.374H337.563V133.519H336.572V134.455H337.563V138.745C337.563 139.103 337.613 139.41 337.714 139.667C337.815 139.924 337.953 140.134 338.127 140.299C338.31 140.455 338.526 140.57 338.773 140.643C339.021 140.717 339.287 140.753 339.571 140.753C339.828 140.753 340.058 140.726 340.259 140.671C340.47 140.625 340.668 140.552 340.851 140.451V139.543C340.668 139.635 340.493 139.699 340.328 139.736C340.172 139.772 340.003 139.791 339.819 139.791C339.461 139.791 339.172 139.704 338.952 139.529C338.732 139.355 338.622 139.048 338.622 138.608V134.455Z" fill="black" fill-opacity="0.5"/>
<path d="M345.326 134.358C345.996 134.358 346.514 134.523 346.881 134.853C347.257 135.174 347.445 135.656 347.445 136.297V136.545C347.124 136.453 346.794 136.38 346.455 136.325C346.115 136.27 345.716 136.242 345.258 136.242C344.808 136.242 344.396 136.293 344.019 136.394C343.653 136.495 343.332 136.641 343.056 136.834C342.79 137.026 342.584 137.269 342.437 137.563C342.29 137.847 342.217 138.177 342.217 138.553C342.217 138.929 342.29 139.254 342.437 139.529C342.593 139.804 342.795 140.038 343.043 140.231C343.299 140.414 343.584 140.552 343.896 140.643C344.217 140.735 344.542 140.781 344.872 140.781C345.505 140.781 346.028 140.657 346.441 140.409C346.863 140.162 347.198 139.878 347.445 139.557V140.629H348.463V136.284C348.463 135.339 348.202 134.629 347.679 134.152C347.156 133.666 346.409 133.423 345.437 133.423C344.914 133.423 344.451 133.478 344.047 133.588C343.643 133.689 343.244 133.831 342.85 134.015L343.166 134.881C343.497 134.725 343.831 134.601 344.171 134.51C344.519 134.409 344.905 134.358 345.326 134.358ZM345.368 137.026C345.808 137.026 346.198 137.058 346.537 137.123C346.886 137.187 347.193 137.256 347.459 137.329V138.017C347.459 138.301 347.395 138.562 347.266 138.8C347.147 139.03 346.978 139.231 346.757 139.406C346.546 139.571 346.294 139.704 346.001 139.804C345.716 139.896 345.409 139.942 345.079 139.942C344.84 139.942 344.611 139.91 344.391 139.846C344.18 139.781 343.992 139.69 343.827 139.571C343.662 139.442 343.529 139.291 343.428 139.117C343.336 138.943 343.29 138.741 343.29 138.512C343.29 138.053 343.469 137.691 343.827 137.425C344.185 137.159 344.698 137.026 345.368 137.026Z" fill="black" fill-opacity="0.5"/>
<path d="M352.085 134.455H354.341V133.519H352.085V131.374H351.025V133.519H350.035V134.455H351.025V138.745C351.025 139.103 351.076 139.41 351.177 139.667C351.278 139.924 351.415 140.134 351.59 140.299C351.773 140.455 351.989 140.57 352.236 140.643C352.484 140.717 352.75 140.753 353.034 140.753C353.291 140.753 353.52 140.726 353.722 140.671C353.933 140.625 354.13 140.552 354.314 140.451V139.543C354.13 139.635 353.956 139.699 353.791 139.736C353.635 139.772 353.465 139.791 353.282 139.791C352.924 139.791 352.635 139.704 352.415 139.529C352.195 139.355 352.085 139.048 352.085 138.608V134.455Z" fill="black" fill-opacity="0.5"/>
<path d="M357.455 131.965V130.797H356.244V131.965H357.455ZM357.372 140.629V133.519H356.313V140.629H357.372Z" fill="black" fill-opacity="0.5"/>
<path d="M364.715 138.635V138.608C364.715 138.287 364.646 138.017 364.509 137.796C364.38 137.576 364.206 137.389 363.986 137.233C363.766 137.077 363.518 136.948 363.243 136.848C362.977 136.747 362.706 136.655 362.431 136.573C362.193 136.499 361.963 136.426 361.743 136.352C361.523 136.279 361.326 136.197 361.152 136.105C360.986 136.013 360.853 135.908 360.753 135.789C360.652 135.66 360.601 135.514 360.601 135.349V135.321C360.601 135.028 360.725 134.785 360.973 134.592C361.22 134.39 361.555 134.29 361.977 134.29C362.326 134.29 362.679 134.354 363.036 134.482C363.403 134.601 363.752 134.766 364.082 134.977L364.564 134.18C364.197 133.941 363.789 133.753 363.339 133.616C362.89 133.469 362.445 133.396 362.005 133.396C361.656 133.396 361.33 133.446 361.028 133.547C360.734 133.639 360.477 133.776 360.257 133.96C360.046 134.134 359.881 134.349 359.762 134.606C359.643 134.853 359.583 135.129 359.583 135.431V135.459C359.583 135.789 359.652 136.064 359.789 136.284C359.936 136.504 360.12 136.687 360.34 136.834C360.569 136.981 360.821 137.104 361.097 137.205C361.381 137.297 361.661 137.384 361.936 137.466C362.165 137.531 362.385 137.599 362.596 137.673C362.816 137.746 363.009 137.833 363.174 137.934C363.339 138.026 363.468 138.136 363.559 138.264C363.66 138.392 363.711 138.544 363.711 138.718V138.745C363.711 139.094 363.573 139.369 363.298 139.571C363.023 139.772 362.67 139.873 362.238 139.873C361.817 139.873 361.395 139.795 360.973 139.639C360.56 139.483 360.161 139.259 359.776 138.965L359.239 139.722C359.643 140.043 360.106 140.299 360.629 140.492C361.152 140.675 361.67 140.767 362.183 140.767C362.541 140.767 362.871 140.721 363.174 140.629C363.486 140.529 363.752 140.387 363.972 140.203C364.201 140.02 364.38 139.8 364.509 139.543C364.646 139.277 364.715 138.975 364.715 138.635Z" fill="black" fill-opacity="0.5"/>
<path d="M367.98 134.455H370.236V133.519H367.98V131.374H366.92V133.519H365.93V134.455H366.92V138.745C366.92 139.103 366.971 139.41 367.072 139.667C367.172 139.924 367.31 140.134 367.484 140.299C367.668 140.455 367.883 140.57 368.131 140.643C368.379 140.717 368.645 140.753 368.929 140.753C369.186 140.753 369.415 140.726 369.617 140.671C369.828 140.625 370.025 140.552 370.208 140.451V139.543C370.025 139.635 369.851 139.699 369.686 139.736C369.53 139.772 369.36 139.791 369.177 139.791C368.819 139.791 368.53 139.704 368.31 139.529C368.09 139.355 367.98 139.048 367.98 138.608V134.455Z" fill="black" fill-opacity="0.5"/>
<path d="M373.349 131.965V130.797H372.139V131.965H373.349ZM373.267 140.629V133.519H372.207V140.629H373.267Z" fill="black" fill-opacity="0.5"/>
<path d="M381.834 139.419L381.16 138.787C380.876 139.089 380.555 139.341 380.197 139.543C379.848 139.745 379.445 139.846 378.986 139.846C378.61 139.846 378.262 139.777 377.941 139.639C377.629 139.493 377.354 139.296 377.115 139.048C376.886 138.791 376.702 138.493 376.565 138.154C376.436 137.815 376.372 137.453 376.372 137.068C376.372 136.683 376.436 136.325 376.565 135.995C376.693 135.656 376.872 135.362 377.101 135.115C377.331 134.858 377.601 134.661 377.913 134.523C378.225 134.377 378.56 134.303 378.917 134.303C379.404 134.303 379.812 134.409 380.142 134.62C380.481 134.831 380.793 135.083 381.077 135.376L381.779 134.633C381.614 134.459 381.435 134.294 381.243 134.138C381.05 133.982 380.839 133.85 380.61 133.74C380.38 133.62 380.128 133.529 379.853 133.464C379.578 133.4 379.271 133.368 378.931 133.368C378.408 133.368 377.922 133.469 377.473 133.671C377.032 133.863 376.647 134.129 376.317 134.468C375.996 134.808 375.744 135.206 375.56 135.665C375.377 136.114 375.285 136.591 375.285 137.095C375.285 137.599 375.377 138.076 375.56 138.525C375.744 138.975 375.996 139.369 376.317 139.708C376.647 140.038 377.032 140.304 377.473 140.506C377.922 140.698 378.408 140.795 378.931 140.795C379.601 140.795 380.16 140.666 380.61 140.409C381.068 140.153 381.476 139.823 381.834 139.419Z" fill="black" fill-opacity="0.5"/>
<path d="M388.47 138.635V138.608C388.47 138.287 388.401 138.017 388.263 137.796C388.135 137.576 387.961 137.389 387.74 137.233C387.52 137.077 387.273 136.948 386.998 136.848C386.732 136.747 386.461 136.655 386.186 136.573C385.947 136.499 385.718 136.426 385.498 136.352C385.278 136.279 385.081 136.197 384.906 136.105C384.741 136.013 384.608 135.908 384.507 135.789C384.406 135.66 384.356 135.514 384.356 135.349V135.321C384.356 135.028 384.48 134.785 384.727 134.592C384.975 134.39 385.31 134.29 385.732 134.29C386.08 134.29 386.433 134.354 386.791 134.482C387.158 134.601 387.507 134.766 387.837 134.977L388.318 134.18C387.951 133.941 387.543 133.753 387.094 133.616C386.644 133.469 386.2 133.396 385.759 133.396C385.411 133.396 385.085 133.446 384.782 133.547C384.489 133.639 384.232 133.776 384.012 133.96C383.801 134.134 383.636 134.349 383.517 134.606C383.397 134.853 383.338 135.129 383.338 135.431V135.459C383.338 135.789 383.407 136.064 383.544 136.284C383.691 136.504 383.874 136.687 384.094 136.834C384.324 136.981 384.576 137.104 384.851 137.205C385.136 137.297 385.415 137.384 385.69 137.466C385.92 137.531 386.14 137.599 386.351 137.673C386.571 137.746 386.764 137.833 386.929 137.934C387.094 138.026 387.222 138.136 387.314 138.264C387.415 138.392 387.465 138.544 387.465 138.718V138.745C387.465 139.094 387.328 139.369 387.053 139.571C386.777 139.772 386.424 139.873 385.993 139.873C385.571 139.873 385.149 139.795 384.727 139.639C384.315 139.483 383.916 139.259 383.53 138.965L382.994 139.722C383.397 140.043 383.861 140.299 384.383 140.492C384.906 140.675 385.424 140.767 385.938 140.767C386.296 140.767 386.626 140.721 386.929 140.629C387.241 140.529 387.507 140.387 387.727 140.203C387.956 140.02 388.135 139.8 388.263 139.543C388.401 139.277 388.47 138.975 388.47 138.635Z" fill="black" fill-opacity="0.5"/>
<path d="M268.87 158.951V162.786H269.81V157.438H268.808L267.18 159.967L265.552 157.438H264.551V162.786H265.476V158.966L267.15 161.472H267.18L268.87 158.951Z" fill="black" fill-opacity="0.5"/>
<path d="M275.154 157.438H271.187V162.786H275.192V161.946H272.127V160.509H274.81V159.669H272.127V158.278H275.154V157.438Z" fill="black" fill-opacity="0.5"/>
<path d="M279.074 157.4H278.203L275.849 162.786H276.812L277.362 161.495H279.892L280.435 162.786H281.429L279.074 157.4ZM279.548 160.662H277.706L278.623 158.523L279.548 160.662Z" fill="black" fill-opacity="0.5"/>
<path d="M286.084 161.136L283.217 157.438H282.346V162.786H283.271V158.981L286.221 162.786H287.009V157.438H286.084V161.136Z" fill="black" fill-opacity="0.5"/>
<path d="M272.806 183.827V183.181H271.155L271.582 180.664H270.921L270.495 183.181H267.647L268.073 180.664H267.413L266.986 183.181H265.088V183.827H266.876L266.312 187.073H264.537V187.719H266.202L265.762 190.291H266.422L266.862 187.719H269.71L269.27 190.291H269.931L270.371 187.719H272.256V187.073H270.481L271.045 183.827H272.806ZM270.385 183.827L269.82 187.073H266.972L267.537 183.827H270.385Z" fill="black" fill-opacity="0.5"/>
<path d="M279.025 185.326L279.575 185.684C280.181 185.354 280.855 185.079 281.749 185.079C283.304 185.079 284.391 186.028 284.391 187.376C284.391 188.737 283.331 189.81 281.804 189.81C280.786 189.81 279.782 189.26 278.915 188.393L278.406 188.902C279.245 189.755 280.469 190.456 281.776 190.456C283.716 190.456 285.134 189.177 285.134 187.348C285.134 185.615 283.689 184.433 281.832 184.433C280.937 184.433 280.318 184.653 279.699 184.955L279.933 181.352H284.707V180.664H279.3L279.025 185.326Z" fill="black" fill-opacity="0.5"/>
<path d="M294.826 185.464C294.826 182.796 293.299 180.499 290.85 180.499C288.401 180.499 286.846 182.823 286.846 185.491C286.846 188.159 288.373 190.456 290.822 190.456C293.271 190.456 294.826 188.132 294.826 185.464ZM294.083 185.491C294.083 187.747 292.845 189.81 290.85 189.81C288.855 189.81 287.589 187.719 287.589 185.464C287.589 183.209 288.827 181.146 290.822 181.146C292.817 181.146 294.083 183.236 294.083 185.491Z" fill="black" fill-opacity="0.5"/>
<path d="M304.594 185.464C304.594 182.796 303.067 180.499 300.618 180.499C298.169 180.499 296.614 182.823 296.614 185.491C296.614 188.159 298.141 190.456 300.59 190.456C303.039 190.456 304.594 188.132 304.594 185.464ZM303.851 185.491C303.851 187.747 302.613 189.81 300.618 189.81C298.623 189.81 297.357 187.719 297.357 185.464C297.357 183.209 298.595 181.146 300.59 181.146C302.585 181.146 303.851 183.236 303.851 185.491Z" fill="black" fill-opacity="0.5"/>
<path d="M305.948 191.419L306.113 191.763C306.939 191.446 307.255 190.992 307.255 190.14V189.122H306.347V190.291H306.719C306.76 190.814 306.54 191.116 305.948 191.419Z" fill="black" fill-opacity="0.5"/>
<path d="M316.995 185.464C316.995 182.796 315.468 180.499 313.019 180.499C310.57 180.499 309.015 182.823 309.015 185.491C309.015 188.159 310.542 190.456 312.991 190.456C315.44 190.456 316.995 188.132 316.995 185.464ZM316.252 185.491C316.252 187.747 315.014 189.81 313.019 189.81C311.024 189.81 309.758 187.719 309.758 185.464C309.758 183.209 310.997 181.146 312.991 181.146C314.986 181.146 316.252 183.236 316.252 185.491Z" fill="black" fill-opacity="0.5"/>
<path d="M326.763 185.464C326.763 182.796 325.236 180.499 322.787 180.499C320.338 180.499 318.783 182.823 318.783 185.491C318.783 188.159 320.31 190.456 322.759 190.456C325.208 190.456 326.763 188.132 326.763 185.464ZM326.02 185.491C326.02 187.747 324.782 189.81 322.787 189.81C320.792 189.81 319.526 187.719 319.526 185.464C319.526 183.209 320.764 181.146 322.759 181.146C324.754 181.146 326.02 183.236 326.02 185.491Z" fill="black" fill-opacity="0.5"/>
<path d="M336.531 185.464C336.531 182.796 335.004 180.499 332.555 180.499C330.106 180.499 328.551 182.823 328.551 185.491C328.551 188.159 330.078 190.456 332.527 190.456C334.976 190.456 336.531 188.132 336.531 185.464ZM335.788 185.491C335.788 187.747 334.55 189.81 332.555 189.81C330.56 189.81 329.294 187.719 329.294 185.464C329.294 183.209 330.532 181.146 332.527 181.146C334.522 181.146 335.788 183.236 335.788 185.491Z" fill="black" fill-opacity="0.5"/>
<path d="M268.87 207.848V211.684H269.81V206.336H268.808L267.18 208.864L265.552 206.336H264.551V211.684H265.476V207.864L267.15 210.37H267.18L268.87 207.848Z" fill="black" fill-opacity="0.5"/>
<path d="M275.154 206.336H271.187V211.684H275.192V210.843H272.127V209.407H274.81V208.567H272.127V207.176H275.154V206.336Z" fill="black" fill-opacity="0.5"/>
<path d="M281.146 209.002C281.146 208.625 281.077 208.274 280.939 207.948C280.802 207.622 280.606 207.339 280.351 207.1C280.101 206.86 279.801 206.674 279.449 206.542C279.102 206.404 278.72 206.336 278.302 206.336H276.307V211.684H278.302C278.72 211.684 279.102 211.615 279.449 211.477C279.801 211.34 280.101 211.151 280.351 210.912C280.606 210.673 280.802 210.39 280.939 210.064C281.077 209.733 281.146 209.379 281.146 209.002ZM280.16 209.017C280.16 209.282 280.114 209.527 280.022 209.751C279.936 209.97 279.811 210.161 279.648 210.324C279.49 210.482 279.296 210.606 279.067 210.698C278.837 210.785 278.583 210.828 278.302 210.828H277.248V207.191H278.302C278.583 207.191 278.837 207.237 279.067 207.329C279.296 207.42 279.49 207.548 279.648 207.711C279.811 207.874 279.936 208.067 280.022 208.291C280.114 208.51 280.16 208.752 280.16 209.017Z" fill="black" fill-opacity="0.5"/>
<path d="M282.34 206.336V211.684H283.28V206.336H282.34Z" fill="black" fill-opacity="0.5"/>
<path d="M287.479 206.297H286.608L284.254 211.684H285.217L285.767 210.393H288.297L288.84 211.684H289.834L287.479 206.297ZM287.953 209.56H286.111L287.028 207.42L287.953 209.56Z" fill="black" fill-opacity="0.5"/>
<path d="M294.489 210.033L291.622 206.336H290.751V211.684H291.676V207.879L294.626 211.684H295.414V206.336H294.489V210.033Z" fill="black" fill-opacity="0.5"/>
<path d="M272.806 232.725V232.079H271.155L271.582 229.562H270.921L270.495 232.079H267.647L268.073 229.562H267.413L266.986 232.079H265.088V232.725H266.876L266.312 235.971H264.537V236.617H266.202L265.762 239.189H266.422L266.862 236.617H269.71L269.27 239.189H269.931L270.371 236.617H272.256V235.971H270.481L271.045 232.725H272.806ZM270.385 232.725L269.82 235.971H266.972L267.537 232.725H270.385Z" fill="black" fill-opacity="0.5"/>
<path d="M283.785 229.493L278.282 236.301L278.53 236.837H283.744V239.189H284.432V236.837H286V236.218H284.432V229.493H283.785ZM283.744 236.218H279.149L283.744 230.525V236.218Z" fill="black" fill-opacity="0.5"/>
<path d="M288.161 234.224L288.712 234.582C289.317 234.251 289.991 233.976 290.885 233.976C292.44 233.976 293.527 234.925 293.527 236.273C293.527 237.635 292.468 238.707 290.94 238.707C289.922 238.707 288.918 238.157 288.051 237.291L287.542 237.8C288.381 238.652 289.606 239.354 290.913 239.354C292.853 239.354 294.27 238.075 294.27 236.246C294.27 234.513 292.825 233.33 290.968 233.33C290.074 233.33 289.455 233.55 288.835 233.853L289.069 230.25H293.843V229.562H288.436L288.161 234.224Z" fill="black" fill-opacity="0.5"/>
<path d="M303.962 234.361C303.962 231.694 302.435 229.397 299.986 229.397C297.537 229.397 295.982 231.721 295.982 234.389C295.982 237.057 297.51 239.354 299.959 239.354C302.408 239.354 303.962 237.029 303.962 234.361ZM303.219 234.389C303.219 236.644 301.981 238.707 299.986 238.707C297.991 238.707 296.725 236.617 296.725 234.361C296.725 232.106 297.964 230.043 299.959 230.043C301.954 230.043 303.219 232.134 303.219 234.389Z" fill="black" fill-opacity="0.5"/>
<path d="M305.317 240.316L305.482 240.66C306.307 240.344 306.624 239.89 306.624 239.037V238.02H305.716V239.189H306.087C306.128 239.711 305.908 240.014 305.317 240.316Z" fill="black" fill-opacity="0.5"/>
<path d="M316.364 234.361C316.364 231.694 314.836 229.397 312.387 229.397C309.939 229.397 308.384 231.721 308.384 234.389C308.384 237.057 309.911 239.354 312.36 239.354C314.809 239.354 316.364 237.029 316.364 234.361ZM315.621 234.389C315.621 236.644 314.382 238.707 312.387 238.707C310.393 238.707 309.127 236.617 309.127 234.361C309.127 232.106 310.365 230.043 312.36 230.043C314.355 230.043 315.621 232.134 315.621 234.389Z" fill="black" fill-opacity="0.5"/>
<path d="M326.132 234.361C326.132 231.694 324.604 229.397 322.155 229.397C319.706 229.397 318.152 231.721 318.152 234.389C318.152 237.057 319.679 239.354 322.128 239.354C324.577 239.354 326.132 237.029 326.132 234.361ZM325.389 234.389C325.389 236.644 324.15 238.707 322.155 238.707C320.16 238.707 318.895 236.617 318.895 234.361C318.895 232.106 320.133 230.043 322.128 230.043C324.123 230.043 325.389 232.134 325.389 234.389Z" fill="black" fill-opacity="0.5"/>
<path d="M335.899 234.361C335.899 231.694 334.372 229.397 331.923 229.397C329.474 229.397 327.92 231.721 327.92 234.389C327.92 237.057 329.447 239.354 331.896 239.354C334.345 239.354 335.899 237.029 335.899 234.361ZM335.157 234.389C335.157 236.644 333.918 238.707 331.923 238.707C329.928 238.707 328.663 236.617 328.663 234.361C328.663 232.106 329.901 230.043 331.896 230.043C333.891 230.043 335.157 232.134 335.157 234.389Z" fill="black" fill-opacity="0.5"/>
<path d="M269.206 259.726L268.602 259.114C268.373 259.328 268.141 259.499 267.907 259.626C267.672 259.748 267.392 259.81 267.066 259.81C266.811 259.81 266.574 259.761 266.355 259.664C266.141 259.563 265.955 259.425 265.797 259.252C265.639 259.079 265.517 258.877 265.43 258.648C265.343 258.414 265.3 258.164 265.3 257.9C265.3 257.635 265.343 257.388 265.43 257.158C265.517 256.929 265.639 256.731 265.797 256.562C265.955 256.389 266.141 256.254 266.355 256.158C266.574 256.056 266.811 256.005 267.066 256.005C267.371 256.005 267.644 256.066 267.884 256.188C268.123 256.31 268.35 256.471 268.564 256.669L269.168 255.974C269.04 255.852 268.905 255.74 268.763 255.638C268.62 255.536 268.465 255.45 268.296 255.378C268.128 255.302 267.942 255.243 267.738 255.203C267.54 255.162 267.318 255.141 267.073 255.141C266.666 255.141 266.294 255.215 265.957 255.363C265.621 255.506 265.331 255.704 265.086 255.959C264.841 256.209 264.65 256.501 264.513 256.838C264.38 257.174 264.314 257.533 264.314 257.915C264.314 258.302 264.383 258.664 264.52 259C264.658 259.336 264.847 259.629 265.086 259.878C265.331 260.123 265.619 260.316 265.95 260.459C266.281 260.602 266.643 260.673 267.035 260.673C267.285 260.673 267.512 260.65 267.715 260.604C267.924 260.563 268.115 260.502 268.289 260.421C268.462 260.334 268.622 260.235 268.77 260.123C268.923 260.006 269.068 259.873 269.206 259.726Z" fill="black" fill-opacity="0.5"/>
<path d="M274.688 255.233H273.748V258.312C273.748 258.806 273.629 259.178 273.389 259.428C273.15 259.677 272.821 259.802 272.403 259.802C271.98 259.802 271.649 259.672 271.409 259.412C271.17 259.153 271.05 258.773 271.05 258.274V255.233H270.11V258.312C270.11 258.699 270.164 259.04 270.271 259.336C270.378 259.626 270.53 259.871 270.729 260.069C270.928 260.268 271.167 260.418 271.448 260.52C271.728 260.617 272.041 260.665 272.388 260.665C272.739 260.665 273.055 260.617 273.336 260.52C273.621 260.418 273.863 260.268 274.062 260.069C274.26 259.866 274.413 259.613 274.52 259.313C274.632 259.012 274.688 258.664 274.688 258.266V255.233Z" fill="black" fill-opacity="0.5"/>
<path d="M280.519 260.581L279.075 258.557C279.263 258.506 279.434 258.434 279.587 258.343C279.745 258.246 279.88 258.131 279.992 257.999C280.104 257.861 280.191 257.706 280.252 257.533C280.318 257.355 280.351 257.153 280.351 256.929C280.351 256.669 280.305 256.435 280.214 256.226C280.122 256.012 279.989 255.834 279.816 255.692C279.648 255.544 279.439 255.432 279.189 255.355C278.945 255.274 278.67 255.233 278.364 255.233H275.979V260.581H276.919V258.717H278.096L279.411 260.581H280.519ZM279.396 256.983C279.396 257.258 279.296 257.477 279.098 257.64C278.899 257.803 278.631 257.884 278.295 257.884H276.919V256.089H278.287C278.639 256.089 278.912 256.165 279.105 256.318C279.299 256.466 279.396 256.687 279.396 256.983Z" fill="black" fill-opacity="0.5"/>
<path d="M286.043 260.581L284.598 258.557C284.787 258.506 284.958 258.434 285.11 258.343C285.268 258.246 285.403 258.131 285.516 257.999C285.628 257.861 285.714 257.706 285.775 257.533C285.842 257.355 285.875 257.153 285.875 256.929C285.875 256.669 285.829 256.435 285.737 256.226C285.645 256.012 285.513 255.834 285.34 255.692C285.172 255.544 284.963 255.432 284.713 255.355C284.468 255.274 284.193 255.233 283.887 255.233H281.503V260.581H282.443V258.717H283.62L284.935 260.581H286.043ZM284.919 256.983C284.919 257.258 284.82 257.477 284.621 257.64C284.422 257.803 284.155 257.884 283.819 257.884H282.443V256.089H283.811C284.163 256.089 284.435 256.165 284.629 256.318C284.823 256.466 284.919 256.687 284.919 256.983Z" fill="black" fill-opacity="0.5"/>
<path d="M290.993 255.233H287.026V260.581H291.032V259.741H287.966V258.304H290.649V257.464H287.966V256.074H290.993V255.233Z" fill="black" fill-opacity="0.5"/>
<path d="M295.885 258.931L293.018 255.233H292.147V260.581H293.072V256.776L296.022 260.581H296.809V255.233H295.885V258.931Z" fill="black" fill-opacity="0.5"/>
<path d="M300.448 256.104H302.145V255.233H297.803V256.104H299.5V260.581H300.448V256.104Z" fill="black" fill-opacity="0.5"/>
<path d="M309.974 260.581L308.529 258.557C308.718 258.506 308.888 258.434 309.041 258.343C309.199 258.246 309.334 258.131 309.446 257.999C309.558 257.861 309.645 257.706 309.706 257.533C309.773 257.355 309.806 257.153 309.806 256.929C309.806 256.669 309.76 256.435 309.668 256.226C309.576 256.012 309.444 255.834 309.271 255.692C309.102 255.544 308.893 255.432 308.644 255.355C308.399 255.274 308.124 255.233 307.818 255.233H305.434V260.581H306.374V258.717H307.551L308.865 260.581H309.974ZM308.85 256.983C308.85 257.258 308.751 257.477 308.552 257.64C308.353 257.803 308.086 257.884 307.75 257.884H306.374V256.089H307.742C308.093 256.089 308.366 256.165 308.56 256.318C308.753 256.466 308.85 256.687 308.85 256.983Z" fill="black" fill-opacity="0.5"/>
<path d="M314.924 255.233H310.957V260.581H314.962V259.741H311.897V258.304H314.58V257.464H311.897V256.074H314.924V255.233Z" fill="black" fill-opacity="0.5"/>
<path d="M319.815 258.931L316.949 255.233H316.078V260.581H317.003V256.776L319.953 260.581H320.74V255.233H319.815V258.931Z" fill="black" fill-opacity="0.5"/>
<path d="M324.379 256.104H326.076V255.233H321.734V256.104H323.431V260.581H324.379V256.104Z" fill="black" fill-opacity="0.5"/>
<path d="M272.806 281.622V280.976H271.155L271.582 278.459H270.921L270.495 280.976H267.647L268.073 278.459H267.413L266.986 280.976H265.088V281.622H266.876L266.312 284.868H264.537V285.514H266.202L265.762 288.086H266.422L266.862 285.514H269.71L269.27 288.086H269.931L270.371 285.514H272.256V284.868H270.481L271.045 281.622H272.806ZM270.385 281.622L269.82 284.868H266.972L267.537 281.622H270.385Z" fill="black" fill-opacity="0.5"/>
<path d="M283.785 278.391L278.282 285.198L278.53 285.734H283.744V288.086H284.432V285.734H286V285.116H284.432V278.391H283.785ZM283.744 285.116H279.149L283.744 279.422V285.116Z" fill="black" fill-opacity="0.5"/>
<path d="M293.045 279.133L289.73 282.956L289.909 283.355H290.431C292.165 283.355 293.431 284.098 293.431 285.459C293.431 286.738 292.344 287.605 291.051 287.605C289.785 287.605 288.822 287.041 288.051 286.065L287.501 286.518C288.285 287.536 289.468 288.251 291.037 288.251C292.702 288.251 294.174 287.123 294.174 285.432C294.174 283.658 292.591 282.805 290.762 282.695L294.022 278.968V278.459H287.996V279.133H293.045Z" fill="black" fill-opacity="0.5"/>
<path d="M304.029 283.259C304.029 280.591 302.502 278.294 300.053 278.294C297.604 278.294 296.05 280.619 296.05 283.287C296.05 285.954 297.577 288.251 300.026 288.251C302.475 288.251 304.029 285.927 304.029 283.259ZM303.287 283.287C303.287 285.542 302.048 287.605 300.053 287.605C298.058 287.605 296.793 285.514 296.793 283.259C296.793 281.004 298.031 278.941 300.026 278.941C302.021 278.941 303.287 281.031 303.287 283.287Z" fill="black" fill-opacity="0.5"/>
<path d="M305.384 289.214L305.549 289.558C306.374 289.241 306.691 288.787 306.691 287.935V286.917H305.783V288.086H306.154C306.195 288.609 305.975 288.911 305.384 289.214Z" fill="black" fill-opacity="0.5"/>
<path d="M316.431 283.259C316.431 280.591 314.904 278.294 312.455 278.294C310.006 278.294 308.451 280.619 308.451 283.287C308.451 285.954 309.978 288.251 312.427 288.251C314.876 288.251 316.431 285.927 316.431 283.259ZM315.688 283.287C315.688 285.542 314.45 287.605 312.455 287.605C310.46 287.605 309.194 285.514 309.194 283.259C309.194 281.004 310.432 278.941 312.427 278.941C314.422 278.941 315.688 281.031 315.688 283.287Z" fill="black" fill-opacity="0.5"/>
<path d="M326.199 283.259C326.199 280.591 324.672 278.294 322.223 278.294C319.774 278.294 318.219 280.619 318.219 283.287C318.219 285.954 319.746 288.251 322.195 288.251C324.644 288.251 326.199 285.927 326.199 283.259ZM325.456 283.287C325.456 285.542 324.218 287.605 322.223 287.605C320.228 287.605 318.962 285.514 318.962 283.259C318.962 281.004 320.2 278.941 322.195 278.941C324.19 278.941 325.456 281.031 325.456 283.287Z" fill="black" fill-opacity="0.5"/>
<path d="M335.967 283.259C335.967 280.591 334.439 278.294 331.991 278.294C329.542 278.294 327.987 280.619 327.987 283.287C327.987 285.954 329.514 288.251 331.963 288.251C334.412 288.251 335.967 285.927 335.967 283.259ZM335.224 283.287C335.224 285.542 333.985 287.605 331.991 287.605C329.996 287.605 328.73 285.514 328.73 283.259C328.73 281.004 329.968 278.941 331.963 278.941C333.958 278.941 335.224 281.031 335.224 283.287Z" fill="black" fill-opacity="0.5"/>
<path d="M55.4581 96.0606L52.8644 88H50.7988L54.5884 98.9493H56.2347L58.906 91.1372L61.5773 98.9493H63.2236L67.0132 88H65.0097L62.416 96.0606L59.7447 87.9689H58.1295L55.4581 96.0606Z" fill="#83BF4F"/>
<path d="M70.5785 89.4133V87.6272H68.5595V89.4133H70.5785ZM70.5164 98.8717V90.6713H68.6371V98.8717H70.5164Z" fill="#83BF4F"/>
<path d="M75.2399 92.2865H77.4453V90.6713H75.2399V88.4193H73.3606V90.6713H72.32V92.2865H73.3606V96.6041C73.3606 97.0597 73.4176 97.4428 73.5314 97.7534C73.6453 98.0537 73.8058 98.297 74.0129 98.4834C74.2303 98.6698 74.484 98.8044 74.7739 98.8872C75.0638 98.97 75.3796 99.0115 75.7213 99.0115C76.0734 99.0115 76.384 98.9752 76.6532 98.9027C76.9224 98.8303 77.1761 98.7267 77.4142 98.5921V97.0545C77.0414 97.2409 76.6532 97.3341 76.2494 97.3341C75.9284 97.3341 75.6799 97.2565 75.5039 97.1011C75.3279 96.9355 75.2399 96.6715 75.2399 96.3091V92.2865Z" fill="#83BF4F"/>
<path d="M81.2217 94.2434C81.2217 93.6015 81.3926 93.1045 81.7342 92.7525C82.0759 92.3901 82.5211 92.2089 83.0699 92.2089C83.629 92.2089 84.0587 92.3849 84.359 92.7369C84.6696 93.0786 84.8249 93.5704 84.8249 94.2124V98.8717H86.7041V93.6533C86.7041 92.6903 86.4505 91.9241 85.9431 91.3547C85.4358 90.7852 84.7162 90.5005 83.7843 90.5005C83.4633 90.5005 83.1734 90.5419 82.9146 90.6247C82.6661 90.6972 82.4331 90.8007 82.2157 90.9353C82.0086 91.0699 81.8222 91.2253 81.6566 91.4013C81.5013 91.5669 81.3563 91.7481 81.2217 91.9449V87.5341H79.3425V98.8717H81.2217V94.2434Z" fill="#83BF4F"/>
<path d="M91.0236 89.4133V87.6272H89.0046V89.4133H91.0236ZM90.9615 98.8717V90.6713H89.0822V98.8717H90.9615Z" fill="#83BF4F"/>
<path d="M95.2967 94.2434C95.2967 93.6015 95.4675 93.1045 95.8092 92.7525C96.1509 92.3901 96.5961 92.2089 97.1448 92.2089C97.704 92.2089 98.1337 92.3849 98.4339 92.7369C98.7445 93.0786 98.8998 93.5704 98.8998 94.2124V98.8717H100.779V93.6533C100.779 92.6903 100.525 91.9241 100.018 91.3547C99.5107 90.7852 98.7911 90.5005 97.8593 90.5005C97.5383 90.5005 97.2484 90.5419 96.9895 90.6247C96.741 90.6972 96.5081 90.8007 96.2906 90.9353C96.0836 91.0699 95.8972 91.2253 95.7315 91.4013C95.5762 91.5669 95.4313 91.7481 95.2967 91.9449V90.6713H93.4174V98.8717H95.2967V94.2434Z" fill="#83BF4F"/>
<path d="M114.523 91.9449C114.305 91.51 113.99 91.1631 113.575 90.9043C113.172 90.6351 112.675 90.5005 112.084 90.5005C111.774 90.5005 111.489 90.5419 111.23 90.6247C110.982 90.6972 110.754 90.8007 110.547 90.9353C110.35 91.0699 110.174 91.2201 110.019 91.3857C109.864 91.5514 109.719 91.7274 109.584 91.9138V90.6713H107.705V98.8717H109.584V94.259C109.584 93.617 109.744 93.1149 110.065 92.7525C110.386 92.3901 110.811 92.2089 111.339 92.2089C111.867 92.2089 112.276 92.3797 112.566 92.7214C112.856 93.0631 113.001 93.5549 113.001 94.1968V98.8717H114.88V94.2434C114.88 93.5808 115.04 93.0786 115.361 92.7369C115.693 92.3849 116.117 92.2089 116.635 92.2089C117.163 92.2089 117.572 92.3797 117.862 92.7214C118.152 93.0631 118.297 93.5601 118.297 94.2124V98.8717H120.176V93.6377C120.176 92.6334 119.922 91.862 119.415 91.3236C118.908 90.7749 118.204 90.5005 117.303 90.5005C116.682 90.5005 116.143 90.6351 115.688 90.9043C115.242 91.1631 114.854 91.51 114.523 91.9449Z" fill="#83BF4F"/>
<path d="M129.342 98.8717V94.0105C129.342 92.913 129.047 92.0639 128.457 91.4634C127.867 90.8525 126.961 90.5471 125.739 90.5471C125.066 90.5471 124.492 90.6092 124.015 90.7334C123.539 90.8577 123.073 91.0234 122.617 91.2304L123.13 92.7369C123.503 92.5816 123.87 92.4574 124.233 92.3642C124.595 92.271 125.009 92.2244 125.475 92.2244C126.127 92.2244 126.624 92.3745 126.966 92.6748C127.318 92.9751 127.494 93.4099 127.494 93.9794V94.1813C127.173 94.0778 126.837 93.9949 126.485 93.9328C126.143 93.8707 125.724 93.8396 125.227 93.8396C124.75 93.8396 124.305 93.8966 123.891 94.0105C123.487 94.114 123.135 94.2745 122.835 94.4919C122.545 94.7094 122.317 94.9838 122.152 95.3151C121.986 95.6464 121.903 96.0347 121.903 96.4799V96.511C121.903 96.9251 121.981 97.2927 122.136 97.6137C122.302 97.9243 122.514 98.1883 122.773 98.4057C123.042 98.6128 123.353 98.7681 123.705 98.8717C124.057 98.9856 124.429 99.0425 124.823 99.0425C125.444 99.0425 125.972 98.9286 126.407 98.7008C126.842 98.473 127.199 98.1935 127.479 97.8622V98.8717H129.342ZM127.525 95.9053C127.525 96.1641 127.468 96.4022 127.354 96.6197C127.251 96.8268 127.101 97.008 126.904 97.1633C126.707 97.3082 126.474 97.4221 126.205 97.5049C125.946 97.5878 125.662 97.6292 125.351 97.6292C124.906 97.6292 124.528 97.5257 124.217 97.3186C123.917 97.1115 123.767 96.8112 123.767 96.4178V96.3867C123.767 95.9622 123.932 95.6361 124.264 95.4083C124.595 95.1805 125.056 95.0666 125.646 95.0666C126.008 95.0666 126.35 95.0976 126.671 95.1598C127.002 95.2219 127.287 95.2995 127.525 95.3927V95.9053Z" fill="#83BF4F"/>
<path d="M133.457 95.7499C133.457 95.2115 133.524 94.7404 133.659 94.3366C133.793 93.9225 133.985 93.5808 134.233 93.3116C134.482 93.0424 134.777 92.8405 135.119 92.7059C135.46 92.5713 135.838 92.504 136.252 92.504H136.361V90.516C135.636 90.4849 135.036 90.6558 134.559 91.0285C134.083 91.4013 133.716 91.8983 133.457 92.5195V90.6713H131.578V98.8717H133.457V95.7499Z" fill="#83BF4F"/>
<path d="M142.295 94.0105L145.557 90.6713H143.274L139.872 94.3056V87.5341H137.993V98.8717H139.872V96.5265L141.022 95.3306L143.491 98.8717H145.665L142.295 94.0105Z" fill="#83BF4F"/>
<path d="M148.067 95.4393H154.093C154.104 95.3461 154.109 95.2581 154.109 95.1753C154.119 95.0925 154.124 95.0096 154.124 94.9268C154.124 94.3366 154.041 93.7723 153.876 93.2339C153.71 92.6955 153.462 92.2244 153.13 91.8206C152.809 91.4168 152.4 91.0958 151.903 90.8577C151.417 90.6195 150.847 90.5005 150.195 90.5005C149.605 90.5005 149.066 90.6144 148.58 90.8422C148.093 91.0699 147.669 91.3806 147.306 91.774C146.954 92.1571 146.68 92.6075 146.483 93.1252C146.286 93.6429 146.188 94.1968 146.188 94.787C146.188 95.429 146.297 96.014 146.514 96.542C146.731 97.0597 147.027 97.5049 147.399 97.8777C147.782 98.2504 148.228 98.5403 148.735 98.7474C149.253 98.9545 149.807 99.058 150.397 99.058C151.153 99.058 151.8 98.9183 152.338 98.6387C152.887 98.3591 153.358 97.9864 153.751 97.5205L152.649 96.542C152.317 96.863 151.981 97.1063 151.639 97.272C151.298 97.4376 150.894 97.5205 150.428 97.5205C149.817 97.5205 149.299 97.3445 148.875 96.9924C148.45 96.63 148.181 96.1123 148.067 95.4393ZM148.052 94.1968C148.134 93.5549 148.362 93.0372 148.735 92.6437C149.118 92.2399 149.6 92.038 150.179 92.038C150.49 92.038 150.764 92.095 151.003 92.2089C151.251 92.3228 151.463 92.4781 151.639 92.6748C151.815 92.8612 151.955 93.089 152.059 93.3582C152.162 93.617 152.229 93.8966 152.261 94.1968H148.052Z" fill="#83BF4F"/>
<path d="M158.279 92.2865H160.484V90.6713H158.279V88.4193H156.4V90.6713H155.359V92.2865H156.4V96.6041C156.4 97.0597 156.457 97.4428 156.571 97.7534C156.685 98.0537 156.845 98.297 157.052 98.4834C157.27 98.6698 157.523 98.8044 157.813 98.8872C158.103 98.97 158.419 99.0115 158.76 99.0115C159.113 99.0115 159.423 98.9752 159.692 98.9027C159.962 98.8303 160.215 98.7267 160.453 98.5921V97.0545C160.081 97.2409 159.692 97.3341 159.289 97.3341C158.968 97.3341 158.719 97.2565 158.543 97.1011C158.367 96.9355 158.279 96.6715 158.279 96.3091V92.2865Z" fill="#83BF4F"/>
<path d="M55.8908 349.939V354.27H56.9521V348.23H55.8218L53.9839 351.086L52.1461 348.23H51.0158V354.27H52.0598V349.956L53.9494 352.786H53.9839L55.8908 349.939Z" fill="#83BF4F"/>
<path d="M59.5247 349.015V348.023H58.4031V349.015H59.5247ZM59.4902 354.27V349.714H58.4462V354.27H59.4902Z" fill="#83BF4F"/>
<path d="M61.8987 351.699C61.8987 351.342 61.9936 351.066 62.1834 350.871C62.3732 350.669 62.6206 350.569 62.9255 350.569C63.2361 350.569 63.4748 350.666 63.6416 350.862C63.8142 351.052 63.9005 351.325 63.9005 351.682V354.27H64.9445V351.371C64.9445 350.836 64.8035 350.41 64.5217 350.094C64.2398 349.778 63.8401 349.619 63.3224 349.619C63.144 349.619 62.983 349.642 62.8392 349.688C62.7011 349.729 62.5717 349.786 62.4509 349.861C62.3358 349.936 62.2323 350.022 62.1403 350.12C62.054 350.212 61.9735 350.313 61.8987 350.422V349.714H60.8547V354.27H61.8987V351.699Z" fill="#83BF4F"/>
<path d="M67.3269 350.896V349.714H66.1793V350.896H67.3269ZM67.3269 354.27V353.088H66.1793V354.27H67.3269Z" fill="#83BF4F"/>
<path d="M76.2408 350.482V349.585H75.4729L75.7059 348.23H74.7827L74.5583 349.585H73.1433L73.3762 348.23H72.453L72.22 349.585H71.2019V350.482H72.0647L71.8145 351.984H70.8827V352.881H71.6592L71.4176 354.27H72.3408L72.5738 352.881H73.9888L73.7473 354.27H74.6705L74.9121 352.881H75.9302V351.984H75.0674L75.3176 350.482H76.2408ZM74.403 350.482L74.1442 351.984H72.7291L72.988 350.482H74.403Z" fill="#83BF4F"/>
<path d="M80.2547 348.187L76.8983 352.156L77.0967 352.915H80.1425V354.27H81.1607V352.915H82.0235V352.044H81.1607V348.187H80.2547ZM80.1425 352.044H78.158L80.1425 349.654V352.044Z" fill="#83BF4F"/>
<path d="M88.2157 351.242C88.2157 350.81 88.1525 350.405 88.0259 350.025C87.9051 349.645 87.7297 349.315 87.4996 349.033C87.2695 348.751 86.9934 348.529 86.6713 348.368C86.3491 348.207 85.9896 348.127 85.5927 348.127C85.1958 348.127 84.8334 348.21 84.5056 348.377C84.1834 348.538 83.9073 348.759 83.6772 349.041C83.4472 349.323 83.2688 349.657 83.1423 350.042C83.0157 350.422 82.9525 350.827 82.9525 351.259C82.9525 351.69 83.0129 352.096 83.1337 352.475C83.2602 352.855 83.4385 353.186 83.6686 353.468C83.8987 353.75 84.1748 353.971 84.4969 354.132C84.8191 354.293 85.1786 354.374 85.5755 354.374C85.9724 354.374 86.3319 354.293 86.654 354.132C86.9819 353.965 87.2609 353.741 87.491 353.459C87.721 353.177 87.8994 352.846 88.0259 352.467C88.1525 352.081 88.2157 351.673 88.2157 351.242ZM87.1199 351.259C87.1199 351.558 87.0826 351.84 87.0078 352.104C86.9387 352.363 86.8381 352.59 86.7058 352.786C86.5735 352.982 86.4124 353.137 86.2226 353.252C86.0385 353.361 85.8286 353.416 85.5927 353.416C85.3569 353.416 85.1441 353.361 84.9542 353.252C84.7644 353.137 84.6005 352.982 84.4624 352.786C84.3301 352.585 84.2266 352.355 84.1518 352.096C84.0828 351.831 84.0483 351.546 84.0483 351.242C84.0483 350.942 84.0828 350.661 84.1518 350.396C84.2266 350.131 84.3301 349.904 84.4624 349.714C84.5947 349.519 84.7529 349.366 84.937 349.257C85.1268 349.142 85.3396 349.084 85.5755 349.084C85.8113 349.084 86.0241 349.142 86.214 349.257C86.4038 349.372 86.5648 349.527 86.6972 349.723C86.8352 349.919 86.9387 350.149 87.0078 350.413C87.0826 350.678 87.1199 350.96 87.1199 351.259Z" fill="#83BF4F"/>
<path d="M94.4595 351.242C94.4595 350.81 94.3962 350.405 94.2696 350.025C94.1489 349.645 93.9734 349.315 93.7433 349.033C93.5132 348.751 93.2371 348.529 92.915 348.368C92.5929 348.207 92.2334 348.127 91.8365 348.127C91.4396 348.127 91.0772 348.21 90.7493 348.377C90.4272 348.538 90.1511 348.759 89.921 349.041C89.6909 349.323 89.5126 349.657 89.386 350.042C89.2595 350.422 89.1962 350.827 89.1962 351.259C89.1962 351.69 89.2566 352.096 89.3774 352.475C89.5039 352.855 89.6823 353.186 89.9123 353.468C90.1424 353.75 90.4185 353.971 90.7407 354.132C91.0628 354.293 91.4223 354.374 91.8192 354.374C92.2161 354.374 92.5756 354.293 92.8977 354.132C93.2256 353.965 93.5046 353.741 93.7347 353.459C93.9648 353.177 94.1431 352.846 94.2696 352.467C94.3962 352.081 94.4595 351.673 94.4595 351.242ZM93.3637 351.259C93.3637 351.558 93.3263 351.84 93.2515 352.104C93.1825 352.363 93.0818 352.59 92.9495 352.786C92.8172 352.982 92.6562 353.137 92.4663 353.252C92.2823 353.361 92.0723 353.416 91.8365 353.416C91.6006 353.416 91.3878 353.361 91.198 353.252C91.0081 353.137 90.8442 352.982 90.7062 352.786C90.5739 352.585 90.4703 352.355 90.3955 352.096C90.3265 351.831 90.292 351.546 90.292 351.242C90.292 350.942 90.3265 350.661 90.3955 350.396C90.4703 350.131 90.5739 349.904 90.7062 349.714C90.8385 349.519 90.9966 349.366 91.1807 349.257C91.3705 349.142 91.5834 349.084 91.8192 349.084C92.055 349.084 92.2679 349.142 92.4577 349.257C92.6475 349.372 92.8086 349.527 92.9409 349.723C93.0789 349.919 93.1825 350.149 93.2515 350.413C93.3263 350.678 93.3637 350.96 93.3637 351.259Z" fill="#83BF4F"/>
<path d="M95.073 355.081L95.1851 355.521C95.6223 355.487 95.953 355.36 96.1774 355.142C96.4017 354.923 96.5139 354.572 96.5139 354.089V353.088H95.3663V354.27H95.8064C95.8466 354.707 95.6022 354.978 95.073 355.081Z" fill="#83BF4F"/>
<path d="M102.683 351.242C102.683 350.81 102.62 350.405 102.494 350.025C102.373 349.645 102.197 349.315 101.967 349.033C101.737 348.751 101.461 348.529 101.139 348.368C100.817 348.207 100.457 348.127 100.06 348.127C99.6634 348.127 99.301 348.21 98.9732 348.377C98.651 348.538 98.3749 348.759 98.1448 349.041C97.9148 349.323 97.7364 349.657 97.6099 350.042C97.4833 350.422 97.4201 350.827 97.4201 351.259C97.4201 351.69 97.4805 352.096 97.6013 352.475C97.7278 352.855 97.9061 353.186 98.1362 353.468C98.3663 353.75 98.6424 353.971 98.9645 354.132C99.2867 354.293 99.6462 354.374 100.043 354.374C100.44 354.374 100.799 354.293 101.122 354.132C101.449 353.965 101.728 353.741 101.959 353.459C102.189 353.177 102.367 352.846 102.494 352.467C102.62 352.081 102.683 351.673 102.683 351.242ZM101.588 351.259C101.588 351.558 101.55 351.84 101.475 352.104C101.406 352.363 101.306 352.59 101.173 352.786C101.041 352.982 100.88 353.137 100.69 353.252C100.506 353.361 100.296 353.416 100.06 353.416C99.8245 353.416 99.6117 353.361 99.4218 353.252C99.232 353.137 99.0681 352.982 98.93 352.786C98.7977 352.585 98.6942 352.355 98.6194 352.096C98.5504 351.831 98.5159 351.546 98.5159 351.242C98.5159 350.942 98.5504 350.661 98.6194 350.396C98.6942 350.131 98.7977 349.904 98.93 349.714C99.0623 349.519 99.2205 349.366 99.4046 349.257C99.5944 349.142 99.8072 349.084 100.043 349.084C100.279 349.084 100.492 349.142 100.682 349.257C100.871 349.372 101.032 349.527 101.165 349.723C101.303 349.919 101.406 350.149 101.475 350.413C101.55 350.678 101.588 350.96 101.588 351.259Z" fill="#83BF4F"/>
<path d="M108.927 351.242C108.927 350.81 108.864 350.405 108.737 350.025C108.616 349.645 108.441 349.315 108.211 349.033C107.981 348.751 107.705 348.529 107.383 348.368C107.06 348.207 106.701 348.127 106.304 348.127C105.907 348.127 105.545 348.21 105.217 348.377C104.895 348.538 104.619 348.759 104.389 349.041C104.158 349.323 103.98 349.657 103.854 350.042C103.727 350.422 103.664 350.827 103.664 351.259C103.664 351.69 103.724 352.096 103.845 352.475C103.972 352.855 104.15 353.186 104.38 353.468C104.61 353.75 104.886 353.971 105.208 354.132C105.53 354.293 105.89 354.374 106.287 354.374C106.684 354.374 107.043 354.293 107.365 354.132C107.693 353.965 107.972 353.741 108.202 353.459C108.432 353.177 108.611 352.846 108.737 352.467C108.864 352.081 108.927 351.673 108.927 351.242ZM107.831 351.259C107.831 351.558 107.794 351.84 107.719 352.104C107.65 352.363 107.549 352.59 107.417 352.786C107.285 352.982 107.124 353.137 106.934 353.252C106.75 353.361 106.54 353.416 106.304 353.416C106.068 353.416 105.855 353.361 105.666 353.252C105.476 353.137 105.312 352.982 105.174 352.786C105.041 352.585 104.938 352.355 104.863 352.096C104.794 351.831 104.76 351.546 104.76 351.242C104.76 350.942 104.794 350.661 104.863 350.396C104.938 350.131 105.041 349.904 105.174 349.714C105.306 349.519 105.464 349.366 105.648 349.257C105.838 349.142 106.051 349.084 106.287 349.084C106.523 349.084 106.735 349.142 106.925 349.257C107.115 349.372 107.276 349.527 107.408 349.723C107.547 349.919 107.65 350.149 107.719 350.413C107.794 350.678 107.831 350.96 107.831 351.259Z" fill="#83BF4F"/>
<path d="M115.171 351.242C115.171 350.81 115.108 350.405 114.981 350.025C114.86 349.645 114.685 349.315 114.455 349.033C114.225 348.751 113.948 348.529 113.626 348.368C113.304 348.207 112.945 348.127 112.548 348.127C112.151 348.127 111.789 348.21 111.461 348.377C111.139 348.538 110.862 348.759 110.632 349.041C110.402 349.323 110.224 349.657 110.097 350.042C109.971 350.422 109.908 350.827 109.908 351.259C109.908 351.69 109.968 352.096 110.089 352.475C110.215 352.855 110.394 353.186 110.624 353.468C110.854 353.75 111.13 353.971 111.452 354.132C111.774 354.293 112.134 354.374 112.531 354.374C112.927 354.374 113.287 354.293 113.609 354.132C113.937 353.965 114.216 353.741 114.446 353.459C114.676 353.177 114.854 352.846 114.981 352.467C115.108 352.081 115.171 351.673 115.171 351.242ZM114.075 351.259C114.075 351.558 114.038 351.84 113.963 352.104C113.894 352.363 113.793 352.59 113.661 352.786C113.529 352.982 113.367 353.137 113.178 353.252C112.994 353.361 112.784 353.416 112.548 353.416C112.312 353.416 112.099 353.361 111.909 353.252C111.719 353.137 111.556 352.982 111.417 352.786C111.285 352.585 111.182 352.355 111.107 352.096C111.038 351.831 111.003 351.546 111.003 351.242C111.003 350.942 111.038 350.661 111.107 350.396C111.182 350.131 111.285 349.904 111.417 349.714C111.55 349.519 111.708 349.366 111.892 349.257C112.082 349.142 112.295 349.084 112.531 349.084C112.766 349.084 112.979 349.142 113.169 349.257C113.359 349.372 113.52 349.527 113.652 349.723C113.79 349.919 113.894 350.149 113.963 350.413C114.038 350.678 114.075 350.96 114.075 351.259Z" fill="#83BF4F"/>
<path d="M121.283 352.139V351.112H118.729V352.139H121.283Z" fill="#83BF4F"/>
<path d="M130.007 349.939V354.27H131.068V348.23H129.938L128.1 351.086L126.262 348.23H125.132V354.27H126.176V349.956L128.065 352.786H128.1L130.007 349.939Z" fill="#83BF4F"/>
<path d="M136.324 354.27V351.569C136.324 350.96 136.16 350.488 135.832 350.154C135.504 349.815 135.001 349.645 134.322 349.645C133.948 349.645 133.629 349.68 133.365 349.749C133.1 349.818 132.841 349.91 132.588 350.025L132.873 350.862C133.08 350.776 133.284 350.707 133.485 350.655C133.687 350.603 133.917 350.577 134.176 350.577C134.538 350.577 134.814 350.661 135.004 350.827C135.2 350.994 135.297 351.236 135.297 351.552V351.664C135.119 351.607 134.932 351.561 134.736 351.526C134.547 351.492 134.314 351.475 134.038 351.475C133.773 351.475 133.526 351.506 133.296 351.569C133.071 351.627 132.876 351.716 132.709 351.837C132.548 351.958 132.421 352.11 132.329 352.294C132.237 352.478 132.191 352.694 132.191 352.941V352.959C132.191 353.189 132.234 353.393 132.321 353.571C132.413 353.744 132.531 353.89 132.674 354.011C132.824 354.126 132.996 354.213 133.192 354.27C133.388 354.333 133.595 354.365 133.813 354.365C134.158 354.365 134.452 354.302 134.693 354.175C134.935 354.049 135.133 353.893 135.289 353.709V354.27H136.324ZM135.315 352.622C135.315 352.766 135.283 352.898 135.22 353.019C135.162 353.134 135.079 353.235 134.969 353.321C134.86 353.402 134.731 353.465 134.581 353.511C134.437 353.557 134.279 353.58 134.107 353.58C133.859 353.58 133.649 353.522 133.477 353.407C133.31 353.292 133.227 353.125 133.227 352.907V352.89C133.227 352.654 133.319 352.473 133.503 352.346C133.687 352.219 133.943 352.156 134.271 352.156C134.472 352.156 134.662 352.173 134.84 352.208C135.024 352.242 135.182 352.286 135.315 352.337V352.622Z" fill="#83BF4F"/>
<path d="M139.973 351.932L141.587 349.714H140.474L139.421 351.216L138.368 349.714H137.229L138.843 351.958L137.169 354.27H138.282L139.395 352.674L140.517 354.27H141.656L139.973 351.932Z" fill="#83BF4F"/>
<path d="M143.693 350.896V349.714H142.545V350.896H143.693ZM143.693 354.27V353.088H142.545V354.27H143.693Z" fill="#83BF4F"/>
<path d="M150.02 350.482V349.585H149.252L149.485 348.23H148.562L148.337 349.585H146.922L147.155 348.23H146.232L145.999 349.585H144.981V350.482H145.844L145.593 351.984H144.662V352.881H145.438L145.196 354.27H146.12L146.353 352.881H147.768L147.526 354.27H148.449L148.691 352.881H149.709V351.984H148.846L149.096 350.482H150.02ZM148.182 350.482L147.923 351.984H146.508L146.767 350.482H148.182Z" fill="#83BF4F"/>
<path d="M151.178 351.19L151.816 351.613C151.971 351.538 152.141 351.475 152.325 351.423C152.509 351.371 152.711 351.345 152.929 351.345C153.309 351.345 153.611 351.437 153.835 351.621C154.065 351.8 154.18 352.044 154.18 352.355C154.18 352.677 154.071 352.933 153.852 353.123C153.634 353.312 153.343 353.407 152.981 353.407C152.699 353.407 152.429 353.344 152.17 353.217C151.917 353.085 151.669 352.907 151.428 352.682L150.772 353.45C151.06 353.727 151.385 353.951 151.747 354.123C152.109 354.29 152.524 354.374 152.99 354.374C153.323 354.374 153.628 354.325 153.904 354.227C154.18 354.129 154.416 353.991 154.612 353.813C154.807 353.634 154.957 353.419 155.06 353.166C155.17 352.913 155.224 352.631 155.224 352.32C155.224 351.998 155.17 351.719 155.06 351.483C154.957 351.242 154.81 351.043 154.62 350.888C154.43 350.727 154.206 350.609 153.947 350.534C153.694 350.454 153.421 350.413 153.128 350.413C152.926 350.413 152.751 350.43 152.601 350.465C152.457 350.494 152.314 350.534 152.17 350.586L152.265 349.171H154.957V348.23H151.35L151.178 351.19Z" fill="#83BF4F"/>
<path d="M161.489 351.242C161.489 350.81 161.426 350.405 161.299 350.025C161.178 349.645 161.003 349.315 160.773 349.033C160.543 348.751 160.267 348.529 159.945 348.368C159.622 348.207 159.263 348.127 158.866 348.127C158.469 348.127 158.107 348.21 157.779 348.377C157.457 348.538 157.181 348.759 156.951 349.041C156.72 349.323 156.542 349.657 156.416 350.042C156.289 350.422 156.226 350.827 156.226 351.259C156.226 351.69 156.286 352.096 156.407 352.475C156.534 352.855 156.712 353.186 156.942 353.468C157.172 353.75 157.448 353.971 157.77 354.132C158.092 354.293 158.452 354.374 158.849 354.374C159.246 354.374 159.605 354.293 159.927 354.132C160.255 353.965 160.534 353.741 160.764 353.459C160.994 353.177 161.173 352.846 161.299 352.467C161.426 352.081 161.489 351.673 161.489 351.242ZM160.393 351.259C160.393 351.558 160.356 351.84 160.281 352.104C160.212 352.363 160.111 352.59 159.979 352.786C159.847 352.982 159.686 353.137 159.496 353.252C159.312 353.361 159.102 353.416 158.866 353.416C158.63 353.416 158.417 353.361 158.228 353.252C158.038 353.137 157.874 352.982 157.736 352.786C157.603 352.585 157.5 352.355 157.425 352.096C157.356 351.831 157.322 351.546 157.322 351.242C157.322 350.942 157.356 350.661 157.425 350.396C157.5 350.131 157.603 349.904 157.736 349.714C157.868 349.519 158.026 349.366 158.21 349.257C158.4 349.142 158.613 349.084 158.849 349.084C159.085 349.084 159.297 349.142 159.487 349.257C159.677 349.372 159.838 349.527 159.97 349.723C160.109 349.919 160.212 350.149 160.281 350.413C160.356 350.678 160.393 350.96 160.393 351.259Z" fill="#83BF4F"/>
<path d="M167.733 351.242C167.733 350.81 167.67 350.405 167.543 350.025C167.422 349.645 167.247 349.315 167.017 349.033C166.787 348.751 166.51 348.529 166.188 348.368C165.866 348.207 165.507 348.127 165.11 348.127C164.713 348.127 164.35 348.21 164.023 348.377C163.7 348.538 163.424 348.759 163.194 349.041C162.964 349.323 162.786 349.657 162.659 350.042C162.533 350.422 162.47 350.827 162.47 351.259C162.47 351.69 162.53 352.096 162.651 352.475C162.777 352.855 162.956 353.186 163.186 353.468C163.416 353.75 163.692 353.971 164.014 354.132C164.336 354.293 164.696 354.374 165.093 354.374C165.489 354.374 165.849 354.293 166.171 354.132C166.499 353.965 166.778 353.741 167.008 353.459C167.238 353.177 167.416 352.846 167.543 352.467C167.67 352.081 167.733 351.673 167.733 351.242ZM166.637 351.259C166.637 351.558 166.6 351.84 166.525 352.104C166.456 352.363 166.355 352.59 166.223 352.786C166.091 352.982 165.929 353.137 165.74 353.252C165.556 353.361 165.346 353.416 165.11 353.416C164.874 353.416 164.661 353.361 164.471 353.252C164.281 353.137 164.118 352.982 163.979 352.786C163.847 352.585 163.744 352.355 163.669 352.096C163.6 351.831 163.565 351.546 163.565 351.242C163.565 350.942 163.6 350.661 163.669 350.396C163.744 350.131 163.847 349.904 163.979 349.714C164.112 349.519 164.27 349.366 164.454 349.257C164.644 349.142 164.857 349.084 165.093 349.084C165.328 349.084 165.541 349.142 165.731 349.257C165.921 349.372 166.082 349.527 166.214 349.723C166.352 349.919 166.456 350.149 166.525 350.413C166.6 350.678 166.637 350.96 166.637 351.259Z" fill="#83BF4F"/>
<path d="M168.346 355.081L168.458 355.521C168.896 355.487 169.226 355.36 169.451 355.142C169.675 354.923 169.787 354.572 169.787 354.089V353.088H168.64V354.27H169.08C169.12 354.707 168.875 354.978 168.346 355.081Z" fill="#83BF4F"/>
<path d="M175.957 351.242C175.957 350.81 175.893 350.405 175.767 350.025C175.646 349.645 175.471 349.315 175.241 349.033C175.01 348.751 174.734 348.529 174.412 348.368C174.09 348.207 173.731 348.127 173.334 348.127C172.937 348.127 172.574 348.21 172.246 348.377C171.924 348.538 171.648 348.759 171.418 349.041C171.188 349.323 171.01 349.657 170.883 350.042C170.757 350.422 170.693 350.827 170.693 351.259C170.693 351.69 170.754 352.096 170.875 352.475C171.001 352.855 171.179 353.186 171.41 353.468C171.64 353.75 171.916 353.971 172.238 354.132C172.56 354.293 172.919 354.374 173.316 354.374C173.713 354.374 174.073 354.293 174.395 354.132C174.723 353.965 175.002 353.741 175.232 353.459C175.462 353.177 175.64 352.846 175.767 352.467C175.893 352.081 175.957 351.673 175.957 351.242ZM174.861 351.259C174.861 351.558 174.823 351.84 174.749 352.104C174.68 352.363 174.579 352.59 174.447 352.786C174.314 352.982 174.153 353.137 173.964 353.252C173.779 353.361 173.569 353.416 173.334 353.416C173.098 353.416 172.885 353.361 172.695 353.252C172.505 353.137 172.341 352.982 172.203 352.786C172.071 352.585 171.968 352.355 171.893 352.096C171.824 351.831 171.789 351.546 171.789 351.242C171.789 350.942 171.824 350.661 171.893 350.396C171.968 350.131 172.071 349.904 172.203 349.714C172.336 349.519 172.494 349.366 172.678 349.257C172.868 349.142 173.081 349.084 173.316 349.084C173.552 349.084 173.765 349.142 173.955 349.257C174.145 349.372 174.306 349.527 174.438 349.723C174.576 349.919 174.68 350.149 174.749 350.413C174.823 350.678 174.861 350.96 174.861 351.259Z" fill="#83BF4F"/>
<path d="M182.2 351.242C182.2 350.81 182.137 350.405 182.011 350.025C181.89 349.645 181.714 349.315 181.484 349.033C181.254 348.751 180.978 348.529 180.656 348.368C180.334 348.207 179.974 348.127 179.577 348.127C179.18 348.127 178.818 348.21 178.49 348.377C178.168 348.538 177.892 348.759 177.662 349.041C177.432 349.323 177.253 349.657 177.127 350.042C177 350.422 176.937 350.827 176.937 351.259C176.937 351.69 176.998 352.096 177.118 352.475C177.245 352.855 177.423 353.186 177.653 353.468C177.883 353.75 178.159 353.971 178.482 354.132C178.804 354.293 179.163 354.374 179.56 354.374C179.957 354.374 180.317 354.293 180.639 354.132C180.967 353.965 181.246 353.741 181.476 353.459C181.706 353.177 181.884 352.846 182.011 352.467C182.137 352.081 182.2 351.673 182.2 351.242ZM181.105 351.259C181.105 351.558 181.067 351.84 180.992 352.104C180.923 352.363 180.823 352.59 180.69 352.786C180.558 352.982 180.397 353.137 180.207 353.252C180.023 353.361 179.813 353.416 179.577 353.416C179.342 353.416 179.129 353.361 178.939 353.252C178.749 353.137 178.585 352.982 178.447 352.786C178.315 352.585 178.211 352.355 178.136 352.096C178.067 351.831 178.033 351.546 178.033 351.242C178.033 350.942 178.067 350.661 178.136 350.396C178.211 350.131 178.315 349.904 178.447 349.714C178.579 349.519 178.738 349.366 178.922 349.257C179.111 349.142 179.324 349.084 179.56 349.084C179.796 349.084 180.009 349.142 180.199 349.257C180.388 349.372 180.55 349.527 180.682 349.723C180.82 349.919 180.923 350.149 180.992 350.413C181.067 350.678 181.105 350.96 181.105 351.259Z" fill="#83BF4F"/>
<path d="M188.444 351.242C188.444 350.81 188.381 350.405 188.254 350.025C188.134 349.645 187.958 349.315 187.728 349.033C187.498 348.751 187.222 348.529 186.9 348.368C186.578 348.207 186.218 348.127 185.821 348.127C185.424 348.127 185.062 348.21 184.734 348.377C184.412 348.538 184.136 348.759 183.906 349.041C183.676 349.323 183.497 349.657 183.371 350.042C183.244 350.422 183.181 350.827 183.181 351.259C183.181 351.69 183.241 352.096 183.362 352.475C183.489 352.855 183.667 353.186 183.897 353.468C184.127 353.75 184.403 353.971 184.725 354.132C185.047 354.293 185.407 354.374 185.804 354.374C186.201 354.374 186.56 354.293 186.882 354.132C187.21 353.965 187.489 353.741 187.719 353.459C187.949 353.177 188.128 352.846 188.254 352.467C188.381 352.081 188.444 351.673 188.444 351.242ZM187.348 351.259C187.348 351.558 187.311 351.84 187.236 352.104C187.167 352.363 187.066 352.59 186.934 352.786C186.802 352.982 186.641 353.137 186.451 353.252C186.267 353.361 186.057 353.416 185.821 353.416C185.585 353.416 185.372 353.361 185.183 353.252C184.993 353.137 184.829 352.982 184.691 352.786C184.559 352.585 184.455 352.355 184.38 352.096C184.311 351.831 184.277 351.546 184.277 351.242C184.277 350.942 184.311 350.661 184.38 350.396C184.455 350.131 184.559 349.904 184.691 349.714C184.823 349.519 184.981 349.366 185.165 349.257C185.355 349.142 185.568 349.084 185.804 349.084C186.04 349.084 186.253 349.142 186.442 349.257C186.632 349.372 186.793 349.527 186.926 349.723C187.064 349.919 187.167 350.149 187.236 350.413C187.311 350.678 187.348 350.96 187.348 351.259Z" fill="#83BF4F"/>
<path d="M50.2393 355.504H188.936V355.677H50.2393V355.504Z" fill="#83BF4F"/>
</g>
<defs>
<filter id="filter0_d" x="0.324219" y="0" width="428.676" height="398.075" filterUnits="userSpaceOnUse" color-interpolation-filters="sRGB">
<feFlood flood-opacity="0" result="BackgroundImageFix"/>
<feColorMatrix in="SourceAlpha" type="matrix" values="0 0 0 0 0 0 0 0 0 0 0 0 0 0 0 0 0 0 127 0"/>
<feOffset dx="5" dy="10"/>
<feGaussianBlur stdDeviation="10"/>
<feColorMatrix type="matrix" values="0 0 0 0 0 0 0 0 0 0 0 0 0 0 0 0 0 0 0.1 0"/>
<feBlend mode="normal" in2="BackgroundImageFix" result="effect1_dropShadow"/>
<feBlend mode="normal" in="SourceGraphic" in2="effect1_dropShadow" result="shape"/>
</filter>
</defs>
</svg>
