<svg width="71" height="46" viewBox="0 0 71 46" fill="none" xmlns="http://www.w3.org/2000/svg">
<path d="M53.7412 1.16818e-05C57.8115 -0.00486688 61.7353 1.51846 64.7364 4.26859C67.7374 7.01873 69.5971 10.7953 69.9475 14.8512C70.2978 18.9071 69.1134 22.9467 66.6284 26.171C64.1434 29.3952 60.539 31.5691 56.5282 32.2625C56.1033 37.9875 60.8274 42.8125 60.8774 42.8625C61.0537 43.0374 61.1739 43.2607 61.2227 43.5042C61.2716 43.7476 61.2468 44.0001 61.1516 44.2294C61.0564 44.4587 60.8951 44.6544 60.6882 44.7917C60.4814 44.9289 60.2383 45.0015 59.9901 45C59.8825 45.0173 59.7728 45.0173 59.6652 45C36.9817 38.75 37.4566 17.5 37.4941 16.25C37.4941 14.116 37.9144 12.0029 38.7309 10.0314C39.5473 8.05986 40.7441 6.26848 42.2528 4.75953C43.7615 3.25057 45.5525 2.05361 47.5237 1.23697C49.4949 0.42033 51.6076 1.16818e-05 53.7412 1.16818e-05Z" fill="#0033EA"/>
<path d="M0.00191498 16.2251C0.00731659 13.1315 0.895475 10.1038 2.56202 7.49772C4.22856 4.89164 6.60423 2.8155 9.40984 1.51328C12.2154 0.21107 15.3344 -0.263102 18.4002 0.146494C21.4659 0.55609 24.3511 1.83243 26.7166 3.82552C29.0821 5.81862 30.8296 8.44563 31.7538 11.3978C32.678 14.3501 32.7405 17.5048 31.9339 20.4913C31.1272 23.4778 29.4851 26.1719 27.2003 28.2571C24.9155 30.3423 22.0832 31.7319 19.036 32.2626C18.6111 37.9876 23.3353 42.8126 23.3852 42.8626C23.5615 43.0374 23.6817 43.2608 23.7305 43.5042C23.7794 43.7476 23.7546 44.0001 23.6594 44.2294C23.5642 44.4587 23.4029 44.6545 23.196 44.7917C22.9892 44.929 22.7461 45.0015 22.4979 45.0001C22.3903 45.0173 22.2806 45.0173 22.173 45.0001C-0.510487 38.6501 0.00191498 17.3876 0.00191498 16.2251Z" fill="#0033EA"/>
</svg>
