<svg width="16" height="17" viewBox="0 0 16 17" fill="none" xmlns="http://www.w3.org/2000/svg">
<mask id="path-1-inside-1" fill="white">
<path fill-rule="evenodd" clip-rule="evenodd" d="M10.1128 11.2257C11.7073 11.2257 13 9.93299 13 8.33841C13 6.74383 11.7073 5.45117 10.1128 5.45117H4.90851V11.2257H4.9082V17.0001H7.22006V11.2257H10.1128Z"/>
</mask>
<path fill-rule="evenodd" clip-rule="evenodd" d="M10.1128 11.2257C11.7073 11.2257 13 9.93299 13 8.33841C13 6.74383 11.7073 5.45117 10.1128 5.45117H4.90851V11.2257H4.9082V17.0001H7.22006V11.2257H10.1128Z" fill="#6C6C6C"/>
<path d="M4.90851 5.45117V5.25117H4.70851V5.45117H4.90851ZM4.90851 11.2257V11.4257H5.10851V11.2257H4.90851ZM4.9082 11.2257V11.0257H4.7082V11.2257H4.9082ZM4.9082 17.0001H4.7082V17.2001H4.9082V17.0001ZM7.22006 17.0001V17.2001H7.42006V17.0001H7.22006ZM7.22006 11.2257V11.0257H7.02006V11.2257H7.22006ZM12.8 8.33841C12.8 9.82253 11.5969 11.0257 10.1128 11.0257V11.4257C11.8178 11.4257 13.2 10.0434 13.2 8.33841H12.8ZM10.1128 5.65117C11.5969 5.65117 12.8 6.85429 12.8 8.33841H13.2C13.2 6.63338 11.8178 5.25117 10.1128 5.25117V5.65117ZM4.90851 5.65117H10.1128V5.25117H4.90851V5.65117ZM5.10851 11.2257V5.45117H4.70851V11.2257H5.10851ZM4.9082 11.4257H4.90851V11.0257H4.9082V11.4257ZM5.1082 17.0001V11.2257H4.7082V17.0001H5.1082ZM7.22006 16.8001H4.9082V17.2001H7.22006V16.8001ZM7.02006 11.2257V17.0001H7.42006V11.2257H7.02006ZM10.1128 11.0257H7.22006V11.4257H10.1128V11.0257Z" fill="#E5E5E5" mask="url(#path-1-inside-1)"/>
<path d="M1 7L8.24138 1L15 7" stroke="#6C6C6C"/>
</svg>
