<svg width="28" height="28" viewBox="0 0 28 28" fill="none" xmlns="http://www.w3.org/2000/svg">
<path d="M25.1966 19.2618L21.3647 18.8243C20.9142 18.7714 20.4574 18.8213 20.0289 18.9702C19.6004 19.1192 19.2112 19.3633 18.8906 19.6843L16.1147 22.4601C11.8321 20.282 8.35105 16.801 6.17294 12.5183L8.96389 9.72738C9.61259 9.07868 9.9294 8.17351 9.8238 7.25325L9.3863 3.45154C9.30077 2.7156 8.94758 2.03681 8.39398 1.54441C7.84039 1.05202 7.12504 0.780402 6.38415 0.781283H3.77424C2.0695 0.781283 0.651404 2.19938 0.757007 3.90412C1.55657 16.7877 11.8604 27.0765 24.7289 27.8761C26.4337 27.9817 27.8518 26.5636 27.8518 24.8588V22.2489C27.8669 20.7252 26.7203 19.4429 25.1966 19.2618Z" fill="#0033EA"/>
</svg>
