<svg width="15" height="15" viewBox="0 0 15 15" fill="none" xmlns="http://www.w3.org/2000/svg">
<path d="M4.2207 8.4375C4.59366 8.4375 4.95135 8.28934 5.21507 8.02562C5.47879 7.7619 5.62695 7.40421 5.62695 7.03125C5.62695 6.65829 5.47879 6.3006 5.21507 6.03688C4.95135 5.77316 4.59366 5.625 4.2207 5.625C3.84774 5.625 3.49006 5.77316 3.22633 6.03688C2.96261 6.3006 2.81445 6.65829 2.81445 7.03125C2.81445 7.40421 2.96261 7.7619 3.22633 8.02562C3.49006 8.28934 3.84774 8.4375 4.2207 8.4375Z" fill="white"/>
<path d="M13.127 12.1875C13.127 12.6848 12.9294 13.1617 12.5778 13.5133C12.2261 13.865 11.7492 14.0625 11.252 14.0625H1.87695C1.37967 14.0625 0.902759 13.865 0.551128 13.5133C0.199497 13.1617 0.00195313 12.6848 0.00195313 12.1875V4.6875C0.00195288 4.19054 0.19924 3.71391 0.550465 3.36234C0.90169 3.01076 1.37812 2.813 1.87508 2.8125C1.87508 2.31522 2.07262 1.83831 2.42425 1.48667C2.77588 1.13504 3.2528 0.9375 3.75008 0.9375H13.1251C13.6224 0.9375 14.0993 1.13504 14.4509 1.48667C14.8025 1.83831 15.0001 2.31522 15.0001 2.8125V10.3125C15.0001 10.8095 14.8028 11.2861 14.4516 11.6377C14.1003 11.9892 13.6239 12.187 13.127 12.1875ZM13.1251 1.875H3.75008C3.50144 1.875 3.26298 1.97377 3.08717 2.14959C2.91135 2.3254 2.81258 2.56386 2.81258 2.8125H11.252C11.7492 2.8125 12.2261 3.01004 12.5778 3.36167C12.9294 3.71331 13.127 4.19022 13.127 4.6875V11.25C13.3753 11.2495 13.6132 11.1505 13.7887 10.9748C13.9641 10.799 14.0626 10.5608 14.0626 10.3125V2.8125C14.0626 2.56386 13.9638 2.3254 13.788 2.14959C13.6122 1.97377 13.3737 1.875 13.1251 1.875ZM1.87695 3.75C1.62831 3.75 1.38986 3.84877 1.21404 4.02459C1.03823 4.2004 0.939453 4.43886 0.939453 4.6875V12.1875L3.42008 9.98063C3.4967 9.90428 3.59737 9.85678 3.70502 9.84619C3.81267 9.83559 3.92067 9.86256 4.0107 9.9225L6.50445 11.5847L9.98258 8.10656C10.0521 8.03698 10.1417 7.99102 10.2388 7.97521C10.3359 7.95939 10.4355 7.97451 10.5235 8.01844L12.1895 9.84375V4.6875C12.1895 4.43886 12.0907 4.2004 11.9149 4.02459C11.739 3.84877 11.5006 3.75 11.252 3.75H1.87695Z" fill="white"/>
</svg>
