<svg width="16" height="21" viewBox="0 0 16 21" fill="none" xmlns="http://www.w3.org/2000/svg">
<path d="M0.280884 0.453003V20.453H15.081V0.453003H0.280884ZM14.3551 19.8402H12.544C13.288 19.4662 13.912 18.9393 14.3551 18.3112V19.8402ZM10.266 19.8278V16.3879H14.3403C14.1649 18.2168 12.4322 19.6796 10.266 19.8278ZM14.3551 2.64187H14.3551H13.9772V3.25468H14.3551V15.7751H9.54021V19.8402H1.00669V3.25468H1.38451V2.64187H1.00669V1.06582H14.3551V2.64187H14.3551Z" fill="white"/>
<path d="M2.86575 2.64197H2.125V3.25478H2.86575V2.64197Z" fill="white"/>
<path d="M4.3475 2.64197H3.60675V3.25478H4.3475V2.64197Z" fill="white"/>
<path d="M5.82919 2.64197H5.08844V3.25478H5.82919V2.64197Z" fill="white"/>
<path d="M7.31033 2.64197H6.56958V3.25478H7.31033V2.64197Z" fill="white"/>
<path d="M8.79202 2.64197H8.05127V3.25478H8.79202V2.64197Z" fill="white"/>
<path d="M10.2738 2.64197H9.53302V3.25478H10.2738V2.64197Z" fill="white"/>
<path d="M11.755 2.64197H11.0142V3.25478H11.755V2.64197Z" fill="white"/>
<path d="M13.2367 2.64197H12.4959V3.25478H13.2367V2.64197Z" fill="white"/>
<path d="M13.2362 5.14343H2.125V5.75625H13.2362V5.14343Z" fill="white"/>
<path d="M13.2362 6.70691H2.125V7.31972H13.2362V6.70691Z" fill="white"/>
<path d="M13.2362 8.27039H2.125V8.8832H13.2362V8.27039Z" fill="white"/>
<path d="M13.2362 9.83386H2.125V10.4467H13.2362V9.83386Z" fill="white"/>
<path d="M13.2362 11.3973H2.125V12.0102H13.2362V11.3973Z" fill="white"/>
<path d="M13.2362 12.9608H2.125V13.5736H13.2362V12.9608Z" fill="white"/>
<path d="M13.2362 14.5243H2.125V15.1371H13.2362V14.5243Z" fill="white"/>
<path d="M9.16227 16.0878H2.125V16.7006H9.16227V16.0878Z" fill="white"/>
<path d="M9.16227 17.6512H2.125V18.2641H9.16227V17.6512Z" fill="white"/>
</svg>
