<svg width="40" height="32" viewBox="0 0 40 32" fill="none" xmlns="http://www.w3.org/2000/svg">
<path d="M26.1042 3.24149C28.7841 5.06483 30.7361 6.83752 31.9603 8.55956C33.1514 10.2816 33.9785 12.5101 34.4417 15.2451C32.9198 14.84 31.7618 14.6374 30.9677 14.6374C28.7841 14.6374 27.0306 15.414 25.7072 16.9672C24.3838 18.5204 23.7221 20.5463 23.7221 23.045C23.7221 25.5436 24.4003 27.5358 25.7568 29.0215C27.0802 30.5072 28.8503 31.25 31.067 31.25C34.0447 31.25 36.3275 30.0007 37.9156 27.502C39.3052 25.2735 40 22.5723 40 19.3983C40 12.0036 36.1621 5.53755 28.4864 0L26.1042 3.24149ZM2.38213 3.24149C5.06203 5.06483 7.01406 6.83752 8.23821 8.55956C9.42928 10.2816 10.273 12.5101 10.7692 15.2451C9.21423 14.84 8.0397 14.6374 7.24566 14.6374C5.06203 14.6374 3.30852 15.414 1.98511 16.9672C0.661705 18.4866 0 20.5126 0 23.045C0 25.5436 0.678249 27.5358 2.03474 29.0215C3.35815 30.5072 5.1282 31.25 7.34491 31.25C10.3226 31.25 12.6055 30.0007 14.1935 27.502C15.5831 25.2735 16.2779 22.5723 16.2779 19.3983C16.2779 12.0036 12.44 5.53755 4.76427 0L2.38213 3.24149Z" fill="#6886F0"/>
</svg>
