<svg width="82" height="85" viewBox="0 0 82 85" fill="none" xmlns="http://www.w3.org/2000/svg">
<path d="M0.25 6.25H76.75V67C76.75 69.6234 74.6234 71.75 72 71.75H5C2.37665 71.75 0.25 69.6234 0.25 67V6.25Z" fill="white" stroke="black" stroke-width="0.5"/>
<path d="M0.25 5C0.25 2.37665 2.37665 0.25 5 0.25H72C74.6234 0.25 76.75 2.37665 76.75 5V7.75H0.25V5Z" fill="#EFEFEF" stroke="black" stroke-width="0.5"/>
<circle cx="6.65967" cy="4.52832" r="1.5" fill="#FFD704"/>
<circle cx="6.65967" cy="4.52832" r="1.5" fill="#FFD704"/>
<circle cx="6.65967" cy="4.52832" r="1.5" fill="#FFD704"/>
<circle cx="6.65967" cy="4.52832" r="1.5" fill="#FFD704"/>
<circle cx="6.65967" cy="4.52832" r="1.5" fill="#FFD704"/>
<circle cx="12.6597" cy="4.52832" r="1.5" fill="#C4C4C4"/>
<circle cx="18.6597" cy="4.52832" r="1.5" fill="#EA0000"/>
<rect x="5.71533" y="15.4307" width="65.2336" height="2.9562" fill="#E5E5E5"/>
<rect x="5.71533" y="31.3942" width="65.2336" height="2.9562" fill="#E5E5E5"/>
<rect x="5.71533" y="47.3577" width="65.2336" height="2.9562" fill="#E5E5E5"/>
<rect x="5.71533" y="63.3212" width="40.4015" height="2.9562" fill="#E5E5E5"/>
<circle cx="65.7162" cy="68.4952" r="15.4664" fill="#0033EA" stroke="black" stroke-width="0.5"/>
<path d="M67.6563 65.0591C67.6563 66.1963 66.6908 67.1181 65.4997 67.1181C64.3087 67.1181 63.3432 66.1963 63.3432 65.0591C63.3432 63.9219 64.3087 63 65.4997 63C66.6908 63 67.6563 63.9219 67.6563 65.0591Z" fill="white"/>
<path d="M68.9998 71C68.9998 70.1137 68.631 69.2637 67.9746 68.637C67.3183 68.0103 66.428 67.6582 65.4998 67.6582C64.5715 67.6582 63.6813 68.0103 63.0249 68.637C62.3685 69.2637 61.9998 70.1137 61.9998 71L68.9998 71Z" fill="white"/>
<path d="M76.6563 68.0591C76.6563 69.1963 75.6908 70.1181 74.4997 70.1181C73.3087 70.1181 72.3432 69.1963 72.3432 68.0591C72.3432 66.9219 73.3087 66 74.4997 66C75.6908 66 76.6563 66.9219 76.6563 68.0591Z" fill="white"/>
<path d="M77.9998 74C77.9998 73.1137 77.631 72.2637 76.9746 71.637C76.3183 71.0103 75.428 70.6582 74.4998 70.6582C73.5715 70.6582 72.6813 71.0103 72.0249 71.637C71.3685 72.2637 70.9998 73.1137 70.9998 74L77.9998 74Z" fill="white"/>
<path d="M59.6563 68.0591C59.6563 69.1963 58.6908 70.1181 57.4997 70.1181C56.3087 70.1181 55.3432 69.1963 55.3432 68.0591C55.3432 66.9219 56.3087 66 57.4997 66C58.6908 66 59.6563 66.9219 59.6563 68.0591Z" fill="white"/>
<path d="M60.9998 74C60.9998 73.1137 60.631 72.2637 59.9746 71.637C59.3183 71.0103 58.428 70.6582 57.4998 70.6582C56.5715 70.6582 55.6813 71.0103 55.0249 71.637C54.3685 72.2637 53.9998 73.1137 53.9998 74L60.9998 74Z" fill="white"/>
</svg>
