<svg width="90" height="74" viewBox="0 0 90 74" fill="none" xmlns="http://www.w3.org/2000/svg">
<path d="M61.3872 1H1V46.365H47.2382L29.3903 73L61.3872 46.365H72.6693" stroke="black" stroke-width="0.5"/>
<path d="M77.5266 30.8234C65.3799 22.0214 72.4655 14.6327 77.5266 12.0386V28.3008H82.9558V12.0386C94.8081 19.1231 87.8943 27.5137 82.9558 30.8234C82.8332 43.2929 82.6614 68.232 82.9558 68.232C80.8946 72.9979 78.4775 70.2178 77.5266 68.232V30.8234Z" fill="#0033EA"/>
<path d="M63.2365 2.35315H3.21924V44.1573H51.2145L37.0656 65.1662L60.3697 44.1573H73.4089C73.5322 39.9555 73.7048 31.5947 73.4089 31.7656C63.1995 23.6754 67.737 14.9585 71.2819 11.6113L63.2365 2.35315Z" fill="#EFEFEF"/>
<line x1="6.82617" y1="9.4718" x2="61.7572" y2="9.4718" stroke="white" stroke-width="2"/>
<line x1="6.82617" y1="18.0178" x2="61.7572" y2="18.0178" stroke="white" stroke-width="2"/>
<line x1="6.82617" y1="26.5637" x2="61.7572" y2="26.5637" stroke="white" stroke-width="2"/>
<line x1="6.82617" y1="35.1097" x2="61.7572" y2="35.1097" stroke="white" stroke-width="2"/>
</svg>
