<svg width="470" height="420" viewBox="0 0 470 420" fill="none" xmlns="http://www.w3.org/2000/svg">
<path fill-rule="evenodd" clip-rule="evenodd" d="M433.976 243.595C431.436 279.395 444.164 320.982 420.936 348.27C397.642 375.635 354.918 370.9 319.724 377.816C292.53 383.159 266.009 387.618 238.519 384.113C210.648 380.559 184.414 371.988 160.317 357.489C132.319 340.644 102.012 323.541 88.3736 293.774C73.9947 262.391 77.2826 226.06 84.6391 192.316C92.3872 156.775 103.243 119.117 131.436 96.2494C159.355 73.6039 198.107 69.3015 233.954 71.2065C265.863 72.9022 290.37 97.5756 321.11 106.329C359.587 117.286 411.043 97.922 436.5 128.882C461.257 158.992 436.738 204.656 433.976 243.595Z" fill="white"/>
<path fill-rule="evenodd" clip-rule="evenodd" d="M206.836 49.8063C232.657 36.9176 261.991 30.6743 290.727 33.3808C320.465 36.1816 351.969 44.4433 373.233 65.4779C394.268 86.287 393.974 119.76 405.576 146.995C416.266 172.086 435.373 193.44 439.248 220.437C443.274 248.483 443.902 280.151 428.056 303.6C412.146 327.142 380.946 333.785 354.945 345.184C334.086 354.329 312.501 359.57 290.172 364.05C268.886 368.321 247.907 372.332 226.233 371.009C202.742 369.575 176.992 370.113 158.133 355.99C139.277 341.869 141.077 311.524 124.473 294.803C99.2081 269.361 37.8878 270.122 37.2469 234.258C36.5991 198.004 98.6349 196.326 122.223 168.851C137.604 150.935 135.262 123.404 148.945 104.154C164.479 82.2976 182.863 61.7729 206.836 49.8063Z" fill="#0033EA" fill-opacity="0.05"/>
<line x1="1" y1="332.5" x2="470" y2="332.5" stroke="#C4C4C4"/>
<line x1="0.5" y1="333" x2="0.499986" y2="20" stroke="#C4C4C4"/>
<line y1="277.5" x2="470" y2="277.5" stroke="white"/>
<line y1="237.5" x2="470" y2="237.5" stroke="white"/>
<line y1="167.5" x2="470" y2="167.5" stroke="white"/>
<line y1="107.5" x2="470" y2="107.5" stroke="white"/>
<line y1="91.5" x2="470" y2="91.5" stroke="white"/>
<path d="M33.4746 292.595H19.2471V332.25H33.4746V292.595Z" fill="#FF725E"/>
<path opacity="0.2" d="M33.4746 292.595H19.2471V332.25H33.4746V292.595Z" fill="#AAA4A4"/>
<path d="M15.9199 292.432H51.0246L57.5838 281.124L64.4572 292.756L72.5396 292.6L63.8288 278.349L24.6877 278.551L15.9199 292.432Z" fill="#FF725E"/>
<path opacity="0.2" d="M15.9199 292.432H51.0246L57.5838 281.124L64.4572 292.756L72.5396 292.6L63.8288 278.349L24.6877 278.551L15.9199 292.432Z" fill="white"/>
<path d="M33.4751 292.601V332.25H68.5322V292.601H64.51L57.5843 281.125L51.0012 292.421L33.4751 292.601Z" fill="#FF725E"/>
<g opacity="0.2">
<path opacity="0.2" d="M38.4302 332.249V315.061H46.6268V332.249" fill="black"/>
</g>
<path opacity="0.7" d="M64.4629 314.576H51.5444V324.294H64.4629V314.576Z" fill="white"/>
<path opacity="0.7" d="M64.4629 295.127H51.5444V304.846H64.4629V295.127Z" fill="white"/>
<path opacity="0.7" d="M45.7702 295.213H37.626V304.579H45.7702V295.213Z" fill="white"/>
<path d="M55.3331 314.576H55.2139V324.387H55.3331V314.576Z" fill="#FF725E"/>
<path d="M60.7022 314.576H60.583V324.387H60.7022V314.576Z" fill="#FF725E"/>
<path d="M60.6402 319.704H55.271V319.849H60.6402V319.704Z" fill="#FF725E"/>
<path d="M55.3331 295.127H55.2139V304.938H55.3331V295.127Z" fill="#FF725E"/>
<path d="M60.7022 295.127H60.583V304.938H60.7022V295.127Z" fill="#FF725E"/>
<path d="M60.6402 300.255H55.271V300.399H60.6402V300.255Z" fill="#FF725E"/>
<path d="M41.7569 295.213H41.6377V304.579H41.7569V295.213Z" fill="#FF725E"/>
<path d="M45.7702 300.053H37.626V300.198H45.7702V300.053Z" fill="#FF725E"/>
<path opacity="0.7" d="M59.2926 288.692C59.2926 289.107 59.1913 289.513 59.0014 289.858C58.8116 290.203 58.5417 290.472 58.226 290.631C57.9103 290.79 57.5629 290.831 57.2277 290.75C56.8925 290.669 56.5846 290.469 56.343 290.176C56.1013 289.882 55.9368 289.508 55.8701 289.101C55.8034 288.694 55.8377 288.272 55.9684 287.889C56.0992 287.505 56.3207 287.178 56.6048 286.947C56.889 286.716 57.223 286.593 57.5648 286.593C58.0226 286.595 58.4614 286.816 58.7852 287.21C59.1089 287.603 59.2914 288.136 59.2926 288.692Z" fill="white"/>
<path d="M45.2417 286.119L47.4217 282.853V274.996H42.8569V286.177L45.2417 286.119Z" fill="#FF725E"/>
<path opacity="0.2" d="M45.2407 286.119V274.996H47.4208V282.853L45.2407 286.119Z" fill="#FF725E"/>
<path d="M47.7307 273.839H42.3472V274.996H47.7307V273.839Z" fill="#FF725E"/>
<path d="M33.8794 309.945H7V332.256H33.8794V309.945Z" fill="#FF725E"/>
<path opacity="0.2" d="M23.5742 309.945H7V332.256H23.5742V309.945Z" fill="#AAA4A4"/>
<path d="M20.0856 332.215C20.0677 332.12 20.0597 332.023 20.0618 331.926C20.0618 331.701 20.0618 331.423 20.0618 331.088C20.0618 330.313 20.0618 329.261 20.0238 327.948C20.0238 325.231 19.9952 321.479 19.9762 317.137L20.1094 317.299H10.2706L10.3991 317.137C10.3991 321.479 10.3658 325.231 10.3515 327.948C10.3515 329.261 10.323 330.313 10.3135 331.088C10.3135 331.423 10.3134 331.701 10.2896 331.926C10.2979 332.022 10.2979 332.119 10.2896 332.215C10.2685 332.121 10.2604 332.023 10.2659 331.926C10.2659 331.701 10.2659 331.423 10.2659 331.088C10.2659 330.313 10.2658 329.261 10.2278 327.948C10.2278 325.237 10.1992 321.479 10.1802 317.137V316.975H20.2618V317.137C20.238 321.479 20.2237 325.231 20.2094 327.948C20.2094 329.261 20.1808 330.313 20.1713 331.088C20.1713 331.423 20.1713 331.701 20.1713 331.926C20.1504 332.025 20.1217 332.122 20.0856 332.215Z" fill="#86949B"/>
<path opacity="0.2" d="M32.6323 316.564H25.6494V318.727H32.6323V316.564Z" fill="#FF725E"/>
<path d="M15.9199 292.432V293.583H51.0008V292.421L15.9199 292.432Z" fill="#FF725E"/>
<path d="M51.001 293.584L57.565 282.396L57.584 281.125L51.0248 292.433L51.001 293.584Z" fill="#FF725E"/>
<path d="M72.3689 292.595H64.5103V293.335H72.3689V292.595Z" fill="#FF725E"/>
<path d="M43.8329 312.425H40.9341V313.767H43.8329V312.425Z" fill="#FF725E"/>
<path opacity="0.3" d="M15.9199 292.432V293.583H51.0008V292.421L15.9199 292.432Z" fill="#FF725E"/>
<path opacity="0.3" d="M51.001 293.584L57.565 282.396L57.584 281.125L51.0248 292.433L51.001 293.584Z" fill="#FF725E"/>
<path opacity="0.3" d="M72.3689 292.595H64.5103V293.335H72.3689V292.595Z" fill="#FF725E"/>
<path d="M45.965 323.734C45.9412 323.734 45.965 323.514 45.7508 323.346C45.6962 323.301 45.6335 323.273 45.568 323.264C45.5025 323.255 45.4363 323.265 45.3748 323.294C45.3027 323.33 45.241 323.39 45.1976 323.469C45.1542 323.547 45.131 323.639 45.131 323.734C45.131 323.828 45.1542 323.92 45.1976 323.998C45.241 324.077 45.3027 324.137 45.3748 324.173C45.4363 324.202 45.5025 324.212 45.568 324.203C45.6335 324.194 45.6962 324.166 45.7508 324.121C45.9459 323.953 45.9412 323.728 45.965 323.734C45.9888 323.739 46.0459 323.982 45.8222 324.237C45.7534 324.305 45.6714 324.351 45.584 324.37C45.4966 324.389 45.4065 324.381 45.3224 324.346C45.2171 324.303 45.1257 324.22 45.061 324.11C44.9962 324 44.9614 323.869 44.9614 323.734C44.9614 323.598 44.9962 323.467 45.061 323.357C45.1257 323.247 45.2171 323.164 45.3224 323.121C45.4065 323.086 45.4966 323.078 45.584 323.097C45.6714 323.116 45.7534 323.162 45.8222 323.231C46.0459 323.491 45.9793 323.751 45.965 323.734Z" fill="#263238"/>
<path d="M15.3119 351.661C15.3119 352.136 14.7122 352.343 14.4188 351.97L11.1453 347.806C11.053 347.688 10.9118 347.62 10.7624 347.62C10.4934 347.62 10.2754 347.838 10.2754 348.107V354.089C10.2754 354.297 10.444 354.465 10.6519 354.465C10.8598 354.465 11.0284 354.297 11.0284 354.089V350.295C11.0284 349.82 11.6276 349.613 11.9212 349.986L15.3242 354.307C15.4029 354.407 15.523 354.465 15.6501 354.465C15.8792 354.465 16.0649 354.28 16.0649 354.051V347.996C16.0649 347.788 15.8963 347.62 15.6884 347.62C15.4804 347.62 15.3119 347.788 15.3119 347.996V351.661Z" fill="#263238"/>
<line x1="9.30762" y1="351.771" x2="17.1312" y2="351.771" stroke="#263238" stroke-opacity="0.5" stroke-width="0.5"/>
<line x1="9.30762" y1="350.304" x2="17.1312" y2="350.304" stroke="#263238" stroke-opacity="0.5" stroke-width="0.5"/>
<path d="M144.36 240.078H99.8633V332.619H144.36V240.078Z" fill="#C4C4C4"/>
<path d="M144.361 240.078H123.497V332.619H144.361V240.078Z" fill="#1A3166"/>
<path d="M113.189 252.601H109.19V267.925H113.189V252.601Z" fill="#F5F5F5"/>
<path d="M113.189 312.593H109.19V327.917H113.189V312.593Z" fill="#F5F5F5"/>
<path d="M123.496 273.95C123.496 274.115 118.205 274.259 111.676 274.259C105.148 274.259 99.8633 274.115 99.8633 273.95C99.8633 273.786 105.154 273.632 111.676 273.632C118.199 273.632 123.496 273.777 123.496 273.95Z" fill="#F5F5F5"/>
<path d="M113.189 282.824H109.19V298.148H113.189V282.824Z" fill="#F5F5F5"/>
<path d="M123.496 304.163C123.496 304.337 118.205 304.482 111.676 304.482C105.148 304.482 99.8633 304.337 99.8633 304.163C99.8633 303.99 105.154 303.854 111.676 303.854C118.199 303.854 123.496 303.999 123.496 304.163Z" fill="#F5F5F5"/>
<path d="M131.923 252.601H127.924V267.925H131.923V252.601Z" fill="#F5F5F5"/>
<path d="M140.607 252.601H136.608V267.925H140.607V252.601Z" fill="#F5F5F5"/>
<path d="M131.923 281.685H127.924V297.009H131.923V281.685Z" fill="#F5F5F5"/>
<path d="M140.607 281.685H136.608V297.009H140.607V281.685Z" fill="#F5F5F5"/>
<path d="M131.923 310.768H127.924V326.092H131.923V310.768Z" fill="#F5F5F5"/>
<path d="M140.607 310.768H136.608V326.092H140.607V310.768Z" fill="#F5F5F5"/>
<path d="M147.711 236.853H96.52V240.194H147.711V236.853Z" fill="#1A3166"/>
<path d="M144.673 240.532C144.673 240.705 134.728 240.85 122.462 240.85C110.195 240.85 100.244 240.705 100.244 240.532C100.244 240.358 110.189 240.223 122.462 240.223C134.734 240.223 144.673 240.339 144.673 240.532Z" fill="#C4C4C4"/>
<path d="M96.6038 351.704C96.6038 352.179 96.0042 352.386 95.7108 352.013L92.4373 347.849C92.345 347.731 92.2038 347.663 92.0544 347.663C91.7854 347.663 91.5674 347.881 91.5674 348.15V354.132C91.5674 354.34 91.736 354.508 91.9439 354.508C92.1518 354.508 92.3204 354.34 92.3204 354.132V350.338C92.3204 349.863 92.9196 349.656 93.2132 350.029L96.6162 354.35C96.6949 354.45 96.815 354.508 96.9421 354.508C97.1712 354.508 97.3569 354.323 97.3569 354.093V348.039C97.3569 347.831 97.1883 347.663 96.9804 347.663C96.7724 347.663 96.6038 347.831 96.6038 348.039V351.704Z" fill="#263238"/>
<line x1="90.5991" y1="351.813" x2="98.4227" y2="351.813" stroke="#263238" stroke-opacity="0.5" stroke-width="0.5"/>
<line x1="90.5991" y1="350.347" x2="98.4227" y2="350.347" stroke="#263238" stroke-opacity="0.5" stroke-width="0.5"/>
<path d="M226.428 92.4653H173.867V331.949H226.428V92.4653Z" fill="#EBEBEB"/>
<path d="M226.423 92.4653H200.143V331.949H226.423V92.4653Z" fill="#91958F"/>
<path d="M198.429 64H179.869V92.4654H198.429V64Z" fill="#EBEBEB"/>
<path d="M198.423 64H194.002V92.4654H198.423V64Z" fill="#91958F"/>
<path d="M227.959 90.8047H169.485V92.4655H227.959V90.8047Z" fill="#91958F"/>
<path d="M188.689 104.883H184.24V121.211H188.689V104.883Z" fill="white"/>
<path d="M200.142 127.622C200.142 127.796 194.263 127.931 187.007 127.931C179.752 127.931 173.867 127.796 173.867 127.622C173.867 127.449 179.747 127.304 187.007 127.304C194.268 127.304 200.142 127.439 200.142 127.622Z" fill="#91958F"/>
<path d="M215.197 104.883H210.748V121.211H215.197V104.883Z" fill="#F5F5F5"/>
<path d="M226.651 127.622C226.651 127.796 220.771 127.931 213.516 127.931C206.261 127.931 200.375 127.796 200.375 127.622C200.375 127.449 206.255 127.304 213.516 127.304C220.777 127.304 226.651 127.439 226.651 127.622Z" fill="#EBEBEB"/>
<path d="M215.197 137.298H210.748V153.626H215.197V137.298Z" fill="#F5F5F5"/>
<path d="M226.651 160.037C226.651 160.211 220.771 160.356 213.516 160.356C206.261 160.356 200.375 160.211 200.375 160.037C200.375 159.863 206.255 159.728 213.516 159.728C220.777 159.728 226.651 159.873 226.651 160.037Z" fill="#EBEBEB"/>
<path d="M215.197 170.697H210.748V187.025H215.197V170.697Z" fill="#F5F5F5"/>
<path d="M226.651 193.436C226.651 193.61 220.771 193.755 213.516 193.755C206.261 193.755 200.375 193.61 200.375 193.436C200.375 193.263 206.255 193.127 213.516 193.127C220.777 193.127 226.651 193.272 226.651 193.436Z" fill="#EBEBEB"/>
<path d="M215.197 204.106H210.748V220.434H215.197V204.106Z" fill="#F5F5F5"/>
<path d="M226.651 226.836C226.651 227.01 220.771 227.155 213.516 227.155C206.261 227.155 200.375 227.01 200.375 226.836C200.375 226.663 206.255 226.527 213.516 226.527C220.777 226.527 226.651 226.672 226.651 226.836Z" fill="#EBEBEB"/>
<path d="M215.197 236.55H210.748V252.878H215.197V236.55Z" fill="#F5F5F5"/>
<path d="M226.651 259.289C226.651 259.453 220.771 259.598 213.516 259.598C206.261 259.598 200.375 259.453 200.375 259.289C200.375 259.125 206.255 258.971 213.516 258.971C220.777 258.971 226.651 259.116 226.651 259.289Z" fill="#EBEBEB"/>
<path d="M215.197 269.119H210.748V285.447H215.197V269.119Z" fill="#F5F5F5"/>
<path d="M215.197 302.123H210.748V318.451H215.197V302.123Z" fill="#F5F5F5"/>
<path d="M226.651 291.858C226.651 292.032 220.771 292.176 213.516 292.176C206.261 292.176 200.375 292.032 200.375 291.858C200.375 291.684 206.255 291.549 213.516 291.549C220.777 291.549 226.651 291.684 226.651 291.858Z" fill="#EBEBEB"/>
<path d="M188.689 137.799H184.24V154.127H188.689V137.799Z" fill="white"/>
<path d="M200.142 160.539C200.142 160.703 194.263 160.848 187.007 160.848C179.752 160.848 173.867 160.703 173.867 160.539C173.867 160.375 179.747 160.22 187.007 160.22C194.268 160.22 200.142 160.365 200.142 160.539Z" fill="#91958F"/>
<path d="M188.689 170.716H184.24V187.044H188.689V170.716Z" fill="white"/>
<path d="M200.142 193.455C200.142 193.619 194.263 193.764 187.007 193.764C179.752 193.764 173.867 193.619 173.867 193.455C173.867 193.291 179.747 193.137 187.007 193.137C194.268 193.137 200.142 193.282 200.142 193.455Z" fill="#91958F"/>
<path d="M188.689 203.633H184.24V219.961H188.689V203.633Z" fill="white"/>
<path d="M200.142 226.373C200.142 226.537 194.263 226.682 187.007 226.682C179.752 226.682 173.867 226.537 173.867 226.373C173.867 226.209 179.747 226.054 187.007 226.054C194.268 226.054 200.142 226.199 200.142 226.373Z" fill="#91958F"/>
<path d="M188.689 236.55H184.24V252.878H188.689V236.55Z" fill="white"/>
<path d="M200.142 259.289C200.142 259.453 194.263 259.598 187.007 259.598C179.752 259.598 173.867 259.453 173.867 259.289C173.867 259.125 179.747 258.971 187.007 258.971C194.268 258.971 200.142 259.116 200.142 259.289Z" fill="#91958F"/>
<path d="M188.689 269.466H184.24V285.794H188.689V269.466Z" fill="white"/>
<path d="M200.142 292.206C200.142 292.37 194.263 292.515 187.007 292.515C179.752 292.515 173.867 292.37 173.867 292.206C173.867 292.042 179.747 291.887 187.007 291.887C194.268 291.887 200.142 292.032 200.142 292.206Z" fill="#91958F"/>
<path d="M188.689 302.383H184.24V318.711H188.689V302.383Z" fill="white"/>
<path d="M181.32 351.281C181.32 351.756 180.72 351.964 180.427 351.59L177.153 347.426C177.061 347.309 176.92 347.24 176.77 347.24C176.501 347.24 176.283 347.458 176.283 347.727V353.709C176.283 353.917 176.452 354.086 176.66 354.086C176.868 354.086 177.036 353.917 177.036 353.709V349.916C177.036 349.441 177.635 349.233 177.929 349.606L181.332 353.928C181.411 354.028 181.531 354.086 181.658 354.086C181.887 354.086 182.073 353.9 182.073 353.671V347.617C182.073 347.409 181.904 347.24 181.696 347.24C181.488 347.24 181.32 347.409 181.32 347.617V351.281Z" fill="#263238"/>
<line x1="175.315" y1="351.391" x2="183.139" y2="351.391" stroke="#263238" stroke-opacity="0.5" stroke-width="0.5"/>
<line x1="175.315" y1="349.924" x2="183.139" y2="349.924" stroke="#263238" stroke-opacity="0.5" stroke-width="0.5"/>
<path d="M301.704 240.062H263.939V331.863H301.704V240.062Z" fill="#F5F5F5"/>
<path d="M301.705 240.062H283.999V331.863H301.705V240.062Z" fill="#C4C4C4"/>
<path d="M275.251 252.489H271.854V267.693H275.251V252.489Z" fill="#C4C4C4"/>
<path d="M275.251 311.996H271.854V327.2H275.251V311.996Z" fill="#C4C4C4"/>
<path d="M283.998 273.652C283.998 273.783 279.507 273.887 273.972 273.887C268.437 273.887 263.939 273.783 263.939 273.652C263.939 273.521 268.43 273.416 273.972 273.416C279.514 273.416 283.998 273.521 283.998 273.652Z" fill="#C4C4C4"/>
<path d="M275.251 282.465H271.854V297.67H275.251V282.465Z" fill="#C4C4C4"/>
<path d="M283.998 303.641C283.998 303.772 279.507 303.877 273.972 303.877C268.437 303.877 263.939 303.772 263.939 303.641C263.939 303.51 268.43 303.393 273.972 303.393C279.514 303.393 283.998 303.51 283.998 303.641Z" fill="#C4C4C4"/>
<path d="M291.153 252.489H287.757V267.693H291.153V252.489Z" fill="#263238"/>
<path d="M298.522 252.489H295.126V267.693H298.522V252.489Z" fill="#263238"/>
<path d="M291.153 281.339H287.757V296.544H291.153V281.339Z" fill="#263238"/>
<path d="M298.522 281.339H295.126V296.544H298.522V281.339Z" fill="#263238"/>
<path d="M291.153 310.189H287.757V325.393H291.153V310.189Z" fill="#263238"/>
<path d="M298.522 310.189H295.126V325.393H298.522V310.189Z" fill="#263238"/>
<path d="M304.539 236.853H261.097V240.166H304.539V236.853Z" fill="#263238"/>
<path d="M301.967 240.48C301.967 240.611 293.526 240.716 283.117 240.716C272.707 240.716 264.266 240.611 264.266 240.48C264.266 240.349 272.707 240.244 283.117 240.244C293.526 240.244 301.967 240.349 301.967 240.48Z" fill="#F5F5F5"/>
<path d="M263.468 351.704C263.468 352.179 262.868 352.386 262.575 352.013L259.301 347.849C259.209 347.731 259.068 347.663 258.918 347.663C258.649 347.663 258.431 347.881 258.431 348.15V354.132C258.431 354.34 258.6 354.508 258.808 354.508C259.016 354.508 259.184 354.34 259.184 354.132V350.338C259.184 349.863 259.783 349.656 260.077 350.029L263.48 354.35C263.559 354.45 263.679 354.508 263.806 354.508C264.035 354.508 264.221 354.323 264.221 354.093V348.039C264.221 347.831 264.052 347.663 263.844 347.663C263.636 347.663 263.468 347.831 263.468 348.039V351.704Z" fill="#263238"/>
<line x1="257.463" y1="351.813" x2="265.287" y2="351.813" stroke="#263238" stroke-opacity="0.5" stroke-width="0.5"/>
<line x1="257.463" y1="350.347" x2="265.287" y2="350.347" stroke="#263238" stroke-opacity="0.5" stroke-width="0.5"/>
<path d="M382.073 108.513H332.685V331.901H382.073V108.513Z" fill="#EBEBEB"/>
<path d="M382.079 108.513H363.125V331.901H382.079V108.513Z" fill="#094A73"/>
<path d="M374.478 126.141H370.727V139.618H374.478V126.141Z" fill="#EBEBEB"/>
<path d="M374.478 149.782H370.727V163.259H374.478V149.782Z" fill="#EBEBEB"/>
<path d="M374.478 176.259H370.727V189.736H374.478V176.259Z" fill="#EBEBEB"/>
<path d="M374.478 201.557H370.727V215.033H374.478V201.557Z" fill="#EBEBEB"/>
<path d="M374.478 226.865H370.727V240.342H374.478V226.865Z" fill="#EBEBEB"/>
<path d="M374.478 252.162H370.727V265.639H374.478V252.162Z" fill="#EBEBEB"/>
<path d="M374.478 277.471H370.727V290.947H374.478V277.471Z" fill="#EBEBEB"/>
<path d="M374.478 305.287H370.727V318.763H374.478V305.287Z" fill="#EBEBEB"/>
<path d="M384.538 107.105H328.388V109.715H384.538V107.105Z" fill="#094A73"/>
<path d="M372.606 91.3828H352.612V108.41H372.606V91.3828Z" fill="#094A73"/>
<path d="M363.125 91.3828H352.612V107.106H363.125V91.3828Z" fill="#EBEBEB"/>
<path d="M343.465 125.585H339.714V139.062H343.465V125.585Z" fill="#094A73"/>
<path d="M353.458 125.585H349.708V139.062H353.458V125.585Z" fill="#094A73"/>
<path d="M343.465 151.257H339.714V164.734H343.465V151.257Z" fill="#094A73"/>
<path d="M353.458 151.257H349.708V164.734H353.458V151.257Z" fill="#094A73"/>
<path d="M343.465 176.928H339.714V190.405H343.465V176.928Z" fill="#094A73"/>
<path d="M353.458 176.928H349.708V190.405H353.458V176.928Z" fill="#094A73"/>
<path d="M343.465 202.6H339.714V216.077H343.465V202.6Z" fill="#094A73"/>
<path d="M353.458 202.6H349.708V216.077H353.458V202.6Z" fill="#094A73"/>
<path d="M343.465 228.271H339.714V241.748H343.465V228.271Z" fill="#094A73"/>
<path d="M353.458 228.271H349.708V241.748H353.458V228.271Z" fill="#094A73"/>
<path d="M343.465 253.943H339.714V267.42H343.465V253.943Z" fill="#094A73"/>
<path d="M353.458 253.943H349.708V267.42H353.458V253.943Z" fill="#094A73"/>
<path d="M343.465 279.615H339.714V293.092H343.465V279.615Z" fill="#094A73"/>
<path d="M353.458 279.615H349.708V293.092H353.458V279.615Z" fill="#094A73"/>
<path d="M343.465 305.287H339.714V318.763H343.465V305.287Z" fill="#094A73"/>
<path d="M353.458 305.287H349.708V318.763H353.458V305.287Z" fill="#094A73"/>
<path d="M363.125 144.348C363.125 144.575 356.31 144.757 347.909 144.757C339.507 144.757 332.685 144.575 332.685 144.348C332.685 144.121 339.501 143.951 347.909 143.951C356.316 143.951 363.125 144.133 363.125 144.348Z" fill="#094A73"/>
<path d="M363.125 170.111C363.125 170.338 356.31 170.519 347.909 170.519C339.507 170.519 332.685 170.338 332.685 170.111C332.685 169.884 339.501 169.714 347.909 169.714C356.316 169.714 363.125 169.895 363.125 170.111Z" fill="#094A73"/>
<path d="M363.125 196.191C363.125 196.406 356.31 196.588 347.909 196.588C339.507 196.588 332.685 196.406 332.685 196.191C332.685 195.975 339.501 195.782 347.909 195.782C356.316 195.782 363.125 195.964 363.125 196.191Z" fill="#094A73"/>
<path d="M363.125 222.078C363.125 222.293 356.31 222.475 347.909 222.475C339.507 222.475 332.685 222.293 332.685 222.078C332.685 221.862 339.501 221.669 347.909 221.669C356.316 221.669 363.125 221.851 363.125 222.078Z" fill="#094A73"/>
<path d="M363.125 247.591C363.125 247.807 356.31 247.988 347.909 247.988C339.507 247.988 332.685 247.807 332.685 247.591C332.685 247.375 339.501 247.183 347.909 247.183C356.316 247.183 363.125 247.364 363.125 247.591Z" fill="#094A73"/>
<path d="M363.125 272.411C363.125 272.627 356.31 272.808 347.909 272.808C339.507 272.808 332.685 272.627 332.685 272.411C332.685 272.196 339.501 272.003 347.909 272.003C356.316 272.003 363.125 272.184 363.125 272.411Z" fill="#094A73"/>
<path d="M363.125 299.921C363.125 300.136 356.31 300.318 347.909 300.318C339.507 300.318 332.685 300.136 332.685 299.921C332.685 299.705 339.501 299.512 347.909 299.512C356.316 299.512 363.125 299.694 363.125 299.921Z" fill="#094A73"/>
<path d="M381.859 144.348C381.859 144.575 377.802 144.757 372.799 144.757C367.795 144.757 363.738 144.575 363.738 144.348C363.738 144.121 367.789 143.951 372.799 143.951C377.809 143.951 381.859 144.133 381.859 144.348Z" fill="#EBEBEB"/>
<path d="M381.859 170.111C381.859 170.338 377.802 170.519 372.799 170.519C367.795 170.519 363.738 170.338 363.738 170.111C363.738 169.884 367.789 169.714 372.799 169.714C377.809 169.714 381.859 169.895 381.859 170.111Z" fill="#EBEBEB"/>
<path d="M381.859 195.839C381.859 196.066 377.802 196.247 372.799 196.247C367.795 196.247 363.738 196.1 363.738 195.839C363.738 195.578 367.789 195.442 372.799 195.442C377.809 195.442 381.859 195.657 381.859 195.839Z" fill="#EBEBEB"/>
<path d="M381.66 222.078C381.66 222.293 377.602 222.475 372.599 222.475C367.595 222.475 363.538 222.293 363.538 222.078C363.538 221.862 367.595 221.669 372.599 221.669C377.602 221.669 381.66 221.851 381.66 222.078Z" fill="#EBEBEB"/>
<path d="M381.66 247.591C381.66 247.807 377.602 247.988 372.599 247.988C367.595 247.988 363.538 247.807 363.538 247.591C363.538 247.375 367.595 247.183 372.599 247.183C377.602 247.183 381.66 247.364 381.66 247.591Z" fill="#EBEBEB"/>
<path d="M381.66 273.103C381.66 273.319 377.602 273.5 372.599 273.5C367.595 273.5 363.538 273.319 363.538 273.103C363.538 272.888 367.595 272.695 372.599 272.695C377.602 272.695 381.66 272.876 381.66 273.103Z" fill="#EBEBEB"/>
<path d="M381.66 299.921C381.66 300.136 377.602 300.318 372.599 300.318C367.595 300.318 363.538 300.136 363.538 299.921C363.538 299.705 367.595 299.512 372.599 299.512C377.602 299.512 381.66 299.694 381.66 299.921Z" fill="#EBEBEB"/>
<path d="M343.049 351.439C343.049 351.913 342.449 352.121 342.156 351.748L338.883 347.584C338.79 347.466 338.649 347.397 338.5 347.397C338.231 347.397 338.013 347.616 338.013 347.884V353.867C338.013 354.075 338.181 354.243 338.389 354.243C338.597 354.243 338.766 354.075 338.766 353.867V350.073C338.766 349.598 339.365 349.391 339.659 349.763L343.062 354.085C343.14 354.185 343.26 354.243 343.387 354.243C343.616 354.243 343.802 354.057 343.802 353.828V347.774C343.802 347.566 343.634 347.397 343.426 347.397C343.218 347.397 343.049 347.566 343.049 347.774V351.439Z" fill="#263238"/>
<line x1="337.044" y1="351.548" x2="344.868" y2="351.548" stroke="#263238" stroke-opacity="0.5" stroke-width="0.5"/>
<line x1="337.044" y1="350.082" x2="344.868" y2="350.082" stroke="#263238" stroke-opacity="0.5" stroke-width="0.5"/>
<path d="M457.627 167.417H410.921V331.94H457.627V167.417Z" fill="#EBEBEB"/>
<path d="M457.618 167.417H434.27V331.94H457.618V167.417Z" fill="#949FBF"/>
<path d="M432.752 147.86H416.257V167.417H432.752V147.86Z" fill="#EBEBEB"/>
<path d="M432.744 147.86H428.816V167.417H432.744V147.86Z" fill="#949FBF"/>
<path d="M458.992 166.271H407.027V167.417H458.992V166.271Z" fill="#EBEBEB"/>
<path d="M424.096 175.948H420.143V187.167H424.096V175.948Z" fill="#949FBF"/>
<path d="M434.27 191.569C434.27 191.682 429.044 191.784 422.596 191.784C416.147 191.784 410.921 191.682 410.921 191.569C410.921 191.455 416.147 191.353 422.596 191.353C429.044 191.353 434.27 191.41 434.27 191.569Z" fill="#949FBF"/>
<path d="M447.647 175.948H443.693V187.167H447.647V175.948Z" fill="#EBEBEB"/>
<path d="M457.828 191.569C457.828 191.682 452.602 191.784 446.154 191.784C439.706 191.784 434.48 191.682 434.48 191.569C434.48 191.455 439.706 191.353 446.154 191.353C452.602 191.353 457.828 191.41 457.828 191.569Z" fill="#EBEBEB"/>
<path d="M447.647 198.216H443.693V209.436H447.647V198.216Z" fill="#EBEBEB"/>
<path d="M457.828 213.837C457.828 213.961 452.602 214.052 446.154 214.052C439.706 214.052 434.48 213.961 434.48 213.837C434.48 213.712 439.706 213.621 446.154 213.621C452.602 213.621 457.828 213.723 457.828 213.837Z" fill="#EBEBEB"/>
<path d="M447.647 221.165H443.693V232.384H447.647V221.165Z" fill="#EBEBEB"/>
<path d="M457.828 236.786C457.828 236.899 452.602 237.001 446.154 237.001C439.706 237.001 434.48 236.899 434.48 236.786C434.48 236.672 439.706 236.57 446.154 236.57C452.602 236.57 457.828 236.661 457.828 236.786Z" fill="#EBEBEB"/>
<path d="M447.647 244.103H443.693V255.322H447.647V244.103Z" fill="#EBEBEB"/>
<path d="M457.828 259.724C457.828 259.849 452.602 259.939 446.154 259.939C439.706 259.939 434.48 259.849 434.48 259.724C434.48 259.599 439.706 259.52 446.154 259.52C452.602 259.52 457.828 259.61 457.828 259.724Z" fill="#EBEBEB"/>
<path d="M447.647 266.394H443.693V277.613H447.647V266.394Z" fill="#EBEBEB"/>
<path d="M457.828 282.015C457.828 282.14 452.602 282.23 446.154 282.23C439.706 282.23 434.48 282.14 434.48 282.015C434.48 281.89 439.706 281.799 446.154 281.799C452.602 281.799 457.828 281.901 457.828 282.015Z" fill="#EBEBEB"/>
<path d="M447.647 288.776H443.693V299.995H447.647V288.776Z" fill="#EBEBEB"/>
<path d="M447.647 311.453H443.693V322.672H447.647V311.453Z" fill="#EBEBEB"/>
<path d="M457.828 304.397C457.828 304.521 452.602 304.612 446.154 304.612C439.706 304.612 434.48 304.521 434.48 304.397C434.48 304.272 439.706 304.181 446.154 304.181C452.602 304.181 457.828 304.283 457.828 304.397Z" fill="#EBEBEB"/>
<path d="M424.096 198.557H420.143V209.776H424.096V198.557Z" fill="#949FBF"/>
<path d="M434.27 214.177C434.27 214.291 429.044 214.393 422.596 214.393C416.147 214.393 410.921 214.291 410.921 214.177C410.921 214.064 416.147 213.962 422.596 213.962C429.044 213.962 434.27 214.098 434.27 214.177Z" fill="#949FBF"/>
<path d="M424.096 221.165H420.143V232.384H424.096V221.165Z" fill="#949FBF"/>
<path d="M434.27 236.786C434.27 236.911 429.044 237.001 422.596 237.001C416.147 237.001 410.921 236.911 410.921 236.786C410.921 236.661 416.147 236.582 422.596 236.582C429.044 236.582 434.27 236.672 434.27 236.786Z" fill="#949FBF"/>
<path d="M424.096 243.785H420.143V255.004H424.096V243.785Z" fill="#949FBF"/>
<path d="M434.27 259.406C434.27 259.519 429.044 259.622 422.596 259.622C416.147 259.622 410.921 259.519 410.921 259.406C410.921 259.293 416.147 259.19 422.596 259.19C429.044 259.19 434.27 259.281 434.27 259.406Z" fill="#949FBF"/>
<path d="M424.096 266.394H420.143V277.613H424.096V266.394Z" fill="#949FBF"/>
<path d="M434.27 282.015C434.27 282.14 429.044 282.23 422.596 282.23C416.147 282.23 410.921 282.14 410.921 282.015C410.921 281.89 416.147 281.799 422.596 281.799C429.044 281.799 434.27 281.901 434.27 282.015Z" fill="#949FBF"/>
<path d="M424.096 289.014H420.143V300.233H424.096V289.014Z" fill="#949FBF"/>
<path d="M434.27 304.634C434.27 304.748 429.044 304.85 422.596 304.85C416.147 304.85 410.921 304.748 410.921 304.634C410.921 304.521 416.147 304.419 422.596 304.419C429.044 304.419 434.27 304.51 434.27 304.634Z" fill="#949FBF"/>
<path d="M424.096 311.623H420.143V322.842H424.096V311.623Z" fill="#949FBF"/>
<path d="M419.207 351.195C419.207 351.669 418.608 351.877 418.314 351.504L415.041 347.339C414.948 347.222 414.807 347.153 414.658 347.153C414.389 347.153 414.171 347.371 414.171 347.64V353.622C414.171 353.83 414.339 353.999 414.547 353.999C414.755 353.999 414.924 353.83 414.924 353.622V349.829C414.924 349.354 415.523 349.147 415.817 349.519L419.22 353.841C419.298 353.941 419.418 353.999 419.546 353.999C419.775 353.999 419.96 353.813 419.96 353.584V347.53C419.96 347.322 419.792 347.153 419.584 347.153C419.376 347.153 419.207 347.322 419.207 347.53V351.195Z" fill="#263238"/>
<line x1="413.203" y1="351.304" x2="421.026" y2="351.304" stroke="#263238" stroke-opacity="0.5" stroke-width="0.5"/>
<line x1="413.203" y1="349.837" x2="421.026" y2="349.837" stroke="#263238" stroke-opacity="0.5" stroke-width="0.5"/>
<path d="M21.6576 348.766L19.9556 350.683L20.0788 351.045H20.4254C20.8721 351.045 21.234 351.135 21.5113 351.315C21.7937 351.494 21.9348 351.754 21.9348 352.093C21.9348 352.252 21.904 352.398 21.8424 352.532C21.7808 352.66 21.6961 352.77 21.5883 352.863C21.4856 352.955 21.3624 353.027 21.2186 353.078C21.0749 353.125 20.9208 353.148 20.7565 353.148C20.4228 353.148 20.1276 353.078 19.8709 352.94C19.6193 352.801 19.3883 352.603 19.1777 352.347L18.7388 352.74C18.9595 353.027 19.2368 353.261 19.5705 353.44C19.9042 353.615 20.297 353.702 20.7488 353.702C21.0004 353.702 21.234 353.664 21.4497 353.587C21.6704 353.505 21.8604 353.392 22.0196 353.248C22.1839 353.104 22.3122 352.932 22.4046 352.732C22.5022 352.532 22.551 352.311 22.551 352.069C22.551 351.823 22.5022 351.607 22.4046 351.423C22.3071 351.238 22.1762 351.084 22.0119 350.96C21.8527 350.837 21.6653 350.742 21.4497 350.676C21.234 350.609 21.0081 350.565 20.7719 350.545L22.4662 348.665V348.219H19.0237V348.766H21.6576Z" fill="#263238" fill-opacity="0.5"/>
<path d="M28.1058 350.907C28.1058 350.527 28.0519 350.17 27.9441 349.836C27.8414 349.497 27.6899 349.202 27.4897 348.95C27.2946 348.694 27.0559 348.493 26.7735 348.35C26.4962 348.201 26.1856 348.126 25.8416 348.126C25.4925 348.126 25.1767 348.201 24.8943 348.35C24.612 348.499 24.3706 348.701 24.1704 348.958C23.9753 349.21 23.8238 349.505 23.716 349.844C23.6082 350.183 23.5543 350.542 23.5543 350.922C23.5543 351.302 23.6056 351.661 23.7083 352C23.8161 352.334 23.9676 352.629 24.1627 352.886C24.3629 353.137 24.6017 353.338 24.8789 353.487C25.1613 353.63 25.4771 353.702 25.8262 353.702C26.1702 353.702 26.4834 353.628 26.7658 353.479C27.0482 353.33 27.2869 353.13 27.482 352.878C27.6822 352.621 27.8363 352.324 27.9441 351.985C28.0519 351.646 28.1058 351.287 28.1058 350.907ZM27.4743 350.922C27.4743 351.22 27.4358 351.505 27.3588 351.777C27.2869 352.044 27.1791 352.28 27.0353 352.485C26.8967 352.686 26.7247 352.847 26.5193 352.971C26.3191 353.089 26.0932 353.148 25.8416 353.148C25.59 353.148 25.3616 353.089 25.1562 352.971C24.9508 352.847 24.7763 352.683 24.6325 352.478C24.4887 352.272 24.3783 352.034 24.3013 351.761C24.2243 351.489 24.1858 351.204 24.1858 350.907C24.1858 350.609 24.2243 350.326 24.3013 350.059C24.3783 349.787 24.4862 349.551 24.6248 349.351C24.7686 349.146 24.9405 348.984 25.1408 348.866C25.3462 348.742 25.5746 348.681 25.8262 348.681C26.0778 348.681 26.3037 348.742 26.5039 348.866C26.7093 348.989 26.8839 349.153 27.0276 349.359C27.1714 349.564 27.2818 349.803 27.3588 350.075C27.4358 350.342 27.4743 350.624 27.4743 350.922Z" fill="#263238" fill-opacity="0.5"/>
<path d="M33.6111 350.907C33.6111 350.527 33.5572 350.17 33.4494 349.836C33.3467 349.497 33.1952 349.202 32.995 348.95C32.7999 348.694 32.5611 348.493 32.2788 348.35C32.0015 348.201 31.6909 348.126 31.3469 348.126C30.9978 348.126 30.682 348.201 30.3996 348.35C30.1172 348.499 29.8759 348.701 29.6757 348.958C29.4806 349.21 29.3291 349.505 29.2213 349.844C29.1135 350.183 29.0596 350.542 29.0596 350.922C29.0596 351.302 29.1109 351.661 29.2136 352C29.3214 352.334 29.4729 352.629 29.668 352.886C29.8682 353.137 30.107 353.338 30.3842 353.487C30.6666 353.63 30.9824 353.702 31.3315 353.702C31.6755 353.702 31.9887 353.628 32.2711 353.479C32.5534 353.33 32.7922 353.13 32.9873 352.878C33.1875 352.621 33.3416 352.324 33.4494 351.985C33.5572 351.646 33.6111 351.287 33.6111 350.907ZM32.9796 350.922C32.9796 351.22 32.9411 351.505 32.8641 351.777C32.7922 352.044 32.6844 352.28 32.5406 352.485C32.402 352.686 32.23 352.847 32.0246 352.971C31.8244 353.089 31.5985 353.148 31.3469 353.148C31.0953 353.148 30.8668 353.089 30.6615 352.971C30.4561 352.847 30.2815 352.683 30.1378 352.478C29.994 352.272 29.8836 352.034 29.8066 351.761C29.7296 351.489 29.6911 351.204 29.6911 350.907C29.6911 350.609 29.7296 350.326 29.8066 350.059C29.8836 349.787 29.9915 349.551 30.1301 349.351C30.2738 349.146 30.4458 348.984 30.6461 348.866C30.8514 348.742 31.0799 348.681 31.3315 348.681C31.5831 348.681 31.809 348.742 32.0092 348.866C32.2146 348.989 32.3892 349.153 32.5329 349.359C32.6767 349.564 32.7871 349.803 32.8641 350.075C32.9411 350.342 32.9796 350.624 32.9796 350.922Z" fill="#263238" fill-opacity="0.5"/>
<path d="M34.2912 354.28L34.3836 354.549C34.6763 354.483 34.8919 354.367 35.0306 354.203C35.1692 354.044 35.2385 353.807 35.2385 353.494V352.801H34.53V353.61H34.8072C34.8226 353.774 34.7893 353.908 34.7071 354.01C34.625 354.118 34.4863 354.208 34.2912 354.28Z" fill="#263238" fill-opacity="0.5"/>
<path d="M40.7033 350.907C40.7033 350.527 40.6494 350.17 40.5416 349.836C40.4389 349.497 40.2874 349.202 40.0872 348.95C39.8921 348.694 39.6533 348.493 39.371 348.35C39.0937 348.201 38.7831 348.126 38.4391 348.126C38.09 348.126 37.7742 348.201 37.4918 348.35C37.2094 348.499 36.9681 348.701 36.7679 348.958C36.5728 349.21 36.4213 349.505 36.3135 349.844C36.2057 350.183 36.1518 350.542 36.1518 350.922C36.1518 351.302 36.2031 351.661 36.3058 352C36.4136 352.334 36.5651 352.629 36.7602 352.886C36.9604 353.137 37.1992 353.338 37.4764 353.487C37.7588 353.63 38.0746 353.702 38.4237 353.702C38.7677 353.702 39.0809 353.628 39.3633 353.479C39.6456 353.33 39.8844 353.13 40.0795 352.878C40.2797 352.621 40.4337 352.324 40.5416 351.985C40.6494 351.646 40.7033 351.287 40.7033 350.907ZM40.0718 350.922C40.0718 351.22 40.0333 351.505 39.9563 351.777C39.8844 352.044 39.7766 352.28 39.6328 352.485C39.4942 352.686 39.3222 352.847 39.1168 352.971C38.9166 353.089 38.6907 353.148 38.4391 353.148C38.1875 353.148 37.959 353.089 37.7537 352.971C37.5483 352.847 37.3737 352.683 37.23 352.478C37.0862 352.272 36.9758 352.034 36.8988 351.761C36.8218 351.489 36.7833 351.204 36.7833 350.907C36.7833 350.609 36.8218 350.326 36.8988 350.059C36.9758 349.787 37.0836 349.551 37.2223 349.351C37.366 349.146 37.538 348.984 37.7383 348.866C37.9436 348.742 38.1721 348.681 38.4237 348.681C38.6753 348.681 38.9012 348.742 39.1014 348.866C39.3068 348.989 39.4813 349.153 39.6251 349.359C39.7689 349.564 39.8792 349.803 39.9563 350.075C40.0333 350.342 40.0718 350.624 40.0718 350.922Z" fill="#263238" fill-opacity="0.5"/>
<path d="M46.2086 350.907C46.2086 350.527 46.1547 350.17 46.0469 349.836C45.9442 349.497 45.7927 349.202 45.5925 348.95C45.3974 348.694 45.1586 348.493 44.8762 348.35C44.599 348.201 44.2884 348.126 43.9444 348.126C43.5952 348.126 43.2795 348.201 42.9971 348.35C42.7147 348.499 42.4734 348.701 42.2732 348.958C42.0781 349.21 41.9266 349.505 41.8188 349.844C41.711 350.183 41.6571 350.542 41.6571 350.922C41.6571 351.302 41.7084 351.661 41.8111 352C41.9189 352.334 42.0704 352.629 42.2655 352.886C42.4657 353.137 42.7045 353.338 42.9817 353.487C43.2641 353.63 43.5798 353.702 43.929 353.702C44.273 353.702 44.5862 353.628 44.8685 353.479C45.1509 353.33 45.3897 353.13 45.5848 352.878C45.785 352.621 45.939 352.324 46.0469 351.985C46.1547 351.646 46.2086 351.287 46.2086 350.907ZM45.5771 350.922C45.5771 351.22 45.5386 351.505 45.4615 351.777C45.3897 352.044 45.2818 352.28 45.1381 352.485C44.9995 352.686 44.8275 352.847 44.6221 352.971C44.4219 353.089 44.196 353.148 43.9444 353.148C43.6928 353.148 43.4643 353.089 43.259 352.971C43.0536 352.847 42.879 352.683 42.7353 352.478C42.5915 352.272 42.4811 352.034 42.4041 351.761C42.3271 351.489 42.2886 351.204 42.2886 350.907C42.2886 350.609 42.3271 350.326 42.4041 350.059C42.4811 349.787 42.5889 349.551 42.7276 349.351C42.8713 349.146 43.0433 348.984 43.2435 348.866C43.4489 348.742 43.6774 348.681 43.929 348.681C44.1805 348.681 44.4065 348.742 44.6067 348.866C44.8121 348.989 44.9866 349.153 45.1304 349.359C45.2741 349.564 45.3845 349.803 45.4615 350.075C45.5386 350.342 45.5771 350.624 45.5771 350.922Z" fill="#263238" fill-opacity="0.5"/>
<path d="M51.7139 350.907C51.7139 350.527 51.66 350.17 51.5521 349.836C51.4495 349.497 51.298 349.202 51.0978 348.95C50.9027 348.694 50.6639 348.493 50.3815 348.35C50.1043 348.201 49.7937 348.126 49.4497 348.126C49.1005 348.126 48.7848 348.201 48.5024 348.35C48.22 348.499 47.9787 348.701 47.7785 348.958C47.5834 349.21 47.4319 349.505 47.3241 349.844C47.2163 350.183 47.1623 350.542 47.1623 350.922C47.1623 351.302 47.2137 351.661 47.3164 352C47.4242 352.334 47.5757 352.629 47.7708 352.886C47.971 353.137 48.2097 353.338 48.487 353.487C48.7694 353.63 49.0851 353.702 49.4343 353.702C49.7783 353.702 50.0914 353.628 50.3738 353.479C50.6562 353.33 50.895 353.13 51.0901 352.878C51.2903 352.621 51.4443 352.324 51.5521 351.985C51.66 351.646 51.7139 351.287 51.7139 350.907ZM51.0824 350.922C51.0824 351.22 51.0438 351.505 50.9668 351.777C50.895 352.044 50.7871 352.28 50.6434 352.485C50.5047 352.686 50.3328 352.847 50.1274 352.971C49.9271 353.089 49.7012 353.148 49.4497 353.148C49.1981 353.148 48.9696 353.089 48.7642 352.971C48.5589 352.847 48.3843 352.683 48.2405 352.478C48.0968 352.272 47.9864 352.034 47.9094 351.761C47.8324 351.489 47.7939 351.204 47.7939 350.907C47.7939 350.609 47.8324 350.326 47.9094 350.059C47.9864 349.787 48.0942 349.551 48.2328 349.351C48.3766 349.146 48.5486 348.984 48.7488 348.866C48.9542 348.742 49.1827 348.681 49.4343 348.681C49.6858 348.681 49.9117 348.742 50.112 348.866C50.3173 348.989 50.4919 349.153 50.6357 349.359C50.7794 349.564 50.8898 349.803 50.9668 350.075C51.0438 350.342 51.0824 350.624 51.0824 350.922Z" fill="#263238" fill-opacity="0.5"/>
<path d="M102.01 348.732C102.154 348.732 102.293 348.757 102.426 348.809C102.56 348.855 102.675 348.924 102.773 349.017C102.87 349.104 102.947 349.212 103.004 349.34C103.065 349.463 103.096 349.604 103.096 349.764C103.096 349.897 103.076 350.028 103.035 350.156C102.999 350.28 102.935 350.408 102.842 350.541C102.755 350.67 102.639 350.808 102.496 350.957C102.352 351.106 102.177 351.273 101.972 351.458L100.016 353.183V353.653H103.782V353.098H100.925L102.365 351.82C102.601 351.615 102.804 351.427 102.973 351.258C103.143 351.083 103.284 350.916 103.397 350.757C103.51 350.593 103.592 350.428 103.643 350.264C103.7 350.1 103.728 349.918 103.728 349.717C103.728 349.497 103.687 349.294 103.605 349.109C103.522 348.919 103.407 348.757 103.258 348.624C103.109 348.485 102.932 348.377 102.727 348.3C102.526 348.223 102.303 348.185 102.057 348.185C101.82 348.185 101.607 348.21 101.417 348.262C101.233 348.313 101.063 348.388 100.909 348.485C100.76 348.583 100.622 348.703 100.493 348.847C100.365 348.991 100.239 349.153 100.116 349.332L100.563 349.656C100.778 349.353 100.996 349.124 101.217 348.97C101.438 348.811 101.702 348.732 102.01 348.732Z" fill="#263238" fill-opacity="0.5"/>
<path d="M104.611 354.323L104.703 354.592C104.996 354.526 105.211 354.41 105.35 354.246C105.489 354.087 105.558 353.85 105.558 353.537V352.844H104.849V353.653H105.127C105.142 353.817 105.109 353.951 105.027 354.053C104.944 354.161 104.806 354.251 104.611 354.323Z" fill="#263238" fill-opacity="0.5"/>
<path d="M111.023 350.95C111.023 350.57 110.969 350.213 110.861 349.879C110.758 349.54 110.607 349.245 110.407 348.993C110.211 348.737 109.973 348.537 109.69 348.393C109.413 348.244 109.102 348.169 108.758 348.169C108.409 348.169 108.094 348.244 107.811 348.393C107.529 348.542 107.288 348.744 107.087 349.001C106.892 349.253 106.741 349.548 106.633 349.887C106.525 350.226 106.471 350.585 106.471 350.965C106.471 351.345 106.523 351.704 106.625 352.043C106.733 352.377 106.884 352.672 107.08 352.929C107.28 353.18 107.519 353.381 107.796 353.53C108.078 353.673 108.394 353.745 108.743 353.745C109.087 353.745 109.4 353.671 109.683 353.522C109.965 353.373 110.204 353.173 110.399 352.921C110.599 352.664 110.753 352.367 110.861 352.028C110.969 351.689 111.023 351.33 111.023 350.95ZM110.391 350.965C110.391 351.263 110.353 351.548 110.276 351.82C110.204 352.087 110.096 352.323 109.952 352.528C109.814 352.729 109.642 352.89 109.436 353.014C109.236 353.132 109.01 353.191 108.758 353.191C108.507 353.191 108.278 353.132 108.073 353.014C107.868 352.89 107.693 352.726 107.549 352.521C107.406 352.315 107.295 352.077 107.218 351.804C107.141 351.532 107.103 351.247 107.103 350.95C107.103 350.652 107.141 350.369 107.218 350.102C107.295 349.83 107.403 349.594 107.542 349.394C107.685 349.189 107.857 349.027 108.058 348.909C108.263 348.786 108.492 348.724 108.743 348.724C108.995 348.724 109.221 348.786 109.421 348.909C109.626 349.032 109.801 349.196 109.945 349.402C110.088 349.607 110.199 349.846 110.276 350.118C110.353 350.385 110.391 350.667 110.391 350.965Z" fill="#263238" fill-opacity="0.5"/>
<path d="M116.528 350.95C116.528 350.57 116.474 350.213 116.366 349.879C116.264 349.54 116.112 349.245 115.912 348.993C115.717 348.737 115.478 348.537 115.196 348.393C114.918 348.244 114.608 348.169 114.264 348.169C113.915 348.169 113.599 348.244 113.317 348.393C113.034 348.542 112.793 348.744 112.593 349.001C112.397 349.253 112.246 349.548 112.138 349.887C112.03 350.226 111.976 350.585 111.976 350.965C111.976 351.345 112.028 351.704 112.131 352.043C112.238 352.377 112.39 352.672 112.585 352.929C112.785 353.18 113.024 353.381 113.301 353.53C113.583 353.673 113.899 353.745 114.248 353.745C114.592 353.745 114.906 353.671 115.188 353.522C115.47 353.373 115.709 353.173 115.904 352.921C116.104 352.664 116.258 352.367 116.366 352.028C116.474 351.689 116.528 351.33 116.528 350.95ZM115.896 350.965C115.896 351.263 115.858 351.548 115.781 351.82C115.709 352.087 115.601 352.323 115.458 352.528C115.319 352.729 115.147 352.89 114.942 353.014C114.741 353.132 114.515 353.191 114.264 353.191C114.012 353.191 113.784 353.132 113.578 353.014C113.373 352.89 113.198 352.726 113.055 352.521C112.911 352.315 112.801 352.077 112.724 351.804C112.646 351.532 112.608 351.247 112.608 350.95C112.608 350.652 112.646 350.369 112.724 350.102C112.801 349.83 112.908 349.594 113.047 349.394C113.191 349.189 113.363 349.027 113.563 348.909C113.768 348.786 113.997 348.724 114.248 348.724C114.5 348.724 114.726 348.786 114.926 348.909C115.131 349.032 115.306 349.196 115.45 349.402C115.594 349.607 115.704 349.846 115.781 350.118C115.858 350.385 115.896 350.667 115.896 350.965Z" fill="#263238" fill-opacity="0.5"/>
<path d="M122.033 350.95C122.033 350.57 121.979 350.213 121.872 349.879C121.769 349.54 121.617 349.245 121.417 348.993C121.222 348.737 120.983 348.537 120.701 348.393C120.424 348.244 120.113 348.169 119.769 348.169C119.42 348.169 119.104 348.244 118.822 348.393C118.539 348.542 118.298 348.744 118.098 349.001C117.903 349.253 117.751 349.548 117.643 349.887C117.536 350.226 117.482 350.585 117.482 350.965C117.482 351.345 117.533 351.704 117.636 352.043C117.744 352.377 117.895 352.672 118.09 352.929C118.29 353.18 118.529 353.381 118.806 353.53C119.089 353.673 119.405 353.745 119.754 353.745C120.098 353.745 120.411 353.671 120.693 353.522C120.976 353.373 121.214 353.173 121.409 352.921C121.61 352.664 121.764 352.367 121.872 352.028C121.979 351.689 122.033 351.33 122.033 350.95ZM121.402 350.965C121.402 351.263 121.363 351.548 121.286 351.82C121.214 352.087 121.107 352.323 120.963 352.528C120.824 352.729 120.652 352.89 120.447 353.014C120.247 353.132 120.021 353.191 119.769 353.191C119.517 353.191 119.289 353.132 119.084 353.014C118.878 352.89 118.704 352.726 118.56 352.521C118.416 352.315 118.306 352.077 118.229 351.804C118.152 351.532 118.113 351.247 118.113 350.95C118.113 350.652 118.152 350.369 118.229 350.102C118.306 349.83 118.414 349.594 118.552 349.394C118.696 349.189 118.868 349.027 119.068 348.909C119.274 348.786 119.502 348.724 119.754 348.724C120.005 348.724 120.231 348.786 120.431 348.909C120.637 349.032 120.811 349.196 120.955 349.402C121.099 349.607 121.209 349.846 121.286 350.118C121.363 350.385 121.402 350.667 121.402 350.965Z" fill="#263238" fill-opacity="0.5"/>
<path d="M122.713 354.323L122.806 354.592C123.098 354.526 123.314 354.41 123.453 354.246C123.591 354.087 123.661 353.85 123.661 353.537V352.844H122.952V353.653H123.229C123.245 353.817 123.211 353.951 123.129 354.053C123.047 354.161 122.909 354.251 122.713 354.323Z" fill="#263238" fill-opacity="0.5"/>
<path d="M129.125 350.95C129.125 350.57 129.072 350.213 128.964 349.879C128.861 349.54 128.71 349.245 128.509 348.993C128.314 348.737 128.076 348.537 127.793 348.393C127.516 348.244 127.205 348.169 126.861 348.169C126.512 348.169 126.196 348.244 125.914 348.393C125.632 348.542 125.39 348.744 125.19 349.001C124.995 349.253 124.843 349.548 124.736 349.887C124.628 350.226 124.574 350.585 124.574 350.965C124.574 351.345 124.625 351.704 124.728 352.043C124.836 352.377 124.987 352.672 125.182 352.929C125.383 353.18 125.621 353.381 125.899 353.53C126.181 353.673 126.497 353.745 126.846 353.745C127.19 353.745 127.503 353.671 127.785 353.522C128.068 353.373 128.307 353.173 128.502 352.921C128.702 352.664 128.856 352.367 128.964 352.028C129.072 351.689 129.125 351.33 129.125 350.95ZM128.494 350.965C128.494 351.263 128.455 351.548 128.378 351.82C128.307 352.087 128.199 352.323 128.055 352.528C127.916 352.729 127.744 352.89 127.539 353.014C127.339 353.132 127.113 353.191 126.861 353.191C126.61 353.191 126.381 353.132 126.176 353.014C125.97 352.89 125.796 352.726 125.652 352.521C125.508 352.315 125.398 352.077 125.321 351.804C125.244 351.532 125.205 351.247 125.205 350.95C125.205 350.652 125.244 350.369 125.321 350.102C125.398 349.83 125.506 349.594 125.644 349.394C125.788 349.189 125.96 349.027 126.16 348.909C126.366 348.786 126.594 348.724 126.846 348.724C127.097 348.724 127.323 348.786 127.524 348.909C127.729 349.032 127.904 349.196 128.047 349.402C128.191 349.607 128.301 349.846 128.378 350.118C128.455 350.385 128.494 350.667 128.494 350.965Z" fill="#263238" fill-opacity="0.5"/>
<path d="M134.631 350.95C134.631 350.57 134.577 350.213 134.469 349.879C134.366 349.54 134.215 349.245 134.015 348.993C133.82 348.737 133.581 348.537 133.298 348.393C133.021 348.244 132.711 348.169 132.367 348.169C132.017 348.169 131.702 348.244 131.419 348.393C131.137 348.542 130.896 348.744 130.695 349.001C130.5 349.253 130.349 349.548 130.241 349.887C130.133 350.226 130.079 350.585 130.079 350.965C130.079 351.345 130.131 351.704 130.233 352.043C130.341 352.377 130.493 352.672 130.688 352.929C130.888 353.18 131.127 353.381 131.404 353.53C131.686 353.673 132.002 353.745 132.351 353.745C132.695 353.745 133.008 353.671 133.291 353.522C133.573 353.373 133.812 353.173 134.007 352.921C134.207 352.664 134.361 352.367 134.469 352.028C134.577 351.689 134.631 351.33 134.631 350.95ZM133.999 350.965C133.999 351.263 133.961 351.548 133.884 351.82C133.812 352.087 133.704 352.323 133.56 352.528C133.422 352.729 133.25 352.89 133.044 353.014C132.844 353.132 132.618 353.191 132.367 353.191C132.115 353.191 131.886 353.132 131.681 353.014C131.476 352.89 131.301 352.726 131.157 352.521C131.014 352.315 130.903 352.077 130.826 351.804C130.749 351.532 130.711 351.247 130.711 350.95C130.711 350.652 130.749 350.369 130.826 350.102C130.903 349.83 131.011 349.594 131.15 349.394C131.293 349.189 131.465 349.027 131.666 348.909C131.871 348.786 132.1 348.724 132.351 348.724C132.603 348.724 132.829 348.786 133.029 348.909C133.234 349.032 133.409 349.196 133.553 349.402C133.696 349.607 133.807 349.846 133.884 350.118C133.961 350.385 133.999 350.667 133.999 350.965Z" fill="#263238" fill-opacity="0.5"/>
<path d="M140.136 350.95C140.136 350.57 140.082 350.213 139.974 349.879C139.872 349.54 139.72 349.245 139.52 348.993C139.325 348.737 139.086 348.537 138.804 348.393C138.526 348.244 138.216 348.169 137.872 348.169C137.523 348.169 137.207 348.244 136.925 348.393C136.642 348.542 136.401 348.744 136.201 349.001C136.006 349.253 135.854 349.548 135.746 349.887C135.638 350.226 135.585 350.585 135.585 350.965C135.585 351.345 135.636 351.704 135.739 352.043C135.846 352.377 135.998 352.672 136.193 352.929C136.393 353.18 136.632 353.381 136.909 353.53C137.192 353.673 137.507 353.745 137.856 353.745C138.2 353.745 138.514 353.671 138.796 353.522C139.078 353.373 139.317 353.173 139.512 352.921C139.712 352.664 139.867 352.367 139.974 352.028C140.082 351.689 140.136 351.33 140.136 350.95ZM139.505 350.965C139.505 351.263 139.466 351.548 139.389 351.82C139.317 352.087 139.209 352.323 139.066 352.528C138.927 352.729 138.755 352.89 138.55 353.014C138.349 353.132 138.123 353.191 137.872 353.191C137.62 353.191 137.392 353.132 137.186 353.014C136.981 352.89 136.806 352.726 136.663 352.521C136.519 352.315 136.409 352.077 136.332 351.804C136.255 351.532 136.216 351.247 136.216 350.95C136.216 350.652 136.255 350.369 136.332 350.102C136.409 349.83 136.516 349.594 136.655 349.394C136.799 349.189 136.971 349.027 137.171 348.909C137.376 348.786 137.605 348.724 137.856 348.724C138.108 348.724 138.334 348.786 138.534 348.909C138.74 349.032 138.914 349.196 139.058 349.402C139.202 349.607 139.312 349.846 139.389 350.118C139.466 350.385 139.505 350.667 139.505 350.965Z" fill="#263238" fill-opacity="0.5"/>
<path d="M184.577 348.254L184.723 348.747L185.74 348.432V353.23H186.341V347.8H185.894L184.577 348.254Z" fill="#263238" fill-opacity="0.5"/>
<path d="M187.476 353.9L187.568 354.169C187.861 354.102 188.076 353.987 188.215 353.823C188.354 353.663 188.423 353.427 188.423 353.114V352.421H187.714V353.23H187.992C188.007 353.394 187.974 353.527 187.892 353.63C187.809 353.738 187.671 353.828 187.476 353.9Z" fill="#263238" fill-opacity="0.5"/>
<path d="M193.888 350.526C193.888 350.146 193.834 349.79 193.726 349.456C193.623 349.117 193.472 348.822 193.272 348.57C193.077 348.313 192.838 348.113 192.555 347.969C192.278 347.821 191.968 347.746 191.624 347.746C191.274 347.746 190.959 347.821 190.676 347.969C190.394 348.118 190.153 348.321 189.952 348.578C189.757 348.829 189.606 349.125 189.498 349.464C189.39 349.802 189.336 350.162 189.336 350.542C189.336 350.922 189.388 351.281 189.49 351.62C189.598 351.954 189.75 352.249 189.945 352.506C190.145 352.757 190.384 352.957 190.661 353.106C190.943 353.25 191.259 353.322 191.608 353.322C191.952 353.322 192.265 353.248 192.548 353.099C192.83 352.95 193.069 352.749 193.264 352.498C193.464 352.241 193.618 351.943 193.726 351.605C193.834 351.266 193.888 350.906 193.888 350.526ZM193.256 350.542C193.256 350.84 193.218 351.124 193.141 351.397C193.069 351.664 192.961 351.9 192.817 352.105C192.679 352.305 192.507 352.467 192.301 352.59C192.101 352.708 191.875 352.767 191.624 352.767C191.372 352.767 191.144 352.708 190.938 352.59C190.733 352.467 190.558 352.303 190.414 352.097C190.271 351.892 190.16 351.653 190.083 351.381C190.006 351.109 189.968 350.824 189.968 350.526C189.968 350.229 190.006 349.946 190.083 349.679C190.16 349.407 190.268 349.171 190.407 348.971C190.551 348.765 190.723 348.604 190.923 348.485C191.128 348.362 191.357 348.301 191.608 348.301C191.86 348.301 192.086 348.362 192.286 348.485C192.491 348.609 192.666 348.773 192.81 348.978C192.953 349.184 193.064 349.422 193.141 349.695C193.218 349.962 193.256 350.244 193.256 350.542Z" fill="#263238" fill-opacity="0.5"/>
<path d="M199.393 350.526C199.393 350.146 199.339 349.79 199.231 349.456C199.129 349.117 198.977 348.822 198.777 348.57C198.582 348.313 198.343 348.113 198.061 347.969C197.783 347.821 197.473 347.746 197.129 347.746C196.78 347.746 196.464 347.821 196.182 347.969C195.899 348.118 195.658 348.321 195.458 348.578C195.263 348.829 195.111 349.125 195.003 349.464C194.895 349.802 194.842 350.162 194.842 350.542C194.842 350.922 194.893 351.281 194.996 351.62C195.103 351.954 195.255 352.249 195.45 352.506C195.65 352.757 195.889 352.957 196.166 353.106C196.449 353.25 196.764 353.322 197.113 353.322C197.457 353.322 197.771 353.248 198.053 353.099C198.335 352.95 198.574 352.749 198.769 352.498C198.969 352.241 199.124 351.943 199.231 351.605C199.339 351.266 199.393 350.906 199.393 350.526ZM198.762 350.542C198.762 350.84 198.723 351.124 198.646 351.397C198.574 351.664 198.466 351.9 198.323 352.105C198.184 352.305 198.012 352.467 197.807 352.59C197.606 352.708 197.38 352.767 197.129 352.767C196.877 352.767 196.649 352.708 196.443 352.59C196.238 352.467 196.064 352.303 195.92 352.097C195.776 351.892 195.666 351.653 195.589 351.381C195.512 351.109 195.473 350.824 195.473 350.526C195.473 350.229 195.512 349.946 195.589 349.679C195.666 349.407 195.773 349.171 195.912 348.971C196.056 348.765 196.228 348.604 196.428 348.485C196.633 348.362 196.862 348.301 197.113 348.301C197.365 348.301 197.591 348.362 197.791 348.485C197.997 348.609 198.171 348.773 198.315 348.978C198.459 349.184 198.569 349.422 198.646 349.695C198.723 349.962 198.762 350.244 198.762 350.542Z" fill="#263238" fill-opacity="0.5"/>
<path d="M204.898 350.526C204.898 350.146 204.844 349.79 204.737 349.456C204.634 349.117 204.482 348.822 204.282 348.57C204.087 348.313 203.848 348.113 203.566 347.969C203.289 347.821 202.978 347.746 202.634 347.746C202.285 347.746 201.969 347.821 201.687 347.969C201.404 348.118 201.163 348.321 200.963 348.578C200.768 348.829 200.616 349.125 200.509 349.464C200.401 349.802 200.347 350.162 200.347 350.542C200.347 350.922 200.398 351.281 200.501 351.62C200.609 351.954 200.76 352.249 200.955 352.506C201.155 352.757 201.394 352.957 201.671 353.106C201.954 353.25 202.27 353.322 202.619 353.322C202.963 353.322 203.276 353.248 203.558 353.099C203.841 352.95 204.079 352.749 204.275 352.498C204.475 352.241 204.629 351.943 204.737 351.605C204.844 351.266 204.898 350.906 204.898 350.526ZM204.267 350.542C204.267 350.84 204.228 351.124 204.151 351.397C204.079 351.664 203.972 351.9 203.828 352.105C203.689 352.305 203.517 352.467 203.312 352.59C203.112 352.708 202.886 352.767 202.634 352.767C202.383 352.767 202.154 352.708 201.949 352.59C201.743 352.467 201.569 352.303 201.425 352.097C201.281 351.892 201.171 351.653 201.094 351.381C201.017 351.109 200.978 350.824 200.978 350.526C200.978 350.229 201.017 349.946 201.094 349.679C201.171 349.407 201.279 349.171 201.417 348.971C201.561 348.765 201.733 348.604 201.933 348.485C202.139 348.362 202.367 348.301 202.619 348.301C202.87 348.301 203.096 348.362 203.296 348.485C203.502 348.609 203.676 348.773 203.82 348.978C203.964 349.184 204.074 349.422 204.151 349.695C204.228 349.962 204.267 350.244 204.267 350.542Z" fill="#263238" fill-opacity="0.5"/>
<path d="M205.578 353.9L205.671 354.169C205.964 354.102 206.179 353.987 206.318 353.823C206.456 353.663 206.526 353.427 206.526 353.114V352.421H205.817V353.23H206.094C206.11 353.394 206.077 353.527 205.994 353.63C205.912 353.738 205.774 353.828 205.578 353.9Z" fill="#263238" fill-opacity="0.5"/>
<path d="M211.991 350.526C211.991 350.146 211.937 349.79 211.829 349.456C211.726 349.117 211.575 348.822 211.374 348.57C211.179 348.313 210.941 348.113 210.658 347.969C210.381 347.821 210.07 347.746 209.726 347.746C209.377 347.746 209.061 347.821 208.779 347.969C208.497 348.118 208.255 348.321 208.055 348.578C207.86 348.829 207.709 349.125 207.601 349.464C207.493 349.802 207.439 350.162 207.439 350.542C207.439 350.922 207.49 351.281 207.593 351.62C207.701 351.954 207.852 352.249 208.047 352.506C208.248 352.757 208.486 352.957 208.764 353.106C209.046 353.25 209.362 353.322 209.711 353.322C210.055 353.322 210.368 353.248 210.651 353.099C210.933 352.95 211.172 352.749 211.367 352.498C211.567 352.241 211.721 351.943 211.829 351.605C211.937 351.266 211.991 350.906 211.991 350.526ZM211.359 350.542C211.359 350.84 211.321 351.124 211.244 351.397C211.172 351.664 211.064 351.9 210.92 352.105C210.781 352.305 210.609 352.467 210.404 352.59C210.204 352.708 209.978 352.767 209.726 352.767C209.475 352.767 209.246 352.708 209.041 352.59C208.836 352.467 208.661 352.303 208.517 352.097C208.373 351.892 208.263 351.653 208.186 351.381C208.109 351.109 208.071 350.824 208.071 350.526C208.071 350.229 208.109 349.946 208.186 349.679C208.263 349.407 208.371 349.171 208.51 348.971C208.653 348.765 208.825 348.604 209.026 348.485C209.231 348.362 209.459 348.301 209.711 348.301C209.963 348.301 210.188 348.362 210.389 348.485C210.594 348.609 210.769 348.773 210.912 348.978C211.056 349.184 211.167 349.422 211.244 349.695C211.321 349.962 211.359 350.244 211.359 350.542Z" fill="#263238" fill-opacity="0.5"/>
<path d="M217.496 350.526C217.496 350.146 217.442 349.79 217.334 349.456C217.231 349.117 217.08 348.822 216.88 348.57C216.685 348.313 216.446 348.113 216.163 347.969C215.886 347.821 215.576 347.746 215.232 347.746C214.883 347.746 214.567 347.821 214.284 347.969C214.002 348.118 213.761 348.321 213.56 348.578C213.365 348.829 213.214 349.125 213.106 349.464C212.998 349.802 212.944 350.162 212.944 350.542C212.944 350.922 212.996 351.281 213.098 351.62C213.206 351.954 213.358 352.249 213.553 352.506C213.753 352.757 213.992 352.957 214.269 353.106C214.551 353.25 214.867 353.322 215.216 353.322C215.56 353.322 215.873 353.248 216.156 353.099C216.438 352.95 216.677 352.749 216.872 352.498C217.072 352.241 217.226 351.943 217.334 351.605C217.442 351.266 217.496 350.906 217.496 350.526ZM216.864 350.542C216.864 350.84 216.826 351.124 216.749 351.397C216.677 351.664 216.569 351.9 216.425 352.105C216.287 352.305 216.115 352.467 215.909 352.59C215.709 352.708 215.483 352.767 215.232 352.767C214.98 352.767 214.752 352.708 214.546 352.59C214.341 352.467 214.166 352.303 214.023 352.097C213.879 351.892 213.768 351.653 213.691 351.381C213.614 351.109 213.576 350.824 213.576 350.526C213.576 350.229 213.614 349.946 213.691 349.679C213.768 349.407 213.876 349.171 214.015 348.971C214.159 348.765 214.331 348.604 214.531 348.485C214.736 348.362 214.965 348.301 215.216 348.301C215.468 348.301 215.694 348.362 215.894 348.485C216.099 348.609 216.274 348.773 216.418 348.978C216.561 349.184 216.672 349.422 216.749 349.695C216.826 349.962 216.864 350.244 216.864 350.542Z" fill="#263238" fill-opacity="0.5"/>
<path d="M223.001 350.526C223.001 350.146 222.947 349.79 222.839 349.456C222.737 349.117 222.585 348.822 222.385 348.57C222.19 348.313 221.951 348.113 221.669 347.969C221.392 347.821 221.081 347.746 220.737 347.746C220.388 347.746 220.072 347.821 219.79 347.969C219.507 348.118 219.266 348.321 219.066 348.578C218.871 348.829 218.719 349.125 218.611 349.464C218.504 349.802 218.45 350.162 218.45 350.542C218.45 350.922 218.501 351.281 218.604 351.62C218.711 351.954 218.863 352.249 219.058 352.506C219.258 352.757 219.497 352.957 219.774 353.106C220.057 353.25 220.372 353.322 220.722 353.322C221.066 353.322 221.379 353.248 221.661 353.099C221.943 352.95 222.182 352.749 222.377 352.498C222.578 352.241 222.732 351.943 222.839 351.605C222.947 351.266 223.001 350.906 223.001 350.526ZM222.37 350.542C222.37 350.84 222.331 351.124 222.254 351.397C222.182 351.664 222.074 351.9 221.931 352.105C221.792 352.305 221.62 352.467 221.415 352.59C221.214 352.708 220.988 352.767 220.737 352.767C220.485 352.767 220.257 352.708 220.051 352.59C219.846 352.467 219.672 352.303 219.528 352.097C219.384 351.892 219.274 351.653 219.197 351.381C219.12 351.109 219.081 350.824 219.081 350.526C219.081 350.229 219.12 349.946 219.197 349.679C219.274 349.407 219.381 349.171 219.52 348.971C219.664 348.765 219.836 348.604 220.036 348.485C220.241 348.362 220.47 348.301 220.722 348.301C220.973 348.301 221.199 348.362 221.399 348.485C221.605 348.609 221.779 348.773 221.923 348.978C222.067 349.184 222.177 349.422 222.254 349.695C222.331 349.962 222.37 350.244 222.37 350.542Z" fill="#263238" fill-opacity="0.5"/>
<path d="M269.813 348.809L268.111 350.726L268.234 351.088H268.581C269.028 351.088 269.39 351.178 269.667 351.358C269.949 351.537 270.091 351.797 270.091 352.136C270.091 352.295 270.06 352.441 269.998 352.575C269.937 352.703 269.852 352.813 269.744 352.906C269.641 352.998 269.518 353.07 269.374 353.121C269.231 353.168 269.077 353.191 268.912 353.191C268.578 353.191 268.283 353.121 268.027 352.983C267.775 352.844 267.544 352.646 267.333 352.39L266.894 352.783C267.115 353.07 267.392 353.304 267.726 353.483C268.06 353.658 268.453 353.745 268.905 353.745C269.156 353.745 269.39 353.707 269.605 353.63C269.826 353.548 270.016 353.435 270.175 353.291C270.34 353.147 270.468 352.975 270.56 352.775C270.658 352.575 270.707 352.354 270.707 352.113C270.707 351.866 270.658 351.65 270.56 351.466C270.463 351.281 270.332 351.127 270.168 351.004C270.008 350.88 269.821 350.785 269.605 350.719C269.39 350.652 269.164 350.608 268.928 350.588L270.622 348.709V348.262H267.179V348.809H269.813Z" fill="#263238" fill-opacity="0.5"/>
<path d="M271.587 354.323L271.679 354.592C271.972 354.526 272.187 354.41 272.326 354.246C272.465 354.087 272.534 353.85 272.534 353.537V352.844H271.826V353.653H272.103C272.118 353.817 272.085 353.951 272.003 354.053C271.921 354.161 271.782 354.251 271.587 354.323Z" fill="#263238" fill-opacity="0.5"/>
<path d="M277.999 350.95C277.999 350.57 277.945 350.213 277.837 349.879C277.734 349.54 277.583 349.245 277.383 348.993C277.188 348.737 276.949 348.537 276.666 348.393C276.389 348.244 276.079 348.169 275.735 348.169C275.385 348.169 275.07 348.244 274.787 348.393C274.505 348.542 274.264 348.744 274.063 349.001C273.868 349.253 273.717 349.548 273.609 349.887C273.501 350.226 273.447 350.585 273.447 350.965C273.447 351.345 273.499 351.704 273.601 352.043C273.709 352.377 273.861 352.672 274.056 352.929C274.256 353.18 274.495 353.381 274.772 353.53C275.054 353.673 275.37 353.745 275.719 353.745C276.063 353.745 276.376 353.671 276.659 353.522C276.941 353.373 277.18 353.173 277.375 352.921C277.575 352.664 277.729 352.367 277.837 352.028C277.945 351.689 277.999 351.33 277.999 350.95ZM277.367 350.965C277.367 351.263 277.329 351.548 277.252 351.82C277.18 352.087 277.072 352.323 276.928 352.528C276.79 352.729 276.618 352.89 276.412 353.014C276.212 353.132 275.986 353.191 275.735 353.191C275.483 353.191 275.255 353.132 275.049 353.014C274.844 352.89 274.669 352.726 274.526 352.521C274.382 352.315 274.271 352.077 274.194 351.804C274.117 351.532 274.079 351.247 274.079 350.95C274.079 350.652 274.117 350.369 274.194 350.102C274.271 349.83 274.379 349.594 274.518 349.394C274.662 349.189 274.834 349.027 275.034 348.909C275.239 348.786 275.468 348.724 275.719 348.724C275.971 348.724 276.197 348.786 276.397 348.909C276.602 349.032 276.777 349.196 276.921 349.402C277.064 349.607 277.175 349.846 277.252 350.118C277.329 350.385 277.367 350.667 277.367 350.965Z" fill="#263238" fill-opacity="0.5"/>
<path d="M283.504 350.95C283.504 350.57 283.45 350.213 283.342 349.879C283.24 349.54 283.088 349.245 282.888 348.993C282.693 348.737 282.454 348.537 282.172 348.393C281.895 348.244 281.584 348.169 281.24 348.169C280.891 348.169 280.575 348.244 280.293 348.393C280.01 348.542 279.769 348.744 279.569 349.001C279.374 349.253 279.222 349.548 279.114 349.887C279.007 350.226 278.953 350.585 278.953 350.965C278.953 351.345 279.004 351.704 279.107 352.043C279.214 352.377 279.366 352.672 279.561 352.929C279.761 353.18 280 353.381 280.277 353.53C280.56 353.673 280.875 353.745 281.224 353.745C281.569 353.745 281.882 353.671 282.164 353.522C282.446 353.373 282.685 353.173 282.88 352.921C283.081 352.664 283.235 352.367 283.342 352.028C283.45 351.689 283.504 351.33 283.504 350.95ZM282.873 350.965C282.873 351.263 282.834 351.548 282.757 351.82C282.685 352.087 282.577 352.323 282.434 352.528C282.295 352.729 282.123 352.89 281.918 353.014C281.717 353.132 281.491 353.191 281.24 353.191C280.988 353.191 280.76 353.132 280.555 353.014C280.349 352.89 280.175 352.726 280.031 352.521C279.887 352.315 279.777 352.077 279.7 351.804C279.623 351.532 279.584 351.247 279.584 350.95C279.584 350.652 279.623 350.369 279.7 350.102C279.777 349.83 279.884 349.594 280.023 349.394C280.167 349.189 280.339 349.027 280.539 348.909C280.744 348.786 280.973 348.724 281.224 348.724C281.476 348.724 281.702 348.786 281.902 348.909C282.108 349.032 282.282 349.196 282.426 349.402C282.57 349.607 282.68 349.846 282.757 350.118C282.834 350.385 282.873 350.667 282.873 350.965Z" fill="#263238" fill-opacity="0.5"/>
<path d="M289.009 350.95C289.009 350.57 288.956 350.213 288.848 349.879C288.745 349.54 288.594 349.245 288.393 348.993C288.198 348.737 287.959 348.537 287.677 348.393C287.4 348.244 287.089 348.169 286.745 348.169C286.396 348.169 286.08 348.244 285.798 348.393C285.516 348.542 285.274 348.744 285.074 349.001C284.879 349.253 284.727 349.548 284.62 349.887C284.512 350.226 284.458 350.585 284.458 350.965C284.458 351.345 284.509 351.704 284.612 352.043C284.72 352.377 284.871 352.672 285.066 352.929C285.267 353.18 285.505 353.381 285.783 353.53C286.065 353.673 286.381 353.745 286.73 353.745C287.074 353.745 287.387 353.671 287.669 353.522C287.952 353.373 288.19 353.173 288.386 352.921C288.586 352.664 288.74 352.367 288.848 352.028C288.956 351.689 289.009 351.33 289.009 350.95ZM288.378 350.965C288.378 351.263 288.339 351.548 288.262 351.82C288.19 352.087 288.083 352.323 287.939 352.528C287.8 352.729 287.628 352.89 287.423 353.014C287.223 353.132 286.997 353.191 286.745 353.191C286.494 353.191 286.265 353.132 286.06 353.014C285.854 352.89 285.68 352.726 285.536 352.521C285.392 352.315 285.282 352.077 285.205 351.804C285.128 351.532 285.089 351.247 285.089 350.95C285.089 350.652 285.128 350.369 285.205 350.102C285.282 349.83 285.39 349.594 285.528 349.394C285.672 349.189 285.844 349.027 286.044 348.909C286.25 348.786 286.478 348.724 286.73 348.724C286.981 348.724 287.207 348.786 287.408 348.909C287.613 349.032 287.787 349.196 287.931 349.402C288.075 349.607 288.185 349.846 288.262 350.118C288.339 350.385 288.378 350.667 288.378 350.965Z" fill="#263238" fill-opacity="0.5"/>
<path d="M289.69 354.323L289.782 354.592C290.075 354.526 290.29 354.41 290.429 354.246C290.567 354.087 290.637 353.85 290.637 353.537V352.844H289.928V353.653H290.206C290.221 353.817 290.188 353.951 290.105 354.053C290.023 354.161 289.885 354.251 289.69 354.323Z" fill="#263238" fill-opacity="0.5"/>
<path d="M296.102 350.95C296.102 350.57 296.048 350.213 295.94 349.879C295.837 349.54 295.686 349.245 295.485 348.993C295.29 348.737 295.052 348.537 294.769 348.393C294.492 348.244 294.181 348.169 293.837 348.169C293.488 348.169 293.173 348.244 292.89 348.393C292.608 348.542 292.366 348.744 292.166 349.001C291.971 349.253 291.82 349.548 291.712 349.887C291.604 350.226 291.55 350.585 291.55 350.965C291.55 351.345 291.601 351.704 291.704 352.043C291.812 352.377 291.963 352.672 292.158 352.929C292.359 353.18 292.597 353.381 292.875 353.53C293.157 353.673 293.473 353.745 293.822 353.745C294.166 353.745 294.479 353.671 294.762 353.522C295.044 353.373 295.283 353.173 295.478 352.921C295.678 352.664 295.832 352.367 295.94 352.028C296.048 351.689 296.102 351.33 296.102 350.95ZM295.47 350.965C295.47 351.263 295.432 351.548 295.355 351.82C295.283 352.087 295.175 352.323 295.031 352.528C294.892 352.729 294.72 352.89 294.515 353.014C294.315 353.132 294.089 353.191 293.837 353.191C293.586 353.191 293.357 353.132 293.152 353.014C292.947 352.89 292.772 352.726 292.628 352.521C292.485 352.315 292.374 352.077 292.297 351.804C292.22 351.532 292.182 351.247 292.182 350.95C292.182 350.652 292.22 350.369 292.297 350.102C292.374 349.83 292.482 349.594 292.621 349.394C292.764 349.189 292.936 349.027 293.137 348.909C293.342 348.786 293.57 348.724 293.822 348.724C294.074 348.724 294.299 348.786 294.5 348.909C294.705 349.032 294.88 349.196 295.023 349.402C295.167 349.607 295.278 349.846 295.355 350.118C295.432 350.385 295.47 350.667 295.47 350.965Z" fill="#263238" fill-opacity="0.5"/>
<path d="M301.607 350.95C301.607 350.57 301.553 350.213 301.445 349.879C301.342 349.54 301.191 349.245 300.991 348.993C300.796 348.737 300.557 348.537 300.275 348.393C299.997 348.244 299.687 348.169 299.343 348.169C298.994 348.169 298.678 348.244 298.395 348.393C298.113 348.542 297.872 348.744 297.671 349.001C297.476 349.253 297.325 349.548 297.217 349.887C297.109 350.226 297.055 350.585 297.055 350.965C297.055 351.345 297.107 351.704 297.209 352.043C297.317 352.377 297.469 352.672 297.664 352.929C297.864 353.18 298.103 353.381 298.38 353.53C298.662 353.673 298.978 353.745 299.327 353.745C299.671 353.745 299.984 353.671 300.267 353.522C300.549 353.373 300.788 353.173 300.983 352.921C301.183 352.664 301.337 352.367 301.445 352.028C301.553 351.689 301.607 351.33 301.607 350.95ZM300.975 350.965C300.975 351.263 300.937 351.548 300.86 351.82C300.788 352.087 300.68 352.323 300.536 352.528C300.398 352.729 300.226 352.89 300.02 353.014C299.82 353.132 299.594 353.191 299.343 353.191C299.091 353.191 298.863 353.132 298.657 353.014C298.452 352.89 298.277 352.726 298.134 352.521C297.99 352.315 297.879 352.077 297.802 351.804C297.725 351.532 297.687 351.247 297.687 350.95C297.687 350.652 297.725 350.369 297.802 350.102C297.879 349.83 297.987 349.594 298.126 349.394C298.27 349.189 298.442 349.027 298.642 348.909C298.847 348.786 299.076 348.724 299.327 348.724C299.579 348.724 299.805 348.786 300.005 348.909C300.21 349.032 300.385 349.196 300.529 349.402C300.672 349.607 300.783 349.846 300.86 350.118C300.937 350.385 300.975 350.667 300.975 350.965Z" fill="#263238" fill-opacity="0.5"/>
<path d="M307.112 350.95C307.112 350.57 307.058 350.213 306.95 349.879C306.848 349.54 306.696 349.245 306.496 348.993C306.301 348.737 306.062 348.537 305.78 348.393C305.503 348.244 305.192 348.169 304.848 348.169C304.499 348.169 304.183 348.244 303.901 348.393C303.618 348.542 303.377 348.744 303.177 349.001C302.982 349.253 302.83 349.548 302.722 349.887C302.615 350.226 302.561 350.585 302.561 350.965C302.561 351.345 302.612 351.704 302.715 352.043C302.822 352.377 302.974 352.672 303.169 352.929C303.369 353.18 303.608 353.381 303.885 353.53C304.168 353.673 304.483 353.745 304.833 353.745C305.177 353.745 305.49 353.671 305.772 353.522C306.055 353.373 306.293 353.173 306.488 352.921C306.689 352.664 306.843 352.367 306.95 352.028C307.058 351.689 307.112 351.33 307.112 350.95ZM306.481 350.965C306.481 351.263 306.442 351.548 306.365 351.82C306.293 352.087 306.185 352.323 306.042 352.528C305.903 352.729 305.731 352.89 305.526 353.014C305.325 353.132 305.1 353.191 304.848 353.191C304.596 353.191 304.368 353.132 304.163 353.014C303.957 352.89 303.783 352.726 303.639 352.521C303.495 352.315 303.385 352.077 303.308 351.804C303.231 351.532 303.192 351.247 303.192 350.95C303.192 350.652 303.231 350.369 303.308 350.102C303.385 349.83 303.493 349.594 303.631 349.394C303.775 349.189 303.947 349.027 304.147 348.909C304.353 348.786 304.581 348.724 304.833 348.724C305.084 348.724 305.31 348.786 305.51 348.909C305.716 349.032 305.89 349.196 306.034 349.402C306.178 349.607 306.288 349.846 306.365 350.118C306.442 350.385 306.481 350.667 306.481 350.965Z" fill="#263238" fill-opacity="0.5"/>
<path d="M346.306 348.412L346.452 348.904L347.469 348.589V353.387H348.07V347.957H347.623L346.306 348.412Z" fill="#263238" fill-opacity="0.5"/>
<path d="M349.205 354.057L349.297 354.326C349.59 354.259 349.805 354.144 349.944 353.98C350.083 353.82 350.152 353.584 350.152 353.271V352.578H349.444V353.387H349.721C349.736 353.551 349.703 353.684 349.621 353.787C349.539 353.895 349.4 353.985 349.205 354.057Z" fill="#263238" fill-opacity="0.5"/>
<path d="M355.617 350.683C355.617 350.304 355.563 349.947 355.455 349.613C355.352 349.274 355.201 348.979 355.001 348.727C354.806 348.471 354.567 348.27 354.284 348.127C354.007 347.978 353.697 347.903 353.353 347.903C353.004 347.903 352.688 347.978 352.405 348.127C352.123 348.275 351.882 348.478 351.681 348.735C351.486 348.987 351.335 349.282 351.227 349.621C351.119 349.96 351.065 350.319 351.065 350.699C351.065 351.079 351.117 351.438 351.219 351.777C351.327 352.111 351.479 352.406 351.674 352.663C351.874 352.914 352.113 353.115 352.39 353.263C352.672 353.407 352.988 353.479 353.337 353.479C353.681 353.479 353.994 353.405 354.277 353.256C354.559 353.107 354.798 352.907 354.993 352.655C355.193 352.398 355.347 352.101 355.455 351.762C355.563 351.423 355.617 351.063 355.617 350.683ZM354.985 350.699C354.985 350.997 354.947 351.282 354.87 351.554C354.798 351.821 354.69 352.057 354.546 352.262C354.408 352.462 354.236 352.624 354.03 352.747C353.83 352.866 353.604 352.925 353.353 352.925C353.101 352.925 352.873 352.866 352.667 352.747C352.462 352.624 352.287 352.46 352.144 352.255C352 352.049 351.889 351.81 351.812 351.538C351.735 351.266 351.697 350.981 351.697 350.683C351.697 350.386 351.735 350.103 351.812 349.836C351.889 349.564 351.997 349.328 352.136 349.128C352.28 348.922 352.452 348.761 352.652 348.643C352.857 348.519 353.086 348.458 353.337 348.458C353.589 348.458 353.815 348.519 354.015 348.643C354.22 348.766 354.395 348.93 354.539 349.135C354.682 349.341 354.793 349.58 354.87 349.852C354.947 350.119 354.985 350.401 354.985 350.699Z" fill="#263238" fill-opacity="0.5"/>
<path d="M361.122 350.683C361.122 350.304 361.068 349.947 360.96 349.613C360.858 349.274 360.706 348.979 360.506 348.727C360.311 348.471 360.072 348.27 359.79 348.127C359.513 347.978 359.202 347.903 358.858 347.903C358.509 347.903 358.193 347.978 357.911 348.127C357.628 348.275 357.387 348.478 357.187 348.735C356.992 348.987 356.84 349.282 356.732 349.621C356.625 349.96 356.571 350.319 356.571 350.699C356.571 351.079 356.622 351.438 356.725 351.777C356.832 352.111 356.984 352.406 357.179 352.663C357.379 352.914 357.618 353.115 357.895 353.263C358.178 353.407 358.493 353.479 358.842 353.479C359.186 353.479 359.5 353.405 359.782 353.256C360.064 353.107 360.303 352.907 360.498 352.655C360.699 352.398 360.853 352.101 360.96 351.762C361.068 351.423 361.122 351.063 361.122 350.683ZM360.491 350.699C360.491 350.997 360.452 351.282 360.375 351.554C360.303 351.821 360.195 352.057 360.052 352.262C359.913 352.462 359.741 352.624 359.536 352.747C359.335 352.866 359.109 352.925 358.858 352.925C358.606 352.925 358.378 352.866 358.173 352.747C357.967 352.624 357.793 352.46 357.649 352.255C357.505 352.049 357.395 351.81 357.318 351.538C357.241 351.266 357.202 350.981 357.202 350.683C357.202 350.386 357.241 350.103 357.318 349.836C357.395 349.564 357.502 349.328 357.641 349.128C357.785 348.922 357.957 348.761 358.157 348.643C358.362 348.519 358.591 348.458 358.842 348.458C359.094 348.458 359.32 348.519 359.52 348.643C359.726 348.766 359.9 348.93 360.044 349.135C360.188 349.341 360.298 349.58 360.375 349.852C360.452 350.119 360.491 350.401 360.491 350.699Z" fill="#263238" fill-opacity="0.5"/>
<path d="M366.627 350.683C366.627 350.304 366.574 349.947 366.466 349.613C366.363 349.274 366.212 348.979 366.011 348.727C365.816 348.471 365.577 348.27 365.295 348.127C365.018 347.978 364.707 347.903 364.363 347.903C364.014 347.903 363.698 347.978 363.416 348.127C363.134 348.275 362.892 348.478 362.692 348.735C362.497 348.987 362.345 349.282 362.238 349.621C362.13 349.96 362.076 350.319 362.076 350.699C362.076 351.079 362.127 351.438 362.23 351.777C362.338 352.111 362.489 352.406 362.684 352.663C362.885 352.914 363.123 353.115 363.401 353.263C363.683 353.407 363.999 353.479 364.348 353.479C364.692 353.479 365.005 353.405 365.287 353.256C365.57 353.107 365.809 352.907 366.004 352.655C366.204 352.398 366.358 352.101 366.466 351.762C366.574 351.423 366.627 351.063 366.627 350.683ZM365.996 350.699C365.996 350.997 365.957 351.282 365.88 351.554C365.808 351.821 365.701 352.057 365.557 352.262C365.418 352.462 365.246 352.624 365.041 352.747C364.841 352.866 364.615 352.925 364.363 352.925C364.112 352.925 363.883 352.866 363.678 352.747C363.472 352.624 363.298 352.46 363.154 352.255C363.01 352.049 362.9 351.81 362.823 351.538C362.746 351.266 362.707 350.981 362.707 350.683C362.707 350.386 362.746 350.103 362.823 349.836C362.9 349.564 363.008 349.328 363.146 349.128C363.29 348.922 363.462 348.761 363.662 348.643C363.868 348.519 364.096 348.458 364.348 348.458C364.599 348.458 364.825 348.519 365.026 348.643C365.231 348.766 365.405 348.93 365.549 349.135C365.693 349.341 365.803 349.58 365.88 349.852C365.957 350.119 365.996 350.401 365.996 350.699Z" fill="#263238" fill-opacity="0.5"/>
<path d="M367.308 354.057L367.4 354.326C367.693 354.259 367.908 354.144 368.047 353.98C368.185 353.82 368.255 353.584 368.255 353.271V352.578H367.546V353.387H367.824C367.839 353.551 367.806 353.684 367.723 353.787C367.641 353.895 367.503 353.985 367.308 354.057Z" fill="#263238" fill-opacity="0.5"/>
<path d="M373.72 350.683C373.72 350.304 373.666 349.947 373.558 349.613C373.455 349.274 373.304 348.979 373.103 348.727C372.908 348.471 372.67 348.27 372.387 348.127C372.11 347.978 371.799 347.903 371.455 347.903C371.106 347.903 370.791 347.978 370.508 348.127C370.226 348.275 369.984 348.478 369.784 348.735C369.589 348.987 369.438 349.282 369.33 349.621C369.222 349.96 369.168 350.319 369.168 350.699C369.168 351.079 369.219 351.438 369.322 351.777C369.43 352.111 369.581 352.406 369.776 352.663C369.977 352.914 370.215 353.115 370.493 353.263C370.775 353.407 371.091 353.479 371.44 353.479C371.784 353.479 372.097 353.405 372.38 353.256C372.662 353.107 372.901 352.907 373.096 352.655C373.296 352.398 373.45 352.101 373.558 351.762C373.666 351.423 373.72 351.063 373.72 350.683ZM373.088 350.699C373.088 350.997 373.05 351.282 372.973 351.554C372.901 351.821 372.793 352.057 372.649 352.262C372.51 352.462 372.338 352.624 372.133 352.747C371.933 352.866 371.707 352.925 371.455 352.925C371.204 352.925 370.975 352.866 370.77 352.747C370.565 352.624 370.39 352.46 370.246 352.255C370.103 352.049 369.992 351.81 369.915 351.538C369.838 351.266 369.8 350.981 369.8 350.683C369.8 350.386 369.838 350.103 369.915 349.836C369.992 349.564 370.1 349.328 370.239 349.128C370.382 348.922 370.554 348.761 370.755 348.643C370.96 348.519 371.188 348.458 371.44 348.458C371.692 348.458 371.917 348.519 372.118 348.643C372.323 348.766 372.498 348.93 372.641 349.135C372.785 349.341 372.896 349.58 372.973 349.852C373.05 350.119 373.088 350.401 373.088 350.699Z" fill="#263238" fill-opacity="0.5"/>
<path d="M379.225 350.683C379.225 350.304 379.171 349.947 379.063 349.613C378.96 349.274 378.809 348.979 378.609 348.727C378.414 348.471 378.175 348.27 377.893 348.127C377.615 347.978 377.305 347.903 376.961 347.903C376.612 347.903 376.296 347.978 376.013 348.127C375.731 348.275 375.49 348.478 375.289 348.735C375.094 348.987 374.943 349.282 374.835 349.621C374.727 349.96 374.673 350.319 374.673 350.699C374.673 351.079 374.725 351.438 374.827 351.777C374.935 352.111 375.087 352.406 375.282 352.663C375.482 352.914 375.721 353.115 375.998 353.263C376.28 353.407 376.596 353.479 376.945 353.479C377.289 353.479 377.602 353.405 377.885 353.256C378.167 353.107 378.406 352.907 378.601 352.655C378.801 352.398 378.955 352.101 379.063 351.762C379.171 351.423 379.225 351.063 379.225 350.683ZM378.593 350.699C378.593 350.997 378.555 351.282 378.478 351.554C378.406 351.821 378.298 352.057 378.154 352.262C378.016 352.462 377.844 352.624 377.638 352.747C377.438 352.866 377.212 352.925 376.961 352.925C376.709 352.925 376.481 352.866 376.275 352.747C376.07 352.624 375.895 352.46 375.752 352.255C375.608 352.049 375.497 351.81 375.42 351.538C375.343 351.266 375.305 350.981 375.305 350.683C375.305 350.386 375.343 350.103 375.42 349.836C375.497 349.564 375.605 349.328 375.744 349.128C375.888 348.922 376.06 348.761 376.26 348.643C376.465 348.519 376.694 348.458 376.945 348.458C377.197 348.458 377.423 348.519 377.623 348.643C377.828 348.766 378.003 348.93 378.147 349.135C378.29 349.341 378.401 349.58 378.478 349.852C378.555 350.119 378.593 350.401 378.593 350.699Z" fill="#263238" fill-opacity="0.5"/>
<path d="M384.73 350.683C384.73 350.304 384.676 349.947 384.568 349.613C384.466 349.274 384.314 348.979 384.114 348.727C383.919 348.471 383.68 348.27 383.398 348.127C383.121 347.978 382.81 347.903 382.466 347.903C382.117 347.903 381.801 347.978 381.519 348.127C381.236 348.275 380.995 348.478 380.795 348.735C380.6 348.987 380.448 349.282 380.34 349.621C380.233 349.96 380.179 350.319 380.179 350.699C380.179 351.079 380.23 351.438 380.333 351.777C380.44 352.111 380.592 352.406 380.787 352.663C380.987 352.914 381.226 353.115 381.503 353.263C381.786 353.407 382.101 353.479 382.451 353.479C382.795 353.479 383.108 353.405 383.39 353.256C383.673 353.107 383.911 352.907 384.106 352.655C384.307 352.398 384.461 352.101 384.568 351.762C384.676 351.423 384.73 351.063 384.73 350.683ZM384.099 350.699C384.099 350.997 384.06 351.282 383.983 351.554C383.911 351.821 383.803 352.057 383.66 352.262C383.521 352.462 383.349 352.624 383.144 352.747C382.943 352.866 382.718 352.925 382.466 352.925C382.214 352.925 381.986 352.866 381.781 352.747C381.575 352.624 381.401 352.46 381.257 352.255C381.113 352.049 381.003 351.81 380.926 351.538C380.849 351.266 380.81 350.981 380.81 350.683C380.81 350.386 380.849 350.103 380.926 349.836C381.003 349.564 381.111 349.328 381.249 349.128C381.393 348.922 381.565 348.761 381.765 348.643C381.971 348.519 382.199 348.458 382.451 348.458C382.702 348.458 382.928 348.519 383.128 348.643C383.334 348.766 383.508 348.93 383.652 349.135C383.796 349.341 383.906 349.58 383.983 349.852C384.06 350.119 384.099 350.401 384.099 350.699Z" fill="#263238" fill-opacity="0.5"/>
<path d="M422.464 348.168L422.61 348.661L423.627 348.345V353.143H424.228V347.714H423.781L422.464 348.168Z" fill="#263238" fill-opacity="0.5"/>
<path d="M425.363 353.813L425.455 354.083C425.748 354.016 425.964 353.9 426.102 353.736C426.241 353.577 426.31 353.341 426.31 353.028V352.334H425.602V353.143H425.879C425.894 353.307 425.861 353.441 425.779 353.544C425.697 353.651 425.558 353.741 425.363 353.813Z" fill="#263238" fill-opacity="0.5"/>
<path d="M427.659 350.378L428.067 350.648C428.226 350.561 428.396 350.489 428.575 350.432C428.76 350.371 428.968 350.34 429.199 350.34C429.399 350.34 429.582 350.368 429.746 350.424C429.91 350.481 430.051 350.561 430.169 350.663C430.288 350.761 430.377 350.879 430.439 351.017C430.506 351.156 430.539 351.31 430.539 351.48C430.539 351.654 430.506 351.816 430.439 351.965C430.377 352.109 430.29 352.234 430.177 352.342C430.064 352.45 429.926 352.535 429.761 352.596C429.602 352.653 429.428 352.681 429.238 352.681C428.96 352.681 428.693 352.617 428.437 352.488C428.185 352.355 427.941 352.173 427.705 351.942L427.305 352.381C427.551 352.627 427.836 352.832 428.159 352.997C428.488 353.156 428.845 353.235 429.23 353.235C429.512 353.235 429.772 353.194 430.008 353.112C430.244 353.025 430.447 352.904 430.616 352.75C430.786 352.591 430.916 352.404 431.009 352.188C431.106 351.967 431.155 351.723 431.155 351.456C431.155 351.2 431.106 350.969 431.009 350.763C430.916 350.558 430.786 350.386 430.616 350.247C430.447 350.104 430.249 349.993 430.023 349.916C429.797 349.839 429.553 349.801 429.292 349.801C429.066 349.801 428.871 349.824 428.706 349.87C428.547 349.911 428.388 349.968 428.229 350.039L428.344 348.314H430.916V347.752H427.813L427.659 350.378Z" fill="#263238" fill-opacity="0.5"/>
<path d="M436.641 350.44C436.641 350.06 436.587 349.703 436.479 349.369C436.377 349.031 436.225 348.735 436.025 348.484C435.83 348.227 435.591 348.027 435.309 347.883C435.031 347.734 434.721 347.66 434.377 347.66C434.028 347.66 433.712 347.734 433.43 347.883C433.147 348.032 432.906 348.235 432.706 348.491C432.51 348.743 432.359 349.038 432.251 349.377C432.143 349.716 432.089 350.075 432.089 350.455C432.089 350.835 432.141 351.195 432.243 351.533C432.351 351.867 432.503 352.162 432.698 352.419C432.898 352.671 433.137 352.871 433.414 353.02C433.696 353.164 434.012 353.235 434.361 353.235C434.705 353.235 435.019 353.161 435.301 353.012C435.583 352.863 435.822 352.663 436.017 352.411C436.217 352.155 436.371 351.857 436.479 351.518C436.587 351.179 436.641 350.82 436.641 350.44ZM436.009 350.455C436.009 350.753 435.971 351.038 435.894 351.31C435.822 351.577 435.714 351.813 435.57 352.019C435.432 352.219 435.26 352.381 435.054 352.504C434.854 352.622 434.628 352.681 434.377 352.681C434.125 352.681 433.897 352.622 433.691 352.504C433.486 352.381 433.311 352.216 433.168 352.011C433.024 351.806 432.913 351.567 432.836 351.295C432.759 351.023 432.721 350.738 432.721 350.44C432.721 350.142 432.759 349.86 432.836 349.593C432.913 349.321 433.021 349.084 433.16 348.884C433.304 348.679 433.476 348.517 433.676 348.399C433.881 348.276 434.11 348.214 434.361 348.214C434.613 348.214 434.839 348.276 435.039 348.399C435.244 348.522 435.419 348.687 435.563 348.892C435.707 349.097 435.817 349.336 435.894 349.608C435.971 349.875 436.009 350.157 436.009 350.455Z" fill="#263238" fill-opacity="0.5"/>
<path d="M442.146 350.44C442.146 350.06 442.092 349.703 441.985 349.369C441.882 349.031 441.73 348.735 441.53 348.484C441.335 348.227 441.096 348.027 440.814 347.883C440.537 347.734 440.226 347.66 439.882 347.66C439.533 347.66 439.217 347.734 438.935 347.883C438.652 348.032 438.411 348.235 438.211 348.491C438.016 348.743 437.864 349.038 437.756 349.377C437.649 349.716 437.595 350.075 437.595 350.455C437.595 350.835 437.646 351.195 437.749 351.533C437.857 351.867 438.008 352.162 438.203 352.419C438.403 352.671 438.642 352.871 438.919 353.02C439.202 353.164 439.518 353.235 439.867 353.235C440.211 353.235 440.524 353.161 440.806 353.012C441.089 352.863 441.327 352.663 441.522 352.411C441.723 352.155 441.877 351.857 441.985 351.518C442.092 351.179 442.146 350.82 442.146 350.44ZM441.515 350.455C441.515 350.753 441.476 351.038 441.399 351.31C441.327 351.577 441.22 351.813 441.076 352.019C440.937 352.219 440.765 352.381 440.56 352.504C440.36 352.622 440.134 352.681 439.882 352.681C439.63 352.681 439.402 352.622 439.197 352.504C438.991 352.381 438.817 352.216 438.673 352.011C438.529 351.806 438.419 351.567 438.342 351.295C438.265 351.023 438.226 350.738 438.226 350.44C438.226 350.142 438.265 349.86 438.342 349.593C438.419 349.321 438.527 349.084 438.665 348.884C438.809 348.679 438.981 348.517 439.181 348.399C439.387 348.276 439.615 348.214 439.867 348.214C440.118 348.214 440.344 348.276 440.544 348.399C440.75 348.522 440.924 348.687 441.068 348.892C441.212 349.097 441.322 349.336 441.399 349.608C441.476 349.875 441.515 350.157 441.515 350.455Z" fill="#263238" fill-opacity="0.5"/>
<path d="M442.826 353.813L442.919 354.083C443.211 354.016 443.427 353.9 443.566 353.736C443.704 353.577 443.774 353.341 443.774 353.028V352.334H443.065V353.143H443.342C443.358 353.307 443.324 353.441 443.242 353.544C443.16 353.651 443.021 353.741 442.826 353.813Z" fill="#263238" fill-opacity="0.5"/>
<path d="M449.238 350.44C449.238 350.06 449.185 349.703 449.077 349.369C448.974 349.031 448.823 348.735 448.622 348.484C448.427 348.227 448.188 348.027 447.906 347.883C447.629 347.734 447.318 347.66 446.974 347.66C446.625 347.66 446.309 347.734 446.027 347.883C445.745 348.032 445.503 348.235 445.303 348.491C445.108 348.743 444.956 349.038 444.849 349.377C444.741 349.716 444.687 350.075 444.687 350.455C444.687 350.835 444.738 351.195 444.841 351.533C444.949 351.867 445.1 352.162 445.295 352.419C445.496 352.671 445.734 352.871 446.012 353.02C446.294 353.164 446.61 353.235 446.959 353.235C447.303 353.235 447.616 353.161 447.898 353.012C448.181 352.863 448.42 352.663 448.615 352.411C448.815 352.155 448.969 351.857 449.077 351.518C449.185 351.179 449.238 350.82 449.238 350.44ZM448.607 350.455C448.607 350.753 448.568 351.038 448.491 351.31C448.42 351.577 448.312 351.813 448.168 352.019C448.029 352.219 447.857 352.381 447.652 352.504C447.452 352.622 447.226 352.681 446.974 352.681C446.723 352.681 446.494 352.622 446.289 352.504C446.083 352.381 445.909 352.216 445.765 352.011C445.621 351.806 445.511 351.567 445.434 351.295C445.357 351.023 445.318 350.738 445.318 350.44C445.318 350.142 445.357 349.86 445.434 349.593C445.511 349.321 445.619 349.084 445.757 348.884C445.901 348.679 446.073 348.517 446.273 348.399C446.479 348.276 446.707 348.214 446.959 348.214C447.21 348.214 447.436 348.276 447.637 348.399C447.842 348.522 448.016 348.687 448.16 348.892C448.304 349.097 448.414 349.336 448.491 349.608C448.568 349.875 448.607 350.157 448.607 350.455Z" fill="#263238" fill-opacity="0.5"/>
<path d="M454.744 350.44C454.744 350.06 454.69 349.703 454.582 349.369C454.479 349.031 454.328 348.735 454.128 348.484C453.933 348.227 453.694 348.027 453.411 347.883C453.134 347.734 452.824 347.66 452.48 347.66C452.13 347.66 451.815 347.734 451.532 347.883C451.25 348.032 451.009 348.235 450.808 348.491C450.613 348.743 450.462 349.038 450.354 349.377C450.246 349.716 450.192 350.075 450.192 350.455C450.192 350.835 450.244 351.195 450.346 351.533C450.454 351.867 450.606 352.162 450.801 352.419C451.001 352.671 451.24 352.871 451.517 353.02C451.799 353.164 452.115 353.235 452.464 353.235C452.808 353.235 453.121 353.161 453.404 353.012C453.686 352.863 453.925 352.663 454.12 352.411C454.32 352.155 454.474 351.857 454.582 351.518C454.69 351.179 454.744 350.82 454.744 350.44ZM454.112 350.455C454.112 350.753 454.074 351.038 453.997 351.31C453.925 351.577 453.817 351.813 453.673 352.019C453.535 352.219 453.363 352.381 453.157 352.504C452.957 352.622 452.731 352.681 452.48 352.681C452.228 352.681 451.999 352.622 451.794 352.504C451.589 352.381 451.414 352.216 451.27 352.011C451.127 351.806 451.016 351.567 450.939 351.295C450.862 351.023 450.824 350.738 450.824 350.44C450.824 350.142 450.862 349.86 450.939 349.593C451.016 349.321 451.124 349.084 451.263 348.884C451.406 348.679 451.578 348.517 451.779 348.399C451.984 348.276 452.213 348.214 452.464 348.214C452.716 348.214 452.942 348.276 453.142 348.399C453.347 348.522 453.522 348.687 453.666 348.892C453.809 349.097 453.92 349.336 453.997 349.608C454.074 349.875 454.112 350.157 454.112 350.455Z" fill="#263238" fill-opacity="0.5"/>
<path d="M460.249 350.44C460.249 350.06 460.195 349.703 460.087 349.369C459.985 349.031 459.833 348.735 459.633 348.484C459.438 348.227 459.199 348.027 458.917 347.883C458.639 347.734 458.329 347.66 457.985 347.66C457.636 347.66 457.32 347.734 457.038 347.883C456.755 348.032 456.514 348.235 456.314 348.491C456.118 348.743 455.967 349.038 455.859 349.377C455.751 349.716 455.698 350.075 455.698 350.455C455.698 350.835 455.749 351.195 455.852 351.533C455.959 351.867 456.111 352.162 456.306 352.419C456.506 352.671 456.745 352.871 457.022 353.02C457.305 353.164 457.62 353.235 457.969 353.235C458.313 353.235 458.627 353.161 458.909 353.012C459.191 352.863 459.43 352.663 459.625 352.411C459.825 352.155 459.979 351.857 460.087 351.518C460.195 351.179 460.249 350.82 460.249 350.44ZM459.618 350.455C459.618 350.753 459.579 351.038 459.502 351.31C459.43 351.577 459.322 351.813 459.179 352.019C459.04 352.219 458.868 352.381 458.663 352.504C458.462 352.622 458.236 352.681 457.985 352.681C457.733 352.681 457.505 352.622 457.299 352.504C457.094 352.381 456.919 352.216 456.776 352.011C456.632 351.806 456.522 351.567 456.445 351.295C456.368 351.023 456.329 350.738 456.329 350.44C456.329 350.142 456.368 349.86 456.445 349.593C456.522 349.321 456.629 349.084 456.768 348.884C456.912 348.679 457.084 348.517 457.284 348.399C457.489 348.276 457.718 348.214 457.969 348.214C458.221 348.214 458.447 348.276 458.647 348.399C458.853 348.522 459.027 348.687 459.171 348.892C459.315 349.097 459.425 349.336 459.502 349.608C459.579 349.875 459.618 350.157 459.618 350.455Z" fill="#263238" fill-opacity="0.5"/>
</svg>
