<svg width="166" height="243" viewBox="0 0 166 243" fill="none" xmlns="http://www.w3.org/2000/svg">
<path d="M161.47 195.52C163.497 195.471 165.101 193.789 165.052 191.763C165.004 189.737 163.321 188.133 161.295 188.182C159.268 188.23 157.664 189.912 157.713 191.939C157.761 193.965 159.443 195.568 161.47 195.52Z" fill="#3AA757"/>
<path d="M38.8238 147.903C39.8304 147.879 40.6269 147.043 40.6028 146.037C40.5787 145.03 39.7432 144.234 38.7366 144.258C37.7301 144.282 36.9336 145.118 36.9577 146.124C36.9817 147.13 37.8172 147.927 38.8238 147.903Z" fill="#6B8DFF"/>
<path d="M125.484 163.45C126.491 163.426 127.287 162.59 127.263 161.584C127.239 160.577 126.403 159.781 125.397 159.805C124.39 159.829 123.594 160.665 123.618 161.671C123.642 162.677 124.477 163.474 125.484 163.45Z" fill="#6B8DFF"/>
<path d="M122.56 107.722C124.587 107.674 126.19 105.992 126.142 103.966C126.093 101.939 124.411 100.336 122.384 100.384C120.358 100.433 118.754 102.115 118.803 104.141C118.851 106.167 120.533 107.771 122.56 107.722Z" fill="white"/>
<path d="M17.7241 184.137C19.7507 184.089 21.3544 182.407 21.3059 180.38C21.2575 178.354 19.5752 176.751 17.5485 176.799C15.5219 176.847 13.9182 178.529 13.9667 180.556C14.0151 182.582 15.6974 184.185 17.7241 184.137Z" fill="#E8453C"/>
<path d="M107.634 144.037C109.661 143.988 111.265 142.306 111.216 140.28C111.168 138.254 109.485 136.65 107.459 136.699C105.432 136.747 103.828 138.429 103.877 140.456C103.925 142.482 105.608 144.085 107.634 144.037Z" fill="#F9BB2D"/>
<path d="M101.677 230.679C103.704 230.631 105.308 228.949 105.259 226.922C105.211 224.896 103.528 223.293 101.502 223.341C99.475 223.389 97.8713 225.071 97.9198 227.098C97.9683 229.124 99.6505 230.727 101.677 230.679Z" fill="#BDCCD4"/>
<path d="M157.094 135.987C158.212 135.96 159.097 135.032 159.07 133.915C159.043 132.797 158.115 131.912 156.997 131.939C155.879 131.966 154.994 132.894 155.021 134.011C155.048 135.129 155.976 136.014 157.094 135.987Z" fill="#F9BB2D"/>
<path d="M102.387 35.7483C103.505 35.7215 104.39 34.7937 104.363 33.6758C104.336 32.5579 103.408 31.6734 102.29 31.7001C101.172 31.7269 100.287 32.6547 100.314 33.7726C100.341 34.8905 101.269 35.775 102.387 35.7483Z" fill="#F9BB2D"/>
<path d="M123.548 57.5092C125.251 57.4685 126.599 56.055 126.558 54.352C126.517 52.6491 125.104 51.3015 123.4 51.3423C121.697 51.383 120.349 52.7965 120.39 54.4995C120.431 56.2025 121.845 57.55 123.548 57.5092Z" fill="#E8453C"/>
<path d="M135.649 143.286C137.353 143.245 138.7 141.832 138.66 140.129C138.619 138.426 137.205 137.078 135.502 137.119C133.799 137.16 132.451 138.573 132.492 140.276C132.532 141.979 133.946 143.327 135.649 143.286Z" fill="#E8453C"/>
<path d="M25.4425 111.531C27.1457 111.49 28.4935 110.076 28.4527 108.374C28.412 106.671 26.9982 105.323 25.295 105.364C23.5917 105.404 22.244 106.818 22.2847 108.521C22.3254 110.224 23.7392 111.571 25.4425 111.531Z" fill="#E8453C"/>
<path d="M2.29908 117.466C3.51087 117.437 4.46972 116.431 4.44074 115.22C4.41176 114.008 3.40592 113.049 2.19413 113.078C0.982346 113.107 0.0234933 114.113 0.0524738 115.325C0.0814544 116.536 1.08729 117.495 2.29908 117.466Z" fill="#3AA757"/>
<path d="M19.842 162.484C21.0538 162.455 22.0127 161.449 21.9837 160.238C21.9547 159.026 20.9489 158.067 19.7371 158.096C18.5253 158.125 17.5665 159.131 17.5954 160.343C17.6244 161.554 18.6303 162.513 19.842 162.484Z" fill="#3AA757"/>
<path d="M17.635 33.6051C18.8468 33.5761 19.8057 32.5704 19.7767 31.3588C19.7477 30.1473 18.7419 29.1886 17.5301 29.2176C16.3183 29.2465 15.3594 30.2522 15.3884 31.4638C15.4174 32.6753 16.4232 33.634 17.635 33.6051Z" fill="#3AA757"/>
<path d="M92.9824 57.3492C93.5887 57.3347 94.0684 56.8315 94.0539 56.2253C94.0394 55.6191 93.5362 55.1394 92.9298 55.1539C92.3235 55.1684 91.8438 55.6716 91.8583 56.2778C91.8728 56.884 92.3761 57.3637 92.9824 57.3492Z" fill="white"/>
<path d="M149.291 99.773C149.897 99.7585 150.377 99.2553 150.363 98.6491C150.348 98.0429 149.845 97.5633 149.238 97.5778C148.632 97.5923 148.152 98.0954 148.167 98.7016C148.181 99.3078 148.685 99.7875 149.291 99.773Z" fill="#3AA757"/>
<path d="M133.568 178.708C134.175 178.694 134.654 178.19 134.64 177.584C134.625 176.978 134.122 176.498 133.516 176.513C132.909 176.527 132.43 177.031 132.444 177.637C132.459 178.243 132.962 178.723 133.568 178.708Z" fill="white"/>
<path d="M28.2792 219.107C28.8856 219.093 29.3653 218.589 29.3508 217.983C29.3363 217.377 28.833 216.897 28.2267 216.912C27.6204 216.926 27.1407 217.429 27.1552 218.036C27.1697 218.642 27.6729 219.122 28.2792 219.107Z" fill="#3AA757"/>
<path d="M92.4981 37.269C91.3755 37.0779 85.0665 35.2398 80.4873 42.9882C76.9084 49.1646 77.6792 70.1205 77.6792 70.1205C77.6792 70.1205 95.5065 78.083 114.583 81.1307C114.583 81.1307 102.166 73.7738 99.8807 46.4885C99.5045 41.9865 96.2361 37.9067 92.4981 37.269Z" fill="#424242" stroke="#424242" stroke-linecap="round" stroke-linejoin="round"/>
<path d="M97.3285 52.8758C98.3548 51.8959 98.7536 50.648 98.2192 50.0885C97.6849 49.5291 96.4197 49.8699 95.3934 50.8498C94.3671 51.8297 93.9683 53.0776 94.5027 53.637C95.0371 54.1965 96.3022 53.8557 97.3285 52.8758Z" fill="#FED8CB" stroke="#424242" stroke-width="3.21" stroke-linecap="round" stroke-linejoin="round"/>
<path d="M96.1645 54.4864C96.5336 54.4864 96.8328 54.1872 96.8328 53.8182C96.8328 53.4491 96.5336 53.1499 96.1645 53.1499C95.7953 53.1499 95.4961 53.4491 95.4961 53.8182C95.4961 54.1872 95.7953 54.4864 96.1645 54.4864Z" fill="#3AA757"/>
<path d="M82.628 51.0458C83.3899 50.8162 83.6658 49.4973 83.2444 48.1C82.8231 46.7028 81.8639 45.7563 81.1021 45.986C80.3402 46.2157 80.0643 47.5345 80.4857 48.9318C80.907 50.329 81.8662 51.2755 82.628 51.0458Z" fill="#FED8CB" stroke="#424242" stroke-width="3.21" stroke-linecap="round" stroke-linejoin="round"/>
<path d="M92.4092 57.003C92.683 56.6391 91.7715 61.378 91.7715 61.378C91.7715 61.378 90.5861 64.5679 93.4539 65.935C96.3216 67.3021 97.354 67.8251 97.354 67.8251C97.354 67.8251 92.8161 74.0015 86.0697 72.772C79.3233 71.5425 77.3212 66.3953 77.3212 66.3953C77.3212 66.3953 75.9539 63.0601 75.9768 60.7862L80.6952 62.3858C80.6952 62.3858 81.5318 62.7023 81.9799 62.1334C82.4281 61.5646 83.7495 54.8193 83.7495 54.8193L92.4092 57.003Z" fill="#FED8CB"/>
<path d="M92.2241 58.8035C92.452 57.5053 92.5636 56.7927 92.4061 57.0037L83.7448 54.8154C83.7448 54.8154 83.2738 57.0847 82.7461 59.2501C86.8205 61.3221 90.6518 60.3083 92.2241 58.8035Z" fill="#FEA98C"/>
<path d="M18.3984 242.466H23.0663" stroke="#424242" stroke-linecap="round" stroke-linejoin="round"/>
<path d="M27.4648 242.466H147.349" stroke="#424242" stroke-linecap="round" stroke-linejoin="round"/>
<path d="M55.7791 49.6021C55.7791 49.6021 56.9675 53.451 56.2303 57.0553C55.4931 60.6596 52.1345 68.9723 52.1345 68.9723C52.1345 68.9723 49.5543 73.0261 48.8981 73.6409C48.242 74.2556 45.9922 75.4423 45.9922 75.4423L51.931 81.9535L58.5658 89.3334L56.5989 102.098L55.5681 109.791C55.5681 109.791 62.0055 115.047 73.8435 118.235C85.6814 121.423 96.9871 119.764 96.9871 119.764L97.192 118.694L99.8961 109.519C99.8961 109.519 102.681 98.9933 102.886 98.952C103.091 98.9107 110.709 101 110.709 101L112.594 99.6065L115.958 95.3064L118.907 89.9007C118.907 89.9007 120.628 84.9859 120.709 82.4475C120.79 79.909 120.417 78.7208 120.417 78.7208L108.251 72.6653L97.3557 67.833C95.7294 69.9989 93.467 71.6028 90.8846 72.4206C86.6251 73.7311 81.7079 72.2157 79.8251 69.8408C77.9424 67.466 76.3441 65.4995 75.9755 60.7896L65.4896 55.9161L55.7791 49.6021Z" fill="white"/>
<path d="M96.9872 119.765L97.1922 118.694L99.8963 109.519C99.8963 109.519 101.146 104.795 102.037 101.665C98.0992 98.148 92.6604 96.3298 87.5918 94.478C81.3547 92.2041 74.6756 89.0447 72.0771 82.9356C70.3947 78.9598 70.7205 74.2957 68.6894 70.4881C66.643 66.6498 62.5899 64.3836 59.5662 61.2548C58.3245 59.9609 57.21 58.5506 56.2381 57.0435V57.0511C55.5009 60.6554 52.1423 68.9681 52.1423 68.9681C52.1423 68.9681 49.5621 73.0219 48.906 73.6367C48.2498 74.2514 46 75.438 46 75.438L51.9388 81.9493L58.566 89.3338L56.6006 102.098L55.5682 109.791C55.5682 109.791 62.0057 115.047 73.8436 118.235C85.6815 121.424 96.9872 119.765 96.9872 119.765Z" fill="#E8E8E8"/>
<path d="M59.4072 62.1535C62.9566 62.1535 65.834 59.2767 65.834 55.7279C65.834 52.1791 62.9566 49.3022 59.4072 49.3022C55.8578 49.3022 52.9805 52.1791 52.9805 55.7279C52.9805 59.2767 55.8578 62.1535 59.4072 62.1535Z" fill="#3AA757"/>
<path d="M48.3291 80.6105C51.8785 80.6105 54.7558 77.7337 54.7558 74.1849C54.7558 70.6361 51.8785 67.7593 48.3291 67.7593C44.7797 67.7593 41.9023 70.6361 41.9023 74.1849C41.9023 77.7337 44.7797 80.6105 48.3291 80.6105Z" fill="#3AA757"/>
<path d="M66.9932 78.9699C70.5425 78.9699 73.4199 76.0931 73.4199 72.5443C73.4199 68.9955 70.5425 66.1187 66.9932 66.1187C63.4438 66.1187 60.5664 68.9955 60.5664 72.5443C60.5664 76.0931 63.4438 78.9699 66.9932 78.9699Z" fill="#3AA757"/>
<path d="M88.3291 77.3293C91.8785 77.3293 94.7558 74.4525 94.7558 70.9037C94.7558 67.3549 91.8785 64.478 88.3291 64.478C84.7797 64.478 81.9023 67.3549 81.9023 70.9037C81.9023 74.4525 84.7797 77.3293 88.3291 77.3293Z" fill="#3AA757"/>
<path d="M74.0908 95.8703C77.6402 95.8703 80.5175 92.9935 80.5175 89.4447C80.5175 85.8959 77.6402 83.019 74.0908 83.019C70.5414 83.019 67.6641 85.8959 67.6641 89.4447C67.6641 92.9935 70.5414 95.8703 74.0908 95.8703Z" fill="#3AA757"/>
<path d="M60.4306 106.402C63.98 106.402 66.8574 103.525 66.8574 99.9764C66.8574 96.4276 63.98 93.5508 60.4306 93.5508C56.8813 93.5508 54.0039 96.4276 54.0039 99.9764C54.0039 103.525 56.8813 106.402 60.4306 106.402Z" fill="#3AA757"/>
<path d="M75.1807 117.919C78.73 117.919 81.6074 115.042 81.6074 111.493C81.6074 107.944 78.73 105.067 75.1807 105.067C71.6313 105.067 68.7539 107.944 68.7539 111.493C68.7539 115.042 71.6313 117.919 75.1807 117.919Z" fill="#3AA757"/>
<path d="M90.8799 104.051C94.4293 104.051 97.3066 101.175 97.3066 97.6258C97.3066 94.077 94.4293 91.2002 90.8799 91.2002C87.3305 91.2002 84.4531 94.077 84.4531 97.6258C84.4531 101.175 87.3305 104.051 90.8799 104.051Z" fill="#3AA757"/>
<path d="M103.083 88.2766C106.632 88.2766 109.51 85.3997 109.51 81.851C109.51 78.3022 106.632 75.4253 103.083 75.4253C99.5336 75.4253 96.6562 78.3022 96.6562 81.851C96.6562 85.3997 99.5336 88.2766 103.083 88.2766Z" fill="#3AA757"/>
<path d="M123.649 83.7394C127.199 83.7394 130.076 80.8626 130.076 77.3138C130.076 73.765 127.199 70.8882 123.649 70.8882C120.1 70.8882 117.223 73.765 117.223 77.3138C117.223 80.8626 120.1 83.7394 123.649 83.7394Z" fill="#3AA757"/>
<path d="M113.435 106.009C116.984 106.009 119.861 103.132 119.861 99.5834C119.861 96.0346 116.984 93.1577 113.435 93.1577C109.885 93.1577 107.008 96.0346 107.008 99.5834C107.008 103.132 109.885 106.009 113.435 106.009Z" fill="#3AA757"/>
<path d="M93.5986 123.579C97.148 123.579 100.025 120.702 100.025 117.154C100.025 113.605 97.148 110.728 93.5986 110.728C90.0492 110.728 87.1719 113.605 87.1719 117.154C87.1719 120.702 90.0492 123.579 93.5986 123.579Z" fill="#3AA757"/>
<path d="M56.0272 49.9704C56.0272 49.9704 57.0106 53.3346 56.0272 58.6532C55.0437 63.9717 51.8839 69.229 51.8839 69.229L48.8999 66.1064L42.2621 57.3426L34.3977 46.9442L27.5978 37.5244L22.8458 30.643L21.2888 28.9227L14.8192 27.5541C14.8192 27.5541 10.5597 28.2101 10.7233 27.3354C10.887 26.4607 13.6171 26.0249 13.6171 26.0249C13.6171 26.0249 13.1261 24.5508 13.562 24.1134C13.562 24.1134 13.0711 22.8029 13.8358 22.4206C13.8358 22.4206 13.0711 21.1651 15.0915 20.1819C15.0915 20.1819 13.2347 18.7077 14.108 18.2153C14.108 18.2153 16.6744 18.3239 20.6617 19.7445C24.649 21.1651 27.5442 23.8397 28.0352 24.0584C28.5261 24.277 40.8153 36.2919 40.8153 36.2919L47.9211 42.7894L54.8036 48.8511L56.0272 49.9704Z" fill="#FED8CB"/>
<path d="M56.028 58.6531C56.1091 58.2142 56.1809 57.7891 56.2314 57.3778C54.6637 58.5659 52.7427 59.3152 50.7774 59.3244C48.7157 59.3336 46.6265 58.4834 45.2974 56.9083C44.1289 55.5244 43.615 53.723 42.8503 52.0807C41.3025 48.7639 38.7085 46.0343 35.8393 43.7634C34.6157 42.7954 33.3386 41.8917 32.2879 40.7448C30.5443 38.841 29.5456 36.3866 28.1446 34.2182C27.4716 33.1768 23.9631 29.0756 22.3633 30.1123L22.8451 30.6445L27.5971 37.5258L34.397 46.9456L42.2614 57.3441L48.8977 66.1079L51.8817 69.2305C51.8817 69.2305 55.043 63.9777 56.028 58.6531Z" fill="#FEBDA8"/>
<path d="M12.7344 4.74951L13.623 14.7611C13.6396 15.2191 13.7496 15.6688 13.9462 16.0828C14.1429 16.4967 14.4221 16.8661 14.7666 17.1683C15.1112 17.4705 15.5139 17.6992 15.95 17.8402C16.3861 17.9813 16.8464 18.0318 17.3027 17.9886C17.759 17.9454 18.2017 17.8094 18.6036 17.5891C19.0054 17.3687 19.3581 17.0686 19.6398 16.7071C19.9215 16.3456 20.1264 15.9303 20.2418 15.4869C20.3573 15.0434 20.3809 14.581 20.3113 14.128L19.4227 4.75104L12.7344 4.74951Z" fill="#F9BB2D"/>
<path d="M17.2839 17.7874C16.3972 17.87 15.514 17.5979 14.8277 17.0307C14.1414 16.4634 13.708 15.6473 13.6223 14.7612L12.3789 1.63155L15.6275 1.32572L19.0672 1L20.3106 14.1281C20.3928 15.0143 20.1205 15.8969 19.5532 16.5828C18.9859 17.2687 18.1699 17.7018 17.2839 17.7874V17.7874Z" stroke="#424242" stroke-linecap="round" stroke-linejoin="round"/>
<path d="M17.2852 17.7876L18.4751 30.3453" stroke="#424242" stroke-linecap="round" stroke-linejoin="round"/>
<path d="M18.6267 31.0952C20.1026 30.9554 21.2759 30.5988 21.2475 30.2987C21.2191 29.9985 19.9996 29.8685 18.5238 30.0082C17.048 30.1479 15.8746 30.5046 15.903 30.8047C15.9315 31.1049 17.1509 31.2349 18.6267 31.0952Z" fill="#424242" stroke="#424242" stroke-linecap="round" stroke-linejoin="round"/>
<path d="M16.3731 18.627L19.8695 19.4466L18.5587 21.5217L15.5273 20.3473L16.3731 18.627Z" fill="#FED8CB"/>
<path d="M18.7946 22.5523C18.0299 22.1425 16.3093 21.5537 16.3093 21.5537L14.0625 22.5079L16.6228 23.6135C16.6228 23.6135 19.6542 23.8383 19.9356 23.6671C20.217 23.4958 19.5517 22.9667 18.7946 22.5523Z" fill="#FED8CB"/>
<path d="M19.4082 25.7194C19.5076 25.805 19.604 25.9763 19.4908 26.042C19.457 26.0579 19.4194 26.0643 19.3822 26.0604C18.1922 26.0276 17.0383 25.6446 16.0648 24.9594C15.8706 24.8217 15.6626 24.626 15.6947 24.3905C15.7169 24.3018 15.76 24.2198 15.8204 24.1511C15.8808 24.0825 15.9568 24.0293 16.0419 23.996C16.2869 23.871 16.5631 23.8201 16.8366 23.8494C17.1101 23.8787 17.3691 23.987 17.5821 24.1611C18.1999 24.6658 18.7995 25.1979 19.4082 25.7194Z" fill="#FED8CB"/>
<path d="M17.5459 27.2148C16.8804 27.3291 16.1958 27.2216 15.5973 26.9089C15.3533 26.7962 15.1491 26.6123 15.0116 26.3813C14.9459 26.2646 14.9187 26.1301 14.9337 25.9969C14.9488 25.8638 15.0055 25.7388 15.0957 25.6397C15.1984 25.5539 15.3209 25.495 15.452 25.4684C15.6605 25.4105 15.8786 25.3959 16.0929 25.4256C16.5379 25.4898 18.6241 27.0297 17.5459 27.2148Z" fill="#FED8CB"/>
<path d="M96.9854 119.764L98.2089 122.876L100.59 130.316L101.901 138.506L102.638 149.975C102.638 149.975 103.048 156.2 104.276 160.373C105.504 164.547 111.567 182.079 114.598 187.899C117.63 193.719 126.805 214.115 126.805 214.115L130.17 220.997C130.17 220.997 127.385 224.108 126.074 225.011C124.763 225.913 120.989 226.655 120.989 226.655C120.989 226.655 112.387 215.597 109.273 210.355C106.159 205.113 93.2979 183.81 91.1689 179.059C90.1625 176.812 87.1434 171.194 84.5647 165.704C81.6909 159.587 79.2896 153.666 79.2896 153.666L79.8632 162.759C79.8632 162.759 81.5838 183.646 81.9937 187.168C82.4036 190.69 85.5986 212.399 86.7457 218.703C87.073 219.359 88.2201 225.338 88.2201 225.338C88.2201 225.338 84.0416 226.408 82.7309 226.485C81.4202 226.561 78.1426 226.075 78.1426 226.075L69.7046 200.353C69.7046 200.353 63.4782 181.349 62.3311 174.47C61.184 167.59 57.8254 152.191 56.7609 143.017C55.6964 133.844 54.222 130.73 54.8766 120.001L55.5664 109.791C55.5664 109.791 64.3806 116.4 75.6847 118.856C86.9889 121.312 96.9854 119.764 96.9854 119.764Z" fill="#6B8DFF"/>
<path d="M88.2221 225.336L90.2975 235.001C90.2975 235.001 86.6926 235.929 85.3819 235.984C84.0712 236.039 80.8486 234.619 80.8486 234.619L78.1445 226.073C78.1445 226.073 80.1328 226.756 83.3049 226.32C86.477 225.884 88.2221 225.336 88.2221 225.336Z" fill="#FED8CB"/>
<path d="M130.045 220.75L133.691 228.614C133.691 228.614 133.405 231.519 131.561 232.872C129.716 234.226 126.972 233.943 126.972 233.943L120.992 226.655C120.992 226.655 123.531 226.818 126.562 224.566C128.219 223.323 130.045 220.75 130.045 220.75Z" fill="#FED8CB"/>
<path d="M65.3793 166.949C65.2213 166.254 65.0684 165.565 64.9205 164.882C64.3867 162.623 63.0485 156.671 65.2065 155.306C66.5723 154.442 71.7602 158.5 72.7436 156.206C73.7271 153.913 68.2379 148.753 64.5519 145.961C60.8659 143.169 60.7833 139.162 60.7833 139.162L60.7726 139.17C59.1759 123.34 60.0997 113.785 60.2113 112.739C58.6103 111.845 57.061 110.86 55.571 109.791L54.8888 120.003C54.2327 130.733 55.7086 133.845 56.7731 143.019C57.8376 152.192 61.1963 167.591 62.3434 174.471C63.4905 181.351 69.7092 200.353 69.7092 200.353L78.1472 226.072C78.1472 226.072 79.6873 226.303 81.0791 226.422L81.1067 226.41C81.1067 226.41 72.9975 200.366 65.3793 166.949Z" fill="#91ABFF"/>
<path d="M51.7659 69.055C38.1125 53.3289 22.0196 29.4277 21.2641 28.975C20.5085 28.5224 15.1187 27.533 14.6446 27.5987C13.782 27.7196 10.8653 28.1462 10.668 27.5559C10.3621 26.6491 13.7376 25.9365 13.7376 25.9365" stroke="#424242" stroke-linecap="round" stroke-linejoin="round"/>
<path d="M15.0975 20.1943C15.0975 20.1943 13.1322 21.2525 13.8877 22.3092C14.6433 23.3659 19.7792 24.4256 19.9321 23.6702C20.0851 22.9148 16.5367 21.5293 16.5367 21.5293L17.2862 21.147" stroke="#424242" stroke-linecap="round" stroke-linejoin="round"/>
<path d="M19.6284 26.0881C19.1695 26.5469 14.4894 24.7287 13.7339 23.8219C12.9783 22.9151 13.8868 22.311 13.8868 22.311" stroke="#424242" stroke-linecap="round" stroke-linejoin="round"/>
<path d="M13.739 23.8218C13.739 23.8218 12.8321 25.1812 13.739 25.9366C14.646 26.6921 17.4862 27.5178 18.098 27.0637C18.7097 26.6095 15.6294 24.9824 15.6294 24.9824" stroke="#424242" stroke-linecap="round" stroke-linejoin="round"/>
<path d="M55.7222 49.6157C55.7222 49.6157 58.4752 53.821 53.4831 66.0254C50.2483 73.9252 46.5516 75.8122 45.6186 75.2816C44.548 74.6699 43.5279 70.4448 46.2732 62.5893" stroke="#424242" stroke-linecap="round" stroke-linejoin="round"/>
<path d="M45.6289 75.2803L56.1454 86.3363C56.5792 86.7924 56.8792 87.3589 57.0126 87.9741C57.3521 89.5369 57.8691 92.7864 57.343 96.4121C56.6058 101.491 55.2124 108.37 54.8851 120.573C54.5578 132.776 58.8999 162.592 64.9611 184.544C71.0223 206.495 81.0204 234.508 81.0204 234.508C81.0204 234.508 62.93 241.936 67.4205 242.289C70.5329 242.535 92.2435 241.879 92.2435 241.879C90.6054 236.31 89.5501 232.059 89.5501 232.059C79.965 189.304 79.4358 154.345 79.4358 154.345" stroke="#424242" stroke-linecap="round" stroke-linejoin="round"/>
<path d="M81.0124 234.51C81.0124 234.51 76.5066 236.671 72.657 238.359C68.8074 240.047 65.1719 242.072 67.4141 242.29C70.7788 242.618 92.237 242.29 92.237 242.29C90.5989 236.721 90.1065 234.508 90.1065 234.508C90.1065 234.479 89.4947 234.703 88.6963 235.01C86.1849 235.976 83.5818 235.712 81.2173 234.427L81.0124 234.51Z" fill="#424242"/>
<path d="M80.8487 234.92C80.8487 234.92 77.0251 226.404 74.6881 228.296C72.1523 230.348 79.7827 235.003 79.7827 235.003" stroke="#424242" stroke-linecap="round" stroke-linejoin="round"/>
<path d="M79.7862 235.002C79.7862 235.002 73.4833 230.8 72.9602 233.626C72.4372 236.452 79.7862 235.002 79.7862 235.002Z" stroke="#424242" stroke-linecap="round" stroke-linejoin="round"/>
<path d="M127.095 234.255C127.095 234.255 119.674 228.597 118.523 231.365C117.271 234.377 126.199 234.834 126.199 234.834" stroke="#424242" stroke-linecap="round" stroke-linejoin="round"/>
<path d="M126.2 234.834C126.2 234.834 118.655 234.143 119.541 236.871C120.427 239.599 126.2 234.834 126.2 234.834Z" stroke="#424242" stroke-linecap="round" stroke-linejoin="round"/>
<path d="M64.6289 129.831L66.7778 130.547C68.0657 130.975 69.237 131.696 70.1999 132.653C71.1628 133.61 71.8912 134.776 72.3281 136.061C74.9282 143.707 81.6853 161.655 95.2699 186.51C113.623 220.093 127.056 234.018 127.056 234.018" stroke="#424242" stroke-linecap="round" stroke-linejoin="round"/>
<path d="M102.804 99.0884L97.3224 118.703C97.0699 119.603 97.1453 120.563 97.535 121.413C98.4649 123.435 100.23 127.911 101.391 134.801C103.029 144.521 101.544 152.093 105.432 164.561C111.658 184.546 133.777 228.449 133.777 228.449" stroke="#424242" stroke-linecap="round" stroke-linejoin="round"/>
<path d="M83.6106 55.4546L81.9787 62.1295C81.9601 62.2102 81.9251 62.2862 81.8758 62.3527C81.8265 62.4193 81.764 62.4749 81.6923 62.5163C81.6205 62.5576 81.541 62.5837 81.4587 62.5929C81.3764 62.6022 81.2931 62.5943 81.214 62.5699C78.4426 61.7365 66.7913 57.9151 55.7242 49.6162C50.3191 45.5638 33.3239 28.859 28.1941 24.2791C22.0304 18.7648 14.0406 18.2266 14.0406 18.2266C14.0406 18.2266 12.6809 19.8888 18.8767 21.551" stroke="#424242" stroke-linecap="round" stroke-linejoin="round"/>
<path d="M16.7617 23.6704C16.7617 23.6704 20.0867 25.6354 19.6279 26.0881" stroke="#424242" stroke-linecap="round" stroke-linejoin="round"/>
<path d="M76.043 60.9746C76.043 60.9746 76.1516 69.8209 84.1261 72.3319C92.1007 74.8428 97.4522 68.0777 97.4522 68.0777" stroke="#424242" stroke-linecap="round" stroke-linejoin="round"/>
<path d="M133.772 228.45C133.772 228.45 139.096 234.157 138.851 234.73C138.607 235.304 128.038 242.376 127.711 242.376H116.24C116.24 242.376 115.822 241.818 117.961 240.766C119.796 239.865 123.34 238.663 123.34 238.663L127.053 234.022C127.053 234.022 129.675 234.432 131.805 232.712C133.936 230.991 133.772 228.45 133.772 228.45Z" fill="#424242" stroke="#424242" stroke-linecap="round" stroke-linejoin="round"/>
<path d="M55.5703 109.763C55.5703 109.763 72.8225 123.281 96.9067 119.839" stroke="#424242" stroke-linecap="round" stroke-linejoin="round"/>
<path d="M46.3456 62.752L51.7262 69.2602L49.4993 72.7421C49.1285 73.3247 48.6633 73.8415 48.1228 74.2713C47.4896 74.7729 46.6469 75.2332 45.8072 75.0696C44.1248 74.7423 44.9018 68.3702 44.9018 68.3702L46.3456 62.752Z" fill="#424242" stroke="#424242" stroke-linecap="round" stroke-linejoin="round"/>
<path d="M56.6397 86.9111C56.6397 86.9111 59.9846 90.4053 61.5691 92.0981C63.1536 93.791 66.7295 97.0129 66.0198 98.9244C65.3101 100.836 62.9104 99.1706 61.0246 98.8143C58.5041 98.3403 56.3277 102.691 55.9453 105.913L57.6384 95.6474L57.7302 91.7327L57.4748 88.4403L56.6397 86.9111Z" fill="#424242" stroke="#424242" stroke-linecap="round" stroke-linejoin="round"/>
<path d="M78.1719 226.101C78.1719 226.101 81.4495 227.467 88.0032 225.281" stroke="#424242" stroke-linecap="round" stroke-linejoin="round"/>
<path d="M121.047 226.729C121.047 226.729 126.4 226.483 129.918 220.918" stroke="#424242" stroke-linecap="round" stroke-linejoin="round"/>
<path d="M21.2656 28.9751C21.9478 29.2075 24.5494 29.8421 26.0436 32.2781C27.4767 34.6132 26.9032 36.3733 29.1163 39.6901L22.6437 30.4752L21.2656 28.9751Z" fill="#424242" stroke="#424242" stroke-width="0.4" stroke-linecap="round" stroke-linejoin="round"/>
<path d="M102.108 141.279C102.108 141.279 102.532 144.357 100.456 146.214C98.381 148.07 95.5011 144.975 93.4118 143.975C92.1562 143.374 89.9109 144.421 91.3884 146.788C92.8658 149.156 100.778 153.086 99.9105 155.606C99.3094 157.354 97.0703 155.714 96.6329 157.135C96.1511 158.701 98.5982 160.224 100.892 161.723C103.569 163.47 106.409 167.128 107.501 170.733C107.501 170.733 105.098 165.217 103.788 159.21C102.477 153.203 102.258 145.34 102.258 145.34L102.108 141.279Z" fill="#424242" stroke="#424242" stroke-linecap="round" stroke-linejoin="round"/>
<path d="M82.0509 187.986C82.0509 187.986 82.3246 190.198 79.4019 189.379C76.7575 188.638 75.1959 188.288 74.4189 188.786C73.4309 189.418 73.2581 191.045 76.0432 192.848C78.8283 194.651 83.1429 196.452 83.5252 199.619L82.0509 187.986Z" fill="#424242" stroke="#424242" stroke-linecap="round" stroke-linejoin="round"/>
<path d="M102.598 108.208C101.942 108.167 98.2968 107.183 97.8457 107.183C97.3945 107.183 94.8556 107.716 93.0937 108.407C91.3317 109.098 89.4077 109.84 89.7763 110.291C90.1449 110.742 94.282 110.086 95.6341 109.717L91.9068 113.036C91.9068 113.036 89.7763 115.125 90.1051 115.534C90.4339 115.944 91.6621 115.293 91.6621 115.293C91.6621 115.293 91.2522 116.235 92.8505 115.989C94.4488 115.742 98.8306 113.614 98.8306 113.614C98.8306 113.614 95.1447 116.152 94.7348 116.726C94.3249 117.299 94.2025 117.914 94.4885 117.949C94.7745 117.984 98.4207 115.655 98.4207 115.655L104.233 114.959L121.515 111.643C121.515 111.643 129.871 109.473 132.738 107.916C135.606 106.359 138.841 102.347 139.333 98.6598C139.561 96.8503 139.356 95.0127 138.737 93.2974C138.117 91.582 137.101 90.0376 135.77 88.7904C133.155 86.3789 120.416 78.7207 120.416 78.7207C120.416 78.7207 121.44 83.1844 119.804 87.2841C118.167 91.3839 115.789 95.5983 115.789 95.5983C115.789 95.5983 122.097 97.9334 122.213 99.1155C122.329 100.298 119.345 101.9 119.345 101.9L112.833 104.972C112.833 104.972 105.991 107.552 104.846 107.716C104.087 107.832 103.336 107.996 102.598 108.208Z" fill="#FED8CB"/>
<path d="M124.519 95.5066C122.165 94.4362 120.498 92.1531 119.903 89.6667C119.778 89.0095 119.691 88.3458 119.643 87.6787C118.5 90.3842 117.213 93.0269 115.788 95.5953C115.788 95.5953 122.096 97.9304 122.212 99.1124C122.328 100.294 119.348 101.9 119.348 101.9L112.835 104.972C112.835 104.972 105.994 107.552 104.848 107.716C104.088 107.831 103.335 107.995 102.595 108.206C102.196 108.152 101.801 108.076 101.41 107.977C101.429 108.008 101.45 108.038 101.473 108.067C101.733 108.393 102.16 108.526 102.559 108.644C104.668 109.256 106.892 109.876 109.03 109.37C111.378 108.814 113.19 107.006 115.272 105.79C117.293 104.613 119.588 103.984 121.928 103.968C123.916 103.957 125.904 104.387 127.87 104.104C128.287 104.044 128.723 103.939 129.026 103.645C129.259 103.388 129.422 103.076 129.502 102.738C130.043 100.949 129.907 98.799 128.584 97.4884C127.499 96.4241 125.9 96.1366 124.519 95.5066Z" fill="#FEBDA8"/>
<path d="M102.805 99.0883L109.688 101.818C109.688 101.818 114.931 98.8696 118.535 90.6777C122.14 82.4859 120.337 78.7195 120.337 78.7195C120.337 78.7195 114.603 75.6076 106.329 71.8382C99.4648 68.714 92.6755 66.0165 91.9093 64.7137C91.0895 63.3206 92.3284 57.7437 92.3284 57.7437" stroke="#424242" stroke-linecap="round" stroke-linejoin="round"/>
<path d="M120.337 78.7207C120.337 78.7207 133.559 86.0241 136.886 90.0245C140.927 94.8842 140.491 101.929 133.718 107.28C128.592 111.331 102.807 115.143 102.807 115.143L98.2184 115.689C98.2184 115.689 94.901 118.441 94.2418 117.83C93.5826 117.218 98.7904 113.494 98.7904 113.494C98.7904 113.494 93.916 115.583 93.1314 115.869C92.3468 116.155 91.4108 116.279 91.4934 115.418L97.4322 111.323" stroke="#424242" stroke-linecap="round" stroke-linejoin="round"/>
<path d="M91.4975 115.415C91.4975 115.415 90.4268 116.111 89.9818 115.579C89.5367 115.047 96.3718 109.067 96.3718 109.067" stroke="#424242" stroke-linecap="round" stroke-linejoin="round"/>
<path d="M95.5924 109.682C95.5924 109.682 89.8585 111.279 89.6123 110.338C89.4593 109.771 95.3875 107.349 97.0255 107.266C98.6636 107.184 100.262 107.922 101.941 108.126C103.621 108.329 108.746 106.902 115.247 103.907C120.942 101.286 122.538 100.016 121.965 98.7457C121.506 97.7303 115.902 95.7148 115.902 95.7148" stroke="#424242" stroke-linecap="round" stroke-linejoin="round"/>
<path d="M102.805 99.0882C102.805 99.0882 103.623 96.0298 104.028 94.5496C104.434 93.0693 104.929 90.6593 106.445 89.962C107.96 89.2647 109.819 90.8688 109.312 93.3813C108.152 99.1417 109.19 102.036 112.261 99.8039L109.644 101.567L102.805 99.0882Z" fill="#424242" stroke="#424242" stroke-linecap="round" stroke-linejoin="round"/>
<path d="M121.223 98.0791C121.223 98.0791 126.521 100.592 127.341 102.434C127.925 103.748 126.125 104.44 124.268 103.95C122.411 103.459 119.394 101.861 115.844 103.664C115.844 103.664 120.172 101.63 120.738 101.193C121.4 100.688 121.885 100.428 122.185 99.4722C122.485 98.5164 121.223 98.0791 121.223 98.0791Z" fill="#424242" stroke="#424242" stroke-linecap="round" stroke-linejoin="round"/>
<path d="M87.0967 59.0768C88.0143 59.3506 91.0533 59.4805 93.7972 55.5903C96.931 51.1465 98.7434 43.5586 97.6483 41.6441C96.5532 39.7295 87.4392 36.2705 84.7046 39.913C81.9699 43.5556 82.0938 49.995 82.9274 53.1298C83.7472 56.2172 85.6559 58.6502 87.0967 59.0768Z" fill="#FED8CB"/>
<path d="M87.0967 59.0768C88.1902 59.4867 91.0533 59.4805 93.7972 55.5903C96.931 51.1465 98.7434 43.5586 97.6483 41.6441C96.5532 39.7295 87.4392 36.2705 84.7046 39.913C81.9699 43.5556 82.0938 49.995 82.9274 53.1298C83.7472 56.2172 84.8331 58.2281 87.0967 59.0768Z" stroke="#424242" stroke-linecap="round" stroke-linejoin="round"/>
<path d="M82.7188 43.9683C82.7188 43.9683 91.2653 44.6519 97.6247 47.4549C97.6247 47.4549 100.086 42.3275 96.8722 40.0032C93.6588 37.6788 88.4603 36.8576 86.8207 37.6788C85.1811 38.5 82.9237 41.2342 82.7188 43.9683Z" fill="#424242" stroke="#424242" stroke-linecap="round" stroke-linejoin="round"/>
<path d="M88.1977 49.0094C88.3043 48.5957 87.5817 48.0518 86.5838 47.7946C85.5858 47.5375 84.6904 47.6644 84.5837 48.0781C84.4771 48.4918 85.1996 49.0356 86.1976 49.2928C87.1956 49.55 88.091 49.4231 88.1977 49.0094Z" fill="white"/>
<path d="M86.9742 48.8798C87.1311 48.466 86.9228 48.0034 86.5089 47.8465C86.095 47.6896 85.6324 47.8979 85.4755 48.3118C85.3186 48.7256 85.5269 49.1882 85.9408 49.3451C86.3547 49.5019 86.8173 49.2936 86.9742 48.8798Z" fill="#424242"/>
<path d="M84.418 48.154C84.5235 47.7411 85.4182 47.6142 86.4063 47.8696C87.2949 48.0974 87.7308 48.4293 87.9479 48.9018C88.0015 49.018 88.0535 49.1327 88.1009 49.2489C88.2783 49.6297 88.5903 50.5854 87.7445 51.3668C87.0792 51.9785 87.6696 53.0581 89.0828 52.2844" stroke="#424242" stroke-linecap="round" stroke-linejoin="round"/>
<path d="M94.2714 50.2846C94.3433 49.8642 93.5796 49.3828 92.5655 49.2093C91.5514 49.0358 90.671 49.2359 90.599 49.6563C90.5271 50.0767 91.2908 50.5581 92.3049 50.7316C93.319 50.9051 94.1994 50.705 94.2714 50.2846Z" fill="white"/>
<path d="M93.2112 50.1743C93.3336 49.749 93.0881 49.305 92.6628 49.1826C92.2374 49.0602 91.7934 49.3057 91.6709 49.731C91.5485 50.1562 91.794 50.6002 92.2194 50.7226C92.6447 50.8451 93.0887 50.5996 93.2112 50.1743Z" fill="#424242"/>
<path d="M94.2644 50.2797C94.3363 49.8592 93.5731 49.379 92.5591 49.2092C91.5451 49.0395 90.6656 49.2368 90.5938 49.6558" stroke="#424242" stroke-linecap="round" stroke-linejoin="round"/>
<path d="M90.1573 54.8854L86.1914 54.6025C86.1914 54.6025 86.768 56.2739 88.1552 56.303C88.5994 56.3246 89.038 56.1967 89.401 55.9397C89.7639 55.6828 90.0302 55.3115 90.1573 54.8854Z" fill="white" stroke="#424242" stroke-linecap="round" stroke-linejoin="round"/>
<path d="M87.7972 46.3911C87.3526 46.15 86.8516 46.0321 86.346 46.0495C85.8405 46.067 85.3488 46.2192 84.9219 46.4904" stroke="#424242" stroke-linecap="round" stroke-linejoin="round"/>
<path d="M94.3026 48.1649C94.3026 48.1649 93.4644 47.1036 91.9258 47.648" stroke="#424242" stroke-linecap="round" stroke-linejoin="round"/>
<path d="M89.0742 36.9865C89.0742 36.9865 90.4186 40.2406 93.6626 41.5129C96.9065 42.7851 98.2264 41.207 98.2264 41.207L98.6165 29.1035L89.0742 36.9865Z" fill="#6B8DFF"/>
<path d="M89.0742 36.9865C89.0742 36.9865 90.4186 40.2406 93.6626 41.5129C96.9065 42.7851 98.2264 41.207 98.2264 41.207L98.6165 29.1035L89.0742 36.9865Z" stroke="#424242" stroke-linecap="round" stroke-linejoin="round"/>
<path d="M81.3832 51.1558C81.7523 51.1558 82.0516 50.8567 82.0516 50.4876C82.0516 50.1185 81.7523 49.8193 81.3832 49.8193C81.0141 49.8193 80.7148 50.1185 80.7148 50.4876C80.7148 50.8567 81.0141 51.1558 81.3832 51.1558Z" fill="#3AA757"/>
</svg>
