<svg width="600" height="68" viewBox="0 0 600 68" fill="none" xmlns="http://www.w3.org/2000/svg">
<path d="M24.3058 9.55935V1.15259H27.3272V21.4915H24.3058V13.1526H0V9.55935H24.3058Z" fill="white"/>
<path d="M27.3272 28.2712H15.9129V41.8305H27.3272V45.4237H0V41.8305H12.8243V28.2712H0V24.6102H27.3272V28.2712Z" fill="white"/>
<path d="M12.8243 65.6272V54.9154H2.9543V66.8475H0V51.3221H27.3272V66.2374H24.373V54.9154H15.7115V65.6272H12.8243Z" fill="white"/>
<path d="M36.7907 65.6341V0.526768C36.7756 0.460868 36.7773 0.392164 36.7957 0.327129C36.8142 0.262094 36.8487 0.202869 36.8961 0.155035C36.9434 0.107201 37.0021 0.0723325 37.0665 0.0537158C37.1309 0.0350991 37.199 0.0333467 37.2642 0.0486238H60.4675C64.8572 0.0035269 69.1354 1.44379 72.6199 4.13975C76.1045 6.8357 78.5948 10.6321 79.6936 14.9236C80.7925 19.215 80.4366 23.7545 78.6829 27.8179C76.9291 31.8814 73.8784 35.235 70.0172 37.3439C69.7014 37.4604 69.4174 37.6507 69.1883 37.8992C68.9593 38.1477 68.7917 38.4474 68.6994 38.7738C68.607 39.1003 68.5924 39.4441 68.6569 39.7773C68.7213 40.1105 68.8629 40.4235 69.0701 40.6909L86.4331 65.8732C86.9067 66.5107 86.4331 66.9092 85.8017 66.9092H74.7525C74.366 66.9062 73.9857 66.8107 73.6427 66.6306C73.2997 66.4505 73.0039 66.191 72.7795 65.8732L56.9949 42.4441C56.5216 41.7652 55.8958 41.2091 55.1688 40.8213C54.4418 40.4335 53.6342 40.2249 52.812 40.2128H50.9179C50.5659 40.2009 50.2154 40.2636 49.8889 40.3966C49.5623 40.5297 49.2669 40.7302 49.0216 40.9854C48.7764 41.2405 48.5867 41.5446 48.4647 41.8782C48.3427 42.2118 48.2912 42.5674 48.3134 42.9222V65.6341C48.3251 65.8046 48.3004 65.9756 48.2411 66.1357C48.1818 66.2957 48.0892 66.4411 47.9695 66.5619C47.8498 66.6827 47.7059 66.7763 47.5474 66.8362C47.3889 66.8961 47.2195 66.921 47.0507 66.9092H37.9745C37.8087 66.923 37.6419 66.8988 37.4866 66.8384C37.3313 66.778 37.1915 66.6829 37.0776 66.5603C36.9638 66.4377 36.8789 66.2907 36.8292 66.1304C36.7795 65.97 36.7663 65.8004 36.7907 65.6341ZM48.1556 26.6653C48.134 27.0239 48.1854 27.383 48.3066 27.7207C48.4278 28.0584 48.6162 28.3675 48.8603 28.6288C49.1043 28.8901 49.3987 29.0982 49.7255 29.2402C50.0522 29.3822 50.4043 29.4552 50.76 29.4545H57.7052C59.0192 29.6283 60.3547 29.517 61.6226 29.128C62.8905 28.739 64.0616 28.0813 65.0577 27.1987C66.0537 26.3162 66.8517 25.2291 67.3985 24.0103C67.9452 22.7914 68.228 21.4687 68.228 20.1307C68.228 18.7926 67.9452 17.47 67.3985 16.2511C66.8517 15.0323 66.0537 13.9452 65.0577 13.0627C64.0616 12.1801 62.8905 11.5224 61.6226 11.1334C60.3547 10.7444 59.0192 10.633 57.7052 10.8069H50.76C50.4009 10.7939 50.0432 10.8585 49.7107 10.9963C49.3783 11.1341 49.0788 11.3419 48.8323 11.6059C48.5857 11.87 48.3979 12.1841 48.2812 12.5272C48.1645 12.8704 48.1216 13.2348 48.1556 13.5961V26.6653Z" fill="white"/>
<path d="M97.4074 1.24385C97.3956 1.08383 97.4181 0.923122 97.4735 0.772694C97.5288 0.622266 97.6156 0.485658 97.728 0.372191C97.8403 0.258725 97.9756 0.17107 98.1246 0.115207C98.2736 0.0593447 98.4328 0.0365895 98.5912 0.0484935H139C139.164 0.0239187 139.332 0.0372141 139.491 0.0873869C139.65 0.13756 139.796 0.223314 139.917 0.338246C140.038 0.453179 140.133 0.594321 140.192 0.751134C140.252 0.907947 140.276 1.07638 140.262 1.24385V9.21293C140.274 9.38341 140.249 9.55445 140.19 9.71449C140.131 9.87454 140.038 10.0199 139.919 10.1407C139.799 10.2616 139.655 10.3551 139.496 10.415C139.338 10.4749 139.169 10.4998 139 10.488H111.377C111.029 10.4645 110.68 10.5164 110.353 10.6402C110.027 10.7641 109.73 10.957 109.483 11.206C109.237 11.4551 109.046 11.7545 108.923 12.0842C108.8 12.414 108.749 12.7664 108.772 13.1178V25.4698C108.749 25.8213 108.8 26.1737 108.923 26.5034C109.046 26.8331 109.237 27.1325 109.483 27.3816C109.73 27.6306 110.027 27.8235 110.353 27.9474C110.68 28.0712 111.029 28.1231 111.377 28.0996H132.212C132.403 28.0297 132.609 28.0104 132.809 28.0437C133.009 28.077 133.198 28.1617 133.356 28.2898C133.515 28.4178 133.638 28.5848 133.714 28.7748C133.79 28.9648 133.817 29.1714 133.791 29.3747V37.3438C134 37.5551 134.118 37.8418 134.118 38.1407C134.118 38.4396 134 38.7262 133.791 38.9376C133.581 39.1489 133.298 39.2677 133.002 39.2677C132.706 39.2677 132.422 39.1489 132.212 38.9376H111.377C111.025 38.9258 110.674 38.9884 110.348 39.1214C110.021 39.2545 109.726 39.455 109.48 39.7102C109.235 39.9653 109.046 40.2695 108.924 40.603C108.802 40.9366 108.75 41.2922 108.772 41.6471V53.521C108.737 53.8788 108.779 54.24 108.897 54.5795C109.014 54.919 109.203 55.2286 109.451 55.4866C109.699 55.7446 110 55.9449 110.333 56.0733C110.665 56.2018 111.021 56.2555 111.377 56.2305H139C139.164 56.2059 139.332 56.2192 139.491 56.2694C139.65 56.3195 139.796 56.4053 139.917 56.5202C140.038 56.6352 140.133 56.7763 140.192 56.9331C140.252 57.0899 140.276 57.2584 140.262 57.4258V65.3949C140.274 65.5654 140.249 65.7364 140.19 65.8965C140.131 66.0565 140.038 66.2019 139.919 66.3227C139.799 66.4436 139.655 66.5371 139.496 66.597C139.338 66.6569 139.169 66.6818 139 66.67H98.5912C98.4254 66.6838 98.2586 66.6596 98.1033 66.5992C97.948 66.5388 97.8082 66.4437 97.6943 66.3211C97.5805 66.1985 97.4956 66.0516 97.4459 65.8912C97.3962 65.7308 97.383 65.5611 97.4074 65.3949V1.24385Z" fill="white"/>
<path d="M152.81 1.24411C152.798 1.08408 152.82 0.923375 152.876 0.772947C152.931 0.622519 153.018 0.485911 153.13 0.372445C153.243 0.258978 153.378 0.171323 153.527 0.115461C153.676 0.059598 153.835 0.0368427 153.994 0.0487467H155.414C156.149 0.046684 156.856 0.33232 157.387 0.845654L193.692 40.1332C194.165 40.6113 194.402 40.8504 194.797 40.8504C195.191 40.8504 195.507 40.3723 195.507 39.416V1.24411C195.486 1.06004 195.51 0.873553 195.579 0.701493C195.647 0.529433 195.756 0.377216 195.897 0.258589C196.038 0.139961 196.206 0.0586586 196.386 0.0220226C196.566 -0.0146134 196.752 -0.00542874 196.928 0.0487467H205.609C205.774 0.0241719 205.942 0.0374673 206.101 0.0876402C206.259 0.137813 206.405 0.223567 206.526 0.3385C206.648 0.453432 206.742 0.594574 206.802 0.751387C206.862 0.9082 206.886 1.07663 206.872 1.24411V65.6342C206.884 65.8047 206.859 65.9758 206.8 66.1358C206.74 66.2959 206.648 66.4412 206.528 66.562C206.408 66.6829 206.264 66.7764 206.106 66.8363C205.947 66.8962 205.778 66.9211 205.609 66.9093H204.267C203.88 66.8956 203.498 66.8039 203.146 66.6397C202.794 66.4755 202.477 66.2421 202.215 65.953L165.911 26.5858C165.799 26.3902 165.638 26.2282 165.444 26.1162C165.25 26.0042 165.03 25.9462 164.806 25.9482C164.411 25.9482 164.175 26.4264 164.175 27.3827V65.6342C164.186 65.8047 164.162 65.9758 164.102 66.1358C164.043 66.2959 163.95 66.4412 163.831 66.562C163.711 66.6829 163.567 66.7764 163.409 66.8363C163.25 66.8962 163.081 66.9211 162.912 66.9093H153.994C153.828 66.9231 153.661 66.8989 153.506 66.8385C153.35 66.7781 153.211 66.683 153.097 66.5604C152.983 66.4379 152.898 66.2909 152.848 66.1305C152.799 65.9701 152.785 65.8005 152.81 65.6342V1.24411Z" fill="white"/>
<path d="M217.449 9.45207V1.48299C217.435 1.31551 217.459 1.14708 217.519 0.99027C217.579 0.833457 217.673 0.692315 217.795 0.577382C217.916 0.46245 218.062 0.376696 218.22 0.326523C218.379 0.27635 218.547 0.263054 218.712 0.287629H270.801C270.959 0.275725 271.118 0.298481 271.267 0.354344C271.416 0.410207 271.552 0.497862 271.664 0.611328C271.776 0.724795 271.863 0.861402 271.919 1.01183C271.974 1.16226 271.996 1.32297 271.985 1.48299V9.45207C272.009 9.6183 271.996 9.78795 271.946 9.94833C271.896 10.1087 271.812 10.2557 271.698 10.3783C271.584 10.5009 271.444 10.5959 271.289 10.6563C271.133 10.7167 270.967 10.7409 270.801 10.7271H218.712C218.543 10.7389 218.374 10.714 218.215 10.6541C218.057 10.5942 217.913 10.5007 217.793 10.3799C217.673 10.259 217.581 10.1137 217.521 9.95363C217.462 9.79358 217.437 9.62255 217.449 9.45207ZM238.995 21.2463C238.984 21.0827 239.007 20.9187 239.061 20.7643C239.116 20.61 239.201 20.4686 239.313 20.349C239.424 20.2295 239.558 20.1342 239.707 20.0692C239.856 20.0042 240.016 19.9709 240.179 19.9712H249.097C249.266 19.9594 249.435 19.9843 249.594 20.0442C249.752 20.1041 249.896 20.1977 250.016 20.3185C250.136 20.4393 250.228 20.5847 250.288 20.7447C250.347 20.9048 250.372 21.0758 250.36 21.2463V65.634C250.372 65.8045 250.347 65.9756 250.288 66.1356C250.228 66.2957 250.136 66.441 250.016 66.5618C249.896 66.6827 249.752 66.7762 249.594 66.8361C249.435 66.896 249.266 66.9209 249.097 66.9091H240.179C240.016 66.9095 239.856 66.8761 239.707 66.8111C239.558 66.7461 239.424 66.6509 239.313 66.5313C239.201 66.4117 239.116 66.2704 239.061 66.116C239.007 65.9616 238.984 65.7976 238.995 65.634V21.2463Z" fill="white"/>
<path d="M293.806 34.6901C293.781 34.5239 293.795 34.3542 293.844 34.1938C293.894 34.0335 293.979 33.8865 294.093 33.7639C294.207 33.6413 294.346 33.5462 294.502 33.4858C294.657 33.4254 294.824 33.4012 294.99 33.4151H315.667C318.514 33.4151 321.244 32.2732 323.257 30.2407C325.27 28.2082 326.401 25.4515 326.401 22.5771C326.401 19.7027 325.27 16.946 323.257 14.9135C321.244 12.881 318.514 11.7392 315.667 11.7392H294.99C294.824 11.753 294.657 11.7288 294.502 11.6684C294.346 11.608 294.207 11.5129 294.093 11.3903C293.979 11.2677 293.894 11.1207 293.844 10.9604C293.795 10.8 293.781 10.6303 293.806 10.4641V2.49503C293.794 2.33501 293.817 2.1743 293.872 2.02387C293.927 1.87344 294.014 1.73684 294.126 1.62337C294.239 1.5099 294.374 1.42225 294.523 1.36639C294.672 1.31052 294.831 1.28777 294.99 1.29967H315.667C318.533 1.14771 321.399 1.58827 324.09 2.59434C326.781 3.60041 329.24 5.1508 331.316 7.15045C333.393 9.15011 335.043 11.5569 336.165 14.2233C337.288 16.8897 337.859 19.7595 337.845 22.6568C337.976 28.1175 335.999 33.4159 332.332 37.4313C328.664 41.4468 323.594 43.8646 318.193 44.1733H307.775C307.427 44.1498 307.078 44.2017 306.752 44.3255C306.425 44.4494 306.128 44.6423 305.882 44.8914C305.635 45.1404 305.444 45.4398 305.321 45.7696C305.199 46.0993 305.147 46.4517 305.171 46.8031V66.5664C305.182 66.7369 305.158 66.9079 305.098 67.068C305.039 67.228 304.946 67.3734 304.827 67.4942C304.707 67.615 304.563 67.7085 304.405 67.7685C304.246 67.8284 304.077 67.8533 303.908 67.8415H294.99C294.824 67.8553 294.657 67.8311 294.502 67.7707C294.346 67.7103 294.207 67.6152 294.093 67.4926C293.979 67.37 293.894 67.223 293.844 67.0627C293.795 66.9023 293.781 66.7326 293.806 66.5664V34.6901Z" fill="#04BDFF"/>
<path d="M337.844 66.7258L367.755 0.821568C367.915 0.530834 368.16 0.297713 368.458 0.154824C368.755 0.011934 369.089 -0.0335763 369.413 0.0246601C369.687 0.020783 369.958 0.093041 370.194 0.233561C370.431 0.37408 370.625 0.57747 370.755 0.821568L400.666 66.7258C400.666 67.3633 400.666 67.8415 399.877 67.8415H390.406C390.03 67.8498 389.659 67.7492 389.337 67.5515C389.016 67.3538 388.757 67.0673 388.591 66.7258L385.908 60.8287C385.557 60.1153 385.017 59.5141 384.349 59.092C383.68 58.6699 382.908 58.4435 382.119 58.438H363.02C362.231 58.438 361.994 58.0395 362.231 57.3223L366.177 49.3532C366.232 48.9442 366.429 48.5681 366.732 48.2911C367.036 48.0141 367.426 47.8541 367.834 47.8391H377.305C378.884 47.8391 379.515 46.8828 378.805 45.3687L370.281 26.5617C370.281 25.7648 369.571 25.446 369.176 25.446C368.781 25.446 368.387 25.446 367.992 26.5617L349.682 66.4071C349.516 66.7309 349.267 67.0047 348.963 67.2006C348.658 67.3965 348.307 67.5076 347.946 67.5227H338.633C337.844 67.8415 337.844 67.3633 337.844 66.7258Z" fill="#04BDFF"/>
<path d="M398.058 0.981079H407.845C408.198 0.98821 408.543 1.08732 408.847 1.26882C409.152 1.45032 409.404 1.70805 409.581 2.01706L429.469 38.5154C429.829 39.2321 430.018 40.0233 430.022 40.8265V66.5666C430.046 66.7328 430.033 66.9024 429.983 67.0628C429.934 67.2232 429.849 67.3702 429.735 67.4928C429.621 67.6154 429.481 67.7104 429.326 67.7708C429.171 67.8312 429.004 67.8554 428.838 67.8416H419.92C419.754 67.8554 419.587 67.8312 419.432 67.7708C419.276 67.7104 419.137 67.6154 419.023 67.4928C418.909 67.3702 418.824 67.2232 418.774 67.0628C418.725 66.9024 418.712 66.7328 418.736 66.5666V43.9344C418.711 42.184 418.278 40.4642 417.473 38.9139L397.427 2.01706C397.111 1.45922 397.348 0.981079 398.058 0.981079ZM427.97 22.5773L439.177 2.01706C439.359 1.71303 439.613 1.4593 439.916 1.27853C440.219 1.09775 440.562 0.995561 440.913 0.981079H450.7C451.41 0.981079 451.726 0.981079 451.331 2.01706L433.968 33.0965C433.968 33.734 433.1 33.734 432.705 33.0965L427.97 24.6492C427.816 24.326 427.736 23.9719 427.736 23.6133C427.736 23.2546 427.816 22.9005 427.97 22.5773Z" fill="#04BDFF"/>
<path d="M461.042 10.3846V2.41549C461.028 2.24801 461.052 2.07958 461.112 1.92276C461.172 1.76595 461.266 1.62481 461.387 1.50988C461.509 1.39494 461.654 1.30919 461.813 1.25902C461.972 1.20884 462.14 1.19555 462.305 1.22012H502.713C502.872 1.20822 503.031 1.23098 503.18 1.28684C503.329 1.3427 503.464 1.43036 503.576 1.54382C503.689 1.65729 503.776 1.7939 503.831 1.94433C503.886 2.09475 503.909 2.25546 503.897 2.41549V10.3846C503.921 10.5508 503.908 10.7204 503.858 10.8808C503.809 11.0412 503.724 11.1882 503.61 11.3108C503.496 11.4334 503.356 11.5284 503.201 11.5888C503.046 11.6492 502.879 11.6734 502.713 11.6596H462.305C462.136 11.6714 461.966 11.6465 461.808 11.5866C461.649 11.5267 461.505 11.4332 461.386 11.3124C461.266 11.1915 461.173 11.0462 461.114 10.8861C461.055 10.7261 461.03 10.555 461.042 10.3846ZM461.042 30.3073C461.03 30.1368 461.055 29.9657 461.114 29.8057C461.173 29.6456 461.266 29.5003 461.386 29.3795C461.505 29.2586 461.649 29.1651 461.808 29.1052C461.966 29.0453 462.136 29.0204 462.305 29.0322H502.713C502.993 29.0902 503.24 29.2553 503.402 29.4931C503.563 29.7308 503.628 30.0226 503.581 30.3073V38.2763C503.593 38.4364 503.57 38.5971 503.515 38.7475C503.46 38.8979 503.373 39.0345 503.261 39.148C503.148 39.2615 503.013 39.3491 502.864 39.405C502.715 39.4608 502.556 39.4836 502.397 39.4717H462.305C462.14 39.4963 461.972 39.483 461.813 39.4328C461.654 39.3826 461.509 39.2969 461.387 39.1819C461.266 39.067 461.172 38.9259 461.112 38.7691C461.052 38.6122 461.028 38.4438 461.042 38.2763V30.3073ZM462.305 57.163H502.713C502.872 57.1511 503.031 57.1739 503.18 57.2298C503.329 57.2856 503.464 57.3733 503.576 57.4867C503.689 57.6002 503.776 57.7368 503.831 57.8872C503.886 58.0377 503.909 58.1984 503.897 58.3584V66.3275C503.921 66.4937 503.908 66.6634 503.858 66.8237C503.809 66.9841 503.724 67.1311 503.61 67.2537C503.496 67.3763 503.356 67.4713 503.201 67.5317C503.046 67.5921 502.879 67.6163 502.713 67.6025H462.305C462.136 67.6143 461.966 67.5894 461.808 67.5295C461.649 67.4696 461.505 67.3761 461.386 67.2553C461.266 67.1344 461.173 66.9891 461.114 66.829C461.055 66.669 461.03 66.498 461.042 66.3275V58.3584C461.028 58.1909 461.052 58.0225 461.112 57.8657C461.172 57.7089 461.266 57.5677 461.387 57.4528C461.509 57.3379 461.654 57.2521 461.813 57.2019C461.972 57.1518 462.14 57.1385 462.305 57.163Z" fill="#04BDFF"/>
<path d="M516.844 66.5666V1.45926C516.829 1.39336 516.831 1.32466 516.849 1.25962C516.867 1.19459 516.902 1.13536 516.949 1.08753C516.997 1.0397 517.055 1.00483 517.12 0.986211C517.184 0.967594 517.252 0.965842 517.317 0.981119H540.521C544.931 0.95806 549.221 2.43355 552.7 5.17024C556.179 7.90693 558.645 11.7457 559.702 16.0691C560.759 20.3925 560.344 24.9491 558.526 29.006C556.707 33.063 553.59 36.3843 549.676 38.4358C549.361 38.5416 549.077 38.7228 548.847 38.9637C548.617 39.2046 548.449 39.4982 548.356 39.8193C548.263 40.1403 548.248 40.4794 548.313 40.8075C548.378 41.1355 548.521 41.4428 548.729 41.7031L566.171 66.726C566.644 67.3635 566.171 67.762 565.539 67.762H554.49C554.106 67.7471 553.73 67.6464 553.389 67.4673C553.047 67.2882 552.75 67.035 552.517 66.726L535.549 42.0219C535.259 41.3434 535.125 40.6082 535.154 39.8702V31.9011C535.142 31.7411 535.165 31.5804 535.22 31.43C535.275 31.2795 535.362 31.1429 535.475 31.0295C535.587 30.916 535.722 30.8283 535.871 30.7725C536.02 30.7166 536.179 30.6939 536.338 30.7058H538.074C539.388 30.8796 540.724 30.7683 541.992 30.3793C543.259 29.9903 544.431 29.3325 545.427 28.45C546.423 27.5674 547.221 26.4804 547.767 25.2615C548.314 24.0427 548.597 22.72 548.597 21.382C548.597 20.0439 548.314 18.7213 547.767 17.5024C547.221 16.2835 546.423 15.1965 545.427 14.3139C544.431 13.4314 543.259 12.7736 541.992 12.3846C540.724 11.9956 539.388 11.8843 538.074 12.0581H531.129C530.77 12.0452 530.412 12.1098 530.08 12.2476C529.747 12.3853 529.448 12.5932 529.201 12.8572C528.955 13.1212 528.767 13.4353 528.65 13.7785C528.533 14.1217 528.491 14.4861 528.525 14.8473V66.5666C528.536 66.7371 528.512 66.9081 528.452 67.0682C528.393 67.2282 528.3 67.3736 528.181 67.4944C528.061 67.6152 527.917 67.7088 527.758 67.7687C527.6 67.8286 527.431 67.8535 527.262 67.8417H518.028C517.862 67.8555 517.695 67.8313 517.54 67.7709C517.384 67.7105 517.245 67.6154 517.131 67.4928C517.017 67.3702 516.932 67.2232 516.882 67.0629C516.833 66.9025 516.82 66.7328 516.844 66.5666Z" fill="#04BDFF"/>
<path d="M599.22 53.017C599.22 61.2919 592.511 68 584.236 68C575.962 68 569.253 61.2919 569.253 53.017C569.253 44.7421 575.962 38.0339 584.236 38.0339C592.511 38.0339 599.22 44.7421 599.22 53.017Z" fill="white"/>
</svg>
