<svg width="465" height="426" viewBox="0 0 465 426" fill="none" xmlns="http://www.w3.org/2000/svg">
<path fill-rule="evenodd" clip-rule="evenodd" d="M432.976 247.595C430.436 283.394 443.164 324.982 419.936 352.269C396.642 379.635 353.918 374.9 318.724 381.815C291.53 387.159 265.009 391.618 237.519 388.113C209.648 384.559 183.414 375.988 159.317 361.489C131.319 344.643 101.012 327.541 87.3736 297.774C72.9947 266.391 76.2826 230.059 83.6391 196.315C91.3872 160.775 102.243 123.117 130.436 100.249C158.355 77.6036 197.107 73.3012 232.954 75.2062C264.863 76.9019 289.37 101.575 320.11 110.329C358.587 121.285 410.043 101.922 435.5 132.882C460.257 162.991 435.738 208.656 432.976 247.595Z" fill="white"/>
<path fill-rule="evenodd" clip-rule="evenodd" d="M205.836 53.806C231.657 40.9173 260.991 34.6741 289.727 37.3805C319.465 40.1814 350.969 48.443 372.233 69.4776C393.268 90.2868 392.974 123.76 404.576 150.995C415.266 176.086 434.373 197.44 438.248 224.437C442.274 252.483 442.902 284.151 427.056 307.6C411.146 331.142 379.946 337.784 353.945 349.184C333.086 358.328 311.501 363.57 289.172 368.05C267.886 372.321 246.907 376.332 225.233 375.009C201.742 373.575 175.992 374.113 157.133 359.99C138.277 345.869 140.077 315.523 123.473 298.803C98.2081 273.361 36.8878 274.122 36.2469 238.257C35.5991 202.004 97.6349 200.326 121.223 172.851C136.604 154.934 134.262 127.404 147.945 108.154C163.479 86.2973 181.863 65.7726 205.836 53.806Z" fill="#0033EA" fill-opacity="0.05"/>
<path d="M238.768 426C359.244 426 456.909 420.298 456.909 413.264C456.909 406.23 359.244 400.528 238.768 400.528C118.291 400.528 20.626 406.23 20.626 413.264C20.626 420.298 118.291 426 238.768 426Z" fill="white"/>
<path d="M419.196 301.015H359.398V379.883H419.196V301.015Z" fill="#F5F5F5"/>
<path d="M419.197 301.015H391.16V379.883H419.197V301.015Z" fill="#EBEBEB"/>
<path d="M377.31 311.692H371.933V324.754H377.31V311.692Z" fill="#EBEBEB"/>
<path d="M377.31 362.815H371.933V375.878H377.31V362.815Z" fill="#EBEBEB"/>
<path d="M391.159 329.873C391.159 329.986 384.049 330.076 375.285 330.076C366.52 330.076 359.398 329.986 359.398 329.873C359.398 329.761 366.509 329.671 375.285 329.671C384.06 329.671 391.159 329.761 391.159 329.873Z" fill="#EBEBEB"/>
<path d="M377.31 337.445H371.933V350.507H377.31V337.445Z" fill="#EBEBEB"/>
<path d="M391.159 355.638C391.159 355.75 384.049 355.84 375.285 355.84C366.52 355.84 359.398 355.75 359.398 355.638C359.398 355.525 366.509 355.424 375.285 355.424C384.06 355.424 391.159 355.525 391.159 355.638Z" fill="#EBEBEB"/>
<path d="M402.489 311.692H397.111V324.754H402.489V311.692Z" fill="#E0E0E0"/>
<path d="M414.157 311.692H408.779V324.754H414.157V311.692Z" fill="#E0E0E0"/>
<path d="M402.489 336.477H397.111V349.539H402.489V336.477Z" fill="#E0E0E0"/>
<path d="M414.157 336.477H408.779V349.539H414.157V336.477Z" fill="#E0E0E0"/>
<path d="M402.489 361.263H397.111V374.325H402.489V361.263Z" fill="#E0E0E0"/>
<path d="M414.157 361.263H408.779V374.325H414.157V361.263Z" fill="#E0E0E0"/>
<path d="M423.686 298.259H354.898V301.105H423.686V298.259Z" fill="#E0E0E0"/>
<path d="M419.613 301.375C419.613 301.487 406.247 301.577 389.764 301.577C373.282 301.577 359.916 301.487 359.916 301.375C359.916 301.262 373.282 301.172 389.764 301.172C406.247 301.172 419.613 301.262 419.613 301.375Z" fill="#F5F5F5"/>
<path d="M293.03 101.774H186.417V380.817H293.03V101.774Z" fill="#EBEBEB"/>
<path d="M293.02 101.774H239.713V380.817H293.02V101.774Z" fill="#E0E0E0"/>
<path d="M236.236 68.6074H198.591V101.775H236.236V68.6074Z" fill="#EBEBEB"/>
<path d="M236.225 68.6074H227.258V101.775H236.225V68.6074Z" fill="#E0E0E0"/>
<path d="M296.135 99.8396H177.529V101.775H296.135V99.8396Z" fill="#E0E0E0"/>
<path d="M216.48 116.243H207.457V135.268H216.48V116.243Z" fill="white"/>
<path d="M239.713 142.739C239.713 142.941 227.787 143.099 213.071 143.099C198.355 143.099 186.417 142.941 186.417 142.739C186.417 142.536 198.343 142.367 213.071 142.367C227.798 142.367 239.713 142.525 239.713 142.739Z" fill="#E0E0E0"/>
<path d="M270.248 116.243H261.225V135.268H270.248V116.243Z" fill="#F5F5F5"/>
<path d="M293.48 142.739C293.48 142.941 281.554 143.099 266.838 143.099C252.122 143.099 240.185 142.941 240.185 142.739C240.185 142.536 252.111 142.367 266.838 142.367C281.565 142.367 293.48 142.525 293.48 142.739Z" fill="#EBEBEB"/>
<path d="M270.248 154.012H261.225V173.037H270.248V154.012Z" fill="#F5F5F5"/>
<path d="M293.48 180.508C293.48 180.71 281.554 180.879 266.838 180.879C252.122 180.879 240.185 180.71 240.185 180.508C240.185 180.305 252.111 180.148 266.838 180.148C281.565 180.148 293.48 180.317 293.48 180.508Z" fill="#EBEBEB"/>
<path d="M270.248 192.929H261.225V211.954H270.248V192.929Z" fill="#F5F5F5"/>
<path d="M293.48 219.424C293.48 219.627 281.554 219.796 266.838 219.796C252.122 219.796 240.185 219.627 240.185 219.424C240.185 219.222 252.111 219.064 266.838 219.064C281.565 219.064 293.48 219.233 293.48 219.424Z" fill="#EBEBEB"/>
<path d="M270.248 231.856H261.225V250.882H270.248V231.856Z" fill="#F5F5F5"/>
<path d="M293.48 258.341C293.48 258.543 281.554 258.712 266.838 258.712C252.122 258.712 240.185 258.543 240.185 258.341C240.185 258.138 252.111 257.98 266.838 257.98C281.565 257.98 293.48 258.149 293.48 258.341Z" fill="#EBEBEB"/>
<path d="M270.248 269.659H261.225V288.684H270.248V269.659Z" fill="#F5F5F5"/>
<path d="M293.48 296.154C293.48 296.346 281.554 296.514 266.838 296.514C252.122 296.514 240.185 296.346 240.185 296.154C240.185 295.963 252.111 295.783 266.838 295.783C281.565 295.783 293.48 295.952 293.48 296.154Z" fill="#EBEBEB"/>
<path d="M270.248 307.608H261.225V326.633H270.248V307.608Z" fill="#F5F5F5"/>
<path d="M270.248 346.063H261.225V365.088H270.248V346.063Z" fill="#F5F5F5"/>
<path d="M293.48 334.104C293.48 334.306 281.554 334.475 266.838 334.475C252.122 334.475 240.185 334.306 240.185 334.104C240.185 333.901 252.111 333.744 266.838 333.744C281.565 333.744 293.48 333.901 293.48 334.104Z" fill="#EBEBEB"/>
<path d="M216.48 154.597H207.457V173.622H216.48V154.597Z" fill="white"/>
<path d="M239.713 181.092C239.713 181.284 227.787 181.453 213.071 181.453C198.355 181.453 186.417 181.284 186.417 181.092C186.417 180.901 198.343 180.721 213.071 180.721C227.798 180.721 239.713 180.89 239.713 181.092Z" fill="#E0E0E0"/>
<path d="M216.48 192.951H207.457V211.976H216.48V192.951Z" fill="white"/>
<path d="M239.713 219.447C239.713 219.638 227.787 219.807 213.071 219.807C198.355 219.807 186.417 219.638 186.417 219.447C186.417 219.256 198.343 219.076 213.071 219.076C227.798 219.076 239.713 219.244 239.713 219.447Z" fill="#E0E0E0"/>
<path d="M216.48 231.305H207.457V250.33H216.48V231.305Z" fill="white"/>
<path d="M239.713 257.801C239.713 257.992 227.787 258.161 213.071 258.161C198.355 258.161 186.417 257.992 186.417 257.801C186.417 257.609 198.343 257.429 213.071 257.429C227.798 257.429 239.713 257.598 239.713 257.801Z" fill="#E0E0E0"/>
<path d="M216.48 269.659H207.457V288.684H216.48V269.659Z" fill="white"/>
<path d="M239.713 296.154C239.713 296.346 227.787 296.514 213.071 296.514C198.355 296.514 186.417 296.346 186.417 296.154C186.417 295.963 198.343 295.783 213.071 295.783C227.798 295.783 239.713 295.952 239.713 296.154Z" fill="#E0E0E0"/>
<path d="M216.48 308.013H207.457V327.038H216.48V308.013Z" fill="white"/>
<path d="M239.713 334.509C239.713 334.7 227.787 334.869 213.071 334.869C198.355 334.869 186.417 334.7 186.417 334.509C186.417 334.318 198.343 334.138 213.071 334.138C227.798 334.138 239.713 334.306 239.713 334.509Z" fill="#E0E0E0"/>
<path d="M216.48 346.367H207.457V365.392H216.48V346.367Z" fill="white"/>
<path d="M144.464 272.505H62.7153V380.333H144.464V272.505Z" fill="#EBEBEB"/>
<path d="M144.463 272.505H106.132V380.333H144.463V272.505Z" fill="#E0E0E0"/>
<path d="M87.1969 287.098H79.8501V304.953H87.1969V287.098Z" fill="#F5F5F5"/>
<path d="M87.1969 356.999H79.8501V374.854H87.1969V356.999Z" fill="#F5F5F5"/>
<path d="M106.132 311.973C106.132 312.164 96.4114 312.333 84.4181 312.333C72.4248 312.333 62.7153 312.164 62.7153 311.973C62.7153 311.782 72.436 311.602 84.4181 311.602C96.4002 311.602 106.132 311.771 106.132 311.973Z" fill="#F5F5F5"/>
<path d="M87.1969 322.313H79.8501V340.168H87.1969V322.313Z" fill="#F5F5F5"/>
<path d="M106.132 347.177C106.132 347.379 96.4114 347.548 84.4181 347.548C72.4248 347.548 62.7153 347.379 62.7153 347.177C62.7153 346.974 72.436 346.817 84.4181 346.817C96.4002 346.817 106.132 346.986 106.132 347.177Z" fill="#F5F5F5"/>
<path d="M121.613 287.098H114.266V304.953H121.613V287.098Z" fill="#F5F5F5"/>
<path d="M137.567 287.098H130.22V304.953H137.567V287.098Z" fill="#F5F5F5"/>
<path d="M121.613 320.985H114.266V338.84H121.613V320.985Z" fill="#F5F5F5"/>
<path d="M137.567 320.985H130.22V338.84H137.567V320.985Z" fill="#F5F5F5"/>
<path d="M121.613 354.873H114.266V372.728H121.613V354.873Z" fill="#F5F5F5"/>
<path d="M137.567 354.873H130.22V372.728H137.567V354.873Z" fill="#F5F5F5"/>
<path d="M150.618 268.748H56.5728V272.641H150.618V268.748Z" fill="#E0E0E0"/>
<path d="M145.038 273.034C145.038 273.237 126.766 273.405 104.231 273.405C81.6956 273.405 63.4131 273.237 63.4131 273.034C63.4131 272.832 81.6844 272.674 104.231 272.674C126.778 272.674 145.038 272.809 145.038 273.034Z" fill="#EBEBEB"/>
<path d="M318.671 138.801L391.092 139.15C391.092 139.15 384.229 123.398 369.569 123.398C358.397 123.398 357.902 130.351 351.186 132.343C344.469 134.334 330.338 122.161 318.671 138.801Z" fill="white"/>
<path d="M6 61.6883L133.359 62.2171C133.359 62.2171 121.298 34.6189 95.5226 34.6077C75.8787 34.6077 75.0011 46.8373 63.2103 50.3588C51.4195 53.8803 26.5665 32.425 6 61.6883Z" fill="white"/>
<path d="M261.438 20.4089L357.395 20.8027C357.395 20.8027 348.339 0.0112508 328.886 0C314.08 0 313.427 9.2144 304.539 11.8471C295.651 14.4798 276.896 -1.64262 261.438 20.4089Z" fill="white"/>
<path d="M376.769 216.611H314.428V379.782H376.769V216.611Z" fill="#455A64"/>
<path d="M376.757 216.611H345.593V379.782H376.757V216.611Z" fill="#263238"/>
<path d="M343.568 197.215H321.55V216.611H343.568V197.215Z" fill="#455A64"/>
<path d="M343.557 197.215H338.314V216.611H343.557V197.215Z" fill="#263238"/>
<path d="M378.592 215.475H309.23V216.611H378.592V215.475Z" fill="#455A64"/>
<path d="M332.013 225.072H326.737V236.199H332.013V225.072Z" fill="#263238"/>
<path d="M345.593 240.564C345.593 240.677 338.617 240.778 330.011 240.778C321.404 240.778 314.428 240.677 314.428 240.564C314.428 240.452 321.404 240.351 330.011 240.351C338.617 240.351 345.593 240.407 345.593 240.564Z" fill="#263238"/>
<path d="M363.448 225.072H358.171V236.199H363.448V225.072Z" fill="#455A64"/>
<path d="M377.039 240.564C377.039 240.677 370.064 240.778 361.457 240.778C352.85 240.778 345.875 240.677 345.875 240.564C345.875 240.452 352.85 240.351 361.457 240.351C370.064 240.351 377.039 240.407 377.039 240.564Z" fill="#455A64"/>
<path d="M363.448 247.157H358.171V258.284H363.448V247.157Z" fill="#455A64"/>
<path d="M377.039 262.649C377.039 262.773 370.064 262.863 361.457 262.863C352.85 262.863 345.875 262.773 345.875 262.649C345.875 262.526 352.85 262.436 361.457 262.436C370.064 262.436 377.039 262.537 377.039 262.649Z" fill="#455A64"/>
<path d="M363.448 269.917H358.171V281.044H363.448V269.917Z" fill="#455A64"/>
<path d="M377.039 285.41C377.039 285.522 370.064 285.624 361.457 285.624C352.85 285.624 345.875 285.522 345.875 285.41C345.875 285.297 352.85 285.196 361.457 285.196C370.064 285.196 377.039 285.286 377.039 285.41Z" fill="#455A64"/>
<path d="M363.448 292.667H358.171V303.794H363.448V292.667Z" fill="#455A64"/>
<path d="M377.039 308.159C377.039 308.283 370.064 308.373 361.457 308.373C352.85 308.373 345.875 308.283 345.875 308.159C345.875 308.035 352.85 307.956 361.457 307.956C370.064 307.956 377.039 308.046 377.039 308.159Z" fill="#455A64"/>
<path d="M363.448 314.775H358.171V325.902H363.448V314.775Z" fill="#455A64"/>
<path d="M377.039 330.267C377.039 330.391 370.064 330.481 361.457 330.481C352.85 330.481 345.875 330.391 345.875 330.267C345.875 330.143 352.85 330.053 361.457 330.053C370.064 330.053 377.039 330.154 377.039 330.267Z" fill="#455A64"/>
<path d="M363.448 336.972H358.171V348.099H363.448V336.972Z" fill="#455A64"/>
<path d="M363.448 359.463H358.171V370.59H363.448V359.463Z" fill="#455A64"/>
<path d="M377.039 352.465C377.039 352.589 370.064 352.679 361.457 352.679C352.85 352.679 345.875 352.589 345.875 352.465C345.875 352.341 352.85 352.251 361.457 352.251C370.064 352.251 377.039 352.352 377.039 352.465Z" fill="#455A64"/>
<path d="M332.013 247.495H326.737V258.622H332.013V247.495Z" fill="#263238"/>
<path d="M345.593 262.988C345.593 263.1 338.617 263.201 330.011 263.201C321.404 263.201 314.428 263.1 314.428 262.988C314.428 262.875 321.404 262.774 330.011 262.774C338.617 262.774 345.593 262.909 345.593 262.988Z" fill="#263238"/>
<path d="M332.013 269.917H326.737V281.044H332.013V269.917Z" fill="#263238"/>
<path d="M345.593 285.41C345.593 285.534 338.617 285.624 330.011 285.624C321.404 285.624 314.428 285.534 314.428 285.41C314.428 285.287 321.404 285.208 330.011 285.208C338.617 285.208 345.593 285.298 345.593 285.41Z" fill="#263238"/>
<path d="M332.013 292.352H326.737V303.479H332.013V292.352Z" fill="#263238"/>
<path d="M345.593 307.844C345.593 307.956 338.617 308.057 330.011 308.057C321.404 308.057 314.428 307.956 314.428 307.844C314.428 307.731 321.404 307.63 330.011 307.63C338.617 307.63 345.593 307.72 345.593 307.844Z" fill="#263238"/>
<path d="M332.013 314.775H326.737V325.902H332.013V314.775Z" fill="#263238"/>
<path d="M345.593 330.267C345.593 330.391 338.617 330.481 330.011 330.481C321.404 330.481 314.428 330.391 314.428 330.267C314.428 330.143 321.404 330.053 330.011 330.053C338.617 330.053 345.593 330.154 345.593 330.267Z" fill="#263238"/>
<path d="M332.013 337.208H326.737V348.336H332.013V337.208Z" fill="#263238"/>
<path d="M345.593 352.701C345.593 352.814 338.617 352.915 330.011 352.915C321.404 352.915 314.428 352.814 314.428 352.701C314.428 352.589 321.404 352.487 330.011 352.487C338.617 352.487 345.593 352.577 345.593 352.701Z" fill="#263238"/>
<path d="M332.013 359.632H326.737V370.759H332.013V359.632Z" fill="#263238"/>
<path d="M220.664 158.299H137.262V379.849H220.664V158.299Z" fill="#455A64"/>
<path d="M220.676 158.299H188.667V379.849H220.676V158.299Z" fill="#263238"/>
<path d="M207.838 175.782H201.504V189.148H207.838V175.782Z" fill="#455A64"/>
<path d="M207.838 199.229H201.504V212.595H207.838V199.229Z" fill="#455A64"/>
<path d="M207.838 225.488H201.504V238.854H207.838V225.488Z" fill="#455A64"/>
<path d="M207.838 250.577H201.504V263.943H207.838V250.577Z" fill="#455A64"/>
<path d="M207.838 275.678H201.504V289.044H207.838V275.678Z" fill="#455A64"/>
<path d="M207.838 300.768H201.504V314.134H207.838V300.768Z" fill="#455A64"/>
<path d="M207.838 325.867H201.504V339.233H207.838V325.867Z" fill="#455A64"/>
<path d="M207.838 353.455H201.504V366.821H207.838V353.455Z" fill="#455A64"/>
<path d="M224.827 156.903H130.005V159.491H224.827V156.903Z" fill="#263238"/>
<path d="M204.677 141.31H170.913V158.197H204.677V141.31Z" fill="#263238"/>
<path d="M188.667 141.31H170.913V156.903H188.667V141.31Z" fill="#455A64"/>
<path d="M155.466 175.231H149.132V188.597H155.466V175.231Z" fill="#263238"/>
<path d="M172.342 175.231H166.007V188.597H172.342V175.231Z" fill="#263238"/>
<path d="M155.466 200.691H149.132V214.057H155.466V200.691Z" fill="#263238"/>
<path d="M172.342 200.691H166.007V214.057H172.342V200.691Z" fill="#263238"/>
<path d="M155.466 226.152H149.132V239.518H155.466V226.152Z" fill="#263238"/>
<path d="M172.342 226.152H166.007V239.518H172.342V226.152Z" fill="#263238"/>
<path d="M155.466 251.613H149.132V264.978H155.466V251.613Z" fill="#263238"/>
<path d="M172.342 251.613H166.007V264.978H172.342V251.613Z" fill="#263238"/>
<path d="M155.466 277.073H149.132V290.439H155.466V277.073Z" fill="#263238"/>
<path d="M172.342 277.073H166.007V290.439H172.342V277.073Z" fill="#263238"/>
<path d="M155.466 302.534H149.132V315.9H155.466V302.534Z" fill="#263238"/>
<path d="M172.342 302.534H166.007V315.9H172.342V302.534Z" fill="#263238"/>
<path d="M155.466 327.994H149.132V341.36H155.466V327.994Z" fill="#263238"/>
<path d="M172.342 327.994H166.007V341.36H172.342V327.994Z" fill="#263238"/>
<path d="M155.466 353.455H149.132V366.821H155.466V353.455Z" fill="#263238"/>
<path d="M172.342 353.455H166.007V366.821H172.342V353.455Z" fill="#263238"/>
<path d="M188.667 193.84C188.667 194.065 177.158 194.245 162.97 194.245C148.783 194.245 137.262 194.065 137.262 193.84C137.262 193.615 148.772 193.446 162.97 193.446C177.169 193.446 188.667 193.626 188.667 193.84Z" fill="#263238"/>
<path d="M188.667 219.39C188.667 219.615 177.158 219.795 162.97 219.795C148.783 219.795 137.262 219.615 137.262 219.39C137.262 219.165 148.772 218.997 162.97 218.997C177.169 218.997 188.667 219.177 188.667 219.39Z" fill="#263238"/>
<path d="M188.667 245.256C188.667 245.47 177.158 245.65 162.97 245.65C148.783 245.65 137.262 245.47 137.262 245.256C137.262 245.042 148.772 244.851 162.97 244.851C177.169 244.851 188.667 245.031 188.667 245.256Z" fill="#263238"/>
<path d="M188.667 270.93C188.667 271.144 177.158 271.324 162.97 271.324C148.783 271.324 137.262 271.144 137.262 270.93C137.262 270.716 148.772 270.525 162.97 270.525C177.169 270.525 188.667 270.705 188.667 270.93Z" fill="#263238"/>
<path d="M188.667 296.233C188.667 296.447 177.158 296.627 162.97 296.627C148.783 296.627 137.262 296.447 137.262 296.233C137.262 296.02 148.772 295.828 162.97 295.828C177.169 295.828 188.667 296.008 188.667 296.233Z" fill="#263238"/>
<path d="M188.667 320.85C188.667 321.063 177.158 321.243 162.97 321.243C148.783 321.243 137.262 321.063 137.262 320.85C137.262 320.636 148.772 320.445 162.97 320.445C177.169 320.445 188.667 320.625 188.667 320.85Z" fill="#263238"/>
<path d="M188.667 348.133C188.667 348.347 177.158 348.527 162.97 348.527C148.783 348.527 137.262 348.347 137.262 348.133C137.262 347.919 148.772 347.728 162.97 347.728C177.169 347.728 188.667 347.908 188.667 348.133Z" fill="#263238"/>
<path d="M220.305 193.84C220.305 194.065 213.453 194.245 205.004 194.245C196.554 194.245 189.703 194.065 189.703 193.84C189.703 193.615 196.543 193.446 205.004 193.446C213.464 193.446 220.305 193.626 220.305 193.84Z" fill="#455A64"/>
<path d="M220.305 219.39C220.305 219.615 213.453 219.795 205.004 219.795C196.554 219.795 189.703 219.615 189.703 219.39C189.703 219.165 196.543 218.997 205.004 218.997C213.464 218.997 220.305 219.177 220.305 219.39Z" fill="#455A64"/>
<path d="M220.305 244.907C220.305 245.132 213.453 245.312 205.004 245.312C196.554 245.312 189.703 245.166 189.703 244.907C189.703 244.649 196.543 244.514 205.004 244.514C213.464 244.514 220.305 244.727 220.305 244.907Z" fill="#455A64"/>
<path d="M219.967 270.93C219.967 271.144 213.115 271.324 204.666 271.324C196.216 271.324 189.365 271.144 189.365 270.93C189.365 270.716 196.216 270.525 204.666 270.525C213.115 270.525 219.967 270.705 219.967 270.93Z" fill="#455A64"/>
<path d="M219.967 296.233C219.967 296.447 213.115 296.627 204.666 296.627C196.216 296.627 189.365 296.447 189.365 296.233C189.365 296.02 196.216 295.828 204.666 295.828C213.115 295.828 219.967 296.008 219.967 296.233Z" fill="#455A64"/>
<path d="M219.967 321.536C219.967 321.75 213.115 321.93 204.666 321.93C196.216 321.93 189.365 321.75 189.365 321.536C189.365 321.322 196.216 321.131 204.666 321.131C213.115 321.131 219.967 321.311 219.967 321.536Z" fill="#455A64"/>
<path d="M219.967 348.133C219.967 348.347 213.115 348.527 204.666 348.527C196.216 348.527 189.365 348.347 189.365 348.133C189.365 347.919 196.216 347.728 204.666 347.728C213.115 347.728 219.967 347.908 219.967 348.133Z" fill="#455A64"/>
<path d="M236.056 302.747H202.427V379.916H236.056V302.747Z" fill="#FF725E"/>
<path opacity="0.2" d="M236.056 302.747H202.427V379.916H236.056V302.747Z" fill="black"/>
<path d="M194.562 302.432H277.537L293.041 280.426L309.287 303.062L328.391 302.758L307.802 275.025L215.286 275.419L194.562 302.432Z" fill="#FF725E"/>
<path opacity="0.2" d="M194.562 302.432H277.537L293.041 280.426L309.287 303.062L328.391 302.758L307.802 275.025L215.286 275.419L194.562 302.432Z" fill="white"/>
<path d="M236.056 302.759V379.917H318.918V302.759H309.411L293.041 280.426L277.481 302.41L236.056 302.759Z" fill="#FF725E"/>
<g opacity="0.2">
<path opacity="0.2" d="M247.768 379.917V346.468H267.141V379.917" fill="black"/>
</g>
<path opacity="0.7" d="M309.298 345.523H278.763V364.435H309.298V345.523Z" fill="white"/>
<path opacity="0.7" d="M309.298 307.675H278.763V326.588H309.298V307.675Z" fill="white"/>
<path opacity="0.7" d="M265.116 307.844H245.866V326.07H265.116V307.844Z" fill="white"/>
<path d="M287.719 345.523H287.438V364.615H287.719V345.523Z" fill="#FF725E"/>
<path d="M300.41 345.523H300.128V364.615H300.41V345.523Z" fill="#FF725E"/>
<path d="M300.264 355.502H287.573V355.784H300.264V355.502Z" fill="#FF725E"/>
<path d="M287.719 307.675H287.438V326.768H287.719V307.675Z" fill="#FF725E"/>
<path d="M300.41 307.675H300.128V326.768H300.41V307.675Z" fill="#FF725E"/>
<path d="M300.264 317.655H287.573V317.936H300.264V317.655Z" fill="#FF725E"/>
<path d="M255.632 307.844H255.351V326.07H255.632V307.844Z" fill="#FF725E"/>
<path d="M265.116 317.261H245.866V317.542H265.116V317.261Z" fill="#FF725E"/>
<path opacity="0.7" d="M297.08 295.153C297.08 295.961 296.84 296.751 296.391 297.422C295.943 298.094 295.305 298.617 294.559 298.927C293.812 299.236 292.991 299.317 292.199 299.159C291.407 299.001 290.679 298.612 290.108 298.041C289.537 297.47 289.148 296.742 288.99 295.95C288.833 295.158 288.913 294.337 289.223 293.59C289.532 292.844 290.055 292.206 290.727 291.758C291.398 291.309 292.188 291.069 292.996 291.069C294.078 291.072 295.115 291.504 295.88 292.269C296.645 293.034 297.077 294.071 297.08 295.153Z" fill="white"/>
<path d="M263.868 290.147L269.02 283.79V268.5H258.231V290.259L263.868 290.147Z" fill="#FF725E"/>
<path opacity="0.2" d="M263.867 290.147V268.5H269.02V283.79L263.867 290.147Z" fill="black"/>
<path d="M269.751 266.25H257.027V268.5H269.751V266.25Z" fill="#FF725E"/>
<path d="M237.012 336.511H173.479V379.928H237.012V336.511Z" fill="#FF725E"/>
<path opacity="0.2" d="M212.654 336.511H173.479V379.928H212.654V336.511Z" fill="black"/>
<path d="M204.408 379.849C204.365 379.664 204.346 379.475 204.351 379.286C204.351 378.847 204.351 378.307 204.351 377.655C204.351 376.147 204.351 374.1 204.261 371.546C204.261 366.258 204.194 358.956 204.149 350.507L204.464 350.822H181.208L181.512 350.507C181.512 358.956 181.433 366.258 181.4 371.546C181.4 374.1 181.332 376.147 181.31 377.655C181.31 378.307 181.31 378.847 181.253 379.286C181.273 379.473 181.273 379.662 181.253 379.849C181.203 379.666 181.184 379.476 181.197 379.286C181.197 378.847 181.197 378.307 181.197 377.655C181.197 376.147 181.197 374.1 181.107 371.546C181.107 366.269 181.04 358.956 180.995 350.507V350.192H204.824V350.507C204.768 358.956 204.734 366.258 204.7 371.546C204.7 374.1 204.633 376.147 204.61 377.655C204.61 378.307 204.61 378.847 204.61 379.286C204.561 379.48 204.493 379.668 204.408 379.849Z" fill="#263238"/>
<path opacity="0.2" d="M234.063 349.393H217.559V353.601H234.063V349.393Z" fill="black"/>
<path d="M194.562 302.432V304.671H277.481V302.41L194.562 302.432Z" fill="#FF725E"/>
<path d="M277.481 304.671L292.996 282.901L293.041 280.426L277.538 302.432L277.481 304.671Z" fill="#FF725E"/>
<path d="M327.985 302.747H309.41V304.187H327.985V302.747Z" fill="#FF725E"/>
<path d="M260.537 341.337H253.685V343.948H260.537V341.337Z" fill="#263238"/>
<path opacity="0.3" d="M194.562 302.432V304.671H277.481V302.41L194.562 302.432Z" fill="black"/>
<path opacity="0.3" d="M277.481 304.671L292.996 282.901L293.041 280.426L277.538 302.432L277.481 304.671Z" fill="black"/>
<path opacity="0.3" d="M327.985 302.747H309.41V304.187H327.985V302.747Z" fill="black"/>
<path d="M265.577 363.344C265.521 363.344 265.577 362.917 265.071 362.59C264.942 362.503 264.794 362.449 264.639 362.431C264.484 362.413 264.327 362.433 264.182 362.489C264.012 362.558 263.866 362.676 263.763 362.829C263.661 362.981 263.606 363.161 263.606 363.344C263.606 363.528 263.661 363.707 263.763 363.86C263.866 364.012 264.012 364.13 264.182 364.199C264.327 364.255 264.484 364.275 264.639 364.258C264.794 364.24 264.942 364.185 265.071 364.098C265.532 363.772 265.521 363.333 265.577 363.344C265.633 363.355 265.768 363.828 265.24 364.323C265.077 364.456 264.883 364.545 264.677 364.583C264.47 364.62 264.257 364.604 264.058 364.537C263.809 364.452 263.593 364.291 263.44 364.077C263.287 363.864 263.205 363.607 263.205 363.344C263.205 363.081 263.287 362.825 263.44 362.611C263.593 362.397 263.809 362.237 264.058 362.152C264.257 362.084 264.47 362.068 264.677 362.106C264.883 362.143 265.077 362.232 265.24 362.365C265.768 362.872 265.611 363.378 265.577 363.344Z" fill="#263238"/>
<path d="M148.888 262.641C143.162 267.286 137.255 271.656 131.314 275.952C125.374 280.248 119.352 284.423 113.311 288.565C107.27 292.706 101.128 296.693 94.9592 300.647C91.8916 302.661 88.777 304.567 85.6825 306.527C84.1562 307.579 82.4697 308.377 80.6884 308.89C79.7227 309.15 78.7332 309.312 77.7349 309.373C76.6131 309.466 75.4839 309.405 74.3786 309.192C73.5133 309.016 72.6912 308.671 71.9595 308.177C71.2277 307.682 70.6007 307.049 70.1143 306.311C69.6279 305.574 69.2918 304.749 69.1251 303.881C68.9584 303.014 68.9644 302.123 69.1429 301.258C69.1429 301.157 69.1899 301.03 69.2167 300.922C69.5179 299.835 69.9698 298.796 70.5592 297.835C71.0551 296.978 71.6377 296.175 72.2978 295.438C73.5412 294.063 74.9987 292.898 76.6139 291.988C79.7352 290.068 82.8297 288.115 85.9644 286.235C92.2138 282.416 98.5236 278.704 104.867 275.039C111.21 271.374 117.621 267.823 124.085 264.359C130.549 260.896 137.067 257.519 143.752 254.405C144.831 253.937 146.042 253.872 147.164 254.222C148.287 254.571 149.246 255.313 149.868 256.31C150.491 257.308 150.734 258.496 150.554 259.658C150.374 260.82 149.782 261.878 148.888 262.641Z" fill="#407BFF"/>
<path d="M148.888 262.641C143.162 267.286 137.255 271.656 131.314 275.952C125.374 280.248 119.352 284.423 113.311 288.565C107.27 292.706 101.128 296.693 94.9592 300.647C91.8916 302.661 88.777 304.567 85.6825 306.527C84.1562 307.579 82.4697 308.377 80.6884 308.89C79.7227 309.15 78.7332 309.312 77.7349 309.373C76.6131 309.466 75.4839 309.405 74.3786 309.192C73.5133 309.016 72.6912 308.671 71.9595 308.177C71.2277 307.682 70.6007 307.049 70.1143 306.311C69.6279 305.574 69.2918 304.749 69.1251 303.881C68.9584 303.014 68.9644 302.123 69.1429 301.258C69.1429 301.157 69.1899 301.03 69.2167 300.922C69.5179 299.835 69.9698 298.796 70.5592 297.835C71.0551 296.978 71.6377 296.175 72.2978 295.438C73.5412 294.063 74.9987 292.898 76.6139 291.988C79.7352 290.068 82.8297 288.115 85.9644 286.235C92.2138 282.416 98.5236 278.704 104.867 275.039C111.21 271.374 117.621 267.823 124.085 264.359C130.549 260.896 137.067 257.519 143.752 254.405C144.831 253.937 146.042 253.872 147.164 254.222C148.287 254.571 149.246 255.313 149.868 256.31C150.491 257.308 150.734 258.496 150.554 259.658C150.374 260.82 149.782 261.878 148.888 262.641Z" fill="#407BFF"/>
<path opacity="0.5" d="M148.888 262.641C143.162 267.286 137.255 271.656 131.314 275.952C125.374 280.248 119.352 284.423 113.311 288.565C107.27 292.706 101.128 296.693 94.9592 300.647C91.8916 302.661 88.777 304.567 85.6825 306.527C84.1562 307.579 82.4697 308.377 80.6884 308.89C79.7227 309.15 78.7332 309.312 77.7349 309.373C76.6131 309.466 75.4839 309.405 74.3786 309.192C73.5133 309.016 72.6912 308.671 71.9595 308.177C71.2277 307.682 70.6007 307.049 70.1143 306.311C69.6279 305.574 69.2918 304.749 69.1251 303.881C68.9584 303.014 68.9644 302.123 69.1429 301.258C69.1429 301.157 69.1899 301.03 69.2167 300.922C69.5179 299.835 69.9698 298.796 70.5592 297.835C71.0551 296.978 71.6377 296.175 72.2978 295.438C73.5412 294.063 74.9987 292.898 76.6139 291.988C79.7352 290.068 82.8297 288.115 85.9644 286.235C92.2138 282.416 98.5236 278.704 104.867 275.039C111.21 271.374 117.621 267.823 124.085 264.359C130.549 260.896 137.067 257.519 143.752 254.405C144.831 253.937 146.042 253.872 147.164 254.222C148.287 254.571 149.246 255.313 149.868 256.31C150.491 257.308 150.734 258.496 150.554 259.658C150.374 260.82 149.782 261.878 148.888 262.641Z" fill="white"/>
<path d="M124.118 407.128L129.595 405.859L127.031 393.085L121.554 394.354L124.118 407.128Z" fill="#EBB376"/>
<path d="M87.1856 254.485C86.427 257.17 85.6954 259.996 84.9973 262.762C84.2992 265.527 83.6548 268.333 83.1178 271.125C82.8224 272.515 82.5673 273.938 82.3458 275.247C82.1243 276.556 81.9968 277.932 81.9162 279.308C81.8458 280.676 81.8458 282.048 81.9162 283.416C81.9162 284.087 82.0035 284.759 82.0706 285.47C82.1377 286.182 82.2586 286.86 82.3525 287.444L79.6675 288.457C79.3152 287.736 79.0124 286.991 78.7614 286.229C78.4987 285.496 78.2747 284.75 78.0901 283.993C77.7228 282.484 77.4715 280.949 77.3383 279.402C77.214 277.839 77.1916 276.269 77.2712 274.703C77.3786 273.119 77.5665 271.662 77.7746 270.186C78.1975 267.239 78.7412 264.319 79.3856 261.459C80.03 258.6 80.7281 255.72 81.6343 252.827L87.1856 254.485Z" fill="#EBB376"/>
<path d="M79.2856 255.412L84.9309 259.909L88.3207 262.594C88.3207 262.594 88.6765 261.648 89.1061 260.292C89.925 257.674 90.9923 253.525 90.2539 251.619C89.0926 248.598 86.8976 245.873 84.1187 246.477C81.7626 247.008 79.2856 255.412 79.2856 255.412Z" fill="#263238"/>
<path d="M87.0856 407.168H92.704L92.2677 394.146H86.6426L87.0856 407.168Z" fill="#EBB376"/>
<path d="M127.031 393.092L128.408 399.932L122.876 400.939L121.547 394.361L127.031 393.092Z" fill="#DA9D62"/>
<path d="M86.6426 394.146H92.2677L92.4892 400.858H86.8641L86.6426 394.146Z" fill="#DA9D62"/>
<path d="M104.968 280.59C104.968 280.59 101.705 319.18 98.3222 340.929C95.5902 358.495 93.4288 399.563 93.4288 399.563H85.7899C85.7899 399.563 82.1383 359.905 83.5278 342.506C87.0385 298.546 80.8428 290.759 88.193 280.57L104.968 280.59Z" fill="#407BFF"/>
<path opacity="0.6" d="M104.968 280.59C104.968 280.59 101.705 319.18 98.3222 340.929C95.5902 358.495 93.4288 399.563 93.4288 399.563H85.7899C85.7899 399.563 82.1383 359.905 83.5278 342.506C87.0385 298.546 80.8428 290.759 88.193 280.57L104.968 280.59Z" fill="black"/>
<path d="M80.0372 288.021L76.7212 290.277L77.1911 292.203C77.1911 292.203 84.0982 288.619 82.2523 287.182L80.0372 288.021Z" fill="#EBB376"/>
<path d="M95.0731 407.497C94.5727 407.484 94.0753 407.417 93.5896 407.295C93.5649 407.288 93.5426 407.274 93.525 407.255C93.5073 407.236 93.4949 407.213 93.489 407.188C93.4849 407.162 93.4884 407.136 93.4991 407.112C93.5099 407.088 93.5273 407.068 93.5494 407.054C93.744 406.926 95.4423 405.825 96.1001 406.121C96.1747 406.153 96.2391 406.205 96.2863 406.272C96.3336 406.338 96.3621 406.416 96.3686 406.497C96.3948 406.623 96.3883 406.754 96.3495 406.878C96.3107 407.001 96.2411 407.113 96.1471 407.201C95.8361 407.425 95.455 407.53 95.0731 407.497ZM93.9655 407.101C94.9456 407.302 95.684 407.262 95.9793 407.007C96.041 406.946 96.0862 406.87 96.1108 406.786C96.1355 406.703 96.1387 406.615 96.1203 406.53C96.1178 406.495 96.1059 406.46 96.0859 406.431C96.0658 406.401 96.0383 406.378 96.0062 406.362C95.6504 406.208 94.6637 406.705 93.9655 407.101Z" fill="#407BFF"/>
<path d="M93.6235 407.296C93.6017 407.303 93.5782 407.303 93.5564 407.296C93.5367 407.284 93.5203 407.267 93.5086 407.247C93.4969 407.227 93.4902 407.205 93.4893 407.182C93.4893 407.108 93.4893 405.49 94.1068 404.946C94.1813 404.876 94.2708 404.824 94.3685 404.794C94.4662 404.763 94.5696 404.756 94.6707 404.772C94.7765 404.773 94.8789 404.81 94.9607 404.877C95.0426 404.944 95.0989 405.037 95.1204 405.141C95.2479 405.812 94.2209 406.994 93.6906 407.296C93.6687 407.302 93.6454 407.302 93.6235 407.296ZM94.5767 405.02C94.468 405.023 94.3636 405.063 94.2813 405.134C93.9292 405.657 93.7485 406.276 93.7645 406.906C94.2948 406.477 94.9392 405.564 94.8586 405.181C94.8586 405.121 94.8116 405.04 94.6371 405.02H94.5767Z" fill="#407BFF"/>
<path d="M130.093 405.013C130.068 405.012 130.044 405.004 130.023 404.99C130.002 404.976 129.985 404.957 129.974 404.934C129.963 404.912 129.958 404.886 129.96 404.861C129.962 404.836 129.971 404.812 129.985 404.792C130.167 404.577 131.731 402.738 132.529 402.738H132.583C132.656 402.743 132.726 402.767 132.786 402.809C132.846 402.85 132.895 402.907 132.925 402.973C132.98 403.076 133.008 403.191 133.008 403.308C133.008 403.425 132.98 403.54 132.925 403.644C132.576 404.382 130.999 404.799 130.086 404.986L130.093 405.013ZM132.523 403C132.086 403 131.12 403.912 130.455 404.658C131.684 404.369 132.516 403.986 132.711 403.55C132.75 403.482 132.771 403.404 132.771 403.325C132.771 403.246 132.75 403.169 132.711 403.1C132.699 403.073 132.681 403.05 132.657 403.032C132.633 403.014 132.606 403.003 132.576 403H132.523Z" fill="#407BFF"/>
<path d="M130.093 405.014C130.07 405.01 130.049 405 130.032 404.984C130.016 404.969 130.004 404.949 129.999 404.926C129.999 404.866 129.515 403.416 129.945 402.604C130.004 402.485 130.087 402.379 130.189 402.294C130.29 402.208 130.408 402.145 130.536 402.107C130.891 402 131.066 402.107 131.14 402.261C131.482 402.812 130.724 404.436 130.22 404.947C130.207 404.968 130.188 404.986 130.166 404.998C130.143 405.009 130.118 405.015 130.093 405.014ZM130.764 402.329C130.713 402.321 130.661 402.321 130.61 402.329C130.516 402.356 130.428 402.402 130.353 402.464C130.278 402.526 130.217 402.604 130.173 402.691C129.978 403.302 129.978 403.959 130.173 404.571C130.65 403.899 131.113 402.698 130.912 402.369C130.889 402.342 130.859 402.323 130.825 402.316C130.791 402.309 130.755 402.313 130.724 402.329H130.764Z" fill="#407BFF"/>
<path d="M94.1136 232.898C94.7848 236.254 96.1273 242.967 93.8115 245.216C93.8115 245.216 94.7244 248.572 100.927 248.572C107.74 248.572 104.182 245.216 104.182 245.216C100.464 244.33 100.558 241.571 101.209 238.973L94.1136 232.898Z" fill="#EBB376"/>
<path d="M107.659 225.742C107.604 225.743 107.55 225.727 107.505 225.695C107.476 225.675 107.452 225.648 107.433 225.618C107.415 225.588 107.402 225.555 107.396 225.52C107.391 225.485 107.392 225.449 107.4 225.415C107.409 225.38 107.424 225.348 107.444 225.319C107.687 224.974 108.007 224.691 108.379 224.493C108.751 224.295 109.164 224.187 109.586 224.178C109.649 224.188 109.706 224.221 109.748 224.269C109.789 224.318 109.812 224.379 109.812 224.443C109.812 224.507 109.789 224.569 109.748 224.618C109.706 224.666 109.649 224.698 109.586 224.709C109.25 224.718 108.922 224.807 108.628 224.968C108.334 225.129 108.082 225.357 107.894 225.635C107.868 225.672 107.832 225.701 107.791 225.72C107.75 225.738 107.704 225.746 107.659 225.742Z" fill="#263238"/>
<path d="M109.149 228.944C109.511 229.996 110.017 230.992 110.653 231.905C110.414 232.059 110.144 232.161 109.863 232.201C109.581 232.242 109.294 232.221 109.021 232.14L109.149 228.944Z" fill="#DE5753"/>
<path d="M108.773 228.152C108.773 228.608 108.982 228.984 109.277 228.991C109.572 228.998 109.827 228.649 109.847 228.192C109.868 227.736 109.639 227.367 109.344 227.353C109.049 227.34 108.794 227.702 108.773 228.152Z" fill="#263238"/>
<path d="M109.21 227.373L110.311 227.105C110.311 227.105 109.72 227.931 109.21 227.373Z" fill="#263238"/>
<path d="M93.1741 406.517H86.8576C86.7483 406.513 86.6414 406.55 86.5582 406.621C86.4749 406.692 86.4212 406.791 86.4078 406.9L85.6896 411.894C85.6743 412.021 85.6862 412.149 85.7245 412.27C85.7629 412.392 85.8268 412.504 85.9121 412.599C85.9973 412.693 86.1018 412.769 86.2185 412.82C86.3353 412.871 86.4617 412.896 86.5891 412.894C88.7908 412.861 89.8514 412.726 92.6303 412.726C94.342 412.726 96.8324 412.908 99.1952 412.908C101.558 412.908 101.679 410.572 100.699 410.364C96.2954 409.411 95.5973 408.108 94.1138 406.86C93.8496 406.64 93.5175 406.519 93.1741 406.517Z" fill="#263238"/>
<path d="M129.488 404.416L123.655 406.839C123.554 406.879 123.47 406.954 123.421 407.05C123.371 407.147 123.359 407.258 123.386 407.363L124.635 412.256C124.67 412.378 124.731 412.492 124.813 412.588C124.896 412.685 124.998 412.763 125.112 412.818C125.227 412.873 125.352 412.902 125.479 412.905C125.606 412.908 125.733 412.883 125.85 412.834C127.863 411.954 128.803 411.431 131.367 410.363C132.945 409.692 136.281 408.517 138.462 407.611C140.644 406.705 139.859 404.503 138.872 404.685C134.442 405.504 132.334 404.96 130.488 404.376C130.16 404.271 129.806 404.286 129.488 404.416Z" fill="#263238"/>
<path d="M116.789 252.176C117.883 254.754 119.065 257.392 120.259 259.956C120.864 261.245 121.492 262.511 122.146 263.755C122.817 265.004 123.488 266.226 124.159 267.394C124.515 267.971 124.871 268.548 125.24 269.078L125.791 269.844C125.903 270.003 126.032 270.152 126.173 270.287C126.905 270.923 127.819 271.312 128.784 271.401C131.073 271.73 133.946 271.267 136.517 270.575L137.712 273.16C137.033 273.568 136.329 273.933 135.604 274.254C134.891 274.586 134.158 274.873 133.409 275.113C131.831 275.65 130.177 275.934 128.509 275.952C127.579 275.96 126.653 275.838 125.757 275.59C124.763 275.316 123.827 274.861 122.998 274.247C122.574 273.924 122.18 273.562 121.823 273.166C121.521 272.824 121.3 272.535 121.031 272.213C120.528 271.582 120.078 270.944 119.628 270.307C117.956 267.79 116.449 265.166 115.118 262.453C113.775 259.768 112.567 257.083 111.453 254.304L116.789 252.176Z" fill="#EBB376"/>
<path d="M135.94 273.475L142.075 272.509L140.444 269.032C140.444 269.032 135.691 269.857 134.778 272.005L135.94 273.475Z" fill="#EBB376"/>
<path d="M142.067 269.796L141.396 268.313L140.443 269.031L142.067 272.508V269.796Z" fill="#EBB376"/>
<path d="M93.6034 225.998C93.7243 231.576 93.6571 233.938 96.3556 236.905C100.383 241.369 107.243 240 108.787 234.496C110.177 229.542 109.74 221.252 104.384 218.822C103.204 218.281 101.906 218.051 100.613 218.153C99.3193 218.255 98.0734 218.686 96.9933 219.405C95.9132 220.123 95.0348 221.107 94.4415 222.26C93.8482 223.414 93.5597 224.701 93.6034 225.998Z" fill="#EBB376"/>
<path d="M89.106 215.922C94.8385 211.767 101.242 214.123 104.746 216.996C108.411 220.003 107.827 225.783 105.585 228.173C105.818 228.526 105.972 228.925 106.037 229.343C106.101 229.761 106.076 230.189 105.961 230.596C106.244 232.384 105.851 234.214 104.858 235.728C103.865 237.242 102.344 238.332 100.591 238.785L100.276 238.866C93.1133 240.571 84.8368 235.724 83.5883 228.475C82.8298 224.051 84.038 219.587 89.106 215.922Z" fill="#263238"/>
<path d="M104.303 228.582C104.395 229.633 104.845 230.621 105.579 231.381C106.572 232.408 107.592 231.817 107.774 230.602C107.928 229.508 107.599 227.655 106.391 227.071C105.183 226.487 104.216 227.34 104.303 228.582Z" fill="#EBB376"/>
<path opacity="0.3" d="M97.2007 298.634C96.563 310.166 99.342 318.872 100.611 323.967C101.51 316.435 102.336 308.575 103.027 301.641C100.658 293.787 97.6638 289.954 97.2007 298.634Z" fill="black"/>
<path d="M94.4823 399.711H84.7156L84.1987 396.288L94.536 395.939L94.4823 399.711Z" fill="#407BFF"/>
<path opacity="0.3" d="M84.9307 259.909L88.3205 262.594C88.3205 262.594 88.6762 261.648 89.1058 260.292L87.0921 250.324L84.9307 259.909Z" fill="black"/>
<path d="M92.3008 216.855C94.0527 214.915 100.007 211.955 105.115 214.278C106.572 214.941 107.807 216.011 108.671 217.359C109.536 218.707 109.993 220.275 109.988 221.876L105.383 224.964L92.3008 216.855Z" fill="#263238"/>
<path d="M87.602 221.95C90.1327 219.876 92.9721 212.358 87.602 214.976C82.232 217.594 80.6009 227.689 87.602 221.95Z" fill="#407BFF"/>
<path d="M88.1725 217.13C89.2666 213.935 82.0507 207.578 77.1841 213.62C72.3175 219.661 85.0243 226.326 88.1725 217.13Z" fill="#263238"/>
<path d="M99.4632 221.588C95.2679 219.802 93.1803 213.036 100.383 213.23C107.585 213.425 107.377 224.964 99.4632 221.588Z" fill="#407BFF"/>
<path d="M98.1072 218.084C95.5632 214.909 98.3757 206.746 105.672 209.357C112.969 211.969 103.947 225.34 98.1072 218.084Z" fill="#263238"/>
<path d="M111.002 280.591C111.002 280.591 117.339 323.886 119.568 340.923C121.883 358.61 128.65 398.268 128.65 398.268L121.132 399.416C121.132 399.416 109.25 361.591 105.941 344.373C102.33 325.611 95.2012 280.604 95.2012 280.604L111.002 280.591Z" fill="#407BFF"/>
<path opacity="0.6" d="M111.002 280.591C111.002 280.591 117.339 323.886 119.568 340.923C121.883 358.61 128.65 398.268 128.65 398.268L121.132 399.416C121.132 399.416 109.25 361.591 105.941 344.373C102.33 325.611 95.2012 280.604 95.2012 280.604L111.002 280.591Z" fill="black"/>
<path d="M113.687 246.658C116.479 247.33 119.923 255.009 119.923 255.009L113.271 263.534C113.271 263.534 106.397 253.807 107.317 250.84C108.27 247.746 110.297 245.833 113.687 246.658Z" fill="#263238"/>
<path d="M104.585 246.31C105.505 246.444 104.652 244.343 104.27 244.121C103.39 243.598 92.187 242.544 92.3146 243.725C92.3823 244.43 92.6849 245.092 93.1738 245.605C93.6772 245.94 96.53 245.014 104.585 246.31Z" fill="#407BFF"/>
<path opacity="0.6" d="M104.585 246.31C105.505 246.444 104.652 244.343 104.27 244.121C103.39 243.598 92.187 242.544 92.3146 243.725C92.3823 244.43 92.6849 245.092 93.1738 245.605C93.6772 245.94 96.53 245.014 104.585 246.31Z" fill="white"/>
<path d="M113.687 246.659C113.687 246.659 116.372 247.598 111.002 280.59H88.1799C88.5625 271.3 88.5759 265.568 84.1523 246.491C87.3481 245.831 90.5876 245.405 93.8452 245.216C97.2977 244.967 100.764 244.967 104.216 245.216C108.613 245.605 113.687 246.659 113.687 246.659Z" fill="#263238"/>
<path d="M87.8032 279.255L86.7762 281.268C86.6956 281.43 86.8836 281.591 87.1454 281.591H111.096C111.297 281.591 111.472 281.49 111.485 281.356L111.686 279.342C111.686 279.201 111.525 279.08 111.297 279.08H88.1925C88.1178 279.07 88.0417 279.081 87.9728 279.112C87.904 279.143 87.8452 279.192 87.8032 279.255Z" fill="#407BFF"/>
<path opacity="0.6" d="M87.8032 279.255L86.7762 281.268C86.6956 281.43 86.8836 281.591 87.1454 281.591H111.096C111.297 281.591 111.472 281.49 111.485 281.356L111.686 279.342C111.686 279.201 111.525 279.08 111.297 279.08H88.1925C88.1178 279.07 88.0417 279.081 87.9728 279.112C87.904 279.143 87.8452 279.192 87.8032 279.255Z" fill="white"/>
<path d="M90.9318 281.852H90.3075C90.1867 281.852 90.0927 281.785 90.0995 281.711L90.3948 279.026C90.3948 278.946 90.5089 278.885 90.6298 278.885H91.254C91.3748 278.885 91.4688 278.946 91.4621 279.026L91.1667 281.711C91.16 281.772 91.0526 281.852 90.9318 281.852Z" fill="#407BFF"/>
<path d="M105.927 281.852H105.309C105.182 281.852 105.088 281.785 105.101 281.711L105.39 279.026C105.39 278.946 105.504 278.885 105.632 278.885H106.249C106.37 278.885 106.464 278.946 106.457 279.026L106.169 281.711C106.169 281.772 106.061 281.852 105.927 281.852Z" fill="#407BFF"/>
<path opacity="0.6" d="M90.9318 281.852H90.3075C90.1867 281.852 90.0927 281.785 90.0995 281.711L90.3948 279.026C90.3948 278.946 90.5089 278.885 90.6298 278.885H91.254C91.3748 278.885 91.4688 278.946 91.4621 279.026L91.1667 281.711C91.16 281.772 91.0526 281.852 90.9318 281.852Z" fill="black"/>
<path opacity="0.6" d="M105.927 281.852H105.309C105.182 281.852 105.088 281.785 105.101 281.711L105.39 279.026C105.39 278.946 105.504 278.885 105.632 278.885H106.249C106.37 278.885 106.464 278.946 106.457 279.026L106.169 281.711C106.169 281.772 106.061 281.852 105.927 281.852Z" fill="black"/>
<path d="M129.757 398.267L120.131 399.905L119.037 396.273L129.341 394.508L129.757 398.267Z" fill="#407BFF"/>
<path d="M225.685 210.874C220.565 202.676 213.129 196.179 204.317 192.207C195.505 188.234 185.713 186.964 176.179 188.556C166.645 190.149 157.798 194.532 150.755 201.153C143.712 207.774 138.791 216.334 136.613 225.751C134.436 235.169 135.1 245.021 138.521 254.061C141.942 263.101 147.967 270.924 155.834 276.54C163.701 282.156 173.057 285.314 182.718 285.613C192.379 285.912 201.913 283.34 210.112 278.221C215.557 274.822 220.279 270.383 224.009 265.159C227.738 259.935 230.402 254.027 231.848 247.773C233.294 241.519 233.494 235.042 232.437 228.711C231.379 222.379 229.085 216.319 225.685 210.874ZM151.518 257.191C147.48 250.721 145.45 243.198 145.686 235.575C145.923 227.952 148.414 220.57 152.846 214.362C157.278 208.155 163.451 203.401 170.584 200.702C177.717 198.003 185.491 197.48 192.922 199.199C200.353 200.917 207.107 204.801 212.33 210.358C217.554 215.916 221.013 222.897 222.268 230.42C223.524 237.943 222.521 245.669 219.386 252.622C216.251 259.575 211.124 265.442 204.655 269.481C200.358 272.163 195.576 273.972 190.58 274.806C185.585 275.639 180.474 275.48 175.539 274.338C170.605 273.197 165.944 271.094 161.823 268.15C157.701 265.207 154.2 261.481 151.518 257.184V257.191Z" fill="#407BFF"/>
<path d="M225.685 210.874C220.565 202.676 213.129 196.179 204.317 192.207C195.505 188.234 185.713 186.964 176.179 188.556C166.645 190.149 157.798 194.532 150.755 201.153C143.712 207.774 138.791 216.334 136.613 225.751C134.436 235.169 135.1 245.021 138.521 254.061C141.942 263.101 147.967 270.924 155.834 276.54C163.701 282.156 173.057 285.314 182.718 285.613C192.379 285.912 201.913 283.34 210.112 278.221C215.557 274.822 220.279 270.383 224.009 265.159C227.738 259.935 230.402 254.027 231.848 247.773C233.294 241.519 233.494 235.042 232.437 228.711C231.379 222.379 229.085 216.319 225.685 210.874ZM151.518 257.191C147.48 250.721 145.45 243.198 145.686 235.575C145.923 227.952 148.414 220.57 152.846 214.362C157.278 208.155 163.451 203.401 170.584 200.702C177.717 198.003 185.491 197.48 192.922 199.199C200.353 200.917 207.107 204.801 212.33 210.358C217.554 215.916 221.013 222.897 222.268 230.42C223.524 237.943 222.521 245.669 219.386 252.622C216.251 259.575 211.124 265.442 204.655 269.481C200.358 272.163 195.576 273.972 190.58 274.806C185.585 275.639 180.474 275.48 175.539 274.338C170.605 273.197 165.944 271.094 161.823 268.15C157.701 265.207 154.2 261.481 151.518 257.184V257.191Z" fill="#407BFF"/>
<path opacity="0.5" d="M225.685 210.874C220.565 202.676 213.129 196.179 204.317 192.207C195.505 188.234 185.713 186.964 176.179 188.556C166.645 190.149 157.798 194.532 150.755 201.153C143.712 207.774 138.791 216.334 136.613 225.751C134.436 235.169 135.1 245.021 138.521 254.061C141.942 263.101 147.967 270.924 155.834 276.54C163.701 282.156 173.057 285.314 182.718 285.613C192.379 285.912 201.913 283.34 210.112 278.221C215.557 274.822 220.279 270.383 224.009 265.159C227.738 259.935 230.402 254.027 231.848 247.773C233.294 241.519 233.494 235.042 232.437 228.711C231.379 222.379 229.085 216.319 225.685 210.874ZM151.518 257.191C147.48 250.721 145.45 243.198 145.686 235.575C145.923 227.952 148.414 220.57 152.846 214.362C157.278 208.155 163.451 203.401 170.584 200.702C177.717 198.003 185.491 197.48 192.922 199.199C200.353 200.917 207.107 204.801 212.33 210.358C217.554 215.916 221.013 222.897 222.268 230.42C223.524 237.943 222.521 245.669 219.386 252.622C216.251 259.575 211.124 265.442 204.655 269.481C200.358 272.163 195.576 273.972 190.58 274.806C185.585 275.639 180.474 275.48 175.539 274.338C170.605 273.197 165.944 271.094 161.823 268.15C157.701 265.207 154.2 261.481 151.518 257.184V257.191Z" fill="white"/>
<path opacity="0.2" d="M220.175 214.318C224.612 221.428 226.841 229.693 226.581 238.07C226.321 246.446 223.583 254.557 218.713 261.378C213.843 268.198 207.06 273.421 199.222 276.387C191.384 279.353 182.842 279.928 174.677 278.04C166.512 276.152 159.09 271.885 153.35 265.779C147.61 259.673 143.809 252.002 142.428 243.736C141.047 235.47 142.149 226.98 145.592 219.34C149.036 211.7 154.668 205.252 161.776 200.812C166.497 197.864 171.753 195.874 177.243 194.957C182.733 194.039 188.35 194.213 193.773 195.467C199.196 196.721 204.319 199.032 208.849 202.266C213.379 205.501 217.228 209.596 220.175 214.318Z" fill="#FAFAFA"/>
<path opacity="0.1" d="M226.196 230.763L160.413 271.831C155.049 268.191 150.591 263.368 147.384 257.734L219.208 212.888C222.873 218.234 225.264 224.349 226.196 230.763Z" fill="#E6E6E6"/>
<path fill-rule="evenodd" clip-rule="evenodd" d="M207.944 225.173C208.113 225.37 208.075 225.655 207.861 225.809L175.726 248.903C175.622 248.978 175.489 249.012 175.357 248.996C175.226 248.981 175.107 248.918 175.027 248.821L164.15 235.689C163.985 235.49 164.028 235.205 164.245 235.054C164.463 234.903 164.773 234.942 164.938 235.141L174.915 247.188C175.251 247.593 175.842 247.669 176.269 247.362L207.25 225.097C207.465 224.942 207.776 224.977 207.944 225.173Z" stroke="#19ED36" stroke-width="3" stroke-linecap="round" stroke-linejoin="round"/>
</svg>
