<svg width="128" height="47" viewBox="0 0 128 47" fill="none" xmlns="http://www.w3.org/2000/svg">
<path d="M99.1695 44.1304V21.8354C99.1695 17.8518 98.1415 14.7249 96.0854 12.4547C94.0723 10.1846 91.2024 9.04945 87.4758 9.04945C86.2336 9.04945 85.12 9.19937 84.1348 9.49921C83.1496 9.79905 82.2501 10.206 81.4362 10.72C80.6224 11.234 79.8728 11.8337 79.1875 12.519C78.545 13.1615 77.9453 13.8469 77.3884 14.575V9.69196H67.6223V44.1304H77.3884V24.9194C77.3884 22.6064 77.9239 20.8716 78.9947 19.7151C80.1084 18.5157 81.6076 17.9161 83.4923 17.9161C85.377 17.9161 86.8333 18.5157 87.8613 19.7151C88.8893 20.8716 89.4034 22.6064 89.4034 24.9194V44.1304H99.1695Z" fill="#0033EA"/>
<path d="M127.139 42.9851V35.041C125.62 35.8658 123.992 36.2782 122.256 36.2782C120.129 36.2782 119.065 35.1495 119.065 32.8921V17.9805H127.27V9.51544H119.065V0.594536H109.167V9.51544H105V17.9805H109.167V34.52C109.167 36.5603 109.406 38.2534 109.884 39.5991C110.405 40.9014 111.099 41.965 111.967 42.7898C112.879 43.6146 113.942 44.1789 115.158 44.4828C116.417 44.8301 117.806 45.0037 119.325 45.0037C120.975 45.0037 122.429 44.8084 123.688 44.4177C124.947 44.0704 126.097 43.5929 127.139 42.9851Z" fill="#0033EA"/>
<path d="M24.5808 27.9797V27.8362C24.5808 25.1104 24.9634 22.5042 25.7285 20.0176C26.4458 17.4831 27.5935 15.2595 29.1716 13.3467C30.7018 11.386 32.6386 9.83187 34.9818 8.68418C37.3249 7.5365 40.0985 6.96265 43.3025 6.96265C46.1239 6.96265 48.7062 7.48868 51.0494 8.54072C53.3447 9.59277 55.3293 11.0274 57.003 12.8445C58.6767 14.6617 59.9918 16.7897 60.9482 19.2286C61.8567 21.6674 62.311 24.2497 62.311 26.9754V27.1189C62.311 30.0838 61.8089 32.7856 60.8047 35.2244C59.8005 37.6154 58.4137 39.6956 56.6443 41.465C54.8272 43.2343 52.6992 44.5972 50.2603 45.5536C47.7737 46.51 45.0957 46.9882 42.2265 46.9882C38.7356 46.9882 35.6991 46.3666 33.1168 45.1232C30.5345 43.8321 28.3347 42.0627 26.5176 39.8152L32.7581 34.2919C34.2884 35.6787 35.7708 36.683 37.2054 37.3046C38.64 37.9263 40.2659 38.2371 42.0831 38.2371C44.5219 38.2371 46.5782 37.6154 48.2519 36.3721C49.8778 35.081 50.9537 33.1921 51.4797 30.7054H24.7243C24.6765 30.1794 24.6526 29.7251 24.6526 29.3425C24.6048 28.96 24.5808 28.5057 24.5808 27.9797ZM35.1969 23.891H51.6232C51.1928 21.4044 50.2842 19.4198 48.8974 17.9374C47.4628 16.455 45.5978 15.7138 43.3025 15.7138C41.0071 15.7138 39.166 16.4789 37.7792 18.0091C36.3924 19.4916 35.5317 21.4522 35.1969 23.891Z" fill="#0033EA"/>
<path d="M23.4063 18.356V6.87046C20.1316 6.72599 17.5311 7.44835 15.6048 9.03755C13.6785 10.6267 12.1615 12.7457 11.0539 15.3943V7.59282H0.0739746V46.3114H11.0539V32.0087C11.0539 27.3374 12.0893 23.8941 14.16 21.6789C16.279 19.4636 19.1684 18.356 22.8284 18.356H23.4063Z" fill="#0033EA"/>
</svg>
