<svg width="46" height="51" viewBox="0 0 46 51" fill="none" xmlns="http://www.w3.org/2000/svg">
<path d="M14.72 30.8857C13.9581 29.8786 12.5134 29.6714 11.5 30.4286C10.4866 31.1857 10.2781 32.6214 11.04 33.6286L13.7784 37.2571C14.1234 37.7143 14.0731 38.35 13.6706 38.75L12.7506 39.6643C12.2691 40.1429 11.4856 40.1071 11.0544 39.5857L4.6 31.8857V21.2857C4.6 20.0214 3.57219 19 2.3 19C1.02781 19 0 20.0214 0 21.2857V36.8857C0 37.6643 0.265937 38.4214 0.754687 39.0286L8.23687 48.6214C8.59625 49.0857 8.84062 49.6143 8.98438 50.1714C9.11375 50.6643 9.56656 51 10.0841 51H19.55C20.1825 51 20.7 50.4857 20.7 49.8571V41.8571C20.7 39.8786 20.0531 37.9571 18.86 36.3714L14.72 30.8857ZM43.7 19C42.4278 19 41.4 20.0214 41.4 21.2857V31.8857L34.9456 39.5857C34.5144 40.1 33.7238 40.1357 33.2494 39.6643L32.3294 38.75C31.9269 38.35 31.8766 37.7143 32.2216 37.2571L34.96 33.6286C35.7219 32.6214 35.5134 31.1857 34.5 30.4286C33.4866 29.6714 32.0419 29.8786 31.28 30.8857L27.14 36.3714C25.9469 37.9571 25.3 39.8786 25.3 41.8571V49.8571C25.3 50.4857 25.8175 51 26.45 51H35.9159C36.4263 51 36.8862 50.6643 37.0156 50.1714C37.1594 49.6143 37.4038 49.0857 37.7631 48.6214L45.2453 39.0286C45.7341 38.4214 46 37.6643 46 36.8857V21.2857C46 20.0214 44.9722 19 43.7 19Z" fill="#0033EA"/>
<path d="M29.8941 0H14.4207C12.9707 0 11.592 0.629536 10.6423 1.72535L7.48445 5.36901C7.16066 5.74261 6.98242 6.22043 6.98242 6.71482C6.98242 7.2411 7.18435 7.74732 7.54656 8.12912L21.1141 22.43C21.4593 22.7939 21.9389 23 22.4405 23C22.9508 23 23.4379 22.7867 23.784 22.4118L36.8639 8.24194C37.2838 7.78707 37.5169 7.19074 37.5169 6.5717C37.5169 5.91862 37.2575 5.29229 36.7957 4.83049L33.4296 1.46447C32.492 0.526784 31.2202 0 29.8941 0Z" fill="#0033EA"/>
<path d="M12.9185 6.10321C13.4308 5.41124 14.3593 4.31499 15.1128 3.44992C15.488 3.01916 16.1037 2.66871 16.5522 3.02252C16.8381 3.24802 16.9362 3.59343 16.9441 3.90862C16.9517 4.20964 16.7952 4.48223 16.6024 4.71355L16.0818 5.33829C15.4196 6.13295 15.4726 7.30144 16.204 8.03288L18.751 10.5799C19.0863 10.9151 19.2753 11.4165 19.1882 11.8825C19.0469 12.6388 18.4071 12.8686 17.8358 12.3532C16.5497 11.1931 14.4457 8.90181 13.029 7.30409C12.7076 6.94161 12.6302 6.49257 12.9185 6.10321Z" fill="white"/>
</svg>
