<svg width="51" height="41" viewBox="0 0 51 41" fill="none" xmlns="http://www.w3.org/2000/svg">
<path d="M38.8892 15.2982H26.7768V19.7607C26.7768 22.9243 24.2029 25.4982 21.0393 25.4982C17.8757 25.4982 15.3018 22.9243 15.3018 19.7607V10.0708L10.1301 13.1786C8.59211 14.095 7.6518 15.7604 7.6518 17.5454V21.3146L1.27682 24.9962C0.0575987 25.6974 -0.364744 27.2593 0.344473 28.4785L6.71946 39.5232C7.42071 40.7424 8.98258 41.1568 10.2018 40.4555L18.4415 35.6982H29.3268C32.1397 35.6982 34.4268 33.4112 34.4268 30.5982H35.7018C37.1122 30.5982 38.2517 29.4587 38.2517 28.0482V22.9482H38.8892C39.9491 22.9482 40.8017 22.0956 40.8017 21.0357V17.2107C40.8017 16.1509 39.9491 15.2982 38.8892 15.2982ZM50.6591 12.3179L44.2841 1.27327C43.5828 0.0540573 42.021 -0.360317 40.8017 0.340932L32.5621 5.09827H24.418C23.4618 5.09827 22.5294 5.3692 21.7166 5.87123L19.0471 7.5367C18.298 7.99889 17.8518 8.81967 17.8518 9.69623V19.7607C17.8518 21.5218 19.2782 22.9482 21.0393 22.9482C22.8004 22.9482 24.2268 21.5218 24.2268 19.7607V12.7483H38.8892C41.3516 12.7483 43.3517 14.7484 43.3517 17.2107V19.4818L49.7267 15.8003C50.9459 15.0911 51.3603 13.5372 50.6591 12.3179Z" fill="#0033EA"/>
</svg>
