<svg width="56" height="65" viewBox="0 0 56 65" fill="none" xmlns="http://www.w3.org/2000/svg">
<path d="M27.5714 0L0 9.19048V36.7619C0 51.9908 12.3425 64.3333 27.5714 64.3333C42.8003 64.3333 55.1429 51.9908 55.1429 36.7619V9.19048L27.5714 0ZM49.9732 36.7619C49.9732 49.1331 39.9427 59.1637 27.5714 59.1637C15.2002 59.1637 5.16964 49.1331 5.16964 36.7619V13.0677L27.5714 5.16964L49.9732 13.0677V36.7619Z" fill="url(#paint0_linear)"/>
<path d="M17.9788 29.5172C17.7392 29.2765 17.4544 29.0855 17.1408 28.9552C16.8272 28.8249 16.491 28.7578 16.1514 28.7578C15.8118 28.7578 15.4756 28.8249 15.162 28.9552C14.8484 29.0855 14.5637 29.2765 14.3241 29.5172C14.0834 29.7568 13.8925 30.0415 13.7621 30.3551C13.6318 30.6687 13.5648 31.0049 13.5648 31.3445C13.5648 31.6841 13.6318 32.0203 13.7621 32.3339C13.8925 32.6475 14.0834 32.9323 14.3241 33.1718L23.6151 42.4628L23.7659 42.6136C23.9925 42.8406 24.2617 43.0208 24.558 43.1437C24.8543 43.2666 25.1719 43.3298 25.4927 43.3298C25.8135 43.3298 26.1311 43.2666 26.4274 43.1437C26.7237 43.0208 26.9929 42.8406 27.2195 42.6136L43.2669 26.5662C43.494 26.3396 43.6741 26.0704 43.797 25.7741C43.9199 25.4778 43.9831 25.1602 43.9831 24.8394C43.9831 24.5186 43.9199 24.201 43.797 23.9046C43.6741 23.6083 43.494 23.3392 43.2669 23.1126L43.0659 22.9115C42.8393 22.6845 42.5701 22.5044 42.2738 22.3815C41.9775 22.2586 41.6599 22.1953 41.3391 22.1953C41.0183 22.1953 40.7007 22.2586 40.4044 22.3815C40.108 22.5044 39.8389 22.6845 39.6123 22.9115L25.4891 37.0275L17.9788 29.5172Z" fill="url(#paint1_linear)"/>
<defs>
<linearGradient id="paint0_linear" x1="27.5714" y1="0" x2="27.5714" y2="64.3333" gradientUnits="userSpaceOnUse">
<stop stop-color="#0036D9"/>
<stop offset="1" stop-color="#014469"/>
</linearGradient>
<linearGradient id="paint1_linear" x1="28.7739" y1="22.1953" x2="28.7739" y2="43.3298" gradientUnits="userSpaceOnUse">
<stop stop-color="#0036D9"/>
<stop offset="1" stop-color="#014469"/>
</linearGradient>
</defs>
</svg>
