<svg width="21" height="20" viewBox="0 0 21 20" fill="none" xmlns="http://www.w3.org/2000/svg">
<path fill-rule="evenodd" clip-rule="evenodd" d="M20.4371 8.88962C20.4055 8.60848 20.0777 8.39722 19.7942 8.39722C18.8778 8.39722 18.0646 7.85912 17.7236 7.02695C17.3752 6.1746 17.5998 5.18057 18.2828 4.55408C18.4978 4.35755 18.5239 4.02856 18.3436 3.80004C17.8746 3.20442 17.3415 2.66641 16.7594 2.20012C16.5315 2.01721 16.197 2.04266 15.9994 2.26152C15.4033 2.92165 14.3327 3.16699 13.5053 2.82178C12.6443 2.45961 12.1014 1.58717 12.1545 0.650666C12.172 0.356505 11.957 0.100743 11.6638 0.0665864C10.9168 -0.0198089 10.1633 -0.0224878 9.41408 0.0606332C9.12416 0.0926314 8.90918 0.342366 8.91893 0.632806C8.95152 1.56009 8.40205 2.41727 7.54963 2.76642C6.73219 3.10032 5.66903 2.85706 5.07416 2.2028C4.87755 1.9873 4.54857 1.96081 4.31952 2.13933C3.72019 2.60955 3.1751 3.14802 2.70175 3.73872C2.51713 3.96836 2.54429 4.30122 2.76143 4.49879C3.45743 5.12908 3.68216 6.13174 3.32058 6.99391C2.97537 7.81589 2.12184 8.34565 1.1447 8.34565C0.827622 8.33545 0.601774 8.54828 0.567097 8.83656C0.479139 9.58785 0.478098 10.3533 0.562781 11.1107C0.594184 11.3931 0.931951 11.6025 1.21852 11.6025C2.08932 11.5802 2.92537 12.1194 3.27608 12.9728C3.62568 13.8252 3.40095 14.8186 2.71693 15.4456C2.50299 15.6421 2.47583 15.9706 2.65613 16.1991C3.12078 16.7909 3.65396 17.3295 4.23811 17.7996C4.46723 17.9843 4.80061 17.9582 4.99922 17.7394C5.59751 17.0776 6.66811 16.8327 7.49218 17.1786C8.35531 17.5396 8.89824 18.412 8.84511 19.349C8.82777 19.6433 9.0438 19.8995 9.33587 19.9332C9.71799 19.9777 10.1024 20 10.4879 20C10.8538 20 11.2197 19.9799 11.5856 19.9392C11.8756 19.9072 12.0905 19.6575 12.0807 19.3665C12.0472 18.4398 12.5976 17.5826 13.4489 17.234C14.2719 16.8979 15.3306 17.1439 15.9255 17.7975C16.1232 18.0125 16.4499 18.0385 16.6802 17.8606C17.2784 17.3915 17.8224 16.8535 18.298 16.2611C18.4825 16.032 18.4565 15.6986 18.2382 15.5011C17.5422 14.8708 17.3164 13.868 17.678 13.0064C18.0179 12.1954 18.8397 11.6508 19.7237 11.6508L19.8474 11.654C20.1341 11.6773 20.3979 11.4565 20.4326 11.1638C20.5207 10.4118 20.5218 9.64701 20.4371 8.88962ZM10.5158 13.3567C8.67641 13.3567 7.18023 11.8605 7.18023 10.0212C7.18023 8.18186 8.67641 6.68561 10.5158 6.68561C12.3551 6.68561 13.8513 8.18186 13.8513 10.0212C13.8513 11.8605 12.3551 13.3567 10.5158 13.3567Z" fill="black"/>
</svg>
