<svg width="26" height="26" viewBox="0 0 26 26" fill="none" xmlns="http://www.w3.org/2000/svg">
<path d="M12.5117 0.195374C5.61922 0.195374 0.0117188 5.80287 0.0117188 12.6954V17.8741C0.0117188 19.1541 1.13297 20.1954 2.51172 20.1954H3.76172C4.09324 20.1954 4.41118 20.0637 4.6456 19.8293C4.88002 19.5948 5.01172 19.2769 5.01172 18.9454V12.5166C5.01172 12.1851 4.88002 11.8672 4.6456 11.6327C4.41118 11.3983 4.09324 11.2666 3.76172 11.2666H2.62672C3.32172 6.42912 7.48422 2.69537 12.5117 2.69537C17.5392 2.69537 21.7017 6.42912 22.3967 11.2666H21.2617C20.9302 11.2666 20.6123 11.3983 20.3778 11.6327C20.1434 11.8672 20.0117 12.1851 20.0117 12.5166V20.1954C20.0117 21.5741 18.8905 22.6954 17.5117 22.6954H15.0117V21.4454H10.0117V25.1954H17.5117C20.2692 25.1954 22.5117 22.9529 22.5117 20.1954C23.8905 20.1954 25.0117 19.1541 25.0117 17.8741V12.6954C25.0117 5.80287 19.4042 0.195374 12.5117 0.195374Z" fill="white"/>
</svg>
