<svg width="26" height="26" viewBox="0 0 26 26" fill="none" xmlns="http://www.w3.org/2000/svg">
<path d="M12.5117 0.195312C5.61922 0.195312 0.0117188 5.80281 0.0117188 12.6953V17.8741C0.0117188 19.1541 1.13297 20.1953 2.51172 20.1953H3.76172C4.09324 20.1953 4.41118 20.0636 4.6456 19.8292C4.88002 19.5948 5.01172 19.2768 5.01172 18.9453V12.5166C5.01172 12.185 4.88002 11.8671 4.6456 11.6327C4.41118 11.3983 4.09324 11.2666 3.76172 11.2666H2.62672C3.32172 6.42906 7.48422 2.69531 12.5117 2.69531C17.5392 2.69531 21.7017 6.42906 22.3967 11.2666H21.2617C20.9302 11.2666 20.6123 11.3983 20.3778 11.6327C20.1434 11.8671 20.0117 12.185 20.0117 12.5166V20.1953C20.0117 21.5741 18.8905 22.6953 17.5117 22.6953H15.0117V21.4453H10.0117V25.1953H17.5117C20.2692 25.1953 22.5117 22.9528 22.5117 20.1953C23.8905 20.1953 25.0117 19.1541 25.0117 17.8741V12.6953C25.0117 5.80281 19.4042 0.195312 12.5117 0.195312Z" fill="black"/>
</svg>
