<svg width="163" height="76" viewBox="0 0 163 76" fill="none" xmlns="http://www.w3.org/2000/svg">
<path d="M33.3263 45.3817V45.2884C33.3263 43.857 33.0929 42.6279 32.6262 41.6011C32.1905 40.5743 31.5216 39.6875 30.6192 38.9407C29.7479 38.1628 28.6589 37.5094 27.352 36.9804C26.0763 36.4203 24.6138 35.9225 22.9647 35.4869C21.5645 35.1135 20.3976 34.7867 19.4642 34.5067C18.5618 34.2267 17.8461 33.9311 17.3172 33.6199C16.7882 33.3087 16.4148 32.9665 16.197 32.5931C16.0103 32.1886 15.9169 31.7218 15.9169 31.1929V31.0995C15.9169 30.2905 16.2592 29.6215 16.9438 29.0925C17.6594 28.5325 18.7174 28.2524 20.1176 28.2524C21.5178 28.2524 22.918 28.548 24.3182 29.1392C25.7184 29.6993 27.1498 30.4772 28.6122 31.4729L32.3461 26.0588C30.6659 24.7208 28.8145 23.6939 26.7919 22.9783C24.8005 22.2626 22.6069 21.9048 20.2109 21.9048C18.5307 21.9048 16.9904 22.1382 15.5902 22.6049C14.19 23.0716 12.9765 23.7406 11.9497 24.6119C10.954 25.4831 10.1761 26.5255 9.61599 27.739C9.0559 28.9214 8.77586 30.2594 8.77586 31.753V31.8463C8.77586 33.4643 9.02479 34.8179 9.52264 35.9069C10.0516 36.996 10.7828 37.9139 11.7163 38.6607C12.6498 39.3763 13.7855 39.9831 15.1235 40.4809C16.4615 40.9788 17.955 41.43 19.6042 41.8345C20.9733 42.1768 22.0779 42.5035 22.918 42.8146C23.7893 43.1258 24.4583 43.437 24.925 43.7481C25.4228 44.0593 25.7496 44.4015 25.9051 44.7749C26.0918 45.1172 26.1852 45.5217 26.1852 45.9885V46.0818C26.1852 47.0464 25.7651 47.8087 24.925 48.3688C24.116 48.8978 22.9647 49.1623 21.4711 49.1623C19.6042 49.1623 17.8772 48.8044 16.2903 48.0888C14.7345 47.3731 13.2099 46.4085 11.7163 45.195L7.46899 50.2824C9.42929 52.056 11.6074 53.3785 14.0033 54.2497C16.3992 55.0898 18.8418 55.5099 21.3311 55.5099C23.1047 55.5099 24.7227 55.2921 26.1852 54.8565C27.6476 54.3897 28.9078 53.7363 29.9658 52.8962C31.0237 52.0249 31.8483 50.967 32.4395 49.7224C33.0307 48.4466 33.3263 46.9997 33.3263 45.3817Z" fill="white"/>
<path d="M86.6113 22.3715H79.0968L72.3291 44.4949L65.0014 22.2782H58.8404L51.5126 44.4949L44.7449 22.3715H37.0438L48.1988 55.2765H54.4531L61.8275 33.8999L69.202 55.2765H75.4563L86.6113 22.3715Z" fill="white"/>
<path d="M123.767 55.0432L109.765 22.1382H103.137L89.135 55.0432H96.4628L99.4499 47.7154H113.265L116.252 55.0432H123.767ZM110.698 41.3678H102.017L106.358 30.7728L110.698 41.3678Z" fill="white"/>
<path d="M154.667 33.7599V33.6666C154.667 31.9863 154.371 30.4616 153.78 29.0925C153.22 27.6923 152.395 26.4944 151.306 25.4987C150.248 24.503 148.941 23.7406 147.386 23.2117C145.861 22.6516 144.119 22.3715 142.158 22.3715H128.81V55.0432H135.997V45.2417H141.458C143.294 45.2417 145.005 45.0083 146.592 44.5416C148.21 44.0437 149.61 43.3125 150.793 42.3479C152.006 41.3833 152.955 40.1854 153.64 38.754C154.325 37.3227 154.667 35.658 154.667 33.7599ZM147.386 33.8999C147.386 35.3002 146.888 36.4826 145.892 37.4472C144.896 38.3806 143.496 38.8474 141.691 38.8474H135.997V28.8592H141.551C143.356 28.8592 144.772 29.2792 145.799 30.1194C146.857 30.9595 147.386 32.1886 147.386 33.8066V33.8999Z" fill="white"/>
<path fill-rule="evenodd" clip-rule="evenodd" d="M27.0736 0L38.8641 7.57305L27.0736 15.1461V12.2658C20.6904 11.0241 6.70998 11.4444 0.0281372 22.8265C0.0147057 22.8591 0.00524521 22.8759 -0.000774384 22.8759L0.0281372 22.8265C0.0503387 22.7726 0.0833855 22.6755 0.129662 22.5395C0.934185 20.1748 5.73746 6.05681 27.0736 2.9886V0Z" fill="#FFD704"/>
<path fill-rule="evenodd" clip-rule="evenodd" d="M135.708 76L123.917 68.4269L135.708 60.8539V63.7336C142.091 64.9752 156.072 64.5549 162.753 53.1728C162.767 53.1402 162.776 53.1234 162.782 53.1234L162.753 53.1728C162.731 53.2267 162.698 53.3238 162.652 53.4599C161.847 55.8245 157.044 69.9425 135.708 73.0107V76Z" fill="#FFD704"/>
</svg>
