<svg width="85" height="85" viewBox="0 0 85 85" fill="none" xmlns="http://www.w3.org/2000/svg">
<circle cx="42.5" cy="42.5" r="42.25" fill="#DBDBDB" stroke="black" stroke-width="0.5"/>
<path d="M54.1054 23.8067C53.5356 23.2758 52.782 22.9867 52.0033 23.0005C51.2245 23.0142 50.4816 23.3296 49.9308 23.8803C49.3801 24.431 49.0647 25.1739 49.0509 25.9525C49.0372 26.7312 49.3262 27.4848 49.8572 28.0545L52.7428 30.9399H43.9658C40.5113 30.9399 37.1983 32.3121 34.7555 34.7546C32.3128 37.1971 30.9405 40.5098 30.9405 43.964V52.7403L28.055 49.8549C27.4852 49.324 26.7315 49.035 25.9528 49.0488C25.1741 49.0625 24.4311 49.3779 23.8804 49.9286C23.3297 50.4793 23.0142 51.2222 23.0005 52.0008C22.9867 52.7795 23.2758 53.5331 23.8067 54.1028L31.8223 62.1177C32.1008 62.3973 32.4318 62.6192 32.7963 62.7706C33.1608 62.9221 33.5517 63 33.9464 63C34.3411 63 34.7319 62.9221 35.0964 62.7706C35.4609 62.6192 35.792 62.3973 36.0705 62.1177L44.086 54.1028C44.3662 53.8246 44.5885 53.4937 44.7402 53.1292C44.892 52.7646 44.9701 52.3737 44.9701 51.9789C44.9701 51.5841 44.892 51.1931 44.7402 50.8286C44.5885 50.4641 44.3662 50.1332 44.086 49.8549C43.5224 49.2921 42.7584 48.976 41.9619 48.976C41.1653 48.976 40.4014 49.2921 39.8378 49.8549L36.9522 52.7403V43.964C36.9522 40.0929 40.0943 36.951 43.9658 36.951H52.7428L49.8572 39.8364C49.3765 40.3186 49.0737 40.9498 48.9986 41.6265C48.9234 42.3032 49.0803 42.9854 49.4435 43.5613C49.8067 44.1373 50.3547 44.5728 50.9978 44.7967C51.6408 45.0206 52.3409 45.0195 52.9832 44.7936C53.4055 44.6437 53.7889 44.4014 54.1054 44.0843L62.1209 36.0694C62.6838 35.5058 63 34.7419 63 33.9455C63 33.149 62.6838 32.3851 62.1209 31.8215L54.1054 23.8067Z" fill="#0033EA"/>
</svg>
