<svg width="169" height="44" viewBox="0 0 169 44" fill="none" xmlns="http://www.w3.org/2000/svg">
<path d="M23.6 27.72V27.64C23.6 26.4133 23.4 25.36 23 24.48C22.6267 23.6 22.0533 22.84 21.28 22.2C20.5333 21.5333 19.6 20.9733 18.48 20.52C17.3867 20.04 16.1333 19.6133 14.72 19.24C13.52 18.92 12.52 18.64 11.72 18.4C10.9467 18.16 10.3333 17.9067 9.88 17.64C9.42667 17.3733 9.10667 17.08 8.92 16.76C8.76 16.4133 8.68 16.0133 8.68 15.56V15.48C8.68 14.7867 8.97333 14.2133 9.56 13.76C10.1733 13.28 11.08 13.04 12.28 13.04C13.48 13.04 14.68 13.2933 15.88 13.8C17.08 14.28 18.3067 14.9467 19.56 15.8L22.76 11.16C21.32 10.0133 19.7333 9.13333 18 8.52C16.2933 7.90667 14.4133 7.6 12.36 7.6C10.92 7.6 9.6 7.8 8.4 8.2C7.2 8.6 6.16 9.17333 5.28 9.92C4.42667 10.6667 3.76 11.56 3.28 12.6C2.8 13.6133 2.56 14.76 2.56 16.04V16.12C2.56 17.5067 2.77333 18.6667 3.2 19.6C3.65333 20.5333 4.28 21.32 5.08 21.96C5.88 22.5733 6.85333 23.0933 8 23.52C9.14667 23.9467 10.4267 24.3333 11.84 24.68C13.0133 24.9733 13.96 25.2533 14.68 25.52C15.4267 25.7867 16 26.0533 16.4 26.32C16.8267 26.5867 17.1067 26.88 17.24 27.2C17.4 27.4933 17.48 27.84 17.48 28.24V28.32C17.48 29.1467 17.12 29.8 16.4 30.28C15.7067 30.7333 14.72 30.96 13.44 30.96C11.84 30.96 10.36 30.6533 9 30.04C7.66667 29.4267 6.36 28.6 5.08 27.56L1.44 31.92C3.12 33.44 4.98667 34.5733 7.04 35.32C9.09333 36.04 11.1867 36.4 13.32 36.4C14.84 36.4 16.2267 36.2133 17.48 35.84C18.7333 35.44 19.8133 34.88 20.72 34.16C21.6267 33.4133 22.3333 32.5067 22.84 31.44C23.3467 30.3467 23.6 29.1067 23.6 27.72ZM69.2659 8H62.8259L57.0259 26.96L50.7459 7.92H45.4659L39.1859 26.96L33.3859 8H26.7859L36.3459 36.2H41.7059L48.0259 17.88L54.3459 36.2H59.7059L69.2659 8ZM107.099 13.68V8H83.8991V13.68H92.4191V36H98.5791V13.68H107.099ZM136.437 31.48L132.517 27.52C131.423 28.5333 130.317 29.3333 129.197 29.92C128.103 30.5067 126.757 30.8 125.157 30.8C123.957 30.8 122.85 30.5733 121.837 30.12C120.85 29.64 119.997 29 119.277 28.2C118.583 27.4 118.037 26.4667 117.637 25.4C117.237 24.3333 117.037 23.2 117.037 22V21.92C117.037 20.72 117.237 19.6 117.637 18.56C118.037 17.4933 118.597 16.56 119.317 15.76C120.037 14.96 120.89 14.3333 121.877 13.88C122.89 13.4267 123.983 13.2 125.157 13.2C126.57 13.2 127.837 13.48 128.957 14.04C130.103 14.6 131.223 15.3733 132.317 16.36L136.237 11.84C135.597 11.2 134.903 10.6133 134.157 10.08C133.41 9.54667 132.597 9.09333 131.717 8.72C130.837 8.34667 129.85 8.05333 128.757 7.84C127.69 7.62667 126.503 7.52 125.197 7.52C123.037 7.52 121.063 7.90667 119.277 8.68C117.49 9.42667 115.957 10.4667 114.677 11.8C113.397 13.1067 112.397 14.64 111.677 16.4C110.957 18.1333 110.597 20 110.597 22V22.08C110.597 24.08 110.957 25.96 111.677 27.72C112.397 29.48 113.397 31.0133 114.677 32.32C115.957 33.6 117.477 34.6133 119.237 35.36C120.997 36.1067 122.903 36.48 124.957 36.48C126.317 36.48 127.543 36.36 128.637 36.12C129.73 35.9067 130.73 35.5867 131.637 35.16C132.57 34.7067 133.423 34.1733 134.197 33.56C134.97 32.9467 135.717 32.2533 136.437 31.48ZM165.048 36V8H158.888V19.08H147.528V8H141.368V36H147.528V24.76H158.888V36H165.048Z" fill="white"/>
<path d="M73.76 31.8V37.2H80.16V31.8H73.76ZM73.92 8V29.44H80V8H73.92Z" fill="white"/>
<circle cx="77" cy="35" r="5" fill="#EA0000"/>
</svg>
