<svg width="35" height="35" viewBox="0 0 35 35" fill="none" xmlns="http://www.w3.org/2000/svg">
<path d="M13.595 0.35259C13.3459 0.120533 13.0165 -0.00580032 12.6762 0.000204674C12.3359 0.00620967 12.0111 0.144084 11.7704 0.384782C11.5297 0.62548 11.3919 0.950208 11.3859 1.29055C11.3798 1.6309 11.5062 1.96029 11.7382 2.20933L12.9994 3.47051H9.16333C7.6535 3.47051 6.20551 4.07028 5.1379 5.1379C4.07028 6.20551 3.47051 7.6535 3.47051 9.16333V12.9994L2.20933 11.7382C1.96029 11.5062 1.6309 11.3798 1.29055 11.3859C0.950208 11.3919 0.62548 11.5297 0.384782 11.7704C0.144084 12.0111 0.00620967 12.3359 0.000204674 12.6762C-0.00580032 13.0165 0.120533 13.3459 0.35259 13.595L3.85587 17.0983C3.9776 17.2205 4.12228 17.3175 4.28159 17.3837C4.44091 17.4498 4.61172 17.4839 4.78424 17.4839C4.95675 17.4839 5.12756 17.4498 5.28688 17.3837C5.44619 17.3175 5.59087 17.2205 5.7126 17.0983L9.21588 13.595C9.33833 13.4734 9.4355 13.3287 9.50182 13.1694C9.56813 13.0101 9.60227 12.8392 9.60227 12.6666C9.60227 12.494 9.56813 12.3232 9.50182 12.1638C9.4355 12.0045 9.33833 11.8599 9.21588 11.7382C8.96956 11.4922 8.63565 11.354 8.28751 11.354C7.93937 11.354 7.60547 11.4922 7.35914 11.7382L6.09796 12.9994V9.16333C6.09796 7.47125 7.47125 6.09796 9.16333 6.09796H12.9994L11.7382 7.35914C11.5281 7.56992 11.3958 7.8458 11.363 8.14159C11.3301 8.43738 11.3987 8.73556 11.5574 8.98731C11.7162 9.23905 11.9557 9.42943 12.2367 9.52728C12.5178 9.62514 12.8238 9.62465 13.1045 9.52592C13.2891 9.46042 13.4566 9.35449 13.595 9.21588L17.0983 5.7126C17.3443 5.46628 17.4825 5.13237 17.4825 4.78424C17.4825 4.4361 17.3443 4.10219 17.0983 3.85587L13.595 0.35259V0.35259Z" fill="white"/>
<path d="M18.9411 3.4707C19.1353 3.88145 19.236 4.33011 19.236 4.78443C19.236 5.23875 19.1353 5.68742 18.9411 6.09816H22.7387V13.1047H15.7321V9.55765L14.8335 10.4545C14.3665 10.9233 13.7597 11.2276 13.1047 11.3215V13.1047H11.3215C11.2304 13.7371 10.9414 14.3484 10.4544 14.8336L9.55759 15.7322H13.1047V22.7387H6.0981V18.9412C5.68736 19.1353 5.23869 19.236 4.78437 19.236C4.33005 19.236 3.88138 19.1353 3.47064 18.9412V29.3074C3.47064 30.8172 4.07042 32.2652 5.13803 33.3328C6.20564 34.4004 7.65364 35.0002 9.16347 35.0002H29.3073C30.8171 35.0002 32.2651 34.4004 33.3327 33.3328C34.4004 32.2652 35.0001 30.8172 35.0001 29.3074V9.16353C35.0001 7.6537 34.4004 6.2057 33.3327 5.13809C32.2651 4.07048 30.8171 3.4707 29.3073 3.4707H18.9411ZM15.7321 22.7387V15.7322H22.7387V22.7387H15.7321ZM25.3661 22.7387V15.7322H32.3727V22.7387H25.3661ZM22.7387 25.3662V32.3727H15.7321V25.3662H22.7387ZM25.3661 32.3727V25.3662H32.3727V29.3074C32.3727 30.1204 32.0497 30.9 31.4748 31.4749C30.9 32.0498 30.1203 32.3727 29.3073 32.3727H25.3661ZM25.3661 13.1047V6.09816H29.3073C30.9994 6.09816 32.3727 7.47145 32.3727 9.16353V13.1047H25.3661ZM6.0981 25.3662H13.1047V32.3727H9.16347C8.35048 32.3727 7.57079 32.0498 6.99593 31.4749C6.42106 30.9 6.0981 30.1204 6.0981 29.3074V25.3662Z" fill="white"/>
</svg>
