<svg width="471" height="420" viewBox="0 0 471 420" fill="none" xmlns="http://www.w3.org/2000/svg">
<path fill-rule="evenodd" clip-rule="evenodd" d="M435.977 243.595C433.437 279.394 446.165 320.982 422.937 348.269C399.643 375.635 356.919 370.9 321.725 377.815C294.531 383.159 268.01 387.618 240.52 384.113C212.649 380.559 186.415 371.988 162.318 357.489C134.32 340.643 104.013 323.541 90.3746 293.774C75.9957 262.391 79.2836 226.059 86.6401 192.315C94.3882 156.775 105.244 119.117 133.437 96.2492C161.356 73.6036 200.108 69.3012 235.955 71.2062C267.864 72.9019 292.371 97.5754 323.111 106.329C361.588 117.285 413.044 97.9217 438.501 128.882C463.258 158.991 438.739 204.656 435.977 243.595Z" fill="#DBDBDB"/>
<path fill-rule="evenodd" clip-rule="evenodd" d="M208.836 49.806C234.657 36.9173 263.991 30.6741 292.727 33.3805C322.465 36.1814 353.969 44.443 375.233 65.4776C396.268 86.2868 395.974 119.76 407.576 146.995C418.266 172.086 437.373 193.44 441.248 220.437C445.274 248.483 445.902 280.151 430.056 303.6C414.146 327.142 382.946 333.784 356.945 345.184C336.086 354.328 314.501 359.57 292.172 364.05C270.886 368.321 249.907 372.332 228.233 371.009C204.742 369.575 178.992 370.113 160.133 355.99C141.277 341.869 143.077 311.523 126.473 294.803C101.208 269.361 39.8878 270.122 39.2469 234.257C38.5991 198.004 100.635 196.326 124.223 168.851C139.604 150.934 137.262 123.404 150.945 104.154C166.479 82.2973 184.863 61.7726 208.836 49.806Z" fill="#0033EA" fill-opacity="0.05"/>
<path d="M470.475 342.067H0V342.302H470.475V342.067Z" fill="#EBEBEB"/>
<path d="M423.332 357.207H392.168V357.442H423.332V357.207Z" fill="#EBEBEB"/>
<path d="M311.661 359.766H303.484V360.001H311.661V359.766Z" fill="#EBEBEB"/>
<path d="M391.227 348.475H373.17V348.71H391.227V348.475Z" fill="#EBEBEB"/>
<path d="M90.0029 350.055H49.3633V350.291H90.0029V350.055Z" fill="#EBEBEB"/>
<path d="M104.341 350.055H98.3848V350.291H104.341V350.055Z" fill="#EBEBEB"/>
<path d="M211.855 354.026H123.707V354.261H211.855V354.026Z" fill="#EBEBEB"/>
<path d="M163.725 119.626V49.0552H55.5156V333.222H69.6299V68.881L120.61 63.1694L120.836 63.4141L121.072 63.1224L146.402 60.2995L146.684 60.61L146.985 60.2336L160.902 58.6435V119.626H145.847V127.154H177.839V119.626H163.725ZM90.8577 53.9763L99.3262 62.7084L81.8622 64.6655L90.8577 53.9763ZM79.4346 63.1694L71.1918 51.878H88.9381L79.4346 63.1694ZM92.749 51.878H110.091L101.735 61.0899L92.749 51.878ZM160.902 53.0636V55.8018L158.7 56.0464L160.902 53.0636ZM156.254 54.6162L153.722 51.878H158.267L156.254 54.6162ZM150.006 51.878L146.534 56.2346L142.553 51.878H150.006ZM138.837 51.878L134.649 57.1379L130.058 51.878H138.837ZM126.379 51.878L120.658 59.0857L113.911 51.878H126.379ZM69.6299 54.5221L77.4303 65.1642L69.6299 66.0393V54.5221ZM104.596 62.1155L111.973 53.9575L118.183 60.5912L104.596 62.1155ZM128.232 54.0798L132.523 58.9822L123.546 59.989L128.232 54.0798ZM137.209 58.4647L140.719 54.061L144.05 57.7025L137.209 58.4647ZM151.888 54.0516L154.202 56.5828L149.498 57.1097L151.888 54.0516Z" fill="#E0E0E0"/>
<path d="M131.734 133.741H111.974V124.331H109.151V133.741H90.3322V115.863H86.5684V312.521H135.498V121.508H131.734V133.741ZM109.151 148.796H90.3322V138.445H109.151V148.796ZM131.734 148.796H111.974V138.445H131.734V148.796Z" fill="#C8C8C8"/>
<path d="M426.221 341.69V293.551H422.109V270.611H416.087V190.856H407.383V180.562L388.819 171.896V161.527H386.24V190.856H382.636V270.611H379.042V228.673H369.266V207.059H366.537V270.611H359.113V246.429H354.22V240.247H342.9V219.15H336.699V204.227H329.078V182.491H326.358V204.227H318.737V219.15H312.536V240.247H301.216V246.429H296.333V270.611H290.536V240.247H279.217V174.907H275.613V167.699H251.431V174.907H246.284V222.246H225.696V226.876H217.98V230.479H225.696V248.997H204.091V187.252H199.452V174.126H189.422V127.558H186.59V174.126H179.391V187.252H137.152V182.933H134.583V212.263H130.98V212.78H128.815V242.11H125.212V250.079H117.599V228.475H114.871V279.926H111.841V258.313H109.112V292.018H107.446V267.835H102.563V261.663H91.2434V240.566H85.0425V225.643H77.4208V203.898H74.7015V225.643H67.0798V240.566H60.8789V261.663H49.5593V267.835H44.6758V291.509H43.7913V292.018H41.373V341.69H426.221Z" fill="#C8C8C8"/>
<path d="M163.64 190.141H160.723V193.058H163.64V190.141Z" fill="#F5F5F5"/>
<path d="M163.64 195.025H160.723V197.942H163.64V195.025Z" fill="#F5F5F5"/>
<path d="M163.64 214.578H160.723V217.495H163.64V214.578Z" fill="#F5F5F5"/>
<path d="M163.64 219.47H160.723V222.387H163.64V219.47Z" fill="#F5F5F5"/>
<path d="M163.64 224.354H160.723V227.271H163.64V224.354Z" fill="#F5F5F5"/>
<path d="M163.64 239.023H160.723V241.94H163.64V239.023Z" fill="#F5F5F5"/>
<path d="M163.64 243.907H160.723V246.824H163.64V243.907Z" fill="#F5F5F5"/>
<path d="M168.27 209.694H165.354V212.611H168.27V209.694Z" fill="#F5F5F5"/>
<path d="M168.27 214.578H165.354V217.495H168.27V214.578Z" fill="#F5F5F5"/>
<path d="M168.27 219.47H165.354V222.387H168.27V219.47Z" fill="#F5F5F5"/>
<path d="M168.27 224.354H165.354V227.271H168.27V224.354Z" fill="#F5F5F5"/>
<path d="M168.27 229.247H165.354V232.164H168.27V229.247Z" fill="#F5F5F5"/>
<path d="M168.27 239.023H165.354V241.94H168.27V239.023Z" fill="#F5F5F5"/>
<path d="M168.27 243.907H165.354V246.824H168.27V243.907Z" fill="#F5F5F5"/>
<path d="M172.899 190.141H169.982V193.058H172.899V190.141Z" fill="#F5F5F5"/>
<path d="M172.899 195.025H169.982V197.942H172.899V195.025Z" fill="#F5F5F5"/>
<path d="M172.899 199.918H169.982V202.835H172.899V199.918Z" fill="#F5F5F5"/>
<path d="M172.899 204.801H169.982V207.718H172.899V204.801Z" fill="#F5F5F5"/>
<path d="M172.899 209.694H169.982V212.611H172.899V209.694Z" fill="#F5F5F5"/>
<path d="M172.899 214.578H169.982V217.495H172.899V214.578Z" fill="#F5F5F5"/>
<path d="M172.899 219.47H169.982V222.387H172.899V219.47Z" fill="#F5F5F5"/>
<path d="M172.899 224.354H169.982V227.271H172.899V224.354Z" fill="#F5F5F5"/>
<path d="M172.899 229.247H169.982V232.164H172.899V229.247Z" fill="#F5F5F5"/>
<path d="M172.899 234.13H169.982V237.047H172.899V234.13Z" fill="#F5F5F5"/>
<path d="M172.899 243.907H169.982V246.824H172.899V243.907Z" fill="#F5F5F5"/>
<path d="M177.53 190.141H174.613V193.058H177.53V190.141Z" fill="#F5F5F5"/>
<path d="M177.53 195.025H174.613V197.942H177.53V195.025Z" fill="#F5F5F5"/>
<path d="M177.53 199.918H174.613V202.835H177.53V199.918Z" fill="#F5F5F5"/>
<path d="M177.53 204.801H174.613V207.718H177.53V204.801Z" fill="#F5F5F5"/>
<path d="M177.53 209.694H174.613V212.611H177.53V209.694Z" fill="#F5F5F5"/>
<path d="M177.53 214.578H174.613V217.495H177.53V214.578Z" fill="#F5F5F5"/>
<path d="M177.53 219.47H174.613V222.387H177.53V219.47Z" fill="#F5F5F5"/>
<path d="M177.53 263.46H174.613V266.377H177.53V263.46Z" fill="#F5F5F5"/>
<path d="M182.159 190.141H179.242V193.058H182.159V190.141Z" fill="#F5F5F5"/>
<path d="M182.159 195.025H179.242V197.942H182.159V195.025Z" fill="#F5F5F5"/>
<path d="M182.159 199.918H179.242V202.835H182.159V199.918Z" fill="#F5F5F5"/>
<path d="M182.159 204.801H179.242V207.718H182.159V204.801Z" fill="#F5F5F5"/>
<path d="M182.159 209.694H179.242V212.611H182.159V209.694Z" fill="#F5F5F5"/>
<path d="M182.159 214.578H179.242V217.495H182.159V214.578Z" fill="#F5F5F5"/>
<path d="M182.159 219.47H179.242V222.387H182.159V219.47Z" fill="#F5F5F5"/>
<path d="M182.159 224.354H179.242V227.271H182.159V224.354Z" fill="#F5F5F5"/>
<path d="M182.159 253.683H179.242V256.6H182.159V253.683Z" fill="#F5F5F5"/>
<path d="M182.159 258.576H179.242V261.493H182.159V258.576Z" fill="#F5F5F5"/>
<path d="M182.159 263.46H179.242V266.377H182.159V263.46Z" fill="#F5F5F5"/>
<path d="M182.159 268.353H179.242V271.27H182.159V268.353Z" fill="#F5F5F5"/>
<path d="M182.159 287.906H179.242V290.823H182.159V287.906Z" fill="#F5F5F5"/>
<path d="M186.798 190.141H183.881V193.058H186.798V190.141Z" fill="#F5F5F5"/>
<path d="M186.798 195.025H183.881V197.942H186.798V195.025Z" fill="#F5F5F5"/>
<path d="M186.798 199.918H183.881V202.835H186.798V199.918Z" fill="#F5F5F5"/>
<path d="M186.798 204.801H183.881V207.718H186.798V204.801Z" fill="#F5F5F5"/>
<path d="M186.798 209.694H183.881V212.611H186.798V209.694Z" fill="#F5F5F5"/>
<path d="M186.798 214.578H183.881V217.495H186.798V214.578Z" fill="#F5F5F5"/>
<path d="M186.798 219.47H183.881V222.387H186.798V219.47Z" fill="#F5F5F5"/>
<path d="M186.798 224.354H183.881V227.271H186.798V224.354Z" fill="#F5F5F5"/>
<path d="M186.798 229.247H183.881V232.164H186.798V229.247Z" fill="#F5F5F5"/>
<path d="M186.798 234.13H183.881V237.047H186.798V234.13Z" fill="#F5F5F5"/>
<path d="M186.798 248.8H183.881V251.717H186.798V248.8Z" fill="#F5F5F5"/>
<path d="M186.798 253.683H183.881V256.6H186.798V253.683Z" fill="#F5F5F5"/>
<path d="M186.798 258.576H183.881V261.493H186.798V258.576Z" fill="#F5F5F5"/>
<path d="M186.798 263.46H183.881V266.377H186.798V263.46Z" fill="#F5F5F5"/>
<path d="M186.798 268.353H183.881V271.27H186.798V268.353Z" fill="#F5F5F5"/>
<path d="M186.798 287.906H183.881V290.823H186.798V287.906Z" fill="#F5F5F5"/>
<path d="M191.427 190.141H188.51V193.058H191.427V190.141Z" fill="#F5F5F5"/>
<path d="M191.427 195.025H188.51V197.942H191.427V195.025Z" fill="#F5F5F5"/>
<path d="M191.427 199.918H188.51V202.835H191.427V199.918Z" fill="#F5F5F5"/>
<path d="M191.427 204.801H188.51V207.718H191.427V204.801Z" fill="#F5F5F5"/>
<path d="M191.427 209.694H188.51V212.611H191.427V209.694Z" fill="#F5F5F5"/>
<path d="M191.427 214.578H188.51V217.495H191.427V214.578Z" fill="#F5F5F5"/>
<path d="M191.427 219.47H188.51V222.387H191.427V219.47Z" fill="#F5F5F5"/>
<path d="M191.427 224.354H188.51V227.271H191.427V224.354Z" fill="#F5F5F5"/>
<path d="M191.427 229.247H188.51V232.164H191.427V229.247Z" fill="#F5F5F5"/>
<path d="M191.427 234.13H188.51V237.047H191.427V234.13Z" fill="#F5F5F5"/>
<path d="M191.427 239.023H188.51V241.94H191.427V239.023Z" fill="#F5F5F5"/>
<path d="M191.427 243.907H188.51V246.824H191.427V243.907Z" fill="#F5F5F5"/>
<path d="M191.427 248.8H188.51V251.717H191.427V248.8Z" fill="#F5F5F5"/>
<path d="M191.427 253.683H188.51V256.6H191.427V253.683Z" fill="#F5F5F5"/>
<path d="M191.427 258.576H188.51V261.493H191.427V258.576Z" fill="#F5F5F5"/>
<path d="M191.427 263.46H188.51V266.377H191.427V263.46Z" fill="#F5F5F5"/>
<path d="M191.427 268.353H188.51V271.27H191.427V268.353Z" fill="#F5F5F5"/>
<path d="M191.427 273.236H188.51V276.153H191.427V273.236Z" fill="#F5F5F5"/>
<path d="M196.056 190.141H193.139V193.058H196.056V190.141Z" fill="#F5F5F5"/>
<path d="M196.056 195.025H193.139V197.942H196.056V195.025Z" fill="#F5F5F5"/>
<path d="M196.056 199.918H193.139V202.835H196.056V199.918Z" fill="#F5F5F5"/>
<path d="M196.056 204.801H193.139V207.718H196.056V204.801Z" fill="#F5F5F5"/>
<path d="M196.056 209.694H193.139V212.611H196.056V209.694Z" fill="#F5F5F5"/>
<path d="M196.056 214.578H193.139V217.495H196.056V214.578Z" fill="#F5F5F5"/>
<path d="M196.056 219.47H193.139V222.387H196.056V219.47Z" fill="#F5F5F5"/>
<path d="M196.056 224.354H193.139V227.271H196.056V224.354Z" fill="#F5F5F5"/>
<path d="M196.056 229.247H193.139V232.164H196.056V229.247Z" fill="#F5F5F5"/>
<path d="M196.056 234.13H193.139V237.047H196.056V234.13Z" fill="#F5F5F5"/>
<path d="M196.056 248.8H193.139V251.717H196.056V248.8Z" fill="#F5F5F5"/>
<path d="M196.056 253.683H193.139V256.6H196.056V253.683Z" fill="#F5F5F5"/>
<path d="M196.056 258.576H193.139V261.493H196.056V258.576Z" fill="#F5F5F5"/>
<path d="M196.056 263.46H193.139V266.377H196.056V263.46Z" fill="#F5F5F5"/>
<path d="M200.685 190.141H197.768V193.058H200.685V190.141Z" fill="#F5F5F5"/>
<path d="M200.685 195.025H197.768V197.942H200.685V195.025Z" fill="#F5F5F5"/>
<path d="M200.685 199.918H197.768V202.835H200.685V199.918Z" fill="#F5F5F5"/>
<path d="M200.685 204.801H197.768V207.718H200.685V204.801Z" fill="#F5F5F5"/>
<path d="M200.685 209.694H197.768V212.611H200.685V209.694Z" fill="#F5F5F5"/>
<path d="M200.685 214.578H197.768V217.495H200.685V214.578Z" fill="#F5F5F5"/>
<path d="M200.685 219.47H197.768V222.387H200.685V219.47Z" fill="#F5F5F5"/>
<path d="M200.685 224.354H197.768V227.271H200.685V224.354Z" fill="#F5F5F5"/>
<path d="M200.685 229.247H197.768V232.164H200.685V229.247Z" fill="#F5F5F5"/>
<path d="M200.685 234.13H197.768V237.047H200.685V234.13Z" fill="#F5F5F5"/>
<path d="M200.685 248.8H197.768V251.717H200.685V248.8Z" fill="#F5F5F5"/>
<path d="M200.685 253.683H197.768V256.6H200.685V253.683Z" fill="#F5F5F5"/>
<path d="M200.685 258.576H197.768V261.493H200.685V258.576Z" fill="#F5F5F5"/>
<path d="M252.823 177.448H249.906V180.365H252.823V177.448Z" fill="#F5F5F5"/>
<path d="M252.823 182.331H249.906V185.248H252.823V182.331Z" fill="#F5F5F5"/>
<path d="M252.823 187.224H249.906V190.141H252.823V187.224Z" fill="#F5F5F5"/>
<path d="M252.823 192.108H249.906V195.025H252.823V192.108Z" fill="#F5F5F5"/>
<path d="M252.823 197.001H249.906V199.918H252.823V197.001Z" fill="#F5F5F5"/>
<path d="M252.823 201.884H249.906V204.801H252.823V201.884Z" fill="#F5F5F5"/>
<path d="M252.823 206.777H249.906V209.694H252.823V206.777Z" fill="#F5F5F5"/>
<path d="M252.823 211.661H249.906V214.578H252.823V211.661Z" fill="#F5F5F5"/>
<path d="M252.823 226.33H249.906V229.247H252.823V226.33Z" fill="#F5F5F5"/>
<path d="M252.823 231.214H249.906V234.13H252.823V231.214Z" fill="#F5F5F5"/>
<path d="M257.462 177.448H254.545V180.365H257.462V177.448Z" fill="#F5F5F5"/>
<path d="M257.462 182.331H254.545V185.248H257.462V182.331Z" fill="#F5F5F5"/>
<path d="M257.462 187.224H254.545V190.141H257.462V187.224Z" fill="#F5F5F5"/>
<path d="M257.462 192.108H254.545V195.025H257.462V192.108Z" fill="#F5F5F5"/>
<path d="M257.462 197.001H254.545V199.918H257.462V197.001Z" fill="#F5F5F5"/>
<path d="M257.462 201.884H254.545V204.801H257.462V201.884Z" fill="#F5F5F5"/>
<path d="M257.462 206.777H254.545V209.694H257.462V206.777Z" fill="#F5F5F5"/>
<path d="M257.462 211.661H254.545V214.578H257.462V211.661Z" fill="#F5F5F5"/>
<path d="M257.462 231.214H254.545V234.13H257.462V231.214Z" fill="#F5F5F5"/>
<path d="M262.093 177.448H259.176V180.365H262.093V177.448Z" fill="#F5F5F5"/>
<path d="M262.093 182.331H259.176V185.248H262.093V182.331Z" fill="#F5F5F5"/>
<path d="M262.093 187.224H259.176V190.141H262.093V187.224Z" fill="#F5F5F5"/>
<path d="M262.093 192.108H259.176V195.025H262.093V192.108Z" fill="#F5F5F5"/>
<path d="M262.093 197.001H259.176V199.918H262.093V197.001Z" fill="#F5F5F5"/>
<path d="M262.093 201.884H259.176V204.801H262.093V201.884Z" fill="#F5F5F5"/>
<path d="M262.093 206.777H259.176V209.694H262.093V206.777Z" fill="#F5F5F5"/>
<path d="M262.093 211.661H259.176V214.578H262.093V211.661Z" fill="#F5F5F5"/>
<path d="M266.722 177.448H263.805V180.365H266.722V177.448Z" fill="#F5F5F5"/>
<path d="M266.722 182.331H263.805V185.248H266.722V182.331Z" fill="#F5F5F5"/>
<path d="M266.722 187.224H263.805V190.141H266.722V187.224Z" fill="#F5F5F5"/>
<path d="M266.722 192.108H263.805V195.025H266.722V192.108Z" fill="#F5F5F5"/>
<path d="M266.722 197.001H263.805V199.918H266.722V197.001Z" fill="#F5F5F5"/>
<path d="M266.722 201.884H263.805V204.801H266.722V201.884Z" fill="#F5F5F5"/>
<path d="M266.722 211.661H263.805V214.578H266.722V211.661Z" fill="#F5F5F5"/>
<path d="M266.722 216.553H263.805V219.47H266.722V216.553Z" fill="#F5F5F5"/>
<path d="M266.722 231.214H263.805V234.13H266.722V231.214Z" fill="#F5F5F5"/>
<path d="M266.722 236.106H263.805V239.023H266.722V236.106Z" fill="#F5F5F5"/>
<path d="M266.722 240.99H263.805V243.907H266.722V240.99Z" fill="#F5F5F5"/>
<path d="M266.722 245.883H263.805V248.8H266.722V245.883Z" fill="#F5F5F5"/>
<path d="M266.722 250.766H263.805V253.683H266.722V250.766Z" fill="#F5F5F5"/>
<path d="M266.722 255.659H263.805V258.576H266.722V255.659Z" fill="#F5F5F5"/>
<path d="M266.722 260.543H263.805V263.46H266.722V260.543Z" fill="#F5F5F5"/>
<path d="M271.352 177.448H268.436V180.365H271.352V177.448Z" fill="#F5F5F5"/>
<path d="M271.352 182.331H268.436V185.248H271.352V182.331Z" fill="#F5F5F5"/>
<path d="M271.352 187.224H268.436V190.141H271.352V187.224Z" fill="#F5F5F5"/>
<path d="M271.352 192.108H268.436V195.025H271.352V192.108Z" fill="#F5F5F5"/>
<path d="M271.352 197.001H268.436V199.918H271.352V197.001Z" fill="#F5F5F5"/>
<path d="M271.352 201.884H268.436V204.801H271.352V201.884Z" fill="#F5F5F5"/>
<path d="M271.352 216.553H268.436V219.47H271.352V216.553Z" fill="#F5F5F5"/>
<path d="M271.352 221.437H268.436V224.354H271.352V221.437Z" fill="#F5F5F5"/>
<path d="M271.352 226.33H268.436V229.247H271.352V226.33Z" fill="#F5F5F5"/>
<path d="M271.352 231.214H268.436V234.13H271.352V231.214Z" fill="#F5F5F5"/>
<path d="M271.352 236.106H268.436V239.023H271.352V236.106Z" fill="#F5F5F5"/>
<path d="M271.352 240.99H268.436V243.907H271.352V240.99Z" fill="#F5F5F5"/>
<path d="M271.352 245.883H268.436V248.8H271.352V245.883Z" fill="#F5F5F5"/>
<path d="M271.352 250.766H268.436V253.683H271.352V250.766Z" fill="#F5F5F5"/>
<path d="M271.352 255.659H268.436V258.576H271.352V255.659Z" fill="#F5F5F5"/>
<path d="M271.352 260.543H268.436V263.46H271.352V260.543Z" fill="#F5F5F5"/>
<path d="M271.352 265.436H268.436V268.353H271.352V265.436Z" fill="#F5F5F5"/>
<path d="M271.352 275.212H268.436V278.129H271.352V275.212Z" fill="#F5F5F5"/>
<path d="M275.981 177.448H273.064V180.365H275.981V177.448Z" fill="#F5F5F5"/>
<path d="M275.981 182.331H273.064V185.248H275.981V182.331Z" fill="#F5F5F5"/>
<path d="M275.981 187.224H273.064V190.141H275.981V187.224Z" fill="#F5F5F5"/>
<path d="M275.981 192.108H273.064V195.025H275.981V192.108Z" fill="#F5F5F5"/>
<path d="M275.981 197.001H273.064V199.918H275.981V197.001Z" fill="#F5F5F5"/>
<path d="M275.981 201.884H273.064V204.801H275.981V201.884Z" fill="#F5F5F5"/>
<path d="M275.981 216.553H273.064V219.47H275.981V216.553Z" fill="#F5F5F5"/>
<path d="M275.981 221.437H273.064V224.354H275.981V221.437Z" fill="#F5F5F5"/>
<path d="M275.981 226.33H273.064V229.247H275.981V226.33Z" fill="#F5F5F5"/>
<path d="M275.981 231.214H273.064V234.13H275.981V231.214Z" fill="#F5F5F5"/>
<path d="M275.981 245.883H273.064V248.8H275.981V245.883Z" fill="#F5F5F5"/>
<path d="M275.981 250.766H273.064V253.683H275.981V250.766Z" fill="#F5F5F5"/>
<path d="M275.981 255.659H273.064V258.576H275.981V255.659Z" fill="#F5F5F5"/>
<path d="M275.981 260.543H273.064V263.46H275.981V260.543Z" fill="#F5F5F5"/>
<path d="M275.981 265.436H273.064V268.353H275.981V265.436Z" fill="#F5F5F5"/>
<path d="M275.981 275.212H273.064V278.129H275.981V275.212Z" fill="#F5F5F5"/>
<path d="M275.981 280.096H273.064V283.013H275.981V280.096Z" fill="#F5F5F5"/>
<path d="M318.003 222.896H315.086V225.812H318.003V222.896Z" fill="#F5F5F5"/>
<path d="M318.003 227.788H315.086V230.705H318.003V227.788Z" fill="#F5F5F5"/>
<path d="M318.003 232.672H315.086V235.589H318.003V232.672Z" fill="#F5F5F5"/>
<path d="M318.003 237.565H315.086V240.482H318.003V237.565Z" fill="#F5F5F5"/>
<path d="M318.003 242.448H315.086V245.365H318.003V242.448Z" fill="#F5F5F5"/>
<path d="M318.003 247.341H315.086V250.258H318.003V247.341Z" fill="#F5F5F5"/>
<path d="M318.003 252.225H315.086V255.142H318.003V252.225Z" fill="#F5F5F5"/>
<path d="M318.003 266.894H315.086V269.811H318.003V266.894Z" fill="#F5F5F5"/>
<path d="M318.003 271.778H315.086V274.695H318.003V271.778Z" fill="#F5F5F5"/>
<path d="M318.003 276.671H315.086V279.588H318.003V276.671Z" fill="#F5F5F5"/>
<path d="M322.632 222.896H319.715V225.812H322.632V222.896Z" fill="#F5F5F5"/>
<path d="M322.632 227.788H319.715V230.705H322.632V227.788Z" fill="#F5F5F5"/>
<path d="M322.632 232.672H319.715V235.589H322.632V232.672Z" fill="#F5F5F5"/>
<path d="M322.632 237.565H319.715V240.482H322.632V237.565Z" fill="#F5F5F5"/>
<path d="M322.632 242.448H319.715V245.365H322.632V242.448Z" fill="#F5F5F5"/>
<path d="M322.632 247.341H319.715V250.258H322.632V247.341Z" fill="#F5F5F5"/>
<path d="M322.632 252.225H319.715V255.142H322.632V252.225Z" fill="#F5F5F5"/>
<path d="M327.272 222.896H324.355V225.812H327.272V222.896Z" fill="#F5F5F5"/>
<path d="M327.272 227.788H324.355V230.705H327.272V227.788Z" fill="#F5F5F5"/>
<path d="M327.272 232.672H324.355V235.589H327.272V232.672Z" fill="#F5F5F5"/>
<path d="M327.272 237.565H324.355V240.482H327.272V237.565Z" fill="#F5F5F5"/>
<path d="M327.272 242.448H324.355V245.365H327.272V242.448Z" fill="#F5F5F5"/>
<path d="M327.272 247.341H324.355V250.258H327.272V247.341Z" fill="#F5F5F5"/>
<path d="M327.272 252.225H324.355V255.142H327.272V252.225Z" fill="#F5F5F5"/>
<path d="M331.901 222.896H328.984V225.812H331.901V222.896Z" fill="#F5F5F5"/>
<path d="M331.901 227.788H328.984V230.705H331.901V227.788Z" fill="#F5F5F5"/>
<path d="M331.901 232.672H328.984V235.589H331.901V232.672Z" fill="#F5F5F5"/>
<path d="M331.901 237.565H328.984V240.482H331.901V237.565Z" fill="#F5F5F5"/>
<path d="M331.901 242.448H328.984V245.365H331.901V242.448Z" fill="#F5F5F5"/>
<path d="M331.901 247.341H328.984V250.258H331.901V247.341Z" fill="#F5F5F5"/>
<path d="M331.901 252.225H328.984V255.142H331.901V252.225Z" fill="#F5F5F5"/>
<path d="M331.901 257.118H328.984V260.035H331.901V257.118Z" fill="#F5F5F5"/>
<path d="M331.901 262.001H328.984V264.918H331.901V262.001Z" fill="#F5F5F5"/>
<path d="M331.901 266.894H328.984V269.811H331.901V266.894Z" fill="#F5F5F5"/>
<path d="M331.901 271.778H328.984V274.695H331.901V271.778Z" fill="#F5F5F5"/>
<path d="M336.532 222.896H333.615V225.812H336.532V222.896Z" fill="#F5F5F5"/>
<path d="M336.532 227.788H333.615V230.705H336.532V227.788Z" fill="#F5F5F5"/>
<path d="M336.532 232.672H333.615V235.589H336.532V232.672Z" fill="#F5F5F5"/>
<path d="M336.532 237.565H333.615V240.482H336.532V237.565Z" fill="#F5F5F5"/>
<path d="M336.532 242.448H333.615V245.365H336.532V242.448Z" fill="#F5F5F5"/>
<path d="M336.532 247.341H333.615V250.258H336.532V247.341Z" fill="#F5F5F5"/>
<path d="M336.532 252.225H333.615V255.142H336.532V252.225Z" fill="#F5F5F5"/>
<path d="M336.532 257.118H333.615V260.035H336.532V257.118Z" fill="#F5F5F5"/>
<path d="M336.532 262.001H333.615V264.918H336.532V262.001Z" fill="#F5F5F5"/>
<path d="M336.532 266.894H333.615V269.811H336.532V266.894Z" fill="#F5F5F5"/>
<path d="M336.532 271.778H333.615V274.695H336.532V271.778Z" fill="#F5F5F5"/>
<path d="M336.532 276.671H333.615V279.588H336.532V276.671Z" fill="#F5F5F5"/>
<path d="M336.532 291.331H333.615V294.248H336.532V291.331Z" fill="#F5F5F5"/>
<path d="M336.532 296.224H333.615V299.141H336.532V296.224Z" fill="#F5F5F5"/>
<path d="M341.161 222.896H338.244V225.812H341.161V222.896Z" fill="#F5F5F5"/>
<path d="M341.161 227.788H338.244V230.705H341.161V227.788Z" fill="#F5F5F5"/>
<path d="M341.161 232.672H338.244V235.589H341.161V232.672Z" fill="#F5F5F5"/>
<path d="M341.161 247.341H338.244V250.258H341.161V247.341Z" fill="#F5F5F5"/>
<path d="M341.161 252.225H338.244V255.142H341.161V252.225Z" fill="#F5F5F5"/>
<path d="M341.161 257.118H338.244V260.035H341.161V257.118Z" fill="#F5F5F5"/>
<path d="M341.161 262.001H338.244V264.918H341.161V262.001Z" fill="#F5F5F5"/>
<path d="M341.161 266.894H338.244V269.811H341.161V266.894Z" fill="#F5F5F5"/>
<path d="M341.161 271.778H338.244V274.695H341.161V271.778Z" fill="#F5F5F5"/>
<path d="M341.161 276.671H338.244V279.588H341.161V276.671Z" fill="#F5F5F5"/>
<path d="M341.161 291.331H338.244V294.248H341.161V291.331Z" fill="#F5F5F5"/>
<path d="M341.161 296.224H338.244V299.141H341.161V296.224Z" fill="#F5F5F5"/>
<path d="M341.161 301.107H338.244V304.024H341.161V301.107Z" fill="#F5F5F5"/>
<path d="M389.704 193.566H386.787V196.483H389.704V193.566Z" fill="#F5F5F5"/>
<path d="M389.704 198.459H386.787V201.376H389.704V198.459Z" fill="#F5F5F5"/>
<path d="M389.704 203.343H386.787V206.259H389.704V203.343Z" fill="#F5F5F5"/>
<path d="M389.704 208.236H386.787V211.153H389.704V208.236Z" fill="#F5F5F5"/>
<path d="M389.704 213.119H386.787V216.036H389.704V213.119Z" fill="#F5F5F5"/>
<path d="M389.704 218.012H386.787V220.929H389.704V218.012Z" fill="#F5F5F5"/>
<path d="M389.704 222.896H386.787V225.812H389.704V222.896Z" fill="#F5F5F5"/>
<path d="M389.704 227.788H386.787V230.705H389.704V227.788Z" fill="#F5F5F5"/>
<path d="M389.704 232.672H386.787V235.589H389.704V232.672Z" fill="#F5F5F5"/>
<path d="M389.704 237.565H386.787V240.482H389.704V237.565Z" fill="#F5F5F5"/>
<path d="M389.704 242.448H386.787V245.365H389.704V242.448Z" fill="#F5F5F5"/>
<path d="M389.704 247.341H386.787V250.258H389.704V247.341Z" fill="#F5F5F5"/>
<path d="M389.704 252.225H386.787V255.142H389.704V252.225Z" fill="#F5F5F5"/>
<path d="M389.704 257.118H386.787V260.035H389.704V257.118Z" fill="#F5F5F5"/>
<path d="M389.704 262.001H386.787V264.918H389.704V262.001Z" fill="#F5F5F5"/>
<path d="M389.704 266.894H386.787V269.811H389.704V266.894Z" fill="#F5F5F5"/>
<path d="M389.704 271.778H386.787V274.695H389.704V271.778Z" fill="#F5F5F5"/>
<path d="M389.704 276.671H386.787V279.588H389.704V276.671Z" fill="#F5F5F5"/>
<path d="M389.704 281.554H386.787V284.471H389.704V281.554Z" fill="#F5F5F5"/>
<path d="M389.704 286.447H386.787V289.364H389.704V286.447Z" fill="#F5F5F5"/>
<path d="M389.704 291.331H386.787V294.248H389.704V291.331Z" fill="#F5F5F5"/>
<path d="M389.704 296.224H386.787V299.141H389.704V296.224Z" fill="#F5F5F5"/>
<path d="M389.704 301.107H386.787V304.024H389.704V301.107Z" fill="#F5F5F5"/>
<path d="M394.333 193.566H391.416V196.483H394.333V193.566Z" fill="#F5F5F5"/>
<path d="M394.333 198.459H391.416V201.376H394.333V198.459Z" fill="#F5F5F5"/>
<path d="M394.333 203.343H391.416V206.259H394.333V203.343Z" fill="#F5F5F5"/>
<path d="M394.333 208.236H391.416V211.153H394.333V208.236Z" fill="#F5F5F5"/>
<path d="M394.333 213.119H391.416V216.036H394.333V213.119Z" fill="#F5F5F5"/>
<path d="M394.333 218.012H391.416V220.929H394.333V218.012Z" fill="#F5F5F5"/>
<path d="M394.333 222.896H391.416V225.812H394.333V222.896Z" fill="#F5F5F5"/>
<path d="M394.333 227.788H391.416V230.705H394.333V227.788Z" fill="#F5F5F5"/>
<path d="M394.333 232.672H391.416V235.589H394.333V232.672Z" fill="#F5F5F5"/>
<path d="M394.333 237.565H391.416V240.482H394.333V237.565Z" fill="#F5F5F5"/>
<path d="M394.333 242.448H391.416V245.365H394.333V242.448Z" fill="#F5F5F5"/>
<path d="M394.333 247.341H391.416V250.258H394.333V247.341Z" fill="#F5F5F5"/>
<path d="M394.333 252.225H391.416V255.142H394.333V252.225Z" fill="#F5F5F5"/>
<path d="M394.333 257.118H391.416V260.035H394.333V257.118Z" fill="#F5F5F5"/>
<path d="M394.333 262.001H391.416V264.918H394.333V262.001Z" fill="#F5F5F5"/>
<path d="M394.333 266.894H391.416V269.811H394.333V266.894Z" fill="#F5F5F5"/>
<path d="M394.333 271.778H391.416V274.695H394.333V271.778Z" fill="#F5F5F5"/>
<path d="M394.333 276.671H391.416V279.588H394.333V276.671Z" fill="#F5F5F5"/>
<path d="M394.333 281.554H391.416V284.471H394.333V281.554Z" fill="#F5F5F5"/>
<path d="M398.964 193.566H396.047V196.483H398.964V193.566Z" fill="#F5F5F5"/>
<path d="M398.964 198.459H396.047V201.376H398.964V198.459Z" fill="#F5F5F5"/>
<path d="M398.964 203.343H396.047V206.259H398.964V203.343Z" fill="#F5F5F5"/>
<path d="M398.964 208.236H396.047V211.153H398.964V208.236Z" fill="#F5F5F5"/>
<path d="M398.964 213.119H396.047V216.036H398.964V213.119Z" fill="#F5F5F5"/>
<path d="M398.964 218.012H396.047V220.929H398.964V218.012Z" fill="#F5F5F5"/>
<path d="M398.964 222.896H396.047V225.812H398.964V222.896Z" fill="#F5F5F5"/>
<path d="M398.964 227.788H396.047V230.705H398.964V227.788Z" fill="#F5F5F5"/>
<path d="M398.964 232.672H396.047V235.589H398.964V232.672Z" fill="#F5F5F5"/>
<path d="M398.964 237.565H396.047V240.482H398.964V237.565Z" fill="#F5F5F5"/>
<path d="M398.964 242.448H396.047V245.365H398.964V242.448Z" fill="#F5F5F5"/>
<path d="M398.964 247.341H396.047V250.258H398.964V247.341Z" fill="#F5F5F5"/>
<path d="M398.964 252.225H396.047V255.142H398.964V252.225Z" fill="#F5F5F5"/>
<path d="M398.964 257.118H396.047V260.035H398.964V257.118Z" fill="#F5F5F5"/>
<path d="M398.964 262.001H396.047V264.918H398.964V262.001Z" fill="#F5F5F5"/>
<path d="M398.964 266.894H396.047V269.811H398.964V266.894Z" fill="#F5F5F5"/>
<path d="M398.964 271.778H396.047V274.695H398.964V271.778Z" fill="#F5F5F5"/>
<path d="M398.964 276.671H396.047V279.588H398.964V276.671Z" fill="#F5F5F5"/>
<path d="M398.964 281.554H396.047V284.471H398.964V281.554Z" fill="#F5F5F5"/>
<path d="M403.593 193.566H400.676V196.483H403.593V193.566Z" fill="#F5F5F5"/>
<path d="M403.593 198.459H400.676V201.376H403.593V198.459Z" fill="#F5F5F5"/>
<path d="M403.593 203.343H400.676V206.259H403.593V203.343Z" fill="#F5F5F5"/>
<path d="M403.593 208.236H400.676V211.153H403.593V208.236Z" fill="#F5F5F5"/>
<path d="M403.593 213.119H400.676V216.036H403.593V213.119Z" fill="#F5F5F5"/>
<path d="M403.593 218.012H400.676V220.929H403.593V218.012Z" fill="#F5F5F5"/>
<path d="M403.593 222.896H400.676V225.812H403.593V222.896Z" fill="#F5F5F5"/>
<path d="M403.593 227.788H400.676V230.705H403.593V227.788Z" fill="#F5F5F5"/>
<path d="M403.593 232.672H400.676V235.589H403.593V232.672Z" fill="#F5F5F5"/>
<path d="M403.593 237.565H400.676V240.482H403.593V237.565Z" fill="#F5F5F5"/>
<path d="M403.593 242.448H400.676V245.365H403.593V242.448Z" fill="#F5F5F5"/>
<path d="M403.593 247.341H400.676V250.258H403.593V247.341Z" fill="#F5F5F5"/>
<path d="M403.593 252.225H400.676V255.142H403.593V252.225Z" fill="#F5F5F5"/>
<path d="M403.593 257.118H400.676V260.035H403.593V257.118Z" fill="#F5F5F5"/>
<path d="M403.593 262.001H400.676V264.918H403.593V262.001Z" fill="#F5F5F5"/>
<path d="M408.222 193.566H405.305V196.483H408.222V193.566Z" fill="#F5F5F5"/>
<path d="M408.222 198.459H405.305V201.376H408.222V198.459Z" fill="#F5F5F5"/>
<path d="M408.222 203.343H405.305V206.259H408.222V203.343Z" fill="#F5F5F5"/>
<path d="M408.222 208.236H405.305V211.153H408.222V208.236Z" fill="#F5F5F5"/>
<path d="M408.222 213.119H405.305V216.036H408.222V213.119Z" fill="#F5F5F5"/>
<path d="M408.222 218.012H405.305V220.929H408.222V218.012Z" fill="#F5F5F5"/>
<path d="M408.222 222.896H405.305V225.812H408.222V222.896Z" fill="#F5F5F5"/>
<path d="M408.222 227.788H405.305V230.705H408.222V227.788Z" fill="#F5F5F5"/>
<path d="M408.222 232.672H405.305V235.589H408.222V232.672Z" fill="#F5F5F5"/>
<path d="M408.222 237.565H405.305V240.482H408.222V237.565Z" fill="#F5F5F5"/>
<path d="M408.222 242.448H405.305V245.365H408.222V242.448Z" fill="#F5F5F5"/>
<path d="M408.222 247.341H405.305V250.258H408.222V247.341Z" fill="#F5F5F5"/>
<path d="M408.222 252.225H405.305V255.142H408.222V252.225Z" fill="#F5F5F5"/>
<path d="M412.86 193.566H409.943V196.483H412.86V193.566Z" fill="#F5F5F5"/>
<path d="M412.86 198.459H409.943V201.376H412.86V198.459Z" fill="#F5F5F5"/>
<path d="M412.86 203.343H409.943V206.259H412.86V203.343Z" fill="#F5F5F5"/>
<path d="M412.86 208.236H409.943V211.153H412.86V208.236Z" fill="#F5F5F5"/>
<path d="M412.86 213.119H409.943V216.036H412.86V213.119Z" fill="#F5F5F5"/>
<path d="M412.86 218.012H409.943V220.929H412.86V218.012Z" fill="#F5F5F5"/>
<path d="M412.86 222.896H409.943V225.812H412.86V222.896Z" fill="#F5F5F5"/>
<path d="M412.86 227.788H409.943V230.705H412.86V227.788Z" fill="#F5F5F5"/>
<path d="M412.86 232.672H409.943V235.589H412.86V232.672Z" fill="#F5F5F5"/>
<path d="M412.86 237.565H409.943V240.482H412.86V237.565Z" fill="#F5F5F5"/>
<path d="M412.86 242.448H409.943V245.365H412.86V242.448Z" fill="#F5F5F5"/>
<path d="M412.86 247.341H409.943V250.258H412.86V247.341Z" fill="#F5F5F5"/>
<path d="M72.5556 229.247H69.6387V232.164H72.5556V229.247Z" fill="#F5F5F5"/>
<path d="M72.5556 234.13H69.6387V237.047H72.5556V234.13Z" fill="#F5F5F5"/>
<path d="M72.5556 239.023H69.6387V241.94H72.5556V239.023Z" fill="#F5F5F5"/>
<path d="M72.5556 243.907H69.6387V246.824H72.5556V243.907Z" fill="#F5F5F5"/>
<path d="M72.5556 248.8H69.6387V251.717H72.5556V248.8Z" fill="#F5F5F5"/>
<path d="M72.5556 253.683H69.6387V256.6H72.5556V253.683Z" fill="#F5F5F5"/>
<path d="M72.5556 258.576H69.6387V261.493H72.5556V258.576Z" fill="#F5F5F5"/>
<path d="M72.5556 263.46H69.6387V266.377H72.5556V263.46Z" fill="#F5F5F5"/>
<path d="M72.5556 268.353H69.6387V271.27H72.5556V268.353Z" fill="#F5F5F5"/>
<path d="M72.5556 273.236H69.6387V276.153H72.5556V273.236Z" fill="#F5F5F5"/>
<path d="M72.5556 278.129H69.6387V281.046H72.5556V278.129Z" fill="#F5F5F5"/>
<path d="M72.5556 283.013H69.6387V285.93H72.5556V283.013Z" fill="#F5F5F5"/>
<path d="M72.5556 287.906H69.6387V290.823H72.5556V287.906Z" fill="#F5F5F5"/>
<path d="M72.5556 292.789H69.6387V295.706H72.5556V292.789Z" fill="#F5F5F5"/>
<path d="M72.5556 297.682H69.6387V300.599H72.5556V297.682Z" fill="#F5F5F5"/>
<path d="M72.5556 302.566H69.6387V305.483H72.5556V302.566Z" fill="#F5F5F5"/>
<path d="M72.5556 307.459H69.6387V310.376H72.5556V307.459Z" fill="#F5F5F5"/>
<path d="M72.5556 312.342H69.6387V315.259H72.5556V312.342Z" fill="#F5F5F5"/>
<path d="M72.5556 317.235H69.6387V320.152H72.5556V317.235Z" fill="#F5F5F5"/>
<path d="M72.5556 322.119H69.6387V325.036H72.5556V322.119Z" fill="#F5F5F5"/>
<path d="M77.1845 229.247H74.2676V232.164H77.1845V229.247Z" fill="#F5F5F5"/>
<path d="M77.1845 234.13H74.2676V237.047H77.1845V234.13Z" fill="#F5F5F5"/>
<path d="M77.1845 239.023H74.2676V241.94H77.1845V239.023Z" fill="#F5F5F5"/>
<path d="M77.1845 243.907H74.2676V246.824H77.1845V243.907Z" fill="#F5F5F5"/>
<path d="M77.1845 248.8H74.2676V251.717H77.1845V248.8Z" fill="#F5F5F5"/>
<path d="M77.1845 253.683H74.2676V256.6H77.1845V253.683Z" fill="#F5F5F5"/>
<path d="M77.1845 258.576H74.2676V261.493H77.1845V258.576Z" fill="#F5F5F5"/>
<path d="M77.1845 263.46H74.2676V266.377H77.1845V263.46Z" fill="#F5F5F5"/>
<path d="M77.1845 268.353H74.2676V271.27H77.1845V268.353Z" fill="#F5F5F5"/>
<path d="M77.1845 273.236H74.2676V276.153H77.1845V273.236Z" fill="#F5F5F5"/>
<path d="M77.1845 278.129H74.2676V281.046H77.1845V278.129Z" fill="#F5F5F5"/>
<path d="M77.1845 283.013H74.2676V285.93H77.1845V283.013Z" fill="#F5F5F5"/>
<path d="M77.1845 287.906H74.2676V290.823H77.1845V287.906Z" fill="#F5F5F5"/>
<path d="M77.1845 292.789H74.2676V295.706H77.1845V292.789Z" fill="#F5F5F5"/>
<path d="M77.1845 297.682H74.2676V300.599H77.1845V297.682Z" fill="#F5F5F5"/>
<path d="M77.1845 302.566H74.2676V305.483H77.1845V302.566Z" fill="#F5F5F5"/>
<path d="M77.1845 307.459H74.2676V310.376H77.1845V307.459Z" fill="#F5F5F5"/>
<path d="M77.1845 312.342H74.2676V315.259H77.1845V312.342Z" fill="#F5F5F5"/>
<path d="M81.8251 229.247H78.9082V232.164H81.8251V229.247Z" fill="#F5F5F5"/>
<path d="M81.8251 234.13H78.9082V237.047H81.8251V234.13Z" fill="#F5F5F5"/>
<path d="M81.8251 239.023H78.9082V241.94H81.8251V239.023Z" fill="#F5F5F5"/>
<path d="M81.8251 243.907H78.9082V246.824H81.8251V243.907Z" fill="#F5F5F5"/>
<path d="M81.8251 248.8H78.9082V251.717H81.8251V248.8Z" fill="#F5F5F5"/>
<path d="M81.8251 253.683H78.9082V256.6H81.8251V253.683Z" fill="#F5F5F5"/>
<path d="M81.8251 258.576H78.9082V261.493H81.8251V258.576Z" fill="#F5F5F5"/>
<path d="M81.8251 263.46H78.9082V266.377H81.8251V263.46Z" fill="#F5F5F5"/>
<path d="M81.8251 268.353H78.9082V271.27H81.8251V268.353Z" fill="#F5F5F5"/>
<path d="M81.8251 273.236H78.9082V276.153H81.8251V273.236Z" fill="#F5F5F5"/>
<path d="M81.8251 278.129H78.9082V281.046H81.8251V278.129Z" fill="#F5F5F5"/>
<path d="M81.8251 283.013H78.9082V285.93H81.8251V283.013Z" fill="#F5F5F5"/>
<path d="M81.8251 287.906H78.9082V290.823H81.8251V287.906Z" fill="#F5F5F5"/>
<path d="M81.8251 292.789H78.9082V295.706H81.8251V292.789Z" fill="#F5F5F5"/>
<path d="M81.8251 297.682H78.9082V300.599H81.8251V297.682Z" fill="#F5F5F5"/>
<path d="M81.8251 302.566H78.9082V305.483H81.8251V302.566Z" fill="#F5F5F5"/>
<path d="M81.8251 307.459H78.9082V310.376H81.8251V307.459Z" fill="#F5F5F5"/>
<path d="M81.8251 312.342H78.9082V315.259H81.8251V312.342Z" fill="#F5F5F5"/>
<path d="M55.2334 264.918H52.3164V267.835H55.2334V264.918Z" fill="#F5F5F5"/>
<path d="M55.2334 269.811H52.3164V272.728H55.2334V269.811Z" fill="#F5F5F5"/>
<path d="M55.2334 274.695H52.3164V277.612H55.2334V274.695Z" fill="#F5F5F5"/>
<path d="M55.2334 279.588H52.3164V282.505H55.2334V279.588Z" fill="#F5F5F5"/>
<path d="M55.2334 284.471H52.3164V287.388H55.2334V284.471Z" fill="#F5F5F5"/>
<path d="M55.2334 289.364H52.3164V292.281H55.2334V289.364Z" fill="#F5F5F5"/>
<path d="M55.2334 294.248H52.3164V297.165H55.2334V294.248Z" fill="#F5F5F5"/>
<path d="M55.2334 299.141H52.3164V302.058H55.2334V299.141Z" fill="#F5F5F5"/>
<path d="M55.2334 304.024H52.3164V306.941H55.2334V304.024Z" fill="#F5F5F5"/>
<path d="M55.2334 308.917H52.3164V311.834H55.2334V308.917Z" fill="#F5F5F5"/>
<path d="M55.2334 313.801H52.3164V316.718H55.2334V313.801Z" fill="#F5F5F5"/>
<path d="M55.2334 318.694H52.3164V321.611H55.2334V318.694Z" fill="#F5F5F5"/>
<path d="M55.2334 323.577H52.3164V326.494H55.2334V323.577Z" fill="#F5F5F5"/>
<path d="M59.8623 264.918H56.9453V267.835H59.8623V264.918Z" fill="#F5F5F5"/>
<path d="M59.8623 269.811H56.9453V272.728H59.8623V269.811Z" fill="#F5F5F5"/>
<path d="M59.8623 274.695H56.9453V277.612H59.8623V274.695Z" fill="#F5F5F5"/>
<path d="M59.8623 279.588H56.9453V282.505H59.8623V279.588Z" fill="#F5F5F5"/>
<path d="M59.8623 284.471H56.9453V287.388H59.8623V284.471Z" fill="#F5F5F5"/>
<path d="M59.8623 289.364H56.9453V292.281H59.8623V289.364Z" fill="#F5F5F5"/>
<path d="M59.8623 294.248H56.9453V297.165H59.8623V294.248Z" fill="#F5F5F5"/>
<path d="M59.8623 299.141H56.9453V302.058H59.8623V299.141Z" fill="#F5F5F5"/>
<path d="M59.8623 304.024H56.9453V306.941H59.8623V304.024Z" fill="#F5F5F5"/>
<path d="M59.8623 308.917H56.9453V311.834H59.8623V308.917Z" fill="#F5F5F5"/>
<path d="M59.8623 313.801H56.9453V316.718H59.8623V313.801Z" fill="#F5F5F5"/>
<path d="M59.8623 318.694H56.9453V321.611H59.8623V318.694Z" fill="#F5F5F5"/>
<path d="M59.8623 323.577H56.9453V326.494H59.8623V323.577Z" fill="#F5F5F5"/>
<path d="M64.5009 264.918H61.584V267.835H64.5009V264.918Z" fill="#F5F5F5"/>
<path d="M64.5009 269.811H61.584V272.728H64.5009V269.811Z" fill="#F5F5F5"/>
<path d="M64.5009 274.695H61.584V277.612H64.5009V274.695Z" fill="#F5F5F5"/>
<path d="M64.5009 279.588H61.584V282.505H64.5009V279.588Z" fill="#F5F5F5"/>
<path d="M64.5009 284.471H61.584V287.388H64.5009V284.471Z" fill="#F5F5F5"/>
<path d="M64.5009 289.364H61.584V292.281H64.5009V289.364Z" fill="#F5F5F5"/>
<path d="M64.5009 294.248H61.584V297.165H64.5009V294.248Z" fill="#F5F5F5"/>
<path d="M64.5009 299.141H61.584V302.058H64.5009V299.141Z" fill="#F5F5F5"/>
<path d="M64.5009 304.024H61.584V306.941H64.5009V304.024Z" fill="#F5F5F5"/>
<path d="M64.5009 308.917H61.584V311.834H64.5009V308.917Z" fill="#F5F5F5"/>
<path d="M64.5009 313.801H61.584V316.718H64.5009V313.801Z" fill="#F5F5F5"/>
<path d="M64.5009 318.694H61.584V321.611H64.5009V318.694Z" fill="#F5F5F5"/>
<path d="M64.5009 323.577H61.584V326.494H64.5009V323.577Z" fill="#F5F5F5"/>
<path d="M64.5009 328.47H61.584V331.387H64.5009V328.47Z" fill="#F5F5F5"/>
<path d="M90.2275 266.377H87.3105V269.294H90.2275V266.377Z" fill="#F5F5F5"/>
<path d="M90.2275 271.27H87.3105V274.187H90.2275V271.27Z" fill="#F5F5F5"/>
<path d="M90.2275 276.153H87.3105V279.07H90.2275V276.153Z" fill="#F5F5F5"/>
<path d="M90.2275 281.046H87.3105V283.963H90.2275V281.046Z" fill="#F5F5F5"/>
<path d="M90.2275 285.93H87.3105V288.847H90.2275V285.93Z" fill="#F5F5F5"/>
<path d="M90.2275 290.823H87.3105V293.74H90.2275V290.823Z" fill="#F5F5F5"/>
<path d="M90.2275 295.706H87.3105V298.623H90.2275V295.706Z" fill="#F5F5F5"/>
<path d="M90.2275 300.599H87.3105V303.516H90.2275V300.599Z" fill="#F5F5F5"/>
<path d="M90.2275 305.483H87.3105V308.4H90.2275V305.483Z" fill="#F5F5F5"/>
<path d="M90.2275 310.376H87.3105V313.293H90.2275V310.376Z" fill="#F5F5F5"/>
<path d="M90.2275 325.036H87.3105V327.953H90.2275V325.036Z" fill="#F5F5F5"/>
<path d="M94.8564 266.377H91.9395V269.294H94.8564V266.377Z" fill="#F5F5F5"/>
<path d="M94.8564 271.27H91.9395V274.187H94.8564V271.27Z" fill="#F5F5F5"/>
<path d="M94.8564 276.153H91.9395V279.07H94.8564V276.153Z" fill="#F5F5F5"/>
<path d="M94.8564 281.046H91.9395V283.963H94.8564V281.046Z" fill="#F5F5F5"/>
<path d="M94.8564 285.93H91.9395V288.847H94.8564V285.93Z" fill="#F5F5F5"/>
<path d="M94.8564 290.823H91.9395V293.74H94.8564V290.823Z" fill="#F5F5F5"/>
<path d="M94.8564 295.706H91.9395V298.623H94.8564V295.706Z" fill="#F5F5F5"/>
<path d="M94.8564 300.599H91.9395V303.516H94.8564V300.599Z" fill="#F5F5F5"/>
<path d="M94.8564 305.483H91.9395V308.4H94.8564V305.483Z" fill="#F5F5F5"/>
<path d="M94.8564 320.152H91.9395V323.069H94.8564V320.152Z" fill="#F5F5F5"/>
<path d="M94.8564 325.036H91.9395V327.953H94.8564V325.036Z" fill="#F5F5F5"/>
<path d="M99.4873 266.377H96.5703V269.294H99.4873V266.377Z" fill="#F5F5F5"/>
<path d="M99.4873 271.27H96.5703V274.187H99.4873V271.27Z" fill="#F5F5F5"/>
<path d="M99.4873 276.153H96.5703V279.07H99.4873V276.153Z" fill="#F5F5F5"/>
<path d="M99.4873 281.046H96.5703V283.963H99.4873V281.046Z" fill="#F5F5F5"/>
<path d="M99.4873 285.93H96.5703V288.847H99.4873V285.93Z" fill="#F5F5F5"/>
<path d="M99.4873 290.823H96.5703V293.74H99.4873V290.823Z" fill="#F5F5F5"/>
<path d="M99.4873 295.706H96.5703V298.623H99.4873V295.706Z" fill="#F5F5F5"/>
<path d="M99.4873 300.599H96.5703V303.516H99.4873V300.599Z" fill="#F5F5F5"/>
<path d="M99.4873 315.259H96.5703V318.176H99.4873V315.259Z" fill="#F5F5F5"/>
<path d="M99.4873 320.152H96.5703V323.069H99.4873V320.152Z" fill="#F5F5F5"/>
<path d="M99.4873 325.036H96.5703V327.953H99.4873V325.036Z" fill="#F5F5F5"/>
<path d="M142.544 192.108H139.627V195.025H142.544V192.108Z" fill="#F5F5F5"/>
<path d="M142.544 197.001H139.627V199.918H142.544V197.001Z" fill="#F5F5F5"/>
<path d="M142.544 201.884H139.627V204.801H142.544V201.884Z" fill="#F5F5F5"/>
<path d="M142.544 206.777H139.627V209.694H142.544V206.777Z" fill="#F5F5F5"/>
<path d="M142.544 211.661H139.627V214.578H142.544V211.661Z" fill="#F5F5F5"/>
<path d="M142.544 216.553H139.627V219.47H142.544V216.553Z" fill="#F5F5F5"/>
<path d="M142.544 221.437H139.627V224.354H142.544V221.437Z" fill="#F5F5F5"/>
<path d="M142.544 226.33H139.627V229.247H142.544V226.33Z" fill="#F5F5F5"/>
<path d="M142.544 231.214H139.627V234.13H142.544V231.214Z" fill="#F5F5F5"/>
<path d="M142.544 236.106H139.627V239.023H142.544V236.106Z" fill="#F5F5F5"/>
<path d="M142.544 240.99H139.627V243.907H142.544V240.99Z" fill="#F5F5F5"/>
<path d="M142.544 245.883H139.627V248.8H142.544V245.883Z" fill="#F5F5F5"/>
<path d="M142.544 250.766H139.627V253.683H142.544V250.766Z" fill="#F5F5F5"/>
<path d="M142.544 255.659H139.627V258.576H142.544V255.659Z" fill="#F5F5F5"/>
<path d="M142.544 260.543H139.627V263.46H142.544V260.543Z" fill="#F5F5F5"/>
<path d="M142.544 265.436H139.627V268.353H142.544V265.436Z" fill="#F5F5F5"/>
<path d="M142.544 270.319H139.627V273.236H142.544V270.319Z" fill="#F5F5F5"/>
<path d="M142.544 280.096H139.627V283.013H142.544V280.096Z" fill="#F5F5F5"/>
<path d="M142.544 284.989H139.627V287.906H142.544V284.989Z" fill="#F5F5F5"/>
<path d="M142.544 289.872H139.627V292.789H142.544V289.872Z" fill="#F5F5F5"/>
<path d="M142.544 294.765H139.627V297.682H142.544V294.765Z" fill="#F5F5F5"/>
<path d="M142.544 299.649H139.627V302.566H142.544V299.649Z" fill="#F5F5F5"/>
<path d="M147.173 192.108H144.256V195.025H147.173V192.108Z" fill="#F5F5F5"/>
<path d="M147.173 197.001H144.256V199.918H147.173V197.001Z" fill="#F5F5F5"/>
<path d="M147.173 201.884H144.256V204.801H147.173V201.884Z" fill="#F5F5F5"/>
<path d="M147.173 206.777H144.256V209.694H147.173V206.777Z" fill="#F5F5F5"/>
<path d="M147.173 211.661H144.256V214.578H147.173V211.661Z" fill="#F5F5F5"/>
<path d="M147.173 216.553H144.256V219.47H147.173V216.553Z" fill="#F5F5F5"/>
<path d="M147.173 221.437H144.256V224.354H147.173V221.437Z" fill="#F5F5F5"/>
<path d="M147.173 226.33H144.256V229.247H147.173V226.33Z" fill="#F5F5F5"/>
<path d="M147.173 231.214H144.256V234.13H147.173V231.214Z" fill="#F5F5F5"/>
<path d="M147.173 236.106H144.256V239.023H147.173V236.106Z" fill="#F5F5F5"/>
<path d="M147.173 240.99H144.256V243.907H147.173V240.99Z" fill="#F5F5F5"/>
<path d="M147.173 245.883H144.256V248.8H147.173V245.883Z" fill="#F5F5F5"/>
<path d="M147.173 250.766H144.256V253.683H147.173V250.766Z" fill="#F5F5F5"/>
<path d="M147.173 255.659H144.256V258.576H147.173V255.659Z" fill="#F5F5F5"/>
<path d="M147.173 260.543H144.256V263.46H147.173V260.543Z" fill="#F5F5F5"/>
<path d="M147.173 265.436H144.256V268.353H147.173V265.436Z" fill="#F5F5F5"/>
<path d="M147.173 294.765H144.256V297.682H147.173V294.765Z" fill="#F5F5F5"/>
<path d="M147.173 299.649H144.256V302.566H147.173V299.649Z" fill="#F5F5F5"/>
<path d="M151.804 192.108H148.887V195.025H151.804V192.108Z" fill="#F5F5F5"/>
<path d="M151.804 197.001H148.887V199.918H151.804V197.001Z" fill="#F5F5F5"/>
<path d="M151.804 201.884H148.887V204.801H151.804V201.884Z" fill="#F5F5F5"/>
<path d="M151.804 206.777H148.887V209.694H151.804V206.777Z" fill="#F5F5F5"/>
<path d="M151.804 211.661H148.887V214.578H151.804V211.661Z" fill="#F5F5F5"/>
<path d="M151.804 216.553H148.887V219.47H151.804V216.553Z" fill="#F5F5F5"/>
<path d="M151.804 221.437H148.887V224.354H151.804V221.437Z" fill="#F5F5F5"/>
<path d="M151.804 226.33H148.887V229.247H151.804V226.33Z" fill="#F5F5F5"/>
<path d="M151.804 231.214H148.887V234.13H151.804V231.214Z" fill="#F5F5F5"/>
<path d="M151.804 236.106H148.887V239.023H151.804V236.106Z" fill="#F5F5F5"/>
<path d="M151.804 240.99H148.887V243.907H151.804V240.99Z" fill="#F5F5F5"/>
<path d="M151.804 245.883H148.887V248.8H151.804V245.883Z" fill="#F5F5F5"/>
<path d="M151.804 250.766H148.887V253.683H151.804V250.766Z" fill="#F5F5F5"/>
<path d="M151.804 255.659H148.887V258.576H151.804V255.659Z" fill="#F5F5F5"/>
<path d="M151.804 260.543H148.887V263.46H151.804V260.543Z" fill="#F5F5F5"/>
<path d="M151.804 265.436H148.887V268.353H151.804V265.436Z" fill="#F5F5F5"/>
<path d="M151.804 275.212H148.887V278.129H151.804V275.212Z" fill="#F5F5F5"/>
<path d="M151.804 280.096H148.887V283.013H151.804V280.096Z" fill="#F5F5F5"/>
<path d="M151.804 284.989H148.887V287.906H151.804V284.989Z" fill="#F5F5F5"/>
<path d="M151.804 289.872H148.887V292.789H151.804V289.872Z" fill="#F5F5F5"/>
<path d="M151.804 299.649H148.887V302.566H151.804V299.649Z" fill="#F5F5F5"/>
<path d="M125.729 253.683H122.812V256.6H125.729V253.683Z" fill="#F5F5F5"/>
<path d="M125.729 258.576H122.812V261.493H125.729V258.576Z" fill="#F5F5F5"/>
<path d="M125.729 263.46H122.812V266.377H125.729V263.46Z" fill="#F5F5F5"/>
<path d="M125.729 268.353H122.812V271.27H125.729V268.353Z" fill="#F5F5F5"/>
<path d="M125.729 273.236H122.812V276.153H125.729V273.236Z" fill="#F5F5F5"/>
<path d="M125.729 278.129H122.812V281.046H125.729V278.129Z" fill="#F5F5F5"/>
<path d="M125.729 283.013H122.812V285.93H125.729V283.013Z" fill="#F5F5F5"/>
<path d="M125.729 292.789H122.812V295.706H125.729V292.789Z" fill="#F5F5F5"/>
<path d="M125.729 297.682H122.812V300.599H125.729V297.682Z" fill="#F5F5F5"/>
<path d="M125.729 302.566H122.812V305.483H125.729V302.566Z" fill="#F5F5F5"/>
<path d="M125.729 307.459H122.812V310.376H125.729V307.459Z" fill="#F5F5F5"/>
<path d="M125.729 312.342H122.812V315.259H125.729V312.342Z" fill="#F5F5F5"/>
<path d="M125.729 317.235H122.812V320.152H125.729V317.235Z" fill="#F5F5F5"/>
<path d="M125.729 322.119H122.812V325.036H125.729V322.119Z" fill="#F5F5F5"/>
<path d="M125.729 327.012H122.812V329.929H125.729V327.012Z" fill="#F5F5F5"/>
<path d="M130.358 253.683H127.441V256.6H130.358V253.683Z" fill="#F5F5F5"/>
<path d="M130.358 258.576H127.441V261.493H130.358V258.576Z" fill="#F5F5F5"/>
<path d="M130.358 263.46H127.441V266.377H130.358V263.46Z" fill="#F5F5F5"/>
<path d="M130.358 268.353H127.441V271.27H130.358V268.353Z" fill="#F5F5F5"/>
<path d="M130.358 273.236H127.441V276.153H130.358V273.236Z" fill="#F5F5F5"/>
<path d="M130.358 278.129H127.441V281.046H130.358V278.129Z" fill="#F5F5F5"/>
<path d="M130.358 292.789H127.441V295.706H130.358V292.789Z" fill="#F5F5F5"/>
<path d="M130.358 297.682H127.441V300.599H130.358V297.682Z" fill="#F5F5F5"/>
<path d="M130.358 302.566H127.441V305.483H130.358V302.566Z" fill="#F5F5F5"/>
<path d="M130.358 307.459H127.441V310.376H130.358V307.459Z" fill="#F5F5F5"/>
<path d="M130.358 312.342H127.441V315.259H130.358V312.342Z" fill="#F5F5F5"/>
<path d="M130.358 317.235H127.441V320.152H130.358V317.235Z" fill="#F5F5F5"/>
<path d="M130.358 322.119H127.441V325.036H130.358V322.119Z" fill="#F5F5F5"/>
<path d="M130.358 327.012H127.441V329.929H130.358V327.012Z" fill="#F5F5F5"/>
<path d="M134.989 253.683H132.072V256.6H134.989V253.683Z" fill="#F5F5F5"/>
<path d="M134.989 258.576H132.072V261.493H134.989V258.576Z" fill="#F5F5F5"/>
<path d="M134.989 263.46H132.072V266.377H134.989V263.46Z" fill="#F5F5F5"/>
<path d="M134.989 268.353H132.072V271.27H134.989V268.353Z" fill="#F5F5F5"/>
<path d="M134.989 273.236H132.072V276.153H134.989V273.236Z" fill="#F5F5F5"/>
<path d="M134.989 278.129H132.072V281.046H134.989V278.129Z" fill="#F5F5F5"/>
<path d="M134.989 287.906H132.072V290.823H134.989V287.906Z" fill="#F5F5F5"/>
<path d="M134.989 292.789H132.072V295.706H134.989V292.789Z" fill="#F5F5F5"/>
<path d="M134.989 297.682H132.072V300.599H134.989V297.682Z" fill="#F5F5F5"/>
<path d="M134.989 302.566H132.072V305.483H134.989V302.566Z" fill="#F5F5F5"/>
<path d="M134.989 307.459H132.072V310.376H134.989V307.459Z" fill="#F5F5F5"/>
<path d="M134.989 312.342H132.072V315.259H134.989V312.342Z" fill="#F5F5F5"/>
<path d="M134.989 317.235H132.072V320.152H134.989V317.235Z" fill="#F5F5F5"/>
<path d="M134.989 322.119H132.072V325.036H134.989V322.119Z" fill="#F5F5F5"/>
<path d="M134.989 327.012H132.072V329.929H134.989V327.012Z" fill="#F5F5F5"/>
<path d="M232.593 226.33H229.676V229.247H232.593V226.33Z" fill="#F5F5F5"/>
<path d="M232.593 231.214H229.676V234.13H232.593V231.214Z" fill="#F5F5F5"/>
<path d="M232.593 236.106H229.676V239.023H232.593V236.106Z" fill="#F5F5F5"/>
<path d="M232.593 240.99H229.676V243.907H232.593V240.99Z" fill="#F5F5F5"/>
<path d="M232.593 245.883H229.676V248.8H232.593V245.883Z" fill="#F5F5F5"/>
<path d="M232.593 250.766H229.676V253.683H232.593V250.766Z" fill="#F5F5F5"/>
<path d="M232.593 255.659H229.676V258.576H232.593V255.659Z" fill="#F5F5F5"/>
<path d="M232.593 260.543H229.676V263.46H232.593V260.543Z" fill="#F5F5F5"/>
<path d="M232.593 265.436H229.676V268.353H232.593V265.436Z" fill="#F5F5F5"/>
<path d="M232.593 270.319H229.676V273.236H232.593V270.319Z" fill="#F5F5F5"/>
<path d="M232.593 275.212H229.676V278.129H232.593V275.212Z" fill="#F5F5F5"/>
<path d="M232.593 280.096H229.676V283.013H232.593V280.096Z" fill="#F5F5F5"/>
<path d="M232.593 284.989H229.676V287.906H232.593V284.989Z" fill="#F5F5F5"/>
<path d="M232.593 294.765H229.676V297.682H232.593V294.765Z" fill="#F5F5F5"/>
<path d="M232.593 299.649H229.676V302.566H232.593V299.649Z" fill="#F5F5F5"/>
<path d="M232.593 304.542H229.676V307.459H232.593V304.542Z" fill="#F5F5F5"/>
<path d="M232.593 309.425H229.676V312.342H232.593V309.425Z" fill="#F5F5F5"/>
<path d="M232.593 319.202H229.676V322.119H232.593V319.202Z" fill="#F5F5F5"/>
<path d="M232.593 324.095H229.676V327.012H232.593V324.095Z" fill="#F5F5F5"/>
<path d="M232.593 328.988H229.676V331.904H232.593V328.988Z" fill="#F5F5F5"/>
<path d="M237.222 226.33H234.305V229.247H237.222V226.33Z" fill="#F5F5F5"/>
<path d="M237.222 231.214H234.305V234.13H237.222V231.214Z" fill="#F5F5F5"/>
<path d="M237.222 236.106H234.305V239.023H237.222V236.106Z" fill="#F5F5F5"/>
<path d="M237.222 240.99H234.305V243.907H237.222V240.99Z" fill="#F5F5F5"/>
<path d="M237.222 245.883H234.305V248.8H237.222V245.883Z" fill="#F5F5F5"/>
<path d="M237.222 250.766H234.305V253.683H237.222V250.766Z" fill="#F5F5F5"/>
<path d="M237.222 255.659H234.305V258.576H237.222V255.659Z" fill="#F5F5F5"/>
<path d="M237.222 260.543H234.305V263.46H237.222V260.543Z" fill="#F5F5F5"/>
<path d="M237.222 265.436H234.305V268.353H237.222V265.436Z" fill="#F5F5F5"/>
<path d="M237.222 270.319H234.305V273.236H237.222V270.319Z" fill="#F5F5F5"/>
<path d="M237.222 275.212H234.305V278.129H237.222V275.212Z" fill="#F5F5F5"/>
<path d="M237.222 280.096H234.305V283.013H237.222V280.096Z" fill="#F5F5F5"/>
<path d="M237.222 284.989H234.305V287.906H237.222V284.989Z" fill="#F5F5F5"/>
<path d="M237.222 299.649H234.305V302.566H237.222V299.649Z" fill="#F5F5F5"/>
<path d="M237.222 304.542H234.305V307.459H237.222V304.542Z" fill="#F5F5F5"/>
<path d="M237.222 314.318H234.305V317.235H237.222V314.318Z" fill="#F5F5F5"/>
<path d="M237.222 319.202H234.305V322.119H237.222V319.202Z" fill="#F5F5F5"/>
<path d="M237.222 324.095H234.305V327.012H237.222V324.095Z" fill="#F5F5F5"/>
<path d="M237.222 328.988H234.305V331.904H237.222V328.988Z" fill="#F5F5F5"/>
<path d="M241.852 226.33H238.936V229.247H241.852V226.33Z" fill="#F5F5F5"/>
<path d="M241.852 231.214H238.936V234.13H241.852V231.214Z" fill="#F5F5F5"/>
<path d="M241.852 236.106H238.936V239.023H241.852V236.106Z" fill="#F5F5F5"/>
<path d="M241.852 240.99H238.936V243.907H241.852V240.99Z" fill="#F5F5F5"/>
<path d="M241.852 245.883H238.936V248.8H241.852V245.883Z" fill="#F5F5F5"/>
<path d="M241.852 250.766H238.936V253.683H241.852V250.766Z" fill="#F5F5F5"/>
<path d="M241.852 255.659H238.936V258.576H241.852V255.659Z" fill="#F5F5F5"/>
<path d="M241.852 260.543H238.936V263.46H241.852V260.543Z" fill="#F5F5F5"/>
<path d="M241.852 265.436H238.936V268.353H241.852V265.436Z" fill="#F5F5F5"/>
<path d="M241.852 270.319H238.936V273.236H241.852V270.319Z" fill="#F5F5F5"/>
<path d="M241.852 275.212H238.936V278.129H241.852V275.212Z" fill="#F5F5F5"/>
<path d="M241.852 280.096H238.936V283.013H241.852V280.096Z" fill="#F5F5F5"/>
<path d="M241.852 284.989H238.936V287.906H241.852V284.989Z" fill="#F5F5F5"/>
<path d="M241.852 289.872H238.936V292.789H241.852V289.872Z" fill="#F5F5F5"/>
<path d="M241.852 299.649H238.936V302.566H241.852V299.649Z" fill="#F5F5F5"/>
<path d="M241.852 309.425H238.936V312.342H241.852V309.425Z" fill="#F5F5F5"/>
<path d="M241.852 314.318H238.936V317.235H241.852V314.318Z" fill="#F5F5F5"/>
<path d="M241.852 319.202H238.936V322.119H241.852V319.202Z" fill="#F5F5F5"/>
<path d="M241.852 324.095H238.936V327.012H241.852V324.095Z" fill="#F5F5F5"/>
<path d="M241.852 328.988H238.936V331.904H241.852V328.988Z" fill="#F5F5F5"/>
<path d="M213.718 254.201H210.801V257.118H213.718V254.201Z" fill="#F5F5F5"/>
<path d="M213.718 259.084H210.801V262.001H213.718V259.084Z" fill="#F5F5F5"/>
<path d="M213.718 263.977H210.801V266.894H213.718V263.977Z" fill="#F5F5F5"/>
<path d="M213.718 268.861H210.801V271.778H213.718V268.861Z" fill="#F5F5F5"/>
<path d="M213.718 273.754H210.801V276.671H213.718V273.754Z" fill="#F5F5F5"/>
<path d="M213.718 278.637H210.801V281.554H213.718V278.637Z" fill="#F5F5F5"/>
<path d="M213.718 293.307H210.801V296.224H213.718V293.307Z" fill="#F5F5F5"/>
<path d="M213.718 298.2H210.801V301.117H213.718V298.2Z" fill="#F5F5F5"/>
<path d="M213.718 303.083H210.801V306H213.718V303.083Z" fill="#F5F5F5"/>
<path d="M213.718 307.976H210.801V310.893H213.718V307.976Z" fill="#F5F5F5"/>
<path d="M213.718 312.86H210.801V315.777H213.718V312.86Z" fill="#F5F5F5"/>
<path d="M213.718 317.753H210.801V320.67H213.718V317.753Z" fill="#F5F5F5"/>
<path d="M213.718 322.636H210.801V325.553H213.718V322.636Z" fill="#F5F5F5"/>
<path d="M218.356 254.201H215.439V257.118H218.356V254.201Z" fill="#F5F5F5"/>
<path d="M218.356 259.084H215.439V262.001H218.356V259.084Z" fill="#F5F5F5"/>
<path d="M218.356 263.977H215.439V266.894H218.356V263.977Z" fill="#F5F5F5"/>
<path d="M218.356 268.861H215.439V271.778H218.356V268.861Z" fill="#F5F5F5"/>
<path d="M218.356 273.754H215.439V276.671H218.356V273.754Z" fill="#F5F5F5"/>
<path d="M218.356 278.637H215.439V281.554H218.356V278.637Z" fill="#F5F5F5"/>
<path d="M218.356 293.307H215.439V296.224H218.356V293.307Z" fill="#F5F5F5"/>
<path d="M218.356 298.2H215.439V301.117H218.356V298.2Z" fill="#F5F5F5"/>
<path d="M218.356 303.083H215.439V306H218.356V303.083Z" fill="#F5F5F5"/>
<path d="M218.356 307.976H215.439V310.893H218.356V307.976Z" fill="#F5F5F5"/>
<path d="M218.356 312.86H215.439V315.777H218.356V312.86Z" fill="#F5F5F5"/>
<path d="M218.356 317.753H215.439V320.67H218.356V317.753Z" fill="#F5F5F5"/>
<path d="M218.356 327.529H215.439V330.446H218.356V327.529Z" fill="#F5F5F5"/>
<path d="M372.202 232.672H369.285V235.589H372.202V232.672Z" fill="#F5F5F5"/>
<path d="M372.202 237.565H369.285V240.482H372.202V237.565Z" fill="#F5F5F5"/>
<path d="M372.202 242.448H369.285V245.365H372.202V242.448Z" fill="#F5F5F5"/>
<path d="M372.202 247.341H369.285V250.258H372.202V247.341Z" fill="#F5F5F5"/>
<path d="M372.202 252.225H369.285V255.142H372.202V252.225Z" fill="#F5F5F5"/>
<path d="M372.202 257.118H369.285V260.035H372.202V257.118Z" fill="#F5F5F5"/>
<path d="M372.202 262.001H369.285V264.918H372.202V262.001Z" fill="#F5F5F5"/>
<path d="M372.202 266.894H369.285V269.811H372.202V266.894Z" fill="#F5F5F5"/>
<path d="M372.202 271.778H369.285V274.695H372.202V271.778Z" fill="#F5F5F5"/>
<path d="M372.202 276.671H369.285V279.588H372.202V276.671Z" fill="#F5F5F5"/>
<path d="M372.202 281.554H369.285V284.471H372.202V281.554Z" fill="#F5F5F5"/>
<path d="M372.202 291.331H369.285V294.248H372.202V291.331Z" fill="#F5F5F5"/>
<path d="M372.202 296.224H369.285V299.141H372.202V296.224Z" fill="#F5F5F5"/>
<path d="M372.202 301.107H369.285V304.024H372.202V301.107Z" fill="#F5F5F5"/>
<path d="M372.202 306H369.285V308.917H372.202V306Z" fill="#F5F5F5"/>
<path d="M372.202 310.884H369.285V313.801H372.202V310.884Z" fill="#F5F5F5"/>
<path d="M372.202 315.777H369.285V318.694H372.202V315.777Z" fill="#F5F5F5"/>
<path d="M372.202 320.66H369.285V323.577H372.202V320.66Z" fill="#F5F5F5"/>
<path d="M372.202 325.553H369.285V328.47H372.202V325.553Z" fill="#F5F5F5"/>
<path d="M376.841 232.672H373.924V235.589H376.841V232.672Z" fill="#F5F5F5"/>
<path d="M376.841 237.565H373.924V240.482H376.841V237.565Z" fill="#F5F5F5"/>
<path d="M376.841 242.448H373.924V245.365H376.841V242.448Z" fill="#F5F5F5"/>
<path d="M376.841 247.341H373.924V250.258H376.841V247.341Z" fill="#F5F5F5"/>
<path d="M376.841 252.225H373.924V255.142H376.841V252.225Z" fill="#F5F5F5"/>
<path d="M376.841 257.118H373.924V260.035H376.841V257.118Z" fill="#F5F5F5"/>
<path d="M376.841 262.001H373.924V264.918H376.841V262.001Z" fill="#F5F5F5"/>
<path d="M376.841 266.894H373.924V269.811H376.841V266.894Z" fill="#F5F5F5"/>
<path d="M376.841 271.778H373.924V274.695H376.841V271.778Z" fill="#F5F5F5"/>
<path d="M376.841 276.671H373.924V279.588H376.841V276.671Z" fill="#F5F5F5"/>
<path d="M376.841 281.554H373.924V284.471H376.841V281.554Z" fill="#F5F5F5"/>
<path d="M376.841 286.447H373.924V289.364H376.841V286.447Z" fill="#F5F5F5"/>
<path d="M376.841 291.331H373.924V294.248H376.841V291.331Z" fill="#F5F5F5"/>
<path d="M376.841 296.224H373.924V299.141H376.841V296.224Z" fill="#F5F5F5"/>
<path d="M376.841 301.107H373.924V304.024H376.841V301.107Z" fill="#F5F5F5"/>
<path d="M376.841 306H373.924V308.917H376.841V306Z" fill="#F5F5F5"/>
<path d="M376.841 310.884H373.924V313.801H376.841V310.884Z" fill="#F5F5F5"/>
<path d="M376.841 315.777H373.924V318.694H376.841V315.777Z" fill="#F5F5F5"/>
<path d="M376.841 320.66H373.924V323.577H376.841V320.66Z" fill="#F5F5F5"/>
<path d="M376.841 325.553H373.924V328.47H376.841V325.553Z" fill="#F5F5F5"/>
<path d="M349.394 251.717H346.477V254.634H349.394V251.717Z" fill="#F5F5F5"/>
<path d="M349.394 256.6H346.477V259.517H349.394V256.6Z" fill="#F5F5F5"/>
<path d="M349.394 261.493H346.477V264.41H349.394V261.493Z" fill="#F5F5F5"/>
<path d="M349.394 266.377H346.477V269.294H349.394V266.377Z" fill="#F5F5F5"/>
<path d="M349.394 271.27H346.477V274.187H349.394V271.27Z" fill="#F5F5F5"/>
<path d="M349.394 276.153H346.477V279.07H349.394V276.153Z" fill="#F5F5F5"/>
<path d="M349.394 281.046H346.477V283.963H349.394V281.046Z" fill="#F5F5F5"/>
<path d="M349.394 285.93H346.477V288.847H349.394V285.93Z" fill="#F5F5F5"/>
<path d="M349.394 290.823H346.477V293.74H349.394V290.823Z" fill="#F5F5F5"/>
<path d="M349.394 295.706H346.477V298.623H349.394V295.706Z" fill="#F5F5F5"/>
<path d="M354.022 251.717H351.105V254.634H354.022V251.717Z" fill="#F5F5F5"/>
<path d="M354.022 256.6H351.105V259.517H354.022V256.6Z" fill="#F5F5F5"/>
<path d="M354.022 261.493H351.105V264.41H354.022V261.493Z" fill="#F5F5F5"/>
<path d="M354.022 266.377H351.105V269.294H354.022V266.377Z" fill="#F5F5F5"/>
<path d="M354.022 271.27H351.105V274.187H354.022V271.27Z" fill="#F5F5F5"/>
<path d="M354.022 276.153H351.105V279.07H354.022V276.153Z" fill="#F5F5F5"/>
<path d="M354.022 281.046H351.105V283.963H354.022V281.046Z" fill="#F5F5F5"/>
<path d="M354.022 285.93H351.105V288.847H354.022V285.93Z" fill="#F5F5F5"/>
<path d="M354.022 290.823H351.105V293.74H354.022V290.823Z" fill="#F5F5F5"/>
<path d="M235.238 389.56C335.997 389.56 417.678 384.791 417.678 378.908C417.678 373.026 335.997 368.257 235.238 368.257C134.478 368.257 52.7969 373.026 52.7969 378.908C52.7969 384.791 134.478 389.56 235.238 389.56Z" fill="#E0E0E0"/>
<path d="M397.231 367.03L384.208 302.171H379.531L366.189 367.03L356.619 372.892V374.624H406.489V372.892L397.231 367.03Z" fill="#0033EA"/>
<path opacity="0.2" d="M406.8 372.892H356.93V375.075H406.8V372.892Z" fill="black"/>
<path opacity="0.2" d="M384.207 302.556H379.53L366.348 367.218H397.39L384.207 302.556Z" fill="black"/>
<path opacity="0.6" d="M394.531 352.982H369.295L373.84 330.399H389.939L394.447 352.549L394.531 352.982Z" fill="white"/>
<path d="M266.448 144.75L258.13 147.855C257.509 147.384 260.642 119.156 260.642 119.156L255.599 118.412C255.599 118.412 247.074 147.732 249.953 153.66C253.717 161.339 270.334 153.66 270.334 153.66L266.448 144.75Z" fill="#B97964"/>
<path d="M418.709 161.893L422.58 145.057L200.442 93.9761L196.57 110.813L418.709 161.893Z" fill="#0033EA"/>
<path opacity="0.6" d="M418.709 161.893L422.58 145.057L200.442 93.9761L196.57 110.813L418.709 161.893Z" fill="white"/>
<path opacity="0.2" d="M420.335 154.832L420.953 152.146L198.815 101.065L198.197 103.752L420.335 154.832Z" fill="black"/>
<path d="M206.067 104.157C206.481 102.366 206.414 100.497 205.872 98.7401C205.33 96.9834 204.332 95.4014 202.981 94.1548L202.604 93.8067L200.723 93.3644C200.545 93.3251 200.36 93.3574 200.207 93.4544C200.053 93.5513 199.944 93.7051 199.904 93.882L196.046 110.697C196.025 110.784 196.022 110.874 196.036 110.963C196.05 111.051 196.082 111.136 196.129 111.212C196.176 111.288 196.238 111.354 196.311 111.406C196.384 111.458 196.467 111.495 196.554 111.515L198.436 111.958L198.935 111.807C200.692 111.273 202.277 110.285 203.53 108.941C204.782 107.598 205.657 105.947 206.067 104.157Z" fill="#263238"/>
<path d="M245.399 118.055L256.445 69.9818L252.381 69.0409L240.722 119.749C240.696 119.862 240.692 119.98 240.711 120.095C240.731 120.21 240.773 120.321 240.835 120.419C240.897 120.518 240.978 120.604 241.073 120.671C241.169 120.739 241.276 120.786 241.39 120.812C241.513 120.841 241.64 120.843 241.763 120.818C241.886 120.794 242.003 120.744 242.105 120.671L245.041 118.572C245.216 118.446 245.342 118.263 245.399 118.055Z" fill="#263238"/>
<path d="M289.058 128.095L300.161 80.0218L296.086 79.0809L284.437 129.789C284.384 130.017 284.423 130.257 284.547 130.457C284.67 130.656 284.868 130.798 285.096 130.852C285.218 130.881 285.346 130.884 285.469 130.859C285.593 130.835 285.709 130.784 285.811 130.711L288.756 128.612C288.91 128.477 289.016 128.296 289.058 128.095Z" fill="#263238"/>
<path d="M332.729 138.135L343.776 90.0618L339.711 89.1208L328.052 139.829C328.026 139.942 328.022 140.06 328.041 140.175C328.061 140.29 328.103 140.401 328.165 140.499C328.227 140.598 328.308 140.684 328.403 140.751C328.499 140.819 328.606 140.866 328.72 140.892C328.843 140.917 328.969 140.918 329.092 140.893C329.215 140.869 329.332 140.821 329.435 140.751L332.381 138.643C332.55 138.517 332.673 138.339 332.729 138.135Z" fill="#263238"/>
<path d="M376.379 148.165L387.426 100.102L383.361 99.1607L371.703 149.868C371.661 150.098 371.706 150.335 371.83 150.534C371.953 150.732 372.146 150.877 372.371 150.941C372.494 150.968 372.621 150.969 372.744 150.943C372.868 150.917 372.984 150.865 373.086 150.791L376.022 148.692C376.198 148.564 376.325 148.377 376.379 148.165Z" fill="#263238"/>
<path d="M427.097 125.375L430.969 108.539L208.831 57.4584L204.959 74.2949L427.097 125.375Z" fill="#0033EA"/>
<path opacity="0.7" d="M427.097 125.375L430.969 108.539L208.831 57.4584L204.959 74.2949L427.097 125.375Z" fill="white"/>
<path opacity="0.2" d="M428.732 118.305L429.35 115.618L207.211 64.5378L206.594 67.2247L428.732 118.305Z" fill="black"/>
<path d="M201.731 108.015L213.116 58.4646L209.051 57.5237L197.054 109.709C197.013 109.939 197.058 110.176 197.181 110.374C197.305 110.572 197.498 110.717 197.722 110.781C197.845 110.809 197.973 110.809 198.096 110.783C198.219 110.757 198.336 110.705 198.437 110.631L201.383 108.533C201.554 108.405 201.677 108.222 201.731 108.015Z" fill="#263238"/>
<path d="M214.46 67.6389C214.871 65.8468 214.801 63.9779 214.257 62.2214C213.714 60.4649 212.716 58.8833 211.364 57.6366L210.988 57.2885L209.106 56.8462C209.019 56.8253 208.928 56.8219 208.84 56.8362C208.751 56.8504 208.667 56.8821 208.591 56.9294C208.514 56.9766 208.448 57.0385 208.396 57.1115C208.344 57.1844 208.307 57.267 208.287 57.3543L204.392 74.1785C204.371 74.2656 204.367 74.3561 204.382 74.4445C204.396 74.533 204.428 74.6178 204.475 74.6939C204.522 74.77 204.584 74.836 204.657 74.8881C204.73 74.9401 204.812 74.9772 204.9 74.9971L206.782 75.43L207.271 75.2888C209.037 74.7609 210.633 73.7751 211.895 72.4316C213.158 71.0882 214.043 69.4347 214.46 67.6389Z" fill="#263238"/>
<path d="M293.811 151.619C293.314 151.569 292.812 151.569 292.315 151.619C288.686 152.029 285.085 152.657 281.532 153.501C273.458 155.204 264.595 157.49 264.595 157.49L260.643 145.973C260.643 145.973 286.679 130.918 290.904 132.15C290.904 132.15 297.97 152.249 293.811 151.619Z" fill="#263238"/>
<path d="M353.561 163.333C353.561 163.333 360.543 171.378 359.753 181.729C358.963 192.079 332.682 208.076 332.682 208.076L329.332 202.9C329.332 202.9 350.268 185.257 350.739 181.729C351.209 178.2 346.391 170.438 346.391 170.438L353.561 163.333Z" fill="#B97964"/>
<path d="M330.271 201.094C330.271 201.094 334.552 206.834 334.345 207.567C334.138 208.301 330.675 210.456 330.675 210.456C330.675 210.456 331.259 213.881 331.259 214.502C331.259 216.036 328.521 217.956 327.815 217.485C325.284 215.791 324.362 211.209 323.891 209.111C323.421 207.012 329.038 200.463 330.271 201.094Z" fill="#6C6C6C"/>
<path d="M292.145 368.065L284.514 368.865L283.084 352.408L290.715 351.599L292.145 368.065Z" fill="#B97964"/>
<path d="M330.234 367.51H322.838L322.227 350.375H329.632L330.234 367.51Z" fill="#B97964"/>
<path d="M321.803 366.654H330.789C330.937 366.653 331.08 366.703 331.195 366.795C331.31 366.888 331.389 367.017 331.42 367.162L332.878 373.748C332.909 373.908 332.903 374.073 332.863 374.23C332.823 374.388 332.749 374.535 332.645 374.66C332.542 374.786 332.413 374.887 332.266 374.957C332.119 375.028 331.959 375.065 331.796 375.066C328.889 375.019 326.772 374.84 323.121 374.84C320.872 374.84 314.088 375.075 310.982 375.075C307.877 375.075 307.473 372.008 308.743 371.725C314.445 370.483 318.736 368.761 320.561 367.124C320.899 366.813 321.344 366.644 321.803 366.654Z" fill="#263238"/>
<path d="M319.365 367.952C318.862 367.99 318.362 367.858 317.944 367.576C317.809 367.462 317.704 367.317 317.64 367.152C317.576 366.988 317.554 366.81 317.577 366.635C317.573 366.533 317.6 366.432 317.653 366.345C317.707 366.258 317.785 366.188 317.878 366.146C318.697 365.722 321.087 367.19 321.35 367.36C321.382 367.374 321.407 367.398 321.422 367.429C321.438 367.46 321.442 367.495 321.435 367.529C321.43 367.564 321.415 367.597 321.392 367.624C321.369 367.651 321.338 367.67 321.303 367.679C320.669 367.841 320.019 367.933 319.365 367.952ZM318.264 366.419C318.185 366.41 318.107 366.427 318.038 366.466C317.991 366.466 317.935 366.531 317.925 366.673C317.91 366.789 317.924 366.907 317.965 367.017C318.006 367.127 318.073 367.225 318.16 367.303C318.99 367.679 319.932 367.726 320.795 367.435C320.025 366.935 319.166 366.59 318.264 366.419Z" fill="#0033EA"/>
<path d="M321.259 367.689H321.174C320.412 367.275 318.934 365.647 319.085 364.866C319.111 364.736 319.182 364.618 319.285 364.534C319.388 364.45 319.517 364.405 319.649 364.405C319.782 364.388 319.917 364.399 320.046 364.438C320.174 364.477 320.292 364.542 320.393 364.631C321.249 365.327 321.428 367.454 321.437 367.557C321.438 367.589 321.43 367.62 321.415 367.648C321.401 367.676 321.379 367.7 321.353 367.717C321.319 367.718 321.286 367.708 321.259 367.689ZM319.772 364.687H319.687C319.461 364.687 319.442 364.819 319.433 364.866C319.339 365.346 320.28 366.579 321.042 367.153C320.994 366.31 320.689 365.502 320.167 364.838C320.059 364.739 319.918 364.685 319.772 364.687Z" fill="#0033EA"/>
<path d="M283.704 366.418H292.69C292.837 366.417 292.981 366.468 293.096 366.56C293.21 366.653 293.29 366.782 293.32 366.927L294.779 373.513C294.809 373.673 294.804 373.837 294.764 373.995C294.723 374.153 294.649 374.299 294.546 374.425C294.443 374.551 294.313 374.652 294.166 374.722C294.02 374.792 293.859 374.829 293.697 374.831C290.789 374.784 288.672 374.605 285.021 374.605C282.772 374.605 275.988 374.84 272.883 374.84C269.778 374.84 269.373 371.772 270.643 371.49C276.345 370.248 280.636 368.526 282.462 366.889C282.799 366.578 283.244 366.409 283.704 366.418Z" fill="#263238"/>
<path d="M281.257 367.717C280.755 367.755 280.254 367.622 279.836 367.341C279.701 367.227 279.597 367.081 279.533 366.917C279.469 366.753 279.447 366.575 279.47 366.4C279.466 366.298 279.492 366.197 279.546 366.109C279.6 366.022 279.678 365.953 279.771 365.91C280.589 365.487 282.979 366.955 283.243 367.124C283.274 367.139 283.3 367.163 283.315 367.194C283.33 367.225 283.335 367.26 283.327 367.294C283.323 367.329 283.308 367.362 283.285 367.389C283.261 367.416 283.23 367.435 283.196 367.444C282.562 367.606 281.912 367.698 281.257 367.717ZM280.156 366.155C280.078 366.147 279.999 366.163 279.931 366.202C279.884 366.202 279.827 366.268 279.818 366.409C279.803 366.525 279.817 366.644 279.858 366.753C279.899 366.863 279.966 366.961 280.053 367.04C280.883 367.416 281.824 367.463 282.688 367.171C281.918 366.671 281.058 366.326 280.156 366.155Z" fill="#0033EA"/>
<path d="M283.151 367.454H283.066C282.304 367.04 280.827 365.412 280.977 364.631C281.004 364.5 281.074 364.383 281.177 364.299C281.28 364.215 281.409 364.169 281.542 364.17C281.675 364.152 281.81 364.163 281.938 364.202C282.066 364.241 282.185 364.307 282.285 364.395C283.142 365.092 283.32 367.218 283.33 367.322C283.33 367.353 283.323 367.385 283.308 367.413C283.293 367.441 283.272 367.464 283.245 367.482C283.212 367.482 283.179 367.473 283.151 367.454ZM281.664 364.452H281.58C281.354 364.452 281.335 364.584 281.326 364.631C281.232 365.111 282.173 366.343 282.935 366.917C282.887 366.074 282.582 365.266 282.06 364.602C281.952 364.504 281.81 364.45 281.664 364.452Z" fill="#0033EA"/>
<path opacity="0.2" d="M290.715 351.599L283.084 352.408L283.827 360.895L291.458 360.095L290.715 351.599Z" fill="black"/>
<path opacity="0.2" d="M329.632 350.385H322.227L322.546 359.22H329.952L329.632 350.385Z" fill="black"/>
<path d="M326.574 200.078H287.318C283.554 220.458 271.905 292.592 280.289 356.868L293.575 355.221C293.575 355.221 292.343 269.896 304.076 238.355C305.431 255.236 307.031 273.17 308.423 282.749C311.839 306.273 319.15 357.686 319.15 357.686H332.681C332.681 357.686 329.915 308.475 328.635 285.356C327.233 260.261 326.631 205.253 326.574 200.078Z" fill="#0033EA"/>
<path opacity="0.2" d="M304.076 238.355C302.144 243.885 300.677 249.566 299.691 255.339C298.59 240.284 302.984 224.382 302.984 224.382L304.076 238.355Z" fill="black"/>
<path d="M278.764 359.964L295.212 357.517L294.714 352.963L277.598 355.202L278.764 359.964Z" fill="#0033EA"/>
<path opacity="0.6" d="M278.764 359.964L295.212 357.517L294.714 352.963L277.598 355.202L278.764 359.964Z" fill="white"/>
<path d="M317.522 357.799H333.481V353.029L316.92 352.718L317.522 357.799Z" fill="#0033EA"/>
<path opacity="0.6" d="M317.522 357.799H333.481V353.029L316.92 352.718L317.522 357.799Z" fill="white"/>
<path d="M286.989 200.548H326.508V205.253L286.48 204.763L286.989 200.548Z" fill="#263238"/>
<path d="M313.806 198.431H312.395V206.787H313.806V198.431Z" fill="#0033EA"/>
<path d="M293.81 198.431H292.398V206.787H293.81V198.431Z" fill="#0033EA"/>
<path opacity="0.2" d="M292.315 151.619C288.686 152.029 285.085 152.657 281.531 153.501C282.99 147.196 290.753 142.04 290.753 142.04L292.315 151.619Z" fill="black"/>
<path d="M305.008 199.729H297.697V204.999H305.008V199.729Z" fill="white"/>
<path d="M334.48 135.67C334.48 135.67 333.285 141.673 331.827 150.395C331.168 154.357 330.453 158.864 329.766 163.653C327.997 175.999 326.435 190.047 326.576 200.548H286.99C286.99 200.548 284.422 156.427 290.905 132.15C290.905 132.15 315.878 130.974 334.48 135.67Z" fill="#263238"/>
<path d="M320.28 133.035C316.676 136.309 307.85 135.096 307.85 135.096C307.85 135.096 302.336 133.59 303.494 131.868C306.74 131.332 308.311 129.817 308.961 127.878C309.316 126.677 309.428 125.417 309.29 124.171C309.236 123.477 309.145 122.786 309.017 122.101L319.923 113.981C318.502 119.353 316.752 129.168 320.28 133.035Z" fill="#B97964"/>
<path opacity="0.2" d="M317.41 119.156C316.977 125.743 311.595 127.512 308.941 127.878C309.297 126.677 309.409 125.417 309.271 124.171L317.41 119.156Z" fill="black"/>
<path d="M318.67 128.876L308.234 133.581L307.623 129.817L303.793 131.162C303.122 131.395 302.55 131.848 302.171 132.448C301.791 133.048 301.627 133.759 301.704 134.465L302.128 138.605L307.425 135.707L310.06 139.471L322.593 133.44L318.67 128.876Z" fill="#263238"/>
<path opacity="0.2" d="M318.67 128.876L308.234 133.581L307.623 129.817L303.793 131.162C303.122 131.395 302.55 131.848 302.171 132.448C301.791 133.048 301.627 133.759 301.704 134.465L302.128 138.605L307.425 135.707L310.06 139.471L322.593 133.44L318.67 128.876Z" fill="white"/>
<path d="M330.424 134.757C330.424 134.757 321.194 165.808 329.342 171.379C329.342 171.379 328.213 196.916 326.585 200.548C313.397 201.264 300.179 201.264 286.99 200.548C285.923 190.864 285.505 181.119 285.739 171.379C285.739 171.379 288.712 167.615 288.712 164.792C288.712 161.969 290.434 139.386 296.08 131.859H299.222C299.222 131.859 294.678 141.108 295.299 149.266C295.299 149.266 309.102 151.619 319.142 150.207C319.142 150.207 322.116 139.226 325.409 133.741L330.424 134.757Z" fill="#0033EA"/>
<path opacity="0.2" d="M293.811 173.26H317.099C317.099 173.26 318.51 192.39 302.495 191.139C290.254 190.198 293.811 173.26 293.811 173.26Z" fill="black"/>
<path d="M301.555 96.7612C301.555 96.7612 298.44 106.594 303.173 111.308C307.906 116.022 310.86 97.2788 310.86 97.2788L301.555 96.7612Z" fill="#263238"/>
<path d="M318.868 119.946C318.456 120.597 317.977 121.203 317.438 121.753C316.056 123.234 314.225 124.221 312.228 124.561C310.23 124.901 308.177 124.575 306.382 123.635C304.041 122.461 302.232 120.444 301.32 117.989C301.19 117.647 301.08 117.299 300.99 116.945C300.768 116.078 300.602 115.198 300.492 114.31C299.635 107.789 301.066 99.1043 307.323 96.432C308.532 95.9096 309.833 95.6311 311.15 95.6123C312.468 95.5936 313.776 95.8351 314.999 96.3228C316.223 96.8106 317.339 97.5351 318.282 98.4548C319.225 99.3745 319.978 100.471 320.496 101.682C321.126 103.13 321.401 104.708 321.296 106.284C321.004 112.522 321.061 116.559 318.868 119.946Z" fill="#B97964"/>
<path opacity="0.1" d="M318.867 119.946C318.455 120.597 317.976 121.203 317.437 121.753C316.054 123.234 314.224 124.221 312.226 124.561C310.229 124.901 308.175 124.575 306.381 123.635C304.04 122.461 302.231 120.444 301.318 117.989C301.189 117.647 301.079 117.299 300.989 116.945C300.767 116.078 300.601 115.198 300.49 114.31C301.581 114.954 302.797 115.355 304.056 115.486C304.918 115.399 305.779 115.652 306.456 116.192C308.827 114.771 312.647 114.696 314.407 114.253C316.166 113.811 316.628 107.008 316.628 107.008L318.867 109.464C319.836 113.915 319.733 117.368 318.867 119.946Z" fill="black"/>
<path d="M310.193 108.523C310.193 109.107 309.891 109.605 309.496 109.605C309.101 109.605 308.781 109.125 308.772 108.533C308.762 107.94 309.082 107.451 309.468 107.451C309.854 107.451 310.174 107.912 310.193 108.523Z" fill="#263238"/>
<path d="M303.447 108.608C303.494 109.201 303.136 109.69 302.751 109.69C302.365 109.69 302.045 109.21 302.026 108.617C302.007 108.024 302.337 107.535 302.722 107.535C303.108 107.535 303.438 108.043 303.447 108.608Z" fill="#263238"/>
<path d="M305.59 108.871C304.892 110.706 303.942 112.435 302.768 114.009C303.181 114.299 303.654 114.494 304.152 114.58C304.649 114.666 305.16 114.641 305.647 114.508L305.59 108.871Z" fill="#A24E3F"/>
<path d="M312.252 106.312C312.189 106.32 312.125 106.313 312.066 106.29C312.006 106.267 311.954 106.229 311.913 106.18C311.652 105.826 311.312 105.538 310.92 105.339C310.528 105.139 310.095 105.034 309.655 105.032C309.609 105.037 309.562 105.033 309.518 105.02C309.474 105.006 309.433 104.984 309.398 104.954C309.362 104.924 309.334 104.887 309.313 104.845C309.293 104.804 309.281 104.759 309.279 104.712C309.271 104.621 309.299 104.531 309.357 104.461C309.415 104.39 309.498 104.345 309.589 104.336C310.138 104.331 310.68 104.457 311.17 104.702C311.661 104.948 312.086 105.306 312.412 105.747C312.47 105.819 312.498 105.91 312.49 106.002C312.481 106.093 312.436 106.178 312.365 106.237C312.331 106.267 312.293 106.293 312.252 106.312Z" fill="#263238"/>
<path d="M306.691 117.584C307.552 117.711 308.43 117.626 309.25 117.336C310.07 117.045 310.807 116.559 311.396 115.919C311.428 115.883 311.445 115.835 311.443 115.787C311.44 115.738 311.418 115.693 311.382 115.66C311.346 115.628 311.298 115.611 311.25 115.614C311.201 115.616 311.156 115.638 311.123 115.674C310.567 116.249 309.885 116.686 309.13 116.951C308.375 117.216 307.569 117.3 306.776 117.199C306.729 117.195 306.683 117.208 306.645 117.236C306.607 117.263 306.58 117.304 306.569 117.349C306.565 117.373 306.566 117.397 306.571 117.42C306.577 117.443 306.587 117.465 306.601 117.484C306.615 117.504 306.632 117.52 306.653 117.532C306.673 117.545 306.696 117.553 306.72 117.556L306.691 117.584Z" fill="#263238"/>
<path d="M300.521 106.321C300.453 106.34 300.381 106.34 300.314 106.321C300.23 106.282 300.165 106.213 300.132 106.127C300.098 106.041 300.099 105.945 300.135 105.86C300.359 105.35 300.702 104.902 301.136 104.553C301.57 104.204 302.082 103.965 302.628 103.856C302.72 103.845 302.813 103.871 302.887 103.927C302.96 103.983 303.009 104.065 303.023 104.157C303.032 104.249 303.006 104.34 302.95 104.413C302.894 104.487 302.813 104.536 302.722 104.552C302.295 104.651 301.897 104.847 301.558 105.127C301.22 105.406 300.952 105.76 300.775 106.161C300.746 106.204 300.708 106.24 300.664 106.268C300.621 106.295 300.572 106.314 300.521 106.321Z" fill="#263238"/>
<path d="M315.791 97.2599L315.283 100.469C315.82 100.749 316.231 101.222 316.435 101.792C316.639 102.362 316.621 102.988 316.384 103.545C315.246 106.218 316.648 110.49 318.671 112.24C318.671 112.24 318.774 111.064 319.753 111.374C320.731 111.685 320.251 117.801 318.219 120.661C318.219 120.661 321.239 118.121 323.112 111.741C324.843 105.851 325.21 100.901 324.053 98.5679L315.791 97.2599Z" fill="#263238"/>
<path d="M323.923 99.4901C323.923 99.4901 327.188 94.4466 318.399 91.7931C309.611 89.1397 303.495 92.9129 303.495 92.9129C303.495 92.9129 297.774 99.7441 305.377 100.864C312.838 101.946 323.923 99.4901 323.923 99.4901Z" fill="#263238"/>
<path d="M325.219 112.4C324.427 114.068 323.006 115.354 321.267 115.975C318.962 116.785 317.654 114.752 318.162 112.494C318.623 110.48 320.373 107.582 322.763 107.789C325.153 107.996 326.169 110.339 325.219 112.4Z" fill="#B97964"/>
<path d="M320.327 100.196C320.327 100.196 317.768 124.557 305.395 122.948L306.881 123.955C306.881 123.955 318.003 125.545 321.936 100.431L320.327 100.196Z" fill="#263238"/>
<path opacity="0.2" d="M320.327 100.196C320.327 100.196 317.768 124.557 305.395 122.948L306.881 123.955C306.881 123.955 318.003 125.545 321.936 100.431L320.327 100.196Z" fill="black"/>
<path d="M326.283 102.247C322.633 101.306 310.748 103.291 305.159 103.047C299.57 102.802 297.754 101.889 296.841 101.099C295.928 100.309 299.278 99.2171 299.278 99.2171C299.278 99.2171 299.72 90.7486 306.665 86.8719C308.78 85.7353 311.125 85.0919 313.524 84.99C315.344 84.8298 317.178 85.0378 318.916 85.6016C327.309 88.4244 326.669 99.7158 326.669 99.7158C326.669 99.7158 329.944 103.141 326.283 102.247Z" fill="#0033EA"/>
<path opacity="0.2" d="M326.283 102.247C322.633 101.306 310.748 103.291 305.159 103.047C299.57 102.802 297.754 101.889 296.841 101.099C295.928 100.309 299.278 99.2171 299.278 99.2171C299.278 99.2171 302.769 101.607 306.345 100.93C309.92 100.252 320.224 97.4388 326.679 99.7159C326.679 99.7629 329.944 103.141 326.283 102.247Z" fill="black"/>
<path opacity="0.2" d="M318.924 85.611C315.358 86.185 312.337 89.4595 310.982 92.5364C309.157 96.6107 302.787 101.165 303.605 92.16C303.7 91.1156 304.023 90.1048 304.551 89.199C305.08 88.2933 305.801 87.5149 306.664 86.9189C308.779 85.7823 311.124 85.139 313.523 85.037C315.344 84.8634 317.181 85.0586 318.924 85.611Z" fill="black"/>
<path d="M267.576 158.431L261.384 144.035L258.693 146.001L263.68 159.184L267.576 158.431Z" fill="#263238"/>
<path opacity="0.2" d="M267.576 158.431L261.384 144.035L258.693 146.001L263.68 159.184L267.576 158.431Z" fill="white"/>
<path d="M256.445 106.877C256.445 106.877 256.097 109.521 257.189 109.793C259.14 110.345 261.127 110.763 263.136 111.045C264.076 111.045 264.716 107.281 264.716 106.877C264.716 106.472 257.264 104.157 256.445 106.877Z" fill="#6C6C6C"/>
<path opacity="0.2" d="M331.825 150.395C331.166 154.357 330.451 158.864 329.764 163.653C326.659 157.942 329.134 148.438 329.134 148.438L331.825 150.395Z" fill="black"/>
<path d="M334.478 135.67C334.478 135.67 340.039 137.504 359.752 169.807L348.385 176.789C348.385 176.789 334.158 157.264 330.423 156.323C330.423 156.323 325.746 140.214 334.478 135.67Z" fill="#263238"/>
<path d="M359.208 167.775L346.393 176.789L348.858 179.029L360.742 171.426L359.208 167.775Z" fill="#263238"/>
<path opacity="0.2" d="M359.208 167.775L346.393 176.789L348.858 179.029L360.742 171.426L359.208 167.775Z" fill="white"/>
<path d="M51.582 375.075H58.3851L74.0707 233.142H67.2677L51.582 375.075Z" fill="#263238"/>
<path opacity="0.1" d="M69.7518 272.126L64.3037 321.272L58.3851 374.624H51.582L57.5006 321.234L63.4662 267.355H63.4756L69.7518 272.126Z" fill="white"/>
<path d="M163.734 375.075H170.528L186.214 233.142H179.42L163.734 375.075Z" fill="#263238"/>
<path opacity="0.1" d="M173.341 349.434L170.528 374.624H163.734L167.065 344.626L173.341 349.434Z" fill="white"/>
<path d="M57.5 321.535H176.492L192.771 174.258H73.7784L57.5 321.535Z" fill="#263238"/>
<path opacity="0.1" d="M135.731 321.93H57.5L63.475 267.694L69.7512 272.493L135.731 321.93Z" fill="white"/>
<path d="M215.356 375.075H208.553L192.867 233.142H199.661L215.356 375.075Z" fill="#263238"/>
<path opacity="0.2" d="M215.356 375.075H208.553L192.867 233.142H199.661L215.356 375.075Z" fill="white"/>
<path d="M103.202 375.075H96.4083L80.7227 233.142H87.5163L103.202 375.075Z" fill="#263238"/>
<path opacity="0.2" d="M103.202 375.075H96.4083L80.7227 233.142H87.5163L103.202 375.075Z" fill="white"/>
<path d="M209.435 321.535H90.4425L74.1641 174.258H193.156L209.435 321.535Z" fill="#F5F5F5"/>
<path d="M193.119 174.201L194.578 187.375H75.6323L74.1738 174.201H193.119Z" fill="#FFD704"/>
<path d="M85.079 174.201L82.529 187.309L82.5196 187.375H78.5488L78.5582 187.309L81.1082 174.201H85.079Z" fill="#263238"/>
<path d="M97.5474 174.201L94.988 187.309L94.9786 187.375H91.0078L91.0172 187.309L93.5766 174.201H97.5474Z" fill="#263238"/>
<path d="M110.007 174.201L107.457 187.309L107.447 187.375H103.477L103.486 187.309L106.036 174.201H110.007Z" fill="#263238"/>
<path d="M122.474 174.201L119.914 187.309L119.905 187.375H115.943L115.962 187.309L118.512 174.201H122.474Z" fill="#263238"/>
<path d="M134.94 174.201L132.39 187.309L132.381 187.375H128.41L128.42 187.309L130.97 174.201H134.94Z" fill="#263238"/>
<path d="M147.409 174.201L144.85 187.309L144.84 187.375H140.879L140.888 187.309L143.438 174.201H147.409Z" fill="#263238"/>
<path d="M159.866 174.201L157.317 187.309L157.307 187.375H153.346L153.355 187.309L155.905 174.201H159.866Z" fill="#263238"/>
<path d="M172.343 174.201L169.783 187.309L169.774 187.375H165.812L165.822 187.309L168.372 174.201H172.343Z" fill="#263238"/>
<path d="M184.802 174.201L182.252 187.309L182.242 187.375H178.271L178.281 187.309L180.84 174.201H184.802Z" fill="#263238"/>
<path d="M193.289 175.716L194.578 187.375H190.768L193.289 175.716Z" fill="#263238"/>
<path d="M90.5093 321.93L89.0508 308.757H207.996L209.445 321.93H90.5093Z" fill="#FFD704"/>
<path d="M198.549 321.93L201.099 308.823L201.108 308.757H205.079L205.07 308.823L202.51 321.93H198.549Z" fill="#263238"/>
<path d="M186.082 321.93L188.641 308.823L188.651 308.757H192.612L192.603 308.823L190.053 321.93H186.082Z" fill="#263238"/>
<path d="M173.623 321.93L176.173 308.823L176.182 308.757H180.153L180.144 308.823L177.584 321.93H173.623Z" fill="#263238"/>
<path d="M161.156 321.93L163.716 308.823L163.725 308.757H167.677L167.668 308.823L165.118 321.93H161.156Z" fill="#263238"/>
<path d="M148.688 321.93L151.237 308.823L151.247 308.757H155.218L155.208 308.823L152.649 321.93H148.688Z" fill="#263238"/>
<path d="M136.221 321.93L138.78 308.823L138.789 308.757H142.751L142.741 308.823L140.192 321.93H136.221Z" fill="#263238"/>
<path d="M123.764 321.93L126.314 308.823L126.323 308.757H130.284L130.275 308.823L127.716 321.93H123.764Z" fill="#263238"/>
<path d="M111.285 321.93L113.835 308.823L113.854 308.757H117.815L117.806 308.823L115.256 321.93H111.285Z" fill="#263238"/>
<path d="M98.8262 321.93L101.376 308.823L101.386 308.757H105.356L105.338 308.823L102.788 321.93H98.8262Z" fill="#263238"/>
<path d="M90.3399 320.415L89.0508 308.757H92.8616L90.3399 320.415Z" fill="#263238"/>
<path d="M120.092 227.045L110.354 250.004L112.781 277.358L99.5703 297.466H102.403L117.006 279.465L119.057 261.832L131.309 279.588L130.029 297.466H132.993L136.107 275.692L125.108 252.733L133.407 237.217L120.092 227.045Z" fill="#263238"/>
<path d="M125.455 233.481C125.455 233.481 127.393 223.46 131.317 222.51C132.71 222.171 137.622 226.913 137.593 230.254C137.565 233.594 127.026 235.514 127.026 235.514L125.455 233.481Z" fill="#263238"/>
<path d="M120.092 227.045C120.092 227.045 108.152 226.104 106.486 226.584C104.821 227.064 106.072 239.306 106.072 239.306L108.048 239.842C108.048 239.842 107.926 229.765 108.528 229.774C109.13 229.783 119.415 232.738 119.415 232.738L120.092 227.045Z" fill="#263238"/>
<path d="M133.416 237.188C134.762 238.186 130.594 255.17 130.594 255.17L134.687 264.071L133.746 264.664C133.746 264.664 127.846 257.137 127.159 255.49C125.766 252.234 128.326 241.122 128.326 241.122L133.416 237.188Z" fill="#263238"/>
<path d="M151.841 280.811L152.838 279.418L93.7845 225.756L92.7871 227.139L151.841 280.811Z" fill="#263238"/>
<path d="M152.602 275.88L149.102 280.275C149.102 280.275 154.032 285.6 158.125 285.29C158.125 285.29 158.078 281.366 152.602 275.88Z" fill="#263238"/>
<path d="M133.822 263.29C133.822 263.29 137.247 264.297 137.096 265.219C136.946 266.141 136.428 267.572 135.845 267.647C135.262 267.722 133.709 264.664 133.709 264.664L133.822 263.29Z" fill="#263238"/>
<path d="M106.232 238.186C106.232 238.186 105.687 239.786 107.446 241.583C109.206 243.38 109.968 241.583 109.968 241.583L106.232 238.186Z" fill="#263238"/>
<path d="M94.6016 297.466H195.716L190.183 294.831C190.183 294.831 184.792 285.506 181.865 283.389C178.939 281.272 173.048 276.229 171.148 275.862C169.247 275.495 168.551 271.768 166.716 271.768C164.881 271.768 155.735 285.262 155.735 285.262C154.808 286.667 153.572 287.842 152.122 288.696C150.136 289.637 146.805 294.784 146.805 294.784C146.805 294.784 116.799 295.584 94.6016 297.466Z" fill="#263238"/>
<path d="M245.004 347.336L235.708 359.277L232.377 358.768L242.182 347.336H245.004Z" fill="#0033EA"/>
<path opacity="0.3" d="M245.004 347.336L235.708 359.277L232.377 358.768L242.182 347.336H245.004Z" fill="black"/>
<path d="M242.18 336.045L232.884 347.985L229.553 347.477L239.357 336.045H242.18Z" fill="#0033EA"/>
<path opacity="0.3" d="M242.18 336.045L232.884 347.985L229.553 347.477L239.357 336.045H242.18Z" fill="black"/>
<path d="M215.449 329.928H175.299L184.718 354.798H224.868L215.449 329.928Z" fill="#0033EA"/>
<path opacity="0.3" d="M215.449 329.928H175.299L184.718 354.798H224.868L215.449 329.928Z" fill="black"/>
<path d="M246.623 345.388H182.836V348.597H246.623V345.388Z" fill="#0033EA"/>
<path opacity="0.2" d="M207.319 345.388H182.836V348.597H207.319V345.388Z" fill="black"/>
<path d="M242.859 335.969H179.072V339.178H242.859V335.969Z" fill="#0033EA"/>
<path opacity="0.2" d="M203.556 335.969H179.072V339.178H203.556V335.969Z" fill="black"/>
<path d="M175.365 330.098L173.135 332.685L181.603 354.864H184.915L175.365 330.098Z" fill="#0033EA"/>
<path d="M262.702 343.102L267.012 344.174C266.847 343.007 266.352 341.911 265.586 341.016C264.819 340.121 263.812 339.463 262.684 339.122C261.338 338.812 259.926 338.996 258.705 339.64C257.484 340.284 256.535 341.346 256.031 342.631C255.66 343.524 255.559 344.505 255.739 345.454L229.76 361.093C226.711 358.533 223.107 360.462 221.621 362.542L225.911 363.586C226.159 363.64 226.393 363.743 226.599 363.89C226.806 364.036 226.98 364.223 227.113 364.439C227.246 364.654 227.333 364.895 227.371 365.145C227.409 365.395 227.396 365.651 227.332 365.896C227.269 366.141 227.157 366.371 227.002 366.571C226.848 366.772 226.655 366.94 226.435 367.064C226.214 367.188 225.971 367.267 225.719 367.295C225.468 367.323 225.213 367.3 224.97 367.228L220.68 366.155C220.847 367.321 221.342 368.416 222.109 369.311C222.875 370.206 223.881 370.864 225.008 371.208C226.351 371.547 227.771 371.392 229.009 370.772C230.247 370.152 231.222 369.108 231.755 367.83C232.149 367.001 232.283 366.073 232.14 365.167L258.12 349.528C260.679 351.279 264.707 350.008 266.165 347.929L261.827 346.8C261.583 346.742 261.353 346.637 261.15 346.489C260.947 346.342 260.775 346.155 260.645 345.94C260.516 345.726 260.43 345.487 260.394 345.239C260.358 344.99 260.372 344.737 260.435 344.494C260.551 344.009 260.855 343.59 261.28 343.328C261.706 343.067 262.217 342.986 262.702 343.102Z" fill="#0033EA"/>
<path opacity="0.6" d="M262.702 343.102L267.012 344.174C266.847 343.007 266.352 341.911 265.586 341.016C264.819 340.121 263.812 339.463 262.684 339.122C261.338 338.812 259.926 338.996 258.705 339.64C257.484 340.284 256.535 341.346 256.031 342.631C255.66 343.524 255.559 344.505 255.739 345.454L229.76 361.093C226.711 358.533 223.107 360.462 221.621 362.542L225.911 363.586C226.159 363.64 226.393 363.743 226.599 363.89C226.806 364.036 226.98 364.223 227.113 364.439C227.246 364.654 227.333 364.895 227.371 365.145C227.409 365.395 227.396 365.651 227.332 365.896C227.269 366.141 227.157 366.371 227.002 366.571C226.848 366.772 226.655 366.94 226.435 367.064C226.214 367.188 225.971 367.267 225.719 367.295C225.468 367.323 225.213 367.3 224.97 367.228L220.68 366.155C220.847 367.321 221.342 368.416 222.109 369.311C222.875 370.206 223.881 370.864 225.008 371.208C226.351 371.547 227.771 371.392 229.009 370.772C230.247 370.152 231.222 369.108 231.755 367.83C232.149 367.001 232.283 366.073 232.14 365.167L258.12 349.528C260.679 351.279 264.707 350.008 266.165 347.929L261.827 346.8C261.583 346.742 261.353 346.637 261.15 346.489C260.947 346.342 260.775 346.155 260.645 345.94C260.516 345.726 260.43 345.487 260.394 345.239C260.358 344.99 260.372 344.737 260.435 344.494C260.551 344.009 260.855 343.59 261.28 343.328C261.706 343.067 262.217 342.986 262.702 343.102Z" fill="white"/>
<path d="M254.159 354.798H184.717V375.075H254.159V354.798Z" fill="#0033EA"/>
<path opacity="0.2" d="M212.023 354.798H184.717V375.075H212.023V354.798Z" fill="black"/>
<path d="M160.328 369.919L157.195 366.776C156.728 367.863 156.583 369.062 156.777 370.229C156.97 371.396 157.494 372.484 158.286 373.363C159.281 374.325 160.589 374.897 161.971 374.975C163.353 375.052 164.717 374.63 165.814 373.786C166.589 373.211 167.18 372.423 167.517 371.518L197.834 371.565C199.123 375.329 203.207 375.546 205.56 374.529L202.417 371.415C202.069 371.063 201.874 370.588 201.874 370.093C201.874 369.598 202.069 369.123 202.417 368.771C202.769 368.42 203.246 368.224 203.744 368.224C204.241 368.224 204.718 368.42 205.07 368.771L208.213 371.914C208.678 370.825 208.822 369.627 208.627 368.459C208.432 367.292 207.906 366.205 207.112 365.327C206.138 364.34 204.841 363.737 203.459 363.628C202.076 363.519 200.701 363.912 199.585 364.734C198.817 365.241 198.223 365.97 197.881 366.823L167.555 366.776C166.266 363.953 162.191 363.012 159.839 363.953L162.972 367.162C163.15 367.337 163.291 367.546 163.388 367.776C163.484 368.006 163.534 368.253 163.534 368.503C163.534 368.752 163.484 368.999 163.388 369.229C163.291 369.46 163.15 369.668 162.972 369.844C162.63 370.201 162.161 370.41 161.666 370.424C161.171 370.438 160.69 370.257 160.328 369.919Z" fill="#0033EA"/>
<path opacity="0.6" d="M160.328 369.919L157.195 366.776C156.728 367.863 156.583 369.062 156.777 370.229C156.97 371.396 157.494 372.484 158.286 373.363C159.281 374.325 160.589 374.897 161.971 374.975C163.353 375.052 164.717 374.63 165.814 373.786C166.589 373.211 167.18 372.423 167.517 371.518L197.834 371.565C199.123 375.329 203.207 375.546 205.56 374.529L202.417 371.415C202.069 371.063 201.874 370.588 201.874 370.093C201.874 369.598 202.069 369.123 202.417 368.771C202.769 368.42 203.246 368.224 203.744 368.224C204.241 368.224 204.718 368.42 205.07 368.771L208.213 371.914C208.678 370.825 208.822 369.627 208.627 368.459C208.432 367.292 207.906 366.205 207.112 365.327C206.138 364.34 204.841 363.737 203.459 363.628C202.076 363.519 200.701 363.912 199.585 364.734C198.817 365.241 198.223 365.97 197.881 366.823L167.555 366.776C166.266 363.953 162.191 363.012 159.839 363.953L162.972 367.162C163.15 367.337 163.291 367.546 163.388 367.776C163.484 368.006 163.534 368.253 163.534 368.503C163.534 368.752 163.484 368.999 163.388 369.229C163.291 369.46 163.15 369.668 162.972 369.844C162.63 370.201 162.161 370.41 161.666 370.424C161.171 370.438 160.69 370.257 160.328 369.919Z" fill="white"/>
</svg>
