<svg width="534" height="484" viewBox="0 0 534 484" fill="none" xmlns="http://www.w3.org/2000/svg">
<g filter="url(#filter0_d)">
<rect x="25" y="25" width="463.175" height="413.994" rx="5" fill="white"/>
</g>
<path d="M25 30C25 27.2386 27.2386 25 30 25H483.175C485.937 25 488.175 27.2386 488.175 30V49.9019H25V30Z" fill="#EFEFEF"/>
<circle cx="44.2977" cy="37.4512" r="6.22548" fill="#FFD704"/>
<circle cx="44.2977" cy="37.4512" r="6.22548" fill="#FFD704"/>
<circle cx="44.2977" cy="37.4512" r="6.22548" fill="#FFD704"/>
<circle cx="44.2977" cy="37.4512" r="6.22548" fill="#FFD704"/>
<circle cx="44.2977" cy="37.4512" r="6.22548" fill="#FFD704"/>
<circle cx="68.577" cy="37.4508" r="6.22548" fill="#C4C4C4"/>
<circle cx="92.8583" cy="37.4508" r="6.22548" fill="#EA0000"/>
<g filter="url(#filter1_d)">
<rect x="44" y="85" width="135" height="150" fill="white"/>
<rect x="191" y="85" width="134" height="150" fill="white"/>
<rect x="337" y="85" width="135" height="150" fill="white"/>
<rect x="44" y="247" width="135" height="150" fill="white"/>
<rect x="191" y="247" width="134" height="150" fill="white"/>
<rect x="337" y="247" width="135" height="150" fill="white"/>
</g>
<rect x="89" y="188" width="18" height="31" fill="#0033EA" fill-opacity="0.7"/>
<rect x="117" y="168" width="18" height="51" fill="#EA0000" fill-opacity="0.7"/>
<rect x="145" y="133" width="18" height="86" fill="#C4C4C4"/>
<rect x="61" y="201" width="18" height="18" fill="#0033EA" fill-opacity="0.7"/>
<rect x="235" y="367" width="18" height="15" fill="#EA0000" fill-opacity="0.7"/>
<rect x="263" y="373" width="18" height="9" fill="#EA0000" fill-opacity="0.7"/>
<rect x="291" y="379" width="18" height="3" fill="#EA0000" fill-opacity="0.7"/>
<rect x="207" y="375.302" width="18" height="6.69767" fill="#EA0000" fill-opacity="0.7"/>
<path d="M76.5861 96.9V106H77.6131V96.9H76.5861Z" fill="#C4C4C4"/>
<path d="M81.1103 102.152C81.1103 101.84 81.158 101.554 81.2533 101.294C81.3573 101.034 81.5003 100.813 81.6823 100.631C81.8643 100.44 82.0767 100.297 82.3193 100.202C82.5707 100.098 82.8393 100.046 83.1253 100.046C83.7233 100.046 84.1827 100.228 84.5033 100.592C84.824 100.956 84.9843 101.45 84.9843 102.074V106H85.9853V101.827C85.9853 101.428 85.9247 101.064 85.8033 100.735C85.6907 100.406 85.5217 100.124 85.2963 99.89C85.0797 99.6473 84.811 99.461 84.4903 99.331C84.1783 99.201 83.8187 99.136 83.4113 99.136C82.8307 99.136 82.3583 99.266 81.9943 99.526C81.6303 99.7773 81.3357 100.085 81.1103 100.449V99.279H80.1093V106H81.1103V102.152Z" fill="#C4C4C4"/>
<path d="M92.7351 104.115V104.089C92.7351 103.786 92.6701 103.53 92.5401 103.322C92.4187 103.114 92.2541 102.936 92.0461 102.789C91.8381 102.642 91.6041 102.52 91.3441 102.425C91.0927 102.33 90.8371 102.243 90.5771 102.165C90.3517 102.096 90.1351 102.026 89.9271 101.957C89.7191 101.888 89.5327 101.81 89.3681 101.723C89.2121 101.636 89.0864 101.537 88.9911 101.424C88.8957 101.303 88.8481 101.164 88.8481 101.008V100.982C88.8481 100.705 88.9651 100.475 89.1991 100.293C89.4331 100.102 89.7494 100.007 90.1481 100.007C90.4774 100.007 90.8111 100.068 91.1491 100.189C91.4957 100.302 91.8251 100.458 92.1371 100.657L92.5921 99.903C92.2454 99.6777 91.8597 99.5 91.4351 99.37C91.0104 99.2313 90.5901 99.162 90.1741 99.162C89.8447 99.162 89.5371 99.2097 89.2511 99.305C88.9737 99.3917 88.7311 99.5217 88.5231 99.695C88.3237 99.8597 88.1677 100.063 88.0551 100.306C87.9424 100.54 87.8861 100.8 87.8861 101.086V101.112C87.8861 101.424 87.9511 101.684 88.0811 101.892C88.2197 102.1 88.3931 102.273 88.6011 102.412C88.8177 102.551 89.0561 102.668 89.3161 102.763C89.5847 102.85 89.8491 102.932 90.1091 103.01C90.3257 103.071 90.5337 103.136 90.7331 103.205C90.9411 103.274 91.1231 103.357 91.2791 103.452C91.4351 103.539 91.5564 103.643 91.6431 103.764C91.7384 103.885 91.7861 104.028 91.7861 104.193V104.219C91.7861 104.548 91.6561 104.808 91.3961 104.999C91.1361 105.19 90.8024 105.285 90.3951 105.285C89.9964 105.285 89.5977 105.211 89.1991 105.064C88.8091 104.917 88.4321 104.704 88.0681 104.427L87.5611 105.142C87.9424 105.445 88.3801 105.688 88.8741 105.87C89.3681 106.043 89.8577 106.13 90.3431 106.13C90.6811 106.13 90.9931 106.087 91.2791 106C91.5737 105.905 91.8251 105.77 92.0331 105.597C92.2497 105.424 92.4187 105.216 92.5401 104.973C92.6701 104.722 92.7351 104.436 92.7351 104.115Z" fill="#C4C4C4"/>
<path d="M101.381 102.633C101.381 102.078 101.29 101.584 101.108 101.151C100.926 100.718 100.683 100.354 100.38 100.059C100.076 99.7557 99.7297 99.526 99.3397 99.37C98.9583 99.214 98.5683 99.136 98.1697 99.136C97.8577 99.136 97.5717 99.1793 97.3117 99.266C97.0603 99.344 96.8307 99.4523 96.6227 99.591C96.4147 99.721 96.224 99.877 96.0507 100.059C95.886 100.241 95.7343 100.432 95.5957 100.631V99.279H94.5947V108.08H95.5957V104.713C95.7257 104.904 95.873 105.086 96.0377 105.259C96.211 105.432 96.4017 105.584 96.6097 105.714C96.8177 105.844 97.0517 105.948 97.3117 106.026C97.5717 106.104 97.8577 106.143 98.1697 106.143C98.577 106.143 98.9713 106.065 99.3527 105.909C99.7427 105.744 100.085 105.515 100.38 105.22C100.683 104.917 100.926 104.548 101.108 104.115C101.29 103.682 101.381 103.188 101.381 102.633ZM100.354 102.646C100.354 103.053 100.289 103.422 100.159 103.751C100.037 104.072 99.8683 104.345 99.6517 104.57C99.4437 104.787 99.1923 104.956 98.8977 105.077C98.6117 105.19 98.3083 105.246 97.9877 105.246C97.6757 105.246 97.3723 105.185 97.0777 105.064C96.7917 104.934 96.5317 104.756 96.2977 104.531C96.0723 104.306 95.8903 104.033 95.7517 103.712C95.6217 103.383 95.5567 103.023 95.5567 102.633C95.5567 102.243 95.6217 101.888 95.7517 101.567C95.8903 101.246 96.0723 100.973 96.2977 100.748C96.5317 100.523 96.7917 100.349 97.0777 100.228C97.3723 100.098 97.6757 100.033 97.9877 100.033C98.3083 100.033 98.6117 100.094 98.8977 100.215C99.1837 100.336 99.435 100.514 99.6517 100.748C99.8683 100.973 100.037 101.246 100.159 101.567C100.289 101.888 100.354 102.247 100.354 102.646Z" fill="#C4C4C4"/>
<path d="M103.825 103.01H109.155C109.164 102.949 109.168 102.893 109.168 102.841C109.168 102.789 109.168 102.741 109.168 102.698C109.168 102.204 109.099 101.74 108.96 101.307C108.822 100.874 108.618 100.497 108.349 100.176C108.081 99.8553 107.751 99.604 107.361 99.422C106.971 99.2313 106.529 99.136 106.035 99.136C105.567 99.136 105.134 99.227 104.735 99.409C104.345 99.591 104.007 99.8423 103.721 100.163C103.435 100.475 103.21 100.848 103.045 101.281C102.889 101.706 102.811 102.161 102.811 102.646C102.811 103.166 102.898 103.643 103.071 104.076C103.253 104.509 103.496 104.882 103.799 105.194C104.103 105.497 104.458 105.736 104.865 105.909C105.273 106.074 105.706 106.156 106.165 106.156C106.807 106.156 107.344 106.043 107.777 105.818C108.211 105.584 108.596 105.276 108.934 104.895L108.31 104.336C108.033 104.622 107.725 104.852 107.387 105.025C107.058 105.198 106.659 105.285 106.191 105.285C105.897 105.285 105.615 105.237 105.346 105.142C105.078 105.038 104.835 104.891 104.618 104.7C104.402 104.501 104.224 104.262 104.085 103.985C103.947 103.699 103.86 103.374 103.825 103.01ZM103.825 102.269C103.86 101.94 103.938 101.636 104.059 101.359C104.181 101.082 104.337 100.843 104.527 100.644C104.718 100.436 104.939 100.276 105.19 100.163C105.442 100.042 105.715 99.981 106.009 99.981C106.347 99.981 106.642 100.046 106.893 100.176C107.153 100.297 107.37 100.462 107.543 100.67C107.725 100.878 107.864 101.121 107.959 101.398C108.063 101.675 108.128 101.966 108.154 102.269H103.825Z" fill="#C4C4C4"/>
<path d="M116.693 104.856L116.056 104.258C115.787 104.544 115.484 104.782 115.146 104.973C114.817 105.164 114.435 105.259 114.002 105.259C113.647 105.259 113.317 105.194 113.014 105.064C112.719 104.925 112.459 104.739 112.234 104.505C112.017 104.262 111.844 103.981 111.714 103.66C111.593 103.339 111.532 102.997 111.532 102.633C111.532 102.269 111.593 101.931 111.714 101.619C111.835 101.298 112.004 101.021 112.221 100.787C112.438 100.544 112.693 100.358 112.988 100.228C113.283 100.089 113.599 100.02 113.937 100.02C114.396 100.02 114.782 100.12 115.094 100.319C115.415 100.518 115.709 100.757 115.978 101.034L116.641 100.332C116.485 100.167 116.316 100.011 116.134 99.864C115.952 99.7167 115.753 99.591 115.536 99.487C115.319 99.3743 115.081 99.2877 114.821 99.227C114.561 99.1663 114.271 99.136 113.95 99.136C113.456 99.136 112.997 99.2313 112.572 99.422C112.156 99.604 111.792 99.8553 111.48 100.176C111.177 100.497 110.938 100.874 110.765 101.307C110.592 101.732 110.505 102.182 110.505 102.659C110.505 103.136 110.592 103.586 110.765 104.011C110.938 104.436 111.177 104.808 111.48 105.129C111.792 105.441 112.156 105.692 112.572 105.883C112.997 106.065 113.456 106.156 113.95 106.156C114.583 106.156 115.111 106.035 115.536 105.792C115.969 105.549 116.355 105.237 116.693 104.856Z" fill="#C4C4C4"/>
<path d="M119.7 100.163H121.832V99.279H119.7V97.251H118.699V99.279H117.763V100.163H118.699V104.219C118.699 104.557 118.746 104.847 118.842 105.09C118.937 105.333 119.067 105.532 119.232 105.688C119.405 105.835 119.609 105.944 119.843 106.013C120.077 106.082 120.328 106.117 120.597 106.117C120.839 106.117 121.056 106.091 121.247 106.039C121.446 105.996 121.632 105.926 121.806 105.831V104.973C121.632 105.06 121.468 105.12 121.312 105.155C121.164 105.19 121.004 105.207 120.831 105.207C120.493 105.207 120.22 105.125 120.012 104.96C119.804 104.795 119.7 104.505 119.7 104.089V100.163Z" fill="#C4C4C4"/>
<path d="M124.773 97.81V96.705H123.629V97.81H124.773ZM124.695 106V99.279H123.694V106H124.695Z" fill="#C4C4C4"/>
<path d="M133.61 102.633C133.61 102.156 133.523 101.706 133.349 101.281C133.176 100.856 132.934 100.488 132.622 100.176C132.31 99.8553 131.937 99.604 131.504 99.422C131.079 99.2313 130.615 99.136 130.112 99.136C129.601 99.136 129.129 99.2313 128.695 99.422C128.271 99.604 127.903 99.8553 127.59 100.176C127.278 100.497 127.036 100.874 126.862 101.307C126.689 101.732 126.603 102.182 126.603 102.659C126.603 103.136 126.689 103.586 126.862 104.011C127.036 104.436 127.278 104.808 127.59 105.129C127.903 105.441 128.271 105.692 128.695 105.883C129.12 106.065 129.584 106.156 130.087 106.156C130.589 106.156 131.057 106.065 131.491 105.883C131.924 105.692 132.297 105.437 132.609 105.116C132.921 104.795 133.163 104.423 133.337 103.998C133.519 103.565 133.61 103.11 133.61 102.633ZM132.583 102.659C132.583 103.023 132.522 103.365 132.401 103.686C132.279 103.998 132.11 104.271 131.894 104.505C131.677 104.739 131.417 104.925 131.113 105.064C130.81 105.194 130.476 105.259 130.112 105.259C129.757 105.259 129.428 105.19 129.125 105.051C128.821 104.912 128.557 104.726 128.332 104.492C128.115 104.258 127.942 103.981 127.812 103.66C127.69 103.339 127.63 102.997 127.63 102.633C127.63 102.269 127.69 101.931 127.812 101.619C127.933 101.298 128.097 101.021 128.306 100.787C128.522 100.544 128.782 100.358 129.085 100.228C129.389 100.089 129.723 100.02 130.087 100.02C130.442 100.02 130.771 100.089 131.075 100.228C131.378 100.367 131.642 100.557 131.868 100.8C132.093 101.034 132.266 101.311 132.388 101.632C132.518 101.953 132.583 102.295 132.583 102.659Z" fill="#C4C4C4"/>
<path d="M136.424 102.152C136.424 101.84 136.471 101.554 136.567 101.294C136.671 101.034 136.814 100.813 136.996 100.631C137.178 100.44 137.39 100.297 137.633 100.202C137.884 100.098 138.153 100.046 138.439 100.046C139.037 100.046 139.496 100.228 139.817 100.592C140.137 100.956 140.298 101.45 140.298 102.074V106H141.299V101.827C141.299 101.428 141.238 101.064 141.117 100.735C141.004 100.406 140.835 100.124 140.61 99.89C140.393 99.6473 140.124 99.461 139.804 99.331C139.492 99.201 139.132 99.136 138.725 99.136C138.144 99.136 137.672 99.266 137.308 99.526C136.944 99.7773 136.649 100.085 136.424 100.449V99.279H135.423V106H136.424V102.152Z" fill="#C4C4C4"/>
<path d="M148.049 104.115V104.089C148.049 103.786 147.984 103.53 147.854 103.322C147.732 103.114 147.568 102.936 147.36 102.789C147.152 102.642 146.918 102.52 146.658 102.425C146.406 102.33 146.151 102.243 145.891 102.165C145.665 102.096 145.449 102.026 145.241 101.957C145.033 101.888 144.846 101.81 144.682 101.723C144.526 101.636 144.4 101.537 144.305 101.424C144.209 101.303 144.162 101.164 144.162 101.008V100.982C144.162 100.705 144.279 100.475 144.513 100.293C144.747 100.102 145.063 100.007 145.462 100.007C145.791 100.007 146.125 100.068 146.463 100.189C146.809 100.302 147.139 100.458 147.451 100.657L147.906 99.903C147.559 99.6777 147.173 99.5 146.749 99.37C146.324 99.2313 145.904 99.162 145.488 99.162C145.158 99.162 144.851 99.2097 144.565 99.305C144.287 99.3917 144.045 99.5217 143.837 99.695C143.637 99.8597 143.481 100.063 143.369 100.306C143.256 100.54 143.2 100.8 143.2 101.086V101.112C143.2 101.424 143.265 101.684 143.395 101.892C143.533 102.1 143.707 102.273 143.915 102.412C144.131 102.551 144.37 102.668 144.63 102.763C144.898 102.85 145.163 102.932 145.423 103.01C145.639 103.071 145.847 103.136 146.047 103.205C146.255 103.274 146.437 103.357 146.593 103.452C146.749 103.539 146.87 103.643 146.957 103.764C147.052 103.885 147.1 104.028 147.1 104.193V104.219C147.1 104.548 146.97 104.808 146.71 104.999C146.45 105.19 146.116 105.285 145.709 105.285C145.31 105.285 144.911 105.211 144.513 105.064C144.123 104.917 143.746 104.704 143.382 104.427L142.875 105.142C143.256 105.445 143.694 105.688 144.188 105.87C144.682 106.043 145.171 106.13 145.657 106.13C145.995 106.13 146.307 106.087 146.593 106C146.887 105.905 147.139 105.77 147.347 105.597C147.563 105.424 147.732 105.216 147.854 104.973C147.984 104.722 148.049 104.436 148.049 104.115Z" fill="#C4C4C4"/>
<path d="M239.875 96.835H238.913L234.766 106H235.819L236.898 103.595H241.851L242.917 106H244.022L239.875 96.835ZM241.448 102.672H237.301L239.381 98.031L241.448 102.672Z" fill="#C4C4C4"/>
<path d="M246.648 103.322C246.648 102.819 246.718 102.377 246.856 101.996C246.995 101.606 247.186 101.281 247.428 101.021C247.671 100.761 247.953 100.566 248.273 100.436C248.603 100.306 248.949 100.241 249.313 100.241H249.391V99.162C249.071 99.1533 248.772 99.1923 248.494 99.279C248.217 99.3657 247.961 99.4957 247.727 99.669C247.493 99.8337 247.285 100.033 247.103 100.267C246.921 100.501 246.77 100.757 246.648 101.034V99.279H245.647V106H246.648V103.322Z" fill="#C4C4C4"/>
<path d="M251.917 103.322C251.917 102.819 251.986 102.377 252.125 101.996C252.264 101.606 252.454 101.281 252.697 101.021C252.94 100.761 253.221 100.566 253.542 100.436C253.871 100.306 254.218 100.241 254.582 100.241H254.66V99.162C254.339 99.1533 254.04 99.1923 253.763 99.279C253.486 99.3657 253.23 99.4957 252.996 99.669C252.762 99.8337 252.554 100.033 252.372 100.267C252.19 100.501 252.038 100.757 251.917 101.034V99.279H250.916V106H251.917V103.322Z" fill="#C4C4C4"/>
<path d="M256.491 103.01H261.821C261.829 102.949 261.834 102.893 261.834 102.841C261.834 102.789 261.834 102.741 261.834 102.698C261.834 102.204 261.764 101.74 261.626 101.307C261.487 100.874 261.283 100.497 261.015 100.176C260.746 99.8553 260.417 99.604 260.027 99.422C259.637 99.2313 259.195 99.136 258.701 99.136C258.233 99.136 257.799 99.227 257.401 99.409C257.011 99.591 256.673 99.8423 256.387 100.163C256.101 100.475 255.875 100.848 255.711 101.281C255.555 101.706 255.477 102.161 255.477 102.646C255.477 103.166 255.563 103.643 255.737 104.076C255.919 104.509 256.161 104.882 256.465 105.194C256.768 105.497 257.123 105.736 257.531 105.909C257.938 106.074 258.371 106.156 258.831 106.156C259.472 106.156 260.009 106.043 260.443 105.818C260.876 105.584 261.262 105.276 261.6 104.895L260.976 104.336C260.698 104.622 260.391 104.852 260.053 105.025C259.723 105.198 259.325 105.285 258.857 105.285C258.562 105.285 258.28 105.237 258.012 105.142C257.743 105.038 257.5 104.891 257.284 104.7C257.067 104.501 256.889 104.262 256.751 103.985C256.612 103.699 256.525 103.374 256.491 103.01ZM256.491 102.269C256.525 101.94 256.603 101.636 256.725 101.359C256.846 101.082 257.002 100.843 257.193 100.644C257.383 100.436 257.604 100.276 257.856 100.163C258.107 100.042 258.38 99.981 258.675 99.981C259.013 99.981 259.307 100.046 259.559 100.176C259.819 100.297 260.035 100.462 260.209 100.67C260.391 100.878 260.529 101.121 260.625 101.398C260.729 101.675 260.794 101.966 260.82 102.269H256.491Z" fill="#C4C4C4"/>
<path d="M266.017 100.072C266.65 100.072 267.139 100.228 267.486 100.54C267.841 100.843 268.019 101.298 268.019 101.905V102.139C267.716 102.052 267.404 101.983 267.083 101.931C266.762 101.879 266.385 101.853 265.952 101.853C265.527 101.853 265.137 101.901 264.782 101.996C264.435 102.091 264.132 102.23 263.872 102.412C263.621 102.594 263.426 102.824 263.287 103.101C263.148 103.37 263.079 103.682 263.079 104.037C263.079 104.392 263.148 104.7 263.287 104.96C263.434 105.22 263.625 105.441 263.859 105.623C264.102 105.796 264.37 105.926 264.665 106.013C264.968 106.1 265.276 106.143 265.588 106.143C266.186 106.143 266.68 106.026 267.07 105.792C267.469 105.558 267.785 105.289 268.019 104.986V106H268.981V101.892C268.981 100.999 268.734 100.328 268.24 99.877C267.746 99.4177 267.04 99.188 266.121 99.188C265.627 99.188 265.189 99.24 264.808 99.344C264.427 99.4393 264.05 99.5737 263.677 99.747L263.976 100.566C264.288 100.419 264.604 100.302 264.925 100.215C265.254 100.12 265.618 100.072 266.017 100.072ZM266.056 102.594C266.472 102.594 266.84 102.624 267.161 102.685C267.49 102.746 267.781 102.811 268.032 102.88V103.53C268.032 103.799 267.971 104.046 267.85 104.271C267.737 104.488 267.577 104.678 267.369 104.843C267.17 104.999 266.931 105.125 266.654 105.22C266.385 105.307 266.095 105.35 265.783 105.35C265.558 105.35 265.341 105.32 265.133 105.259C264.934 105.198 264.756 105.112 264.6 104.999C264.444 104.878 264.318 104.735 264.223 104.57C264.136 104.405 264.093 104.215 264.093 103.998C264.093 103.565 264.262 103.222 264.6 102.971C264.938 102.72 265.423 102.594 266.056 102.594Z" fill="#C4C4C4"/>
<path d="M272.115 103.322C272.115 102.819 272.185 102.377 272.323 101.996C272.462 101.606 272.653 101.281 272.895 101.021C273.138 100.761 273.42 100.566 273.74 100.436C274.07 100.306 274.416 100.241 274.78 100.241H274.858V99.162C274.538 99.1533 274.239 99.1923 273.961 99.279C273.684 99.3657 273.428 99.4957 273.194 99.669C272.96 99.8337 272.752 100.033 272.57 100.267C272.388 100.501 272.237 100.757 272.115 101.034V99.279H271.114V106H272.115V103.322Z" fill="#C4C4C4"/>
<path d="M280.998 104.115V104.089C280.998 103.786 280.933 103.53 280.803 103.322C280.681 103.114 280.517 102.936 280.309 102.789C280.101 102.642 279.867 102.52 279.607 102.425C279.355 102.33 279.1 102.243 278.84 102.165C278.614 102.096 278.398 102.026 278.19 101.957C277.982 101.888 277.795 101.81 277.631 101.723C277.475 101.636 277.349 101.537 277.254 101.424C277.158 101.303 277.111 101.164 277.111 101.008V100.982C277.111 100.705 277.228 100.475 277.462 100.293C277.696 100.102 278.012 100.007 278.411 100.007C278.74 100.007 279.074 100.068 279.412 100.189C279.758 100.302 280.088 100.458 280.4 100.657L280.855 99.903C280.508 99.6777 280.122 99.5 279.698 99.37C279.273 99.2313 278.853 99.162 278.437 99.162C278.107 99.162 277.8 99.2097 277.514 99.305C277.236 99.3917 276.994 99.5217 276.786 99.695C276.586 99.8597 276.43 100.063 276.318 100.306C276.205 100.54 276.149 100.8 276.149 101.086V101.112C276.149 101.424 276.214 101.684 276.344 101.892C276.482 102.1 276.656 102.273 276.864 102.412C277.08 102.551 277.319 102.668 277.579 102.763C277.847 102.85 278.112 102.932 278.372 103.01C278.588 103.071 278.796 103.136 278.996 103.205C279.204 103.274 279.386 103.357 279.542 103.452C279.698 103.539 279.819 103.643 279.906 103.764C280.001 103.885 280.049 104.028 280.049 104.193V104.219C280.049 104.548 279.919 104.808 279.659 104.999C279.399 105.19 279.065 105.285 278.658 105.285C278.259 105.285 277.86 105.211 277.462 105.064C277.072 104.917 276.695 104.704 276.331 104.427L275.824 105.142C276.205 105.445 276.643 105.688 277.137 105.87C277.631 106.043 278.12 106.13 278.606 106.13C278.944 106.13 279.256 106.087 279.542 106C279.836 105.905 280.088 105.77 280.296 105.597C280.512 105.424 280.681 105.216 280.803 104.973C280.933 104.722 280.998 104.436 280.998 104.115Z" fill="#C4C4C4"/>
<path d="M375.5 104.557L374.824 103.894C374.391 104.31 373.949 104.635 373.498 104.869C373.048 105.094 372.51 105.207 371.886 105.207C371.384 105.207 370.916 105.112 370.482 104.921C370.058 104.722 369.685 104.453 369.364 104.115C369.052 103.777 368.805 103.378 368.623 102.919C368.45 102.46 368.363 101.966 368.363 101.437C368.363 100.908 368.45 100.419 368.623 99.968C368.805 99.5087 369.052 99.11 369.364 98.772C369.685 98.434 370.058 98.1697 370.482 97.979C370.916 97.7883 371.384 97.693 371.886 97.693C372.51 97.693 373.043 97.81 373.485 98.044C373.936 98.278 374.356 98.577 374.746 98.941L375.448 98.187C375.223 97.9703 374.989 97.7753 374.746 97.602C374.504 97.42 374.239 97.2683 373.953 97.147C373.667 97.017 373.355 96.9173 373.017 96.848C372.688 96.7787 372.315 96.744 371.899 96.744C371.232 96.744 370.617 96.8697 370.053 97.121C369.49 97.3637 369.005 97.7017 368.597 98.135C368.19 98.5597 367.869 99.058 367.635 99.63C367.41 100.202 367.297 100.813 367.297 101.463C367.297 102.122 367.41 102.737 367.635 103.309C367.869 103.881 368.19 104.379 368.597 104.804C369.005 105.22 369.486 105.549 370.04 105.792C370.595 106.035 371.202 106.156 371.86 106.156C372.276 106.156 372.653 106.117 372.991 106.039C373.329 105.961 373.646 105.853 373.94 105.714C374.235 105.575 374.508 105.411 374.759 105.22C375.019 105.021 375.266 104.8 375.5 104.557Z" fill="#C4C4C4"/>
<path d="M383.593 102.633C383.593 102.156 383.506 101.706 383.333 101.281C383.16 100.856 382.917 100.488 382.605 100.176C382.293 99.8553 381.92 99.604 381.487 99.422C381.062 99.2313 380.599 99.136 380.096 99.136C379.585 99.136 379.112 99.2313 378.679 99.422C378.254 99.604 377.886 99.8553 377.574 100.176C377.262 100.497 377.019 100.874 376.846 101.307C376.673 101.732 376.586 102.182 376.586 102.659C376.586 103.136 376.673 103.586 376.846 104.011C377.019 104.436 377.262 104.808 377.574 105.129C377.886 105.441 378.254 105.692 378.679 105.883C379.104 106.065 379.567 106.156 380.07 106.156C380.573 106.156 381.041 106.065 381.474 105.883C381.907 105.692 382.28 105.437 382.592 105.116C382.904 104.795 383.147 104.423 383.32 103.998C383.502 103.565 383.593 103.11 383.593 102.633ZM382.566 102.659C382.566 103.023 382.505 103.365 382.384 103.686C382.263 103.998 382.094 104.271 381.877 104.505C381.66 104.739 381.4 104.925 381.097 105.064C380.794 105.194 380.46 105.259 380.096 105.259C379.741 105.259 379.411 105.19 379.108 105.051C378.805 104.912 378.54 104.726 378.315 104.492C378.098 104.258 377.925 103.981 377.795 103.66C377.674 103.339 377.613 102.997 377.613 102.633C377.613 102.269 377.674 101.931 377.795 101.619C377.916 101.298 378.081 101.021 378.289 100.787C378.506 100.544 378.766 100.358 379.069 100.228C379.372 100.089 379.706 100.02 380.07 100.02C380.425 100.02 380.755 100.089 381.058 100.228C381.361 100.367 381.626 100.557 381.851 100.8C382.076 101.034 382.25 101.311 382.371 101.632C382.501 101.953 382.566 102.295 382.566 102.659Z" fill="#C4C4C4"/>
<path d="M390.736 100.475C390.554 100.094 390.286 99.7773 389.93 99.526C389.575 99.266 389.124 99.136 388.578 99.136C388.292 99.136 388.041 99.1707 387.824 99.24C387.608 99.3093 387.413 99.4047 387.239 99.526C387.066 99.6387 386.91 99.773 386.771 99.929C386.641 100.085 386.52 100.245 386.407 100.41V99.279H385.406V106H386.407V102.165C386.407 101.853 386.455 101.571 386.55 101.32C386.646 101.06 386.776 100.835 386.94 100.644C387.114 100.453 387.313 100.306 387.538 100.202C387.764 100.098 388.011 100.046 388.279 100.046C388.817 100.046 389.237 100.224 389.54 100.579C389.852 100.926 390.008 101.415 390.008 102.048V106H390.996V102.126C390.996 101.797 391.044 101.502 391.139 101.242C391.243 100.982 391.378 100.765 391.542 100.592C391.716 100.41 391.915 100.276 392.14 100.189C392.366 100.094 392.604 100.046 392.855 100.046C393.401 100.046 393.826 100.224 394.129 100.579C394.441 100.926 394.597 101.424 394.597 102.074V106H395.598V101.84C395.598 100.999 395.377 100.341 394.935 99.864C394.493 99.3787 393.882 99.136 393.102 99.136C392.808 99.136 392.539 99.1707 392.296 99.24C392.062 99.3093 391.85 99.4047 391.659 99.526C391.469 99.6473 391.295 99.7903 391.139 99.955C390.992 100.12 390.858 100.293 390.736 100.475Z" fill="#C4C4C4"/>
<path d="M404.557 102.633C404.557 102.078 404.466 101.584 404.284 101.151C404.102 100.718 403.86 100.354 403.556 100.059C403.253 99.7557 402.906 99.526 402.516 99.37C402.135 99.214 401.745 99.136 401.346 99.136C401.034 99.136 400.748 99.1793 400.488 99.266C400.237 99.344 400.007 99.4523 399.799 99.591C399.591 99.721 399.401 99.877 399.227 100.059C399.063 100.241 398.911 100.432 398.772 100.631V99.279H397.771V108.08H398.772V104.713C398.902 104.904 399.05 105.086 399.214 105.259C399.388 105.432 399.578 105.584 399.786 105.714C399.994 105.844 400.228 105.948 400.488 106.026C400.748 106.104 401.034 106.143 401.346 106.143C401.754 106.143 402.148 106.065 402.529 105.909C402.919 105.744 403.262 105.515 403.556 105.22C403.86 104.917 404.102 104.548 404.284 104.115C404.466 103.682 404.557 103.188 404.557 102.633ZM403.53 102.646C403.53 103.053 403.465 103.422 403.335 103.751C403.214 104.072 403.045 104.345 402.828 104.57C402.62 104.787 402.369 104.956 402.074 105.077C401.788 105.19 401.485 105.246 401.164 105.246C400.852 105.246 400.549 105.185 400.254 105.064C399.968 104.934 399.708 104.756 399.474 104.531C399.249 104.306 399.067 104.033 398.928 103.712C398.798 103.383 398.733 103.023 398.733 102.633C398.733 102.243 398.798 101.888 398.928 101.567C399.067 101.246 399.249 100.973 399.474 100.748C399.708 100.523 399.968 100.349 400.254 100.228C400.549 100.098 400.852 100.033 401.164 100.033C401.485 100.033 401.788 100.094 402.074 100.215C402.36 100.336 402.612 100.514 402.828 100.748C403.045 100.973 403.214 101.246 403.335 101.567C403.465 101.888 403.53 102.247 403.53 102.646Z" fill="#C4C4C4"/>
<path d="M407.496 106V96.51H406.495V106H407.496Z" fill="#C4C4C4"/>
<path d="M410.989 97.81V96.705H409.845V97.81H410.989ZM410.911 106V99.279H409.91V106H410.911Z" fill="#C4C4C4"/>
<path d="M415.665 100.072C416.298 100.072 416.788 100.228 417.134 100.54C417.49 100.843 417.667 101.298 417.667 101.905V102.139C417.364 102.052 417.052 101.983 416.731 101.931C416.411 101.879 416.034 101.853 415.6 101.853C415.176 101.853 414.786 101.901 414.43 101.996C414.084 102.091 413.78 102.23 413.52 102.412C413.269 102.594 413.074 102.824 412.935 103.101C412.797 103.37 412.727 103.682 412.727 104.037C412.727 104.392 412.797 104.7 412.935 104.96C413.083 105.22 413.273 105.441 413.507 105.623C413.75 105.796 414.019 105.926 414.313 106.013C414.617 106.1 414.924 106.143 415.236 106.143C415.834 106.143 416.328 106.026 416.718 105.792C417.117 105.558 417.433 105.289 417.667 104.986V106H418.629V101.892C418.629 100.999 418.382 100.328 417.888 99.877C417.394 99.4177 416.688 99.188 415.769 99.188C415.275 99.188 414.838 99.24 414.456 99.344C414.075 99.4393 413.698 99.5737 413.325 99.747L413.624 100.566C413.936 100.419 414.253 100.302 414.573 100.215C414.903 100.12 415.267 100.072 415.665 100.072ZM415.704 102.594C416.12 102.594 416.489 102.624 416.809 102.685C417.139 102.746 417.429 102.811 417.68 102.88V103.53C417.68 103.799 417.62 104.046 417.498 104.271C417.386 104.488 417.225 104.678 417.017 104.843C416.818 104.999 416.58 105.125 416.302 105.22C416.034 105.307 415.743 105.35 415.431 105.35C415.206 105.35 414.989 105.32 414.781 105.259C414.582 105.198 414.404 105.112 414.248 104.999C414.092 104.878 413.967 104.735 413.871 104.57C413.785 104.405 413.741 104.215 413.741 103.998C413.741 103.565 413.91 103.222 414.248 102.971C414.586 102.72 415.072 102.594 415.704 102.594Z" fill="#C4C4C4"/>
<path d="M421.764 102.152C421.764 101.84 421.811 101.554 421.907 101.294C422.011 101.034 422.154 100.813 422.336 100.631C422.518 100.44 422.73 100.297 422.973 100.202C423.224 100.098 423.493 100.046 423.779 100.046C424.377 100.046 424.836 100.228 425.157 100.592C425.477 100.956 425.638 101.45 425.638 102.074V106H426.639V101.827C426.639 101.428 426.578 101.064 426.457 100.735C426.344 100.406 426.175 100.124 425.95 99.89C425.733 99.6473 425.464 99.461 425.144 99.331C424.832 99.201 424.472 99.136 424.065 99.136C423.484 99.136 423.012 99.266 422.648 99.526C422.284 99.7773 421.989 100.085 421.764 100.449V99.279H420.763V106H421.764V102.152Z" fill="#C4C4C4"/>
<path d="M434.545 104.856L433.908 104.258C433.64 104.544 433.336 104.782 432.998 104.973C432.669 105.164 432.288 105.259 431.854 105.259C431.499 105.259 431.17 105.194 430.866 105.064C430.572 104.925 430.312 104.739 430.086 104.505C429.87 104.262 429.696 103.981 429.566 103.66C429.445 103.339 429.384 102.997 429.384 102.633C429.384 102.269 429.445 101.931 429.566 101.619C429.688 101.298 429.857 101.021 430.073 100.787C430.29 100.544 430.546 100.358 430.84 100.228C431.135 100.089 431.451 100.02 431.789 100.02C432.249 100.02 432.634 100.12 432.946 100.319C433.267 100.518 433.562 100.757 433.83 101.034L434.493 100.332C434.337 100.167 434.168 100.011 433.986 99.864C433.804 99.7167 433.605 99.591 433.388 99.487C433.172 99.3743 432.933 99.2877 432.673 99.227C432.413 99.1663 432.123 99.136 431.802 99.136C431.308 99.136 430.849 99.2313 430.424 99.422C430.008 99.604 429.644 99.8553 429.332 100.176C429.029 100.497 428.791 100.874 428.617 101.307C428.444 101.732 428.357 102.182 428.357 102.659C428.357 103.136 428.444 103.586 428.617 104.011C428.791 104.436 429.029 104.808 429.332 105.129C429.644 105.441 430.008 105.692 430.424 105.883C430.849 106.065 431.308 106.156 431.802 106.156C432.435 106.156 432.964 106.035 433.388 105.792C433.822 105.549 434.207 105.237 434.545 104.856Z" fill="#C4C4C4"/>
<path d="M436.608 103.01H441.938C441.946 102.949 441.951 102.893 441.951 102.841C441.951 102.789 441.951 102.741 441.951 102.698C441.951 102.204 441.881 101.74 441.743 101.307C441.604 100.874 441.4 100.497 441.132 100.176C440.863 99.8553 440.534 99.604 440.144 99.422C439.754 99.2313 439.312 99.136 438.818 99.136C438.35 99.136 437.916 99.227 437.518 99.409C437.128 99.591 436.79 99.8423 436.504 100.163C436.218 100.475 435.992 100.848 435.828 101.281C435.672 101.706 435.594 102.161 435.594 102.646C435.594 103.166 435.68 103.643 435.854 104.076C436.036 104.509 436.278 104.882 436.582 105.194C436.885 105.497 437.24 105.736 437.648 105.909C438.055 106.074 438.488 106.156 438.948 106.156C439.589 106.156 440.126 106.043 440.56 105.818C440.993 105.584 441.379 105.276 441.717 104.895L441.093 104.336C440.815 104.622 440.508 104.852 440.17 105.025C439.84 105.198 439.442 105.285 438.974 105.285C438.679 105.285 438.397 105.237 438.129 105.142C437.86 105.038 437.617 104.891 437.401 104.7C437.184 104.501 437.006 104.262 436.868 103.985C436.729 103.699 436.642 103.374 436.608 103.01ZM436.608 102.269C436.642 101.94 436.72 101.636 436.842 101.359C436.963 101.082 437.119 100.843 437.31 100.644C437.5 100.436 437.721 100.276 437.973 100.163C438.224 100.042 438.497 99.981 438.792 99.981C439.13 99.981 439.424 100.046 439.676 100.176C439.936 100.297 440.152 100.462 440.326 100.67C440.508 100.878 440.646 101.121 440.742 101.398C440.846 101.675 440.911 101.966 440.937 102.269H436.608Z" fill="#C4C4C4"/>
<path d="M386.145 268L383.35 264.282C383.706 264.221 384.035 264.117 384.338 263.97C384.642 263.823 384.901 263.641 385.118 263.424C385.344 263.199 385.517 262.939 385.638 262.644C385.759 262.341 385.82 261.998 385.82 261.617C385.82 261.21 385.742 260.841 385.586 260.512C385.43 260.174 385.209 259.888 384.923 259.654C384.637 259.411 384.29 259.225 383.883 259.095C383.484 258.965 383.034 258.9 382.531 258.9H378.618V268H379.645V264.464H382.245L384.884 268H386.145ZM384.78 261.656C384.78 261.951 384.72 262.215 384.598 262.449C384.486 262.683 384.325 262.882 384.117 263.047C383.909 263.203 383.662 263.324 383.376 263.411C383.09 263.498 382.778 263.541 382.44 263.541H379.645V259.849H382.453C383.19 259.849 383.762 260.009 384.169 260.33C384.576 260.642 384.78 261.084 384.78 261.656Z" fill="#C4C4C4"/>
<path d="M388.315 265.01H393.645C393.653 264.949 393.658 264.893 393.658 264.841C393.658 264.789 393.658 264.741 393.658 264.698C393.658 264.204 393.588 263.74 393.45 263.307C393.311 262.874 393.107 262.497 392.839 262.176C392.57 261.855 392.241 261.604 391.851 261.422C391.461 261.231 391.019 261.136 390.525 261.136C390.057 261.136 389.623 261.227 389.225 261.409C388.835 261.591 388.497 261.842 388.211 262.163C387.925 262.475 387.699 262.848 387.535 263.281C387.379 263.706 387.301 264.161 387.301 264.646C387.301 265.166 387.387 265.643 387.561 266.076C387.743 266.509 387.985 266.882 388.289 267.194C388.592 267.497 388.947 267.736 389.355 267.909C389.762 268.074 390.195 268.156 390.655 268.156C391.296 268.156 391.833 268.043 392.267 267.818C392.7 267.584 393.086 267.276 393.424 266.895L392.8 266.336C392.522 266.622 392.215 266.852 391.877 267.025C391.547 267.198 391.149 267.285 390.681 267.285C390.386 267.285 390.104 267.237 389.836 267.142C389.567 267.038 389.324 266.891 389.108 266.7C388.891 266.501 388.713 266.262 388.575 265.985C388.436 265.699 388.349 265.374 388.315 265.01ZM388.315 264.269C388.349 263.94 388.427 263.636 388.549 263.359C388.67 263.082 388.826 262.843 389.017 262.644C389.207 262.436 389.428 262.276 389.68 262.163C389.931 262.042 390.204 261.981 390.499 261.981C390.837 261.981 391.131 262.046 391.383 262.176C391.643 262.297 391.859 262.462 392.033 262.67C392.215 262.878 392.353 263.121 392.449 263.398C392.553 263.675 392.618 263.966 392.644 264.269H388.315Z" fill="#C4C4C4"/>
<path d="M396.411 264.152C396.411 263.84 396.459 263.554 396.554 263.294C396.658 263.034 396.801 262.813 396.983 262.631C397.165 262.44 397.377 262.297 397.62 262.202C397.871 262.098 398.14 262.046 398.426 262.046C399.024 262.046 399.483 262.228 399.804 262.592C400.125 262.956 400.285 263.45 400.285 264.074V268H401.286V263.827C401.286 263.428 401.225 263.064 401.104 262.735C400.991 262.406 400.822 262.124 400.597 261.89C400.38 261.647 400.112 261.461 399.791 261.331C399.479 261.201 399.119 261.136 398.712 261.136C398.131 261.136 397.659 261.266 397.295 261.526C396.931 261.777 396.636 262.085 396.411 262.449V261.279H395.41V268H396.411V264.152Z" fill="#C4C4C4"/>
<path d="M404.773 262.163H406.905V261.279H404.773V259.251H403.772V261.279H402.836V262.163H403.772V266.219C403.772 266.557 403.82 266.847 403.915 267.09C404.01 267.333 404.14 267.532 404.305 267.688C404.478 267.835 404.682 267.944 404.916 268.013C405.15 268.082 405.401 268.117 405.67 268.117C405.913 268.117 406.129 268.091 406.32 268.039C406.519 267.996 406.706 267.926 406.879 267.831V266.973C406.706 267.06 406.541 267.12 406.385 267.155C406.238 267.19 406.077 267.207 405.904 267.207C405.566 267.207 405.293 267.125 405.085 266.96C404.877 266.795 404.773 266.505 404.773 266.089V262.163Z" fill="#C4C4C4"/>
<path d="M413.575 265.322C413.575 264.819 413.645 264.377 413.783 263.996C413.922 263.606 414.112 263.281 414.355 263.021C414.598 262.761 414.879 262.566 415.2 262.436C415.53 262.306 415.876 262.241 416.24 262.241H416.318V261.162C415.997 261.153 415.699 261.192 415.421 261.279C415.144 261.366 414.888 261.496 414.654 261.669C414.42 261.834 414.212 262.033 414.03 262.267C413.848 262.501 413.697 262.757 413.575 263.034V261.279H412.574V268H413.575V265.322Z" fill="#C4C4C4"/>
<path d="M424.142 264.633C424.142 264.156 424.055 263.706 423.882 263.281C423.708 262.856 423.466 262.488 423.154 262.176C422.842 261.855 422.469 261.604 422.036 261.422C421.611 261.231 421.147 261.136 420.645 261.136C420.133 261.136 419.661 261.231 419.228 261.422C418.803 261.604 418.435 261.855 418.123 262.176C417.811 262.497 417.568 262.874 417.395 263.307C417.221 263.732 417.135 264.182 417.135 264.659C417.135 265.136 417.221 265.586 417.395 266.011C417.568 266.436 417.811 266.808 418.123 267.129C418.435 267.441 418.803 267.692 419.228 267.883C419.652 268.065 420.116 268.156 420.619 268.156C421.121 268.156 421.589 268.065 422.023 267.883C422.456 267.692 422.829 267.437 423.141 267.116C423.453 266.795 423.695 266.423 423.869 265.998C424.051 265.565 424.142 265.11 424.142 264.633ZM423.115 264.659C423.115 265.023 423.054 265.365 422.933 265.686C422.811 265.998 422.642 266.271 422.426 266.505C422.209 266.739 421.949 266.925 421.646 267.064C421.342 267.194 421.009 267.259 420.645 267.259C420.289 267.259 419.96 267.19 419.657 267.051C419.353 266.912 419.089 266.726 418.864 266.492C418.647 266.258 418.474 265.981 418.344 265.66C418.222 265.339 418.162 264.997 418.162 264.633C418.162 264.269 418.222 263.931 418.344 263.619C418.465 263.298 418.63 263.021 418.838 262.787C419.054 262.544 419.314 262.358 419.618 262.228C419.921 262.089 420.255 262.02 420.619 262.02C420.974 262.02 421.303 262.089 421.607 262.228C421.91 262.367 422.174 262.557 422.4 262.8C422.625 263.034 422.798 263.311 422.92 263.632C423.05 263.953 423.115 264.295 423.115 264.659Z" fill="#C4C4C4"/>
<path d="M427.047 268V258.51H426.046V268H427.047Z" fill="#C4C4C4"/>
<path d="M430.462 268V258.51H429.461V268H430.462Z" fill="#C4C4C4"/>
<path d="M213.716 268H219.865V267.051H214.743V258.9H213.716V268Z" fill="#C4C4C4"/>
<path d="M222.067 265.01H227.397C227.406 264.949 227.41 264.893 227.41 264.841C227.41 264.789 227.41 264.741 227.41 264.698C227.41 264.204 227.341 263.74 227.202 263.307C227.064 262.874 226.86 262.497 226.591 262.176C226.323 261.855 225.993 261.604 225.603 261.422C225.213 261.231 224.771 261.136 224.277 261.136C223.809 261.136 223.376 261.227 222.977 261.409C222.587 261.591 222.249 261.842 221.963 262.163C221.677 262.475 221.452 262.848 221.287 263.281C221.131 263.706 221.053 264.161 221.053 264.646C221.053 265.166 221.14 265.643 221.313 266.076C221.495 266.509 221.738 266.882 222.041 267.194C222.345 267.497 222.7 267.736 223.107 267.909C223.515 268.074 223.948 268.156 224.407 268.156C225.049 268.156 225.586 268.043 226.019 267.818C226.453 267.584 226.838 267.276 227.176 266.895L226.552 266.336C226.275 266.622 225.967 266.852 225.629 267.025C225.3 267.198 224.901 267.285 224.433 267.285C224.139 267.285 223.857 267.237 223.588 267.142C223.32 267.038 223.077 266.891 222.86 266.7C222.644 266.501 222.466 266.262 222.327 265.985C222.189 265.699 222.102 265.374 222.067 265.01ZM222.067 264.269C222.102 263.94 222.18 263.636 222.301 263.359C222.423 263.082 222.579 262.843 222.769 262.644C222.96 262.436 223.181 262.276 223.432 262.163C223.684 262.042 223.957 261.981 224.251 261.981C224.589 261.981 224.884 262.046 225.135 262.176C225.395 262.297 225.612 262.462 225.785 262.67C225.967 262.878 226.106 263.121 226.201 263.398C226.305 263.675 226.37 263.966 226.396 264.269H222.067Z" fill="#C4C4C4"/>
<path d="M231.594 262.072C232.226 262.072 232.716 262.228 233.063 262.54C233.418 262.843 233.596 263.298 233.596 263.905V264.139C233.292 264.052 232.98 263.983 232.66 263.931C232.339 263.879 231.962 263.853 231.529 263.853C231.104 263.853 230.714 263.901 230.359 263.996C230.012 264.091 229.709 264.23 229.449 264.412C229.197 264.594 229.002 264.824 228.864 265.101C228.725 265.37 228.656 265.682 228.656 266.037C228.656 266.392 228.725 266.7 228.864 266.96C229.011 267.22 229.202 267.441 229.436 267.623C229.678 267.796 229.947 267.926 230.242 268.013C230.545 268.1 230.853 268.143 231.165 268.143C231.763 268.143 232.257 268.026 232.647 267.792C233.045 267.558 233.362 267.289 233.596 266.986V268H234.558V263.892C234.558 262.999 234.311 262.328 233.817 261.877C233.323 261.418 232.616 261.188 231.698 261.188C231.204 261.188 230.766 261.24 230.385 261.344C230.003 261.439 229.626 261.574 229.254 261.747L229.553 262.566C229.865 262.419 230.181 262.302 230.502 262.215C230.831 262.12 231.195 262.072 231.594 262.072ZM231.633 264.594C232.049 264.594 232.417 264.624 232.738 264.685C233.067 264.746 233.357 264.811 233.609 264.88V265.53C233.609 265.799 233.548 266.046 233.427 266.271C233.314 266.488 233.154 266.678 232.946 266.843C232.746 266.999 232.508 267.125 232.231 267.22C231.962 267.307 231.672 267.35 231.36 267.35C231.134 267.35 230.918 267.32 230.71 267.259C230.51 267.198 230.333 267.112 230.177 266.999C230.021 266.878 229.895 266.735 229.8 266.57C229.713 266.405 229.67 266.215 229.67 265.998C229.67 265.565 229.839 265.222 230.177 264.971C230.515 264.72 231 264.594 231.633 264.594Z" fill="#C4C4C4"/>
<path d="M241.306 266.115V266.089C241.306 265.786 241.241 265.53 241.111 265.322C240.99 265.114 240.825 264.936 240.617 264.789C240.409 264.642 240.175 264.52 239.915 264.425C239.664 264.33 239.408 264.243 239.148 264.165C238.923 264.096 238.706 264.026 238.498 263.957C238.29 263.888 238.104 263.81 237.939 263.723C237.783 263.636 237.657 263.537 237.562 263.424C237.467 263.303 237.419 263.164 237.419 263.008V262.982C237.419 262.705 237.536 262.475 237.77 262.293C238.004 262.102 238.32 262.007 238.719 262.007C239.048 262.007 239.382 262.068 239.72 262.189C240.067 262.302 240.396 262.458 240.708 262.657L241.163 261.903C240.816 261.678 240.431 261.5 240.006 261.37C239.581 261.231 239.161 261.162 238.745 261.162C238.416 261.162 238.108 261.21 237.822 261.305C237.545 261.392 237.302 261.522 237.094 261.695C236.895 261.86 236.739 262.063 236.626 262.306C236.513 262.54 236.457 262.8 236.457 263.086V263.112C236.457 263.424 236.522 263.684 236.652 263.892C236.791 264.1 236.964 264.273 237.172 264.412C237.389 264.551 237.627 264.668 237.887 264.763C238.156 264.85 238.42 264.932 238.68 265.01C238.897 265.071 239.105 265.136 239.304 265.205C239.512 265.274 239.694 265.357 239.85 265.452C240.006 265.539 240.127 265.643 240.214 265.764C240.309 265.885 240.357 266.028 240.357 266.193V266.219C240.357 266.548 240.227 266.808 239.967 266.999C239.707 267.19 239.373 267.285 238.966 267.285C238.567 267.285 238.169 267.211 237.77 267.064C237.38 266.917 237.003 266.704 236.639 266.427L236.132 267.142C236.513 267.445 236.951 267.688 237.445 267.87C237.939 268.043 238.429 268.13 238.914 268.13C239.252 268.13 239.564 268.087 239.85 268C240.145 267.905 240.396 267.77 240.604 267.597C240.821 267.424 240.99 267.216 241.111 266.973C241.241 266.722 241.306 266.436 241.306 266.115Z" fill="#C4C4C4"/>
<path d="M243.763 265.01H249.093C249.102 264.949 249.106 264.893 249.106 264.841C249.106 264.789 249.106 264.741 249.106 264.698C249.106 264.204 249.037 263.74 248.898 263.307C248.76 262.874 248.556 262.497 248.287 262.176C248.019 261.855 247.689 261.604 247.299 261.422C246.909 261.231 246.467 261.136 245.973 261.136C245.505 261.136 245.072 261.227 244.673 261.409C244.283 261.591 243.945 261.842 243.659 262.163C243.373 262.475 243.148 262.848 242.983 263.281C242.827 263.706 242.749 264.161 242.749 264.646C242.749 265.166 242.836 265.643 243.009 266.076C243.191 266.509 243.434 266.882 243.737 267.194C244.041 267.497 244.396 267.736 244.803 267.909C245.211 268.074 245.644 268.156 246.103 268.156C246.745 268.156 247.282 268.043 247.715 267.818C248.149 267.584 248.534 267.276 248.872 266.895L248.248 266.336C247.971 266.622 247.663 266.852 247.325 267.025C246.996 267.198 246.597 267.285 246.129 267.285C245.835 267.285 245.553 267.237 245.284 267.142C245.016 267.038 244.773 266.891 244.556 266.7C244.34 266.501 244.162 266.262 244.023 265.985C243.885 265.699 243.798 265.374 243.763 265.01ZM243.763 264.269C243.798 263.94 243.876 263.636 243.997 263.359C244.119 263.082 244.275 262.843 244.465 262.644C244.656 262.436 244.877 262.276 245.128 262.163C245.38 262.042 245.653 261.981 245.947 261.981C246.285 261.981 246.58 262.046 246.831 262.176C247.091 262.297 247.308 262.462 247.481 262.67C247.663 262.878 247.802 263.121 247.897 263.398C248.001 263.675 248.066 263.966 248.092 264.269H243.763Z" fill="#C4C4C4"/>
<path d="M255.757 265.322C255.757 264.819 255.827 264.377 255.965 263.996C256.104 263.606 256.295 263.281 256.537 263.021C256.78 262.761 257.062 262.566 257.382 262.436C257.712 262.306 258.058 262.241 258.422 262.241H258.5V261.162C258.18 261.153 257.881 261.192 257.603 261.279C257.326 261.366 257.07 261.496 256.836 261.669C256.602 261.834 256.394 262.033 256.212 262.267C256.03 262.501 255.879 262.757 255.757 263.034V261.279H254.756V268H255.757V265.322Z" fill="#C4C4C4"/>
<path d="M260.331 265.01H265.661C265.67 264.949 265.674 264.893 265.674 264.841C265.674 264.789 265.674 264.741 265.674 264.698C265.674 264.204 265.605 263.74 265.466 263.307C265.327 262.874 265.124 262.497 264.855 262.176C264.586 261.855 264.257 261.604 263.867 261.422C263.477 261.231 263.035 261.136 262.541 261.136C262.073 261.136 261.64 261.227 261.241 261.409C260.851 261.591 260.513 261.842 260.227 262.163C259.941 262.475 259.716 262.848 259.551 263.281C259.395 263.706 259.317 264.161 259.317 264.646C259.317 265.166 259.404 265.643 259.577 266.076C259.759 266.509 260.002 266.882 260.305 267.194C260.608 267.497 260.964 267.736 261.371 267.909C261.778 268.074 262.212 268.156 262.671 268.156C263.312 268.156 263.85 268.043 264.283 267.818C264.716 267.584 265.102 267.276 265.44 266.895L264.816 266.336C264.539 266.622 264.231 266.852 263.893 267.025C263.564 267.198 263.165 267.285 262.697 267.285C262.402 267.285 262.121 267.237 261.852 267.142C261.583 267.038 261.341 266.891 261.124 266.7C260.907 266.501 260.73 266.262 260.591 265.985C260.452 265.699 260.366 265.374 260.331 265.01ZM260.331 264.269C260.366 263.94 260.444 263.636 260.565 263.359C260.686 263.082 260.842 262.843 261.033 262.644C261.224 262.436 261.445 262.276 261.696 262.163C261.947 262.042 262.22 261.981 262.515 261.981C262.853 261.981 263.148 262.046 263.399 262.176C263.659 262.297 263.876 262.462 264.049 262.67C264.231 262.878 264.37 263.121 264.465 263.398C264.569 263.675 264.634 263.966 264.66 264.269H260.331Z" fill="#C4C4C4"/>
<path d="M268.427 264.152C268.427 263.84 268.475 263.554 268.57 263.294C268.674 263.034 268.817 262.813 268.999 262.631C269.181 262.44 269.394 262.297 269.636 262.202C269.888 262.098 270.156 262.046 270.442 262.046C271.04 262.046 271.5 262.228 271.82 262.592C272.141 262.956 272.301 263.45 272.301 264.074V268H273.302V263.827C273.302 263.428 273.242 263.064 273.12 262.735C273.008 262.406 272.839 262.124 272.613 261.89C272.397 261.647 272.128 261.461 271.807 261.331C271.495 261.201 271.136 261.136 270.728 261.136C270.148 261.136 269.675 261.266 269.311 261.526C268.947 261.777 268.653 262.085 268.427 262.449V261.279H267.426V268H268.427V264.152Z" fill="#C4C4C4"/>
<path d="M276.035 265.01H281.365C281.374 264.949 281.378 264.893 281.378 264.841C281.378 264.789 281.378 264.741 281.378 264.698C281.378 264.204 281.309 263.74 281.17 263.307C281.031 262.874 280.828 262.497 280.559 262.176C280.29 261.855 279.961 261.604 279.571 261.422C279.181 261.231 278.739 261.136 278.245 261.136C277.777 261.136 277.344 261.227 276.945 261.409C276.555 261.591 276.217 261.842 275.931 262.163C275.645 262.475 275.42 262.848 275.255 263.281C275.099 263.706 275.021 264.161 275.021 264.646C275.021 265.166 275.108 265.643 275.281 266.076C275.463 266.509 275.706 266.882 276.009 267.194C276.312 267.497 276.668 267.736 277.075 267.909C277.482 268.074 277.916 268.156 278.375 268.156C279.016 268.156 279.554 268.043 279.987 267.818C280.42 267.584 280.806 267.276 281.144 266.895L280.52 266.336C280.243 266.622 279.935 266.852 279.597 267.025C279.268 267.198 278.869 267.285 278.401 267.285C278.106 267.285 277.825 267.237 277.556 267.142C277.287 267.038 277.045 266.891 276.828 266.7C276.611 266.501 276.434 266.262 276.295 265.985C276.156 265.699 276.07 265.374 276.035 265.01ZM276.035 264.269C276.07 263.94 276.148 263.636 276.269 263.359C276.39 263.082 276.546 262.843 276.737 262.644C276.928 262.436 277.149 262.276 277.4 262.163C277.651 262.042 277.924 261.981 278.219 261.981C278.557 261.981 278.852 262.046 279.103 262.176C279.363 262.297 279.58 262.462 279.753 262.67C279.935 262.878 280.074 263.121 280.169 263.398C280.273 263.675 280.338 263.966 280.364 264.269H276.035Z" fill="#C4C4C4"/>
<path d="M287.701 261.253H286.869L285.062 266.674L283.294 261.279H282.228L284.581 268.052H285.465L287.285 262.748L289.092 268.052H289.963L292.329 261.279H291.289L289.521 266.674L287.701 261.253Z" fill="#C4C4C4"/>
<path d="M296.175 262.072C296.807 262.072 297.297 262.228 297.644 262.54C297.999 262.843 298.177 263.298 298.177 263.905V264.139C297.873 264.052 297.561 263.983 297.241 263.931C296.92 263.879 296.543 263.853 296.11 263.853C295.685 263.853 295.295 263.901 294.94 263.996C294.593 264.091 294.29 264.23 294.03 264.412C293.778 264.594 293.583 264.824 293.445 265.101C293.306 265.37 293.237 265.682 293.237 266.037C293.237 266.392 293.306 266.7 293.445 266.96C293.592 267.22 293.783 267.441 294.017 267.623C294.259 267.796 294.528 267.926 294.823 268.013C295.126 268.1 295.434 268.143 295.746 268.143C296.344 268.143 296.838 268.026 297.228 267.792C297.626 267.558 297.943 267.289 298.177 266.986V268H299.139V263.892C299.139 262.999 298.892 262.328 298.398 261.877C297.904 261.418 297.197 261.188 296.279 261.188C295.785 261.188 295.347 261.24 294.966 261.344C294.584 261.439 294.207 261.574 293.835 261.747L294.134 262.566C294.446 262.419 294.762 262.302 295.083 262.215C295.412 262.12 295.776 262.072 296.175 262.072ZM296.214 264.594C296.63 264.594 296.998 264.624 297.319 264.685C297.648 264.746 297.938 264.811 298.19 264.88V265.53C298.19 265.799 298.129 266.046 298.008 266.271C297.895 266.488 297.735 266.678 297.527 266.843C297.327 266.999 297.089 267.125 296.812 267.22C296.543 267.307 296.253 267.35 295.941 267.35C295.715 267.35 295.499 267.32 295.291 267.259C295.091 267.198 294.914 267.112 294.758 266.999C294.602 266.878 294.476 266.735 294.381 266.57C294.294 266.405 294.251 266.215 294.251 265.998C294.251 265.565 294.42 265.222 294.758 264.971C295.096 264.72 295.581 264.594 296.214 264.594Z" fill="#C4C4C4"/>
<path d="M302.364 268V258.51H301.363V268H302.364Z" fill="#C4C4C4"/>
<path d="M80.2299 260.629V268H81.2569V258.9H80.2169L76.9019 263.866L73.5869 258.9H72.5469V268H73.5479V260.642L76.8629 265.504H76.9149L80.2299 260.629Z" fill="#C4C4C4"/>
<path d="M86.095 262.072C86.7277 262.072 87.2173 262.228 87.564 262.54C87.9193 262.843 88.097 263.298 88.097 263.905V264.139C87.7937 264.052 87.4817 263.983 87.161 263.931C86.8403 263.879 86.4633 263.853 86.03 263.853C85.6053 263.853 85.2153 263.901 84.86 263.996C84.5133 264.091 84.21 264.23 83.95 264.412C83.6987 264.594 83.5037 264.824 83.365 265.101C83.2263 265.37 83.157 265.682 83.157 266.037C83.157 266.392 83.2263 266.7 83.365 266.96C83.5123 267.22 83.703 267.441 83.937 267.623C84.1797 267.796 84.4483 267.926 84.743 268.013C85.0463 268.1 85.354 268.143 85.666 268.143C86.264 268.143 86.758 268.026 87.148 267.792C87.5467 267.558 87.863 267.289 88.097 266.986V268H89.059V263.892C89.059 262.999 88.812 262.328 88.318 261.877C87.824 261.418 87.1177 261.188 86.199 261.188C85.705 261.188 85.2673 261.24 84.886 261.344C84.5047 261.439 84.1277 261.574 83.755 261.747L84.054 262.566C84.366 262.419 84.6823 262.302 85.003 262.215C85.3323 262.12 85.6963 262.072 86.095 262.072ZM86.134 264.594C86.55 264.594 86.9183 264.624 87.239 264.685C87.5683 264.746 87.8587 264.811 88.11 264.88V265.53C88.11 265.799 88.0493 266.046 87.928 266.271C87.8153 266.488 87.655 266.678 87.447 266.843C87.2477 266.999 87.0093 267.125 86.732 267.22C86.4633 267.307 86.173 267.35 85.861 267.35C85.6357 267.35 85.419 267.32 85.211 267.259C85.0117 267.198 84.834 267.112 84.678 266.999C84.522 266.878 84.3963 266.735 84.301 266.57C84.2143 266.405 84.171 266.215 84.171 265.998C84.171 265.565 84.34 265.222 84.678 264.971C85.016 264.72 85.5013 264.594 86.134 264.594Z" fill="#C4C4C4"/>
<path d="M92.3623 259.81V258.705H91.2183V259.81H92.3623ZM92.2843 268V261.279H91.2833V268H92.2843Z" fill="#C4C4C4"/>
<path d="M95.6084 264.152C95.6084 263.84 95.656 263.554 95.7514 263.294C95.8554 263.034 95.9984 262.813 96.1804 262.631C96.3624 262.44 96.5747 262.297 96.8174 262.202C97.0687 262.098 97.3374 262.046 97.6234 262.046C98.2214 262.046 98.6807 262.228 99.0014 262.592C99.322 262.956 99.4824 263.45 99.4824 264.074V268H100.483V263.827C100.483 263.428 100.423 263.064 100.301 262.735C100.189 262.406 100.02 262.124 99.7944 261.89C99.5777 261.647 99.309 261.461 98.9884 261.331C98.6764 261.201 98.3167 261.136 97.9094 261.136C97.3287 261.136 96.8564 261.266 96.4924 261.526C96.1284 261.777 95.8337 262.085 95.6084 262.449V261.279H94.6074V268H95.6084V264.152Z" fill="#C4C4C4"/>
<path d="M103.97 262.163H106.102V261.279H103.97V259.251H102.969V261.279H102.033V262.163H102.969V266.219C102.969 266.557 103.017 266.847 103.112 267.09C103.207 267.333 103.337 267.532 103.502 267.688C103.675 267.835 103.879 267.944 104.113 268.013C104.347 268.082 104.598 268.117 104.867 268.117C105.11 268.117 105.326 268.091 105.517 268.039C105.716 267.996 105.903 267.926 106.076 267.831V266.973C105.903 267.06 105.738 267.12 105.582 267.155C105.435 267.19 105.274 267.207 105.101 267.207C104.763 267.207 104.49 267.125 104.282 266.96C104.074 266.795 103.97 266.505 103.97 266.089V262.163Z" fill="#C4C4C4"/>
<path d="M108.282 265.01H113.612C113.62 264.949 113.625 264.893 113.625 264.841C113.625 264.789 113.625 264.741 113.625 264.698C113.625 264.204 113.555 263.74 113.417 263.307C113.278 262.874 113.074 262.497 112.806 262.176C112.537 261.855 112.208 261.604 111.818 261.422C111.428 261.231 110.986 261.136 110.492 261.136C110.024 261.136 109.59 261.227 109.192 261.409C108.802 261.591 108.464 261.842 108.178 262.163C107.892 262.475 107.666 262.848 107.502 263.281C107.346 263.706 107.268 264.161 107.268 264.646C107.268 265.166 107.354 265.643 107.528 266.076C107.71 266.509 107.952 266.882 108.256 267.194C108.559 267.497 108.914 267.736 109.322 267.909C109.729 268.074 110.162 268.156 110.622 268.156C111.263 268.156 111.8 268.043 112.234 267.818C112.667 267.584 113.053 267.276 113.391 266.895L112.767 266.336C112.489 266.622 112.182 266.852 111.844 267.025C111.514 267.198 111.116 267.285 110.648 267.285C110.353 267.285 110.071 267.237 109.803 267.142C109.534 267.038 109.291 266.891 109.075 266.7C108.858 266.501 108.68 266.262 108.542 265.985C108.403 265.699 108.316 265.374 108.282 265.01ZM108.282 264.269C108.316 263.94 108.394 263.636 108.516 263.359C108.637 263.082 108.793 262.843 108.984 262.644C109.174 262.436 109.395 262.276 109.647 262.163C109.898 262.042 110.171 261.981 110.466 261.981C110.804 261.981 111.098 262.046 111.35 262.176C111.61 262.297 111.826 262.462 112 262.67C112.182 262.878 112.32 263.121 112.416 263.398C112.52 263.675 112.585 263.966 112.611 264.269H108.282Z" fill="#C4C4C4"/>
<path d="M116.378 264.152C116.378 263.84 116.426 263.554 116.521 263.294C116.625 263.034 116.768 262.813 116.95 262.631C117.132 262.44 117.344 262.297 117.587 262.202C117.838 262.098 118.107 262.046 118.393 262.046C118.991 262.046 119.45 262.228 119.771 262.592C120.092 262.956 120.252 263.45 120.252 264.074V268H121.253V263.827C121.253 263.428 121.192 263.064 121.071 262.735C120.958 262.406 120.789 262.124 120.564 261.89C120.347 261.647 120.079 261.461 119.758 261.331C119.446 261.201 119.086 261.136 118.679 261.136C118.098 261.136 117.626 261.266 117.262 261.526C116.898 261.777 116.603 262.085 116.378 262.449V261.279H115.377V268H116.378V264.152Z" fill="#C4C4C4"/>
<path d="M125.819 262.072C126.451 262.072 126.941 262.228 127.288 262.54C127.643 262.843 127.821 263.298 127.821 263.905V264.139C127.517 264.052 127.205 263.983 126.885 263.931C126.564 263.879 126.187 263.853 125.754 263.853C125.329 263.853 124.939 263.901 124.584 263.996C124.237 264.091 123.934 264.23 123.674 264.412C123.422 264.594 123.227 264.824 123.089 265.101C122.95 265.37 122.881 265.682 122.881 266.037C122.881 266.392 122.95 266.7 123.089 266.96C123.236 267.22 123.427 267.441 123.661 267.623C123.903 267.796 124.172 267.926 124.467 268.013C124.77 268.1 125.078 268.143 125.39 268.143C125.988 268.143 126.482 268.026 126.872 267.792C127.27 267.558 127.587 267.289 127.821 266.986V268H128.783V263.892C128.783 262.999 128.536 262.328 128.042 261.877C127.548 261.418 126.841 261.188 125.923 261.188C125.429 261.188 124.991 261.24 124.61 261.344C124.228 261.439 123.851 261.574 123.479 261.747L123.778 262.566C124.09 262.419 124.406 262.302 124.727 262.215C125.056 262.12 125.42 262.072 125.819 262.072ZM125.858 264.594C126.274 264.594 126.642 264.624 126.963 264.685C127.292 264.746 127.582 264.811 127.834 264.88V265.53C127.834 265.799 127.773 266.046 127.652 266.271C127.539 266.488 127.379 266.678 127.171 266.843C126.971 266.999 126.733 267.125 126.456 267.22C126.187 267.307 125.897 267.35 125.585 267.35C125.359 267.35 125.143 267.32 124.935 267.259C124.735 267.198 124.558 267.112 124.402 266.999C124.246 266.878 124.12 266.735 124.025 266.57C123.938 266.405 123.895 266.215 123.895 265.998C123.895 265.565 124.064 265.222 124.402 264.971C124.74 264.72 125.225 264.594 125.858 264.594Z" fill="#C4C4C4"/>
<path d="M131.917 264.152C131.917 263.84 131.965 263.554 132.06 263.294C132.164 263.034 132.307 262.813 132.489 262.631C132.671 262.44 132.883 262.297 133.126 262.202C133.377 262.098 133.646 262.046 133.932 262.046C134.53 262.046 134.989 262.228 135.31 262.592C135.631 262.956 135.791 263.45 135.791 264.074V268H136.792V263.827C136.792 263.428 136.731 263.064 136.61 262.735C136.497 262.406 136.328 262.124 136.103 261.89C135.886 261.647 135.618 261.461 135.297 261.331C134.985 261.201 134.625 261.136 134.218 261.136C133.637 261.136 133.165 261.266 132.801 261.526C132.437 261.777 132.142 262.085 131.917 262.449V261.279H130.916V268H131.917V264.152Z" fill="#C4C4C4"/>
<path d="M144.699 266.856L144.062 266.258C143.793 266.544 143.49 266.782 143.152 266.973C142.822 267.164 142.441 267.259 142.008 267.259C141.652 267.259 141.323 267.194 141.02 267.064C140.725 266.925 140.465 266.739 140.24 266.505C140.023 266.262 139.85 265.981 139.72 265.66C139.598 265.339 139.538 264.997 139.538 264.633C139.538 264.269 139.598 263.931 139.72 263.619C139.841 263.298 140.01 263.021 140.227 262.787C140.443 262.544 140.699 262.358 140.994 262.228C141.288 262.089 141.605 262.02 141.943 262.02C142.402 262.02 142.788 262.12 143.1 262.319C143.42 262.518 143.715 262.757 143.984 263.034L144.647 262.332C144.491 262.167 144.322 262.011 144.14 261.864C143.958 261.717 143.758 261.591 143.542 261.487C143.325 261.374 143.087 261.288 142.827 261.227C142.567 261.166 142.276 261.136 141.956 261.136C141.462 261.136 141.002 261.231 140.578 261.422C140.162 261.604 139.798 261.855 139.486 262.176C139.182 262.497 138.944 262.874 138.771 263.307C138.597 263.732 138.511 264.182 138.511 264.659C138.511 265.136 138.597 265.586 138.771 266.011C138.944 266.436 139.182 266.808 139.486 267.129C139.798 267.441 140.162 267.692 140.578 267.883C141.002 268.065 141.462 268.156 141.956 268.156C142.588 268.156 143.117 268.035 143.542 267.792C143.975 267.549 144.361 267.237 144.699 266.856Z" fill="#C4C4C4"/>
<path d="M146.761 265.01H152.091C152.1 264.949 152.104 264.893 152.104 264.841C152.104 264.789 152.104 264.741 152.104 264.698C152.104 264.204 152.035 263.74 151.896 263.307C151.757 262.874 151.554 262.497 151.285 262.176C151.016 261.855 150.687 261.604 150.297 261.422C149.907 261.231 149.465 261.136 148.971 261.136C148.503 261.136 148.07 261.227 147.671 261.409C147.281 261.591 146.943 261.842 146.657 262.163C146.371 262.475 146.146 262.848 145.981 263.281C145.825 263.706 145.747 264.161 145.747 264.646C145.747 265.166 145.834 265.643 146.007 266.076C146.189 266.509 146.432 266.882 146.735 267.194C147.038 267.497 147.394 267.736 147.801 267.909C148.208 268.074 148.642 268.156 149.101 268.156C149.742 268.156 150.28 268.043 150.713 267.818C151.146 267.584 151.532 267.276 151.87 266.895L151.246 266.336C150.969 266.622 150.661 266.852 150.323 267.025C149.994 267.198 149.595 267.285 149.127 267.285C148.832 267.285 148.551 267.237 148.282 267.142C148.013 267.038 147.771 266.891 147.554 266.7C147.337 266.501 147.16 266.262 147.021 265.985C146.882 265.699 146.796 265.374 146.761 265.01ZM146.761 264.269C146.796 263.94 146.874 263.636 146.995 263.359C147.116 263.082 147.272 262.843 147.463 262.644C147.654 262.436 147.875 262.276 148.126 262.163C148.377 262.042 148.65 261.981 148.945 261.981C149.283 261.981 149.578 262.046 149.829 262.176C150.089 262.297 150.306 262.462 150.479 262.67C150.661 262.878 150.8 263.121 150.895 263.398C150.999 263.675 151.064 263.966 151.09 264.269H146.761Z" fill="#C4C4C4"/>
<path d="M301.946 168.738C302.595 166.485 302.794 164.127 302.532 161.798C302.27 159.469 301.552 157.214 300.418 155.162L284.795 163.794L301.946 168.738Z" fill="#EA0000" fill-opacity="0.7"/>
<path d="M293.962 168.614C294.114 178.137 290.661 187.366 284.294 194.45C277.928 201.534 269.119 205.95 259.633 206.813C250.148 207.675 240.687 204.92 233.147 199.1C225.608 193.28 220.547 184.825 218.979 175.43C217.411 166.035 219.453 156.395 224.694 148.442C229.935 140.489 237.988 134.812 247.24 132.547C256.492 130.282 266.257 131.599 274.579 136.232C282.901 140.865 289.164 148.472 292.113 157.529L273.714 163.519C272.277 159.104 269.224 155.396 265.167 153.137C261.111 150.879 256.35 150.237 251.84 151.341C247.33 152.445 243.404 155.213 240.849 159.089C238.295 162.966 237.299 167.666 238.064 172.245C238.828 176.825 241.295 180.946 244.97 183.784C248.646 186.621 253.258 187.964 257.882 187.543C262.506 187.123 266.8 184.97 269.903 181.517C273.007 178.064 274.69 173.565 274.616 168.922L293.962 168.614Z" fill="#2FC643"/>
<path d="M252.148 164.039L247 170.305L247.26 171.046H252.057V173.204H253.045V171.046H254.462V170.188H253.045V164.039H252.148ZM252.057 170.188H248.235L252.057 165.495V170.188Z" fill="black"/>
<path d="M259.96 166.314C259.96 166.002 259.908 165.707 259.804 165.43C259.708 165.153 259.57 164.91 259.388 164.702C259.214 164.485 259.002 164.316 258.751 164.195C258.499 164.065 258.222 164 257.919 164C257.607 164 257.321 164.065 257.061 164.195C256.809 164.316 256.593 164.485 256.411 164.702C256.229 164.919 256.086 165.17 255.982 165.456C255.886 165.733 255.839 166.028 255.839 166.34C255.839 166.652 255.886 166.947 255.982 167.224C256.086 167.501 256.224 167.748 256.398 167.965C256.58 168.173 256.796 168.342 257.048 168.472C257.299 168.593 257.581 168.654 257.893 168.654C258.205 168.654 258.486 168.593 258.738 168.472C258.989 168.342 259.206 168.169 259.388 167.952C259.57 167.735 259.708 167.488 259.804 167.211C259.908 166.925 259.96 166.626 259.96 166.314ZM264.38 164.104H263.457L256.775 173.204H257.711L264.38 164.104ZM265.316 170.968C265.316 170.656 265.268 170.361 265.173 170.084C265.077 169.807 264.939 169.564 264.757 169.356C264.583 169.139 264.371 168.97 264.12 168.849C263.868 168.719 263.587 168.654 263.275 168.654C262.963 168.654 262.681 168.719 262.43 168.849C262.178 168.97 261.962 169.139 261.78 169.356C261.598 169.573 261.455 169.824 261.351 170.11C261.255 170.387 261.208 170.682 261.208 170.994C261.208 171.306 261.255 171.601 261.351 171.878C261.455 172.155 261.593 172.402 261.767 172.619C261.949 172.827 262.165 172.996 262.417 173.126C262.668 173.247 262.945 173.308 263.249 173.308C263.561 173.308 263.842 173.247 264.094 173.126C264.354 172.996 264.57 172.823 264.744 172.606C264.926 172.389 265.064 172.142 265.16 171.865C265.264 171.579 265.316 171.28 265.316 170.968ZM259.102 166.34C259.102 166.565 259.071 166.773 259.011 166.964C258.959 167.155 258.881 167.324 258.777 167.471C258.673 167.61 258.547 167.722 258.4 167.809C258.252 167.887 258.092 167.926 257.919 167.926C257.745 167.926 257.585 167.887 257.438 167.809C257.299 167.722 257.173 167.61 257.061 167.471C256.948 167.324 256.861 167.155 256.801 166.964C256.74 166.765 256.71 166.548 256.71 166.314C256.71 166.097 256.736 165.894 256.788 165.703C256.848 165.504 256.931 165.335 257.035 165.196C257.139 165.049 257.26 164.936 257.399 164.858C257.546 164.771 257.711 164.728 257.893 164.728C258.057 164.728 258.213 164.771 258.361 164.858C258.508 164.936 258.634 165.049 258.738 165.196C258.85 165.335 258.937 165.504 258.998 165.703C259.067 165.894 259.102 166.106 259.102 166.34ZM264.458 170.994C264.458 171.219 264.427 171.427 264.367 171.618C264.315 171.809 264.237 171.978 264.133 172.125C264.029 172.264 263.903 172.376 263.756 172.463C263.617 172.541 263.457 172.58 263.275 172.58C263.101 172.58 262.941 172.541 262.794 172.463C262.655 172.376 262.529 172.264 262.417 172.125C262.304 171.978 262.217 171.809 262.157 171.618C262.096 171.419 262.066 171.202 262.066 170.968C262.066 170.751 262.092 170.548 262.144 170.357C262.204 170.158 262.287 169.989 262.391 169.85C262.495 169.703 262.62 169.59 262.768 169.512C262.915 169.425 263.075 169.382 263.249 169.382C263.413 169.382 263.569 169.425 263.717 169.512C263.864 169.59 263.994 169.703 264.107 169.85C264.219 169.989 264.306 170.158 264.367 170.357C264.427 170.548 264.458 170.76 264.458 170.994Z" fill="black"/>
<rect x="345.5" y="125.5" width="118" height="16" rx="1.5" stroke="#E5E5E5"/>
<circle cx="355.5" cy="133.5" r="4.5" fill="#FFD704"/>
<line x1="369" y1="133.75" x2="450" y2="133.75" stroke="#C4C4C4" stroke-width="0.5"/>
<path d="M456 131L459 133.5L456 136" stroke="#C4C4C4" stroke-width="0.5"/>
<rect x="345.5" y="145.5" width="118" height="16" rx="1.5" stroke="#E5E5E5"/>
<circle cx="355.5" cy="153.5" r="4.5" fill="#6886F0"/>
<line x1="369" y1="153.75" x2="450" y2="153.75" stroke="#C4C4C4" stroke-width="0.5"/>
<path d="M456 151L459 153.5L456 156" stroke="#C4C4C4" stroke-width="0.5"/>
<rect x="345.5" y="165.5" width="118" height="16" rx="1.5" stroke="#E5E5E5"/>
<circle cx="355.5" cy="173.5" r="4.5" fill="#2FC643"/>
<line x1="369" y1="173.75" x2="450" y2="173.75" stroke="#C4C4C4" stroke-width="0.5"/>
<path d="M456 171L459 173.5L456 176" stroke="#C4C4C4" stroke-width="0.5"/>
<rect x="345.5" y="185.5" width="118" height="16" rx="1.5" stroke="#E5E5E5"/>
<circle cx="355.5" cy="193.5" r="4.5" fill="#EA0000"/>
<line x1="369" y1="193.75" x2="450" y2="193.75" stroke="#C4C4C4" stroke-width="0.5"/>
<path d="M456 191L459 193.5L456 196" stroke="#C4C4C4" stroke-width="0.5"/>
<rect x="345.5" y="205.5" width="118" height="16" rx="1.5" stroke="#E5E5E5"/>
<circle cx="355.5" cy="213.5" r="4.5" fill="#6C6C6C"/>
<line x1="369" y1="213.75" x2="450" y2="213.75" stroke="#C4C4C4" stroke-width="0.5"/>
<path d="M456 211L459 213.5L456 216" stroke="#C4C4C4" stroke-width="0.5"/>
<path d="M109.02 388.038C104.158 388.038 99.3446 387.081 94.8532 385.221C90.3618 383.36 86.2808 380.633 82.8433 377.196C79.4057 373.758 76.6789 369.677 74.8185 365.186C72.9581 360.694 72.0006 355.881 72.0006 351.019C72.0006 346.158 72.9581 341.344 74.8185 336.853C76.6789 332.361 79.4057 328.28 82.8433 324.843C86.2808 321.405 90.3618 318.678 94.8532 316.818C99.3446 314.958 104.158 314 109.02 314L109.02 328.808C106.103 328.808 103.215 329.382 100.52 330.498C97.825 331.615 95.3764 333.251 93.3139 335.313C91.2514 337.376 89.6153 339.824 88.499 342.519C87.3828 345.214 86.8083 348.102 86.8083 351.019C86.8083 353.936 87.3828 356.824 88.499 359.519C89.6153 362.214 91.2514 364.663 93.3139 366.725C95.3764 368.788 97.825 370.424 100.52 371.54C103.215 372.656 106.103 373.231 109.02 373.231L109.02 388.038Z" fill="#2FC643"/>
<path d="M113.091 314.225C122.183 315.231 130.58 319.567 136.664 326.398C142.748 333.229 146.087 342.071 146.038 351.218L131.23 351.139C131.26 345.65 129.256 340.345 125.606 336.247C121.956 332.148 116.917 329.546 111.462 328.942L113.091 314.225Z" fill="#EA0000"/>
<path d="M143.173 377.028C148.383 370.479 151.22 362.357 151.222 353.988L136.414 353.985C136.413 359.007 134.711 363.88 131.585 367.809L143.173 377.028Z" fill="#F6921E"/>
<path d="M113.182 387.804C122.179 386.785 130.491 382.505 136.546 375.772L125.535 365.871C121.903 369.911 116.915 372.479 111.517 373.09L113.182 387.804Z" fill="#FFD704"/>
<path d="M352.672 374.043V381C352.672 382.105 353.567 383 354.672 383H454.522C455.626 383 456.522 382.111 456.522 381.006V333.085C456.522 331.372 454.48 330.445 453.086 331.44C435.382 344.068 421.719 333.331 408.976 336.483C396.42 341.056 389.524 348.09 388.462 350.187C388.354 350.401 388.262 350.628 388.129 350.828C377.546 366.702 362.859 370.636 354.378 372.048C353.399 372.211 352.672 373.05 352.672 374.043Z" fill="url(#paint0_linear)"/>
<path d="M352 359.885C357.918 358.768 371.363 355.128 377.795 349.5V349.5C380.622 346.673 398.739 327.828 402.308 326.026C404.064 325.14 406.026 324.265 408.212 323.433C408.913 323.166 409.648 322.901 410.394 322.818C410.732 322.781 411.13 322.746 411.569 322.719C415.571 322.467 423.35 325.089 427.33 325.578C429.95 325.899 432.962 326.102 435.964 325.953C439.287 325.788 453.402 318.493 456.185 316.67V316.67" stroke="#2FC643"/>
<circle cx="454.845" cy="317.675" r="1.575" fill="white" stroke="#2FC643" stroke-width="0.2"/>
<defs>
<filter id="filter0_d" x="0" y="0" width="533.175" height="483.994" filterUnits="userSpaceOnUse" color-interpolation-filters="sRGB">
<feFlood flood-opacity="0" result="BackgroundImageFix"/>
<feColorMatrix in="SourceAlpha" type="matrix" values="0 0 0 0 0 0 0 0 0 0 0 0 0 0 0 0 0 0 127 0"/>
<feMorphology radius="5" operator="dilate" in="SourceAlpha" result="effect1_dropShadow"/>
<feOffset dx="10" dy="10"/>
<feGaussianBlur stdDeviation="15"/>
<feColorMatrix type="matrix" values="0 0 0 0 0 0 0 0 0 0.201667 0 0 0 0 0.916667 0 0 0 0.05 0"/>
<feBlend mode="normal" in2="BackgroundImageFix" result="effect1_dropShadow"/>
<feBlend mode="normal" in="SourceGraphic" in2="effect1_dropShadow" result="shape"/>
</filter>
<filter id="filter1_d" x="36" y="79" width="448" height="332" filterUnits="userSpaceOnUse" color-interpolation-filters="sRGB">
<feFlood flood-opacity="0" result="BackgroundImageFix"/>
<feColorMatrix in="SourceAlpha" type="matrix" values="0 0 0 0 0 0 0 0 0 0 0 0 0 0 0 0 0 0 127 0"/>
<feOffset dx="2" dy="4"/>
<feGaussianBlur stdDeviation="5"/>
<feColorMatrix type="matrix" values="0 0 0 0 0 0 0 0 0 0 0 0 0 0 0 0 0 0 0.1 0"/>
<feBlend mode="normal" in2="BackgroundImageFix" result="effect1_dropShadow"/>
<feBlend mode="normal" in="SourceGraphic" in2="effect1_dropShadow" result="shape"/>
</filter>
<linearGradient id="paint0_linear" x1="404.597" y1="328.73" x2="404.597" y2="383" gradientUnits="userSpaceOnUse">
<stop stop-color="#2FC643"/>
<stop offset="1" stop-color="#C4C4C4" stop-opacity="0"/>
</linearGradient>
</defs>
</svg>
