<svg width="540" height="382" viewBox="0 0 540 382" fill="none" xmlns="http://www.w3.org/2000/svg">
<g filter="url(#filter0_d)">
<path d="M0 20C0 17.2386 2.23858 15 5 15H383.223C385.984 15 388.223 17.2386 388.223 20V357C388.223 359.761 385.984 362 383.223 362H4.99999C2.23857 362 0 359.761 0 357V20Z" fill="white"/>
</g>
<path d="M42.948 46.452H46.944V44.4H36.72V46.452H40.716V57H42.948V46.452ZM48.6392 53.022H55.6232C55.6352 52.914 55.6412 52.812 55.6412 52.716C55.6532 52.62 55.6592 52.524 55.6592 52.428C55.6592 51.744 55.5632 51.09 55.3712 50.466C55.1792 49.842 54.8912 49.296 54.5072 48.828C54.1352 48.36 53.6612 47.988 53.0852 47.712C52.5212 47.436 51.8612 47.298 51.1052 47.298C50.4212 47.298 49.7972 47.43 49.2332 47.694C48.6692 47.958 48.1772 48.318 47.7572 48.774C47.3492 49.218 47.0312 49.74 46.8032 50.34C46.5752 50.94 46.4612 51.582 46.4612 52.266C46.4612 53.01 46.5872 53.688 46.8392 54.3C47.0912 54.9 47.4332 55.416 47.8652 55.848C48.3092 56.28 48.8252 56.616 49.4132 56.856C50.0132 57.096 50.6552 57.216 51.3392 57.216C52.2152 57.216 52.9652 57.054 53.5892 56.73C54.2252 56.406 54.7712 55.974 55.2272 55.434L53.9492 54.3C53.5652 54.672 53.1752 54.954 52.7792 55.146C52.3832 55.338 51.9152 55.434 51.3752 55.434C50.6672 55.434 50.0672 55.23 49.5752 54.822C49.0832 54.402 48.7712 53.802 48.6392 53.022ZM48.6212 51.582C48.7172 50.838 48.9812 50.238 49.4132 49.782C49.8572 49.314 50.4152 49.08 51.0872 49.08C51.4472 49.08 51.7652 49.146 52.0412 49.278C52.3292 49.41 52.5752 49.59 52.7792 49.818C52.9832 50.034 53.1452 50.298 53.2652 50.61C53.3852 50.91 53.4632 51.234 53.4992 51.582H48.6212ZM60.0245 51.636C60.0245 50.892 60.2225 50.316 60.6185 49.908C61.0145 49.488 61.5305 49.278 62.1665 49.278C62.8145 49.278 63.3125 49.482 63.6605 49.89C64.0205 50.286 64.2005 50.856 64.2005 51.6V57H66.3785V50.952C66.3785 49.836 66.0845 48.948 65.4965 48.288C64.9085 47.628 64.0745 47.298 62.9945 47.298C62.6225 47.298 62.2865 47.346 61.9865 47.442C61.6985 47.526 61.4285 47.646 61.1765 47.802C60.9365 47.958 60.7205 48.138 60.5285 48.342C60.3485 48.534 60.1805 48.744 60.0245 48.972V47.496H57.8465V57H60.0245V51.636ZM76.9826 57V51.366C76.9826 50.094 76.6406 49.11 75.9566 48.414C75.2726 47.706 74.2226 47.352 72.8066 47.352C72.0266 47.352 71.3606 47.424 70.8086 47.568C70.2566 47.712 69.7166 47.904 69.1886 48.144L69.7826 49.89C70.2146 49.71 70.6406 49.566 71.0606 49.458C71.4806 49.35 71.9606 49.296 72.5006 49.296C73.2566 49.296 73.8326 49.47 74.2286 49.818C74.6366 50.166 74.8406 50.67 74.8406 51.33V51.564C74.4686 51.444 74.0786 51.348 73.6706 51.276C73.2746 51.204 72.7886 51.168 72.2126 51.168C71.6606 51.168 71.1446 51.234 70.6646 51.366C70.1966 51.486 69.7886 51.672 69.4406 51.924C69.1046 52.176 68.8406 52.494 68.6486 52.878C68.4566 53.262 68.3606 53.712 68.3606 54.228V54.264C68.3606 54.744 68.4506 55.17 68.6306 55.542C68.8226 55.902 69.0686 56.208 69.3686 56.46C69.6806 56.7 70.0406 56.88 70.4486 57C70.8566 57.132 71.2886 57.198 71.7446 57.198C72.4646 57.198 73.0766 57.066 73.5806 56.802C74.0846 56.538 74.4986 56.214 74.8226 55.83V57H76.9826ZM74.8766 53.562C74.8766 53.862 74.8106 54.138 74.6786 54.39C74.5586 54.63 74.3846 54.84 74.1566 55.02C73.9286 55.188 73.6586 55.32 73.3466 55.416C73.0466 55.512 72.7166 55.56 72.3566 55.56C71.8406 55.56 71.4026 55.44 71.0426 55.2C70.6946 54.96 70.5206 54.612 70.5206 54.156V54.12C70.5206 53.628 70.7126 53.25 71.0966 52.986C71.4806 52.722 72.0146 52.59 72.6986 52.59C73.1186 52.59 73.5146 52.626 73.8866 52.698C74.2706 52.77 74.6006 52.86 74.8766 52.968V53.562ZM81.7511 51.636C81.7511 50.892 81.9491 50.316 82.3451 49.908C82.7411 49.488 83.2571 49.278 83.8931 49.278C84.5411 49.278 85.0391 49.482 85.3871 49.89C85.7471 50.286 85.9271 50.856 85.9271 51.6V57H88.1051V50.952C88.1051 49.836 87.8111 48.948 87.2231 48.288C86.6351 47.628 85.8011 47.298 84.7211 47.298C84.3491 47.298 84.0131 47.346 83.7131 47.442C83.4251 47.526 83.1551 47.646 82.9031 47.802C82.6631 47.958 82.4471 48.138 82.2551 48.342C82.0751 48.534 81.9071 48.744 81.7511 48.972V47.496H79.5731V57H81.7511V51.636ZM99.0152 55.434L97.7012 54.138C97.3532 54.486 96.9812 54.774 96.5852 55.002C96.2012 55.218 95.7512 55.326 95.2352 55.326C94.8152 55.326 94.4312 55.248 94.0832 55.092C93.7352 54.924 93.4352 54.702 93.1832 54.426C92.9312 54.15 92.7332 53.826 92.5892 53.454C92.4572 53.082 92.3912 52.68 92.3912 52.248C92.3912 51.828 92.4572 51.438 92.5892 51.078C92.7332 50.706 92.9252 50.382 93.1652 50.106C93.4052 49.83 93.6932 49.614 94.0292 49.458C94.3652 49.29 94.7312 49.206 95.1272 49.206C95.6792 49.206 96.1412 49.32 96.5132 49.548C96.8972 49.764 97.2572 50.046 97.5932 50.394L98.9432 48.936C98.4992 48.444 97.9772 48.048 97.3772 47.748C96.7892 47.448 96.0452 47.298 95.1452 47.298C94.4372 47.298 93.7772 47.43 93.1652 47.694C92.5652 47.958 92.0432 48.318 91.5992 48.774C91.1672 49.23 90.8252 49.758 90.5732 50.358C90.3332 50.958 90.2132 51.6 90.2132 52.284C90.2132 52.968 90.3332 53.61 90.5732 54.21C90.8252 54.798 91.1672 55.32 91.5992 55.776C92.0432 56.22 92.5652 56.574 93.1652 56.838C93.7652 57.09 94.4192 57.216 95.1272 57.216C96.0512 57.216 96.8132 57.054 97.4132 56.73C98.0132 56.394 98.5472 55.962 99.0152 55.434ZM109.787 47.496H107.519L105.053 54.552L102.353 47.496H100.031L103.991 57C103.811 57.42 103.619 57.708 103.415 57.864C103.211 58.02 102.953 58.098 102.641 58.098C102.413 58.098 102.191 58.062 101.975 57.99C101.771 57.93 101.567 57.846 101.363 57.738L100.625 59.358C100.961 59.538 101.303 59.676 101.651 59.772C102.011 59.88 102.419 59.934 102.875 59.934C103.259 59.934 103.601 59.886 103.901 59.79C104.201 59.694 104.477 59.538 104.729 59.322C104.981 59.118 105.209 58.848 105.413 58.512C105.617 58.176 105.815 57.762 106.007 57.27L109.787 47.496ZM123.818 44.31H121.766L116.222 57H118.49L119.786 53.958H125.744L127.022 57H129.362L123.818 44.31ZM124.934 51.996H120.596L122.756 46.956L124.934 51.996ZM140.155 55.056V47.496H137.977V48.918C137.605 48.474 137.155 48.096 136.627 47.784C136.111 47.46 135.451 47.298 134.647 47.298C134.095 47.298 133.555 47.4 133.027 47.604C132.511 47.808 132.049 48.102 131.641 48.486C131.245 48.87 130.927 49.338 130.687 49.89C130.447 50.442 130.327 51.072 130.327 51.78C130.327 52.488 130.447 53.118 130.687 53.67C130.927 54.222 131.245 54.69 131.641 55.074C132.049 55.458 132.511 55.752 133.027 55.956C133.543 56.148 134.083 56.244 134.647 56.244C135.427 56.244 136.081 56.082 136.609 55.758C137.137 55.434 137.599 55.014 137.995 54.498V55.236C137.995 56.196 137.737 56.922 137.221 57.414C136.705 57.906 135.961 58.152 134.989 58.152C134.341 58.152 133.741 58.062 133.189 57.882C132.637 57.702 132.109 57.456 131.605 57.144L130.795 58.782C132.043 59.538 133.459 59.916 135.043 59.916C136.675 59.916 137.935 59.526 138.823 58.746C139.711 57.966 140.155 56.736 140.155 55.056ZM138.013 51.78C138.013 52.176 137.935 52.536 137.779 52.86C137.635 53.172 137.437 53.448 137.185 53.688C136.933 53.916 136.633 54.096 136.285 54.228C135.949 54.348 135.595 54.408 135.223 54.408C134.851 54.408 134.497 54.348 134.161 54.228C133.837 54.096 133.555 53.916 133.315 53.688C133.075 53.448 132.883 53.166 132.739 52.842C132.595 52.518 132.523 52.158 132.523 51.762C132.523 51.366 132.589 51.006 132.721 50.682C132.865 50.358 133.057 50.082 133.297 49.854C133.549 49.626 133.837 49.452 134.161 49.332C134.485 49.2 134.839 49.134 135.223 49.134C135.595 49.134 135.949 49.2 136.285 49.332C136.633 49.452 136.933 49.626 137.185 49.854C137.437 50.082 137.635 50.364 137.779 50.7C137.935 51.024 138.013 51.384 138.013 51.78ZM145.05 53.382C145.05 52.758 145.128 52.212 145.284 51.744C145.44 51.264 145.662 50.868 145.95 50.556C146.238 50.244 146.58 50.01 146.976 49.854C147.372 49.698 147.81 49.62 148.29 49.62H148.416V47.316C147.576 47.28 146.88 47.478 146.328 47.91C145.776 48.342 145.35 48.918 145.05 49.638V47.496H142.872V57H145.05V53.382ZM151.647 53.022H158.631C158.643 52.914 158.649 52.812 158.649 52.716C158.661 52.62 158.667 52.524 158.667 52.428C158.667 51.744 158.571 51.09 158.379 50.466C158.187 49.842 157.899 49.296 157.515 48.828C157.143 48.36 156.669 47.988 156.093 47.712C155.529 47.436 154.869 47.298 154.113 47.298C153.429 47.298 152.805 47.43 152.241 47.694C151.677 47.958 151.185 48.318 150.765 48.774C150.357 49.218 150.039 49.74 149.811 50.34C149.583 50.94 149.469 51.582 149.469 52.266C149.469 53.01 149.595 53.688 149.847 54.3C150.099 54.9 150.441 55.416 150.873 55.848C151.317 56.28 151.833 56.616 152.421 56.856C153.021 57.096 153.663 57.216 154.347 57.216C155.223 57.216 155.973 57.054 156.597 56.73C157.233 56.406 157.779 55.974 158.235 55.434L156.957 54.3C156.573 54.672 156.183 54.954 155.787 55.146C155.391 55.338 154.923 55.434 154.383 55.434C153.675 55.434 153.075 55.23 152.583 54.822C152.091 54.402 151.779 53.802 151.647 53.022ZM151.629 51.582C151.725 50.838 151.989 50.238 152.421 49.782C152.865 49.314 153.423 49.08 154.095 49.08C154.455 49.08 154.773 49.146 155.049 49.278C155.337 49.41 155.583 49.59 155.787 49.818C155.991 50.034 156.153 50.298 156.273 50.61C156.393 50.91 156.471 51.234 156.507 51.582H151.629ZM162.51 53.022H169.494C169.506 52.914 169.512 52.812 169.512 52.716C169.524 52.62 169.53 52.524 169.53 52.428C169.53 51.744 169.434 51.09 169.242 50.466C169.05 49.842 168.762 49.296 168.378 48.828C168.006 48.36 167.532 47.988 166.956 47.712C166.392 47.436 165.732 47.298 164.976 47.298C164.292 47.298 163.668 47.43 163.104 47.694C162.54 47.958 162.048 48.318 161.628 48.774C161.22 49.218 160.902 49.74 160.674 50.34C160.446 50.94 160.332 51.582 160.332 52.266C160.332 53.01 160.458 53.688 160.71 54.3C160.962 54.9 161.304 55.416 161.736 55.848C162.18 56.28 162.696 56.616 163.284 56.856C163.884 57.096 164.526 57.216 165.21 57.216C166.086 57.216 166.836 57.054 167.46 56.73C168.096 56.406 168.642 55.974 169.098 55.434L167.82 54.3C167.436 54.672 167.046 54.954 166.65 55.146C166.254 55.338 165.786 55.434 165.246 55.434C164.538 55.434 163.938 55.23 163.446 54.822C162.954 54.402 162.642 53.802 162.51 53.022ZM162.492 51.582C162.588 50.838 162.852 50.238 163.284 49.782C163.728 49.314 164.286 49.08 164.958 49.08C165.318 49.08 165.636 49.146 165.912 49.278C166.2 49.41 166.446 49.59 166.65 49.818C166.854 50.034 167.016 50.298 167.136 50.61C167.256 50.91 167.334 51.234 167.37 51.582H162.492ZM179.62 48.972C179.368 48.468 179.002 48.066 178.522 47.766C178.054 47.454 177.478 47.298 176.794 47.298C176.434 47.298 176.104 47.346 175.804 47.442C175.516 47.526 175.252 47.646 175.012 47.802C174.784 47.958 174.58 48.132 174.4 48.324C174.22 48.516 174.052 48.72 173.896 48.936V47.496H171.718V57H173.896V51.654C173.896 50.91 174.082 50.328 174.454 49.908C174.826 49.488 175.318 49.278 175.93 49.278C176.542 49.278 177.016 49.476 177.352 49.872C177.688 50.268 177.856 50.838 177.856 51.582V57H180.034V51.636C180.034 50.868 180.22 50.286 180.592 49.89C180.976 49.482 181.468 49.278 182.068 49.278C182.68 49.278 183.154 49.476 183.49 49.872C183.826 50.268 183.994 50.844 183.994 51.6V57H186.172V50.934C186.172 49.77 185.878 48.876 185.29 48.252C184.702 47.616 183.886 47.298 182.842 47.298C182.122 47.298 181.498 47.454 180.97 47.766C180.454 48.066 180.004 48.468 179.62 48.972ZM190.477 53.022H197.461C197.473 52.914 197.479 52.812 197.479 52.716C197.491 52.62 197.497 52.524 197.497 52.428C197.497 51.744 197.401 51.09 197.209 50.466C197.017 49.842 196.729 49.296 196.345 48.828C195.973 48.36 195.499 47.988 194.923 47.712C194.359 47.436 193.699 47.298 192.943 47.298C192.259 47.298 191.635 47.43 191.071 47.694C190.507 47.958 190.015 48.318 189.595 48.774C189.187 49.218 188.869 49.74 188.641 50.34C188.413 50.94 188.299 51.582 188.299 52.266C188.299 53.01 188.425 53.688 188.677 54.3C188.929 54.9 189.271 55.416 189.703 55.848C190.147 56.28 190.663 56.616 191.251 56.856C191.851 57.096 192.493 57.216 193.177 57.216C194.053 57.216 194.803 57.054 195.427 56.73C196.063 56.406 196.609 55.974 197.065 55.434L195.787 54.3C195.403 54.672 195.013 54.954 194.617 55.146C194.221 55.338 193.753 55.434 193.213 55.434C192.505 55.434 191.905 55.23 191.413 54.822C190.921 54.402 190.609 53.802 190.477 53.022ZM190.459 51.582C190.555 50.838 190.819 50.238 191.251 49.782C191.695 49.314 192.253 49.08 192.925 49.08C193.285 49.08 193.603 49.146 193.879 49.278C194.167 49.41 194.413 49.59 194.617 49.818C194.821 50.034 194.983 50.298 195.103 50.61C195.223 50.91 195.301 51.234 195.337 51.582H190.459ZM201.862 51.636C201.862 50.892 202.06 50.316 202.456 49.908C202.852 49.488 203.368 49.278 204.004 49.278C204.652 49.278 205.15 49.482 205.498 49.89C205.858 50.286 206.038 50.856 206.038 51.6V57H208.216V50.952C208.216 49.836 207.922 48.948 207.334 48.288C206.746 47.628 205.912 47.298 204.832 47.298C204.46 47.298 204.124 47.346 203.824 47.442C203.536 47.526 203.266 47.646 203.014 47.802C202.774 47.958 202.558 48.138 202.366 48.342C202.186 48.534 202.018 48.744 201.862 48.972V47.496H199.684V57H201.862V51.636ZM213.475 49.368H216.031V47.496H213.475V44.886H211.297V47.496H210.091V49.368H211.297V54.372C211.297 54.9 211.363 55.344 211.495 55.704C211.627 56.052 211.813 56.334 212.053 56.55C212.305 56.766 212.599 56.922 212.935 57.018C213.271 57.114 213.637 57.162 214.033 57.162C214.441 57.162 214.801 57.12 215.113 57.036C215.425 56.952 215.719 56.832 215.995 56.676V54.894C215.563 55.11 215.113 55.218 214.645 55.218C214.273 55.218 213.985 55.128 213.781 54.948C213.577 54.756 213.475 54.45 213.475 54.03V49.368Z" fill="black"/>
<rect x="36" y="85" width="317" height="10" fill="#E5E5E5"/>
<rect x="36" y="125" width="317" height="10" fill="#E5E5E5"/>
<rect x="36" y="165" width="317" height="10" fill="#E5E5E5"/>
<rect x="36" y="205" width="236" height="10" fill="#E5E5E5"/>
<rect x="36" y="245" width="206" height="10" fill="#E5E5E5"/>
<path d="M156.737 300.796C152.747 312.846 149.369 325.094 145.349 337.134C144.732 338.983 143.851 341.793 144.021 338.43C144.212 334.665 144.595 330.919 144.726 327.148C144.866 323.098 144.405 318.829 144.806 314.792C144.806 314.792 149.366 320.526 149.896 321.234C153.503 326.049 157.527 329.759 162.249 333.427C163.031 334.034 164.889 336.523 165.972 336.587C167.652 336.687 169.217 328.245 169.472 327.351C169.6 326.903 174.386 311.675 174.039 311.552C173.068 311.206 170.626 313.358 170.136 313.719C168.128 315.198 166.217 316.807 164.201 318.276C164.133 318.326 161.069 319.866 161.907 320.626C163.002 321.617 164.847 320.325 166.273 319.958C171.212 318.684 176.097 317.192 180.98 315.724C181.1 315.688 190.177 312.738 190.195 312.787C191.205 315.498 190.416 319.633 190.416 322.51C190.416 324.995 191.001 324.179 192.69 323.36C193.607 322.916 193.504 324.269 194.521 323.887C196.278 323.227 196.365 321.583 197.579 320.727C197.948 320.467 197.659 321.631 197.659 322.084C197.659 323.266 197.659 324.447 197.659 325.629C197.659 329.382 199.266 324.295 199.792 323.117C200.229 322.139 201.402 318.539 202.367 317.811C202.82 317.469 202.623 318.921 202.77 319.471C203.012 320.377 203.239 321.544 203.896 322.267C204.46 322.886 205.42 322.63 206.15 322.672C207.287 322.737 207.583 324.155 208.805 323.685C213.911 321.719 215.805 313.264 217.819 308.939C219.146 306.088 223.625 295.831 228.281 297.11C231.071 297.876 233.618 301.204 235.182 303.308C238.381 307.61 240.932 312.5 242.807 317.527C244.732 322.687 247.374 332.134 240.835 335.311C239.285 336.064 234.715 337.443 232.989 336.202C230.495 334.409 230.615 330.862 230.615 328.141" stroke="#6886F0" stroke-width="2" stroke-linecap="round" stroke-linejoin="round"/>
<g filter="url(#filter1_d)">
<circle cx="285.551" cy="130.743" r="19.5513" fill="white"/>
</g>
<path d="M280.077 123.999V134.882C280.077 135.312 280.427 135.66 280.859 135.66H283.205V134.105H281.641V124.776H283.205V123.221H280.859C280.427 123.221 280.077 123.569 280.077 123.999ZM291.215 123.245L284.959 121.69C284.726 121.632 284.479 121.684 284.288 121.831C284.098 121.979 283.987 122.205 283.987 122.444V136.437C283.987 136.676 284.098 136.903 284.288 137.05C284.428 137.158 284.597 137.214 284.769 137.214C284.833 137.214 284.896 137.207 284.959 137.191L291.215 135.636C291.564 135.549 291.808 135.239 291.808 134.882V123.999C291.808 123.642 291.564 123.332 291.215 123.245ZM287.898 129.587C287.898 129.943 287.653 130.254 287.305 130.341C286.811 130.464 286.334 130.093 286.334 129.587V129.294C286.334 128.788 286.811 128.417 287.305 128.539C287.654 128.627 287.898 128.937 287.898 129.294V129.587Z" fill="#0033EA"/>
<g filter="url(#filter2_d)">
<circle cx="490.449" cy="130.743" r="19.5513" fill="white"/>
</g>
<path d="M497.471 129.286C497.411 128.992 497.187 128.758 496.894 128.687L491.529 127.353L493.513 122.75C493.655 122.421 493.553 122.038 493.265 121.823C492.976 121.606 492.578 121.615 492.3 121.842L483.697 128.838C483.468 129.025 483.364 129.323 483.429 129.61C483.493 129.897 483.715 130.123 484.002 130.194L489.257 131.501L486.641 136.052C486.457 136.372 486.525 136.776 486.802 137.02C486.949 137.149 487.135 137.214 487.32 137.214C487.485 137.214 487.65 137.163 487.789 137.058L497.174 130.062C497.415 129.882 497.531 129.581 497.471 129.286Z" fill="#0033EA"/>
<g filter="url(#filter3_d)">
<circle cx="388" cy="34.5513" r="19.5513" fill="white"/>
</g>
<path d="M383.078 41.8192C383.374 42.113 383.766 42.2747 384.184 42.2747C384.601 42.2747 384.994 42.113 385.29 41.8192L388.681 38.4487C389.241 38.6205 389.822 38.7076 390.414 38.7076C391.981 38.7076 393.454 38.1021 394.561 37.0014C396.239 35.3325 396.74 32.8436 395.837 30.6601L395.391 29.5812L392.072 32.8793L390.414 31.2299L393.732 27.9318L392.646 27.4879C391.934 27.1972 391.182 27.0503 390.411 27.0503C388.845 27.0503 387.372 27.6566 386.266 28.7573C384.713 30.2994 384.168 32.5443 384.809 34.6011L381.418 37.9715C380.808 38.577 380.808 39.5642 381.418 40.1697L383.078 41.8192ZM386.635 34.9858L386.436 34.507C385.773 32.905 386.14 31.0791 387.371 29.8564C388.183 29.0495 389.262 28.6049 390.411 28.6049C390.55 28.6049 390.687 28.6111 390.823 28.6243L388.2 31.2307L392.071 35.0783L394.695 32.4705C394.817 33.7204 394.379 34.9819 393.453 35.9031C392.241 37.1079 390.353 37.4787 388.774 36.8327L388.293 36.6345L384.184 40.72H384.185L384.184 41.4973V40.72L382.524 39.0706L386.635 34.9858Z" fill="#0033EA"/>
<g filter="url(#filter4_d)">
<circle cx="388" cy="225.372" r="19.5513" fill="white"/>
</g>
<rect x="377.833" y="222.243" width="2.34615" height="8.60256" fill="#0033EA"/>
<path d="M387.218 221.461C387.218 221.03 387.568 220.679 388 220.679C388.432 220.679 388.782 221.03 388.782 221.461V223.808H387.218V221.461Z" fill="#0033EA"/>
<path d="M380.961 224.59H394.256C395.552 224.59 396.602 225.64 396.602 226.936H380.961V224.59Z" fill="#0033EA"/>
<rect x="394.256" y="227.718" width="2.34615" height="1.5641" fill="#0033EA"/>
<rect x="393.474" y="230.064" width="3.91026" height="0.782051" fill="#0033EA"/>
<ellipse cx="386.044" cy="221.07" rx="0.391026" ry="1.17308" transform="rotate(-90 386.044 221.07)" fill="#0033EA"/>
<ellipse cx="389.955" cy="221.07" rx="0.391026" ry="1.17308" transform="rotate(-90 389.955 221.07)" fill="#0033EA"/>
<g filter="url(#filter5_d)">
<path d="M420.064 129.961C420.064 134.977 418.827 139.916 416.463 144.339C414.099 148.763 410.68 152.535 406.509 155.321C402.339 158.108 397.546 159.823 392.554 160.315C387.562 160.806 382.527 160.059 377.893 158.14C373.259 156.22 369.17 153.188 365.988 149.31C362.806 145.433 360.629 140.831 359.651 135.912C358.672 130.992 358.922 125.908 360.378 121.108C361.834 116.308 364.451 111.941 367.998 108.395L389.564 129.961H420.064Z" fill="white"/>
</g>
<circle cx="389.757" cy="130.505" r="2.34615" fill="#2FC643"/>
<circle cx="389.768" cy="158.262" r="1.17874" fill="#2FC643"/>
<circle cx="361.285" cy="130.517" r="1.17874" fill="#2FC643"/>
<path d="M366.52 106.083L389.981 129.545" stroke="#2FC643"/>
<line x1="422.41" y1="130.461" x2="391.128" y2="130.461" stroke="#2FC643"/>
<line x1="398.033" y1="111.231" x2="402.079" y2="114.749" stroke="white"/>
<line x1="398.472" y1="109.076" x2="404.602" y2="114.405" stroke="white"/>
<line x1="398.502" y1="106.565" x2="406.676" y2="113.671" stroke="white"/>
<line x1="389.281" y1="58.7949" x2="389.281" y2="66.6154" stroke="black"/>
<line x1="389.281" y1="72.8718" x2="389.281" y2="80.6923" stroke="black"/>
<line x1="389.281" y1="86.9487" x2="389.281" y2="94.7692" stroke="black"/>
<line x1="389.281" y1="165.154" x2="389.281" y2="172.975" stroke="black"/>
<line x1="389.281" y1="179.231" x2="389.281" y2="187.051" stroke="black"/>
<line x1="389.281" y1="193.308" x2="389.281" y2="201.128" stroke="black"/>
<line x1="312.923" y1="130.244" x2="320.743" y2="130.244" stroke="black"/>
<line x1="327" y1="130.244" x2="334.821" y2="130.244" stroke="black"/>
<line x1="341.077" y1="130.244" x2="348.898" y2="130.244" stroke="black"/>
<line x1="428.667" y1="130.244" x2="436.488" y2="130.244" stroke="black"/>
<line x1="442.744" y1="130.244" x2="450.565" y2="130.244" stroke="black"/>
<line x1="456.821" y1="130.244" x2="464.642" y2="130.244" stroke="black"/>
<path d="M391.496 140.393L388.537 137.718C388.247 137.456 387.798 137.469 387.525 137.749L385.783 139.53C385.364 139.45 384.521 139.189 383.653 138.329C382.785 137.466 382.523 136.626 382.445 136.212L384.235 134.48C384.517 134.208 384.53 133.763 384.266 133.473L381.577 130.533C381.312 130.243 380.863 130.215 380.564 130.47L378.985 131.817C378.859 131.943 378.784 132.109 378.774 132.286C378.763 132.467 378.555 136.752 381.897 140.076C384.813 142.973 388.465 143.185 389.471 143.185C389.618 143.185 389.708 143.181 389.732 143.18C389.91 143.169 390.078 143.095 390.204 142.969L391.558 141.398C391.815 141.101 391.787 140.655 391.496 140.393Z" fill="#C4C4C4"/>
<defs>
<filter id="filter0_d" x="0" y="15" width="408.223" height="367" filterUnits="userSpaceOnUse" color-interpolation-filters="sRGB">
<feFlood flood-opacity="0" result="BackgroundImageFix"/>
<feColorMatrix in="SourceAlpha" type="matrix" values="0 0 0 0 0 0 0 0 0 0 0 0 0 0 0 0 0 0 127 0"/>
<feOffset dx="10" dy="10"/>
<feGaussianBlur stdDeviation="5"/>
<feColorMatrix type="matrix" values="0 0 0 0 0 0 0 0 0 0 0 0 0 0 0 0 0 0 0.05 0"/>
<feBlend mode="normal" in2="BackgroundImageFix" result="effect1_dropShadow"/>
<feBlend mode="normal" in="SourceGraphic" in2="effect1_dropShadow" result="shape"/>
</filter>
<filter id="filter1_d" x="256" y="96.1921" width="79.1026" height="79.1026" filterUnits="userSpaceOnUse" color-interpolation-filters="sRGB">
<feFlood flood-opacity="0" result="BackgroundImageFix"/>
<feColorMatrix in="SourceAlpha" type="matrix" values="0 0 0 0 0 0 0 0 0 0 0 0 0 0 0 0 0 0 127 0"/>
<feOffset dx="10" dy="5"/>
<feGaussianBlur stdDeviation="10"/>
<feColorMatrix type="matrix" values="0 0 0 0 0 0 0 0 0 0 0 0 0 0 0 0 0 0 0.1 0"/>
<feBlend mode="normal" in2="BackgroundImageFix" result="effect1_dropShadow"/>
<feBlend mode="normal" in="SourceGraphic" in2="effect1_dropShadow" result="shape"/>
</filter>
<filter id="filter2_d" x="460.897" y="96.1921" width="79.1026" height="79.1026" filterUnits="userSpaceOnUse" color-interpolation-filters="sRGB">
<feFlood flood-opacity="0" result="BackgroundImageFix"/>
<feColorMatrix in="SourceAlpha" type="matrix" values="0 0 0 0 0 0 0 0 0 0 0 0 0 0 0 0 0 0 127 0"/>
<feOffset dx="10" dy="5"/>
<feGaussianBlur stdDeviation="10"/>
<feColorMatrix type="matrix" values="0 0 0 0 0 0 0 0 0 0 0 0 0 0 0 0 0 0 0.1 0"/>
<feBlend mode="normal" in2="BackgroundImageFix" result="effect1_dropShadow"/>
<feBlend mode="normal" in="SourceGraphic" in2="effect1_dropShadow" result="shape"/>
</filter>
<filter id="filter3_d" x="358.448" y="0" width="79.1026" height="79.1026" filterUnits="userSpaceOnUse" color-interpolation-filters="sRGB">
<feFlood flood-opacity="0" result="BackgroundImageFix"/>
<feColorMatrix in="SourceAlpha" type="matrix" values="0 0 0 0 0 0 0 0 0 0 0 0 0 0 0 0 0 0 127 0"/>
<feOffset dx="10" dy="5"/>
<feGaussianBlur stdDeviation="10"/>
<feColorMatrix type="matrix" values="0 0 0 0 0 0 0 0 0 0 0 0 0 0 0 0 0 0 0.1 0"/>
<feBlend mode="normal" in2="BackgroundImageFix" result="effect1_dropShadow"/>
<feBlend mode="normal" in="SourceGraphic" in2="effect1_dropShadow" result="shape"/>
</filter>
<filter id="filter4_d" x="358.448" y="190.821" width="79.1026" height="79.1026" filterUnits="userSpaceOnUse" color-interpolation-filters="sRGB">
<feFlood flood-opacity="0" result="BackgroundImageFix"/>
<feColorMatrix in="SourceAlpha" type="matrix" values="0 0 0 0 0 0 0 0 0 0 0 0 0 0 0 0 0 0 127 0"/>
<feOffset dx="10" dy="5"/>
<feGaussianBlur stdDeviation="10"/>
<feColorMatrix type="matrix" values="0 0 0 0 0 0 0 0 0 0 0 0 0 0 0 0 0 0 0.1 0"/>
<feBlend mode="normal" in2="BackgroundImageFix" result="effect1_dropShadow"/>
<feBlend mode="normal" in="SourceGraphic" in2="effect1_dropShadow" result="shape"/>
</filter>
<filter id="filter5_d" x="355.064" y="108.395" width="69" height="60.0668" filterUnits="userSpaceOnUse" color-interpolation-filters="sRGB">
<feFlood flood-opacity="0" result="BackgroundImageFix"/>
<feColorMatrix in="SourceAlpha" type="matrix" values="0 0 0 0 0 0 0 0 0 0 0 0 0 0 0 0 0 0 127 0"/>
<feOffset dy="4"/>
<feGaussianBlur stdDeviation="2"/>
<feColorMatrix type="matrix" values="0 0 0 0 0 0 0 0 0 0 0 0 0 0 0 0 0 0 0.1 0"/>
<feBlend mode="normal" in2="BackgroundImageFix" result="effect1_dropShadow"/>
<feBlend mode="normal" in="SourceGraphic" in2="effect1_dropShadow" result="shape"/>
</filter>
</defs>
</svg>
