<svg width="32" height="31" viewBox="0 0 32 31" fill="none" xmlns="http://www.w3.org/2000/svg">
<path d="M30.5604 0.567261H2.02006C1.3337 0.567261 0.779175 1.10903 0.779175 1.77962V29.6639C0.779175 30.3345 1.3337 30.8763 2.02006 30.8763H30.5604C31.2468 30.8763 31.8013 30.3345 31.8013 29.6639V1.77962C31.8013 1.10903 31.2468 0.567261 30.5604 0.567261ZM24.6391 11.5429C24.6507 11.721 24.6507 11.9066 24.6507 12.0885C24.6507 17.6502 20.3154 24.0567 12.3931 24.0567C9.9501 24.0567 7.68548 23.3634 5.77762 22.17C6.12662 22.2079 6.46011 22.223 6.81686 22.223C8.8333 22.223 10.6869 21.5562 12.1643 20.4272C10.272 20.3893 8.68207 19.177 8.13918 17.51C8.80228 17.6047 9.39946 17.6047 10.0819 17.4342C9.10756 17.2408 8.23176 16.7238 7.60334 15.971C6.97491 15.2182 6.63262 14.276 6.63461 13.3046V13.2516C7.20464 13.566 7.87549 13.7593 8.57737 13.7858C7.98734 13.4016 7.50345 12.8811 7.16862 12.2704C6.83379 11.6598 6.65835 10.9778 6.65787 10.2851C6.65787 9.50084 6.86727 8.78479 7.24342 8.16345C8.32494 9.46423 9.67451 10.5281 11.2044 11.2859C12.7343 12.0437 14.4103 12.4785 16.1235 12.562C15.5147 9.70164 17.7018 7.38679 20.3309 7.38679C21.5718 7.38679 22.6886 7.89446 23.4758 8.7128C24.4491 8.53474 25.3797 8.17861 26.2096 7.70124C25.8877 8.67492 25.213 9.49705 24.3172 10.0161C25.1859 9.92516 26.0235 9.69027 26.799 9.36066C26.2135 10.2017 25.4806 10.9481 24.6391 11.5429Z" fill="#26A1F7"/>
</svg>
