<svg width="48" height="48" viewBox="0 0 48 48" fill="none" xmlns="http://www.w3.org/2000/svg">
<circle cx="24" cy="24" r="24" fill="#0033EA"/>
<path d="M10.5708 36.5415C10.6691 36.5671 10.7735 36.553 10.8614 36.5021C10.9493 36.4513 11.0136 36.3678 11.0404 36.2699C11.8308 33.3207 15.0432 32.5564 16.9632 32.099C17.4444 31.9847 17.8243 31.8941 18.0714 31.7875C20.2585 30.8382 20.9714 29.3111 21.1847 28.1968C21.1974 28.1305 21.1924 28.062 21.1701 27.9983C21.1479 27.9346 21.1093 27.8778 21.0581 27.8338C19.9193 26.8508 18.9585 25.3751 18.3522 23.6776C18.3351 23.6289 18.3082 23.5842 18.2732 23.5463C17.4713 22.6746 17.0108 21.7529 17.0108 21.0185C17.0108 20.5895 17.1727 20.3018 17.5373 20.0846C17.5919 20.0519 17.6375 20.0062 17.67 19.9516C17.7026 19.8969 17.721 19.835 17.7237 19.7715C17.8933 15.8623 20.6775 12.7851 24.0924 12.7651L24.1745 12.7705C27.6063 12.8181 30.3728 15.9613 30.4718 19.9257C30.4732 19.9799 30.4861 20.0332 30.5096 20.082C30.5332 20.1308 30.5669 20.1741 30.6084 20.2089C30.8486 20.4123 30.9607 20.6701 30.9607 21.02C30.9607 21.6347 30.633 22.3906 30.039 23.1473C30.0107 23.1837 29.9889 23.2247 29.9745 23.2685C29.3606 25.2147 28.2586 26.9329 26.9525 27.9842C26.8984 28.0279 26.8571 28.0855 26.8331 28.1507C26.809 28.216 26.8031 28.2865 26.8159 28.3549C27.0293 29.4684 27.7422 30.9947 29.9293 31.9456C30.1879 32.0576 30.5892 32.1451 31.098 32.2548C32.9989 32.6661 36.1798 33.356 36.9602 36.2699C36.9733 36.3185 36.9959 36.3642 37.0266 36.4041C37.0573 36.4441 37.0956 36.4776 37.1393 36.5027C37.183 36.5279 37.2312 36.5442 37.2812 36.5507C37.3312 36.5572 37.3819 36.5539 37.4306 36.5408C37.4793 36.5277 37.5249 36.5051 37.5649 36.4744C37.6048 36.4436 37.6383 36.4053 37.6635 36.3617C37.6886 36.318 37.705 36.2698 37.7115 36.2198C37.718 36.1698 37.7146 36.119 37.7015 36.0703C36.7998 32.7037 33.1961 31.9233 31.2607 31.5043C30.8118 31.4068 30.4242 31.3232 30.2355 31.2403C28.8081 30.6203 27.9286 29.6756 27.6178 28.4278C28.9432 27.2897 30.052 25.5339 30.6859 23.5648C31.3589 22.6899 31.7288 21.789 31.7288 21.0193C31.7288 20.5059 31.5631 20.0777 31.2346 19.7431C31.052 15.4426 27.9831 12.056 24.1745 12.0015L24.0602 12C20.3206 12.02 17.2387 15.3175 16.9694 19.5436C16.489 19.8966 16.2449 20.3915 16.2449 21.02C16.2449 21.9279 16.7583 23.0138 17.657 24.0098C18.2778 25.7158 19.2401 27.2145 20.3858 28.2636C20.0766 29.516 19.1964 30.4637 17.7659 31.0845C17.581 31.1651 17.2126 31.2534 16.786 31.3547C14.836 31.8182 11.2077 32.6815 10.2991 36.0719C10.2729 36.1702 10.2868 36.2749 10.3377 36.363C10.3886 36.451 10.4725 36.5153 10.5708 36.5415Z" fill="white"/>
</svg>
