<svg width="26" height="24" viewBox="0 0 26 24" fill="none" xmlns="http://www.w3.org/2000/svg">
<path d="M0.865084 22.9165L0.86448 22.9164C0.74927 22.8856 0.651005 22.8103 0.591295 22.7071C0.531584 22.6038 0.515318 22.4811 0.546074 22.3659L0.5461 22.3658C0.969264 20.7868 2.02639 19.7985 3.1947 19.154C4.35969 18.5112 5.64237 18.2063 6.52978 17.9954L6.53206 17.9948L6.53209 17.9948C6.92614 17.9013 7.25028 17.8232 7.40845 17.7542L7.40858 17.7542C8.6683 17.2075 9.43948 16.3845 9.72466 15.3077C8.6903 14.3451 7.82445 12.9883 7.26177 11.4501C6.44188 10.5363 5.96207 9.52981 5.96207 8.67257C5.96207 8.08614 6.18552 7.61424 6.62561 7.2745C6.89308 3.40352 9.72672 0.369624 13.1848 0.351173L13.1867 0.351163L13.1867 0.351181L13.2909 0.35258L13.291 0.352581C16.815 0.402995 19.6382 3.52327 19.8228 7.4666C20.1244 7.78788 20.275 8.19444 20.275 8.67187C20.275 9.39914 19.9288 10.2359 19.3143 11.0391C18.7386 12.8183 17.7399 14.4105 16.5403 15.4594C16.8272 16.531 17.5975 17.3505 18.8537 17.8962L18.854 17.8963C18.9314 17.9303 19.0551 17.9665 19.2161 18.0061C19.3719 18.0445 19.5563 18.0845 19.7563 18.1279L19.7695 18.1308L19.7695 18.1308L19.7729 18.1315C20.6535 18.3222 21.927 18.5979 23.0839 19.2137C24.2448 19.8316 25.2953 20.7958 25.7154 22.3644M0.865084 22.9165L25.6188 22.3903M0.865084 22.9165C0.980121 22.9465 1.10234 22.9299 1.20524 22.8704C1.30815 22.8109 1.38345 22.7132 1.41482 22.5985L1.41496 22.598M0.865084 22.9165L1.41496 22.598M25.7154 22.3644L25.6188 22.3903M25.7154 22.3644C25.7154 22.3644 25.7154 22.3643 25.7154 22.3643L25.6188 22.3903M25.7154 22.3644C25.7308 22.4214 25.7347 22.4809 25.7271 22.5394C25.7194 22.598 25.7003 22.6545 25.6708 22.7057C25.6414 22.7569 25.6021 22.8018 25.5553 22.8378C25.5084 22.8738 25.455 22.9003 25.3979 22.9156C25.3409 22.931 25.2814 22.9349 25.2228 22.9273C25.1642 22.9196 25.1077 22.9005 25.0565 22.8711L25.1064 22.7844C25.1462 22.8073 25.1902 22.8222 25.2357 22.8281C25.2813 22.8341 25.3276 22.831 25.3719 22.8191C25.4163 22.8071 25.4579 22.7865 25.4943 22.7585C25.5307 22.7305 25.5613 22.6956 25.5842 22.6558C25.6071 22.616 25.622 22.5721 25.6279 22.5265C25.6339 22.4809 25.6308 22.4347 25.6188 22.3903M1.41496 22.598C1.76589 21.2887 2.65391 20.4615 3.67899 19.9077C4.70649 19.3526 5.86336 19.0767 6.73993 18.8679L6.74368 18.867C7.17644 18.7642 7.53184 18.6797 7.76641 18.5784L7.76659 18.5784M1.41496 22.598L7.76659 18.5784M7.76659 18.5784C9.79481 17.698 10.463 16.2757 10.6627 15.2327L10.6627 15.2327M7.76659 18.5784L10.6627 15.2327M10.6627 15.2327C10.6775 15.155 10.6717 15.0747 10.6456 15C10.6196 14.9254 10.5743 14.8589 10.5144 14.8073C9.49191 13.9247 8.62495 12.5954 8.07704 11.0614C8.05694 11.0043 8.02539 10.9519 7.98433 10.9075C7.2605 10.1206 6.86013 9.30394 6.86013 8.67117C6.86013 8.48845 6.89452 8.34302 6.96257 8.22225C7.03057 8.10156 7.13637 7.99805 7.29114 7.90584L7.29126 7.90577C7.35526 7.86751 7.40874 7.81394 7.44689 7.74988C7.48503 7.68585 7.50666 7.61335 7.50983 7.53889C7.66259 4.01773 10.166 1.26846 13.2117 1.24855M10.6627 15.2327L13.2117 1.24855M13.2117 1.24855L13.283 1.25321L13.283 1.25334L13.2882 1.25342C16.3501 1.29587 18.8401 4.1047 18.9293 7.67764V7.6777C18.9309 7.74127 18.9461 7.80376 18.9737 7.86104L19.0638 7.81759L18.9737 7.86104C19.0013 7.91824 19.0407 7.96892 19.0894 8.00973M13.2117 1.24855L19.0894 8.00973M19.0894 8.00973C19.0893 8.00968 19.0892 8.00962 19.0892 8.00956L19.1538 7.93324L19.0896 8.00989C19.0895 8.00984 19.0894 8.00979 19.0894 8.00973ZM19.5789 19.0103C19.5789 19.0103 19.5789 19.0103 19.5789 19.0103L19.6 18.9126L19.5789 19.0103Z" fill="black" stroke="white" stroke-width="0.2"/>
</svg>
