<svg width="26" height="24" viewBox="0 0 26 24" fill="none" xmlns="http://www.w3.org/2000/svg">
<path d="M0.865084 22.9166L0.86448 22.9165C0.74927 22.8857 0.651005 22.8104 0.591295 22.7072C0.531584 22.604 0.515318 22.4812 0.546074 22.366L0.5461 22.3659C0.969264 20.7869 2.02639 19.7986 3.1947 19.1541C4.35969 18.5113 5.64237 18.2064 6.52978 17.9955L6.53206 17.995L6.53209 17.995C6.92614 17.9014 7.25028 17.8233 7.40845 17.7544L7.40858 17.7543C8.6683 17.2076 9.43948 16.3847 9.72466 15.3079C8.6903 14.3452 7.82445 12.9884 7.26177 11.4502C6.44188 10.5365 5.96207 9.52994 5.96207 8.67269C5.96207 8.08626 6.18552 7.61436 6.62561 7.27462C6.89308 3.40364 9.72672 0.369746 13.1848 0.351295L13.1867 0.351285L13.1867 0.351303L13.2909 0.352702L13.291 0.352703C16.815 0.403117 19.6382 3.52339 19.8228 7.46672C20.1244 7.788 20.275 8.19457 20.275 8.67199C20.275 9.39927 19.9288 10.236 19.3143 11.0392C18.7386 12.8184 17.7399 14.4106 16.5403 15.4595C16.8272 16.5312 17.5975 17.3506 18.8537 17.8963L18.854 17.8965C18.9314 17.9304 19.0551 17.9667 19.2161 18.0063C19.3719 18.0446 19.5563 18.0846 19.7563 18.128L19.7695 18.1309L19.7695 18.1309L19.7729 18.1317C20.6535 18.3223 21.927 18.598 23.0839 19.2138C24.2448 19.8317 25.2953 20.7959 25.7154 22.3645M0.865084 22.9166L25.6188 22.3904M0.865084 22.9166C0.980121 22.9466 1.10234 22.93 1.20524 22.8705C1.30815 22.811 1.38345 22.7133 1.41482 22.5987L1.41496 22.5982M0.865084 22.9166L1.41496 22.5982M25.7154 22.3645L25.6188 22.3904M25.7154 22.3645C25.7154 22.3645 25.7154 22.3645 25.7154 22.3644L25.6188 22.3904M25.7154 22.3645C25.7308 22.4215 25.7347 22.481 25.7271 22.5396C25.7194 22.5981 25.7003 22.6546 25.6708 22.7058C25.6414 22.757 25.6021 22.8019 25.5553 22.8379C25.5084 22.8739 25.455 22.9004 25.3979 22.9157C25.3409 22.9311 25.2814 22.9351 25.2228 22.9274C25.1642 22.9198 25.1077 22.9007 25.0565 22.8712L25.1064 22.7845C25.1462 22.8074 25.1902 22.8223 25.2357 22.8283C25.2813 22.8342 25.3276 22.8311 25.3719 22.8192C25.4163 22.8072 25.4579 22.7867 25.4943 22.7587C25.5307 22.7306 25.5613 22.6957 25.5842 22.6559C25.6071 22.6161 25.622 22.5722 25.6279 22.5266C25.6339 22.4811 25.6308 22.4348 25.6188 22.3904M1.41496 22.5982C1.76589 21.2888 2.65391 20.4616 3.67899 19.9078C4.70649 19.3527 5.86336 19.0768 6.73993 18.868L6.74368 18.8671C7.17644 18.7643 7.53184 18.6798 7.76641 18.5786L7.76659 18.5785M1.41496 22.5982L7.76659 18.5785M7.76659 18.5785C9.79481 17.6982 10.463 16.2758 10.6627 15.2328L10.6627 15.2328M7.76659 18.5785L10.6627 15.2328M10.6627 15.2328C10.6775 15.1551 10.6717 15.0748 10.6456 15.0001C10.6196 14.9255 10.5743 14.859 10.5144 14.8075C9.49191 13.9248 8.62495 12.5956 8.07704 11.0615C8.05694 11.0044 8.02539 10.9521 7.98433 10.9076C7.2605 10.1207 6.86013 9.30407 6.86013 8.67129C6.86013 8.48857 6.89452 8.34315 6.96257 8.22237C7.03057 8.10168 7.13637 7.99817 7.29114 7.90596L7.29126 7.90589C7.35526 7.86763 7.40874 7.81406 7.44689 7.75C7.48503 7.68597 7.50666 7.61347 7.50983 7.53901C7.66259 4.01785 10.166 1.26859 13.2117 1.24867M10.6627 15.2328L13.2117 1.24867M13.2117 1.24867L13.283 1.25333L13.283 1.25347L13.2882 1.25354C16.3501 1.29599 18.8401 4.10482 18.9293 7.67776V7.67782C18.9309 7.74139 18.9461 7.80389 18.9737 7.86116L19.0638 7.81771L18.9737 7.86116C19.0013 7.91836 19.0407 7.96904 19.0894 8.00985M13.2117 1.24867L19.0894 8.00985M19.0894 8.00985C19.0893 8.0098 19.0892 8.00974 19.0892 8.00969L19.1538 7.93337L19.0896 8.01002C19.0895 8.00996 19.0894 8.00991 19.0894 8.00985ZM19.5789 19.0105C19.5789 19.0105 19.5789 19.0105 19.5789 19.0105L19.6 18.9127L19.5789 19.0105Z" fill="white" stroke="white" stroke-width="0.2"/>
</svg>
