<svg width="32" height="32" viewBox="0 0 32 32" fill="none" xmlns="http://www.w3.org/2000/svg">
<path d="M27.4691 10.2612C27.2672 10.2208 27.1157 10.2006 27.0147 10.2006C26.2674 10.2006 25.6211 10.4531 25.0758 10.958C23.8438 10.4127 22.6926 9.96836 21.6222 9.62502C19.8651 9.05951 18.0272 8.59499 16.1085 8.23145C15.9267 7.74673 15.6541 7.34279 15.2905 7.01964C15.7954 4.63643 16.472 2.47538 17.3203 0.536499C19.8651 0.718269 22.2028 1.45545 24.3336 2.74804C26.4643 4.04063 28.1861 5.73715 29.4989 7.83761C28.7516 8.64548 28.075 9.45335 27.4691 10.2612ZM13.4122 6.32286C12.8871 6.32286 12.3923 6.46423 11.9278 6.74699C10.2918 5.53519 8.6458 4.50515 6.98966 3.65689C9.49406 1.7584 12.3014 0.718269 15.4117 0.536499C14.624 2.29361 13.9878 4.2224 13.5031 6.32286H13.4122ZM2.89983 8.20115C3.58652 7.04994 4.45498 5.95932 5.50521 4.92928C6.87858 5.63617 8.30245 6.50463 9.77681 7.53466C7.17143 7.47407 4.87911 7.69623 2.89983 8.20115ZM10.5039 9.41296C10.5443 10.0391 10.7614 10.5894 11.1552 11.064C11.5491 11.5387 12.0388 11.8568 12.6245 12.0183C12.5034 13.4321 12.4428 14.7752 12.4428 16.0476C12.4428 16.9362 12.4731 17.9562 12.5337 19.1074C12.0893 19.2488 11.6955 19.4911 11.3522 19.8345C10.2615 19.4103 9.2113 18.9256 8.20147 18.3803C8.42363 17.936 8.53471 17.4815 8.53471 17.017C8.53471 16.2091 8.25196 15.5225 7.68645 14.957C7.12094 14.3914 6.43426 14.1087 5.62639 14.1087C4.73773 14.1087 4.00055 14.452 3.41485 15.1387C2.56658 14.3712 1.80921 13.5735 1.14272 12.7454C1.32449 11.877 1.59714 11.0186 1.96068 10.1703C4.42468 9.48364 7.27242 9.23118 10.5039 9.41296ZM2.74835 17.2594C2.80894 18.0067 3.11694 18.6378 3.67235 19.1528C4.22776 19.6678 4.87911 19.9253 5.62639 19.9253C5.84855 19.9253 6.09091 19.885 6.35347 19.8042C7.64606 20.5514 9.02953 21.1977 10.5039 21.743V21.8642C10.5039 22.6519 10.7715 23.3234 11.3067 23.8789C11.8419 24.4343 12.5034 24.7322 13.291 24.7726C13.796 27.2366 14.5028 29.4885 15.4117 31.5284C13.392 31.4072 11.4834 30.9174 9.68593 30.059C7.88842 29.2007 6.33832 28.0848 5.03563 26.7114C3.73294 25.3381 2.69786 23.7223 1.93039 21.8642C1.16291 20.0061 0.779175 18.0672 0.779175 16.0476C0.779175 16.0274 0.789273 15.7547 0.80947 15.2296C1.37498 15.9365 2.02127 16.6131 2.74835 17.2594ZM15.957 23.2275C17.4112 23.4901 18.8754 23.6617 20.3498 23.7425C20.4912 24.1465 20.7133 24.5201 21.0163 24.8634C20.5518 26.9841 20.269 29.0442 20.168 31.0436C19.138 31.3062 18.1887 31.4678 17.3203 31.5284C16.371 29.3673 15.6339 26.9235 15.1087 24.197C15.4723 23.9546 15.755 23.6314 15.957 23.2275ZM25.3485 24.6817C25.611 24.3585 25.7928 24.0152 25.8938 23.6516C27.3682 23.5305 28.792 23.3386 30.1654 23.076C29.196 24.9745 27.863 26.6206 26.1664 28.0141C25.9847 26.9639 25.712 25.8531 25.3485 24.6817ZM20.4104 21.8036C18.9966 21.7229 17.603 21.5411 16.2297 21.2583C16.0075 20.2485 15.4319 19.5517 14.5028 19.168C14.4221 17.9764 14.3817 16.9362 14.3817 16.0476C14.3817 14.7146 14.4423 13.3311 14.5634 11.8972C14.6038 11.8972 14.6543 11.877 14.7149 11.8366C14.7755 11.7962 14.8159 11.776 14.8361 11.776C15.6238 12.5434 16.3104 13.2503 16.8962 13.8966C18.6533 15.8355 20.1478 18.037 21.3798 20.501C20.9355 20.8443 20.6123 21.2785 20.4104 21.8036ZM23.1066 25.742C23.147 25.742 23.2581 25.7319 23.4399 25.7117C23.7832 26.9437 24.0357 28.1656 24.1973 29.3774C23.6116 29.7208 22.9047 30.0641 22.0766 30.4074C22.218 28.8321 22.4603 27.2669 22.8037 25.7117C22.9653 25.7319 23.0662 25.742 23.1066 25.742ZM22.9552 18.5015C22.935 18.5419 22.9097 18.6025 22.8794 18.6832C22.8491 18.764 22.8239 18.8246 22.8037 18.865C21.5313 16.5626 20.0367 14.4722 18.32 12.5939C17.6939 11.8871 16.9466 11.1196 16.0782 10.2915C16.0984 10.2915 16.1135 10.2764 16.1236 10.2461L16.1388 10.2006C17.8353 10.544 19.4611 10.9681 21.0163 11.473C21.9655 11.776 23.0057 12.1799 24.1367 12.6848C24.0963 12.8868 24.0761 13.0383 24.0761 13.1392C24.0761 13.7452 24.2579 14.3006 24.6214 14.8055C23.9549 16.0779 23.3995 17.3099 22.9552 18.5015ZM24.379 20.2586C24.6214 19.5517 24.7426 19.1882 24.7426 19.168C25.1465 18.1581 25.6514 17.0776 26.2573 15.9264C26.5199 16.0072 26.7723 16.0476 27.0147 16.0476C27.7014 16.0476 28.3174 15.8153 28.8627 15.3508C29.8523 16.0375 30.8218 16.805 31.771 17.6532C31.6499 18.8044 31.4075 19.9152 31.044 20.9857C29.3878 21.329 27.6408 21.5714 25.8029 21.7128C25.5403 21.0665 25.0657 20.5817 24.379 20.2586ZM29.923 13.109C29.923 12.4425 29.7009 11.8366 29.2565 11.2912C29.6807 10.7459 30.1048 10.2511 30.5289 9.80679C31.256 11.4629 31.6801 13.1695 31.8013 14.9267C31.1348 14.4217 30.4885 13.9673 29.8624 13.5634C29.9028 13.3816 29.923 13.2301 29.923 13.109Z" fill="#6C6C6C"/>
</svg>
