<svg width="60" height="60" viewBox="0 0 60 60" fill="none" xmlns="http://www.w3.org/2000/svg">
<circle opacity="0.8" cx="30" cy="30" r="30" fill="#0033EA"/>
<path fill-rule="evenodd" clip-rule="evenodd" d="M35.9283 32.4576C35.5873 32.2871 33.9154 31.4655 33.6042 31.351C33.2929 31.2378 33.0663 31.1817 32.8386 31.5227C32.612 31.8614 31.9609 32.6281 31.7629 32.8547C31.5638 33.0824 31.3659 33.1099 31.026 32.9405C30.6861 32.7688 29.5899 32.4107 28.2911 31.2526C27.2807 30.3509 26.5975 29.2375 26.3995 28.8965C26.2016 28.5566 26.3778 28.3724 26.5483 28.203C26.7016 28.0508 26.8882 27.806 27.0587 27.608C27.2292 27.4089 27.2852 27.267 27.3985 27.0393C27.513 26.8127 27.4557 26.6147 27.3699 26.4442C27.2852 26.2737 26.6055 24.5996 26.3217 23.9187C26.0459 23.2562 25.7656 23.3466 25.5573 23.3351C25.3582 23.326 25.1316 23.3237 24.9051 23.3237C24.6785 23.3237 24.31 23.4083 23.9988 23.7494C23.6864 24.0892 22.8087 24.912 22.8087 26.5861C22.8087 28.2591 24.0262 29.876 24.1967 30.1037C24.3672 30.3303 26.5941 33.7655 30.0053 35.2383C30.8177 35.5884 31.4505 35.7978 31.9437 35.9535C32.7585 36.2132 33.5 36.1766 34.0859 36.0885C34.7382 35.9912 36.0976 35.2657 36.3814 34.4716C36.6641 33.6774 36.6641 32.9966 36.5794 32.8547C36.4947 32.7128 36.2681 32.6281 35.9271 32.4576H35.9283ZM29.7238 40.929H29.7192C27.6931 40.9293 25.7042 40.3847 23.961 39.3521L23.5491 39.1072L19.267 40.2309L20.4102 36.0565L20.1413 35.6285C19.0086 33.8254 18.4091 31.7387 18.4122 29.6094C18.4145 23.3729 23.4884 18.299 29.7284 18.299C32.7493 18.299 35.5895 19.4776 37.7248 21.6152C38.778 22.6641 39.6128 23.9113 40.1808 25.2849C40.7489 26.6585 41.0389 28.131 41.0342 29.6174C41.0319 35.8539 35.958 40.929 29.7238 40.929ZM39.3498 19.9914C38.0889 18.7223 36.5888 17.716 34.9362 17.0308C33.2837 16.3457 31.5116 15.9953 29.7226 16C22.2228 16 16.1167 22.105 16.1144 29.6082C16.1133 32.0067 16.7392 34.348 17.9305 36.4112L16 43.4636L23.2138 41.5709C25.2093 42.6582 27.4456 43.2278 29.7181 43.2279H29.7238C37.2236 43.2279 43.3297 37.123 43.332 29.6185C43.3375 27.8303 42.9884 26.0587 42.3049 24.4062C41.6213 22.7538 40.6169 21.2532 39.3498 19.9914Z" fill="white"/>
</svg>
