<svg width="28" height="28" viewBox="0 0 28 28" fill="none" xmlns="http://www.w3.org/2000/svg">
<path d="M1.21558 27.0509L3.03479 20.4164C1.91301 18.4704 1.3229 16.2635 1.32371 14.0173C1.32371 6.95662 7.07408 1.2127 14.1282 1.2127C17.5569 1.2127 20.7692 2.54849 23.1863 4.9656C25.6034 7.38281 26.933 10.6015 26.933 14.0237C26.933 21.0843 21.1826 26.8282 14.1283 26.8282H14.122C11.9783 26.8282 9.8728 26.2876 8.00269 25.2698L1.21558 27.051V27.0509Z" fill="url(#paint0_linear)"/>
<path d="M0.751465 27.5152L2.63425 20.6454C1.4766 18.6354 0.859484 16.3518 0.86593 14.0173C0.86593 6.70225 6.81978 0.75473 14.135 0.75473C17.6843 0.75473 21.0173 2.13498 23.5173 4.64121C26.0235 7.14744 27.4038 10.4806 27.3975 14.0237C27.3975 21.3388 21.4436 27.2863 14.1284 27.2863H14.1222C11.9065 27.2854 9.72629 26.73 7.78029 25.6706L0.751465 27.5153V27.5152ZM8.11101 23.2661L8.51175 23.5078C10.2038 24.5129 12.1439 25.0409 14.1222 25.0472H14.1285C20.2032 25.0472 25.1521 20.1048 25.1521 14.0237C25.1521 11.0786 24.0071 8.31154 21.9271 6.22516C19.847 4.13878 17.0736 2.9938 14.1285 2.9938C8.04745 2.9938 3.09867 7.93625 3.09867 14.0173C3.09867 16.0974 3.67744 18.1265 4.7843 19.8821L5.04513 20.3019L3.93193 24.3665L8.11101 23.2661Z" fill="#3EC250"/>
<path d="M10.8149 8.46449C10.5667 7.91106 10.3059 7.89828 10.0706 7.89195C9.8798 7.88561 9.65721 7.88561 9.4345 7.88561C9.21191 7.88561 8.85562 7.96829 8.55034 8.29902C8.24495 8.62986 7.39258 9.43134 7.39258 11.0662C7.39258 12.6945 8.58213 14.272 8.74749 14.4946C8.91285 14.7173 11.0438 18.1712 14.4087 19.5007C17.2076 20.6076 17.7801 20.3849 18.3843 20.3276C18.995 20.2704 20.3436 19.5262 20.6234 18.7501C20.8969 17.9741 20.8969 17.3125 20.8142 17.1726C20.7315 17.0326 20.5089 16.95 20.1781 16.7846C19.8474 16.6192 18.219 15.8177 17.9137 15.7032C17.6083 15.5888 17.3857 15.5379 17.1695 15.8686C16.9467 16.1993 16.3107 16.9436 16.1198 17.1663C15.929 17.3889 15.7319 17.4143 15.401 17.249C15.0703 17.0836 14.0017 16.7337 12.7359 15.6014C11.7499 14.7236 11.082 13.6359 10.8911 13.3051C10.7003 12.9744 10.8721 12.7962 11.0375 12.6309C11.1837 12.4846 11.3682 12.2428 11.5337 12.052C11.699 11.8612 11.7563 11.7213 11.8644 11.4986C11.9725 11.276 11.9216 11.0852 11.8389 10.9198C11.7563 10.7544 11.1075 9.11961 10.8149 8.46449Z" fill="#3EC250"/>
<defs>
<linearGradient id="paint0_linear" x1="14.0738" y1="27.0492" x2="14.0738" y2="1.21115" gradientUnits="userSpaceOnUse">
<stop stop-color="white"/>
</linearGradient>
</defs>
</svg>
