<svg width="21" height="21" viewBox="0 0 21 21" fill="none" xmlns="http://www.w3.org/2000/svg">
<path fill-rule="evenodd" clip-rule="evenodd" d="M20.7735 9.46554C20.7419 9.18441 20.4141 8.97314 20.1307 8.97314C19.2142 8.97314 18.401 8.43505 18.06 7.60287C17.7116 6.75053 17.9362 5.7565 18.6192 5.13001C18.8342 4.93348 18.8603 4.60449 18.68 4.37596C18.211 3.78035 17.6779 3.24233 17.0958 2.77605C16.8679 2.59314 16.5335 2.61859 16.3358 2.83744C15.7398 3.49758 14.6691 3.74292 13.8417 3.39771C12.9808 3.03554 12.4378 2.1631 12.491 1.22659C12.5085 0.932433 12.2935 0.67667 12.0002 0.642514C11.2532 0.556119 10.4997 0.55344 9.75051 0.636561C9.46059 0.668559 9.24561 0.918294 9.25535 1.20873C9.28795 2.13601 8.73847 2.99319 7.88605 3.34235C7.06861 3.67624 6.00545 3.43298 5.41058 2.77873C5.21398 2.56323 4.88499 2.53674 4.65595 2.71526C4.05661 3.18548 3.51153 3.72394 3.03818 4.31465C2.85355 4.54429 2.88071 4.87715 3.09786 5.07472C3.79385 5.70501 4.01859 6.70767 3.65701 7.56983C3.3118 8.39182 2.45826 8.92157 1.48113 8.92157C1.16405 8.91138 0.9382 9.1242 0.903523 9.41249C0.815565 10.1638 0.814523 10.9293 0.899207 11.6867C0.93061 11.969 1.26838 12.1784 1.55495 12.1784C2.42575 12.1561 3.26179 12.6953 3.61251 13.5487C3.96211 14.4011 3.73737 15.3945 3.05336 16.0215C2.83941 16.2181 2.81225 16.5465 2.99256 16.7751C3.4572 17.3669 3.99038 17.9054 4.57454 18.3756C4.80366 18.5602 5.13704 18.5341 5.33565 18.3153C5.93394 17.6535 7.00454 17.4086 7.82861 17.7545C8.69174 18.1156 9.23467 18.9879 9.18153 19.9249C9.1642 20.2193 9.38022 20.4755 9.6723 20.5091C10.0544 20.5537 10.4388 20.5759 10.8243 20.5759C11.1902 20.5759 11.5562 20.5558 11.9221 20.5151C12.2121 20.4831 12.4269 20.2334 12.4171 19.9424C12.3836 19.0157 12.934 18.1585 13.7853 17.8099C14.6083 17.4738 15.667 17.7198 16.2619 18.3734C16.4596 18.5885 16.7863 18.6144 17.0166 18.4365C17.6149 17.9674 18.1588 17.4294 18.6344 16.837C18.8189 16.6079 18.7929 16.2745 18.5746 16.077C17.8786 15.4468 17.6528 14.4439 18.0144 13.5824C18.3543 12.7713 19.1761 12.2268 20.0601 12.2268L20.1838 12.23C20.4705 12.2533 20.7343 12.0324 20.7691 11.7397C20.8572 10.9878 20.8582 10.2229 20.7735 9.46554ZM10.8522 13.9326C9.01284 13.9326 7.51666 12.4365 7.51666 10.5971C7.51666 8.75779 9.01284 7.26154 10.8522 7.26154C12.6915 7.26154 14.1877 8.75779 14.1877 10.5971C14.1877 12.4365 12.6915 13.9326 10.8522 13.9326Z" fill="white"/>
</svg>
